<?xml version="1.0" encoding="UTF-8"?>
<svg width="34px" height="34px" viewBox="0 0 34 34" version="1.1" xmlns="http://www.w3.org/2000/svg" xmlns:xlink="http://www.w3.org/1999/xlink">
    <!-- Generator: Sketch 59.1 (86144) - https://sketch.com -->
    <title>Fill 175 Copy</title>
    <desc>Created with Sketch.</desc>
    <g id="Services-Page" stroke="none" stroke-width="1" fill="none" fill-rule="evenodd">
        <g id="Service-Page-Small-Business-Mobile-Icon-Design" transform="translate(-30.000000, -106.000000)" stroke="#979797">
            <path d="M42,127 C46.971,127 51,122.522 51,117 C51,111.478 46.971,107 42,107 C37.029,107 33,111.478 33,117 C33,122.522 37.029,127 42,127 L42,127 Z M50.703,124.319 C48.691,127.161 45.546,129 42,129 C38.454,129 35.309,127.161 33.297,124.319 C31.904,125.411 31,127.091 31,129 L31,133 C31,136.313 33.687,139 37,139 L47,139 C50.313,139 53,136.313 53,133 L53,129 C53,127.091 52.096,125.411 50.703,124.319 L50.703,124.319 Z M62,125 L56,125 C55.447,125 55,125.448 55,126 C55,126.553 55.447,127 56,127 L62,127 C62.553,127 63,126.553 63,126 C63,125.448 62.553,125 62,125 L62,125 Z M62,119 L54,119 C53.447,119 53,119.447 53,120 C53,120.553 53.447,121 54,121 L62,121 C62.553,121 63,120.553 63,120 C63,119.447 62.553,119 62,119 L62,119 Z M54,115 L62,115 C62.553,115 63,114.553 63,114 C63,113.448 62.553,113 62,113 L54,113 C53.447,113 53,113.448 53,114 C53,114.553 53.447,115 54,115 L54,115 Z M62,131 L56,131 C55.447,131 55,131.448 55,132 C55,132.553 55.447,133 56,133 L62,133 C62.553,133 63,132.553 63,132 C63,131.448 62.553,131 62,131 L62,131 Z" id="Fill-175-Copy"></path>
        </g>
    </g>
</svg>