<?xml version="1.0" encoding="UTF-8"?>
<svg width="32px" height="32px" viewBox="0 0 32 32" version="1.1" xmlns="http://www.w3.org/2000/svg" xmlns:xlink="http://www.w3.org/1999/xlink">
    <!-- Generator: Sketch 59.1 (86144) - https://sketch.com -->
    <title>Fill 175</title>
    <desc>Created with Sketch.</desc>
    <g id="Services-Page" stroke="none" stroke-width="1" fill="none" fill-rule="evenodd">
        <path d="M11,20 C15.971,20 20,15.522 20,10 C20,4.478 15.971,0 11,0 C6.029,0 2,4.478 2,10 C2,15.522 6.029,20 11,20 L11,20 Z M19.703,17.319 C17.691,20.161 14.546,22 11,22 C7.454,22 4.309,20.161 2.297,17.319 C0.904,18.411 0,20.091 0,22 L0,26 C0,29.313 2.687,32 6,32 L16,32 C19.313,32 22,29.313 22,26 L22,22 C22,20.091 21.096,18.411 19.703,17.319 L19.703,17.319 Z M31,18 L25,18 C24.447,18 24,18.448 24,19 C24,19.553 24.447,20 25,20 L31,20 C31.553,20 32,19.553 32,19 C32,18.448 31.553,18 31,18 L31,18 Z M31,12 L23,12 C22.447,12 22,12.447 22,13 C22,13.553 22.447,14 23,14 L31,14 C31.553,14 32,13.553 32,13 C32,12.447 31.553,12 31,12 L31,12 Z M23,8 L31,8 C31.553,8 32,7.553 32,7 C32,6.448 31.553,6 31,6 L23,6 C22.447,6 22,6.448 22,7 C22,7.553 22.447,8 23,8 L23,8 Z M31,24 L25,24 C24.447,24 24,24.448 24,25 C24,25.553 24.447,26 25,26 L31,26 C31.553,26 32,25.553 32,25 C32,24.448 31.553,24 31,24 L31,24 Z" id="Fill-175" fill="#FFFFFE"></path>
    </g>
</svg>