<?xml version="1.0" encoding="UTF-8"?>
<svg width="34px" height="34px" viewBox="0 0 34 34" version="1.1" xmlns="http://www.w3.org/2000/svg" xmlns:xlink="http://www.w3.org/1999/xlink">
    <!-- Generator: Sketch 59.1 (86144) - https://sketch.com -->
    <title>Fill 213 Copy 2</title>
    <desc>Created with Sketch.</desc>
    <g id="Services-Page" stroke="none" stroke-width="1" fill="none" fill-rule="evenodd">
        <path d="M32.396,5.097 L28.884,1.582 C28.107,0.806 26.85,0.806 26.074,1.582 L22.649,5.009 L25.459,5.009 L26.776,3.692 C27.164,3.303 27.793,3.303 28.182,3.692 L30.289,5.8 C30.677,6.189 30.677,6.818 30.289,7.206 L29,8.496 L29,11.307 L32.396,7.908 C33.172,7.133 33.172,5.873 32.396,5.097 L32.396,5.097 Z M12.024,18.453 C12.397,18.826 14.22,20.65 15.536,21.968 L26.776,10.721 L23.239,7.231 L12.024,18.453 L12.024,18.453 Z M7.713,25.58 C7.485,26.038 7.925,26.51 8.414,26.282 L13.786,23.029 L10.965,20.204 L7.713,25.58 L7.713,25.58 Z M15.912,23.883 L7.213,28.186 C6.233,28.641 5.449,27.763 5.81,26.782 L10.11,18.077 C10.184,17.702 10.328,17.338 10.619,17.047 L22.649,5.009 L3.8,5.009 C2.254,5.009 1,6.263 1,7.809 L1,30.209 C1,31.755 2.254,33.009 3.8,33.009 L26.2,33.009 C27.746,33.009 29,31.755 29,30.209 L29,11.307 L16.941,23.374 C16.651,23.664 16.287,23.81 15.912,23.883 L15.912,23.883 Z M28.182,9.315 L29,8.496 L29,7.809 C29,6.263 27.746,5.009 26.2,5.009 L25.459,5.009 L24.719,5.749 L28.182,9.315 L28.182,9.315 Z" id="Fill-213-Copy-2" stroke="#979797"></path>
    </g>
</svg>