<?xml version="1.0" encoding="UTF-8"?>
<svg width="32px" height="33px" viewBox="0 0 32 33" version="1.1" xmlns="http://www.w3.org/2000/svg" xmlns:xlink="http://www.w3.org/1999/xlink">
    <!-- Generator: Sketch 59.1 (86144) - https://sketch.com -->
    <title>Fill 213</title>
    <desc>Created with Sketch.</desc>
    <g id="Services-Page" stroke="none" stroke-width="1" fill="none" fill-rule="evenodd">
        <g id="Service-Page-Small-Business-Mobile-Icon-Design" transform="translate(-125.000000, -107.000000)" fill="#FFFFFE">
            <path d="M156.396,111.097 L152.884,107.582 C152.107,106.806 150.85,106.806 150.074,107.582 L146.649,111.009 L149.459,111.009 L150.776,109.692 C151.164,109.303 151.793,109.303 152.182,109.692 L154.289,111.8 C154.677,112.189 154.677,112.818 154.289,113.206 L153,114.496 L153,117.307 L156.396,113.908 C157.172,113.133 157.172,111.873 156.396,111.097 L156.396,111.097 Z M136.024,124.453 C136.397,124.826 138.22,126.65 139.536,127.968 L150.776,116.721 L147.239,113.231 L136.024,124.453 L136.024,124.453 Z M131.713,131.58 C131.485,132.038 131.925,132.51 132.414,132.282 L137.786,129.029 L134.965,126.204 L131.713,131.58 L131.713,131.58 Z M139.912,129.883 L131.213,134.186 C130.233,134.641 129.449,133.763 129.81,132.782 L134.11,124.077 C134.184,123.702 134.328,123.338 134.619,123.047 L146.649,111.009 L127.8,111.009 C126.254,111.009 125,112.263 125,113.809 L125,136.209 C125,137.755 126.254,139.009 127.8,139.009 L150.2,139.009 C151.746,139.009 153,137.755 153,136.209 L153,117.307 L140.941,129.374 C140.651,129.664 140.287,129.81 139.912,129.883 L139.912,129.883 Z M152.182,115.315 L153,114.496 L153,113.809 C153,112.263 151.746,111.009 150.2,111.009 L149.459,111.009 L148.719,111.749 L152.182,115.315 L152.182,115.315 Z" id="Fill-213"></path>
        </g>
    </g>
</svg>