<?xml version="1.0" encoding="UTF-8"?>
<svg width="32px" height="30px" viewBox="0 0 32 30" version="1.1" xmlns="http://www.w3.org/2000/svg" xmlns:xlink="http://www.w3.org/1999/xlink">
    <!-- Generator: Sketch 59.1 (86144) - https://sketch.com -->
    <title>Fill 179</title>
    <desc>Created with Sketch.</desc>
    <g id="Services-Page" stroke="none" stroke-width="1" fill="none" fill-rule="evenodd">
        <path d="M18,20 L21,20 L21,6 L18,6 L18,20 Z M30,0 L23,4.667 L23,21.333 L30,26 C31.104,26 32,25.104 32,24 L32,2 C32,0.896 31.104,0 30,0 L30,0 Z M0,13 C0,16.733 2.561,19.148 6.019,19.81 L6,20 L6,28 C6,29.104 6.896,30 8,30 L11,30 C12.104,30 13,29.104 13,28 L13,20 L16,20 L16,6 L8,6 C3.582,6 0,8.582 0,13 L0,13 Z" id="Fill-179" fill="#FFFFFE"></path>
    </g>
</svg>