<?xml version="1.0" encoding="UTF-8"?>
<svg width="33px" height="32px" viewBox="0 0 33 32" version="1.1" xmlns="http://www.w3.org/2000/svg" xmlns:xlink="http://www.w3.org/1999/xlink">
    <!-- Generator: Sketch 59.1 (86144) - https://sketch.com -->
    <title>Fill 97</title>
    <desc>Created with Sketch.</desc>
    <g id="Products-Page" stroke="none" stroke-width="1" fill="none" fill-rule="evenodd">
        <g id="Products-Page-Small-Business-Mobile-Icon-Design" transform="translate(-31.000000, -107.000000)" fill="#FFFFFE">
            <path d="M57.162,107 L36.821,107 L31.008,117 L62.975,117 L57.162,107 L57.162,107 Z M60.008,131 L34.011,131 L34.008,125 L35.972,125 C37.046,125 38.749,124.042 39.47,122.576 C40.279,124.001 41.789,125 43.231,125 C44.754,125 46.431,124.094 46.991,122.784 C47.552,124.063 49.194,125 50.686,125 C52.166,125 53.699,123.912 54.475,122.426 C55.382,123.926 56.673,125 58.008,125 C58.301,125 59.752,125.048 60.008,125 L60.008,131 L60.008,131 Z M31.033,119 L31.008,119 C30.99,119.435 31.008,120.431 31.008,121 C31.008,122.065 31.391,123.229 32.009,124 L32.039,135 C32.039,137.209 33.886,139 36.164,139 L57.819,139 C60.097,139 62.008,137.209 62.008,135 L62.008,124 C62.708,123.176 63.008,122.33 63.008,121 L63.008,119 L31.033,119 L31.033,119 Z" id="Fill-97"></path>
        </g>
    </g>
</svg>