<?xml version="1.0" encoding="UTF-8"?>
<svg width="33px" height="34px" viewBox="0 0 33 34" version="1.1" xmlns="http://www.w3.org/2000/svg" xmlns:xlink="http://www.w3.org/1999/xlink">
    <!-- Generator: Sketch 59.1 (86144) - https://sketch.com -->
    <title>Fill 188 Copy</title>
    <desc>Created with Sketch.</desc>
    <g id="Services-Page" stroke="none" stroke-width="1" fill="none" fill-rule="evenodd">
        <g id="Service-Page-Small-Business-Mobile-Icon-Design" transform="translate(-312.000000, -107.000000)" stroke="#979797">
            <path d="M319.5,118 C320.329,118 321,118.672 321,119.5 C321,120.329 320.329,121 319.5,121 C318.671,121 318,120.329 318,119.5 C318,118.672 318.671,118 319.5,118 L319.5,118 Z M325.5,118 C326.329,118 327,118.672 327,119.5 C327,120.329 326.329,121 325.5,121 C324.671,121 324,120.329 324,119.5 C324,118.672 324.671,118 325.5,118 L325.5,118 Z M331.5,118 C332.329,118 333,118.672 333,119.5 C333,120.329 332.329,121 331.5,121 C330.671,121 330,120.329 330,119.5 C330,118.672 330.671,118 331.5,118 L331.5,118 Z M322.637,130.736 C323.414,130.863 325.181,131 326,131 C333.18,131 338,125.657 338,119.375 C338,113.093 331.977,108 326,108 C318.811,108 313,113.093 313,119.375 C313,123.015 314.387,126.104 317,128.329 L317,134 L322.637,130.736 L322.637,130.736 Z M339.949,117.139 L340,118 C340.008,118.817 340,118.742 340,119.5 C340,127.475 333.716,133 325,133 L322,133 C324.38,135.328 327.149,136.75 331,136.75 C331.819,136.75 332.618,136.676 333.395,136.549 L339,140 L339,134.329 C342.04,132.246 344,129.015 344,125.375 C344,122.131 342.439,119.211 339.949,117.139 L339.949,117.139 Z" id="Fill-188-Copy"></path>
        </g>
    </g>
</svg>