<?xml version="1.0" encoding="UTF-8"?>
<svg width="31px" height="32px" viewBox="0 0 31 32" version="1.1" xmlns="http://www.w3.org/2000/svg" xmlns:xlink="http://www.w3.org/1999/xlink">
    <!-- Generator: Sketch 59.1 (86144) - https://sketch.com -->
    <title>Fill 188</title>
    <desc>Created with Sketch.</desc>
    <g id="Services-Page" stroke="none" stroke-width="1" fill="none" fill-rule="evenodd">
        <path d="M6.5,10 C7.329,10 8,10.672 8,11.5 C8,12.329 7.329,13 6.5,13 C5.671,13 5,12.329 5,11.5 C5,10.672 5.671,10 6.5,10 L6.5,10 Z M12.5,10 C13.329,10 14,10.672 14,11.5 C14,12.329 13.329,13 12.5,13 C11.671,13 11,12.329 11,11.5 C11,10.672 11.671,10 12.5,10 L12.5,10 Z M18.5,10 C19.329,10 20,10.672 20,11.5 C20,12.329 19.329,13 18.5,13 C17.671,13 17,12.329 17,11.5 C17,10.672 17.671,10 18.5,10 L18.5,10 Z M9.637,22.736 C10.414,22.863 12.181,23 13,23 C20.18,23 25,17.657 25,11.375 C25,5.093 18.977,0 13,0 C5.811,0 0,5.093 0,11.375 C0,15.015 1.387,18.104 4,20.329 L4,26 L9.637,22.736 L9.637,22.736 Z M26.949,9.139 L27,10 C27.008,10.817 27,10.742 27,11.5 C27,19.475 20.716,25 12,25 L9,25 C11.38,27.328 14.149,28.75 18,28.75 C18.819,28.75 19.618,28.676 20.395,28.549 L26,32 L26,26.329 C29.04,24.246 31,21.015 31,17.375 C31,14.131 29.439,11.211 26.949,9.139 L26.949,9.139 Z" id="Fill-188" fill="#FFFFFE"></path>
    </g>
</svg>