<?xml version="1.0" encoding="UTF-8"?>
<svg width="32px" height="32px" viewBox="0 0 32 32" version="1.1" xmlns="http://www.w3.org/2000/svg" xmlns:xlink="http://www.w3.org/1999/xlink">
    <!-- Generator: Sketch 59.1 (86144) - https://sketch.com -->
    <title>Fill 109</title>
    <desc>Created with Sketch.</desc>
    <g id="Products-Page" stroke="none" stroke-width="1" fill="none" fill-rule="evenodd">
        <path d="M0,28 C0,30.209 1.791,32 4,32 L28,32 C30.209,32 32,30.209 32,28 L32,10 L0,10 L0,28 L0,28 Z M13,6 C12.448,6 12,5.553 12,5 C12,4.448 12.448,4 13,4 C13.552,4 14,4.448 14,5 C14,5.553 13.552,6 13,6 L13,6 Z M9,6 C8.448,6 8,5.553 8,5 C8,4.448 8.448,4 9,4 C9.552,4 10,4.448 10,5 C10,5.553 9.552,6 9,6 L9,6 Z M5,6 C4.448,6 4,5.553 4,5 C4,4.448 4.448,4 5,4 C5.552,4 6,4.448 6,5 C6,5.553 5.552,6 5,6 L5,6 Z M28,0 L4,0 C1.791,0 0,1.791 0,4 L0,8 L32,8 L32,4 C32,1.791 30.209,0 28,0 L28,0 Z" id="Fill-109" fill="#FFFFFE"></path>
    </g>
</svg>