<svg width="1258" height="34" xmlns="http://www.w3.org/2000/svg">
 <!-- Generator: Sketch 59.1 (86144) - https://sketch.com -->

 <title>Stroke 1</title>
 <desc>Created with Sketch.</desc>
 <g>
  <title>background</title>
  <rect fill="none" id="canvas_background" height="402" width="582" y="-1" x="-1"/>
 </g>
 <g>
  <title>Layer 1</title>
  <path fill="#4a4a4a" d="m17,0c9.38884,0 17,7.61116 17,17c0,9.38884 -7.61116,17 -17,17c-9.38884,0 -17,-7.61116 -17,-17c0,-9.38884 7.61116,-17 17,-17zm1208.91703,0c0.31485,0 0.62539,0.07331 0.90701,0.21412l0,0l29.94328,14.97164c1.00185,0.50092 1.40794,1.71917 0.90701,2.72103c-0.19625,0.3925 -0.51451,0.71076 -0.90701,0.90701l0,0l-29.94328,14.97164c-1.00186,0.50093 -2.22011,0.09485 -2.72103,-0.90701c-0.14081,-0.28162 -0.21412,-0.59215 -0.21412,-0.90701l0,0l-0.00089,-11.97142l-0.888,0l0,-6l0.888,0l0.00089,-11.97186c0,-1.0692 0.82735,-1.94515 1.87677,-2.02258l0.15137,-0.00556zm-1208.91703,6c-6.07513,0 -11,4.92487 -11,11c0,6.07513 4.92487,11 11,11c6.07513,0 11,-4.92487 11,-11c0,-6.07513 -4.92487,-11 -11,-11zm20,8l0,6l-2,0l0,-6l2,0zm4,0l0,6l-2,0l0,-6l2,0zm4,0l0,6l-2,0l0,-6l2,0zm4,0l0,6l-2,0l0,-6l2,0zm4,0l0,6l-2,0l0,-6l2,0zm4,0l0,6l-2,0l0,-6l2,0zm4,0l0,6l-2,0l0,-6l2,0zm4,0l0,6l-2,0l0,-6l2,0zm4,0l0,6l-2,0l0,-6l2,0zm4,0l0,6l-2,0l0,-6l2,0zm4,0l0,6l-2,0l0,-6l2,0zm4,0l0,6l-2,0l0,-6l2,0zm4,0l0,6l-2,0l0,-6l2,0zm4,0l0,6l-2,0l0,-6l2,0zm4,0l0,6l-2,0l0,-6l2,0zm4,0l0,6l-2,0l0,-6l2,0zm4,0l0,6l-2,0l0,-6l2,0zm4,0l0,6l-2,0l0,-6l2,0zm4,0l0,6l-2,0l0,-6l2,0zm4,0l0,6l-2,0l0,-6l2,0zm4,0l0,6l-2,0l0,-6l2,0zm4,0l0,6l-2,0l0,-6l2,0zm4,0l0,6l-2,0l0,-6l2,0zm4,0l0,6l-2,0l0,-6l2,0zm4,0l0,6l-2,0l0,-6l2,0zm4,0l0,6l-2,0l0,-6l2,0zm4,0l0,6l-2,0l0,-6l2,0zm4,0l0,6l-2,0l0,-6l2,0zm4,0l0,6l-2,0l0,-6l2,0zm4,0l0,6l-2,0l0,-6l2,0zm4,0l0,6l-2,0l0,-6l2,0zm4,0l0,6l-2,0l0,-6l2,0zm4,0l0,6l-2,0l0,-6l2,0zm4,0l0,6l-2,0l0,-6l2,0zm4,0l0,6l-2,0l0,-6l2,0zm4,0l0,6l-2,0l0,-6l2,0zm4,0l0,6l-2,0l0,-6l2,0zm4,0l0,6l-2,0l0,-6l2,0zm4,0l0,6l-2,0l0,-6l2,0zm4,0l0,6l-2,0l0,-6l2,0zm4,0l0,6l-2,0l0,-6l2,0zm4,0l0,6l-2,0l0,-6l2,0zm4,0l0,6l-2,0l0,-6l2,0zm4,0l0,6l-2,0l0,-6l2,0zm4,0l0,6l-2,0l0,-6l2,0zm4,0l0,6l-2,0l0,-6l2,0zm4,0l0,6l-2,0l0,-6l2,0zm4,0l0,6l-2,0l0,-6l2,0zm4,0l0,6l-2,0l0,-6l2,0zm4,0l0,6l-2,0l0,-6l2,0zm4,0l0,6l-2,0l0,-6l2,0zm4,0l0,6l-2,0l0,-6l2,0zm4,0l0,6l-2,0l0,-6l2,0zm4,0l0,6l-2,0l0,-6l2,0zm4,0l0,6l-2,0l0,-6l2,0zm4,0l0,6l-2,0l0,-6l2,0zm4,0l0,6l-2,0l0,-6l2,0zm4,0l0,6l-2,0l0,-6l2,0zm4,0l0,6l-2,0l0,-6l2,0zm4,0l0,6l-2,0l0,-6l2,0zm4,0l0,6l-2,0l0,-6l2,0zm4,0l0,6l-2,0l0,-6l2,0zm4,0l0,6l-2,0l0,-6l2,0zm4,0l0,6l-2,0l0,-6l2,0zm4,0l0,6l-2,0l0,-6l2,0zm4,0l0,6l-2,0l0,-6l2,0zm4,0l0,6l-2,0l0,-6l2,0zm4,0l0,6l-2,0l0,-6l2,0zm4,0l0,6l-2,0l0,-6l2,0zm4,0l0,6l-2,0l0,-6l2,0zm4,0l0,6l-2,0l0,-6l2,0zm4,0l0,6l-2,0l0,-6l2,0zm4,0l0,6l-2,0l0,-6l2,0zm4,0l0,6l-2,0l0,-6l2,0zm4,0l0,6l-2,0l0,-6l2,0zm4,0l0,6l-2,0l0,-6l2,0zm4,0l0,6l-2,0l0,-6l2,0zm4,0l0,6l-2,0l0,-6l2,0zm4,0l0,6l-2,0l0,-6l2,0zm4,0l0,6l-2,0l0,-6l2,0zm4,0l0,6l-2,0l0,-6l2,0zm4,0l0,6l-2,0l0,-6l2,0zm4,0l0,6l-2,0l0,-6l2,0zm4,0l0,6l-2,0l0,-6l2,0zm4,0l0,6l-2,0l0,-6l2,0zm4,0l0,6l-2,0l0,-6l2,0zm4,0l0,6l-2,0l0,-6l2,0zm4,0l0,6l-2,0l0,-6l2,0zm4,0l0,6l-2,0l0,-6l2,0zm4,0l0,6l-2,0l0,-6l2,0zm4,0l0,6l-2,0l0,-6l2,0zm4,0l0,6l-2,0l0,-6l2,0zm4,0l0,6l-2,0l0,-6l2,0zm4,0l0,6l-2,0l0,-6l2,0zm4,0l0,6l-2,0l0,-6l2,0zm4,0l0,6l-2,0l0,-6l2,0zm4,0l0,6l-2,0l0,-6l2,0zm4,0l0,6l-2,0l0,-6l2,0zm4,0l0,6l-2,0l0,-6l2,0zm4,0l0,6l-2,0l0,-6l2,0zm4,0l0,6l-2,0l0,-6l2,0zm4,0l0,6l-2,0l0,-6l2,0zm4,0l0,6l-2,0l0,-6l2,0zm4,0l0,6l-2,0l0,-6l2,0zm4,0l0,6l-2,0l0,-6l2,0zm4,0l0,6l-2,0l0,-6l2,0zm4,0l0,6l-2,0l0,-6l2,0zm4,0l0,6l-2,0l0,-6l2,0zm4,0l0,6l-2,0l0,-6l2,0zm4,0l0,6l-2,0l0,-6l2,0zm4,0l0,6l-2,0l0,-6l2,0zm4,0l0,6l-2,0l0,-6l2,0zm4,0l0,6l-2,0l0,-6l2,0zm4,0l0,6l-2,0l0,-6l2,0zm4,0l0,6l-2,0l0,-6l2,0zm4,0l0,6l-2,0l0,-6l2,0zm4,0l0,6l-2,0l0,-6l2,0zm4,0l0,6l-2,0l0,-6l2,0zm4,0l0,6l-2,0l0,-6l2,0zm4,0l0,6l-2,0l0,-6l2,0zm4,0l0,6l-2,0l0,-6l2,0zm4,0l0,6l-2,0l0,-6l2,0zm4,0l0,6l-2,0l0,-6l2,0zm4,0l0,6l-2,0l0,-6l2,0zm4,0l0,6l-2,0l0,-6l2,0zm4,0l0,6l-2,0l0,-6l2,0zm4,0l0,6l-2,0l0,-6l2,0zm4,0l0,6l-2,0l0,-6l2,0zm4,0l0,6l-2,0l0,-6l2,0zm4,0l0,6l-2,0l0,-6l2,0zm4,0l0,6l-2,0l0,-6l2,0zm4,0l0,6l-2,0l0,-6l2,0zm4,0l0,6l-2,0l0,-6l2,0zm4,0l0,6l-2,0l0,-6l2,0zm4,0l0,6l-2,0l0,-6l2,0zm4,0l0,6l-2,0l0,-6l2,0zm4,0l0,6l-2,0l0,-6l2,0zm4,0l0,6l-2,0l0,-6l2,0zm4,0l0,6l-2,0l0,-6l2,0zm4,0l0,6l-2,0l0,-6l2,0zm4,0l0,6l-2,0l0,-6l2,0zm4,0l0,6l-2,0l0,-6l2,0zm4,0l0,6l-2,0l0,-6l2,0zm4,0l0,6l-2,0l0,-6l2,0zm4,0l0,6l-2,0l0,-6l2,0zm4,0l0,6l-2,0l0,-6l2,0zm4,0l0,6l-2,0l0,-6l2,0zm4,0l0,6l-2,0l0,-6l2,0zm4,0l0,6l-2,0l0,-6l2,0zm4,0l0,6l-2,0l0,-6l2,0zm4,0l0,6l-2,0l0,-6l2,0zm4,0l0,6l-2,0l0,-6l2,0zm4,0l0,6l-2,0l0,-6l2,0zm4,0l0,6l-2,0l0,-6l2,0zm4,0l0,6l-2,0l0,-6l2,0zm4,0l0,6l-2,0l0,-6l2,0zm4,0l0,6l-2,0l0,-6l2,0zm4,0l0,6l-2,0l0,-6l2,0zm4,0l0,6l-2,0l0,-6l2,0zm4,0l0,6l-2,0l0,-6l2,0zm4,0l0,6l-2,0l0,-6l2,0zm4,0l0,6l-2,0l0,-6l2,0zm4,0l0,6l-2,0l0,-6l2,0zm4,0l0,6l-2,0l0,-6l2,0zm4,0l0,6l-2,0l0,-6l2,0zm4,0l0,6l-2,0l0,-6l2,0zm4,0l0,6l-2,0l0,-6l2,0zm4,0l0,6l-2,0l0,-6l2,0zm4,0l0,6l-2,0l0,-6l2,0zm4,0l0,6l-2,0l0,-6l2,0zm4,0l0,6l-2,0l0,-6l2,0zm4,0l0,6l-2,0l0,-6l2,0zm4,0l0,6l-2,0l0,-6l2,0zm4,0l0,6l-2,0l0,-6l2,0zm4,0l0,6l-2,0l0,-6l2,0zm4,0l0,6l-2,0l0,-6l2,0zm4,0l0,6l-2,0l0,-6l2,0zm4,0l0,6l-2,0l0,-6l2,0zm4,0l0,6l-2,0l0,-6l2,0zm4,0l0,6l-2,0l0,-6l2,0zm4,0l0,6l-2,0l0,-6l2,0zm4,0l0,6l-2,0l0,-6l2,0zm4,0l0,6l-2,0l0,-6l2,0zm4,0l0,6l-2,0l0,-6l2,0zm4,0l0,6l-2,0l0,-6l2,0zm4,0l0,6l-2,0l0,-6l2,0zm4,0l0,6l-2,0l0,-6l2,0zm4,0l0,6l-2,0l0,-6l2,0zm4,0l0,6l-2,0l0,-6l2,0zm4,0l0,6l-2,0l0,-6l2,0zm4,0l0,6l-2,0l0,-6l2,0zm4,0l0,6l-2,0l0,-6l2,0zm4,0l0,6l-2,0l0,-6l2,0zm4,0l0,6l-2,0l0,-6l2,0zm4,0l0,6l-2,0l0,-6l2,0zm4,0l0,6l-2,0l0,-6l2,0zm4,0l0,6l-2,0l0,-6l2,0zm4,0l0,6l-2,0l0,-6l2,0zm4,0l0,6l-2,0l0,-6l2,0zm4,0l0,6l-2,0l0,-6l2,0zm4,0l0,6l-2,0l0,-6l2,0zm4,0l0,6l-2,0l0,-6l2,0zm4,0l0,6l-2,0l0,-6l2,0zm4,0l0,6l-2,0l0,-6l2,0zm4,0l0,6l-2,0l0,-6l2,0zm4,0l0,6l-2,0l0,-6l2,0zm4,0l0,6l-2,0l0,-6l2,0zm4,0l0,6l-2,0l0,-6l2,0zm4,0l0,6l-2,0l0,-6l2,0zm4,0l0,6l-2,0l0,-6l2,0zm4,0l0,6l-2,0l0,-6l2,0zm4,0l0,6l-2,0l0,-6l2,0zm4,0l0,6l-2,0l0,-6l2,0zm4,0l0,6l-2,0l0,-6l2,0zm4,0l0,6l-2,0l0,-6l2,0zm4,0l0,6l-2,0l0,-6l2,0zm4,0l0,6l-2,0l0,-6l2,0zm4,0l0,6l-2,0l0,-6l2,0zm4,0l0,6l-2,0l0,-6l2,0zm4,0l0,6l-2,0l0,-6l2,0zm4,0l0,6l-2,0l0,-6l2,0zm4,0l0,6l-2,0l0,-6l2,0zm4,0l0,6l-2,0l0,-6l2,0zm4,0l0,6l-2,0l0,-6l2,0zm4,0l0,6l-2,0l0,-6l2,0zm4,0l0,6l-2,0l0,-6l2,0zm4,0l0,6l-2,0l0,-6l2,0zm4,0l0,6l-2,0l0,-6l2,0zm4,0l0,6l-2,0l0,-6l2,0zm4,0l0,6l-2,0l0,-6l2,0zm4,0l0,6l-2,0l0,-6l2,0zm4,0l0,6l-2,0l0,-6l2,0zm4,0l0,6l-2,0l0,-6l2,0zm4,0l0,6l-2,0l0,-6l2,0zm4,0l0,6l-2,0l0,-6l2,0zm4,0l0,6l-2,0l0,-6l2,0zm4,0l0,6l-2,0l0,-6l2,0zm4,0l0,6l-2,0l0,-6l2,0zm4,0l0,6l-2,0l0,-6l2,0zm4,0l0,6l-2,0l0,-6l2,0zm4,0l0,6l-2,0l0,-6l2,0zm4,0l0,6l-2,0l0,-6l2,0zm4,0l0,6l-2,0l0,-6l2,0zm4,0l0,6l-2,0l0,-6l2,0zm4,0l0,6l-2,0l0,-6l2,0zm4,0l0,6l-2,0l0,-6l2,0zm4,0l0,6l-2,0l0,-6l2,0zm4,0l0,6l-2,0l0,-6l2,0zm4,0l0,6l-2,0l0,-6l2,0zm4,0l0,6l-2,0l0,-6l2,0zm4,0l0,6l-2,0l0,-6l2,0zm4,0l0,6l-2,0l0,-6l2,0zm4,0l0,6l-2,0l0,-6l2,0zm4,0l0,6l-2,0l0,-6l2,0zm4,0l0,6l-2,0l0,-6l2,0zm4,0l0,6l-2,0l0,-6l2,0zm4,0l0,6l-2,0l0,-6l2,0zm4,0l0,6l-2,0l0,-6l2,0zm4,0l0,6l-2,0l0,-6l2,0zm4,0l0,6l-2,0l0,-6l2,0zm4,0l0,6l-2,0l0,-6l2,0zm4,0l0,6l-2,0l0,-6l2,0zm4,0l0,6l-2,0l0,-6l2,0zm4,0l0,6l-2,0l0,-6l2,0zm4,0l0,6l-2,0l0,-6l2,0zm4,0l0,6l-2,0l0,-6l2,0zm4,0l0,6l-2,0l0,-6l2,0zm4,0l0,6l-2,0l0,-6l2,0zm4,0l0,6l-2,0l0,-6l2,0zm4,0l0,6l-2,0l0,-6l2,0zm4,0l0,6l-2,0l0,-6l2,0zm4,0l0,6l-2,0l0,-6l2,0zm4,0l0,6l-2,0l0,-6l2,0zm4,0l0,6l-2,0l0,-6l2,0zm4,0l0,6l-2,0l0,-6l2,0zm4,0l0,6l-2,0l0,-6l2,0zm4,0l0,6l-2,0l0,-6l2,0zm4,0l0,6l-2,0l0,-6l2,0zm4,0l0,6l-2,0l0,-6l2,0zm4,0l0,6l-2,0l0,-6l2,0zm4,0l0,6l-2,0l0,-6l2,0zm4,0l0,6l-2,0l0,-6l2,0zm4,0l0,6l-2,0l0,-6l2,0zm4,0l0,6l-2,0l0,-6l2,0zm4,0l0,6l-2,0l0,-6l2,0zm4,0l0,6l-2,0l0,-6l2,0zm4,0l0,6l-2,0l0,-6l2,0zm4,0l0,6l-2,0l0,-6l2,0zm4,0l0,6l-2,0l0,-6l2,0zm4,0l0,6l-2,0l0,-6l2,0zm4,0l0,6l-2,0l0,-6l2,0zm4,0l0,6l-2,0l0,-6l2,0zm4,0l0,6l-2,0l0,-6l2,0zm4,0l0,6l-2,0l0,-6l2,0zm4,0l0,6l-2,0l0,-6l2,0zm4,0l0,6l-2,0l0,-6l2,0zm4,0l0,6l-2,0l0,-6l2,0z" id="Stroke-1"/>
 </g>
</svg>