<?xml version="1.0" encoding="UTF-8"?>
<svg width="34px" height="1241px" viewBox="0 0 34 1241" version="1.1" xmlns="http://www.w3.org/2000/svg" xmlns:xlink="http://www.w3.org/1999/xlink">
    <!-- Generator: Sketch 59.1 (86144) - https://sketch.com -->
    <title>Stroke 1 Copy</title>
    <desc>Created with Sketch.</desc>
    <g id="Products-Page" stroke="none" stroke-width="1" fill="none" fill-rule="evenodd">
        <g id="Products-Page-Small-Business-Mobile" transform="translate(-34.000000, -2895.000000)" fill="#FFFFFF" fill-rule="nonzero">
            <g id="Group-2" transform="translate(29.000000, 2912.000000)">
                <path id="Stroke-1-Copy" d="M-588.361238,594 C-578.972397,594 -571.361238,601.611159 -571.361238,611 C-571.361238,620.388841 -578.972397,628 -588.361238,628 C-597.750079,628 -605.361238,620.388841 -605.361238,611 C-605.361238,601.611159 -597.750079,594 -588.361238,594 Z M602.555788,594 C602.870646,594 603.181181,594.073307 603.462799,594.214116 L603.462799,594.214116 L633.40608,609.185757 C634.407936,609.686685 634.814018,610.904932 634.31309,611.906788 C634.11684,612.299289 633.79858,612.617549 633.40608,612.813799 L633.40608,612.813799 L603.462799,627.78544 C602.460942,628.286368 601.242695,627.880285 600.741767,626.878429 C600.600958,626.596811 600.527651,626.286277 600.527651,625.971418 L600.527651,625.971418 L600.527651,596.028137 C600.527651,594.908028 601.435679,594 602.555788,594 Z M-588.361238,600 C-594.43637,600 -599.361238,604.924868 -599.361238,611 C-599.361238,617.075132 -594.43637,622 -588.361238,622 C-582.286106,622 -577.361238,617.075132 -577.361238,611 C-577.361238,604.924868 -582.286106,600 -588.361238,600 Z M-568.361238,608 L-568.361238,614 L-570.361238,614 L-570.361238,608 L-568.361238,608 Z M-564.361238,608 L-564.361238,614 L-566.361238,614 L-566.361238,608 L-564.361238,608 Z M-560.361238,608 L-560.361238,614 L-562.361238,614 L-562.361238,608 L-560.361238,608 Z M-556.361238,608 L-556.361238,614 L-558.361238,614 L-558.361238,608 L-556.361238,608 Z M-552.361238,608 L-552.361238,614 L-554.361238,614 L-554.361238,608 L-552.361238,608 Z M-548.361238,608 L-548.361238,614 L-550.361238,614 L-550.361238,608 L-548.361238,608 Z M-544.361238,608 L-544.361238,614 L-546.361238,614 L-546.361238,608 L-544.361238,608 Z M-540.361238,608 L-540.361238,614 L-542.361238,614 L-542.361238,608 L-540.361238,608 Z M-536.361238,608 L-536.361238,614 L-538.361238,614 L-538.361238,608 L-536.361238,608 Z M-532.361238,608 L-532.361238,614 L-534.361238,614 L-534.361238,608 L-532.361238,608 Z M-528.361238,608 L-528.361238,614 L-530.361238,614 L-530.361238,608 L-528.361238,608 Z M-524.361238,608 L-524.361238,614 L-526.361238,614 L-526.361238,608 L-524.361238,608 Z M-520.361238,608 L-520.361238,614 L-522.361238,614 L-522.361238,608 L-520.361238,608 Z M-516.361238,608 L-516.361238,614 L-518.361238,614 L-518.361238,608 L-516.361238,608 Z M-512.361238,608 L-512.361238,614 L-514.361238,614 L-514.361238,608 L-512.361238,608 Z M-508.361238,608 L-508.361238,614 L-510.361238,614 L-510.361238,608 L-508.361238,608 Z M-504.361238,608 L-504.361238,614 L-506.361238,614 L-506.361238,608 L-504.361238,608 Z M-500.361238,608 L-500.361238,614 L-502.361238,614 L-502.361238,608 L-500.361238,608 Z M-496.361238,608 L-496.361238,614 L-498.361238,614 L-498.361238,608 L-496.361238,608 Z M-492.361238,608 L-492.361238,614 L-494.361238,614 L-494.361238,608 L-492.361238,608 Z M-488.361238,608 L-488.361238,614 L-490.361238,614 L-490.361238,608 L-488.361238,608 Z M-484.361238,608 L-484.361238,614 L-486.361238,614 L-486.361238,608 L-484.361238,608 Z M-480.361238,608 L-480.361238,614 L-482.361238,614 L-482.361238,608 L-480.361238,608 Z M-476.361238,608 L-476.361238,614 L-478.361238,614 L-478.361238,608 L-476.361238,608 Z M-472.361238,608 L-472.361238,614 L-474.361238,614 L-474.361238,608 L-472.361238,608 Z M-468.361238,608 L-468.361238,614 L-470.361238,614 L-470.361238,608 L-468.361238,608 Z M-464.361238,608 L-464.361238,614 L-466.361238,614 L-466.361238,608 L-464.361238,608 Z M-460.361238,608 L-460.361238,614 L-462.361238,614 L-462.361238,608 L-460.361238,608 Z M-456.361238,608 L-456.361238,614 L-458.361238,614 L-458.361238,608 L-456.361238,608 Z M-452.361238,608 L-452.361238,614 L-454.361238,614 L-454.361238,608 L-452.361238,608 Z M-448.361238,608 L-448.361238,614 L-450.361238,614 L-450.361238,608 L-448.361238,608 Z M-444.361238,608 L-444.361238,614 L-446.361238,614 L-446.361238,608 L-444.361238,608 Z M-440.361238,608 L-440.361238,614 L-442.361238,614 L-442.361238,608 L-440.361238,608 Z M-436.361238,608 L-436.361238,614 L-438.361238,614 L-438.361238,608 L-436.361238,608 Z M-432.361238,608 L-432.361238,614 L-434.361238,614 L-434.361238,608 L-432.361238,608 Z M-428.361238,608 L-428.361238,614 L-430.361238,614 L-430.361238,608 L-428.361238,608 Z M-424.361238,608 L-424.361238,614 L-426.361238,614 L-426.361238,608 L-424.361238,608 Z M-420.361238,608 L-420.361238,614 L-422.361238,614 L-422.361238,608 L-420.361238,608 Z M-416.361238,608 L-416.361238,614 L-418.361238,614 L-418.361238,608 L-416.361238,608 Z M-412.361238,608 L-412.361238,614 L-414.361238,614 L-414.361238,608 L-412.361238,608 Z M-408.361238,608 L-408.361238,614 L-410.361238,614 L-410.361238,608 L-408.361238,608 Z M-404.361238,608 L-404.361238,614 L-406.361238,614 L-406.361238,608 L-404.361238,608 Z M-400.361238,608 L-400.361238,614 L-402.361238,614 L-402.361238,608 L-400.361238,608 Z M-396.361238,608 L-396.361238,614 L-398.361238,614 L-398.361238,608 L-396.361238,608 Z M-392.361238,608 L-392.361238,614 L-394.361238,614 L-394.361238,608 L-392.361238,608 Z M-388.361238,608 L-388.361238,614 L-390.361238,614 L-390.361238,608 L-388.361238,608 Z M-384.361238,608 L-384.361238,614 L-386.361238,614 L-386.361238,608 L-384.361238,608 Z M-380.361238,608 L-380.361238,614 L-382.361238,614 L-382.361238,608 L-380.361238,608 Z M-376.361238,608 L-376.361238,614 L-378.361238,614 L-378.361238,608 L-376.361238,608 Z M-372.361238,608 L-372.361238,614 L-374.361238,614 L-374.361238,608 L-372.361238,608 Z M-368.361238,608 L-368.361238,614 L-370.361238,614 L-370.361238,608 L-368.361238,608 Z M-364.361238,608 L-364.361238,614 L-366.361238,614 L-366.361238,608 L-364.361238,608 Z M-360.361238,608 L-360.361238,614 L-362.361238,614 L-362.361238,608 L-360.361238,608 Z M-356.361238,608 L-356.361238,614 L-358.361238,614 L-358.361238,608 L-356.361238,608 Z M-352.361238,608 L-352.361238,614 L-354.361238,614 L-354.361238,608 L-352.361238,608 Z M-348.361238,608 L-348.361238,614 L-350.361238,614 L-350.361238,608 L-348.361238,608 Z M-344.361238,608 L-344.361238,614 L-346.361238,614 L-346.361238,608 L-344.361238,608 Z M-340.361238,608 L-340.361238,614 L-342.361238,614 L-342.361238,608 L-340.361238,608 Z M-336.361238,608 L-336.361238,614 L-338.361238,614 L-338.361238,608 L-336.361238,608 Z M-332.361238,608 L-332.361238,614 L-334.361238,614 L-334.361238,608 L-332.361238,608 Z M-328.361238,608 L-328.361238,614 L-330.361238,614 L-330.361238,608 L-328.361238,608 Z M-324.361238,608 L-324.361238,614 L-326.361238,614 L-326.361238,608 L-324.361238,608 Z M-320.361238,608 L-320.361238,614 L-322.361238,614 L-322.361238,608 L-320.361238,608 Z M-316.361238,608 L-316.361238,614 L-318.361238,614 L-318.361238,608 L-316.361238,608 Z M-312.361238,608 L-312.361238,614 L-314.361238,614 L-314.361238,608 L-312.361238,608 Z M-308.361238,608 L-308.361238,614 L-310.361238,614 L-310.361238,608 L-308.361238,608 Z M-304.361238,608 L-304.361238,614 L-306.361238,614 L-306.361238,608 L-304.361238,608 Z M-300.361238,608 L-300.361238,614 L-302.361238,614 L-302.361238,608 L-300.361238,608 Z M-296.361238,608 L-296.361238,614 L-298.361238,614 L-298.361238,608 L-296.361238,608 Z M-292.361238,608 L-292.361238,614 L-294.361238,614 L-294.361238,608 L-292.361238,608 Z M-288.361238,608 L-288.361238,614 L-290.361238,614 L-290.361238,608 L-288.361238,608 Z M-284.361238,608 L-284.361238,614 L-286.361238,614 L-286.361238,608 L-284.361238,608 Z M-280.361238,608 L-280.361238,614 L-282.361238,614 L-282.361238,608 L-280.361238,608 Z M-276.361238,608 L-276.361238,614 L-278.361238,614 L-278.361238,608 L-276.361238,608 Z M-272.361238,608 L-272.361238,614 L-274.361238,614 L-274.361238,608 L-272.361238,608 Z M-268.361238,608 L-268.361238,614 L-270.361238,614 L-270.361238,608 L-268.361238,608 Z M-264.361238,608 L-264.361238,614 L-266.361238,614 L-266.361238,608 L-264.361238,608 Z M-260.361238,608 L-260.361238,614 L-262.361238,614 L-262.361238,608 L-260.361238,608 Z M-256.361238,608 L-256.361238,614 L-258.361238,614 L-258.361238,608 L-256.361238,608 Z M-252.361238,608 L-252.361238,614 L-254.361238,614 L-254.361238,608 L-252.361238,608 Z M-248.361238,608 L-248.361238,614 L-250.361238,614 L-250.361238,608 L-248.361238,608 Z M-244.361238,608 L-244.361238,614 L-246.361238,614 L-246.361238,608 L-244.361238,608 Z M-240.361238,608 L-240.361238,614 L-242.361238,614 L-242.361238,608 L-240.361238,608 Z M-236.361238,608 L-236.361238,614 L-238.361238,614 L-238.361238,608 L-236.361238,608 Z M-232.361238,608 L-232.361238,614 L-234.361238,614 L-234.361238,608 L-232.361238,608 Z M-228.361238,608 L-228.361238,614 L-230.361238,614 L-230.361238,608 L-228.361238,608 Z M-224.361238,608 L-224.361238,614 L-226.361238,614 L-226.361238,608 L-224.361238,608 Z M-220.361238,608 L-220.361238,614 L-222.361238,614 L-222.361238,608 L-220.361238,608 Z M-216.361238,608 L-216.361238,614 L-218.361238,614 L-218.361238,608 L-216.361238,608 Z M-212.361238,608 L-212.361238,614 L-214.361238,614 L-214.361238,608 L-212.361238,608 Z M-208.361238,608 L-208.361238,614 L-210.361238,614 L-210.361238,608 L-208.361238,608 Z M-204.361238,608 L-204.361238,614 L-206.361238,614 L-206.361238,608 L-204.361238,608 Z M-200.361238,608 L-200.361238,614 L-202.361238,614 L-202.361238,608 L-200.361238,608 Z M-196.361238,608 L-196.361238,614 L-198.361238,614 L-198.361238,608 L-196.361238,608 Z M-192.361238,608 L-192.361238,614 L-194.361238,614 L-194.361238,608 L-192.361238,608 Z M-188.361238,608 L-188.361238,614 L-190.361238,614 L-190.361238,608 L-188.361238,608 Z M-184.361238,608 L-184.361238,614 L-186.361238,614 L-186.361238,608 L-184.361238,608 Z M-180.361238,608 L-180.361238,614 L-182.361238,614 L-182.361238,608 L-180.361238,608 Z M-176.361238,608 L-176.361238,614 L-178.361238,614 L-178.361238,608 L-176.361238,608 Z M-172.361238,608 L-172.361238,614 L-174.361238,614 L-174.361238,608 L-172.361238,608 Z M-168.361238,608 L-168.361238,614 L-170.361238,614 L-170.361238,608 L-168.361238,608 Z M-164.361238,608 L-164.361238,614 L-166.361238,614 L-166.361238,608 L-164.361238,608 Z M-160.361238,608 L-160.361238,614 L-162.361238,614 L-162.361238,608 L-160.361238,608 Z M-156.361238,608 L-156.361238,614 L-158.361238,614 L-158.361238,608 L-156.361238,608 Z M-152.361238,608 L-152.361238,614 L-154.361238,614 L-154.361238,608 L-152.361238,608 Z M-148.361238,608 L-148.361238,614 L-150.361238,614 L-150.361238,608 L-148.361238,608 Z M-144.361238,608 L-144.361238,614 L-146.361238,614 L-146.361238,608 L-144.361238,608 Z M-140.361238,608 L-140.361238,614 L-142.361238,614 L-142.361238,608 L-140.361238,608 Z M-136.361238,608 L-136.361238,614 L-138.361238,614 L-138.361238,608 L-136.361238,608 Z M-132.361238,608 L-132.361238,614 L-134.361238,614 L-134.361238,608 L-132.361238,608 Z M-128.361238,608 L-128.361238,614 L-130.361238,614 L-130.361238,608 L-128.361238,608 Z M-124.361238,608 L-124.361238,614 L-126.361238,614 L-126.361238,608 L-124.361238,608 Z M-120.361238,608 L-120.361238,614 L-122.361238,614 L-122.361238,608 L-120.361238,608 Z M-116.361238,608 L-116.361238,614 L-118.361238,614 L-118.361238,608 L-116.361238,608 Z M-112.361238,608 L-112.361238,614 L-114.361238,614 L-114.361238,608 L-112.361238,608 Z M-108.361238,608 L-108.361238,614 L-110.361238,614 L-110.361238,608 L-108.361238,608 Z M-104.361238,608 L-104.361238,614 L-106.361238,614 L-106.361238,608 L-104.361238,608 Z M-100.361238,608 L-100.361238,614 L-102.361238,614 L-102.361238,608 L-100.361238,608 Z M-96.3612381,608 L-96.3612381,614 L-98.3612381,614 L-98.3612381,608 L-96.3612381,608 Z M-92.3612381,608 L-92.3612381,614 L-94.3612381,614 L-94.3612381,608 L-92.3612381,608 Z M-88.3612381,608 L-88.3612381,614 L-90.3612381,614 L-90.3612381,608 L-88.3612381,608 Z M-84.3612381,608 L-84.3612381,614 L-86.3612381,614 L-86.3612381,608 L-84.3612381,608 Z M-80.3612381,608 L-80.3612381,614 L-82.3612381,614 L-82.3612381,608 L-80.3612381,608 Z M-76.3612381,608 L-76.3612381,614 L-78.3612381,614 L-78.3612381,608 L-76.3612381,608 Z M-72.3612381,608 L-72.3612381,614 L-74.3612381,614 L-74.3612381,608 L-72.3612381,608 Z M-68.3612381,608 L-68.3612381,614 L-70.3612381,614 L-70.3612381,608 L-68.3612381,608 Z M-64.3612381,608 L-64.3612381,614 L-66.3612381,614 L-66.3612381,608 L-64.3612381,608 Z M-60.3612381,608 L-60.3612381,614 L-62.3612381,614 L-62.3612381,608 L-60.3612381,608 Z M-56.3612381,608 L-56.3612381,614 L-58.3612381,614 L-58.3612381,608 L-56.3612381,608 Z M-52.3612381,608 L-52.3612381,614 L-54.3612381,614 L-54.3612381,608 L-52.3612381,608 Z M-48.3612381,608 L-48.3612381,614 L-50.3612381,614 L-50.3612381,608 L-48.3612381,608 Z M-44.3612381,608 L-44.3612381,614 L-46.3612381,614 L-46.3612381,608 L-44.3612381,608 Z M-40.3612381,608 L-40.3612381,614 L-42.3612381,614 L-42.3612381,608 L-40.3612381,608 Z M-36.3612381,608 L-36.3612381,614 L-38.3612381,614 L-38.3612381,608 L-36.3612381,608 Z M-32.3612381,608 L-32.3612381,614 L-34.3612381,614 L-34.3612381,608 L-32.3612381,608 Z M-28.3612381,608 L-28.3612381,614 L-30.3612381,614 L-30.3612381,608 L-28.3612381,608 Z M-24.3612381,608 L-24.3612381,614 L-26.3612381,614 L-26.3612381,608 L-24.3612381,608 Z M-20.3612381,608 L-20.3612381,614 L-22.3612381,614 L-22.3612381,608 L-20.3612381,608 Z M-16.3612381,608 L-16.3612381,614 L-18.3612381,614 L-18.3612381,608 L-16.3612381,608 Z M-12.3612381,608 L-12.3612381,614 L-14.3612381,614 L-14.3612381,608 L-12.3612381,608 Z M-8.36123814,608 L-8.36123814,614 L-10.3612381,614 L-10.3612381,608 L-8.36123814,608 Z M-4.36123814,608 L-4.36123814,614 L-6.36123814,614 L-6.36123814,608 L-4.36123814,608 Z M-0.36123814,608 L-0.36123814,614 L-2.36123814,614 L-2.36123814,608 L-0.36123814,608 Z M3.63876186,608 L3.63876186,614 L1.63876186,614 L1.63876186,608 L3.63876186,608 Z M7.63876186,608 L7.63876186,614 L5.63876186,614 L5.63876186,608 L7.63876186,608 Z M11.6387619,608 L11.6387619,614 L9.63876186,614 L9.63876186,608 L11.6387619,608 Z M15.6387619,608 L15.6387619,614 L13.6387619,614 L13.6387619,608 L15.6387619,608 Z M19.6387619,608 L19.6387619,614 L17.6387619,614 L17.6387619,608 L19.6387619,608 Z M23.6387619,608 L23.6387619,614 L21.6387619,614 L21.6387619,608 L23.6387619,608 Z M27.6387619,608 L27.6387619,614 L25.6387619,614 L25.6387619,608 L27.6387619,608 Z M31.6387619,608 L31.6387619,614 L29.6387619,614 L29.6387619,608 L31.6387619,608 Z M35.6387619,608 L35.6387619,614 L33.6387619,614 L33.6387619,608 L35.6387619,608 Z M39.6387619,608 L39.6387619,614 L37.6387619,614 L37.6387619,608 L39.6387619,608 Z M43.6387619,608 L43.6387619,614 L41.6387619,614 L41.6387619,608 L43.6387619,608 Z M47.6387619,608 L47.6387619,614 L45.6387619,614 L45.6387619,608 L47.6387619,608 Z M51.6387619,608 L51.6387619,614 L49.6387619,614 L49.6387619,608 L51.6387619,608 Z M55.6387619,608 L55.6387619,614 L53.6387619,614 L53.6387619,608 L55.6387619,608 Z M59.6387619,608 L59.6387619,614 L57.6387619,614 L57.6387619,608 L59.6387619,608 Z M63.6387619,608 L63.6387619,614 L61.6387619,614 L61.6387619,608 L63.6387619,608 Z M67.6387619,608 L67.6387619,614 L65.6387619,614 L65.6387619,608 L67.6387619,608 Z M71.6387619,608 L71.6387619,614 L69.6387619,614 L69.6387619,608 L71.6387619,608 Z M75.6387619,608 L75.6387619,614 L73.6387619,614 L73.6387619,608 L75.6387619,608 Z M79.6387619,608 L79.6387619,614 L77.6387619,614 L77.6387619,608 L79.6387619,608 Z M83.6387619,608 L83.6387619,614 L81.6387619,614 L81.6387619,608 L83.6387619,608 Z M87.6387619,608 L87.6387619,614 L85.6387619,614 L85.6387619,608 L87.6387619,608 Z M91.6387619,608 L91.6387619,614 L89.6387619,614 L89.6387619,608 L91.6387619,608 Z M95.6387619,608 L95.6387619,614 L93.6387619,614 L93.6387619,608 L95.6387619,608 Z M99.6387619,608 L99.6387619,614 L97.6387619,614 L97.6387619,608 L99.6387619,608 Z M103.638762,608 L103.638762,614 L101.638762,614 L101.638762,608 L103.638762,608 Z M107.638762,608 L107.638762,614 L105.638762,614 L105.638762,608 L107.638762,608 Z M111.638762,608 L111.638762,614 L109.638762,614 L109.638762,608 L111.638762,608 Z M115.638762,608 L115.638762,614 L113.638762,614 L113.638762,608 L115.638762,608 Z M119.638762,608 L119.638762,614 L117.638762,614 L117.638762,608 L119.638762,608 Z M123.638762,608 L123.638762,614 L121.638762,614 L121.638762,608 L123.638762,608 Z M127.638762,608 L127.638762,614 L125.638762,614 L125.638762,608 L127.638762,608 Z M131.638762,608 L131.638762,614 L129.638762,614 L129.638762,608 L131.638762,608 Z M135.638762,608 L135.638762,614 L133.638762,614 L133.638762,608 L135.638762,608 Z M139.638762,608 L139.638762,614 L137.638762,614 L137.638762,608 L139.638762,608 Z M143.638762,608 L143.638762,614 L141.638762,614 L141.638762,608 L143.638762,608 Z M147.638762,608 L147.638762,614 L145.638762,614 L145.638762,608 L147.638762,608 Z M151.638762,608 L151.638762,614 L149.638762,614 L149.638762,608 L151.638762,608 Z M155.638762,608 L155.638762,614 L153.638762,614 L153.638762,608 L155.638762,608 Z M159.638762,608 L159.638762,614 L157.638762,614 L157.638762,608 L159.638762,608 Z M163.638762,608 L163.638762,614 L161.638762,614 L161.638762,608 L163.638762,608 Z M167.638762,608 L167.638762,614 L165.638762,614 L165.638762,608 L167.638762,608 Z M171.638762,608 L171.638762,614 L169.638762,614 L169.638762,608 L171.638762,608 Z M175.638762,608 L175.638762,614 L173.638762,614 L173.638762,608 L175.638762,608 Z M179.638762,608 L179.638762,614 L177.638762,614 L177.638762,608 L179.638762,608 Z M183.638762,608 L183.638762,614 L181.638762,614 L181.638762,608 L183.638762,608 Z M187.638762,608 L187.638762,614 L185.638762,614 L185.638762,608 L187.638762,608 Z M191.638762,608 L191.638762,614 L189.638762,614 L189.638762,608 L191.638762,608 Z M195.638762,608 L195.638762,614 L193.638762,614 L193.638762,608 L195.638762,608 Z M199.638762,608 L199.638762,614 L197.638762,614 L197.638762,608 L199.638762,608 Z M203.638762,608 L203.638762,614 L201.638762,614 L201.638762,608 L203.638762,608 Z M207.638762,608 L207.638762,614 L205.638762,614 L205.638762,608 L207.638762,608 Z M211.638762,608 L211.638762,614 L209.638762,614 L209.638762,608 L211.638762,608 Z M215.638762,608 L215.638762,614 L213.638762,614 L213.638762,608 L215.638762,608 Z M219.638762,608 L219.638762,614 L217.638762,614 L217.638762,608 L219.638762,608 Z M223.638762,608 L223.638762,614 L221.638762,614 L221.638762,608 L223.638762,608 Z M227.638762,608 L227.638762,614 L225.638762,614 L225.638762,608 L227.638762,608 Z M231.638762,608 L231.638762,614 L229.638762,614 L229.638762,608 L231.638762,608 Z M235.638762,608 L235.638762,614 L233.638762,614 L233.638762,608 L235.638762,608 Z M239.638762,608 L239.638762,614 L237.638762,614 L237.638762,608 L239.638762,608 Z M243.638762,608 L243.638762,614 L241.638762,614 L241.638762,608 L243.638762,608 Z M247.638762,608 L247.638762,614 L245.638762,614 L245.638762,608 L247.638762,608 Z M251.638762,608 L251.638762,614 L249.638762,614 L249.638762,608 L251.638762,608 Z M255.638762,608 L255.638762,614 L253.638762,614 L253.638762,608 L255.638762,608 Z M259.638762,608 L259.638762,614 L257.638762,614 L257.638762,608 L259.638762,608 Z M263.638762,608 L263.638762,614 L261.638762,614 L261.638762,608 L263.638762,608 Z M267.638762,608 L267.638762,614 L265.638762,614 L265.638762,608 L267.638762,608 Z M271.638762,608 L271.638762,614 L269.638762,614 L269.638762,608 L271.638762,608 Z M275.638762,608 L275.638762,614 L273.638762,614 L273.638762,608 L275.638762,608 Z M279.638762,608 L279.638762,614 L277.638762,614 L277.638762,608 L279.638762,608 Z M283.638762,608 L283.638762,614 L281.638762,614 L281.638762,608 L283.638762,608 Z M287.638762,608 L287.638762,614 L285.638762,614 L285.638762,608 L287.638762,608 Z M291.638762,608 L291.638762,614 L289.638762,614 L289.638762,608 L291.638762,608 Z M295.638762,608 L295.638762,614 L293.638762,614 L293.638762,608 L295.638762,608 Z M299.638762,608 L299.638762,614 L297.638762,614 L297.638762,608 L299.638762,608 Z M303.638762,608 L303.638762,614 L301.638762,614 L301.638762,608 L303.638762,608 Z M307.638762,608 L307.638762,614 L305.638762,614 L305.638762,608 L307.638762,608 Z M311.638762,608 L311.638762,614 L309.638762,614 L309.638762,608 L311.638762,608 Z M315.638762,608 L315.638762,614 L313.638762,614 L313.638762,608 L315.638762,608 Z M319.638762,608 L319.638762,614 L317.638762,614 L317.638762,608 L319.638762,608 Z M323.638762,608 L323.638762,614 L321.638762,614 L321.638762,608 L323.638762,608 Z M327.638762,608 L327.638762,614 L325.638762,614 L325.638762,608 L327.638762,608 Z M331.638762,608 L331.638762,614 L329.638762,614 L329.638762,608 L331.638762,608 Z M335.638762,608 L335.638762,614 L333.638762,614 L333.638762,608 L335.638762,608 Z M339.638762,608 L339.638762,614 L337.638762,614 L337.638762,608 L339.638762,608 Z M343.638762,608 L343.638762,614 L341.638762,614 L341.638762,608 L343.638762,608 Z M347.638762,608 L347.638762,614 L345.638762,614 L345.638762,608 L347.638762,608 Z M351.638762,608 L351.638762,614 L349.638762,614 L349.638762,608 L351.638762,608 Z M355.638762,608 L355.638762,614 L353.638762,614 L353.638762,608 L355.638762,608 Z M359.638762,608 L359.638762,614 L357.638762,614 L357.638762,608 L359.638762,608 Z M363.638762,608 L363.638762,614 L361.638762,614 L361.638762,608 L363.638762,608 Z M367.638762,608 L367.638762,614 L365.638762,614 L365.638762,608 L367.638762,608 Z M371.638762,608 L371.638762,614 L369.638762,614 L369.638762,608 L371.638762,608 Z M375.638762,608 L375.638762,614 L373.638762,614 L373.638762,608 L375.638762,608 Z M379.638762,608 L379.638762,614 L377.638762,614 L377.638762,608 L379.638762,608 Z M383.638762,608 L383.638762,614 L381.638762,614 L381.638762,608 L383.638762,608 Z M387.638762,608 L387.638762,614 L385.638762,614 L385.638762,608 L387.638762,608 Z M391.638762,608 L391.638762,614 L389.638762,614 L389.638762,608 L391.638762,608 Z M395.638762,608 L395.638762,614 L393.638762,614 L393.638762,608 L395.638762,608 Z M399.638762,608 L399.638762,614 L397.638762,614 L397.638762,608 L399.638762,608 Z M403.638762,608 L403.638762,614 L401.638762,614 L401.638762,608 L403.638762,608 Z M407.638762,608 L407.638762,614 L405.638762,614 L405.638762,608 L407.638762,608 Z M411.638762,608 L411.638762,614 L409.638762,614 L409.638762,608 L411.638762,608 Z M415.638762,608 L415.638762,614 L413.638762,614 L413.638762,608 L415.638762,608 Z M419.638762,608 L419.638762,614 L417.638762,614 L417.638762,608 L419.638762,608 Z M423.638762,608 L423.638762,614 L421.638762,614 L421.638762,608 L423.638762,608 Z M427.638762,608 L427.638762,614 L425.638762,614 L425.638762,608 L427.638762,608 Z M431.638762,608 L431.638762,614 L429.638762,614 L429.638762,608 L431.638762,608 Z M435.638762,608 L435.638762,614 L433.638762,614 L433.638762,608 L435.638762,608 Z M439.638762,608 L439.638762,614 L437.638762,614 L437.638762,608 L439.638762,608 Z M443.638762,608 L443.638762,614 L441.638762,614 L441.638762,608 L443.638762,608 Z M447.638762,608 L447.638762,614 L445.638762,614 L445.638762,608 L447.638762,608 Z M451.638762,608 L451.638762,614 L449.638762,614 L449.638762,608 L451.638762,608 Z M455.638762,608 L455.638762,614 L453.638762,614 L453.638762,608 L455.638762,608 Z M459.638762,608 L459.638762,614 L457.638762,614 L457.638762,608 L459.638762,608 Z M463.638762,608 L463.638762,614 L461.638762,614 L461.638762,608 L463.638762,608 Z M467.638762,608 L467.638762,614 L465.638762,614 L465.638762,608 L467.638762,608 Z M471.638762,608 L471.638762,614 L469.638762,614 L469.638762,608 L471.638762,608 Z M475.638762,608 L475.638762,614 L473.638762,614 L473.638762,608 L475.638762,608 Z M479.638762,608 L479.638762,614 L477.638762,614 L477.638762,608 L479.638762,608 Z M483.638762,608 L483.638762,614 L481.638762,614 L481.638762,608 L483.638762,608 Z M487.638762,608 L487.638762,614 L485.638762,614 L485.638762,608 L487.638762,608 Z M491.638762,608 L491.638762,614 L489.638762,614 L489.638762,608 L491.638762,608 Z M495.638762,608 L495.638762,614 L493.638762,614 L493.638762,608 L495.638762,608 Z M499.638762,608 L499.638762,614 L497.638762,614 L497.638762,608 L499.638762,608 Z M503.638762,608 L503.638762,614 L501.638762,614 L501.638762,608 L503.638762,608 Z M507.638762,608 L507.638762,614 L505.638762,614 L505.638762,608 L507.638762,608 Z M511.638762,608 L511.638762,614 L509.638762,614 L509.638762,608 L511.638762,608 Z M515.638762,608 L515.638762,614 L513.638762,614 L513.638762,608 L515.638762,608 Z M519.638762,608 L519.638762,614 L517.638762,614 L517.638762,608 L519.638762,608 Z M523.638762,608 L523.638762,614 L521.638762,614 L521.638762,608 L523.638762,608 Z M527.638762,608 L527.638762,614 L525.638762,614 L525.638762,608 L527.638762,608 Z M531.638762,608 L531.638762,614 L529.638762,614 L529.638762,608 L531.638762,608 Z M535.638762,608 L535.638762,614 L533.638762,614 L533.638762,608 L535.638762,608 Z M539.638762,608 L539.638762,614 L537.638762,614 L537.638762,608 L539.638762,608 Z M543.638762,608 L543.638762,614 L541.638762,614 L541.638762,608 L543.638762,608 Z M547.638762,608 L547.638762,614 L545.638762,614 L545.638762,608 L547.638762,608 Z M551.638762,608 L551.638762,614 L549.638762,614 L549.638762,608 L551.638762,608 Z M555.638762,608 L555.638762,614 L553.638762,614 L553.638762,608 L555.638762,608 Z M559.638762,608 L559.638762,614 L557.638762,614 L557.638762,608 L559.638762,608 Z M563.638762,608 L563.638762,614 L561.638762,614 L561.638762,608 L563.638762,608 Z M567.638762,608 L567.638762,614 L565.638762,614 L565.638762,608 L567.638762,608 Z M571.638762,608 L571.638762,614 L569.638762,614 L569.638762,608 L571.638762,608 Z M575.638762,608 L575.638762,614 L573.638762,614 L573.638762,608 L575.638762,608 Z M579.638762,608 L579.638762,614 L577.638762,614 L577.638762,608 L579.638762,608 Z M583.638762,608 L583.638762,614 L581.638762,614 L581.638762,608 L583.638762,608 Z M587.638762,608 L587.638762,614 L585.638762,614 L585.638762,608 L587.638762,608 Z M591.638762,608 L591.638762,614 L589.638762,614 L589.638762,608 L591.638762,608 Z M595.638762,608 L595.638762,614 L593.638762,614 L593.638762,608 L595.638762,608 Z M599.638762,608 L599.638762,614 L597.638762,614 L597.638762,608 L599.638762,608 Z"></path>
            </g>
        </g>
    </g>
</svg>