<?xml version="1.0" encoding="UTF-8"?>
<svg width="1258px" height="34px" viewBox="0 0 1258 34" version="1.1" xmlns="http://www.w3.org/2000/svg" xmlns:xlink="http://www.w3.org/1999/xlink">
    <!-- Generator: Sketch 59.1 (86144) - https://sketch.com -->
    <title>Stroke 1</title>
    <desc>Created with Sketch.</desc>
    <g id="Products-Page" stroke="none" stroke-width="1" fill="none" fill-rule="evenodd">
        <g id="Products-Page-Small-Business" transform="translate(-59.000000, -2556.000000)" fill="#FFFFFF" fill-rule="nonzero">
            <path id="Stroke-1" d="M76,2556 C85.3888407,2556 93,2563.61116 93,2573 C93,2582.38884 85.3888407,2590 76,2590 C66.6111593,2590 59,2582.38884 59,2573 C59,2563.61116 66.6111593,2556 76,2556 Z M1284.91703,2556 C1285.23188,2556 1285.54242,2556.07331 1285.82404,2556.21412 L1285.82404,2556.21412 L1315.76732,2571.18576 C1316.76917,2571.68668 1317.17526,2572.90493 1316.67433,2573.90679 C1316.47808,2574.29929 1316.15982,2574.61755 1315.76732,2574.8138 L1315.76732,2574.8138 L1285.82404,2589.78544 C1284.82218,2590.28637 1283.60393,2589.88029 1283.10301,2588.87843 C1282.9622,2588.59681 1282.88889,2588.28628 1282.88889,2587.97142 L1282.88889,2587.97142 L1282.888,2576 L1282,2576 L1282,2570 L1282.888,2570 L1282.88889,2558.02814 C1282.88889,2556.95894 1283.71624,2556.08299 1284.76566,2556.00556 Z M76,2562 C69.9248678,2562 65,2566.92487 65,2573 C65,2579.07513 69.9248678,2584 76,2584 C82.0751322,2584 87,2579.07513 87,2573 C87,2566.92487 82.0751322,2562 76,2562 Z M96,2570 L96,2576 L94,2576 L94,2570 L96,2570 Z M100,2570 L100,2576 L98,2576 L98,2570 L100,2570 Z M104,2570 L104,2576 L102,2576 L102,2570 L104,2570 Z M108,2570 L108,2576 L106,2576 L106,2570 L108,2570 Z M112,2570 L112,2576 L110,2576 L110,2570 L112,2570 Z M116,2570 L116,2576 L114,2576 L114,2570 L116,2570 Z M120,2570 L120,2576 L118,2576 L118,2570 L120,2570 Z M124,2570 L124,2576 L122,2576 L122,2570 L124,2570 Z M128,2570 L128,2576 L126,2576 L126,2570 L128,2570 Z M132,2570 L132,2576 L130,2576 L130,2570 L132,2570 Z M136,2570 L136,2576 L134,2576 L134,2570 L136,2570 Z M140,2570 L140,2576 L138,2576 L138,2570 L140,2570 Z M144,2570 L144,2576 L142,2576 L142,2570 L144,2570 Z M148,2570 L148,2576 L146,2576 L146,2570 L148,2570 Z M152,2570 L152,2576 L150,2576 L150,2570 L152,2570 Z M156,2570 L156,2576 L154,2576 L154,2570 L156,2570 Z M160,2570 L160,2576 L158,2576 L158,2570 L160,2570 Z M164,2570 L164,2576 L162,2576 L162,2570 L164,2570 Z M168,2570 L168,2576 L166,2576 L166,2570 L168,2570 Z M172,2570 L172,2576 L170,2576 L170,2570 L172,2570 Z M176,2570 L176,2576 L174,2576 L174,2570 L176,2570 Z M180,2570 L180,2576 L178,2576 L178,2570 L180,2570 Z M184,2570 L184,2576 L182,2576 L182,2570 L184,2570 Z M188,2570 L188,2576 L186,2576 L186,2570 L188,2570 Z M192,2570 L192,2576 L190,2576 L190,2570 L192,2570 Z M196,2570 L196,2576 L194,2576 L194,2570 L196,2570 Z M200,2570 L200,2576 L198,2576 L198,2570 L200,2570 Z M204,2570 L204,2576 L202,2576 L202,2570 L204,2570 Z M208,2570 L208,2576 L206,2576 L206,2570 L208,2570 Z M212,2570 L212,2576 L210,2576 L210,2570 L212,2570 Z M216,2570 L216,2576 L214,2576 L214,2570 L216,2570 Z M220,2570 L220,2576 L218,2576 L218,2570 L220,2570 Z M224,2570 L224,2576 L222,2576 L222,2570 L224,2570 Z M228,2570 L228,2576 L226,2576 L226,2570 L228,2570 Z M232,2570 L232,2576 L230,2576 L230,2570 L232,2570 Z M236,2570 L236,2576 L234,2576 L234,2570 L236,2570 Z M240,2570 L240,2576 L238,2576 L238,2570 L240,2570 Z M244,2570 L244,2576 L242,2576 L242,2570 L244,2570 Z M248,2570 L248,2576 L246,2576 L246,2570 L248,2570 Z M252,2570 L252,2576 L250,2576 L250,2570 L252,2570 Z M256,2570 L256,2576 L254,2576 L254,2570 L256,2570 Z M260,2570 L260,2576 L258,2576 L258,2570 L260,2570 Z M264,2570 L264,2576 L262,2576 L262,2570 L264,2570 Z M268,2570 L268,2576 L266,2576 L266,2570 L268,2570 Z M272,2570 L272,2576 L270,2576 L270,2570 L272,2570 Z M276,2570 L276,2576 L274,2576 L274,2570 L276,2570 Z M280,2570 L280,2576 L278,2576 L278,2570 L280,2570 Z M284,2570 L284,2576 L282,2576 L282,2570 L284,2570 Z M288,2570 L288,2576 L286,2576 L286,2570 L288,2570 Z M292,2570 L292,2576 L290,2576 L290,2570 L292,2570 Z M296,2570 L296,2576 L294,2576 L294,2570 L296,2570 Z M300,2570 L300,2576 L298,2576 L298,2570 L300,2570 Z M304,2570 L304,2576 L302,2576 L302,2570 L304,2570 Z M308,2570 L308,2576 L306,2576 L306,2570 L308,2570 Z M312,2570 L312,2576 L310,2576 L310,2570 L312,2570 Z M316,2570 L316,2576 L314,2576 L314,2570 L316,2570 Z M320,2570 L320,2576 L318,2576 L318,2570 L320,2570 Z M324,2570 L324,2576 L322,2576 L322,2570 L324,2570 Z M328,2570 L328,2576 L326,2576 L326,2570 L328,2570 Z M332,2570 L332,2576 L330,2576 L330,2570 L332,2570 Z M336,2570 L336,2576 L334,2576 L334,2570 L336,2570 Z M340,2570 L340,2576 L338,2576 L338,2570 L340,2570 Z M344,2570 L344,2576 L342,2576 L342,2570 L344,2570 Z M348,2570 L348,2576 L346,2576 L346,2570 L348,2570 Z M352,2570 L352,2576 L350,2576 L350,2570 L352,2570 Z M356,2570 L356,2576 L354,2576 L354,2570 L356,2570 Z M360,2570 L360,2576 L358,2576 L358,2570 L360,2570 Z M364,2570 L364,2576 L362,2576 L362,2570 L364,2570 Z M368,2570 L368,2576 L366,2576 L366,2570 L368,2570 Z M372,2570 L372,2576 L370,2576 L370,2570 L372,2570 Z M376,2570 L376,2576 L374,2576 L374,2570 L376,2570 Z M380,2570 L380,2576 L378,2576 L378,2570 L380,2570 Z M384,2570 L384,2576 L382,2576 L382,2570 L384,2570 Z M388,2570 L388,2576 L386,2576 L386,2570 L388,2570 Z M392,2570 L392,2576 L390,2576 L390,2570 L392,2570 Z M396,2570 L396,2576 L394,2576 L394,2570 L396,2570 Z M400,2570 L400,2576 L398,2576 L398,2570 L400,2570 Z M404,2570 L404,2576 L402,2576 L402,2570 L404,2570 Z M408,2570 L408,2576 L406,2576 L406,2570 L408,2570 Z M412,2570 L412,2576 L410,2576 L410,2570 L412,2570 Z M416,2570 L416,2576 L414,2576 L414,2570 L416,2570 Z M420,2570 L420,2576 L418,2576 L418,2570 L420,2570 Z M424,2570 L424,2576 L422,2576 L422,2570 L424,2570 Z M428,2570 L428,2576 L426,2576 L426,2570 L428,2570 Z M432,2570 L432,2576 L430,2576 L430,2570 L432,2570 Z M436,2570 L436,2576 L434,2576 L434,2570 L436,2570 Z M440,2570 L440,2576 L438,2576 L438,2570 L440,2570 Z M444,2570 L444,2576 L442,2576 L442,2570 L444,2570 Z M448,2570 L448,2576 L446,2576 L446,2570 L448,2570 Z M452,2570 L452,2576 L450,2576 L450,2570 L452,2570 Z M456,2570 L456,2576 L454,2576 L454,2570 L456,2570 Z M460,2570 L460,2576 L458,2576 L458,2570 L460,2570 Z M464,2570 L464,2576 L462,2576 L462,2570 L464,2570 Z M468,2570 L468,2576 L466,2576 L466,2570 L468,2570 Z M472,2570 L472,2576 L470,2576 L470,2570 L472,2570 Z M476,2570 L476,2576 L474,2576 L474,2570 L476,2570 Z M480,2570 L480,2576 L478,2576 L478,2570 L480,2570 Z M484,2570 L484,2576 L482,2576 L482,2570 L484,2570 Z M488,2570 L488,2576 L486,2576 L486,2570 L488,2570 Z M492,2570 L492,2576 L490,2576 L490,2570 L492,2570 Z M496,2570 L496,2576 L494,2576 L494,2570 L496,2570 Z M500,2570 L500,2576 L498,2576 L498,2570 L500,2570 Z M504,2570 L504,2576 L502,2576 L502,2570 L504,2570 Z M508,2570 L508,2576 L506,2576 L506,2570 L508,2570 Z M512,2570 L512,2576 L510,2576 L510,2570 L512,2570 Z M516,2570 L516,2576 L514,2576 L514,2570 L516,2570 Z M520,2570 L520,2576 L518,2576 L518,2570 L520,2570 Z M524,2570 L524,2576 L522,2576 L522,2570 L524,2570 Z M528,2570 L528,2576 L526,2576 L526,2570 L528,2570 Z M532,2570 L532,2576 L530,2576 L530,2570 L532,2570 Z M536,2570 L536,2576 L534,2576 L534,2570 L536,2570 Z M540,2570 L540,2576 L538,2576 L538,2570 L540,2570 Z M544,2570 L544,2576 L542,2576 L542,2570 L544,2570 Z M548,2570 L548,2576 L546,2576 L546,2570 L548,2570 Z M552,2570 L552,2576 L550,2576 L550,2570 L552,2570 Z M556,2570 L556,2576 L554,2576 L554,2570 L556,2570 Z M560,2570 L560,2576 L558,2576 L558,2570 L560,2570 Z M564,2570 L564,2576 L562,2576 L562,2570 L564,2570 Z M568,2570 L568,2576 L566,2576 L566,2570 L568,2570 Z M572,2570 L572,2576 L570,2576 L570,2570 L572,2570 Z M576,2570 L576,2576 L574,2576 L574,2570 L576,2570 Z M580,2570 L580,2576 L578,2576 L578,2570 L580,2570 Z M584,2570 L584,2576 L582,2576 L582,2570 L584,2570 Z M588,2570 L588,2576 L586,2576 L586,2570 L588,2570 Z M592,2570 L592,2576 L590,2576 L590,2570 L592,2570 Z M596,2570 L596,2576 L594,2576 L594,2570 L596,2570 Z M600,2570 L600,2576 L598,2576 L598,2570 L600,2570 Z M604,2570 L604,2576 L602,2576 L602,2570 L604,2570 Z M608,2570 L608,2576 L606,2576 L606,2570 L608,2570 Z M612,2570 L612,2576 L610,2576 L610,2570 L612,2570 Z M616,2570 L616,2576 L614,2576 L614,2570 L616,2570 Z M620,2570 L620,2576 L618,2576 L618,2570 L620,2570 Z M624,2570 L624,2576 L622,2576 L622,2570 L624,2570 Z M628,2570 L628,2576 L626,2576 L626,2570 L628,2570 Z M632,2570 L632,2576 L630,2576 L630,2570 L632,2570 Z M636,2570 L636,2576 L634,2576 L634,2570 L636,2570 Z M640,2570 L640,2576 L638,2576 L638,2570 L640,2570 Z M644,2570 L644,2576 L642,2576 L642,2570 L644,2570 Z M648,2570 L648,2576 L646,2576 L646,2570 L648,2570 Z M652,2570 L652,2576 L650,2576 L650,2570 L652,2570 Z M656,2570 L656,2576 L654,2576 L654,2570 L656,2570 Z M660,2570 L660,2576 L658,2576 L658,2570 L660,2570 Z M664,2570 L664,2576 L662,2576 L662,2570 L664,2570 Z M668,2570 L668,2576 L666,2576 L666,2570 L668,2570 Z M672,2570 L672,2576 L670,2576 L670,2570 L672,2570 Z M676,2570 L676,2576 L674,2576 L674,2570 L676,2570 Z M680,2570 L680,2576 L678,2576 L678,2570 L680,2570 Z M684,2570 L684,2576 L682,2576 L682,2570 L684,2570 Z M688,2570 L688,2576 L686,2576 L686,2570 L688,2570 Z M692,2570 L692,2576 L690,2576 L690,2570 L692,2570 Z M696,2570 L696,2576 L694,2576 L694,2570 L696,2570 Z M700,2570 L700,2576 L698,2576 L698,2570 L700,2570 Z M704,2570 L704,2576 L702,2576 L702,2570 L704,2570 Z M708,2570 L708,2576 L706,2576 L706,2570 L708,2570 Z M712,2570 L712,2576 L710,2576 L710,2570 L712,2570 Z M716,2570 L716,2576 L714,2576 L714,2570 L716,2570 Z M720,2570 L720,2576 L718,2576 L718,2570 L720,2570 Z M724,2570 L724,2576 L722,2576 L722,2570 L724,2570 Z M728,2570 L728,2576 L726,2576 L726,2570 L728,2570 Z M732,2570 L732,2576 L730,2576 L730,2570 L732,2570 Z M736,2570 L736,2576 L734,2576 L734,2570 L736,2570 Z M740,2570 L740,2576 L738,2576 L738,2570 L740,2570 Z M744,2570 L744,2576 L742,2576 L742,2570 L744,2570 Z M748,2570 L748,2576 L746,2576 L746,2570 L748,2570 Z M752,2570 L752,2576 L750,2576 L750,2570 L752,2570 Z M756,2570 L756,2576 L754,2576 L754,2570 L756,2570 Z M760,2570 L760,2576 L758,2576 L758,2570 L760,2570 Z M764,2570 L764,2576 L762,2576 L762,2570 L764,2570 Z M768,2570 L768,2576 L766,2576 L766,2570 L768,2570 Z M772,2570 L772,2576 L770,2576 L770,2570 L772,2570 Z M776,2570 L776,2576 L774,2576 L774,2570 L776,2570 Z M780,2570 L780,2576 L778,2576 L778,2570 L780,2570 Z M784,2570 L784,2576 L782,2576 L782,2570 L784,2570 Z M788,2570 L788,2576 L786,2576 L786,2570 L788,2570 Z M792,2570 L792,2576 L790,2576 L790,2570 L792,2570 Z M796,2570 L796,2576 L794,2576 L794,2570 L796,2570 Z M800,2570 L800,2576 L798,2576 L798,2570 L800,2570 Z M804,2570 L804,2576 L802,2576 L802,2570 L804,2570 Z M808,2570 L808,2576 L806,2576 L806,2570 L808,2570 Z M812,2570 L812,2576 L810,2576 L810,2570 L812,2570 Z M816,2570 L816,2576 L814,2576 L814,2570 L816,2570 Z M820,2570 L820,2576 L818,2576 L818,2570 L820,2570 Z M824,2570 L824,2576 L822,2576 L822,2570 L824,2570 Z M828,2570 L828,2576 L826,2576 L826,2570 L828,2570 Z M832,2570 L832,2576 L830,2576 L830,2570 L832,2570 Z M836,2570 L836,2576 L834,2576 L834,2570 L836,2570 Z M840,2570 L840,2576 L838,2576 L838,2570 L840,2570 Z M844,2570 L844,2576 L842,2576 L842,2570 L844,2570 Z M848,2570 L848,2576 L846,2576 L846,2570 L848,2570 Z M852,2570 L852,2576 L850,2576 L850,2570 L852,2570 Z M856,2570 L856,2576 L854,2576 L854,2570 L856,2570 Z M860,2570 L860,2576 L858,2576 L858,2570 L860,2570 Z M864,2570 L864,2576 L862,2576 L862,2570 L864,2570 Z M868,2570 L868,2576 L866,2576 L866,2570 L868,2570 Z M872,2570 L872,2576 L870,2576 L870,2570 L872,2570 Z M876,2570 L876,2576 L874,2576 L874,2570 L876,2570 Z M880,2570 L880,2576 L878,2576 L878,2570 L880,2570 Z M884,2570 L884,2576 L882,2576 L882,2570 L884,2570 Z M888,2570 L888,2576 L886,2576 L886,2570 L888,2570 Z M892,2570 L892,2576 L890,2576 L890,2570 L892,2570 Z M896,2570 L896,2576 L894,2576 L894,2570 L896,2570 Z M900,2570 L900,2576 L898,2576 L898,2570 L900,2570 Z M904,2570 L904,2576 L902,2576 L902,2570 L904,2570 Z M908,2570 L908,2576 L906,2576 L906,2570 L908,2570 Z M912,2570 L912,2576 L910,2576 L910,2570 L912,2570 Z M916,2570 L916,2576 L914,2576 L914,2570 L916,2570 Z M920,2570 L920,2576 L918,2576 L918,2570 L920,2570 Z M924,2570 L924,2576 L922,2576 L922,2570 L924,2570 Z M928,2570 L928,2576 L926,2576 L926,2570 L928,2570 Z M932,2570 L932,2576 L930,2576 L930,2570 L932,2570 Z M936,2570 L936,2576 L934,2576 L934,2570 L936,2570 Z M940,2570 L940,2576 L938,2576 L938,2570 L940,2570 Z M944,2570 L944,2576 L942,2576 L942,2570 L944,2570 Z M948,2570 L948,2576 L946,2576 L946,2570 L948,2570 Z M952,2570 L952,2576 L950,2576 L950,2570 L952,2570 Z M956,2570 L956,2576 L954,2576 L954,2570 L956,2570 Z M960,2570 L960,2576 L958,2576 L958,2570 L960,2570 Z M964,2570 L964,2576 L962,2576 L962,2570 L964,2570 Z M968,2570 L968,2576 L966,2576 L966,2570 L968,2570 Z M972,2570 L972,2576 L970,2576 L970,2570 L972,2570 Z M976,2570 L976,2576 L974,2576 L974,2570 L976,2570 Z M980,2570 L980,2576 L978,2576 L978,2570 L980,2570 Z M984,2570 L984,2576 L982,2576 L982,2570 L984,2570 Z M988,2570 L988,2576 L986,2576 L986,2570 L988,2570 Z M992,2570 L992,2576 L990,2576 L990,2570 L992,2570 Z M996,2570 L996,2576 L994,2576 L994,2570 L996,2570 Z M1000,2570 L1000,2576 L998,2576 L998,2570 L1000,2570 Z M1004,2570 L1004,2576 L1002,2576 L1002,2570 L1004,2570 Z M1008,2570 L1008,2576 L1006,2576 L1006,2570 L1008,2570 Z M1012,2570 L1012,2576 L1010,2576 L1010,2570 L1012,2570 Z M1016,2570 L1016,2576 L1014,2576 L1014,2570 L1016,2570 Z M1020,2570 L1020,2576 L1018,2576 L1018,2570 L1020,2570 Z M1024,2570 L1024,2576 L1022,2576 L1022,2570 L1024,2570 Z M1028,2570 L1028,2576 L1026,2576 L1026,2570 L1028,2570 Z M1032,2570 L1032,2576 L1030,2576 L1030,2570 L1032,2570 Z M1036,2570 L1036,2576 L1034,2576 L1034,2570 L1036,2570 Z M1040,2570 L1040,2576 L1038,2576 L1038,2570 L1040,2570 Z M1044,2570 L1044,2576 L1042,2576 L1042,2570 L1044,2570 Z M1048,2570 L1048,2576 L1046,2576 L1046,2570 L1048,2570 Z M1052,2570 L1052,2576 L1050,2576 L1050,2570 L1052,2570 Z M1056,2570 L1056,2576 L1054,2576 L1054,2570 L1056,2570 Z M1060,2570 L1060,2576 L1058,2576 L1058,2570 L1060,2570 Z M1064,2570 L1064,2576 L1062,2576 L1062,2570 L1064,2570 Z M1068,2570 L1068,2576 L1066,2576 L1066,2570 L1068,2570 Z M1072,2570 L1072,2576 L1070,2576 L1070,2570 L1072,2570 Z M1076,2570 L1076,2576 L1074,2576 L1074,2570 L1076,2570 Z M1080,2570 L1080,2576 L1078,2576 L1078,2570 L1080,2570 Z M1084,2570 L1084,2576 L1082,2576 L1082,2570 L1084,2570 Z M1088,2570 L1088,2576 L1086,2576 L1086,2570 L1088,2570 Z M1092,2570 L1092,2576 L1090,2576 L1090,2570 L1092,2570 Z M1096,2570 L1096,2576 L1094,2576 L1094,2570 L1096,2570 Z M1100,2570 L1100,2576 L1098,2576 L1098,2570 L1100,2570 Z M1104,2570 L1104,2576 L1102,2576 L1102,2570 L1104,2570 Z M1108,2570 L1108,2576 L1106,2576 L1106,2570 L1108,2570 Z M1112,2570 L1112,2576 L1110,2576 L1110,2570 L1112,2570 Z M1116,2570 L1116,2576 L1114,2576 L1114,2570 L1116,2570 Z M1120,2570 L1120,2576 L1118,2576 L1118,2570 L1120,2570 Z M1124,2570 L1124,2576 L1122,2576 L1122,2570 L1124,2570 Z M1128,2570 L1128,2576 L1126,2576 L1126,2570 L1128,2570 Z M1132,2570 L1132,2576 L1130,2576 L1130,2570 L1132,2570 Z M1136,2570 L1136,2576 L1134,2576 L1134,2570 L1136,2570 Z M1140,2570 L1140,2576 L1138,2576 L1138,2570 L1140,2570 Z M1144,2570 L1144,2576 L1142,2576 L1142,2570 L1144,2570 Z M1148,2570 L1148,2576 L1146,2576 L1146,2570 L1148,2570 Z M1152,2570 L1152,2576 L1150,2576 L1150,2570 L1152,2570 Z M1156,2570 L1156,2576 L1154,2576 L1154,2570 L1156,2570 Z M1160,2570 L1160,2576 L1158,2576 L1158,2570 L1160,2570 Z M1164,2570 L1164,2576 L1162,2576 L1162,2570 L1164,2570 Z M1168,2570 L1168,2576 L1166,2576 L1166,2570 L1168,2570 Z M1172,2570 L1172,2576 L1170,2576 L1170,2570 L1172,2570 Z M1176,2570 L1176,2576 L1174,2576 L1174,2570 L1176,2570 Z M1180,2570 L1180,2576 L1178,2576 L1178,2570 L1180,2570 Z M1184,2570 L1184,2576 L1182,2576 L1182,2570 L1184,2570 Z M1188,2570 L1188,2576 L1186,2576 L1186,2570 L1188,2570 Z M1192,2570 L1192,2576 L1190,2576 L1190,2570 L1192,2570 Z M1196,2570 L1196,2576 L1194,2576 L1194,2570 L1196,2570 Z M1200,2570 L1200,2576 L1198,2576 L1198,2570 L1200,2570 Z M1204,2570 L1204,2576 L1202,2576 L1202,2570 L1204,2570 Z M1208,2570 L1208,2576 L1206,2576 L1206,2570 L1208,2570 Z M1212,2570 L1212,2576 L1210,2576 L1210,2570 L1212,2570 Z M1216,2570 L1216,2576 L1214,2576 L1214,2570 L1216,2570 Z M1220,2570 L1220,2576 L1218,2576 L1218,2570 L1220,2570 Z M1224,2570 L1224,2576 L1222,2576 L1222,2570 L1224,2570 Z M1228,2570 L1228,2576 L1226,2576 L1226,2570 L1228,2570 Z M1232,2570 L1232,2576 L1230,2576 L1230,2570 L1232,2570 Z M1236,2570 L1236,2576 L1234,2576 L1234,2570 L1236,2570 Z M1240,2570 L1240,2576 L1238,2576 L1238,2570 L1240,2570 Z M1244,2570 L1244,2576 L1242,2576 L1242,2570 L1244,2570 Z M1248,2570 L1248,2576 L1246,2576 L1246,2570 L1248,2570 Z M1252,2570 L1252,2576 L1250,2576 L1250,2570 L1252,2570 Z M1256,2570 L1256,2576 L1254,2576 L1254,2570 L1256,2570 Z M1260,2570 L1260,2576 L1258,2576 L1258,2570 L1260,2570 Z M1264,2570 L1264,2576 L1262,2576 L1262,2570 L1264,2570 Z M1268,2570 L1268,2576 L1266,2576 L1266,2570 L1268,2570 Z M1272,2570 L1272,2576 L1270,2576 L1270,2570 L1272,2570 Z M1276,2570 L1276,2576 L1274,2576 L1274,2570 L1276,2570 Z M1280,2570 L1280,2576 L1278,2576 L1278,2570 L1280,2570 Z"></path>
        </g>
    </g>
</svg>