<?xml version="1.0" encoding="UTF-8"?>
<svg width="183px" height="119px" viewBox="0 0 183 119" version="1.1" xmlns="http://www.w3.org/2000/svg" xmlns:xlink="http://www.w3.org/1999/xlink">
    <!-- Generator: Sketch 59.1 (86144) - https://sketch.com -->
    <title>image-from-rawpixel-id-478765-original copy</title>
    <desc>Created with Sketch.</desc>
    <g id="Products-Page" stroke="none" stroke-width="1" fill="none" fill-rule="evenodd">
        <g id="Products-Page-Small-Business" transform="translate(-979.000000, -941.000000)">
            <g id="image-from-rawpixel-id-478765-original-copy" transform="translate(979.000000, 941.000000)">
                <path d="M41.3061902,37.7317073 C41.3061902,37.7317073 31.9789064,24.2378544 31.9273177,19.0891378 C31.8755313,13.9406177 35.9482746,9.72577935 41.0243299,9.67525162 C46.1001875,9.6249205 50.2569354,13.7577742 50.3087218,18.9064909 C50.3605082,24.0552075 41.3061902,37.7317073 41.3061902,37.7317073 Z" id="Fill-4" fill="#0C7DBA"></path>
                <path d="M44.5038599,18.8230807 C44.5256367,21.2274468 42.8107599,23.1956675 40.6736262,23.219301 C38.5364924,23.2427391 36.7862063,21.3128008 36.7644295,18.9084348 C36.7428298,16.5040687 38.4575295,14.5360434 40.5946632,14.5124099 C42.731797,14.4887764 44.4820831,16.41891 44.5038599,18.8230807" id="Fill-5" fill="#FFFFFF"></path>
                <path d="M33.4835814,20.0239398 C33.4397835,15.3989814 36.8934539,11.6128545 41.1976149,11.5675178 C43.7135849,11.5410883 45.9627155,12.798929 47.4065041,14.7719924 C46.0369983,12.2758283 43.498647,10.6121932 40.6087544,10.6426888 C36.3045935,10.6880255 32.850923,14.4739491 32.8947209,19.0989074 C32.9128575,21.0207383 33.5323959,22.7843989 34.5588499,24.1869919 C33.8883747,22.965136 33.4980521,21.543839 33.4835814,20.0239398" id="Fill-6" fill="#FFFFFF"></path>
                <path d="M39.6666667,34.237705 C40.8762953,36.323717 41.7591139,37.7317073 41.7591139,37.7317073 C41.7591139,37.7317073 50.357914,24.2482232 50.3087329,19.17217 C50.3061049,18.9056521 50.290337,18.642623 50.266685,18.3821138 C49.9357453,19.7959191 49.4621431,21.1738655 48.8772264,22.4903674 C47.2602586,26.1287741 44.8393119,28.4743262 42.2653784,31.4389754 C41.4356828,32.3947573 40.5716356,33.3402662 39.6666667,34.237705" id="Fill-7" fill="#084E75"></path>
                <path d="M113.995214,18.0425791 C114.048916,18.0883095 114.10397,18.1360026 114.141252,18.1935091 C114.488961,18.7287314 114.355093,19.2194009 114.544594,19.8290087 C114.62901,20.1008396 115.3252,20.2947522 114.951993,20.7540189 C114.814455,20.923398 114.419226,21.2908113 114.122321,21.6491964 C113.689424,22.1720538 113.45163,23.1005968 113.396769,23.8731069 C113.18119,26.9085848 113.784658,29.9197255 114.473894,32.8790515 C114.513107,33.0478418 114.556571,33.2233053 114.668031,33.3546084 C114.867384,33.5897373 115.211809,33.6109342 115.517213,33.6207476 C116.933353,33.6660854 118.345437,33.8454742 119.728932,34.1557736 C120.963298,34.4327075 122.20597,34.829561 123.202156,35.6199315 C124.198728,36.4104982 124.914622,37.6624905 124.790992,38.9407828 C124.69827,39.8979809 124.121653,40.7937472 123.295651,41.263416 C121.246681,42.4282655 118.542472,40.2846285 116.751386,39.3529452 C115.056499,38.4713102 113.422654,37.469363 111.865885,36.3557395 C111.673679,36.2181557 111.477417,36.0737026 111.353787,35.8705655 C111.222237,35.6538858 111.186307,35.3930459 111.154048,35.1406455 C110.737956,31.8902543 110.606793,28.6210214 110.540148,25.3319655 C110.521797,24.4283485 110.973432,23.6295385 110.949093,22.7940265 C110.933446,22.2607668 110.543819,21.8537074 110.419416,21.3540096 C110.296559,20.8594147 110.259084,20.1783654 110.324376,19.6731721 C110.453028,18.6767204 111.347992,18.1760412 112.087646,17.6604457 C112.271738,17.5320865 112.395754,17.4447474 112.6038,17.4204102 C112.94185,17.3807641 113.225619,17.5524984 113.513252,17.7126529 C113.683629,17.8074503 113.847245,17.9165752 113.995214,18.0425791" id="Fill-8" fill="#AA6755"></path>
                <path d="M117.381577,39.3442975 C117.693207,37.5167318 118.004837,35.6893544 118.316468,33.8617886 C118.296356,33.9791915 126.994666,34.7192257 127.511121,34.7804712 C129.481069,35.0137694 131.521115,35.2700583 133.210088,36.276369 C136.816681,38.4252381 135.913617,43.7394632 131.57071,44.322332 C126.855643,44.9551393 121.494276,43.9036012 117.352288,41.6625811 C117.262275,41.6139616 117.168747,41.5610078 117.115637,41.475641 C117.042806,41.3582381 117.063503,41.2103067 117.086348,41.0753781 C117.184758,40.4983513 117.283167,39.9213244 117.381577,39.3442975" id="Fill-9" fill="#FFAC15"></path>
                <path d="M118.844821,114.162602 C118.228471,114.097723 117.659341,113.887726 117.065041,113.752922 C117.630427,108.11746 119.11316,102.333559 120.238524,96.7479675 C121.760781,97.0353022 123.282829,97.3228317 124.804878,97.6103612 C123.266188,100.46676 122.017888,103.460301 121.080154,106.536633 C120.931631,107.024225 118.932811,114.171749 118.844821,114.162602" id="Fill-10" fill="#AA6755"></path>
                <path d="M117.127296,113.230589 C116.751981,113.137807 116.499299,113.240165 116.207646,113.386323 C116.038415,113.471255 115.90858,113.603285 115.714144,113.656034 C115.519708,113.70894 115.340311,113.703759 115.123213,113.69638 C113.979686,113.657918 111.390178,113.340639 112.49685,114.888097 C113.501858,116.293322 116.937732,116.151088 118.93292,116.016076 C119.064026,116.007128 119.20064,116.007599 119.307812,115.944959 C119.415196,115.882477 119.498435,115.785614 119.559223,115.682628 C119.897049,115.109611 120.345437,114.39703 119.404606,114.039091 C119.003451,113.886496 118.573278,114.051493 118.148824,113.887909 C117.801255,113.753996 117.503035,113.32337 117.127296,113.230589" id="Fill-11" fill="#3B455A"></path>
                <path d="M117.065041,101.434513 C119.97726,101.807226 122.889672,102.180133 125.801891,102.552846 C129.792073,91.6274057 135.878327,82.7194792 136.952429,69.4878929 C137.02522,68.5883225 137.487452,67.7288455 137.36002,66.8353086 C137.118863,65.1455488 135.532908,63.9670766 133.930734,63.4131654 C131.441166,62.5525207 126.640242,62.5281922 124.937088,65.0168997 C123.137007,67.6469072 122.632876,72.7449916 121.840284,75.8282875 C119.6776,84.2420537 118.08006,92.8033478 117.065041,101.434513" id="Fill-12" fill="#3B455A"></path>
                <path d="M142.10778,114.999393 C141.599761,115.116974 141.08861,115.084591 140.578678,115.130081 C139.453693,109.669721 139.015987,103.803996 138.349593,98.2283679 C139.639566,98.0573943 140.929539,97.8864208 142.219512,97.7154472 C141.794684,100.845979 141.639094,104.021231 141.753437,107.184339 C141.771537,107.685694 142.18018,114.982624 142.10778,114.999393" id="Fill-13" fill="#AA6755"></path>
                <path d="M140.723164,114.162602 C140.323327,114.161073 140.124478,114.352199 139.907008,114.604855 C139.780507,114.751564 139.712012,114.942114 139.548267,115.058828 C139.384094,115.17535 139.209647,115.220343 138.997956,115.273605 C137.883848,115.55318 135.263073,115.919281 136.985071,117.405413 C138.548888,118.754834 141.786329,117.614037 143.643817,116.890487 C143.766037,116.842802 143.897461,116.804538 143.973875,116.701284 C144.050076,116.598029 144.088604,116.461895 144.102945,116.324799 C144.183212,115.562217 144.309499,114.605816 143.253826,114.456607 C142.803688,114.392962 142.461001,114.706956 141.984107,114.63735 C141.593046,114.580243 141.123215,114.163957 140.723164,114.162602" id="Fill-14" fill="#3B455A"></path>
                <path d="M135.843086,102.552846 C138.794203,101.986499 141.745122,101.420152 144.696239,100.853805 C145.106501,89.1707974 145.220188,77.4776279 145.037498,65.7891488 C145.023262,64.8827591 144.999141,63.9419743 144.591252,63.1301712 C143.819762,61.594898 141.902702,60.9730498 140.168531,60.9517482 C137.473654,60.9189165 132.796274,62.4154953 131.930276,65.3279414 C131.015046,68.4061096 132.144205,73.4281884 132.352994,76.6197041 C132.92222,85.3287057 134.088549,93.9995991 135.843086,102.552846" id="Fill-15" fill="#3B455A"></path>
                <path d="M140.089619,39.4164266 C142.389542,41.6638182 144.11255,44.5508028 145.150129,47.5412539 C146.98769,52.8370301 147.023169,58.4912573 147.039965,64.0321365 C147.045626,65.8761253 147.051099,67.7203079 147.056911,69.5644904 C147.062611,71.3786406 146.905974,71.7692554 144.985566,71.5299651 C141.426696,71.086842 137.727041,70.3335134 134.502204,68.7098267 C132.967727,67.9371223 131.533648,66.9611665 129.924815,66.3527684 C127.584506,65.4678786 125.185317,65.868375 122.869919,65.2927219 C123.457025,63.4700464 124.335325,61.805477 124.743713,59.8932856 C125.15248,57.9791566 125.345351,56.0227886 125.474057,54.0683581 C125.699011,50.6524158 126.113061,47.2568181 126.36236,43.8536639 C126.541077,41.41639 126.228369,39.420108 128.753623,37.821416 C130.128066,36.9510579 132.628787,35.4616451 134.568444,35.8644667 C136.626618,36.2918954 138.804062,38.1601039 140.089619,39.4164266" id="Fill-16" fill="#FFAC15"></path>
                <path d="M131.00519,30.8717393 C131.440279,31.8576795 132.151434,32.6793943 132.73212,33.5812621 C133.297112,34.4586332 133.500191,35.2525199 133.650137,36.2698158 C133.758294,37.0047145 134.011671,37.5789155 134.865776,37.7047301 C136.476229,37.9420534 136.015802,36.5627954 136.381496,35.5594136 C136.799756,34.4125796 137.69149,33.5062044 138.31472,32.4826374 C140.115583,29.5246208 139.601645,23.6779621 135.858671,22.4303979 C131.766075,21.0662298 129.684229,27.8798194 131.00519,30.8717393" id="Fill-17" fill="#AA6755"></path>
                <path d="M137.297769,27.8701831 C137.798737,27.8898937 138.349434,27.9287178 138.720778,28.2572285 C139.092122,28.5859384 139.051971,29.3024902 138.561601,29.3799391 C138.11709,29.4500214 137.541527,28.9970747 137.270051,29.3277756 C137.111486,29.5210992 137.250689,29.8038176 137.371141,30.0299923 C137.833385,30.8972608 137.971569,31.9031011 137.755937,32.8271124 C137.938755,32.9927615 138.22409,32.8209404 138.384694,32.648522 C139.18241,31.7928011 139.805256,30.7931328 140.213286,29.714821 C140.373481,29.9756387 140.608679,30.1978314 140.885658,30.3503401 C140.719552,29.9449777 140.824515,29.5013885 140.927236,29.087664 C141.304082,27.567555 141.560884,25.7864292 140.47396,24.5442602 C139.892487,23.8796729 139.008355,23.4972066 138.119128,23.336535 C137.230104,23.1758634 136.323553,23.2148865 135.4276,23.2545069 C135.044027,23.2714301 134.571797,23.3520646 134.479675,23.6986933 C135.320599,24.0280005 136.190464,24.6694924 136.611334,25.4473662 C136.740754,25.6862831 137.246817,27.8681921 137.297769,27.8701831" id="Fill-18" fill="#2A3444"></path>
                <path d="M136.332956,24.499855 C136.362144,24.5209466 136.390943,24.5422317 136.419158,24.5635168 C136.783038,24.8390619 137.12415,25.1740117 137.564698,25.2961107 C138.199444,25.4721964 138.881474,25.1680132 139.506491,25.3829926 C140.204867,25.6233206 140.664095,26.4540194 141.17411,26.9457049 C142.010255,27.7518291 143.04702,28.3447155 144.160063,28.6814069 C144.72826,28.8534291 145.317278,28.9590805 145.910577,28.9925561 C146.179497,29.0076492 146.53929,29.0583464 146.801595,28.9881056 C147.15341,28.8938707 147.14154,28.7348131 146.766569,28.6152296 C145.590674,28.2406121 145.222124,26.598371 145.310856,25.5095421 C145.381103,24.6503986 145.679017,23.752168 145.349579,22.9547513 C145.097783,22.3456108 144.557217,22.0311721 144.034554,21.6826772 C143.45799,21.2981911 142.833167,21.401714 142.178768,21.2169208 C141.495959,21.024194 140.939826,20.4895514 140.243396,20.3531333 C139.507659,20.2091687 138.7727,20.5332825 138.036963,20.6755056 C137.428875,20.7929606 136.796659,20.7852205 136.191685,20.652866 C135.649757,20.5344435 135.120672,20.3161747 134.565902,20.3212057 C133.747465,20.3287522 132.994799,20.8366918 132.51728,21.4976904 C131.84167,22.4326862 131.40482,24.0323571 131.642801,25.2634091 C131.606024,25.0724238 132.252251,24.3802715 132.385349,24.2314694 C132.665945,23.9172242 133.004917,23.622716 133.4334,23.5720188 C134.403421,23.4570793 135.553047,23.9367678 136.332956,24.499855 L144.034554,24.6707317" id="Fill-19" fill="#3B455A"></path>
                <path d="M45.5869034,112.751905 C45.6661792,112.524555 45.796641,112.316603 45.9880681,112.166264 C46.0887754,112.087118 46.2036317,112.025819 46.3016341,111.943569 C46.76314,111.556763 46.7184043,111.179268 47.3850701,111.275291 C48.1437042,111.384698 48.8985929,111.527277 49.654314,111.65298 C49.6842765,111.658023 49.7156955,111.663649 49.7389997,111.682659 C49.7722913,111.709817 49.7791577,111.75618 49.7837353,111.79808 C49.8103687,112.043472 49.8372101,112.288669 49.8640515,112.53406 C49.936669,113.197295 50.5692108,113.400979 51.0854399,113.671006 C51.2181904,113.740259 51.3559348,113.810288 51.4959679,113.88245 C52.0816933,114.183903 53.8619657,114.862269 52.961842,115.711342 C52.5898075,116.062261 51.9564334,116.051979 51.4689184,116.090194 C50.9980492,116.12744 50.5265559,116.014734 50.0640096,115.947227 C48.5819058,115.661681 47.2181956,115.229483 45.8844478,114.538896 C45.4067122,114.291565 45.4501995,113.613393 45.5022177,113.132504 C45.5163667,113.004086 45.5440404,112.875086 45.5869034,112.751905" id="Fill-20" fill="#3B455A"></path>
                <polyline id="Fill-21" fill="#3B455A" points="48.8552574 70.6260163 47.3420452 76.1218322 48.6453703 91.87844 46.4390244 112.775121 50.5884811 113.195122 56.3227997 93.2669585 60.9512195 71.4350499 48.8552574 70.6260163"></polyline>
                <path d="M65.7929467,115.06885 C65.8103262,114.843297 65.880843,114.624533 66.0216769,114.445963 C66.0959893,114.351997 66.1878809,114.271062 66.2587972,114.174711 C66.5928033,113.721585 66.4575628,113.384447 67.102602,113.331225 C67.8365363,113.270477 68.5754648,113.241297 69.3109972,113.196333 C69.339963,113.194498 69.370527,113.193029 69.3968959,113.205509 C69.4348511,113.223311 69.4528299,113.264421 69.4674127,113.302044 C69.5531116,113.521541 69.6390103,113.741222 69.724909,113.960719 C69.9568354,114.554426 70.596481,114.607282 71.1446345,114.745477 C71.2854683,114.780898 71.4312963,114.815951 71.5795215,114.852473 C72.2001894,115.004983 74.0272345,115.249991 73.3987757,116.220661 C73.139082,116.621849 72.5465809,116.747014 72.1015058,116.885576 C71.6718127,117.019733 71.2047635,117.016246 70.7570916,117.052401 C69.305204,117.105073 67.9274291,116.997527 66.5134968,116.646625 C66.0068943,116.520909 65.8792449,115.889029 65.8085283,115.43627 C65.7897505,115.315326 65.7835578,115.191079 65.7929467,115.06885" id="Fill-22" fill="#3B455A"></path>
                <polyline id="Fill-23" fill="#3B455A" points="58.0799697 72.7787982 56.1138211 76.850828 62.9506297 93.8867702 65.8269328 115.130081 69.8962424 114.532613 70.6260163 93.3872995 69.8438553 70.6260163 58.0799697 72.7787982"></polyline>
                <path d="M43.8903954,70.0796622 C44.053238,69.0571994 44.2214766,68.2056022 44.2686913,67.8993705 C44.9075353,63.7453471 46.7458259,59.7742826 47.9300481,55.7624521 C49.3383956,50.9914792 50.9803115,46.291115 52.8484726,41.684766 C53.5406982,39.9774754 54.4192773,38.1233107 56.1118768,37.4357523 C58.0575085,36.6457915 59.9328,35.047535 61.8745775,36.2022431 C62.2711812,36.4380611 62.7575891,36.5500209 63.1728859,36.7604821 C65.6405775,38.0095954 66.8831918,40.0451585 67.4274137,42.7774475 C67.8656434,44.9758791 68.3034876,47.1743107 68.7413318,49.3727423 C69.1011272,51.1779489 69.4609227,52.9839358 69.7405494,54.8045516 C70.473052,59.5700631 70.6516971,64.4067686 70.6231756,69.2284551 C70.6091075,71.6457351 70.542236,74.062625 70.4670779,76.4789297 C70.4188996,78.0231567 69.7328409,77.2825441 68.8864448,76.6997286 C67.4276064,75.6952106 65.9847632,74.6483662 64.2715435,74.1326486 C63.4397936,73.8822018 62.5752825,73.7638052 61.7128912,73.6653039 C56.4676252,73.0661041 51.113669,73.1770887 45.9670721,74.3645655 C45.6612364,74.4349793 45.3496192,74.5122199 45.0856023,74.6834756 C44.7327445,74.9124667 44.2243673,75.4705106 43.8044454,75.0903542 C43.5433191,74.8541461 43.5596997,74.1652223 43.5458243,73.8521638 C43.4905157,72.5962237 43.6934426,71.315512 43.8903954,70.0796622" id="Fill-24" fill="#DB5A28"></path>
                <path d="M65.0999021,26.6858265 C65.4400143,27.6458599 65.5494199,28.7145839 65.4936281,29.7596707 C65.4788843,30.0376602 65.4656484,30.3590855 65.6333589,30.5463648 C65.8129649,30.7469778 65.6070546,31.1077984 65.776273,30.8936496 C65.9458265,30.6795007 66.5226768,29.9338182 66.5717669,29.6418889 C66.6868689,28.9574206 66.7483572,28.2598206 66.7555615,27.5614125 C66.7617606,26.9541187 66.7176968,26.3126822 66.4382352,25.8120588 C66.2722001,25.5150787 66.0356295,25.2906265 65.8024097,25.0724371 C65.463973,24.7558604 65.1146459,24.4356473 64.7070139,24.285541 C64.0040038,24.0267442 63.5357212,24.2841268 64.1139119,24.9815248 C64.5280781,25.4809361 64.867185,26.0282279 65.0999021,26.6858265" id="Fill-25" fill="#3B455A"></path>
                <path d="M59.2399027,37.0511779 C60.3730305,37.2779584 61.5061583,37.5047388 62.6392862,37.7317073 C62.9222281,36.7768225 63.1346288,35.7989964 63.2739621,34.8106398 C64.2901044,34.7480213 65.4980486,34.5552767 65.9535539,33.5633473 C66.0969682,33.2510071 66.140109,32.8991777 66.1811123,32.5550582 C66.3505665,31.131945 66.5200207,29.70902 66.6894749,28.2859069 C66.748162,27.7937971 66.8058775,27.2862677 66.6855883,26.8110818 C66.4741592,25.9771089 65.7635009,25.4178676 65.0475958,25.0376437 C63.2209105,24.0669632 60.9886623,23.8608675 59.1017353,24.7655447 C58.5995912,25.0062404 58.1145479,25.3328719 57.7874936,25.8116307 C57.2832118,26.5497013 57.2278283,27.521134 57.1918776,28.4307003 C57.1586474,29.2703145 57.1256116,30.1099287 57.0923815,30.9495429 C57.0542932,31.9151462 57.0776126,33.0338169 57.7773885,33.6203245 C58.148944,33.9315365 58.6623592,34.0360887 58.9695921,34.4206376 C59.5113792,35.0987224 59.1108687,36.1602279 59.2399027,37.0511779" id="Fill-26" fill="#EFC9AF"></path>
                <path d="M62.9967548,33.6815018 C62.4498724,33.9546103 61.8866082,33.9145781 61.3378209,33.6941342 C61.1046673,33.6003699 61.2513407,33.2262022 61.4850658,33.3201445 C61.9397535,33.5028692 62.3841551,33.5446806 62.8394142,33.3174756 C63.0685677,33.2030725 63.2245749,33.5678103 62.9967548,33.6815018 Z M66.7538811,32.1464004 C66.7668341,31.8949982 66.736547,31.150933 66.2879548,31.5706484 C66.1704255,31.6804256 66.1252806,31.8478491 66.100327,32.0074442 C66.075564,32.1670392 66.0641349,32.3326835 65.9936554,32.4780449 C65.8315527,32.8118245 65.4100094,32.9281847 65.0513261,32.8851279 C64.9086528,32.8682254 64.7655986,32.8310399 64.6471169,32.7495522 C64.5322545,32.6707332 64.4471077,32.5552626 64.3640562,32.4421049 C64.1623326,32.1670392 63.9607995,31.8919735 63.7592663,31.6169078 C63.4127741,31.144172 62.6049272,31.2505687 62.0629973,31.2619556 C61.438778,31.2752997 60.8023676,31.3886353 60.2549137,31.7218811 C60.199673,31.7555082 60.1451943,31.7912703 60.0909061,31.8268545 C59.958138,31.9138578 59.824989,31.9997936 59.6766012,32.050501 C59.1756256,32.2216609 58.6135044,31.9318278 58.3277769,31.4864918 C58.1967232,31.2822386 58.0822417,31.024965 57.8487071,30.9690979 C57.6660319,30.9255072 57.4705943,31.0333273 57.3564938,31.1884743 C57.2422028,31.3437993 57.1938196,31.537733 57.1589609,31.7277525 C57.0317169,32.4189752 57.0498129,33.1470274 57.2959196,33.7967945 C57.829849,35.2061058 59.1422907,35.5067921 60.4838766,35.6139005 C61.0139964,35.6562457 61.5443067,35.6985909 62.0746169,35.740936 C63.0441856,35.8183316 64.0707093,35.884874 64.9471308,35.4343783 C65.7199285,35.0369031 66.2397621,34.2796718 66.5115842,33.4589227 C66.6521621,33.0351152 66.7308324,32.5910247 66.7538811,32.1464004 L66.7538811,32.1464004 Z" id="Fill-27" fill="#000000"></path>
                <path d="M67.1777681,23.9140971 C67.3090632,23.5744939 67.4165384,23.2253566 67.4994316,22.8703082 C67.1592839,22.951157 66.7995085,22.9431484 66.4635531,22.8470451 C66.4850863,22.6393933 66.50681,22.4317414 66.5283431,22.2238989 C66.5454935,22.0509511 64.2627877,21.6779786 64.0779455,21.6419399 C62.3472891,21.3046248 60.7650781,20.9905729 59.0832047,21.7712217 C57.6463902,22.4378432 56.650148,23.5598115 56.2724601,25.1207278 C55.9113509,26.6120455 56.184803,28.6416563 56.9091176,29.9918699 C56.9478011,29.5883885 56.8222227,28.6132448 56.9569479,28.2406537 C57.0556575,27.8632956 57.2258266,27.5076752 57.442111,27.185996 C57.8746798,26.5434003 58.4922814,26.0304678 59.1784842,25.6914367 C60.2724832,25.1510461 61.4996829,24.9363391 62.7064927,24.8983935 C63.8123064,24.8634989 65.1547942,24.8667404 66.1988667,25.2784212 C66.700799,25.4761576 66.7722586,25.617643 67.1428958,25.1209185 C67.2080669,25.0332051 67.7639274,23.9875094 67.7212422,23.9821703 C67.5400206,23.9594793 67.3589896,23.9367882 67.1777681,23.9140971" id="Fill-28" fill="#000000"></path>
                <path d="M175.617951,113.178732 C176.426553,113.247332 177.185227,113.080307 177.976733,113.050108 C178.096396,111.139936 177.946072,109.298178 177.502426,107.390244 C176.202424,108.275704 175.21745,107.693351 175.114882,109.447681 C175.081507,110.015495 175.848321,112.321607 175.617951,113.178732" id="Fill-29" fill="#E2B596"></path>
                <path d="M177.573142,112.245477 C178.266006,112.039033 178.327287,113.685139 178.310919,114.070406 C178.300938,114.30205 178.260616,114.536315 178.306527,114.763524 C178.356631,115.013514 178.505943,115.229635 178.651662,115.437893 C178.957073,115.873965 179.262484,116.310238 179.567695,116.74631 C179.70503,116.94227 179.844561,117.143068 179.911033,117.373705 C180.075915,117.944852 179.714412,118.590593 179.174254,118.828688 C177.300069,119.654261 175.761835,117.307981 175.450436,115.799371 C175.402728,115.56813 175.371588,115.333865 175.340249,115.099801 C175.275973,114.615344 174.975352,113.550265 175.189939,113.093024 C175.440256,112.559578 176.083415,112.99323 176.530952,112.812189 C176.946151,112.644453 177.293082,112.329546 177.573142,112.245477" id="Fill-30" fill="#3B455A"></path>
                <path d="M167.318696,79.7207028 C168.759918,84.3171926 170.469004,88.8295268 171.315639,93.6046285 C172.36107,99.5034895 174.263147,105.304396 175.069342,111.203062 C175.808271,111.267199 176.552405,111.277306 177.293136,111.233381 C178.142174,111.183044 179.493907,111.035528 179.850459,110.158211 C180.032839,109.70964 179.911119,108.957293 179.915123,108.481124 C179.927535,106.956411 179.904312,105.431115 179.877486,103.906596 C179.802011,99.5928926 179.832041,95.2323495 179.264881,90.9528524 C178.668293,86.450819 178.108941,81.9355695 177.615254,77.4397555 C177.360002,75.1162445 177.013861,72.8020626 176.555809,70.5077048 C176.437892,69.916672 175.205276,63.8228733 174.891767,63.8536585 C171.171096,64.2209118 167.652425,65.2169799 164.333351,66.8895968 C164.010632,67.0520774 163.696923,67.2495418 163.569797,67.5636191 C163.442472,67.877502 163.524953,68.1587333 163.608636,68.4545412 C164.407023,71.2759891 165.535337,73.9427306 166.397787,76.7569873 C166.697883,77.7361465 167.003385,78.7153057 167.318696,79.7207028" id="Fill-31" fill="#3B455A"></path>
                <path d="M164.471545,112.043767 C163.816185,112.221096 163.14775,112.152744 162.483444,112.227642 C161.942778,110.305904 161.642051,108.417283 161.569106,106.422764 C162.853216,107.147676 163.536562,106.42546 164.027451,108.191626 C164.186187,108.763276 164.082504,111.204872 164.471545,112.043767" id="Fill-32" fill="#E2B596"></path>
                <path d="M161.172666,111.05609 C161.113882,112.226914 160.254386,113.435703 159.761472,114.459726 C159.703601,114.580162 159.644268,114.70566 159.635323,114.842969 C159.622179,115.047352 159.721492,115.236127 159.816971,115.408449 C159.949692,115.648056 160.094098,115.899896 160.317735,116.018433 C160.53772,116.134862 160.792758,116.100482 161.031547,116.055977 C161.43099,115.981733 161.827694,115.886397 162.219469,115.770179 C162.317139,115.741283 162.417,115.709856 162.498604,115.641728 C162.595727,115.561156 162.657615,115.437345 162.716764,115.317542 C163.019815,114.702074 163.273574,114.267998 163.293291,113.561834 C163.313738,112.832047 163.271201,112.072097 163.421814,111.357707 C163.495751,111.011375 163.593238,110.56844 163.342947,110.359206 C163.149616,110.19743 162.771898,110.378189 162.551364,110.404976 C162.162328,110.452644 161.807247,110.401812 161.440665,110.612312 C161.365998,110.65534 161.292791,110.70807 161.24423,110.786322 C161.194939,110.86605 161.177413,110.958433 161.172666,111.05609" id="Fill-33" fill="#3B455A"></path>
                <path d="M166.830572,77.2796144 C166.294024,82.0819803 165.472772,86.850352 165.56706,91.7201202 C165.683391,97.7361184 164.922957,103.812095 165.2795,109.783744 C164.551924,109.982435 163.809042,110.128766 163.058609,110.221176 C162.198376,110.327261 160.815881,110.429439 160.285863,109.628426 C160.014833,109.218933 159.988302,108.453868 159.890339,107.984591 C159.577064,106.481422 159.299707,104.971024 159.025616,103.461017 C158.250488,99.188101 157.360459,94.8882242 157.084123,90.5590421 C156.793705,86.0047949 156.463081,81.4441004 156.071028,76.9148604 C155.867959,74.5739488 155.75816,72.2258086 155.764487,69.8764961 C155.765915,69.2712429 155.798365,63.028812 156.118172,63.001851 C159.916054,62.6824227 163.635975,63.0208018 167.289159,64.063877 C167.644273,64.1650782 167.997346,64.3028133 168.18674,64.5894197 C168.37593,64.8762214 168.34899,65.1686888 168.323479,65.4761997 C168.08041,68.4081026 167.476716,71.248182 167.168135,74.1847738 C167.06058,75.2063584 166.947923,76.2293106 166.830572,77.2796144" id="Fill-34" fill="#3B455A"></path>
                <path d="M170.969351,38.4196785 C171.0271,38.4428167 171.084456,38.4667328 171.141616,38.4920099 C172.093886,38.9119986 172.884302,39.616452 173.65704,40.3094334 C174.817914,41.3500722 175.392458,41.8101155 175.780202,43.2769651 C176.141428,44.6448452 176.334711,46.0788345 176.523869,47.4782138 C177.495192,54.6627437 177.356712,61.7553038 177.936364,68.9713328 C178.093897,70.935558 178.170896,73.2386908 176.637992,74.495935 C174.167942,72.3606032 170.92653,72.0636945 167.792955,71.8853937 C165.592401,71.7603693 163.481024,70.934197 161.261024,71.0537771 C159.139433,71.1681074 157.327998,70.5433741 155.180479,70.5614569 C154.662701,70.5657346 154.005658,70.5233469 153.829268,70.0415264 C154.695308,67.885973 154.817485,65.5225641 155.11723,63.2217645 C155.892128,57.2707572 158.219769,51.648741 159.365912,45.758982 C159.75562,43.7570356 160.093275,40.4167639 161.758766,38.978108 C163.56863,37.4148165 167.482799,37.6001171 169.668425,38.0481051 C170.110971,38.1387138 170.550375,38.2528496 170.969351,38.4196785" id="Fill-35" fill="#0C7DBA"></path>
                <path d="M169.409719,40.0456386 C169.37273,40.113433 169.324796,40.1775628 169.261763,40.2374173 C169.013598,40.4731708 168.680319,40.5951193 168.35459,40.6254537 C167.924876,40.6651532 167.495917,40.5623418 167.077527,40.4495548 C166.512501,40.2970683 166.551566,39.937534 166.498159,39.3731915 C166.469096,39.0647575 166.456829,38.7548985 166.451734,38.4450394 C166.448714,38.275248 166.541187,37.6732419 166.447582,37.5486468 C166.383795,37.4641583 166.106566,37.4743376 165.989183,37.3988069 C165.802917,37.2790979 165.653074,37.0702179 165.548146,36.8700921 C165.378676,36.5469999 165.295262,36.181358 165.213736,35.8208059 C165.071819,35.1933514 164.930091,34.5661006 164.788174,33.9388497 C164.643426,33.2979585 164.497735,32.6515705 164.4749,31.9923566 C164.440742,30.9986495 164.66192,29.6124272 165.391509,28.9318366 C166.056933,28.3111005 166.989395,28.136423 167.839575,28.0714789 C168.965474,27.9857688 170.112321,28.2771015 171.044217,28.9760149 C171.420523,29.2581862 171.772484,29.6158881 171.978566,30.0908561 C172.29618,30.8227505 172.22258,31.7081494 172.140864,32.5351189 C172.065565,33.2981621 171.990266,34.0614089 171.914967,34.8246558 C171.828156,35.7025219 171.673407,36.7108872 171.037045,37.1508383 C170.699049,37.3845559 170.271789,37.4128544 169.977009,37.7208812 C169.607497,38.1066782 169.598061,38.7190672 169.556354,39.2343453 C169.532575,39.5289354 169.538237,39.8094779 169.409719,40.0456386" id="Fill-36" fill="#E2B596"></path>
                <path d="M164.418772,33.738724 C164.443633,33.9057299 164.465338,34.0766196 164.477374,34.2529467 C164.578596,35.7526984 164.342608,37.1949689 164.648051,38.699187 C163.275137,38.0400963 162.044685,36.9996109 161.085737,35.6870612 C160.920979,35.461409 160.761352,35.2219692 160.679466,34.9401953 C160.601626,34.6716266 160.599159,34.3803373 160.602514,34.0950679 C160.623824,32.2714026 160.847973,30.4459895 161.267858,28.6790284 C161.434589,27.9777979 161.635652,27.2763732 161.980163,26.6652482 C163.018234,24.8227461 165.102663,24.2067663 166.978729,24.1875412 C168.064747,24.176278 169.20187,24.3339626 170.080314,25.055195 C171.028212,25.8335201 171.285116,27.1783058 171.238747,28.3267625 C171.2275,28.6085364 171.206387,28.9019618 171.062348,29.1456739 C170.762825,29.651158 170.074592,29.7494196 169.480676,29.7783543 C168.64643,29.8191348 167.804687,29.8323399 166.988595,30.0082787 C166.172699,30.1844116 165.370024,30.5403672 164.820306,31.1592599 C164.048807,32.0276905 164.282033,32.8219394 164.418772,33.738724" id="Fill-37" fill="#3B455A"></path>
                <path d="M174.641228,26.6157754 C174.891346,27.1086382 175.087467,27.6370722 175.240392,28.1892839 C175.780545,30.140191 176.28753,31.9862863 175.996144,34.0541793 C175.955647,34.3419837 175.902229,34.6309295 175.793851,34.8953367 C175.647676,35.2510501 175.409129,35.5439905 175.167304,35.8213328 C174.200389,36.9303215 173.115839,37.8996879 171.947788,38.699187 C172.440888,36.2080522 172.925503,33.5375389 172.137546,31.1835534 C171.525654,29.3549585 170.245562,28.0580314 168.844363,27.0614634 C168.06142,26.5046863 165.953645,25.3774364 166.493991,24.1343419 C167.238558,22.421972 171.317769,23.5119386 172.448216,24.2016801 C173.445601,24.8103875 174.148707,25.6443166 174.641228,26.6157754" id="Fill-38" fill="#3B455A"></path>
                <path d="M41.353407,35.8419078 C41.2952284,35.8531248 41.2350506,35.8652923 41.1844692,35.8909583 C40.712043,36.1305073 40.6164782,36.5244324 40.2324195,36.8767216 C40.0608826,37.0337593 39.4649019,36.9012469 39.5598669,37.3651355 C39.595054,37.536432 39.7433994,37.9448061 39.8219705,38.3090727 C39.9363284,38.8404533 39.7435993,39.5796332 39.4766975,40.1397217 C39.1180295,40.8924 38.7201759,41.6812007 38.2511485,42.3690487 C37.265711,43.8141377 36.0015761,45.3193042 34.743439,46.5613469 C32.4940666,44.6768945 29.0969166,44.1346772 26.3239368,45.2172107 C26.0340435,45.3305212 25.7413512,45.4666459 25.5426243,45.6968791 C25.3742862,45.8913701 25.2873182,46.1381436 25.2333381,46.3849172 C24.6645474,48.99334 27.2879821,49.3944896 29.3876096,49.8017229 C30.6979275,50.0559111 32.0452318,50.2350025 33.3815401,50.3026846 C35.2530515,50.3975536 36.4831989,49.4036153 37.5851935,48.0186036 C38.7533637,46.5508904 39.9091384,45.044203 40.725638,43.3671697 C41.1226919,42.5521326 41.3298157,41.7245477 41.608913,40.8754794 C41.8846116,40.0364875 42.2620727,40.2001793 42.701711,39.524689 C42.9470207,39.1476845 43.2721011,38.8075629 43.4400393,38.3923445 C43.7409286,37.6476512 43.2735006,36.9539096 42.9274279,36.3095988 C42.8412596,36.1491389 42.7834809,36.0405814 42.6383343,35.9434309 C42.4020212,35.7856328 42.1223241,35.7962794 41.8440265,35.79723 C41.6792871,35.7979905 41.513948,35.8109185 41.353407,35.8419078" id="Fill-39" fill="#E2B596"></path>
                <path d="M29.6956384,51.9859115 C29.8433486,52.0351213 29.9906574,52.0776116 30.1359593,52.1104182 C30.9333135,52.2906564 31.8839974,52.2262291 32.6998154,52.2388774 C34.1636718,52.2618025 35.7579788,52.2434229 36.9035358,51.3455914 C37.3452616,50.9995419 37.6848345,50.5459819 38.0165804,50.0963744 C39.5890119,47.9645434 41.1070555,45.7941746 42.5691057,43.587442 C41.6093907,42.5765664 40.4931349,41.710158 39.2707124,41.0273476 C38.9277277,40.8356468 38.5427981,40.6528394 38.1546574,40.7228003 C37.5784671,40.8267535 37.25796,41.4222116 37.0207406,41.9496851 C36.6342055,42.8087812 36.247871,43.6680749 35.8617372,44.527171 C35.736304,44.8060264 35.5861854,45.1093879 35.3003983,45.2265823 C35.1135529,45.303065 34.9024236,45.2840925 34.7017303,45.2607722 C33.0700944,45.0712454 31.4595312,44.740611 29.8806776,44.2947585 C29.1523618,44.089026 28.3002184,43.9285508 27.6742562,43.5070067 C27.0336434,43.0759765 26.5792739,42.4471189 26.1871193,41.7988937 C25.7572344,41.0886127 25.378727,40.3372248 24.8151804,39.7243753 C24.2516338,39.1113281 23.4518713,38.6421553 22.6145791,38.7048039 C21.9974474,38.7510493 21.4417279,39.0741738 20.9114964,39.3889978 C19.8721061,40.0063928 18.7428053,40.7394012 18.4520008,41.8998824 C18.2027398,42.8941572 18.6557045,43.9323057 19.2495557,44.7728246 C20.5129196,46.5605824 22.3988339,47.8101947 24.2395922,49.0175142 C25.5198143,49.8570449 26.8078635,50.7015164 28.2032835,51.3473701 C28.6723036,51.5645651 29.1866804,51.8157524 29.6956384,51.9859115" id="Fill-40" fill="#0C7DBA"></path>
                <polyline id="Fill-41" fill="#3B455A" points="10.7369038 113.779457 10.6422764 115.331272 13.7727713 117.065041 15.4796748 115.604294 13.9618361 113.961411 10.8313412 112.227642 10.7369038 113.779457"></polyline>
                <polyline id="Fill-42" fill="#979797" points="8.99043707 64.2352341 8.70731707 69.1976239 13.9185238 91.0900214 11.0348595 113.324208 14.1518027 114.162602 23.0075938 87.4880478 23.2195122 79.443011 21.1810857 62.8861789 8.99043707 64.2352341"></polyline>
                <polyline id="Fill-43" fill="#979797" points="29.6045343 66.4214574 31.9268293 87.3848496 30.6083612 114.83232 27.5354057 115.130081 23.1233596 90.3496328 16.4471545 65.7886179 29.6045343 66.4214574"></polyline>
                <polyline id="Fill-44" fill="#3B455A" points="27.0894309 114.446842 27.2422608 115.898061 30.5183209 117.065041 31.9268293 115.471615 30.2124765 114.162602 27.0894309 114.446842"></polyline>
                <path d="M5.02681476,65.9618016 C4.80957897,67.871525 4.63384203,70.4559992 5.36309188,70.6175045 C5.49966792,70.6477868 5.63858193,70.591687 5.76541646,70.536946 C7.10487483,69.9588654 8.09695076,69.0639859 9.41595195,68.5076465 C10.7984678,67.9247131 12.3407445,67.6882785 13.8434707,67.5611319 C16.0918125,67.3594443 18.3750289,67.3151856 20.6317483,67.4807674 C22.4056783,67.6110199 24.1716202,67.922966 25.9219757,68.2294768 C27.3783322,68.4845466 28.7039577,69.0420507 30.2084373,69.0744682 C31.7503244,69.1080505 33.3023426,68.7774692 34.685443,68.0945655 C34.7360988,68.0695244 34.789872,68.040795 34.8146155,67.9901305 C34.841502,67.934613 34.8261104,67.8690015 34.8103292,67.8094075 C34.5757535,66.9265633 34.4282669,66.0600248 33.9246306,65.300639 C33.3623503,64.4527358 33.0032781,63.4078038 32.6268659,62.4667244 C31.8424791,60.5051718 31.1219966,58.458596 30.6364795,56.4007613 C29.8754723,53.5946055 28.9638613,50.8455201 28.2371442,48.0333466 C27.7335079,46.0842175 27.2922172,44.1067473 26.5382239,42.2335179 C25.9476933,40.7669637 24.8541108,38.6035294 23.3673607,37.8462788 C22.8643088,37.5898502 22.2895594,37.5188034 21.728643,37.4514448 C20.0264105,37.2476219 18.3245678,37.043799 16.6225302,36.839782 C16.0019957,36.7654352 15.3561332,36.6936119 14.7654077,36.8974348 C13.8804885,37.2027809 13.3187927,38.0485488 12.8229496,38.8399639 C10.5991564,42.3891998 9.03135692,46.2911462 7.98005258,50.3664392 C7.4312156,52.4943501 6.90829105,54.628861 6.4566744,56.7779307 C5.95264839,59.1764407 5.53590636,61.5937802 5.27191129,64.0287842 C5.24268675,64.2993834 5.12988,65.0543045 5.02681476,65.9618016" id="Fill-45" fill="#0C7DBA"></path>
                <path d="M18.9913284,46.4254288 C18.9679322,47.3976589 18.747095,48.3519786 18.5273991,49.2985111 C17.188871,55.0623915 15.8505331,60.8262719 14.5121951,66.590347 C18.989236,66.9680255 23.4664672,67.3458987 27.9436983,67.7235772 C27.9766052,65.5201929 28.0097022,63.3168087 28.0427992,61.1136191 C28.0639129,59.7010235 28.0848363,58.283561 27.9182098,56.8799207 C27.649439,54.6157964 26.8992393,52.4383045 26.1539852,50.2810592 C24.7768438,46.2953828 23.3998927,42.3097063 22.0229415,38.3240298 C21.9493291,38.1108556 21.8713418,37.8904782 21.7149868,37.7273367 C21.5280076,37.532073 21.2563836,37.4471926 20.9957919,37.3753558 C19.7373434,37.0286314 18.3103662,36.7013749 17.0079785,36.7745744 C16.5799995,37.9418736 17.5797585,40.1341612 17.9198591,41.2890009 C18.4146029,42.9694756 19.0341263,44.649561 18.9913284,46.4254288" id="Fill-46" fill="#FFFFFF"></path>
                <path d="M20.0215724,38.699187 C19.1234577,38.565732 18.225158,38.4320735 17.3270433,38.2986185 C17.3440622,37.5039916 17.4186122,36.7109921 17.5503234,35.9293851 C17.5344144,36.024187 16.1605117,35.0428044 16.0487792,34.8401806 C15.7263458,34.2569253 15.7596436,33.3349464 15.6608602,32.6695023 C15.4497894,31.2521531 15.2731263,29.6622888 16.0404547,28.5000503 C16.8351614,27.2965139 18.3620489,27.0102773 19.7117182,27.1067067 C21.4063894,27.227752 23.2488657,27.9589065 23.9860412,29.6415382 C24.6516265,31.1612165 23.4849099,33.1868439 23.0757173,34.6821097 C22.8738959,35.4193673 22.58994,36.2554955 21.9289793,36.5089786 C21.5778729,36.6436543 21.1707153,36.584454 20.8501318,36.7913499 C20.2848097,37.1563168 20.3301317,38.0630379 20.0215724,38.699187" id="Fill-47" fill="#FDAE70"></path>
                <path d="M28.341755,26.8456538 C28.5367594,25.8324979 28.7315697,24.819342 28.9265742,23.8063887 C28.9990211,23.4300505 29.0712737,23.0393312 28.9852309,22.6662338 C28.8420852,22.0458227 28.2887308,21.6139858 27.7149826,21.3919908 C27.1412343,21.1699958 26.5222311,21.1047747 25.9389657,20.9115418 C25.3162721,20.7053458 24.7246549,20.3512881 24.0720503,20.3194877 C22.8313245,20.2587227 21.7805534,21.3642414 20.540993,21.4515406 C18.8251866,21.572463 17.3426476,20.6166288 16.139602,22.5955438 C15.9187653,22.9591214 15.8284494,23.3931864 15.6285893,23.7699296 C15.3704608,24.2564551 14.946462,24.6192224 14.602485,25.0441727 C13.0906176,26.9129004 13.2580418,29.9829531 14.7312579,31.8285902 C15.4456269,32.7234567 15.7020073,33.4957805 16.7619071,33.8617886 C16.3579138,32.7635617 17.3789681,28.6384252 18.7776009,28.2975333 C19.1483813,28.207601 20.1880815,28.7688675 20.5811981,28.8675094 C21.4517261,29.0858585 22.296616,29.3151453 23.0950856,29.7524511 C24.2804564,30.4016243 25.5846946,30.9059742 26.9091324,31.1364763 C27.0783046,31.1660486 27.2684534,31.1907597 27.4075203,31.0856362 C27.5382355,30.9867917 27.5794117,30.8059144 27.6112651,30.6406335 C27.8546322,29.3757078 28.0981936,28.110782 28.341755,26.8456538" id="Fill-48" fill="#000000"></path>
                <polyline id="Fill-49" fill="#3B455A" points="26.6357432 90.9430894 0 81.0499053 13.0311178 45.4715447 39.6666667 55.3647289 26.6357432 90.9430894"></polyline>
                <polyline id="Fill-50" fill="#2C3545" points="26.1995393 89.0081301 3.29522873 79.5450364 2.90243902 79.3969616 25.8569011 88.0496539 37.7317073 55.1463415 26.1995393 89.0081301"></polyline>
                <polyline id="Fill-51" fill="#FFFFFF" points="25.7452281 88.0406504 1.93495935 79.1900733 13.9214386 46.4390244 37.7317073 55.2896015 25.7452281 88.0406504"></polyline>
                <polyline id="Fill-52" fill="#384156" points="7.7398374 60.9512195 13.2278608 46.4390244 20.3170732 49.0046644 20.2697798 49.1305578 13.3144655 46.613278 7.95315632 60.8764275 7.7398374 60.9512195"></polyline>
                <path d="M8.70731707,60.9512195 L14.0202487,47.4065041 L20.9128021,49.7969886 L20.6134096,50.5604116 L29.9918699,53.8130472 L16.7050915,58.269013 C15.7440297,57.9356429 14.7829679,57.6024588 13.8219061,57.2690887 C13.8001537,57.2614657 13.7776102,57.257933 13.7550668,57.257933 C13.6741873,57.257933 13.5962741,57.304787 13.5672049,57.3786007 C13.2747337,58.1243605 12.9822624,58.8699343 12.6897911,59.6156941 L8.70731707,60.9512195 M13.1772432,59.4522628 C13.40861,58.8621253 13.6401744,58.2719878 13.8715412,57.6820362 C14.6227909,57.9425223 15.3738429,58.2030083 16.1250927,58.4636802 L13.1772432,59.4522628" id="Fill-53" fill="#F2F2F2"></path>
                <polyline id="Fill-54" fill="#343D4F" points="30.8944359 53.2113821 30.6601907 53.1297818 30.8598946 53.0624381 20.3170732 49.3874222 20.3351378 49.3414634 30.9593496 53.0448049 30.8944359 53.2113821"></polyline>
                <polyline id="Fill-55" fill="#E0E0E0" points="30.5740363 54.1788618 29.0243902 53.6999157 30.6592376 53.2113821 30.9593496 53.3040607 30.5740363 54.1788618"></polyline>
                <polyline id="Fill-56" fill="#31394C" points="30.7586573 53.2113821 20.3170732 49.4661931 20.3643536 49.3414634 30.9593496 53.141743 30.7586573 53.2113821"></polyline>
                <polyline id="Fill-57" fill="#D5D5D5" points="29.6890901 54.1788618 20.3170732 51.044586 20.61626 50.3089431 30.9593496 53.7680413 29.6890901 54.1788618"></polyline>
                <path d="M28.5553157,49.2133097 L25.7319425,48.2621869 C25.4431975,48.1648984 25.2936188,47.8710214 25.3997456,47.6089643 C25.5054719,47.3469072 25.8280573,47.2121298 26.1168023,47.3092354 L28.9401755,48.260541 C29.2289205,48.3578295 29.3784992,48.6517065 29.2725726,48.9137636 C29.1666461,49.1756378 28.8440607,49.3105981 28.5553157,49.2133097 Z M30.321626,49.7628432 L30.1554274,49.706884 L30.1964764,49.6052066 C30.5835389,48.6462203 29.9141391,47.5376438 28.7010898,47.1289225 L27.1029805,46.5905443 C25.8899313,46.1820058 24.5925813,46.6280332 24.2055188,47.5868367 L24.1644698,47.688697 L23.998071,47.6325549 C22.7848215,47.2238337 21.4876717,47.669861 21.100409,48.6288474 L20.3170732,50.5685819 L31.0336767,54.1788618 L31.8170125,52.2391273 C32.2042752,51.2803238 31.5346752,50.1715645 30.321626,49.7628432 L30.321626,49.7628432 Z" id="Fill-58" fill="#E4EAE9"></path>
                <path d="M16.0349328,61.9186992 C16.0146621,61.9186992 15.9931245,61.9148698 15.9705009,61.9064815 C14.8789601,61.5007436 13.7874193,61.0950057 12.6958785,60.6894502 C12.6035744,60.6551676 12.5541646,60.5475787 12.5878284,60.4551252 C12.7203119,60.0933347 12.8527954,59.7313618 12.9852789,59.3695712 L13.4314152,59.209282 C13.2848146,59.6099139 13.138214,60.0105459 12.9916135,60.4111778 C13.9693126,60.7746096 14.9470117,61.1380413 15.9250728,61.501473 C16.2834298,60.5220491 16.6419677,59.5428076 17.0003247,58.5633838 C16.7100194,58.4554301 16.419714,58.3474765 16.1294087,58.2397052 L16.6602476,58.0487805 C16.8721849,58.1275575 17.0841223,58.2063344 17.2960597,58.2851114 C17.3885447,58.319394 17.4377736,58.4269829 17.4039287,58.5192541 C17.0037635,59.6124669 16.6037792,60.7058621 16.2036139,61.7990749 C16.1849721,61.849587 16.1525752,61.8811342 16.1147486,61.8980932 L16.1102239,61.9002814 L16.1024414,61.9037462 C16.0819897,61.9130462 16.0593662,61.9186992 16.0349328,61.9186992" id="Fill-59" fill="#C8CDCF"></path>
                <path d="M12.5772358,59.9837398 C12.8591176,59.0656984 13.1409994,58.1478859 13.4228811,57.2298445 C13.4508978,57.1389788 13.52599,57.0813008 13.6039411,57.0813008 C13.6256683,57.0813008 13.6473955,57.0856496 13.6683604,57.0950337 C14.5946251,57.5054172 15.5208898,57.9155718 16.4471545,58.3259553 L15.8881556,58.5655936 C15.1641063,58.2447026 14.4402476,57.9240404 13.7161983,57.6033782 C13.4932086,58.3296174 13.2700284,59.0560854 13.0470388,59.7825535 L12.5772358,59.9837398" id="Fill-60" fill="#C2C6C8"></path>
                <path d="M13.1324473,68.6910569 C13.1121769,68.6910569 13.0906396,68.6872465 13.0680164,68.6788999 C11.9764914,68.2751786 10.8847854,67.8716386 9.79344142,67.4679173 C9.70095771,67.4338051 9.6515486,67.3267509 9.68557392,67.2349383 C10.0855524,66.1471587 10.4857119,65.0591977 10.8858713,63.9715996 C10.9124762,63.8993834 10.9839656,63.8536585 11.0579888,63.8536585 C11.0784402,63.8536585 11.0990725,63.8572875 11.118981,63.8645454 C12.2105059,64.2682668 13.3020309,64.6718067 14.3933749,65.075528 C14.4858586,65.1096402 14.5352677,65.2166944 14.5016044,65.3086885 C14.1012639,66.3962866 13.7011045,67.4842476 13.300945,68.5720272 C13.2826654,68.6222882 13.249907,68.6536787 13.212262,68.6707348 L13.2079183,68.6729121 L13.2001359,68.6761782 C13.1796846,68.6856135 13.1568804,68.6910569 13.1324473,68.6910569 M11.1645894,64.267541 C10.8060566,65.2420971 10.4477049,66.2164718 10.0889911,67.1910279 C11.0668571,67.5526534 12.044723,67.9142789 13.022408,68.2759043 C13.3807597,67.3013482 13.7394734,66.3269735 14.0978252,65.3524174 C13.1201403,64.9907919 12.1422743,64.6291664 11.1645894,64.267541" id="Fill-61" fill="#C8CDCF"></path>
                <path d="M11.1975689,75.4634146 C11.1772984,75.4634146 11.1555801,75.4596042 11.1329567,75.4512576 C10.0416087,75.0477177 8.95007964,74.6439964 7.85855059,74.240275 C7.76624752,74.2061628 7.71665724,74.0992901 7.7505017,74.007296 C8.15066266,72.9195165 8.55082361,71.8317369 8.95098457,70.7439573 C8.97758957,70.6717411 9.0490792,70.6260163 9.12292166,70.6260163 C9.14337312,70.6260163 9.16418656,70.6296452 9.18409507,70.6369031 C10.2756241,71.0406245 11.3669722,71.4443458 12.4586822,71.8478858 C12.5509853,71.8821794 12.6003946,71.9890521 12.5665501,72.0810462 C12.1663892,73.1688257 11.7662282,74.2566053 11.3660672,75.3443849 C11.3476066,75.3948274 11.3150291,75.4262178 11.2772029,75.4430925 L11.2728592,75.4452699 L11.2650768,75.4485359 C11.2448064,75.4579712 11.2220021,75.4634146 11.1975689,75.4634146 M9.22970364,71.0400801 C8.87098857,72.0144548 8.51263548,72.989011 8.1541014,73.9633857 C9.13197098,74.3251926 10.1098406,74.6866366 11.0875292,75.0482621 C11.4460632,74.0737059 11.8044163,73.0993312 12.1629504,72.1247751 C11.1850808,71.7631496 10.2073922,71.4017056 9.22970364,71.0400801" id="Fill-62" fill="#C8CDCF"></path>
                <polyline id="Fill-63" fill="#EBB044" points="14.5121951 59.4578325 15.478403 59.4967948 15.6409214 60.7420887 20.8413021 59.0162602 21.2845528 59.3439428 15.0639294 61.9186992 14.5121951 59.4578325"></polyline>
                <polyline id="Fill-64" fill="#EBB044" points="11.6097561 66.2301902 12.575964 66.2691525 12.7384824 67.5144464 17.9388631 65.7886179 18.3821138 66.1163005 12.1614904 68.6910569 11.6097561 66.2301902"></polyline>
                <polyline id="Fill-65" fill="#EBB044" points="8.70731707 71.0673388 9.67352499 71.1063011 9.83604336 72.3515951 15.0364241 70.6260163 15.4796748 70.9534491 9.2590514 73.5284553 8.70731707 71.0673388"></polyline>
                <polyline id="Fill-66" fill="#DADDDE" points="26.4204963 80.300813 13.5447154 75.4002878 14.2136501 73.5284553 27.0894309 78.4289805 26.4204963 80.300813"></polyline>
                <polyline id="Fill-67" fill="#DADDDE" points="29.3227336 73.5284553 16.4471545 68.6277794 17.1162908 66.7560976 29.9918699 71.6567734 29.3227336 73.5284553"></polyline>
                <polyline id="Fill-68" fill="#DADDDE" points="31.2579046 66.7560976 18.3821138 61.8555723 19.0512402 59.9837398 31.9268293 64.8844732 31.2579046 66.7560976"></polyline>
                <path d="M7.8983602,55.1782605 C7.82281465,55.4113613 7.82317698,55.7374523 8.02064616,55.8389908 C8.13876534,55.8998722 8.2748198,55.8485817 8.40235953,55.8225195 C8.88498147,55.7241084 9.40818424,56.0549948 9.59442123,56.5768653 C9.81399247,57.1911005 9.56036232,57.9304345 9.11650957,58.355562 C8.67283797,58.780481 8.08187973,58.9435265 7.50704511,59.0019059 C7.14598448,59.0386016 6.74271254,59.0227557 6.47821253,58.7377389 C6.34215808,58.5911648 6.26117759,58.3907982 6.19070464,58.1923081 C5.82891935,57.1733782 5.52746181,55.8442033 6.22711869,54.9174295 C6.77767727,54.1883119 8.4101496,53.6013899 7.8983602,55.1782605" id="Fill-69" fill="#E2B596"></path>
                <path d="M3.68159344,55.3430916 C4.52188049,54.6119664 5.60868082,53.9093875 6.72701423,54.2819801 C6.39026479,56.5073104 6.71075189,58.8421391 7.6309624,60.8682847 C7.70394461,61.0286976 7.78148821,61.2148874 7.71386067,61.3778568 C7.58693509,61.6839835 6.66850947,61.902128 6.39244632,61.915123 C5.17534894,61.9730676 3.9203722,61.3214033 3.39224276,60.3572213 C3.08266332,59.7914089 3.01463914,59.1612608 2.95573774,58.5464509 C2.86470829,57.5967551 2.82325916,56.4229498 3.40691853,55.6398449 C3.48644535,55.533116 3.57747479,55.4338431 3.68159344,55.3430916 Z" id="Fill-70" fill="#0C7DBA"></path>
                <polygon id="Fill-71" fill="#FEBA40" points="53.2113821 111.260163 100.617886 111.260163 100.617886 65.7886179 53.2113821 65.7886179"></polygon>
                <polyline id="Fill-72" fill="#CF7F00" points="100.617886 110.292683 112.227642 98.6552526 112.227642 53.2113821 100.617886 64.8488124 100.617886 110.292683"></polyline>
                <polyline id="Fill-73" fill="#FAB952" points="100.527032 65.7886179 112.227642 54.1788618 64.9119924 54.1788618 53.2113821 65.7886179 100.527032 65.7886179"></polyline>
                <polyline id="Fill-74" fill="#0C7DBA" points="85.1994194 54.1788618 73.5284553 65.5477498 73.5284553 74.495935 80.2312384 74.495935 80.2312384 65.5477498 80.2394104 65.5477498 91.9105691 54.1788618 85.1994194 54.1788618"></polyline>
                <polyline id="Fill-75" fill="#FFFFFF" points="87.0730686 77.398374 80.300813 85.5785671 84.4107237 85.5785671 84.4107237 98.6829268 89.7354135 98.6829268 89.7354135 85.5785671 93.8455285 85.5785671 87.0730686 77.398374"></polyline>
                <polyline id="Fill-76" fill="#FFFFFF" points="60.9512195 85.5785671 65.0613344 85.5785671 65.0613344 98.6829268 70.3860242 98.6829268 70.3860242 85.5785671 74.495935 85.5785671 67.7236793 77.398374 60.9512195 85.5785671"></polyline>
                <polygon id="Fill-77" fill="#FFFFFF" points="59.9837398 102.552846 94.8130081 102.552846 94.8130081 101.585366 59.9837398 101.585366"></polygon>
                <polygon id="Fill-78" fill="#FFFFFF" points="59.9837398 104.487805 94.8130081 104.487805 94.8130081 103.520325 59.9837398 103.520325"></polygon>
                <polygon id="Fill-79" fill="#FFFFFF" points="59.9837398 106.422764 94.8130081 106.422764 94.8130081 105.455285 59.9837398 105.455285"></polygon>
                <path d="M111.260163,66.7560976 C111.260163,56.6040107 119.489996,48.3739837 129.642276,48.3739837 C139.794363,48.3739837 148.02439,56.6040107 148.02439,66.7560976 C148.02439,76.9081844 139.794363,85.1382114 129.642276,85.1382114 C119.489996,85.1382114 111.260163,76.9081844 111.260163,66.7560976" id="Fill-80" fill="#2F3BFF"></path>
                <path d="M149.95935,65.7886179 C149.956877,63.0063825 148.910262,60.3819365 147.05801,58.0693463 C147.057735,58.0624319 147.057185,58.0556949 147.056911,58.0487805 C148.911911,60.3642074 149.95935,62.9923765 149.95935,65.7786896 C149.95935,65.7820581 149.95935,65.7852493 149.95935,65.7886179" id="Fill-81" fill="#77A4AA"></path>
                <path d="M147.056911,58.0487805 C145.50827,54.8775771 143.16555,52.2114591 140.306356,50.3449912 C140.299153,50.3330438 140.29195,50.3210965 140.284553,50.3089431 C143.152701,52.175823 145.503598,54.8468847 147.056132,58.0248857 C147.056327,58.0329193 147.056716,58.0407469 147.056911,58.0487805" id="Fill-82" fill="#C59439"></path>
                <path d="M131.05787,85.1382114 C124.367762,85.1382114 118.489147,81.6769557 115.130081,76.454693 C118.00718,78.2170855 121.393673,79.2341472 125.019064,79.2341472 C135.457986,79.2341472 143.920543,70.8075166 143.920543,60.4124688 C143.920543,56.6943254 142.837557,53.2279241 140.968914,50.3089431 C143.887948,52.1022096 146.2797,54.6637643 147.860753,57.7105955 C149.200524,60.2921393 149.957561,63.2218075 149.95935,66.327616 C149.953188,76.7173202 141.493016,85.1382114 131.05787,85.1382114" id="Fill-83" fill="#084E75"></path>
                <path d="M134.479675,49.2071347 C134.805692,49.2880439 135.128057,49.3773364 135.447154,49.4757921 L134.479675,49.2071347" id="Fill-84" fill="#95B84C"></path>
                <path d="M136.65703,49.9754494 C136.161197,49.9117831 135.642763,49.9094888 135.069498,49.9980098 C135.301988,49.8393221 135.45115,49.7095041 135.535263,49.6049232 C135.209031,49.5083723 134.879458,49.4208073 134.546151,49.3414634 C134.521979,49.3487286 134.498003,49.3563762 134.474616,49.3644062 C134.023001,49.5183141 133.956772,49.5343741 134.030862,49.8117907 C133.855365,49.7431535 133.687336,49.6636185 133.533063,49.5712738 L131.369123,49.5712738 C132.739887,51.0461132 130.082864,50.9489887 129.112422,50.9516654 C128.93496,50.9522389 128.89369,50.6063763 128.994704,50.515561 C129.042852,50.4721609 130.212964,50.515561 129.904026,50.515561 C130.816887,50.515561 130.702312,50.455145 130.702312,49.5712738 C129.824041,50.2012447 129.854698,49.5712738 128.858708,49.5712738 C127.924427,49.5712738 127.46613,49.6213655 126.646815,49.9796555 C126.9135,50.2008623 127.180382,50.4220691 127.447263,50.6430847 C127.111205,50.568903 126.015379,50.1507706 125.715875,50.2748529 C125.576538,50.3327834 125.540378,50.6941325 125.368025,50.6941325 C124.671932,50.6941325 122.778018,51.0644674 122.778018,50.288045 C122.778018,50.2846035 122.765637,50.2813533 122.743822,50.2784855 C121.025405,50.9937271 119.440035,51.9523537 118.03252,53.1098178 C118.932999,52.9654693 119.879072,53.0163259 120.065575,53.0163259 C120.148705,53.0163259 120.72079,54.4535009 120.726097,54.5640087 C120.757148,55.1911118 120.31752,55.438894 119.991878,56.0350243 C119.398568,57.1202186 119.1366,58.5415248 119.202829,59.7603609 C119.205384,59.8043346 119.950018,60.4562924 119.950018,60.7147812 C119.950018,61.7967253 120.066558,61.8141236 120.830255,62.6111946 L120.830255,61.2843362 C121.285997,62.4460064 121.836465,62.8931998 122.247792,64.0298242 C122.714736,65.3197829 124.55952,64.3290365 125.186239,65.1786847 C125.462554,65.5528435 125.97745,65.3813461 126.2235,65.7465189 L126.8909,66.7376477 C127.293187,67.3351164 127.783714,67.1280577 128.502604,67.1280577 C129.193194,67.1280577 127.874116,69.4491039 127.874116,69.6446912 C127.874116,70.4494098 129.003351,72.2813921 128.996276,72.6037384 C128.975248,73.5591147 130.201762,73.6931389 130.867787,74.2816216 C131.400763,74.7561551 131.020683,76.100603 131.003979,76.6967333 C130.96546,78.0859197 131.877927,79.0841225 132.112578,80.3958769 C132.199835,80.8849409 132.006651,81.412434 132.11867,81.8812318 C132.233638,82.3626481 132.658329,82.6622428 132.65204,83.1945157 C132.64241,84.0164414 135.018009,84.1707317 135.478271,84.1707317 C135.475913,84.1693934 133.743738,83.2956552 133.743738,83.4004273 C133.743738,82.6203722 134.156442,82.6746702 134.156638,82.1987983 C134.156835,81.6336408 133.629361,81.1682844 133.958737,80.3685367 C134.315038,79.5037845 134.274553,79.5299775 135.23792,79.5299775 C135.218464,79.1324936 135.156362,78.7413189 135.051221,78.3562623 C135.912002,77.0511995 137.914399,75.7952726 138.444231,75.4432919 C139.1643,74.9645522 138.761227,73.6726816 139.072719,72.9843977 C139.346283,72.3794726 140.176209,71.8204331 140.216104,71.0761306 C140.246565,70.5082963 139.730686,70.3696836 139.304226,70.3836405 C138.878945,70.3975974 138.836496,69.7054897 138.51498,69.7054897 C137.620594,69.7054897 136.692405,69.5573174 135.917898,68.9990427 C135.789371,68.906698 135.645711,67.7964578 135.426585,67.5211442 C135.112537,67.1271017 134.109079,67.8192094 133.71878,67.2831127 C133.571386,67.0804513 133.22275,66.2858658 132.984758,66.2858658 C132.660687,66.2858658 130.875058,65.9480331 130.499498,66.2786006 C130.55708,66.2277441 129.89027,66.0308184 129.795348,66.0308184 C129.836225,66.0308184 127.500718,67.2077839 127.500718,66.5965495 C127.500718,65.8042583 127.897699,64.780436 126.931777,64.780436 C125.379227,64.780436 126.700074,64.3877318 126.700074,63.6958153 C126.700074,62.8081202 125.196655,63.9393913 124.404461,63.9401561 C124.425293,63.9401561 123.512629,62.4836709 123.950095,62.4836709 C124.264339,62.4836709 124.313274,61.8609651 124.546549,61.5959758 C125.159708,60.8985148 126.206992,60.8252891 126.944158,60.9566366 C127.242484,61.0097874 128.324552,62.2309177 128.327697,62.4827149 C128.326911,62.4226813 128.768699,62.1479413 128.828443,62.0588467 C129.041673,61.7407066 128.921007,61.6034322 128.974461,61.2847186 C129.1533,60.2150107 129.198697,60.0035546 130.075789,59.3533175 C130.720393,58.8757249 131.621068,58.3272009 132.126924,57.7090837 C132.512704,57.2372269 132.873917,56.9923125 133.434407,56.724073 C133.377022,56.7516043 133.966991,57.0737594 134.090606,57.0737594 C134.597837,57.0737594 134.720076,56.6569653 134.997767,56.2828065 L134.117333,56.2828065 C135.111358,55.5432837 133.312365,55.1599478 135.304739,55.1599478 C136.283239,55.1599478 136.37364,55.1729487 136.972257,54.4965186 C136.020288,54.4965186 136.251795,54.4904005 136.251795,53.5472604 C136.251795,53.3902934 135.982752,52.8144292 135.725893,53.0599172 C135.023708,53.7315675 135.04906,52.936982 134.741694,52.4903622 C134.34432,51.9129685 133.915305,52.5073782 133.749634,52.857447 C133.543872,53.2916394 131.854737,53.9703638 131.858667,54.5374333 C131.860633,54.8693391 131.302697,54.8559558 131.313113,54.485812 C131.328442,53.9298315 129.354148,53.398897 129.321525,53.1818964 C129.278683,52.8954938 130.298846,52.1232775 131.186158,52.1232775 C131.593751,52.1232775 131.394081,51.663848 131.519858,51.663848 C132.365113,51.663848 133.361693,51.408227 133.824117,50.7451802 C133.70856,50.7451802 132.623151,50.7528278 132.623151,50.7396357 C132.623151,50.3628002 132.457677,50.1327987 132.901824,50.1327987 C133.944391,50.1327987 134.253525,50.9237516 135.398089,50.9237516 C134.988923,51.213022 134.579757,51.5022925 134.170788,51.7913717 C134.745231,51.7913717 135.605619,52.7197902 136.047408,52.4316669 C136.862792,51.8999676 136.313307,51.4137715 136.991123,51.3042197 C137.063837,51.3785926 137.16151,51.4497152 137.323644,51.5057339 C137.535695,51.5785773 138.298999,51.7112631 138.428509,51.8995852 C138.584747,52.1267189 138.982121,53.471358 138.690281,53.5883663 C138.216458,53.7782179 136.829186,55.24063 137.890423,55.6056116 C138.71072,55.8876168 138.921002,55.5320035 139.6507,55.0878692 C140.329106,54.6748989 140.51384,54.8267037 141.277537,55.0892075 C141.284416,55.091693 142.07091,55.0639705 142.365305,55.1651099 C143.009711,55.3868903 142.962545,54.9909359 143.030347,55.0142611 C143.298997,55.1066058 143.817038,55.1731399 144.154472,55.0297474 C142.14048,52.7924424 139.571697,51.0399951 136.65703,49.9754494" id="Fill-85" fill="#FFFFFF"></path>
                <path d="M129.04881,61.9776911 C128.924204,62.1290666 128.799597,62.280442 128.674797,62.4318175 C129.837791,62.4318175 130.545641,62.8861789 131.577236,62.8861789 C130.884913,61.5724563 130.342234,61.9776911 129.04881,61.9776911" id="Fill-86" fill="#FFFFFF"></path>
                <path d="M133.258242,62.8904368 C132.244961,62.8544957 132.197763,63.0351927 131.577236,63.8511796 C132.111163,63.8511796 132.64509,63.8529147 133.179017,63.8536585 C133.642147,63.8541541 133.577882,62.9018388 133.258242,62.8904368" id="Fill-87" fill="#FFFFFF"></path>
                <path d="M134.479675,64.8211382 C134.479675,62.6443089 132.302846,64.8211382 134.479675,64.8211382" id="Fill-88" fill="#FFFFFF"></path>
                <path d="M114.467857,69.6779854 C114.467857,60.0512083 122.123441,52.2469726 131.567283,52.2469726 C137.087375,52.2469726 141.995306,54.9140581 145.121951,59.0522851 C142.169213,53.8268901 136.634984,50.3089431 130.294548,50.3089431 C120.850705,50.3089431 113.195122,58.1131788 113.195122,67.7401533 C113.195122,71.739992 114.517628,75.4243604 116.739686,78.3658537 C115.294593,75.8083338 114.467857,72.8415713 114.467857,69.6779854" id="Fill-89" fill="#489AFF"></path>
                <path d="M135.292895,51.2388926 C135.372412,51.2632628 135.451735,51.2884129 135.530472,51.3139529 C135.554054,51.2967963 135.577832,51.2794447 135.601414,51.262288 C135.490519,51.262288 135.389368,51.2529299 135.292895,51.2388926" id="Fill-90" fill="#A2C14B"></path>
                <path d="M134.479675,51.353942 C135.146905,51.353942 136.146266,52.5415186 136.659414,52.1729688 C137.365222,51.6659988 137.190824,51.1920442 137.382114,50.9249862 C136.872389,50.6975467 136.352165,50.4918729 135.822124,50.3089431 C135.374717,50.6571946 134.927082,51.0056906 134.479675,51.353942" id="Fill-91" fill="#F4F4F4"></path>
                <path d="M135.447154,51.3547974 C135.126857,51.2996232 134.804479,51.2473735 134.479675,51.1980481 C134.766002,51.2692092 135.08214,51.3253582 135.447154,51.3547974" id="Fill-92" fill="#A2C14B"></path>
                <path d="M142.219512,55.1463415 C141.359341,54.0181857 140.383048,53.0408399 139.317073,52.2439024 C139.431185,52.7458643 139.523496,53.4181671 139.368408,53.501324 C139.353255,53.5093779 139.336556,53.5204521 139.319393,53.5327344 C140.030042,53.9654323 140.707139,54.4754482 141.344807,55.0543252 C141.364444,55.0635872 141.383308,55.0724466 141.404027,55.0819099 C141.40913,55.0843261 141.963765,55.0585535 142.219512,55.1463415" id="Fill-93" fill="#F4F4F4"></path>
                <path d="M132.117075,52.1267836 C132.222637,51.9989334 132.143705,51.7621053 132.233366,51.7621053 C133.057364,51.7621053 134.02888,51.514731 134.479675,50.873075 C134.367024,50.873075 133.308912,50.8804758 133.308912,50.8677093 C133.308912,50.7159913 133.281516,50.5892513 133.279983,50.4924848 C133.008893,50.4530752 132.736079,50.4184761 132.460583,50.3918329 C132.506372,51.1322907 130.654532,51.0706784 129.886476,51.0728986 C129.713477,51.0734537 129.673244,50.738749 129.771718,50.6508636 C129.818656,50.6088636 130.95934,50.6508636 130.658172,50.6508636 C131.272961,50.6508636 131.40956,50.6225553 131.435423,50.3233748 C131.208398,50.3146788 130.980989,50.3089431 130.751856,50.3089431 C129.802946,50.3089431 128.873003,50.3855422 127.966816,50.5305994 C128.065673,50.611824 128.16453,50.6930486 128.263195,50.7742732 C128.134643,50.7461499 127.89229,50.6669605 127.627523,50.5881412 C125.258409,51.0153568 123.063253,51.919559 121.152597,53.19362 C121.332685,53.5348004 121.706847,54.4811876 121.711061,54.568703 C121.741332,55.1755749 121.312761,55.4153634 120.995308,55.9922617 C120.973659,56.0313014 120.955842,56.0738564 120.934959,56.1138211 C123.902769,53.6289766 127.77485,52.1253034 132.010938,52.1253034 C132.046381,52.1253034 132.081632,52.1265985 132.117075,52.1267836" id="Fill-94" fill="#F4F4F4"></path>
                <path d="M132.412579,81.8719099 C132.524327,82.3552864 132.937128,82.6561009 132.931015,83.190541 C132.921655,84.0158132 135.23074,84.1707317 135.678116,84.1707317 C135.675823,84.1693879 133.992147,83.2920923 133.992147,83.397291 C133.992147,82.6140598 134.393295,82.6685789 134.393486,82.1907695 C134.393678,81.6233108 133.880972,81.1560597 134.201126,80.3530558 C134.547451,79.4847827 134.5081,79.5110824 135.444495,79.5110824 C135.425583,79.11198 135.36522,78.7192127 135.263023,78.3325883 C136.099703,77.0222119 138.046036,75.7611714 138.561033,75.4077575 C139.260941,74.9270686 138.869153,73.629938 139.171925,72.9388517 C139.437828,72.3314637 140.244518,71.770148 140.283296,71.022815 C140.292083,70.8556105 140.25426,70.7260318 140.186829,70.6260163 C138.19064,73.9395831 135.174961,76.5630234 131.577236,78.0592253 C131.847915,78.8272909 132.261098,79.5398776 132.406657,80.3805073 C132.491471,80.8715625 132.303696,81.4012034 132.412579,81.8719099" id="Fill-95" fill="#F2F2F2"></path>
                <path d="M112.753633,16.6921402 L105.455285,15.4796748 L110.564148,19.1835102 C111.869311,20.1300059 113.561125,20.8723013 115.452506,21.3290985 L120.934959,22.2520325 L112.753633,16.6921402" id="Fill-96" fill="#0B73AB"></path>
                <path d="M75.6434367,5.70401539 C75.0265365,5.07644903 74.4575829,4.4070187 73.8715472,3.67213908 C73.1618596,2.78198936 73.6083261,1.43349803 74.7041101,1.15578075 L77.2743981,0.504825601 C80.5176858,-0.316730115 83.7636911,-0.12352694 86.6173883,0.996776308 L108.333906,10.3436432 C110.718425,11.3699982 112.872722,12.8780836 114.668294,14.7780786 L115.693226,15.8626108 C116.070781,16.2619891 116.195986,16.8453329 116.017593,17.3732513 C115.814354,17.9758565 115.258406,18.3815242 114.635877,18.3821138 L110.34514,18.2311677 C107.711182,17.4638582 104.482453,16.8518189 101.848301,16.0843129 C97.3512187,14.7739512 92.8539425,13.4635895 88.3566664,12.1532278 C87.0558961,11.7740936 85.7545434,11.3981041 84.4545495,11.0162182 C81.9025083,10.2664012 79.5490477,8.90022091 77.4335731,7.28659114 C76.7702792,6.78068578 76.1883199,6.25866377 75.6434367,5.70401539" id="Fill-97" fill="#0C7DBA"></path>
                <path d="M90.1046935,13.568366 L92.3869938,14.2278865 C92.7245029,14.3254331 92.9343967,14.7011474 92.864712,15.08344 L92.7238313,15.8576106 C92.6539787,16.2399032 92.329399,16.4953288 91.9841658,16.4395073 L89.6064898,16.0543955 C89.3663713,16.0154896 89.1598359,15.8339288 89.0837704,15.5766237 C88.865481,14.8406071 89.1635301,14.2045805 89.4221191,13.8267988 C89.5813025,13.5944912 89.8516456,13.495253 90.1046935,13.568366" id="Fill-98" fill="#353A85"></path>
                <path d="M89.030543,15.4830866 L88.9857171,15.476263 C88.9857171,15.476263 88.997216,15.4774327 89.0182646,15.4784075 C89.0223574,15.4799672 89.0264502,15.4815269 89.030543,15.4830866" id="Fill-99" fill="#87B9C1"></path>
                <path d="M90.9430894,16.4471545 L88.0535211,15.9840373 C88.0492309,15.9823052 88.0449406,15.9805731 88.0406504,15.978841 C88.054134,15.9794906 88.0714992,15.9799236 88.0919288,15.9799236 C88.3916316,15.9799236 89.3920711,15.8755653 89.6662369,14.5121951 L90.9430894,16.4471545" id="Fill-100" fill="#32377E"></path>
                <path d="M89.5499501,13.5196462 C89.3071724,14.1217072 89.1884456,14.7819975 89.2422187,15.4085534 C89.2446146,15.4330484 89.2499386,15.4556095 89.2528669,15.4796748 L88.8958878,15.4405688 C88.5437004,15.4018925 88.2444875,15.200346 88.1388047,14.9094144 C87.8369297,14.0770146 88.292138,13.3464624 88.6826587,12.9102798 C88.9230406,12.642339 89.3239433,12.5230871 89.6942325,12.6004397 L89.9756098,12.6590987 C89.8025774,12.9476668 89.6609571,13.2439702 89.5499501,13.5196462" id="Fill-101" fill="#F7F7F7"></path>
                <path d="M92.9029699,17.4260959 L95.2349334,17.9038378 C95.5798167,17.974457 95.8173767,18.3560839 95.7757616,18.7729193 L95.6915204,19.6173144 C95.6500738,20.0343521 95.3439414,20.3409082 94.9945092,20.3156148 L92.5872341,20.1417985 C92.3442826,20.1243966 92.1240762,19.950378 92.0290522,19.6822679 C91.7567848,18.9149671 92.0079919,18.2031094 92.2391496,17.7717051 C92.3813487,17.5066301 92.644518,17.373081 92.9029699,17.4260959" id="Fill-102" fill="#353A85"></path>
                <path d="M92.5085839,18.3485003 C92.3104271,18.963371 92.2538108,19.6277831 92.3825106,20.2469432 C92.3877637,20.2711777 92.3962269,20.2932676 92.4017718,20.3170732 L92.0077927,20.3020606 C91.6181912,20.287477 91.2685712,20.1071121 91.1206102,19.8248763 C90.6980311,19.0178451 91.1141898,18.2607842 91.4929934,17.8009715 C91.725587,17.5185213 92.1505007,17.3731141 92.5640329,17.4250146 L92.8780488,17.4642617 C92.7213327,17.7627968 92.5993451,18.0669079 92.5085839,18.3485003" id="Fill-103" fill="#F7F7F7"></path>
                <path d="M94.8130081,20.3170732 L91.9213044,20.1263605 C91.9176447,20.109661 91.9137409,20.0929616 91.9105691,20.0757781 C92.3765794,19.9886504 93.2539475,19.6551452 93.4488911,18.3821138 L94.8130081,20.3170732" id="Fill-104" fill="#32377E"></path>
                <path d="M92.0317939,20.3374467 L91.7893443,20.3212648 C91.7893443,20.3212648 91.7907086,20.3212648 91.7930473,20.3212648 C91.8119521,20.3212648 91.8992652,20.3199001 92.0232185,20.2966997 C92.0257522,20.3105419 92.0288705,20.3239943 92.0317939,20.3374467" id="Fill-105" fill="#EAEAEA"></path>
                <path d="M98.0025774,26.2513241 C99.2858746,28.1032963 101.418018,29.1464312 103.647528,29.0129681 L104.487805,28.9626491 L98.5645798,11.8895958 L86.1056911,8.70731707 L86.1872846,9.19851625 L98.0025774,26.2513241 Z" id="Fill-106" fill="#0C7DBA"></path>
                <path d="M77.3000944,0 C77.3000944,0 77.8810025,1.03678606 80.300813,1.55058988 L79.5855384,2.90243902 C79.5855384,2.90243902 76.5957308,2.14137999 75.4634146,0.423705523 L77.3000944,0" id="Fill-107" fill="#5D66D3"></path>
                <polygon id="Fill-108" fill="#0082C9" points="107.533447 14.1674778 119.008942 7.7398374 123.837398 9.81007654 115.893919 19.3495935 107.390244 14.4171937"></polygon>
                <path d="M90.9896069,9.67479675 C90.9616267,9.67479675 90.9334073,9.67071142 90.9061445,9.66216937 L90.1160021,9.41352153 C90.0009723,9.37712498 89.945251,9.27332054 89.992363,9.18288626 L90.6846942,7.8512554 C90.7208055,7.78217624 90.8066593,7.7398374 90.8965787,7.7398374 C90.9243197,7.7398374 90.9527783,7.74392273 90.9798019,7.75246477 L91.7697051,8.00111262 C91.8852133,8.03750917 91.9409346,8.14131361 91.8938225,8.23193359 L91.2012522,9.56337874 C91.1653801,9.63245791 91.0792871,9.67479675 90.9896069,9.67479675" id="Fill-109" fill="#F6F0E5"></path>
                <path d="M88.0872327,8.70731707 C88.0592544,8.70731707 88.0307979,8.70323175 88.0035371,8.694504 L87.2136894,8.44604185 C87.0984285,8.4096453 87.0429503,8.30584086 87.0898198,8.21522089 L87.7823415,6.88377573 C87.818211,6.81451087 87.9040588,6.77235772 87.9939718,6.77235772 C88.0219501,6.77235772 88.0501675,6.77644305 88.0774284,6.7849851 L88.867276,7.03363294 C88.982776,7.07002949 89.0384934,7.17383393 88.9913847,7.26426821 L88.2988631,8.59589907 C88.2629935,8.66497823 88.1771457,8.70731707 88.0872327,8.70731707" id="Fill-110" fill="#F6F0E5"></path>
                <path d="M85.1164253,7.7398374 C85.0719295,7.7398374 85.0266879,7.73333205 84.983435,7.71974734 L84.3950462,7.53625817 C84.211097,7.47885801 84.1223539,7.31488489 84.1974251,7.17157583 L84.8221066,5.9809052 C84.87928,5.87165357 85.0164962,5.80487805 85.1596782,5.80487805 C85.2041741,5.80487805 85.2494156,5.81119207 85.2929171,5.82477677 L85.881306,6.00845728 C86.0650066,6.06585744 86.1542468,6.22983056 86.0789271,6.37313962 L85.4542455,7.56381025 C85.3968235,7.67306188 85.259856,7.7398374 85.1164253,7.7398374" id="Fill-111" fill="#F6F0E5"></path>
                <path d="M108.357724,18.3821138 C107.870055,18.3778459 107.223229,18.0462834 106.8518,17.9417198 C106.031577,17.7112532 105.214048,17.4618478 104.40364,17.1718973 C103.782795,16.9499665 103.166377,16.704829 102.552846,16.4471545 C104.403832,17.122283 106.460549,17.7235234 108.357724,18.3821138" id="Fill-112" fill="#88BBC3"></path>
                <path d="M107.964819,17.4146341 C107.961886,17.4146341 107.958954,17.4146341 107.956022,17.4146341 C106.149466,16.9368927 104.190988,16.5007528 102.428413,16.0110146 C101.5704,15.7368309 100.717701,15.4431041 99.8635355,15.1542146 L99.6504065,14.5121951 C100.795219,14.8897057 101.942963,15.2575415 103.090341,15.6253772 C104.838988,16.1857415 106.64188,16.6601935 108.357724,17.3215626 C108.25345,17.3885122 108.117472,17.4146341 107.964819,17.4146341" id="Fill-113" fill="#0C7DBA"></path>
                <path d="M88.0406504,12.5772358 C86.8707764,12.2376402 85.7083801,11.8795819 84.5611259,11.4855803 C85.5399466,11.7821618 86.5195151,12.0765827 87.4985228,12.3725749 C87.667704,12.4236419 87.8372591,12.4749054 88.0064403,12.5261688 L88.0406504,12.5772358 M76.6387722,7.23228812 C76.1474924,6.85183893 75.6590168,6.42405457 75.2552252,5.92772256 C75.6846276,6.38143326 76.1381454,6.81314586 76.6387722,7.23228812 M74.3360385,4.88674132 C74.0277735,4.53103999 73.7174522,4.1555011 73.5284553,3.8699187 C73.5351851,3.87915004 73.541915,3.88818497 73.5488318,3.89721991 C73.8126049,4.2405473 74.0730131,4.56953666 74.3360385,4.88674132" id="Fill-114" fill="#88BBC3"></path>
                <path d="M89.9756098,12.5772358 C89.7969336,12.5277742 89.6178625,12.4783127 89.4391864,12.4290406 C88.4052337,12.1434523 87.3706888,11.85938 86.3369336,11.5732232 C85.1270688,11.193639 83.9335909,10.7793748 82.7657792,10.3141331 C81.8463373,9.94762488 80.4554271,9.15965125 79.6522728,8.59378082 C79.1776457,8.25929947 78.5717261,7.89506538 77.9699527,7.46943076 C77.4412291,7.06502101 76.9622585,6.64848276 76.5087566,6.21071963 C76.3707515,6.05589172 75.9559464,5.64674428 75.5379823,5.20632804 C75.2601952,4.90027287 74.9851721,4.58284722 74.7065952,4.2515875 C74.6992902,4.24287014 74.6921826,4.23415278 74.685075,4.22524591 C74.5816206,4.08273601 74.5127167,3.96334607 74.495935,3.88185769 L74.5214037,3.8699187 C75.0033358,4.49491558 78.908743,6.85542533 79.5128856,7.19123324 C82.3807863,8.78537325 85.6016959,9.95672126 88.8453102,11.025735 L89.9756098,12.5772358" id="Fill-115" fill="#0C7DBA"></path>
                <path d="M100.617886,15.4796748 C99.949523,15.2652226 99.2801691,15.0531553 98.6074466,14.8536094 C95.5261992,13.9391565 92.3450837,13.1898656 89.2113263,12.3211254 L89.1750646,12.2694501 L88.0406504,10.6422764 C90.2946176,11.4185975 92.5596812,12.143442 94.7244804,12.9279119 C96.5960162,13.6062487 98.4879615,14.2249603 100.387437,14.8202193 L100.617886,15.4796748" id="Fill-116" fill="#0C7DBA"></path>
                <path d="M62.8742076,71.0352103 C62.8684151,70.9607572 62.8616571,70.8839775 62.840804,70.8174739 C62.6467542,70.1958685 62.2688881,70.0279614 61.9568637,69.5033001 C61.8174568,69.2692771 61.9991492,68.5383188 61.5359397,68.6007508 C61.3652531,68.6236296 60.9518594,68.7595451 60.5878954,68.8134461 C60.0569133,68.8917769 59.3488728,68.5596465 58.822911,68.1567469 C58.1158359,67.6150234 57.376902,67.019593 56.7430059,66.3473828 C55.411689,64.9352954 54.0452308,63.16626 52.9363472,61.4371656 C54.9787938,58.8483711 55.805002,54.6568972 54.983621,51.048445 C54.8975053,50.6713326 54.7893781,50.2878219 54.58104,50.0103679 C54.404754,49.7755694 54.1703495,49.6361638 53.9330488,49.5384442 C51.4246895,48.5057959 50.8043093,51.7450851 50.2231253,54.3270935 C49.8603198,55.9386918 49.5681831,57.6053542 49.3861045,59.2722106 C49.1308469,61.6064299 49.9987613,63.2697963 51.2613401,64.8210953 C52.5992218,66.464879 53.9764928,68.0979988 55.5501306,69.3270557 C56.3149378,69.9244251 57.1085147,70.2852509 57.9165728,70.7391431 C58.715363,71.1876063 58.5222786,71.640529 59.1465204,72.2743494 C59.4948446,72.6280014 59.8003041,73.0768524 60.1928447,73.3382136 C60.8970235,73.8068413 61.6176144,73.3056404 62.2795077,72.9508251 C62.4440156,72.862606 62.5558115,72.803664 62.6633595,72.6334302 C62.838487,72.356558 62.8525822,72.0044571 62.8755592,71.6556523 C62.8892682,71.4491615 62.8906198,71.24015 62.8742076,71.0352103" id="Fill-117" fill="#EFC9AF"></path>
                <path d="M48.9060568,55.3529128 C48.722515,56.6379058 48.5830773,57.9088573 48.4840841,59.1404145 C48.33675,60.9763417 48.2169568,62.9807669 48.9628719,64.5261128 C49.2504141,65.1217068 49.6479273,65.6020434 50.0425517,66.0718488 C51.9126356,68.299378 53.8241272,70.4633304 55.7743302,72.5609756 C56.8079801,71.475294 57.719333,70.1758695 58.4669814,68.7215983 C58.6767159,68.3136145 58.8820207,67.8516099 58.8494724,67.3562567 C58.801324,66.6200527 58.26861,66.1467369 57.7927112,65.7863382 C57.0177145,65.1993251 56.2425252,64.6123121 55.4675285,64.0252991 C55.2160013,63.8347636 54.9434813,63.6102945 54.8577772,63.2374144 C54.801925,62.9938333 54.8381326,62.7311401 54.8772291,62.4817083 C55.6187145,57.7659069 56.9121732,54.041397 58.5049224,49.7714135 C59.2065409,47.8890714 59.9233743,45.9314511 59.9809598,43.8238598 C60.1038346,39.3235566 56.1242727,36.8653176 53.8368384,40.342346 C51.2287357,44.3071217 49.6773942,49.9518078 48.9060568,55.3529128" id="Fill-118" fill="#DB5A28"></path>
                <path d="M131.593461,58.826887 C131.600719,58.7641879 131.608933,58.6995829 131.633191,58.6435539 C131.858394,58.1213782 132.288934,57.9835925 132.647654,57.5445076 C132.807722,57.3485964 132.60716,56.730371 133.132824,56.7877341 C133.326892,56.8088879 133.795444,56.9278067 134.208793,56.9769751 C134.811435,57.0486313 135.618651,56.776109 136.219573,56.4416498 C137.027171,55.9920832 137.871443,55.4977316 138.596905,54.9374409 C140.120797,53.7604495 141.687475,52.2829211 142.96095,50.8360754 C140.660023,48.6315032 139.754245,45.0881414 140.715607,42.0534244 C140.816079,41.7363075 140.941956,41.4140451 141.181103,41.1821153 C141.383193,40.9862041 141.650609,40.8709062 141.920891,40.7910553 C144.779381,39.9464267 145.459192,42.6847995 146.099463,44.8684084 C146.499251,46.2312105 146.81824,47.6399413 147.012308,49.0475286 C147.283927,51.0186463 146.284745,52.4125122 144.838022,53.7074696 C143.304771,55.0798005 141.727014,56.4426026 139.929403,57.4627509 C139.055524,57.9586271 138.151084,58.2545902 137.229261,58.6288796 C136.317944,58.9987857 136.533979,59.3827945 135.819595,59.9108779 C135.421144,60.2053164 135.070447,60.5807492 134.622333,60.7970519 C133.818556,61.1850627 133.0037,60.7547442 132.254361,60.4486807 C132.067743,60.3724507 131.941484,60.3215671 131.820383,60.1769207 C131.623641,59.9415605 131.610652,59.644454 131.587157,59.3500155 C131.573022,59.17583 131.573022,58.999548 131.593461,58.826887" id="Fill-119" fill="#AA6755"></path>
                <path d="M145.842152,48.3795949 C145.444387,48.4837991 145.036125,48.6339049 144.553043,48.8554545 C144.270943,48.9846454 141.075084,50.3602146 141.061151,50.3074647 C140.835356,49.4636515 139.999745,48.6557452 139.588238,47.8537618 C139.098667,46.898526 138.730296,45.8844324 138.498012,44.8414652 C138.115135,43.1218187 137.282386,41.4482589 136.639168,39.8009815 C135.827606,37.7224506 137.31617,36.2480448 139.495286,36.9347189 C141.355848,37.5208905 142.832196,39.0950584 144.183908,40.3919654 C145.276234,41.43993 146.356726,42.5280585 147.10683,43.8284822 C147.857124,45.1287208 148.25298,46.6806782 147.885181,48.1275059 C147.063121,48.1650787 146.46552,48.2161628 145.842152,48.3795949" id="Fill-120" fill="#FFAC15"></path>
                <path d="M155.392959,54.2110991 L176.422523,54.1788618 C177.82253,54.1766032 178.959189,55.3004547 178.961546,56.6889637 L178.98374,70.9782029 C178.985897,72.3667119 177.852577,73.4939565 176.452569,73.4962185 L155.423005,73.5284553 C154.022998,73.5305259 152.886339,72.4068629 152.883983,71.0183539 L152.861789,56.7289262 C152.859631,55.3406058 153.992756,54.2131726 155.392959,54.2110991" id="Fill-121" fill="#63BD00"></path>
                <path d="M171.010512,63.8536585 L176.325104,63.8453938 C176.725572,63.8447891 177.049404,63.5198773 177.04878,63.1193811 L177.040658,57.8050972 C177.040033,57.404601 176.71516,57.080697 176.314691,57.0813008 L170.999891,57.0895655 C170.599839,57.0901702 170.275799,57.4150821 170.276423,57.8155782 L170.284545,63.1298621 C170.28517,63.5303583 170.610043,63.8542624 171.010512,63.8536585" id="Fill-122" fill="#FFFFFF"></path>
                <path d="M171.010883,72.5609756 L176.32494,72.5527109 C176.725384,72.5521062 177.049404,72.2269928 177.04878,71.8266982 L177.040658,66.5124143 C177.040034,66.1121197 176.714764,65.7880141 176.314528,65.7886179 L171.000263,65.7968826 C170.600027,65.7974873 170.275799,66.1223991 170.276423,66.5228953 L170.284753,71.8371792 C170.285378,72.2374738 170.610439,72.5615794 171.010883,72.5609756" id="Fill-123" fill="#FFFFFF"></path>
                <path d="M163.270838,63.8536585 L168.585103,63.8453938 C168.985547,63.8447891 169.309359,63.5196757 169.308943,63.1193811 L169.300613,57.8050972 C169.300197,57.404601 168.974927,57.080697 168.574691,57.0813008 L163.260426,57.089364 C162.86019,57.0901702 162.535962,57.4150821 162.536585,57.8153767 L162.544916,63.1298621 C162.545541,63.5301568 162.870602,63.8542624 163.270838,63.8536585" id="Fill-124" fill="#FFFFFF"></path>
                <path d="M163.270652,72.5609756 L168.58508,72.5527109 C168.985537,72.5521062 169.309567,72.2269928 169.308943,71.8266982 L169.300612,66.5124143 C169.299988,66.1119181 168.975124,65.7880141 168.574668,65.7886179 L163.26024,65.7968826 C162.859783,65.7972857 162.535962,66.1223991 162.536585,66.5226938 L162.544916,71.8371792 C162.545541,72.2374738 162.870404,72.5615794 163.270652,72.5609756" id="Fill-125" fill="#FFFFFF"></path>
                <path d="M155.531,63.8536585 L160.845265,63.8453941 C161.245709,63.8447894 161.56973,63.5196857 161.569106,63.119403 L161.560983,57.8050757 C161.560359,57.404793 161.235089,57.080697 160.834645,57.0813008 L155.520588,57.0895653 C155.120144,57.09017 154.796124,57.4152737 154.796748,57.8155564 L154.80487,63.1298837 C154.805703,63.5301664 155.130765,63.8542623 155.531,63.8536585" id="Fill-126" fill="#FFFFFF"></path>
                <path d="M155.530815,72.5609756 L160.845451,72.5527109 C161.245699,72.5521062 161.56973,72.2269928 161.569106,71.8266983 L161.560775,66.5122133 C161.56015,66.1119187 161.235287,65.7878132 160.834831,65.7886179 L155.520402,65.7966817 C155.120154,65.7972864 154.796124,66.1223998 154.796748,66.5226943 L154.80487,71.8371793 C154.805495,72.2374739 155.130567,72.5615794 155.530815,72.5609756" id="Fill-127" fill="#FFFFFF"></path>
                <path d="M173.172246,51.2774858 L174.1446,51.2764228 C174.67583,51.2758923 175.107291,51.5770649 175.108074,51.949237 L175.113821,54.4703402 C175.114604,54.8425123 174.684449,55.1447473 174.152958,55.1452784 L173.180603,55.1463415 C172.649374,55.1468719 172.217913,54.8456993 172.217129,54.4735272 L172.211382,51.952424 C172.2106,51.5802519 172.640755,51.278017 173.172246,51.2774858" id="Fill-128" fill="#EBB044"></path>
                <path d="M157.692571,51.2774858 L158.664925,51.2764228 C159.196155,51.2758923 159.627616,51.5770511 159.628399,51.9493833 L159.634146,54.4701941 C159.634929,54.8425262 159.204774,55.1445703 158.673283,55.1451014 L157.700929,55.1463415 C157.169699,55.1468719 156.738238,54.845536 156.737454,54.4733809 L156.731707,51.9523931 C156.730925,51.580238 157.16108,51.2780169 157.692571,51.2774858" id="Fill-129" fill="#EBB044"></path>
                <path d="M179.386511,65.0419464 C179.610431,64.5158813 179.781788,63.9705251 179.95122,63.4247832 C179.120619,63.2330308 178.288671,63.0505381 177.453258,62.8861789 C177.436507,63.0408926 177.420334,63.1944488 177.406279,63.3454972 C177.33427,64.1157862 177.383367,64.9013151 177.232034,65.6633091 C177.154442,66.0545302 177.030834,66.4743021 176.7944,66.8014772 C176.585883,67.0902632 176.393155,67.2108319 176.32904,67.6049467 C176.269932,67.9691605 176.743185,68.0918511 176.55604,68.4716906 C176.352529,68.8852894 175.743731,68.5858933 175.428164,68.8829744 C175.337865,68.9676619 175.28588,69.0847581 175.241404,69.2003111 C175.12646,69.497971 175.046943,69.8436655 175.19327,70.12705 C175.638028,70.9897429 176.794592,70.5663058 177.321948,70.1064087 C177.680258,69.7938947 178.155436,69.5492851 178.418441,69.1416665 C178.959082,68.3042449 178.558222,67.2004147 178.856845,66.2920022 C178.998359,65.8618133 179.208801,65.4584388 179.386511,65.0419464" id="Fill-130" fill="#E2B596"></path>
                <path d="M172.683849,50.7259721 C173.696019,52.2746393 175.678889,53.3707548 176.982148,54.7764077 C179.525456,57.5193412 177.895074,62.5538318 177.565736,65.9048694 L179.781317,66.7560976 L182.853659,56.5264702 L178.189585,46.717853 C176.835798,43.8712833 174.411462,41.638695 171.415818,40.4810638 L169.308943,39.6666667 C170.136112,39.991877 171.107014,45.749079 171.367303,46.62891 C171.712343,47.7957489 171.900967,49.2866227 172.473081,50.3688285 C172.537298,50.4904885 172.607956,50.6096017 172.683849,50.7259721" id="Fill-131" fill="#0C7DBA"></path>
                <path d="M155.759747,56.1413261 C155.67985,55.0380181 154.640608,54.1497828 153.586767,54.1795907 C153.251597,54.1889057 152.911101,54.2810205 152.643399,54.4927811 C152.376092,54.7045417 152.192035,55.0471261 152.209987,55.3981975 L152.480253,55.1394479 L152.469206,55.1649089 C152.236422,55.7335369 152.062228,56.3284538 151.950768,56.9362046 C151.897701,57.2245551 151.859627,57.5276026 151.942877,57.80788 C152.031848,58.1080295 152.248258,58.3446301 152.457567,58.5694317 C152.62308,58.7470373 152.799641,58.931888 153.028282,58.9972999 C153.256726,59.0629187 153.547903,58.9556929 153.605705,58.7147454 C153.653643,58.5154048 153.534686,58.2839792 153.63648,58.1082365 C153.755634,57.9020649 154.047797,57.9596108 154.271901,57.9068259 C154.567221,57.837481 154.766272,57.5526495 155.027858,57.3934668 C155.134781,57.3282619 155.253145,57.284171 155.356123,57.2123421 C155.676102,56.9896105 155.789141,56.5429054 155.759747,56.1413261" id="Fill-132" fill="#E2B596"></path>
                <path d="M152.616561,55.0648904 C152.883234,54.5856742 153.424856,54.2216483 153.961836,54.3236567 C154.131005,54.3556991 154.301788,54.4315462 154.468938,54.3899723 C154.709973,54.3299435 154.832712,54.0366948 154.787492,53.7917125 C154.742273,53.5465274 154.575123,53.3437275 154.404137,53.1630327 C154.035115,52.7722373 153.599274,52.4140926 153.077435,52.2903847 C152.429426,52.1366623 151.729334,52.3775886 151.226874,52.8160421 C150.724011,53.2544955 150.400208,53.8687765 150.19652,54.5055682 C149.911274,55.3980907 149.608063,57.9912933 151.067799,58.0474688 C152.678536,58.1095256 152.122782,55.953154 152.616561,55.0648904" id="Fill-133" fill="#0C7DBA"></path>
            </g>
        </g>
    </g>
</svg>