<?xml version="1.0" encoding="UTF-8"?>
<svg width="30px" height="34px" viewBox="0 0 30 34" version="1.1" xmlns="http://www.w3.org/2000/svg" xmlns:xlink="http://www.w3.org/1999/xlink">
    <!-- Generator: Sketch 59.1 (86144) - https://sketch.com -->
    <title>Fill 214</title>
    <desc>Created with Sketch.</desc>
    <g id="Products-Page" stroke="none" stroke-width="1" fill="none" fill-rule="evenodd">
        <g id="Products-Page-Small-Business-Mobile-Icon-Design" transform="translate(-313.000000, -106.000000)" stroke="#979797">
            <path d="M335,123 L321,123 C320.447,123 320,122.553 320,122 C320,121.448 320.447,121 321,121 L335,121 C335.553,121 336,121.448 336,122 C336,122.553 335.553,123 335,123 L335,123 Z M335,128 L321,128 C320.447,128 320,127.553 320,127 C320,126.448 320.447,126 321,126 L335,126 C335.553,126 336,126.448 336,127 C336,127.553 335.553,128 335,128 L335,128 Z M335,133 L321,133 C320.447,133 320,132.553 320,132 C320,131.448 320.447,131 321,131 L335,131 C335.553,131 336,131.448 336,132 C336,132.553 335.553,133 335,133 L335,133 Z M323,111 L325.223,111 C325.223,109.896 326.466,109 328,109 C329.534,109 330.777,109.896 330.777,111 L333,111 L333,115 L323,115 L323,111 L323,111 Z M338,111 L335,111 L335,109 L332.307,109 C331.44,107.81 329.846,107 328,107 C326.154,107 324.56,107.81 323.693,109 L321,109 L321,111 L318,111 C315.791,111 314,112.791 314,115 L314,135 C314,137.209 315.791,139 318,139 L338,139 C340.209,139 342,137.209 342,135 L342,115 C342,112.791 340.209,111 338,111 L338,111 Z" id="Fill-214"></path>
        </g>
    </g>
</svg>