<?xml version="1.0" encoding="UTF-8"?>
<svg width="210px" height="119px" viewBox="0 0 210 119" version="1.1" xmlns="http://www.w3.org/2000/svg" xmlns:xlink="http://www.w3.org/1999/xlink">
    <!-- Generator: Sketch 59.1 (86144) - https://sketch.com -->
    <title>2681613-01 2</title>
    <desc>Created with Sketch.</desc>
    <defs>
        <linearGradient x1="6.67394227%" y1="49.6979821%" x2="93.1844882%" y2="50.255891%" id="linearGradient-1">
            <stop stop-color="#00D1FF" offset="0%"></stop>
            <stop stop-color="#0162FF" offset="100%"></stop>
        </linearGradient>
        <linearGradient x1="-22.6884464%" y1="73.9100586%" x2="62.2819067%" y2="49.0934243%" id="linearGradient-2">
            <stop stop-color="#00D1FF" offset="0%"></stop>
            <stop stop-color="#0162FF" offset="100%"></stop>
        </linearGradient>
        <linearGradient x1="63.5329908%" y1="50.0698953%" x2="-15.2377295%" y2="103.040836%" id="linearGradient-3">
            <stop stop-color="#00D1FF" offset="0%"></stop>
            <stop stop-color="#0162FF" offset="100%"></stop>
        </linearGradient>
        <linearGradient x1="3.15557646%" y1="50.1319978%" x2="66.5244213%" y2="49.9495642%" id="linearGradient-4">
            <stop stop-color="#00D1FF" offset="0%"></stop>
            <stop stop-color="#0162FF" offset="100%"></stop>
        </linearGradient>
        <linearGradient x1="1.66812808%" y1="67.7546628%" x2="65.5461216%" y2="49.64454%" id="linearGradient-5">
            <stop stop-color="#00D1FF" offset="0%"></stop>
            <stop stop-color="#0162FF" offset="100%"></stop>
        </linearGradient>
        <linearGradient x1="57.8460519%" y1="45.7112836%" x2="1.53965738%" y2="83.0590954%" id="linearGradient-6">
            <stop stop-color="#00D1FF" offset="0%"></stop>
            <stop stop-color="#0162FF" offset="100%"></stop>
        </linearGradient>
        <linearGradient x1="0.21306448%" y1="90.0477961%" x2="59.5683737%" y2="54.1726262%" id="linearGradient-7">
            <stop stop-color="#FF9A25" offset="1%"></stop>
            <stop stop-color="#FFE000" offset="100%"></stop>
        </linearGradient>
        <linearGradient x1="20.01831%" y1="88.62374%" x2="66.9520699%" y2="30.9195639%" id="linearGradient-8">
            <stop stop-color="#FFE000" offset="0%"></stop>
            <stop stop-color="#FFE000" stop-opacity="0" offset="100%"></stop>
        </linearGradient>
        <linearGradient x1="-7.92751982%" y1="53.2884%" x2="69.0179583%" y2="47.0801669%" id="linearGradient-9">
            <stop stop-color="#FF9A25" offset="1%"></stop>
            <stop stop-color="#FFE000" offset="100%"></stop>
        </linearGradient>
        <linearGradient x1="38.3499746%" y1="49.7977349%" x2="57.2622315%" y2="50.1240663%" id="linearGradient-10">
            <stop stop-color="#FF9A25" offset="1%"></stop>
            <stop stop-color="#FFE000" offset="100%"></stop>
        </linearGradient>
        <linearGradient x1="0.00675028696%" y1="49.9906873%" x2="100.004036%" y2="49.9906873%" id="linearGradient-11">
            <stop stop-color="#FF9A25" offset="1%"></stop>
            <stop stop-color="#FFE000" offset="100%"></stop>
        </linearGradient>
        <linearGradient x1="40.8312407%" y1="26.4050138%" x2="76.7278938%" y2="118.794312%" id="linearGradient-12">
            <stop stop-color="#00D1FF" offset="0%"></stop>
            <stop stop-color="#0162FF" offset="100%"></stop>
        </linearGradient>
        <linearGradient x1="0.0834664432%" y1="50.0018441%" x2="100.048443%" y2="50.0018441%" id="linearGradient-13">
            <stop stop-color="#00D1FF" offset="0%"></stop>
            <stop stop-color="#0162FF" offset="100%"></stop>
        </linearGradient>
        <linearGradient x1="-0.0128194257%" y1="49.9922521%" x2="99.9291359%" y2="49.9922521%" id="linearGradient-14">
            <stop stop-color="#00D1FF" offset="0%"></stop>
            <stop stop-color="#0162FF" offset="100%"></stop>
        </linearGradient>
        <linearGradient x1="55.7620205%" y1="44.9628406%" x2="22.3651537%" y2="74.360033%" id="linearGradient-15">
            <stop stop-color="#00D1FF" offset="0%"></stop>
            <stop stop-color="#0162FF" offset="100%"></stop>
        </linearGradient>
        <linearGradient x1="100.340387%" y1="11.1660079%" x2="-5.64387775%" y2="92.9841897%" id="linearGradient-16">
            <stop stop-color="#00D1FF" offset="0%"></stop>
            <stop stop-color="#0162FF" offset="100%"></stop>
        </linearGradient>
        <linearGradient x1="156.805886%" y1="-21.8503937%" x2="-2.81787132%" y2="84.5472441%" id="linearGradient-17">
            <stop stop-color="#00D1FF" offset="0%"></stop>
            <stop stop-color="#0162FF" offset="100%"></stop>
        </linearGradient>
        <linearGradient x1="43.5034694%" y1="26.644481%" x2="79.6924426%" y2="156.753549%" id="linearGradient-18">
            <stop stop-color="#00D1FF" offset="0%"></stop>
            <stop stop-color="#0162FF" offset="100%"></stop>
        </linearGradient>
        <linearGradient x1="50.0175994%" y1="37.6905611%" x2="50.0175994%" y2="194.745378%" id="linearGradient-19">
            <stop stop-color="#085EFF" offset="0%"></stop>
            <stop stop-color="#0E0092" offset="100%"></stop>
        </linearGradient>
        <linearGradient x1="50.0221926%" y1="126.476314%" x2="50.0221926%" y2="-3.17975341%" id="linearGradient-20">
            <stop stop-color="#00D1FF" offset="0%"></stop>
            <stop stop-color="#0162FF" offset="100%"></stop>
        </linearGradient>
        <linearGradient x1="-17.7747248%" y1="95.8581783%" x2="68.7056682%" y2="45.0468743%" id="linearGradient-21">
            <stop stop-color="#FF9A25" offset="1%"></stop>
            <stop stop-color="#FFE000" offset="100%"></stop>
        </linearGradient>
        <linearGradient x1="49.9936233%" y1="-39.8253113%" x2="49.9936233%" y2="94.2204051%" id="linearGradient-22">
            <stop stop-color="#FF6570" offset="0%"></stop>
            <stop stop-color="#EC374F" offset="100%"></stop>
        </linearGradient>
        <linearGradient x1="121.887029%" y1="93.3950577%" x2="23.01458%" y2="21.995744%" id="linearGradient-23">
            <stop stop-color="#085EFF" offset="0%"></stop>
            <stop stop-color="#0E0092" offset="100%"></stop>
        </linearGradient>
        <linearGradient x1="117.109188%" y1="49.9774164%" x2="1.4725431%" y2="49.9774164%" id="linearGradient-24">
            <stop stop-color="#085EFF" offset="0%"></stop>
            <stop stop-color="#0E0092" offset="100%"></stop>
        </linearGradient>
        <linearGradient x1="50.0404858%" y1="129.053566%" x2="50.0404858%" y2="-6.23335651%" id="linearGradient-25">
            <stop stop-color="#FF9A25" offset="1%"></stop>
            <stop stop-color="#FFE000" offset="100%"></stop>
        </linearGradient>
        <linearGradient x1="58.4575105%" y1="-2.46455591%" x2="47.9758463%" y2="96.625688%" id="linearGradient-26">
            <stop stop-color="#FF6570" offset="0%"></stop>
            <stop stop-color="#EC374F" offset="100%"></stop>
        </linearGradient>
        <linearGradient x1="-40.1284109%" y1="46.3456853%" x2="99.0369181%" y2="50.7887564%" id="linearGradient-27">
            <stop stop-color="#FF6570" offset="0%"></stop>
            <stop stop-color="#EC374F" offset="100%"></stop>
        </linearGradient>
        <linearGradient x1="49.9447463%" y1="9.21413877%" x2="49.9447463%" y2="110.084515%" id="linearGradient-28">
            <stop stop-color="#FF6570" offset="0%"></stop>
            <stop stop-color="#EC374F" offset="100%"></stop>
        </linearGradient>
    </defs>
    <g id="Products-Page" stroke="none" stroke-width="1" fill="none" fill-rule="evenodd">
        <g id="Products-Page-CMS" transform="translate(-579.000000, -944.000000)" fill-rule="nonzero">
            <g id="2681613-01-2" transform="translate(579.000000, 944.000000)">
                <g id="2681613-01">
                    <rect id="Rectangle" fill="#414040" x="87.7051116" y="105.32048" width="27.2975629" height="10.0178571"></rect>
                    <rect id="Rectangle" fill="#0E0092" opacity="0.18" style="mix-blend-mode: multiply;" x="87.7051116" y="104.409766" width="27.2975629" height="4.55357143"></rect>
                    <rect id="Rectangle" fill="#414040" x="28.560392" y="24.266909" width="145.587002" height="82.875" rx="8.99"></rect>
                    <rect id="Rectangle" fill="#9B9B9B" x="32.200067" y="27.9097661" width="138.307652" height="74.6785714" rx="5.66"></rect>
                    <rect id="Rectangle" fill="#FFFFFF" x="32.200067" y="32.4633375" width="138.307652" height="65.5714286"></rect>
                    <rect id="Rectangle" fill="#414040" x="60.4075487" y="115.338338" width="81.8926887" height="3.64285714" rx="1.82142857"></rect>
                    <path d="M38.4630446,59.5189659 C40.6758908,65.2169531 46.8598915,68.2914445 52.7336144,66.6138461 C58.6073374,64.9362477 62.2386593,59.0583947 61.11347,53.049761 C59.9882807,47.0411272 54.476704,42.8782141 48.394626,43.4431737 C42.312548,44.0081334 37.660629,49.1151259 37.6595796,55.2283751 C37.6595796,56.6960295 37.9320383,58.1509099 38.4630446,59.5189659 Z M43.4847007,51.7246797 C45.1596466,48.8236301 48.6642863,47.5315784 51.8193651,48.6519482 C54.9744439,49.7723179 56.8816823,52.9861296 56.3551215,56.2949713 C55.8285608,59.6038129 53.0181174,62.0656273 49.6713811,62.1496092 L49.493471,62.1496092 C45.6586604,62.1432772 42.5523968,59.0318857 42.5492379,55.1939125 C42.5490825,53.9750627 42.8718733,52.7779691 43.4847007,51.7246797 L43.4847007,51.7246797 Z" id="Shape" fill="#43FFD9"></path>
                    <path d="M49.4885235,67.0425662 L49.4885235,62.2987363 L49.6662986,62.2987363 C52.491575,62.2265366 54.9890267,60.4926137 55.9786259,57.9162336 C56.968225,55.3398536 56.2518657,52.4367768 54.1680225,50.5786861 L57.4138514,47.0347661 C61.0474313,50.2228399 62.2858774,55.2607089 60.5282929,59.703988 C58.7707085,64.147267 54.3807851,67.0765217 49.4885235,67.0704804 L49.4885235,67.0425662 Z" id="Path" fill="#FF6570"></path>
                    <path d="M36.7497757,54.6976089 C36.7464079,52.6443836 37.3579575,50.6276632 38.521124,48.8561947 L43.1190922,51.3003949 C41.9538612,53.0938823 41.7733259,55.2649111 42.6291448,57.1922627 L37.604043,58.8740518 C37.0326844,57.5409466 36.7430399,56.1248981 36.7497757,54.6976089 L36.7497757,54.6976089 Z" id="Path" fill="#00D1FF"></path>
                    <path d="M38.5694984,49.1498535 C40.3729613,46.1263241 43.4704265,44.0609367 47.0012048,43.5275982 C50.5319832,42.9942596 54.119859,44.0497988 56.7678736,46.4009143 L53.5093224,49.9852601 C51.9546692,48.5896642 49.8391135,47.9592905 47.7553305,48.2707388 C45.6715474,48.5821872 43.8436544,49.8019603 42.7837377,51.5883375 L38.5694984,49.1498535 Z" id="Path" fill="#FFE000"></path>
                    <path d="M71.5921419,44.1961218 C65.8991319,46.4108983 62.8273261,52.6002932 64.5034591,58.4791398 C66.1795921,64.3579863 72.0523108,67.9924758 78.0556959,66.866305 C84.059081,65.7401342 88.2183577,60.2237498 87.6538916,54.1363665 C87.0894255,48.0489831 81.986894,43.3930063 75.8789848,43.3919323 C74.4123386,43.3890047 72.9581851,43.6617884 71.5921419,44.1961218 Z M79.3566646,49.2221583 C82.2551802,50.8985652 83.5461032,54.406262 82.4267121,57.5640929 C81.3073211,60.7219239 78.0963166,62.630826 74.7903653,62.1038059 C71.484414,61.5767858 69.02475,58.7638909 68.9408415,55.4142353 C68.9377756,55.3549199 68.9377756,55.2954854 68.9408415,55.23617 C68.9353132,52.3879891 70.6692482,49.8256832 73.3137656,48.7741231 C74.1254747,48.4476642 74.9927305,48.2818557 75.8675073,48.2857897 C77.096966,48.279597 78.3056871,48.6028812 79.3681421,49.2221583 L79.3566646,49.2221583 Z" id="Shape" fill="#DEF2FB"></path>
                    <path d="M64.0751042,55.2311947 L68.8147925,55.2311947 C68.8118135,55.2905113 68.8118135,55.3499469 68.8147925,55.4092636 C68.8891123,58.2381711 70.6223198,60.7376715 73.1959635,61.727456 C75.7696073,62.7172405 78.6688473,61.9993094 80.5246106,59.9126826 L84.0654365,63.1696196 C80.8776947,66.802767 75.8474617,68.0390023 71.4108576,66.2796221 C66.9742535,64.5202419 64.0472237,60.1284589 64.0472237,55.2311947 L64.0751042,55.2311947 Z" id="Path" fill="#00D1FF" opacity="0.75"></path>
                    <path d="M75.4993686,42.4813047 C77.5516802,42.4767767 79.567381,43.0906527 81.3356802,44.2587371 L78.8936151,48.8561947 C77.1013181,47.6935779 74.9340433,47.5109049 73.0068939,48.360021 L71.3265738,43.3354771 C72.6585496,42.7643222 74.0733376,42.4747146 75.4993686,42.4813047 Z" id="Path" fill="#00D1FF" opacity="0.22"></path>
                    <path d="M81.9680006,44.3026233 C84.9805902,46.107663 87.0385045,49.2078362 87.5699133,52.7417014 C88.1013221,56.2755666 87.0496021,59.8665793 84.7069935,62.516909 L81.1356167,59.2497467 C82.52413,57.6916258 83.1486151,55.5727511 82.8338367,53.487695 C82.5190584,51.4026389 81.2989351,49.5760735 79.5158427,48.5205471 L81.9680006,44.3026233 Z" id="Path" fill="#00D1FF" opacity="0.48"></path>
                    <path d="M82.637782,73.8310383 L40.9067107,73.8310383 C40.1184382,73.8310383 39.4794171,73.1852009 39.4794171,72.38852 L39.4794171,72.1558558 C39.4794171,71.359175 40.1184382,70.7133375 40.9067107,70.7133375 L82.637782,70.7133375 C83.4260544,70.7133375 84.0650755,71.359175 84.0650755,72.1558558 L84.0650755,72.38852 C84.0650755,73.1852009 83.4260544,73.8310383 82.637782,73.8310383 L82.637782,73.8310383 Z M82.637782,76.0471651 L40.9067107,76.0471651 C40.1184382,76.0471651 39.4794171,76.6930025 39.4794171,77.4896834 L39.4794171,77.7281642 C39.4794171,78.1102111 39.6299726,78.476526 39.8978088,78.7461277 C40.165645,79.0157293 40.5286991,79.1664126 40.9067107,79.1648776 L82.637782,79.1648776 C83.0157935,79.1664126 83.3788477,79.0157293 83.6466839,78.7461277 C83.9145201,78.476526 84.0652614,78.1102111 84.0652614,77.7281642 L84.0652614,77.4896834 C84.0712459,77.1030885 83.9235992,76.7301727 83.655258,76.454595 C83.3869168,76.1790172 83.0203463,76.0238484 82.637782,76.0238987 L82.637782,76.0471651 Z M82.637782,81.3809927 L40.9067107,81.3809927 C40.1184382,81.3809927 39.4794171,82.0268301 39.4794171,82.8235109 L39.4794171,83.0619917 C39.4794171,83.8586726 40.1184382,84.50451 40.9067107,84.50451 L82.637782,84.50451 C83.4260544,84.50451 84.0650755,83.8586726 84.0650755,83.0619917 L84.0650755,82.8235109 C84.0650755,82.0268301 83.4260544,81.3809927 82.637782,81.3809927 L82.637782,81.3809927 Z M82.637782,86.7148202 L40.9067107,86.7148202 C40.1184382,86.7148202 39.4794171,87.3606576 39.4794171,88.1573385 L39.4794171,88.3958193 C39.4794171,89.1925001 40.1184382,89.8383375 40.9067107,89.8383375 L82.637782,89.8383375 C83.4260544,89.8383375 84.0650755,89.1925001 84.0650755,88.3958193 L84.0650755,88.1573385 C84.0650755,87.3606576 83.4260544,86.7148202 82.637782,86.7148202 L82.637782,86.7148202 Z" id="Shape" fill="#DEDEDE"></path>
                    <rect id="Rectangle" fill="#DEDEDE" x="117.732431" y="47.9454804" width="47.3157757" height="46.4464286" rx="7"></rect>
                    <path d="M134.839581,69.8026233 L122.804154,69.8026233 C121.509798,69.7993639 120.462187,68.7124987 120.462187,67.372911 L120.462187,54.9228524 C120.462187,53.5842243 121.510721,52.4990518 122.804154,52.4990518 L134.839581,52.4990518 C136.133014,52.4990518 137.181548,53.5842243 137.181548,54.9228524 L137.181548,67.372911 C137.181548,68.7124987 136.133937,69.7993639 134.839581,69.8026233 Z M160.498403,54.3612401 L160.498403,54.2370942 C160.498403,53.8322408 160.181285,53.5040423 159.7901,53.5040423 L140.248954,53.5040423 C139.85777,53.5040423 139.540652,53.8322408 139.540652,54.2370942 L139.540652,54.3612401 C139.540652,54.7660935 139.85777,55.094292 140.248954,55.094292 L159.7901,55.094292 C160.181285,55.094292 160.498403,54.7660935 160.498403,54.3612401 L160.498403,54.3612401 Z M160.498426,58.806845 L160.498426,58.9250792 C160.49994,59.1199801 160.425809,59.3073606 160.292642,59.4451809 C160.159475,59.5830012 159.978421,59.6597222 159.7901,59.6581311 L140.248954,59.6581311 C140.060634,59.6597222 139.87958,59.5830012 139.746412,59.4451809 C139.613245,59.3073606 139.539115,59.1199801 139.540628,58.9250792 L139.540628,58.806845 C139.539115,58.6119442 139.613245,58.4245637 139.746412,58.2867434 C139.87958,58.148923 140.060634,58.0722021 140.248954,58.0737932 L159.7901,58.0737932 C159.978421,58.0722021 160.159475,58.148923 160.292642,58.2867434 C160.425809,58.4245637 160.49994,58.6119442 160.498426,58.806845 L160.498426,58.806845 Z M160.498403,63.3706842 L160.498403,63.4948301 C160.498403,63.6892475 160.423778,63.8757021 160.290946,64.013176 C160.158113,64.1506499 159.977954,64.2278819 159.7901,64.2278819 L140.248954,64.2278819 C139.85777,64.2278819 139.540652,63.8996834 139.540652,63.4948301 L139.540652,63.3706842 C139.540652,62.9658308 139.85777,62.6376323 140.248954,62.6376323 L159.7901,62.6376323 C160.181285,62.6376323 160.498403,62.9658308 160.498403,63.3706842 L160.498403,63.3706842 Z M160.498403,67.940435 L160.498403,68.0586692 C160.49994,68.2535701 160.425809,68.4409506 160.292642,68.5787709 C160.159475,68.7165912 159.978421,68.7933122 159.7901,68.7917211 L140.248954,68.7917211 C140.060634,68.7933122 139.87958,68.7165912 139.746412,68.5787709 C139.613245,68.4409506 139.539115,68.2535701 139.540652,68.0586692 L139.540652,67.940435 C139.536003,67.7435014 139.608757,67.5530425 139.742268,67.412638 C139.875779,67.2722334 140.058619,67.1938994 140.248954,67.1955597 L159.7901,67.1955597 C159.980435,67.1938994 160.163276,67.2722334 160.296787,67.412638 C160.430298,67.5530425 160.503052,67.7435014 160.498403,67.940435 L160.498403,67.940435 Z" id="Shape" fill="#308DFC"></path>
                    <path d="M134.83964,90.7490518 L122.804164,90.7490518 C121.509802,90.7457869 120.462187,89.6570619 120.462187,88.3151819 L120.462187,75.8734285 C120.462187,74.5325098 121.510726,73.4454804 122.804164,73.4454804 L134.83964,73.4454804 C136.126381,73.4552415 137.164488,74.5394171 137.164488,75.8734285 L137.164488,88.3092601 C137.16768,89.6465603 136.129531,90.7360408 134.83964,90.7490518 Z M160.498566,75.281246 L160.498566,75.1568877 C160.498566,74.7513416 160.181447,74.4225815 159.790261,74.4225815 L140.249035,74.4225815 C139.857849,74.4225815 139.54073,74.7513416 139.54073,75.1568877 L139.54073,75.281246 C139.54073,75.6867922 139.857849,76.0155523 140.249035,76.0155523 L159.790261,76.0155523 C160.181447,76.0155523 160.498566,75.6867922 160.498566,75.281246 L160.498566,75.281246 Z M160.49859,79.7344581 L160.49859,79.8528946 C160.500104,80.048129 160.425973,80.2358301 160.292805,80.3738863 C160.159637,80.5119424 159.978583,80.5887947 159.790261,80.5872009 L140.249035,80.5872009 C140.060714,80.5887947 139.879659,80.5119424 139.746491,80.3738863 C139.613324,80.2358301 139.539193,80.048129 139.540706,79.8528946 L139.540706,79.7344581 C139.539193,79.5392237 139.613324,79.3515226 139.746491,79.2134665 C139.879659,79.0754103 140.060714,78.998558 140.249035,79.0001519 L159.790261,79.0001519 C159.978583,78.998558 160.159637,79.0754103 160.292805,79.2134665 C160.425973,79.3515226 160.500104,79.5392237 160.49859,79.7344581 L160.49859,79.7344581 Z M160.49859,84.3061067 L160.49859,84.4245432 C160.500104,84.6197775 160.425973,84.8074787 160.292805,84.9455348 C160.159637,85.083591 159.978583,85.1604433 159.790261,85.1588494 L140.249035,85.1588494 C140.060714,85.1604433 139.879659,85.083591 139.746491,84.9455348 C139.613324,84.8074787 139.539193,84.6197775 139.540706,84.4245432 L139.540706,84.3061067 C139.540706,83.9005605 139.857849,83.5718004 140.249035,83.5718004 L159.790261,83.5718004 C160.181447,83.5718004 160.49859,83.9005605 160.49859,84.3061067 L160.49859,84.3061067 Z M160.498566,88.8777553 L160.498566,89.0021136 C160.498566,89.4076597 160.181447,89.7364198 159.790261,89.7364198 L140.249035,89.7364198 C139.857849,89.7364198 139.54073,89.4076597 139.54073,89.0021136 L139.54073,88.9014426 C139.54073,88.4958964 139.857849,88.1671363 140.249035,88.1671363 L159.790261,88.1671363 C160.181447,88.1671363 160.498566,88.4958964 160.498566,88.9014426 L160.498566,88.8777553 Z" id="Shape" fill="#1C75BB"></path>
                    <path d="M95.8943804,81.1390757 C99.696541,82.7305799 104.52552,82.8104403 107.723324,82.2000785 L106.942943,77.9047284 L96.4811336,68.891909 L95.8943804,81.1390757 Z" id="Path" fill="#FFD2D2"></path>
                    <path d="M98.0724386,81.641909 C97.3296236,81.4498906 96.6017675,81.2066329 95.8943804,80.9139775 L96.4805597,68.891909 L98.6241367,70.750934 C98.2460004,74.3694421 98.0618508,78.0047066 98.0724386,81.641909 L98.0724386,81.641909 Z" id="Path" fill="#FFDEDE"></path>
                    <path d="M102.248213,82.4541407 C104.075548,82.6463066 105.918046,82.5569577 107.723324,82.1886343 L107.026587,77.8481814 L101.353893,74.3561947 C101.522482,77.0711991 101.82101,79.774331 102.248213,82.4541407 L102.248213,82.4541407 Z" id="Path" fill="#FCCACA"></path>
                    <path d="M103.148626,59.3881045 C106.549607,58.1730227 109.247559,58.9613441 111.861387,63.3830563 C114.475215,67.8047685 118.098522,71.6396852 116.373997,73.0029477 C114.649471,74.3662101 111.278533,78.337453 106.159035,77.9758921 C98.5278581,77.4068782 93.2100693,62.9266598 103.148626,59.3881045 Z" id="Path" fill="#FCCACA"></path>
                    <path d="M112.332962,74.8376384 L112.332962,74.8376384 C110.667491,75.7478629 108.564876,75.1632709 107.634516,73.5313246 L96.8042992,54.473138 L105.410188,49.766909 L113.855497,70.6620994 C114.481762,72.2314821 113.832027,74.0133747 112.332962,74.8376384 L112.332962,74.8376384 Z" id="Path" fill="#F8B024"></path>
                    <path d="M95.4041623,47.6330162 L96.8694549,47.633031 C99.6806824,47.6330594 101.959618,49.9120176 101.959618,52.7232451 C101.959618,55.5344358 99.6806971,57.8133562 96.8695064,57.8133562 C96.8694892,57.8133562 96.8694721,57.8133562 96.8694549,57.8133562 L95.4041623,57.8133414 C92.5929348,57.813313 90.3139997,55.5343548 90.3139997,52.7231273 C90.3139997,49.9119366 92.5929201,47.6330162 95.4041108,47.6330162 C95.404128,47.6330162 95.4041452,47.6330162 95.4041623,47.6330162 Z" id="Rectangle" fill="url(#linearGradient-1)" transform="translate(96.136809, 52.723186) rotate(-29.130000) translate(-96.136809, -52.723186) "></path>
                    <path d="M93.0308037,51.7911252 L96.7455322,49.9326356 C98.6042846,49.0020017 100.950404,49.6000768 101.988809,51.269257 L103.173731,53.1596977 C103.117877,52.7014888 102.960764,52.2579222 102.711611,51.8550274 L101.37265,49.7249534 C100.336303,48.0538203 97.9896812,47.4532338 96.1293731,48.3830067 L92.4146446,50.2468215 C90.5554029,51.1783161 89.8872122,53.2875187 90.9216437,54.9596103 L91.0934573,55.2311947 C90.9064331,53.8379676 91.6708999,52.480534 93.0308037,51.7911252 L93.0308037,51.7911252 Z" id="Path" fill="url(#linearGradient-2)" opacity="0.44" style="mix-blend-mode: screen;"></path>
                    <path d="M101.804727,50.2345502 L100.541935,47.8508578 C100.379597,47.5525901 100.180444,47.2781822 99.9496521,47.0347661 L100.614574,48.2794528 C101.59016,50.1229798 100.95998,52.4484338 99.2065047,53.4754323 L95.7030951,55.5244684 C94.2750686,56.3610341 92.4910952,56.0918728 91.3447866,54.8668981 L91.9482447,56.0059038 C92.9275786,57.846221 95.1402347,58.5056152 96.8932486,57.4795658 L100.396658,55.4305297 C102.150134,54.4035312 102.780313,52.0780772 101.804727,50.2345502 L101.804727,50.2345502 Z" id="Path" fill="url(#linearGradient-3)" opacity="0.42" style="mix-blend-mode: multiply;"></path>
                    <path d="M101.045294,42.1087798 L103.139394,42.1088009 C107.170679,42.1088417 110.438659,45.3768548 110.438659,49.4081391 C110.438659,53.4393707 107.1707,56.7073296 103.139468,56.7073296 C103.139444,56.7073296 103.139419,56.7073296 103.139394,56.7073296 L101.045294,56.7073085 C97.0140096,56.7072677 93.7460296,53.4392546 93.7460296,49.4079703 C93.7460296,45.3767387 97.0139885,42.1087798 101.04522,42.1087798 C101.045245,42.1087798 101.045269,42.1087798 101.045294,42.1087798 Z" id="Rectangle" fill="url(#linearGradient-4)" transform="translate(102.092344, 49.408055) rotate(-29.130000) translate(-102.092344, -49.408055) "></path>
                    <path d="M96.5108461,47.9300808 L103.442794,44.3075797 C105.715808,43.1137463 108.590223,43.8695951 109.870163,45.9977046 L112.272918,49.9976669 C112.1855,49.4852785 112.002495,48.9913458 111.732298,48.5385258 L108.933089,43.828711 C107.655359,41.6979613 104.778309,40.9414197 102.50572,42.1385861 L95.5737717,45.7610871 C94.4815386,46.3354975 93.6777714,47.2937797 93.3397153,48.4246148 C93.0016593,49.5554499 93.1570804,50.7659578 93.7717056,51.7891994 L94.1921877,52.4990518 C93.8715999,50.6713333 94.7962397,48.8493089 96.5108461,47.9300808 L96.5108461,47.9300808 Z" id="Path" fill="url(#linearGradient-5)" opacity="0.44" style="mix-blend-mode: screen;"></path>
                    <path d="M110.759575,48.2321926 L108.000841,43.3281881 C107.583316,42.5918763 106.968811,41.9837033 106.224832,41.5704804 C106.250724,41.6102034 106.274439,41.6512759 106.295873,41.6935199 L109.060527,46.5916654 C110.315025,48.8087287 109.520767,51.6123885 107.284518,52.8608228 L100.452803,56.6281763 C99.037683,57.4163695 97.3095008,57.4163695 95.8943804,56.6281763 C97.1855348,58.7658624 99.9585273,59.5025491 102.157772,58.2921396 L108.989486,54.5247861 C110.067727,53.9229972 110.860084,52.9217477 111.19208,51.7415134 C111.524077,50.5612791 111.368488,49.2988423 110.759575,48.2321926 L110.759575,48.2321926 Z" id="Path" fill="url(#linearGradient-6)" opacity="0.42" style="mix-blend-mode: multiply;"></path>
                    <path d="M135.020887,51.6566193 C123.28086,52.4121691 116.80164,50.9010695 109.548103,54.9060515 C104.6346,57.6385286 96.0943277,42.3287039 101.007831,39.5962268 C108.870575,35.2333528 110.943014,29.1321462 117.177412,19.7133375 L135.020887,51.6566193 Z" id="Path" fill="url(#linearGradient-7)"></path>
                    <path d="M102.516628,43.6442711 C110.604019,39.1838132 113.145603,33.8231327 119.552268,24.1878468 L118.785108,22.4454804 C112.343305,32.0807664 109.831002,37.4414468 101.749468,41.9019047 C99.406994,43.1912558 100.578231,46.9838066 102.434641,50.6776233 C101.245836,47.5239402 100.54895,44.7303461 102.516628,43.6442711 Z" id="Path" fill="url(#linearGradient-8)" style="mix-blend-mode: screen;"></path>
                    <path d="M134.076374,48.5374453 C122.628268,49.1900987 116.157849,47.8350132 109.004218,51.6735003 C106.311559,53.1170812 102.533799,49.3670895 100.443974,45.2133375 C101.724279,50.296291 106.845498,56.7398609 110.244334,54.9146436 C117.530014,51.0429707 124.092293,52.4865516 135.930806,51.7509338 L134.076374,48.5374453 Z" id="Path" fill="url(#linearGradient-9)" opacity="0.3" style="mix-blend-mode: multiply;"></path>
                    <ellipse id="Oval" fill="url(#linearGradient-10)" transform="translate(126.763499, 35.662281) rotate(-29.130000) translate(-126.763499, -35.662281) " cx="126.763499" cy="35.6622808" rx="5.96984047" ry="18.5668368"></ellipse>
                    <path d="M134.794042,51.5883375 C135.722477,48.3010135 133.76378,41.3687968 129.600801,34.1828218 C125.090407,26.391287 119.489852,20.8720429 116.141499,20.6240518 C115.207075,23.9113759 117.171762,30.8378253 121.334741,38.0295676 C125.845134,45.8211024 131.445689,51.3403464 134.794042,51.5883375 Z" id="Path" fill="url(#linearGradient-11)" opacity="0.3" style="mix-blend-mode: multiply;"></path>
                    <path d="M133.335385,31.7532027 C127.747752,21.6686073 120.100611,15.2453716 116.256962,17.39606 C112.413313,19.5467485 113.824564,29.4698981 119.417933,39.5487276 C125.011303,49.6275571 132.652707,56.0565587 136.496356,53.9058703 C140.340005,51.7551818 138.928754,41.8320322 133.335385,31.7532027 Z M135.6301,51.7090545 C132.761706,53.3119804 126.416817,47.3500184 121.454494,38.4013094 C116.492171,29.4526003 114.782607,20.8844421 117.651002,19.2815161 C120.519397,17.6785902 126.87576,23.6520841 131.866767,32.5892612 C136.857773,41.5264384 138.509969,50.1003626 135.647311,51.7090545 L135.6301,51.7090545 Z" id="Shape" fill="url(#linearGradient-12)"></path>
                    <g id="Group" opacity="0.5" style="mix-blend-mode: multiply;" transform="translate(114.092756, 17.891909)">
                        <path d="M18.1401828,14.0165934 C13.1923408,5.09537637 6.85613208,-0.838697802 3.99941038,0.758274725 C3.31635848,1.21041903 2.86517646,1.94127534 2.7653066,2.75736264 C2.95349283,2.42744335 3.22562647,2.15383021 3.55376179,1.96462088 C6.41048349,0.361903846 12.7238384,6.30172253 17.6716804,15.2229396 C21.5225413,22.1737912 23.3851238,28.8891181 22.6937972,32.2668874 C24.3564092,29.5382473 22.5281073,21.932522 18.1401828,14.0165934 Z" id="Path" fill="url(#linearGradient-13)"></path>
                        <path d="M22.7737854,35.2540302 C18.9457783,37.3967308 11.3468986,30.9973516 5.75915094,20.9502115 C1.5140625,13.2870412 -0.314239387,5.74450549 0.759887972,1.60846154 C-1.13126179,5.29068956 0.605625,13.6719231 5.33064269,22.1565577 C10.8955366,32.2036978 18.5115566,38.6030769 22.3395637,36.4603764 C23.3054957,35.846381 23.9771598,34.8593811 24.1964328,33.7317363 C23.8839104,34.3705222 23.3884493,34.9006868 22.7737854,35.2540302 L22.7737854,35.2540302 Z" id="Path" fill="url(#linearGradient-14)"></path>
                    </g>
                    <path d="M122.27505,39.0233381 C123.277182,40.8455935 124.381871,42.6082493 125.583677,44.3026233 L130.471293,41.5501755 L124.456623,30.641909 L119.552268,33.3943568 C120.348612,35.3236175 121.257813,37.2032665 122.27505,39.0233381 L122.27505,39.0233381 Z" id="Path" fill="url(#linearGradient-15)"></path>
                    <path d="M119.930426,36.1061947 C119.930426,36.1061947 119.024406,33.882504 118.64235,32.8053054 L123.418059,29.7311947 L125.011781,33.0572816 L119.930426,36.1061947 Z" id="Path" fill="url(#linearGradient-16)" style="mix-blend-mode: screen;"></path>
                    <path d="M127.573824,37.9276233 L123.191943,40.9017866 C123.799537,42.1065111 124.422577,43.2422148 125.050767,44.3026233 L129.561375,41.2406154 L127.573824,37.9276233 Z" id="Path" fill="url(#linearGradient-17)" opacity="0.5" style="mix-blend-mode: multiply;"></path>
                    <path d="M127.965887,35.1441697 C129.499983,38.1136572 130.011349,40.9496845 129.1318,41.4835249 C128.252251,42.0173653 126.309062,40.0377071 124.785193,37.0682196 C123.261324,34.0987322 122.739731,31.2627049 123.619279,30.7288645 C124.498828,30.195024 126.442017,32.1746823 127.965887,35.1441697 Z" id="Path" fill="url(#linearGradient-18)"></path>
                    <path d="M114.765618,68.9348411 C116.291581,68.477832 117.874271,71.7894924 115.900163,73.1671432 C114.426412,74.2108327 112.795667,74.9166897 111.095366,75.2468659 C109.552385,75.5117987 108.871658,73.0876633 110.414639,71.676896 C111.693827,70.4332284 113.173181,69.5009164 114.765618,68.9348411 L114.765618,68.9348411 Z" id="Path" fill="#FFDEDE"></path>
                    <path d="M111.095865,75.2461065 C112.794334,74.9031952 114.423325,74.1758378 115.89647,73.1025983 C116.605289,72.6376682 116.964287,71.6561253 116.770339,70.7133375 C116.658689,70.8368862 116.537025,70.9466584 116.407172,71.0410076 C114.932967,72.1167073 113.301718,72.844213 111.600894,73.1845158 C111.262147,73.260079 110.912339,73.169985 110.629,72.9342022 C110.345661,72.6984194 110.152196,72.3364234 110.091484,71.9284473 C108.984961,73.3961361 109.671573,75.4986855 111.095865,75.2461065 Z" id="Path" fill="#FFD2D2"></path>
                    <path d="M114.497466,65.2924836 C116.223515,64.8324307 118.003672,68.1481782 115.79065,69.5227266 C114.130585,70.565879 112.294375,71.2722418 110.379839,71.6041857 C108.637558,71.8678746 107.880044,69.444181 109.616915,68.0359701 C111.050136,66.7917693 112.709826,65.858814 114.497466,65.2924836 L114.497466,65.2924836 Z" id="Path" fill="#FFDEDE"></path>
                    <path d="M110.384265,72.5142008 C112.295882,72.1827908 114.129228,71.4755202 115.786152,70.4302537 C116.61986,69.9502556 117.014695,68.9273593 116.731482,67.9811947 C116.577278,68.4950891 116.238765,68.9275461 115.786152,69.1888729 C114.128026,70.2315506 112.29517,70.9386321 110.384265,71.2728199 C109.659379,71.4114436 108.950046,70.9616324 108.73669,70.2280379 C108.342352,71.4638016 109.114822,72.7107995 110.384265,72.5142008 Z" id="Path" fill="#FFD2D2"></path>
                    <path d="M111.572062,61.7827081 C113.46277,60.8355053 116.429898,63.9112538 114.215706,65.9919071 C112.556192,67.5527742 110.601104,68.7987603 108.454345,69.6636483 C106.491132,70.4086393 104.951795,68.0087041 106.602678,66.0291567 C107.94506,64.3110396 109.634811,62.8671092 111.572062,61.7827081 L111.572062,61.7827081 Z" id="Path" fill="#FFDEDE"></path>
                    <path d="M108.452741,69.6613476 C110.600314,68.7874549 112.555806,67.5268698 114.214724,65.9469523 C114.942687,65.3129044 115.194878,64.3137382 114.850606,63.4276233 C114.709051,63.771555 114.492137,64.0818937 114.214724,64.337381 C112.555806,65.9172985 110.600314,67.1778836 108.452741,68.0517763 C107.987419,68.246263 107.45822,68.2399076 106.998056,68.0343062 C106.537892,67.8287048 106.190484,67.4433916 106.043083,66.97514 C105.457402,68.6816085 106.801679,70.296563 108.452741,69.6613476 Z" id="Path" fill="#FFD2D2"></path>
                    <path d="M108.234494,59.042871 C109.95969,58.1328541 112.665236,61.1055762 110.644292,63.0910677 C109.21169,64.5558704 107.586363,65.8158965 105.813742,66.8359254 C103.935195,67.7955797 102.248336,65.6225695 103.75446,63.7198067 C105.260584,61.817044 106.766708,59.8370677 108.234494,59.042871 Z" id="Path" fill="#FFDEDE"></path>
                    <path d="M105.828903,66.8125601 C107.596276,65.7532542 109.216792,64.4447098 110.645154,62.9235038 C111.490451,62.1043542 111.603919,60.7455818 110.907263,59.7847661 C110.887704,60.4043306 110.629618,60.9891377 110.191924,61.4056836 C108.766319,62.9213393 107.14732,64.2224329 105.381133,65.2718294 C104.668019,65.7179499 103.753833,65.5741165 103.196892,64.928172 C103.086506,65.6353034 103.376596,66.3454932 103.940829,66.7494558 C104.505062,67.1534183 105.241296,67.1780251 105.828903,66.8125601 L105.828903,66.8125601 Z" id="Path" fill="#FFD2D2"></path>
                    <path d="M106.133345,55.2311947 C107.934838,55.2311947 109.3638,58.9989323 103.642392,61.894017 C103.753596,63.5037077 102.680484,64.5532496 103.748035,65.9270882 C105.377163,68.0202758 106.227868,69.1995363 105.883138,71.4460278 C105.538408,73.6925192 102.86397,75.2314542 100.256253,73.8045489 C97.6485369,72.3776436 93.8398254,65.2549097 100.606543,58.8751099 C101.234842,58.2854796 104.23733,56.6757889 104.498657,56.3809738 C105.377163,55.4139801 105.649611,55.2311947 106.133345,55.2311947 Z" id="Path" fill="#FFDEDE"></path>
                    <path d="M100.443974,73.7795783 C102.985944,75.2222304 105.582114,73.7795783 105.928993,71.424228 C106.275872,69.0688777 105.435775,68.0030817 103.847721,65.9127083 C102.807085,64.5466051 103.847721,63.4925859 103.750161,61.8850593 C109.3219,58.9938668 107.928965,55.2370831 106.172892,55.2311947 L106.059072,55.2311947 C106.81245,56.4854187 106.411371,59.0174203 102.395167,61.1195705 C102.503566,62.7212087 101.45209,63.7752279 102.498146,65.1472195 C104.08078,67.2375929 104.915457,68.415268 104.573998,70.6587392 C104.265059,72.755001 103.468323,73.7383597 100.443974,73.7795783 Z" id="Path" fill="#FFD2D2"></path>
                    <rect id="Rectangle" fill="#FFFFFF" x="94.0745429" y="77.9990518" width="13.6487814" height="20.0357143"></rect>
                    <rect id="Rectangle" fill="url(#linearGradient-19)" x="93.1646241" y="80.7311947" width="16.3785377" height="18.2142857"></rect>
                    <path d="M109.543162,98.9454804 L96.8042992,98.9454804 C100.357408,93.4440433 102.809567,87.2484735 104.013376,80.7311947 L109.543162,80.7311947 L109.543162,98.9454804 Z" id="Path" fill="url(#linearGradient-20)" opacity="0.8" style="mix-blend-mode: multiply;"></path>
                    <path d="M131.828151,22.0001969 C131.335608,22.0102608 130.877928,21.7429038 130.63868,21.3053579 C130.399431,20.867812 130.417802,20.3317462 130.686423,19.9121668 L142.520433,1.21269707 C142.919262,0.581647474 143.746077,0.398574112 144.367178,0.803791256 C144.988278,1.2090084 145.168466,2.04906858 144.769637,2.68011823 L132.952753,21.3795879 C132.705422,21.7665039 132.282237,22.0000374 131.828151,22.0001969 Z M140.088553,30.2537159 L159.657769,20.3007724 C160.099229,20.0921618 160.394019,19.6560406 160.427156,19.1625167 C160.460293,18.6689928 160.226528,18.1962366 159.817042,17.9286454 C159.407555,17.6610543 158.887206,17.6410125 158.458955,17.8763374 L138.895447,27.8292809 C138.245359,28.1742077 137.990544,28.9871437 138.324583,29.6505072 C138.437646,29.8898393 138.615972,30.0911525 138.838361,30.2305156 C139.225583,30.4481702 139.693765,30.4568584 140.088553,30.2537159 Z M142.880077,42.4802922 L164.744167,41.5928794 C165.45154,41.5270306 165.984476,40.9102266 165.957118,40.1890471 C165.929759,39.4678677 165.351675,38.8945727 164.641411,38.8842404 L142.771613,39.7716532 C142.284012,39.7897445 141.845299,40.0776323 141.628523,40.5217613 C141.411746,40.9658903 141.451706,41.4949605 141.732641,41.9002839 C141.99362,42.2787439 142.425557,42.4970802 142.880077,42.4802922 Z" id="Shape" fill="url(#linearGradient-21)"></path>
                    <path d="M37.334716,30.6420889 C37.334716,31.1449631 37.0000547,31.5526233 36.5872291,31.5526233 C36.1744034,31.5526233 35.8397421,31.1449631 35.8397421,30.6420889 C35.8397421,30.1392146 36.1744034,29.7315545 36.5872291,29.7315545 C36.9988606,29.7350488 37.3318474,30.1406692 37.334716,30.6420889 Z M39.0244577,29.7315545 C38.6153689,29.749112 38.2939677,30.1642162 38.3034933,30.6627127 C38.3130188,31.1612092 38.6499274,31.5576477 39.0592438,31.5520002 C39.4685603,31.5463528 39.7980109,31.1407203 39.7982647,30.6420889 C39.7969284,30.3955038 39.7141155,30.1599671 39.5685183,29.9886436 C39.4229211,29.8173202 39.2268124,29.7246515 39.0244577,29.7315545 L39.0244577,29.7315545 Z M41.4616864,29.7315545 C41.0488608,29.7315545 40.7141994,30.1392146 40.7141994,30.6420889 C40.7141994,31.1449631 41.0488608,31.5526233 41.4616864,31.5526233 C41.8745121,31.5526233 42.2091734,31.1449631 42.2091734,30.6420889 C42.2091734,30.1392146 41.8745121,29.7315545 41.4616864,29.7315545 Z" id="Shape" fill="#FFFFFF"></path>
                    <rect id="Rectangle" fill="#E6F4FF" style="mix-blend-mode: multiply;" x="2.17274784" y="87.1061947" width="45.4959382" height="30.9642857" rx="11.41"></rect>
                    <rect id="Rectangle" fill="url(#linearGradient-22)" x="0.352910312" y="87.1061947" width="45.4959382" height="30.9642857" rx="11.41"></rect>
                    <path d="M16.7317069,109.457266 L16.7317069,96.6520659 C16.7220845,96.1638996 16.9814005,95.7100859 17.4063304,95.471447 C17.8312603,95.2328081 18.3527517,95.2481235 18.7630162,95.5112907 L28.8569738,101.933855 C29.2390115,102.177879 29.4703107,102.600555 29.4703107,103.054666 C29.4703107,103.508777 29.2390115,103.931453 28.8569738,104.175478 L18.7630162,110.58093 C18.3546965,110.838229 17.8391996,110.852946 17.4169336,110.61936 C16.9946677,110.385775 16.7322527,109.940738 16.7317069,109.457266 L16.7317069,109.457266 Z" id="Path" fill="#FFFFFF"></path>
                    <path d="M11.3651649,47.0347661 L24.821583,47.0347661 C25.8791001,47.0347661 26.7373005,47.8579132 26.7405544,48.8753676 L26.7405544,57.6920761 C26.7405544,58.7117497 25.8814017,59.5383584 24.821583,59.5383584 L23.847336,59.5383584 L25.9611568,61.6061947 L20.4345191,59.515635 L11.3651649,59.515635 C10.3154863,59.5156783 9.46181719,58.7019504 9.45209794,57.6920761 L9.45209794,48.8753676 C9.45209794,47.8588315 10.3086072,47.0347661 11.3651649,47.0347661 L11.3651649,47.0347661 Z" id="Path" fill="#E6F4FF" style="mix-blend-mode: multiply;"></path>
                    <rect id="Rectangle" fill="#028ACE" transform="translate(17.186407, 52.499052) rotate(180.000000) translate(-17.186407, -52.499052) " x="8.54217918" y="46.1240518" width="17.2884565" height="12.75" rx="3.79"></rect>
                    <polyline id="Path" fill="#028ACE" points="20.6559412 57.9633375 23.1008794 60.6954804 16.731448 57.9633375"></polyline>
                    <path d="M23.4498282,50.7939776 L9.95264783,50.7939776 C9.67620176,50.7939776 9.45209794,50.5660735 9.45209794,50.2849396 C9.45209794,50.0028206 9.67525189,49.7731933 9.95264783,49.7699129 L23.4498282,49.7699129 C23.6427111,49.7486683 23.8305768,49.8413518 23.9335604,50.008562 C24.0365441,50.1757722 24.0365441,50.3881183 23.9335604,50.5553285 C23.8305768,50.7225387 23.6427111,50.8152222 23.4498282,50.7939776 L23.4498282,50.7939776 Z M23.956302,52.9558921 C23.956302,52.8198428 23.9027322,52.6894511 23.8075834,52.5938139 C23.7124346,52.4981767 23.5835996,52.4452535 23.4498282,52.4468541 L9.95264783,52.4468541 C9.69555936,52.4751704 9.50074038,52.6959094 9.50074038,52.9588864 C9.50074038,53.2218635 9.69555936,53.4426025 9.95264783,53.4709188 L23.4498282,53.4709188 C23.5846269,53.4725413 23.7143706,53.4188009 23.8096943,53.3218607 C23.905018,53.2249205 23.9578623,53.0929766 23.956302,52.9558921 L23.956302,52.9558921 Z M23.9562669,55.6328333 C23.9562669,55.3483919 23.7295266,55.1178066 23.4498282,55.1178066 L9.95264783,55.1178066 C9.67525189,55.121087 9.45209794,55.3507143 9.45209794,55.6328333 C9.45209794,55.9139672 9.67620176,56.1418713 9.95264783,56.1418713 L23.4498282,56.1418713 C23.7240249,56.1452288 23.9498346,55.9236006 23.9562669,55.6448107 L23.9562669,55.6328333 Z" id="Shape" fill="#DEF2FB"></path>
                    <path d="M204.986154,8.78476612 L191.528435,8.78476612 C191.020207,8.78476612 190.532881,8.97976747 190.174064,9.32671791 C189.815247,9.67366834 189.614454,10.1440268 189.616013,10.6339322 L189.616013,19.4416524 C189.616013,20.4597762 190.472239,21.2851287 191.528435,21.2851287 L192.508251,21.2851287 L190.395153,23.3561947 L195.902194,21.2851287 L204.986154,21.2851287 C206.04331,21.2851335 206.901217,20.4606959 206.90447,19.4416524 L206.90447,10.6339322 C206.90447,9.61266597 206.045611,8.78476612 204.986154,8.78476612 Z" id="Path" fill="#E6F4FF" style="mix-blend-mode: multiply;"></path>
                    <rect id="Rectangle" fill="#028ACE" x="187.796176" y="7.87405183" width="17.2884565" height="12.75" rx="3.79"></rect>
                    <polyline id="Path" fill="#028ACE" points="192.968858 19.7133375 190.525932 22.4454804 196.895363 19.7133375"></polyline>
                    <path d="M189.670319,12.0314554 C189.673487,11.7486291 189.897445,11.5201416 190.174665,11.516909 L203.616062,11.516909 C203.894604,11.516909 204.120407,11.7472792 204.120407,12.0314554 C204.120407,12.3156315 203.894604,12.5460018 203.616062,12.5460018 L190.174665,12.5460018 C189.897445,12.5427691 189.673487,12.3142817 189.670319,12.0314554 L189.670319,12.0314554 Z M190.174665,15.2144633 L203.616062,15.2144633 C203.808147,15.235688 203.995237,15.143091 204.097795,14.9760367 C204.200353,14.8089825 204.200353,14.5968344 204.097795,14.4297801 C203.995237,14.2627259 203.808147,14.1701289 203.616062,14.1913536 L190.174665,14.1913536 C189.982579,14.1701289 189.79549,14.2627259 189.692932,14.4297801 C189.590374,14.5968344 189.590374,14.8089825 189.692932,14.9760367 C189.79549,15.143091 189.982579,15.235688 190.174665,15.2144633 L190.174665,15.2144633 Z M190.174665,17.8889079 L203.616062,17.8889079 C203.808147,17.9101326 203.995237,17.8175356 204.097795,17.6504813 C204.200353,17.4834271 204.200353,17.271279 204.097795,17.1042247 C203.995237,16.9371705 203.808147,16.8445735 203.616062,16.8657982 L190.174665,16.8657982 C189.982579,16.8445735 189.79549,16.9371705 189.692932,17.1042247 C189.590374,17.271279 189.590374,17.4834271 189.692932,17.6504813 C189.79549,17.8175356 189.982579,17.9101326 190.174665,17.8889079 L190.174665,17.8889079 Z" id="Shape" fill="#DEF2FB"></path>
                    <rect id="Rectangle" fill="#E6F4FF" style="mix-blend-mode: multiply;" x="44.0290109" y="96.2133375" width="31.8471567" height="21.8571429" rx="2.77"></rect>
                    <rect id="Rectangle" fill="#FFCC00" x="42.2091734" y="96.2133375" width="31.8471567" height="21.8571429" rx="2.77"></rect>
                    <path d="M44.0290109,116.249052 L58.0812156,101.7784 C58.2194044,101.644031 58.44121,101.644031 58.5793989,101.7784 L72.2364926,115.915418 L44.0290109,116.249052 Z" id="Path" fill="#FFCC00" opacity="0.22" style="mix-blend-mode: multiply;"></path>
                    <path d="M43.3886585,117.512426 L56.8997895,104.724495 C57.3395211,104.304856 58.019255,104.304856 58.4589866,104.724495 L71.9758498,117.512426 C72.2239138,117.75195 72.3037737,118.123534 72.1769978,118.448356 C72.0502218,118.773177 71.742776,118.984708 71.4026156,118.981195 L43.9446957,118.981195 C43.6046769,118.983645 43.298462,118.769881 43.1750362,118.443862 C43.0516103,118.117843 43.1366016,117.747264 43.3886585,117.512426 Z" id="Path" fill="#FFDA00"></path>
                    <path d="M56.8670793,109.399467 L43.3286795,97.3393571 C43.1345516,97.1610838 43.0676503,96.8795363 43.1602159,96.6303947 C43.2527815,96.3812532 43.4858221,96.2156345 43.7470335,96.2133375 L72.5146804,96.2133375 C72.7780493,96.2115668 73.0144873,96.3777078 73.1066797,96.6293397 C73.1988721,96.8809717 73.1271994,97.1645448 72.9272239,97.3393571 L59.3713927,109.399467 C58.6518943,110.032247 57.5865777,110.032247 56.8670793,109.399467 L56.8670793,109.399467 Z" id="Path" fill="#FFE356"></path>
                    <path d="M56.8375376,111.371567 L43.1190922,98.0347661 L72.2364926,98.0347661 L58.5180472,111.371567 C58.0381356,111.803452 57.3174492,111.803452 56.8375376,111.371567 Z" id="Path" fill="#FFCC00" opacity="0.22" style="mix-blend-mode: multiply;"></path>
                    <polygon id="Path" fill="#030478" points="204.90716 67.0704804 205.907319 68.4105988 209.634226 69.1026788 204.633433 70.7133375 203.264794 67.8883931"></polygon>
                    <path d="M177.549789,46.6893303 C175.857343,51.3908517 177.549789,52.6958801 180.496979,53.6532808 C181.664183,54.0294025 191.375321,53.1346888 194.275823,54.0351013 C197.176324,54.9355139 203.321654,68.891909 203.321654,68.891909 L205.994551,67.330434 C205.994551,67.330434 199.919254,50.9976336 199.043851,50.4049569 C197.672386,49.4760503 189.659531,48.6953128 187.371811,48.1254314 C185.084091,47.55555 183.245745,45.2133375 183.245745,45.2133375 L177.549789,46.6893303 Z" id="Path" fill="url(#linearGradient-23)"></path>
                    <path d="M178.696988,34.717344 C178.696988,34.717344 179.334572,41.2509546 180.10309,42.6104849 C180.871607,43.9700153 189.866104,46.9587348 190.651699,47.0149138 C191.373208,46.9643903 192.077452,46.7734596 192.723849,46.4531244 C192.723849,46.4531244 194.710609,47.160979 195.040786,47.0149138 C195.370964,46.8688485 193.258965,45.3632529 192.456292,45.2059519 C191.653618,45.0486509 190.418298,45.677855 190.418298,45.677855 C190.418298,45.677855 183.467487,42.818347 182.687584,41.5880282 C181.907682,40.3577095 181.321332,34.2847661 181.321332,34.2847661 L178.696988,34.717344 Z" id="Path" fill="#F8C3C7"></path>
                    <polygon id="Path" fill="#FFCCCC" points="179.621188 28.8204804 178.696988 31.0811724 181.022789 31.5526233 181.426744 29.0022446"></polygon>
                    <path d="M178.988554,26.7725872 C179.011768,26.8528456 179.029426,26.9346592 179.041398,27.0174273 C179.104982,27.6288904 179.305868,28.2173156 179.628548,28.7372796 C179.990105,29.2921491 180.57509,29.6552552 181.225597,29.7285834 C181.813741,29.7577148 182.388208,29.5421163 182.816774,29.1314125 C183.235875,28.7137288 183.550032,28.1996326 183.732729,27.6325134 C184.04979,26.7606438 184.407952,25.667821 183.908874,24.8914988 C183.668142,24.5152811 182.405769,23.8882516 181.507429,23.4762036 C180.960998,23.2303759 180.321086,23.3701846 179.922123,23.8225628 L179.047269,24.82581 C178.719911,25.1977324 178.612481,25.7190135 178.765437,26.1933314 L178.988554,26.7725872 Z" id="Path" fill="#FFCCCC"></path>
                    <path d="M180.334826,24.6877681 C180.06334,24.6367162 179.791988,24.7759082 179.692194,25.0174114 C179.595996,25.2534243 179.612559,25.5166592 179.73769,25.7405001 C179.860929,25.9625807 180.018014,26.166751 180.204025,26.3466185 C179.868492,26.798549 179.305478,27.3621328 179.373722,27.9097661 C178.918761,27.6386079 178.947196,27.2983308 178.594602,26.920836 C177.934909,26.2243315 176.888499,23.4010956 179.265669,22.5876208 C181.796387,19.4985435 185.407637,24.2145703 185.976338,23.9699962 C185.861115,24.9468832 185.007105,25.7025715 183.95745,25.7564506 C183.357552,25.8421619 182.744146,25.7412896 182.211539,25.4693419 C181.961187,25.311692 181.694439,25.1780929 181.415358,25.0705797 C181.204938,25.0067778 180.988832,25.8521535 180.812535,25.7777179 C180.636238,25.7032823 180.550932,24.7356195 180.334826,24.6877681 Z" id="Path" fill="#241D9E"></path>
                    <polygon id="Path" fill="#030478" points="203.997241 67.9811947 204.9974 69.3150215 208.724307 70.0071014 203.723514 71.6240518 202.354876 68.7928157"></polygon>
                    <path d="M177.804815,45.7999132 C176.122385,50.5566883 176.722005,53.4303333 179.65607,54.397813 C180.820381,54.7836531 194.495219,54.8873116 194.495219,54.8873116 L202.42418,69.8026233 L205.084632,68.22471 C205.084632,68.22471 198.517915,51.5817561 197.755291,50.9482872 C196.992667,50.3148184 189.022956,49.2206449 186.752548,48.6447642 C184.482141,48.0688834 183.475011,44.3026233 183.475011,44.3026233 L177.804815,45.7999132 Z" id="Path" fill="url(#linearGradient-24)"></path>
                    <path d="M181.42631,30.5414113 C179.275422,28.6424727 176.668112,29.9498416 176.200279,35.8655382 C175.93395,40.3957576 175.895863,44.9373038 176.086174,49.4716404 C179.788896,50.3708263 183.645661,49.0693731 186.886257,47.5431233 C186.886257,47.5431233 183.868167,43.6210165 183.223471,39.769898 C182.692881,36.6582416 183.194945,32.0794924 181.42631,30.5414113 Z" id="Path" fill="#27A9E0"></path>
                    <path d="M179.799389,35.1954804 C179.105867,35.3233471 178.627736,35.9776779 178.705209,36.6928827 C178.934357,38.7284139 179.427024,42.6123011 179.988435,43.6417651 C180.756079,45.0631275 188.008598,47.8590583 188.804885,47.9175505 C189.374509,47.8972692 189.934847,47.7641699 190.454747,47.5256523 C190.749145,47.4175912 191.071211,47.4175912 191.365609,47.5256523 C191.978578,47.7303753 192.992556,48.0403843 193.221703,47.9175505 C193.548238,47.7362245 191.434353,46.1627823 190.620879,46.02825 C190.09989,45.9836225 189.576212,46.0720685 189.097048,46.285616 C188.740236,46.4258634 188.341553,46.4024195 188.002869,46.2212745 C186.627984,45.4901211 183.213686,43.6008205 182.589259,42.5830549 C182.045034,41.6939723 181.598196,38.3599126 181.369049,36.4121198 C181.324821,36.0386709 181.130757,35.7007219 180.83318,35.4789426 C180.535604,35.2571633 180.161218,35.1714541 179.799389,35.2422742 L179.799389,35.1954804 Z" id="Path" fill="#FFCCCC"></path>
                    <path d="M178.867397,31.603902 C175.777072,32.3015081 177.207899,37.6861552 177.207899,37.6861552 C178.638726,38.1058089 180.40276,37.9423075 182.336663,37.4736034 C181.755185,36.1873921 181.644117,30.9825966 178.867397,31.603902 Z" id="Path" fill="#27A9E0"></path>
                    <path d="M198.375514,48.8561947 L187.511121,48.8561947 C187.166018,48.8561947 186.886257,48.5866801 186.886257,48.254217 C186.886257,47.9217538 187.166018,47.6522392 187.511121,47.6522392 L197.839074,47.6522392 L199.301022,38.3954118 C199.374046,38.0879252 199.681066,37.8868858 200.004718,37.9346252 C200.328371,37.9823646 200.558887,38.2626918 200.533066,38.577141 L198.994484,48.3450815 C198.945516,48.6382695 198.683758,48.8544151 198.375514,48.8561947 Z" id="Path" fill="#FF9A25"></path>
                    <rect id="Rectangle" fill="#E6F4FF" style="mix-blend-mode: multiply;" x="155.949019" y="53.4097661" width="41.8562631" height="64.6607143" rx="7.96"></rect>
                    <rect id="Rectangle" fill="#6D6A6A" x="154.129181" y="53.4097661" width="41.8562631" height="64.6607143" rx="7.96"></rect>
                    <rect id="Rectangle" fill="#FFFFFF" x="154.129181" y="57.0526233" width="41.8562631" height="56.4642857"></rect>
                    <g id="Group" transform="translate(155.949019, 59.784766)">
                        <path d="M35.6196595,1.74553571 L1.35418364,1.74553571 C0.906725113,1.74553571 0.543988302,1.38083433 0.543988302,0.930952381 L0.543988302,0.930952381 C0.543988302,0.480119541 0.905790624,0.113747991 1.35418364,0.110550595 L35.6196595,0.110550595 C36.0703142,0.110550595 36.435642,0.477856986 36.435642,0.930952381 L36.435642,0.930952381 C36.4324618,1.38177388 36.0680638,1.74553571 35.6196595,1.74553571 Z" id="Path" fill="#C2EEFF" opacity="0.69"></path>
                        <path d="M35.6196595,5.30061012 L1.35418364,5.30061012 C0.905790624,5.29741272 0.543988302,4.93104117 0.543988302,4.48020833 L0.543988302,4.48020833 C0.543988302,4.03032638 0.906725113,3.665625 1.35418364,3.665625 L35.6196595,3.665625 C36.0680638,3.665625 36.4324618,4.02938683 36.435642,4.48020833 L36.435642,4.48020833 C36.435642,4.93330373 36.0703142,5.30061012 35.6196595,5.30061012 Z" id="Path" fill="#C2EEFF" opacity="0.69"></path>
                        <path d="M35.6196595,8.87313988 L1.35418364,8.87313988 C0.906725113,8.87313988 0.543988302,8.5084385 0.543988302,8.05855655 L0.543988302,8.05855655 C0.543988302,7.60772371 0.905790624,7.24135216 1.35418364,7.23815476 L35.6196595,7.23815476 C36.0703142,7.23815476 36.435642,7.60546115 36.435642,8.05855655 L36.435642,8.05855655 C36.4324618,8.50937805 36.0680638,8.87313988 35.6196595,8.87313988 Z" id="Path" fill="#C2EEFF" opacity="0.69"></path>
                        <path d="M35.6196595,12.4514881 L1.35418364,12.4514881 C0.905790624,12.4482907 0.543988302,12.0819191 0.543988302,11.6310863 L0.543988302,11.6310863 C0.543988302,11.1812044 0.906725113,10.816503 1.35418364,10.816503 L35.6196595,10.816503 C35.8400539,10.8102142 36.0535993,10.8938649 36.2116694,11.048407 C36.3697395,11.202949 36.4587905,11.4152275 36.4587905,11.6369048 L36.4587905,11.6369048 C36.4573223,11.8575709 36.3674991,12.0683383 36.2096032,12.2216153 C36.0517072,12.3748922 35.8390535,12.4577532 35.6196595,12.4514881 Z" id="Path" fill="#C2EEFF" opacity="0.69"></path>
                        <rect id="Rectangle" fill="#27A9E0" x="0.543988302" y="14.2726637" width="35.8916537" height="27.4921875" rx="4.57"></rect>
                    </g>
                    <path d="M190.406067,110.784766 L158.79864,110.784766 C157.727372,110.784766 156.858938,109.922888 156.858938,108.859708 L156.858938,108.541704 C156.858938,107.478523 157.727372,106.616645 158.79864,106.616645 L190.406067,106.616645 C191.477335,106.616645 192.345769,107.478523 192.345769,108.541704 L192.345769,108.859708 C192.345769,109.922888 191.477335,110.784766 190.406067,110.784766 L190.406067,110.784766 Z M191.550434,103.499073 L157.642829,103.499073 C157.209898,103.499073 156.858938,103.847383 156.858938,104.277046 L156.858938,104.277046 C156.858938,104.706709 157.209898,105.05502 157.642829,105.05502 L191.556156,105.05502 C191.765046,105.056533 191.965905,104.975237 192.114154,104.829174 C192.262402,104.683111 192.345769,104.484365 192.345769,104.277046 L192.345769,104.277046 C192.345769,104.069727 192.262402,103.870981 192.114154,103.724918 C191.965905,103.578856 191.765046,103.497559 191.556156,103.499073 L191.550434,103.499073 Z" id="Shape" fill="#C2EEFF" opacity="0.55"></path>
                    <path d="M34.0199045,70.0359156 C36.4346596,66.9841222 38.0984415,63.2568978 38.8421056,59.2331624 L40.3893359,58.8740518 C40.3893359,58.8740518 39.7807586,67.4338355 37.2948753,70.3950262 C34.808992,73.3562168 34.0199045,70.0359156 34.0199045,70.0359156 Z" id="Path" fill="url(#linearGradient-25)"></path>
                    <path d="M39.44412,58.8740518 C38.7427906,58.4614488 38.4251305,57.7771274 38.6316338,57.1237482 C39.0135024,56.0182933 39.9559863,55.8954649 39.8097388,56.5096066 C39.7231977,56.9014896 39.8523512,57.3030812 40.1672327,57.6212029 C40.3899257,57.9729278 40.4472472,58.3715467 40.32973,58.7512235 L39.44412,58.8740518 Z" id="Path" fill="#FFCCCC"></path>
                    <path d="M34.3128815,66.4042532 C34.4650041,66.6854133 34.0199045,68.891909 34.0199045,68.891909 L35.8397421,68.3601496 L35.4284475,66.1597661 L34.3128815,66.4042532 Z" id="Path" fill="#FFCCCC"></path>
                    <path d="M34.1545631,66.1597661 C33.4429686,66.1370911 32.7456,65.966711 32.1127105,65.6609035 L30.5411027,64.5007579 L30.3802295,61.8614267 L33.6038816,59.7847661 C33.6038816,59.7847661 38.2444557,65.5680919 34.1545631,66.1597661 Z" id="Path" fill="#FFCCCC"></path>
                    <path d="M31.5917679,63.2539616 C33.9011332,62.2533851 35.2161461,60.1355993 34.8769155,57.9633375 C34.2845289,58.4797899 33.5547443,58.8695319 32.7481399,59.1002117 C31.9446427,59.333142 31.1888288,59.6698913 30.5076692,60.0984426 C29.8205101,60.5446517 29.4776375,61.2724209 29.6141091,61.9950815 C28.6942678,62.2335477 28.3986045,63.2484159 28.6417054,64.0248177 C28.9053791,64.8632301 29.5824022,65.5659301 30.501099,65.9547309 C31.41437,66.3373861 32.7087181,66.1266485 33.6417,65.7939048 C32.7481399,65.5720757 31.013582,64.6847593 32.439336,64.38529 C32.2033698,63.984719 31.9193617,63.6056269 31.5917679,63.2539616 L31.5917679,63.2539616 Z" id="Path" fill="#030478"></path>
                    <path d="M32.200067,68.891909 C32.200067,68.6842543 32.9267383,67.3255991 32.9267383,67.3255991 L36.5411378,67.0704804 L36.7496608,68.0256921 L32.200067,68.891909 Z" id="Path" fill="#FFFFFF"></path>
                    <polygon id="Path" fill="#030478" points="36.8863439 114.776017 36.9449224 116.322398 40.3893359 118.07048 34.9298233 118.009359 35.6210492 114.427623"></polygon>
                    <polygon id="Path" fill="#030478" points="26.5980135 114.776017 26.5452929 116.322398 23.1008794 118.07048 28.560392 118.009359 27.8691661 114.427623"></polygon>
                    <path d="M33.2102701,85.3782069 C33.212835,85.3471191 33.212835,85.315854 33.2102701,85.2847661 L32.1448647,85.3314865 L31.1567426,85.2906062 C31.1567426,85.2906062 31.1567426,85.3431666 31.1567426,85.3723669 L26.7405544,85.5650886 L26.7405544,117.153926 L28.7554403,116.990405 C28.7554403,116.990405 30.8752106,102.571318 32.200067,93.122115 C33.5249235,102.571318 35.650214,116.990405 35.650214,116.990405 L37.6595796,117.159766 L37.6595796,85.5650886 L33.2102701,85.3782069 Z" id="Path" fill="#414040"></path>
                    <path d="M51.308361,63.2350582 C51.308361,63.2350582 51.6379058,62.085809 52.3096702,62.0226002 L52.1132108,62.7006573 C52.6015227,62.4357228 53.0313069,62.0908437 53.3806908,61.6835717 C53.6722112,61.2181257 54.508748,62.9764771 53.684886,63.6545342 C53.29548,64.031378 52.77326,64.2732122 52.2082718,64.3383375 L51.308361,63.2350582 Z" id="Path" fill="#FFCCCC"></path>
                    <path d="M24.9207169,89.8383375 C24.9207169,89.8383375 28.9495349,70.6700077 33.0531739,68.2254174 C34.6474347,67.2715702 39.2978418,68.1568775 43.5050789,67.2601469 C49.0533369,66.0721217 51.4015623,63.4276233 51.4015623,63.4276233 L53.1281986,64.5242619 C53.1281986,64.5242619 49.738236,69.1849762 39.0158246,72.1664625 C36.7711974,78.2036868 38.7222964,89.8383375 38.7222964,89.8383375 C38.7222964,89.8383375 29.0876658,89.0501285 24.9207169,89.8383375 Z" id="Path" fill="#308DFC"></path>
                    <path d="M143.210156,88.0019618 C142.539976,88.1665743 138.546141,86.9496179 136.840725,85.4328317 C136.840725,85.4328317 139.052863,76.5731541 138.992928,74.380281 C138.932993,72.1874079 140.022716,67.6017751 141.482945,71.0409997 C142.943174,74.4802242 143.210156,88.0019618 143.210156,88.0019618 Z" id="Path" fill="url(#linearGradient-26)"></path>
                    <polygon id="Path" fill="#030478" points="142.668969 114.919163 142.760437 116.64638 139.570481 118.981195 145.029994 118.981195 144.229646 114.427623"></polygon>
                    <path d="M145.938748,83.4633375 C145.988587,86.1467185 144.421439,115.864867 144.421439,115.864867 L142.433433,116.249052 L139.570481,83.7765957 L145.938748,83.4633375 Z" id="Path" fill="#6D6A6A"></path>
                    <polygon id="Path" fill="#030478" points="139.962092 114.919163 140.048476 116.64638 136.840725 118.981195 142.300237 118.762732 141.528534 114.427623"></polygon>
                    <path d="M144.118398,83.4633375 C144.183176,86.1467185 142.349937,115.864867 142.349937,115.864867 L140.017901,116.249052 L137.750644,83.5283534 L144.118398,83.4633375 Z" id="Path" fill="#6D6A6A"></path>
                    <path d="M144.120075,87.0961452 C140.041804,87.229373 138.055089,86.0013605 137.829683,85.5785071 C137.604277,85.1556537 137.918797,84.8486506 138.055089,84.2693994 C138.579288,81.9523946 139.947448,76.0382399 139.90027,74.3120713 C139.842609,72.1572569 140.891007,67.633305 142.295861,71.0219245 C143.700715,74.410544 144.120075,87.0961452 144.120075,87.0961452 Z" id="Path" fill="#FFFFFF"></path>
                    <polygon id="Path" fill="#FDB42C" points="120.462187 75.6430918 132.098499 85.2847661 135.020887 79.9947477 124.910843 72.5347661"></polygon>
                    <polygon id="Path" fill="#FFFFFF" points="121.372106 76.139813 131.692628 84.3740518 134.110968 80.2457294 124.869049 73.4454804"></polygon>
                    <polygon id="Path" fill="#00D1FF" points="120.462187 74.8645003 120.977539 75.266909 124.101862 72.8595169 123.683138 72.5347661"></polygon>
                    <path d="M128.85009,69.9822549 L128.651456,71.8318835 C128.651456,71.8318835 136.246283,79.3169302 143.210156,72.1888294 L142.701887,67.9811947 C142.701887,67.9811947 138.27936,76.5046294 128.85009,69.9822549 Z" id="Path" fill="url(#linearGradient-27)"></path>
                    <path d="M128.651456,70.5359888 C127.817554,70.2087036 127.481959,69.209315 127.019245,70.2963693 C126.170089,72.300991 128.478574,72.5347661 128.478574,72.5347661 L128.651456,70.5359888 Z" id="Path" fill="#FFCCCC"></path>
                    <path d="M127.302156,65.4669915 L125.9217,70.886939 L125.952955,71.6240518 L126.385325,71.0549573 L127.734525,65.6350099 C127.791827,65.2339338 127.48448,65.0930151 127.302156,65.4669915 Z" id="Path" fill="#030478"></path>
                    <path d="M128.136652,70.525366 C128.136652,70.525366 126.955633,70.8380992 126.840559,70.6568046 C126.725485,70.47551 127.755092,70.1355826 127.98524,69.8636407 C128.215387,69.5916988 128.651456,70.3168772 128.651456,70.3168772 L128.136652,70.525366 Z" id="Path" fill="#FFCCCC"></path>
                    <polygon id="Path" fill="#FFCCCC" points="139.570481 64.5368085 140.914468 67.0704804 142.126146 66.209032 142.300237 63.4276233"></polygon>
                    <path d="M138.10541,60.3852232 C137.631734,63.2244063 137.295024,65.1248737 139.406593,65.2458125 C141.324127,65.3609924 142.967726,62.3663165 142.967726,62.3663165 C144.41729,59.026101 138.92721,55.4670439 138.10541,60.3852232 Z" id="Path" fill="#FFCCCC"></path>
                    <path d="M136.840725,58.0966792 C138.602109,60.7250276 141.090909,61.1211534 141.865087,60.8481478 C142.228795,60.7196745 142.239186,61.1211534 142.093703,61.9187581 C143.070518,61.4583957 142.722398,62.732422 142.01057,63.1981375 C141.869548,63.5668087 141.763407,63.948647 141.693625,64.3383375 C141.693625,64.3383375 144.114879,62.732422 144.120075,61.0087393 C144.120075,58.9210491 142.628873,59.1565834 142.628873,59.1565834 C142.628873,59.1565834 141.740387,56.3408782 139.287958,57.2241317 L136.840725,58.0966792 Z" id="Path" fill="#030478"></path>
                    <polygon id="Path" fill="#FFFFFF" points="140.112099 66.7898012 143.233175 65.2490518 144.120075 66.6524476 139.570481 68.891909"></polygon>
                    <path d="M127.741537,80.5692514 L128.060624,82.9432673 C127.983807,83.006345 136.551872,86.1487622 140.197731,76.8419318 C139.635094,80.4815214 138.865751,84.0881779 137.893217,87.6454244 C140.993101,88.8892058 144.397189,89.2376722 147.696265,88.6489335 C147.696265,88.6489335 148.458528,72.1627122 144.700397,67.0132768 C142.70906,64.2837319 139.920008,68.7335781 139.228653,71.4917946 C138.330484,74.9954751 136.250512,82.7827059 127.741537,80.5692514 Z" id="Path" fill="url(#linearGradient-28)"></path>
                    <path d="M127.398891,80.0079031 C127.398891,80.0079031 125.812564,79.6106431 125.216105,79.9728508 C124.619646,80.3350584 125.450881,81.5151543 126.148865,82.181149 C126.571097,82.5627845 127.207363,82.6608074 127.741537,82.4265155 L127.398891,80.0079031 Z" id="Path" fill="#FFCCCC"></path>
                </g>
            </g>
        </g>
    </g>
</svg>