<?xml version="1.0" encoding="UTF-8"?>
<svg width="34px" height="34px" viewBox="0 0 34 34" version="1.1" xmlns="http://www.w3.org/2000/svg" xmlns:xlink="http://www.w3.org/1999/xlink">
    <!-- Generator: Sketch 59.1 (86144) - https://sketch.com -->
    <title>Fill 97 Copy</title>
    <desc>Created with Sketch.</desc>
    <g id="Products-Page" stroke="none" stroke-width="1" fill="none" fill-rule="evenodd">
        <path d="M27.162,1 L6.821,1 L1.008,11 L32.975,11 L27.162,1 L27.162,1 Z M30.008,25 L4.011,25 L4.008,19 L5.972,19 C7.046,19 8.749,18.042 9.47,16.576 C10.279,18.001 11.789,19 13.231,19 C14.754,19 16.431,18.094 16.991,16.784 C17.552,18.063 19.194,19 20.686,19 C22.166,19 23.699,17.912 24.475,16.426 C25.382,17.926 26.673,19 28.008,19 C28.301,19 29.752,19.048 30.008,19 L30.008,25 L30.008,25 Z M1.033,13 L1.008,13 C0.99,13.435 1.008,14.431 1.008,15 C1.008,16.065 1.391,17.229 2.009,18 L2.039,29 C2.039,31.209 3.886,33 6.164,33 L27.819,33 C30.097,33 32.008,31.209 32.008,29 L32.008,18 C32.708,17.176 33.008,16.33 33.008,15 L33.008,13 L1.033,13 L1.033,13 Z" id="Fill-97-Copy" stroke="#979797"></path>
    </g>
</svg>