<?xml version="1.0" encoding="UTF-8"?>
<svg width="164px" height="118px" viewBox="0 0 164 118" version="1.1" xmlns="http://www.w3.org/2000/svg" xmlns:xlink="http://www.w3.org/1999/xlink">
    <!-- Generator: Sketch 59.1 (86144) - https://sketch.com -->
    <title>Stock Entry</title>
    <desc>Created with Sketch.</desc>
    <defs>
        <polygon id="path-1" points="0 0.36730198 163.999764 0.36730198 163.999764 94.8725495 0 94.8725495"></polygon>
        <polygon id="path-3" points="0 119 164 119 164 1 0 1"></polygon>
    </defs>
    <g id="Products-Page" stroke="none" stroke-width="1" fill="none" fill-rule="evenodd">
        <g id="Products-Page-Inventory" transform="translate(-195.000000, -939.000000)">
            <g id="Stock-Entry" transform="translate(195.000000, 939.000000)">
                <g id="Group-3">
                    <mask id="mask-2" fill="white">
                        <use xlink:href="#path-1"></use>
                    </mask>
                    <g id="Clip-2"></g>
                    <path d="M159.260305,94.8725495 L4.74016715,94.8725495 C2.12231124,94.8725495 -0.000236311239,92.7609158 -0.000236311239,90.1559406 L-0.000236311239,5.08391089 C-0.000236311239,2.47893564 2.12231124,0.36730198 4.74016715,0.36730198 L159.260305,0.36730198 C161.877689,0.36730198 163.999764,2.47893564 163.999764,5.08391089 L163.999764,90.1559406 C163.999764,92.7609158 161.877689,94.8725495 159.260305,94.8725495" id="Fill-1" fill="#383838" mask="url(#mask-2)"></path>
                </g>
                <mask id="mask-4" fill="white">
                    <use xlink:href="#path-3"></use>
                </mask>
                <g id="Clip-5"></g>
                <polygon id="Fill-4" fill="#FFFFFF" mask="url(#mask-4)" points="6 90 159 90 159 5 6 5"></polygon>
                <polygon id="Fill-6" fill="#DEDEDE" mask="url(#mask-4)" points="6 12 159 12 159 5 6 5"></polygon>
                <path d="M100.72665,18.6447803 L100.505135,18.6447803 L100.505135,18 L96.8804266,18 L96.8804266,18.6447803 L87.2738344,18.6447803 C86.5705111,18.6447803 86,19.2007558 86,19.8861597 L86,26.7590931 C86,27.4444969 86.5705111,28 87.2738344,28 L100.72665,28 C101.429489,28 102,27.4444969 102,26.7590931 L102,19.8861597 C102,19.2007558 101.429489,18.6447803 100.72665,18.6447803" id="Fill-7" fill="#F97F40" mask="url(#mask-4)"></path>
                <path d="M100.142551,28 L87.2151833,28 C86.5393064,28 85.7916962,27.4655895 85.5457535,26.8062106 L83.0788728,20.1942439 C82.83293,19.5348649 83.181349,19 83.8572258,19 L96.7850593,19 C97.4609361,19 98.2085463,19.5348649 98.4544891,20.1942439 L100.92137,26.8062106 C101.166847,27.4655895 100.818428,28 100.142551,28" id="Fill-8" fill="#FAAF41" mask="url(#mask-4)"></path>
                <path d="M123.726166,18.6447803 L123.505135,18.6447803 L123.505135,18 L119.880427,18 L119.880427,18.6447803 L110.273834,18.6447803 C109.570511,18.6447803 109,19.2007558 109,19.8861597 L109,26.7590931 C109,27.4444969 109.570511,28 110.273834,28 L123.726166,28 C124.429489,28 125,27.4444969 125,26.7590931 L125,19.8861597 C125,19.2007558 124.429489,18.6447803 123.726166,18.6447803" id="Fill-9" fill="#F97F40" mask="url(#mask-4)"></path>
                <path d="M123.142374,28 L110.21514,28 C109.53927,28 108.791667,27.4655895 108.545727,26.8062106 L106.078872,20.1942439 C105.832932,19.5348649 106.181347,19 106.857217,19 L119.784917,19 C120.460787,19 121.208389,19.5348649 121.454329,20.1942439 L123.921185,26.8062106 C124.167125,27.4655895 123.818244,28 123.142374,28" id="Fill-10" fill="#FAAF41" mask="url(#mask-4)"></path>
                <path d="M146.72665,18.6447803 L146.505135,18.6447803 L146.505135,18 L142.880427,18 L142.880427,18.6447803 L133.273834,18.6447803 C132.570511,18.6447803 132,19.2007558 132,19.8861597 L132,26.7590931 C132,27.4444969 132.570511,28 133.273834,28 L146.72665,28 C147.429974,28 148,27.4444969 148,26.7590931 L148,19.8861597 C148,19.2007558 147.429974,18.6447803 146.72665,18.6447803" id="Fill-11" fill="#F97F40" mask="url(#mask-4)"></path>
                <path d="M146.142374,28 L133.21514,28 C132.53927,28 131.791667,27.4655895 131.545727,26.8062106 L129.078872,20.1942439 C128.832932,19.5348649 129.181347,19 129.857217,19 L142.784917,19 C143.460787,19 144.208389,19.5348649 144.454329,20.1942439 L146.921185,26.8062106 C147.167125,27.4655895 146.818244,28 146.142374,28" id="Fill-12" fill="#FAAF41" mask="url(#mask-4)"></path>
                <path d="M100.72665,32.6452222 L100.505135,32.6452222 L100.505135,32 L96.8804266,32 L96.8804266,32.6452222 L87.2738344,32.6452222 C86.5705111,32.6452222 86,33.2006991 86,33.8860706 L86,40.7591517 C86,41.4440508 86.5705111,42 87.2738344,42 L100.72665,42 C101.429489,42 102,41.4440508 102,40.7591517 L102,33.8860706 C102,33.2006991 101.429489,32.6452222 100.72665,32.6452222" id="Fill-13" fill="#F97F40" mask="url(#mask-4)"></path>
                <path d="M100.142551,42 L87.2151833,42 C86.5393064,42 85.7916962,41.4651351 85.5457535,40.8062106 L83.0788728,34.1937894 C82.83293,33.5344105 83.181349,33 83.8572258,33 L96.7850593,33 C97.4609361,33 98.2085463,33.5344105 98.4544891,34.1937894 L100.92137,40.8062106 C101.166847,41.4651351 100.818428,42 100.142551,42" id="Fill-14" fill="#FAAF41" mask="url(#mask-4)"></path>
                <path d="M123.726166,32.6452222 L123.505135,32.6452222 L123.505135,32 L119.880427,32 L119.880427,32.6452222 L110.273834,32.6452222 C109.570511,32.6452222 109,33.2006991 109,33.8860706 L109,40.7591517 C109,41.4440508 109.570511,42 110.273834,42 L123.726166,42 C124.429489,42 125,41.4440508 125,40.7591517 L125,33.8860706 C125,33.2006991 124.429489,32.6452222 123.726166,32.6452222" id="Fill-15" fill="#F97F40" mask="url(#mask-4)"></path>
                <path d="M123.142374,42 L110.21514,42 C109.53927,42 108.791667,41.4651351 108.545727,40.8062106 L106.078872,34.1937894 C105.832932,33.5344105 106.181347,33 106.857217,33 L119.784917,33 C120.460787,33 121.208389,33.5344105 121.454329,34.1937894 L123.921185,40.8062106 C124.167125,41.4651351 123.818244,42 123.142374,42" id="Fill-16" fill="#FAAF41" mask="url(#mask-4)"></path>
                <path d="M146.72665,32.6452222 L146.505135,32.6452222 L146.505135,32 L142.880427,32 L142.880427,32.6452222 L133.273834,32.6452222 C132.570511,32.6452222 132,33.2006991 132,33.8860706 L132,40.7591517 C132,41.4440508 132.570511,42 133.273834,42 L146.72665,42 C147.429974,42 148,41.4440508 148,40.7591517 L148,33.8860706 C148,33.2006991 147.429974,32.6452222 146.72665,32.6452222" id="Fill-17" fill="#F97F40" mask="url(#mask-4)"></path>
                <path d="M146.142374,42 L133.21514,42 C132.53927,42 131.791667,41.4651351 131.545727,40.8062106 L129.078872,34.1937894 C128.832932,33.5344105 129.181347,33 129.857217,33 L142.784917,33 C143.460787,33 144.208389,33.5344105 144.454329,34.1937894 L146.921185,40.8062106 C147.167125,41.4651351 146.818244,42 146.142374,42" id="Fill-18" fill="#FAAF41" mask="url(#mask-4)"></path>
                <path d="M100.72665,46.6447803 L100.505135,46.6447803 L100.505135,46 L96.8804266,46 L96.8804266,46.6447803 L87.2738344,46.6447803 C86.5705111,46.6447803 86,47.2002834 86,47.8856873 L86,54.7590931 C86,55.4444969 86.5705111,56 87.2738344,56 L100.72665,56 C101.429489,56 102,55.4444969 102,54.7590931 L102,47.8856873 C102,47.2002834 101.429489,46.6447803 100.72665,46.6447803" id="Fill-19" fill="#F97F40" mask="url(#mask-4)"></path>
                <path d="M100.142551,55 L87.2151833,55 C86.5393064,55 85.7916962,54.4655895 85.5457535,53.8062106 L83.0788728,47.1937894 C82.83293,46.5344105 83.181349,46 83.8572258,46 L96.7850593,46 C97.4609361,46 98.2085463,46.5344105 98.4544891,47.1937894 L100.92137,53.8062106 C101.166847,54.4655895 100.818428,55 100.142551,55" id="Fill-20" fill="#FAAF41" mask="url(#mask-4)"></path>
                <path d="M123.726166,46.6447803 L123.505135,46.6447803 L123.505135,46 L119.880427,46 L119.880427,46.6447803 L110.273834,46.6447803 C109.570511,46.6447803 109,47.2002834 109,47.8856873 L109,54.7590931 C109,55.4444969 109.570511,56 110.273834,56 L123.726166,56 C124.429489,56 125,55.4444969 125,54.7590931 L125,47.8856873 C125,47.2002834 124.429489,46.6447803 123.726166,46.6447803" id="Fill-21" fill="#F97F40" mask="url(#mask-4)"></path>
                <path d="M123.142374,55 L110.21514,55 C109.53927,55 108.791667,54.4655895 108.545727,53.8062106 L106.078872,47.1937894 C105.832932,46.5344105 106.181347,46 106.857217,46 L119.784917,46 C120.460787,46 121.208389,46.5344105 121.454329,47.1937894 L123.921185,53.8062106 C124.167125,54.4655895 123.818244,55 123.142374,55" id="Fill-22" fill="#FAAF41" mask="url(#mask-4)"></path>
                <path d="M146.72665,46.6447803 L146.505135,46.6447803 L146.505135,46 L142.880427,46 L142.880427,46.6447803 L133.273834,46.6447803 C132.570511,46.6447803 132,47.2002834 132,47.8856873 L132,54.7590931 C132,55.4444969 132.570511,56 133.273834,56 L146.72665,56 C147.429974,56 148,55.4444969 148,54.7590931 L148,47.8856873 C148,47.2002834 147.429974,46.6447803 146.72665,46.6447803" id="Fill-23" fill="#F97F40" mask="url(#mask-4)"></path>
                <path d="M146.142374,55 L133.21514,55 C132.53927,55 131.791667,54.4655895 131.545727,53.8062106 L129.078872,47.1937894 C128.832932,46.5344105 129.181347,46 129.857217,46 L142.784917,46 C143.460787,46 144.208389,46.5344105 144.454329,47.1937894 L146.921185,53.8062106 C147.167125,54.4655895 146.818244,55 146.142374,55" id="Fill-24" fill="#FAAF41" mask="url(#mask-4)"></path>
                <path d="M100.72665,59.6447499 L100.505135,59.6447499 L100.505135,59 L96.8804266,59 L96.8804266,59.6447499 L87.2738344,59.6447499 C86.5705111,59.6447499 86,60.2006991 86,60.8860706 L86,67.7586793 C86,68.4440508 86.5705111,69 87.2738344,69 L100.72665,69 C101.429489,69 102,68.4440508 102,67.7586793 L102,60.8860706 C102,60.2006991 101.429489,59.6447499 100.72665,59.6447499" id="Fill-25" fill="#F97F40" mask="url(#mask-4)"></path>
                <path d="M100.142551,69 L87.2151833,69 C86.5393064,69 85.7916962,68.4651621 85.5457535,67.8058164 L83.0788728,61.1941836 C82.83293,60.5348379 83.181349,60 83.8572258,60 L96.7850593,60 C97.4609361,60 98.2085463,60.5348379 98.4544891,61.1941836 L100.92137,67.8058164 C101.166847,68.4651621 100.818428,69 100.142551,69" id="Fill-26" fill="#FAAF41" mask="url(#mask-4)"></path>
                <path d="M123.726166,59.6447499 L123.505135,59.6447499 L123.505135,59 L119.880427,59 L119.880427,59.6447499 L110.273834,59.6447499 C109.570511,59.6447499 109,60.2006991 109,60.8860706 L109,67.7586793 C109,68.4440508 109.570511,69 110.273834,69 L123.726166,69 C124.429489,69 125,68.4440508 125,67.7586793 L125,60.8860706 C125,60.2006991 124.429489,59.6447499 123.726166,59.6447499" id="Fill-27" fill="#F97F40" mask="url(#mask-4)"></path>
                <path d="M123.142374,69 L110.21514,69 C109.53927,69 108.791667,68.4651621 108.545727,67.8058164 L106.078872,61.1941836 C105.832932,60.5348379 106.181347,60 106.857217,60 L119.784917,60 C120.460787,60 121.208389,60.5348379 121.454329,61.1941836 L123.921185,67.8058164 C124.167125,68.4651621 123.818244,69 123.142374,69" id="Fill-28" fill="#FAAF41" mask="url(#mask-4)"></path>
                <path d="M146.72665,59.6447499 L146.505135,59.6447499 L146.505135,59 L142.880427,59 L142.880427,59.6447499 L133.273834,59.6447499 C132.570511,59.6447499 132,60.2006991 132,60.8860706 L132,67.7586793 C132,68.4440508 132.570511,69 133.273834,69 L146.72665,69 C147.429974,69 148,68.4440508 148,67.7586793 L148,60.8860706 C148,60.2006991 147.429974,59.6447499 146.72665,59.6447499" id="Fill-29" fill="#F97F40" mask="url(#mask-4)"></path>
                <path d="M146.142374,69 L133.21514,69 C132.53927,69 131.791667,68.4651621 131.545727,67.8058164 L129.078872,61.1941836 C128.832932,60.5348379 129.181347,60 129.857217,60 L142.784917,60 C143.460787,60 144.208389,60.5348379 144.454329,61.1941836 L146.921185,67.8058164 C147.167125,68.4651621 146.818244,69 146.142374,69" id="Fill-30" fill="#FAAF41" mask="url(#mask-4)"></path>
                <path d="M100.72665,73.6447803 L100.505135,73.6447803 L100.505135,73 L96.8804266,73 L96.8804266,73.6447803 L87.2738344,73.6447803 C86.5705111,73.6447803 86,74.2007558 86,74.8861597 L86,81.7590931 C86,82.4444969 86.5705111,83 87.2738344,83 L100.72665,83 C101.429489,83 102,82.4444969 102,81.7590931 L102,74.8861597 C102,74.2007558 101.429489,73.6447803 100.72665,73.6447803" id="Fill-31" fill="#F97F40" mask="url(#mask-4)"></path>
                <path d="M100.142551,83 L87.2151833,83 C86.5393064,83 85.7916962,82.4651621 85.5457535,81.8058164 L83.0788728,75.1941836 C82.83293,74.5348379 83.181349,74 83.8572258,74 L96.7850593,74 C97.4609361,74 98.2085463,74.5348379 98.4544891,75.1941836 L100.92137,81.8058164 C101.166847,82.4651621 100.818428,83 100.142551,83" id="Fill-32" fill="#FAAF41" mask="url(#mask-4)"></path>
                <path d="M123.726166,73.6447803 L123.505135,73.6447803 L123.505135,73 L119.880427,73 L119.880427,73.6447803 L110.273834,73.6447803 C109.570511,73.6447803 109,74.2007558 109,74.8861597 L109,81.7590931 C109,82.4444969 109.570511,83 110.273834,83 L123.726166,83 C124.429489,83 125,82.4444969 125,81.7590931 L125,74.8861597 C125,74.2007558 124.429489,73.6447803 123.726166,73.6447803" id="Fill-33" fill="#F97F40" mask="url(#mask-4)"></path>
                <path d="M123.142374,83 L110.21514,83 C109.53927,83 108.791667,82.4651621 108.545727,81.8058164 L106.078872,75.1941836 C105.832932,74.5348379 106.181347,74 106.857217,74 L119.784917,74 C120.460787,74 121.208389,74.5348379 121.454329,75.1941836 L123.921185,81.8058164 C124.167125,82.4651621 123.818244,83 123.142374,83" id="Fill-34" fill="#FAAF41" mask="url(#mask-4)"></path>
                <path d="M146.72665,73.6447803 L146.505135,73.6447803 L146.505135,73 L142.880427,73 L142.880427,73.6447803 L133.273834,73.6447803 C132.570511,73.6447803 132,74.2007558 132,74.8861597 L132,81.7590931 C132,82.4444969 132.570511,83 133.273834,83 L146.72665,83 C147.429974,83 148,82.4444969 148,81.7590931 L148,74.8861597 C148,74.2007558 147.429974,73.6447803 146.72665,73.6447803" id="Fill-35" fill="#F97F40" mask="url(#mask-4)"></path>
                <path d="M146.142374,83 L133.21514,83 C132.53927,83 131.791667,82.4651621 131.545727,81.8058164 L129.078872,75.1941836 C128.832932,74.5348379 129.181347,74 129.857217,74 L142.784917,74 C143.460787,74 144.208389,74.5348379 144.454329,75.1941836 L146.921185,81.8058164 C147.167125,82.4651621 146.818244,83 146.142374,83" id="Fill-36" fill="#FAAF41" mask="url(#mask-4)"></path>
                <polygon id="Fill-37" fill="#308DFC" mask="url(#mask-4)" points="6 89 37 89 37 13 6 13"></polygon>
                <polygon id="Fill-38" fill="#D7EFF9" mask="url(#mask-4)" points="73 89 74 89 74 13 73 13"></polygon>
                <polygon id="Fill-39" fill="#27A9E0" mask="url(#mask-4)" points="39 19 63 19 63 17 39 17"></polygon>
                <polygon id="Fill-40" fill="#FFFFFF" mask="url(#mask-4)" points="10 19 34 19 34 17 10 17"></polygon>
                <polygon id="Fill-41" fill="#FFFFFF" mask="url(#mask-4)" points="10 53 34 53 34 51 10 51"></polygon>
                <polygon id="Fill-42" fill="#FFFFFF" mask="url(#mask-4)" points="10 58 33 58 33 56 10 56"></polygon>
                <polygon id="Fill-43" fill="#FFFFFF" mask="url(#mask-4)" points="10 63 18 63 18 61 10 61"></polygon>
                <polygon id="Fill-44" fill="#FFFFFF" mask="url(#mask-4)" points="10 68 26 68 26 66 10 66"></polygon>
                <polygon id="Fill-45" fill="#27A9E0" mask="url(#mask-4)" points="39 22 66 22 66 20 39 20"></polygon>
                <polygon id="Fill-46" fill="#27A9E0" mask="url(#mask-4)" points="39 26 63 26 63 24 39 24"></polygon>
                <polygon id="Fill-47" fill="#27A9E0" mask="url(#mask-4)" points="39 30 69 30 69 28 39 28"></polygon>
                <polygon id="Fill-48" fill="#27A9E0" mask="url(#mask-4)" points="39 33 56 33 56 31 39 31"></polygon>
                <polygon id="Fill-49" fill="#27A9E0" mask="url(#mask-4)" points="39 37 65 37 65 35 39 35"></polygon>
                <polygon id="Fill-50" fill="#27A9E0" mask="url(#mask-4)" points="39 41 66 41 66 39 39 39"></polygon>
                <path d="M10,9 C10,9.55247691 9.55257083,10 9.00020986,10 C8.4478489,10 8,9.55247691 8,9 C8,8.44752309 8.4478489,8 9.00020986,8 C9.55257083,8 10,8.44752309 10,9" id="Fill-51" fill="#E54C64" mask="url(#mask-4)"></path>
                <path d="M15,9 C15,9.55247691 14.5521511,10 14.0002099,10 C13.4478489,10 13,9.55247691 13,9 C13,8.44752309 13.4478489,8 14.0002099,8 C14.5521511,8 15,8.44752309 15,9" id="Fill-52" fill="#FBB040" mask="url(#mask-4)"></path>
                <path d="M19,9 C19,9.55247691 18.5525708,10 18.0002099,10 C17.4478489,10 17,9.55247691 17,9 C17,8.44752309 17.4478489,8 18.0002099,8 C18.5525708,8 19,8.44752309 19,9" id="Fill-53" fill="#8DC63F" mask="url(#mask-4)"></path>
                <path d="M153.462642,10 L33.5378307,10 C32.6921419,10 32,9.32513829 32,8.5 C32,7.67532268 32.6921419,7 33.5378307,7 L153.462642,7 C154.307858,7 155,7.67532268 155,8.5 C155,9.32513829 154.307858,10 153.462642,10" id="Fill-54" fill="#FFFFFF" mask="url(#mask-4)"></path>
                <path d="M118,116 L118,117.487349 C118,117.487349 112.750282,118.640814 108,117.487349 L110.163751,116 L118,116 Z" id="Fill-56" fill="#171C27" mask="url(#mask-4)"></path>
                <path d="M151.473427,108 L152.660704,108 C152.660704,108 153.42412,113.021582 152.660704,115.192828 C152.660704,115.192828 152.122097,116.119613 151,115.987018 C151,115.987018 151.655305,115.443746 151.473427,114.444217 L151.473427,108 Z" id="Fill-57" fill="#171C27" mask="url(#mask-4)"></path>
                <path d="M137.00284,95.0950368 L137.222542,107.456294 L151.582318,108.269292 C151.582318,108.269292 152.522103,112.860643 151.582318,114.900717 L137.222542,114.900717 C137.222542,114.900717 129.84995,116.244816 129.442197,109.042018 C129.03491,101.840168 129,97.0545692 129,97.0545692 C129,97.0545692 134.009863,94.4796034 137.00284,95.0950368" id="Fill-58" fill="#062538" mask="url(#mask-4)"></path>
                <path d="M137.539458,92.9052231 C137.539458,92.9052231 139.258165,98.2833355 136.05512,99.4222573 C132.852074,100.560714 117.809574,99.4222573 117.809574,99.4222573 L118.475049,115.421618 C118.475049,115.421618 114.201622,116.722977 110.53746,115.421618 L110.038711,96.6017154 C110.038711,96.6017154 108.85448,91.2152251 119.585921,92.0976917 L137.539458,92.9052231 Z" id="Fill-59" fill="#0A3759" mask="url(#mask-4)"></path>
                <path d="M114.766465,62.4239947 C114.657992,62.2706194 114.539007,62.1133448 114.370411,62.0370904 C114.201394,61.9617025 113.969731,61.9993965 113.884382,62.1670694 C113.753205,62.4248612 114.037842,62.7064825 114.053819,62.9972023 C114.065591,63.2151338 113.919278,63.4135685 113.744375,63.536182 C113.569052,63.6592289 113.363877,63.7263847 113.173418,63.8225692 C112.260222,64.282695 111.774614,65.4871675 112.102557,66.4789077 C112.164361,66.6656442 112.261904,66.8558469 112.432602,66.9450992 C112.648708,67.0573144 112.9077,66.9758609 113.135998,66.8931076 C113.74858,66.6712767 114.367888,66.4455464 114.915721,66.0872375 C115.410159,65.7640229 116.189655,65.1535547 115.957992,64.491528 C115.705728,63.7714441 115.199518,63.0392288 114.766465,62.4239947" id="Fill-60" fill="#A05E47" mask="url(#mask-4)"></path>
                <path d="M135.233692,89 C135.274373,89 135.314598,88.9995219 135.355279,88.9971311 C137.395284,88.8924174 138.938887,88.2191893 139.941749,86.99466 C140.842679,85.8934921 141.070311,84.5733338 140.98255,83.7055007 C140.973408,83.614175 140.959695,83.5242837 140.940954,83.4348706 C140.037739,79.0564971 136.648852,73.4258618 136.50441,73.1887019 C135.784489,71.9966865 134.276083,71.6414248 133.136093,72.3968938 C131.997017,73.1514066 131.657855,74.7288069 132.378233,75.9213005 C133.15849,77.21277 135.189811,80.9236532 135.983325,83.7619218 C135.796831,83.8178647 135.51389,83.8738077 135.117134,83.8938898 C133.770081,83.9632208 132.731109,85.1614521 132.79693,86.5705454 C132.860923,87.9366056 133.939662,89 135.233692,89" id="Fill-61" fill="#2481D3" mask="url(#mask-4)"></path>
                <path d="M135.571087,83.9314559 C134.080281,84.0002769 132.930433,85.1892181 133.003279,86.5884191 C133.073595,87.9444291 134.26796,89 135.700085,89 C135.745107,89 135.789624,88.9990507 135.834647,88.9971522 C137.546519,88.9183641 138.941209,88.5130325 140,87.793023 C137.551578,84.1203576 136.941495,77 136.941495,77 L133.800534,78.0446545 C134.780914,79.7177155 135.951503,81.9446664 136.529715,83.8004588 C136.323319,83.8559902 136.010184,83.9115216 135.571087,83.9314559" id="Fill-62" fill="#126BAD" mask="url(#mask-4)"></path>
                <path d="M119.690387,71.7795695 L127.353824,71.5437956 C128.768102,71.4832787 129.955558,72.6219648 129.998808,74.0496797 C130.041578,75.4778787 128.928128,76.670788 127.510966,76.7138761 L118.263134,76.9985476 C118.236703,76.9995159 118.210753,77 118.184322,77 C117.243392,77 116.375987,76.481007 115.926186,75.6429689 L111,66.4594071 C112.470503,65.495978 115.516272,64 115.516272,64 L119.690387,71.7795695 Z" id="Fill-63" fill="#2481D3" mask="url(#mask-4)"></path>
                <polygon id="Fill-64" fill="#A05E47" mask="url(#mask-4)" points="133 67 132.784418 71.2997313 130.790615 73 129 71.7272169 129.129703 69.1411132"></polygon>
                <path d="M130.299145,70.995602 L129.121839,70.934803 C127.312559,70.8421568 125.909583,69.3067395 126.004551,67.5237832 L126.239522,63.0772493 C126.333511,61.294293 127.891176,59.9108733 129.699478,60.0044846 L130.877762,60.0648011 C132.686553,60.1574473 134.089528,61.6928646 133.99554,63.4758209 L133.759589,67.9228373 C133.665601,69.7057936 132.107935,71.0882482 130.299145,70.995602" id="Fill-65" fill="#A05E47" mask="url(#mask-4)"></path>
                <path d="M129.936632,69.1273219 C129.368597,68.4871642 129.139495,67.6305257 128.932756,66.8056508 C128.898963,66.6712665 128.865666,66.5295522 128.90095,66.395168 C128.936235,66.2627384 129.034138,66.156697 129.121604,66.050167 C129.334803,65.7926379 129.513215,65.4862418 129.521166,65.1539462 C129.528621,64.8216506 129.3189,64.4688309 128.988417,64.3984624 C128.600285,64.3158771 128.224577,64.6555028 128.126177,65.0332447 C128.027778,65.4114753 128.13065,65.8092527 128.233026,66.1860172 C127.839924,66.3546084 127.433404,65.903566 127.397126,65.4833098 C127.359853,65.0635422 127.524349,64.643286 127.480616,64.2240072 C127.409053,63.5447559 126.830582,63.0463125 126.416111,62.4985134 C126.00164,61.9502257 125.778004,61.0779497 126.321687,60.6532955 C126.546813,60.477863 126.847479,60.4324167 127.101927,60.3009644 C127.531307,60.0776422 127.794203,59.6290432 128.203704,59.3710254 C128.490455,59.1902175 128.832369,59.1149624 129.16981,59.0656067 C131.195948,58.7680067 133.523249,59.4799988 134.4819,61.2602236 C135.205982,62.6030888 135.02111,64.2240072 134.81785,65.7305768 C134.64739,66.990368 134.664784,69.0041771 133.375153,69.676587 C132.281823,70.2473536 130.766071,70.061659 129.936632,69.1273219" id="Fill-66" fill="#171C27" mask="url(#mask-4)"></path>
                <path d="M132.918631,71 C132.918631,71 137.296572,71 136.9636,75.5946037 C136.631593,80.1885386 136.021707,82.9204753 136.576017,85.9008985 C137.130328,88.8803786 136.981964,92.7920367 136.981964,92.7920367 C136.981964,92.7920367 127.931769,95.6842872 123,92.5180886 C123,92.5180886 123.720072,77.581081 123.8868,75.2838777 C124.052562,72.987146 126.265454,70.9770932 129.760462,71 L133.254503,71.0233013" id="Fill-67" fill="#2481D3" mask="url(#mask-4)"></path>
                <path d="M112.09088,68 C112.098561,68 112.10573,67.9994461 112.113411,67.9972307 C114.859611,67.2450885 116.949857,65.1913748 116.970339,65.170882 C117.00772,65.1337733 117.009768,65.071741 116.976484,65.031863 C116.942176,64.9914312 116.883288,64.9897697 116.847444,65.0252167 C116.826961,65.0457095 114.768976,67.0667455 112.068862,67.8055951 C112.019703,67.8194416 111.990516,67.873166 112.002805,67.9257827 C112.013559,67.9700915 112.050427,68 112.09088,68" id="Fill-70" fill="#0D314C" mask="url(#mask-4)"></path>
                <path d="M115.851406,65 C115.879839,65 115.909109,64.9937125 115.935034,64.9805086 C116.003608,64.9459271 116.020333,64.8767641 115.973502,64.8245774 L115.271869,64.0480654 C115.225874,63.9983938 115.133048,63.9845612 115.06531,64.0191427 C114.997571,64.0537242 114.979173,64.1228872 115.026005,64.1750738 L115.728474,64.9509571 C115.756907,64.9830236 115.802902,65 115.851406,65" id="Fill-71" fill="#0D314C" mask="url(#mask-4)"></path>
                <path d="M115.850378,66 C115.873859,66 115.899017,65.9963387 115.92082,65.9871854 C115.993777,65.9597255 116.021451,65.8938217 115.982037,65.8407325 C115.777421,65.5588107 115.536746,65.2903138 115.266721,65.041344 C115.216405,64.9949672 115.122484,64.9858139 115.057074,65.0230374 C114.992502,65.0602608 114.980762,65.1286055 115.031916,65.1755924 C115.29104,65.4147988 115.521652,65.6723117 115.71872,65.9420291 C115.745555,65.9792525 115.797547,66 115.850378,66" id="Fill-72" fill="#0D314C" mask="url(#mask-4)"></path>
                <path d="M115.834399,66 C115.859541,66 115.885613,65.9961725 115.909823,65.9872417 C115.991764,65.9598113 116.023423,65.8909163 115.981521,65.8347797 C115.780393,65.564941 115.55133,65.3008437 115.302713,65.0501425 C115.250569,64.9978334 115.148142,64.9844372 115.072719,65.0195226 C114.997296,65.0552459 114.976811,65.1254167 115.028955,65.1770879 C115.270123,65.4214099 115.491736,65.6772143 115.687278,65.9381221 C115.716143,65.9776729 115.774806,66 115.834399,66" id="Fill-73" fill="#0D314C" mask="url(#mask-4)"></path>
                <path d="M114.85852,66 C114.887821,66 114.917122,65.994064 114.941671,65.9816523 C115.005815,65.9503533 115.018486,65.8899138 114.972555,65.8472823 C114.70489,65.5979694 114.467318,65.331388 114.267757,65.0529346 C114.232913,65.0059861 114.147387,64.9870987 114.079283,65.0092239 C114.008803,65.0324284 113.980295,65.0901697 114.014347,65.1376579 C114.221035,65.4263644 114.467318,65.7026592 114.745278,65.961146 C114.772994,65.9870487 114.815757,66 114.85852,66" id="Fill-74" fill="#0D314C" mask="url(#mask-4)"></path>
                <path d="M114.145095,67 C114.156438,67 114.168726,66.9965043 114.179597,66.9900954 C114.222133,66.9667906 114.241037,66.9056154 114.22166,66.8531795 L113.931942,66.0613977 C113.912565,66.0095444 113.861994,65.9850744 113.820403,66.0095444 C113.777867,66.0334319 113.758963,66.0946071 113.77834,66.1464604 L114.06853,66.9394074 C114.082236,66.9766952 114.113429,67 114.145095,67" id="Fill-75" fill="#0D314C" mask="url(#mask-4)"></path>
                <path d="M113.869452,67 C113.897175,67 113.924899,66.9938235 113.948244,66.9814706 C114.005879,66.9505884 114.016823,66.8934562 113.973779,66.8533093 C113.700924,66.6005895 113.455793,66.3298551 113.24568,66.0488266 C113.211391,66.0040473 113.132599,65.9865474 113.069127,66.0112532 C113.005656,66.0344149 112.981581,66.0900029 113.01514,66.1347822 C113.232548,66.4250754 113.485705,66.7040451 113.765855,66.9644854 C113.792119,66.9876471 113.830786,67 113.869452,67" id="Fill-76" fill="#0D314C" mask="url(#mask-4)"></path>
                <path d="M113.158329,67 C113.170617,67 113.183378,66.9959629 113.195193,66.9896188 C113.236784,66.9648194 113.254271,66.9036859 113.233948,66.8523569 L112.917291,66.057045 C112.896968,66.0051392 112.846398,65.9872606 112.804807,66.0091763 C112.763216,66.0339758 112.745729,66.095686 112.766052,66.1464383 L113.082709,66.9417502 C113.09736,66.978661 113.127608,67 113.158329,67" id="Fill-77" fill="#0D314C" mask="url(#mask-4)"></path>
                <path d="M112.850802,67 C112.875164,67 112.900367,66.9959519 112.92305,66.9888677 C112.995297,66.9655911 113.02134,66.9099295 112.981016,66.8664123 C112.737389,66.598731 112.503004,66.3244715 112.28374,66.05173 C112.249296,66.0066948 112.162767,65.9864542 112.084639,66.0097309 C112.010711,66.0314895 111.978787,66.0851269 112.014911,66.1301622 C112.235855,66.4059397 112.472761,66.6827293 112.719748,66.9534467 C112.74663,66.9833015 112.798716,67 112.850802,67" id="Fill-78" fill="#0D314C" mask="url(#mask-4)"></path>
                <path d="M112.152971,67 C112.171404,67 112.189363,66.9919804 112.20496,66.9746048 C112.241352,66.934507 112.247968,66.8589896 112.219139,66.8075308 C112.095784,66.5856565 111.997006,66.3397236 111.92564,66.0770833 C111.908626,66.0142635 111.859945,65.9835219 111.816937,66.0089171 C111.772983,66.0316392 111.751715,66.1004737 111.768729,66.1619569 C111.845767,66.446651 111.953052,66.713301 112.086804,66.9552242 C112.103819,66.9846292 112.127922,67 112.152971,67" id="Fill-79" fill="#0D314C" mask="url(#mask-4)"></path>
                <path d="M49.967767,62.5721969 C50.0149963,62.1668704 50.0225867,61.7442434 49.9053569,61.3586889 C49.7505967,60.852525 49.3875218,60.4565902 48.9679404,60.2390979 C48.5487807,60.0225942 48.0773315,59.971187 47.6202197,60.0136968 C47.4384713,60.030503 47.2558796,60.0626326 47.0884688,60.1461694 C46.848949,60.2657901 46.655815,60.4827881 46.4753318,60.7032462 C46.3264752,60.8851488 46.1793055,61.0774318 46.0979193,61.3102474 C46.0359309,61.487207 46.0144248,61.6799843 46.0055693,61.8707843 C45.9714124,62.5692311 46.0949675,63.2775639 46.3597887,63.9043372 C46.4656329,64.1544533 46.5972001,64.3966606 46.7840087,64.5706544 C47.0361792,64.8054472 47.3642539,64.8929384 47.6826298,64.9507716 C47.9735958,65.0041561 48.2772124,65.0362856 48.5567928,64.9275395 C49.3575818,64.6151415 49.8619229,63.4822044 49.967767,62.5721969" id="Fill-104" fill="#D6957B" mask="url(#mask-4)"></path>
                <path d="M45.1037778,61.9307341 C45.3365635,60.933307 46.1561895,60.0280311 47.1479666,60.0003857 C47.5253423,59.9898542 47.9790411,60.1952197 47.9993939,60.5857653 C48.0108424,60.8148269 47.8586201,61.0263359 47.6682362,61.144816 C47.4778523,61.2628573 47.253971,61.3058612 47.035602,61.346671 C47.4935409,61.5371168 47.7013096,62.0944122 47.7386231,62.6029991 C47.7878091,63.2656102 47.6169301,63.9672758 47.1738317,64.4477786 C46.796456,64.857632 45.7940785,65.3039072 45.4027102,64.7189664 C44.9481634,64.0396804 44.9252664,62.6973444 45.1037778,61.9307341" id="Fill-105" fill="#EEB399" mask="url(#mask-4)"></path>
                <path d="M62,116 L62,116.822904 C62,116.822904 66.7587477,117.22137 70,116.822904 L68.8347564,116 L62,116 Z" id="Fill-106" fill="#171E26" mask="url(#mask-4)"></path>
                <path d="M52,116 L52,116.822904 C52,116.822904 56.7587477,117.22137 60,116.822904 L58.8347564,116 L52,116 Z" id="Fill-107" fill="#171E26" mask="url(#mask-4)"></path>
                <path d="M57.5702361,54.2698751 C56.2916779,53.6399585 54.7398326,54.1504574 54.1010364,55.4088633 L49.9283399,63.6301313 L49.6738836,63.1006017 C46.7691229,63.5268897 45,65.2805699 45,65.2805699 L47.5276633,70.5420862 C47.8120556,71.1344172 48.3103457,71.5840178 48.9066521,71.8185713 C49.1978041,71.9327556 49.5121325,71.9965085 49.8366004,72 C50.825938,72.0107815 51.7346414,71.4636485 52.1774049,70.5920419 L58.726636,57.6882669 C59.3649495,56.429861 58.8473458,54.8993159 57.5702361,54.2698751" id="Fill-108" fill="#E54C64" mask="url(#mask-4)"></path>
                <path d="M57.7248649,54.2431291 C56.5845826,53.6419126 55.3409514,54.2031691 54.7712408,55.404694 L54,57.0880094 C54.9727711,60.2639221 54.7669346,64.1872686 54.7277482,66 L58.7562003,57.5062273 C59.3254802,56.3047024 58.8638554,54.8443457 57.7248649,54.2431291" id="Fill-109" fill="#99293F" mask="url(#mask-4)"></path>
                <polygon id="Fill-110" fill="#EEB399" mask="url(#mask-4)" points="58 49 58.2154837 53.2991216 60.2094857 55 62 53.7267684 61.8702655 51.1414702"></polygon>
                <path d="M61.5101167,51.9958303 L63.0667643,51.915578 C64.7665293,51.828074 66.0844844,50.3849837 65.9957712,48.7088717 L65.7413946,43.8927691 C65.6526814,42.2166571 64.1896483,40.9166672 62.4903734,41.0041712 L60.9332357,41.08394 C59.2334707,41.171444 57.9155156,42.6145343 58.0042288,44.2911298 L58.2590955,49.1067489 C58.3478088,50.7828608 59.8108418,52.0833342 61.5101167,51.9958303" id="Fill-111" fill="#EEB399" mask="url(#mask-4)"></path>
                <path d="M62.0631356,50.1271408 C62.6312459,49.4871086 62.8601858,48.6302992 63.0666807,47.8058592 C63.1005977,47.6709865 63.134016,47.5292476 63.0986026,47.3953558 C63.063688,47.2624449 62.9659272,47.1565085 62.8781419,47.0505722 C62.6646641,46.7925975 62.4861009,46.4860686 62.4786192,46.1540366 C62.4711376,45.8220046 62.6811239,45.4683929 63.0113161,45.3982591 C63.3993669,45.3158641 63.7754469,45.6552529 63.8732077,46.0333869 C63.9719661,46.4115208 63.8692175,46.8087822 63.7664688,47.1859353 C64.1600062,47.3546488 64.5665117,46.9034383 64.6029227,46.483126 C64.6398324,46.0628136 64.475235,45.6434822 64.5191276,45.2236603 C64.5904532,44.5448828 65.1690378,44.0460991 65.5835239,43.4982707 C65.9985087,42.9504424 66.2219621,42.0779387 65.678292,41.6537028 C65.4528435,41.4781231 65.1520793,41.4320212 64.8982003,41.3005816 C64.4682521,41.077919 64.2048963,40.6286704 63.7963956,40.3711862 C63.5090984,40.190702 63.1674342,40.1151733 62.830259,40.0656382 C60.8037165,39.7679374 58.4769084,40.4800652 57.5177548,42.2598942 C56.794524,43.6032262 56.9785738,45.2236603 57.1820759,46.7303108 C57.3521599,47.990267 57.3352014,50.0040388 58.6245473,50.6769309 C59.7183715,51.2473198 61.2336647,51.0614407 62.0631356,50.1271408" id="Fill-112" fill="#171C27" mask="url(#mask-4)"></path>
                <path d="M68.8779024,73 L69,116.625439 C69,116.625439 64.3682118,117.171205 61.8656761,116.625439 L61.1191096,79.373473 L59.3631404,116.868002 C59.3631404,116.868002 54.8748869,117.164998 52,116.868002 L54.9941884,74.244804 L68.8779024,73 Z" id="Fill-113" fill="#171E26" mask="url(#mask-4)"></path>
                <path d="M69.0972492,56.652799 C69.1554889,56.9162557 69.2005777,57.1830472 69.2386213,57.4488859 C69.3555704,58.2730811 69.4772161,59.0786962 69.5537731,59.9090848 C69.7261438,61.773767 69.8689249,63.6413077 69.9436032,65.513136 C70.0300233,67.6822464 70.0257963,69.8570737 69.8698642,72.0233256 C69.7256741,74.0175922 68.9338024,74.5206848 67.0818748,75.1647958 C65.4840412,75.7202938 63.7514109,75.9184818 62.0704449,75.9866089 C60.6590722,76.0433021 55.9496431,76.0090004 55.3292028,74.0128281 C55.1277123,73.3658586 55.8233006,71.8846893 55.9388406,71.1891257 C56.0975907,70.2358224 56.1826018,69.2701324 56.1943437,68.3039659 C56.2173578,66.4354724 55.9656121,64.5626912 55.437228,62.7718532 C54.6927934,60.2478148 53.2330442,57.9348276 54.4959997,55.3907799 C55.7810299,52.8014729 58.7597073,52.038735 61.4072641,52.0020511 C62.7758964,51.9829946 64.1698911,52.0920933 65.4779354,52.5246767 C66.1289046,52.7400155 66.6854692,53.0058542 67.1931877,53.4703573 C67.711239,53.9448651 68.1954737,54.4703491 68.5373969,55.0920686 C68.8060509,55.579916 68.9784215,56.1096877 69.0972492,56.652799" id="Fill-114" fill="#E54C64" mask="url(#mask-4)"></path>
                <path d="M51.9920146,64.0165278 L52.0080838,63.9834722 C51.9896515,63.9938611 51.9920146,64.0165278 51.9920146,64.0165278" id="Fill-115" fill="#7298E2" mask="url(#mask-4)"></path>
                <path d="M79.0365067,54.6518468 L73.6413928,58.4639293 L67.0688975,53.5140146 C65.9650729,52.6823628 64.3798279,52.8809662 63.5268511,53.9571945 C62.6743458,55.0329631 62.8780417,56.5790357 63.9813948,57.4102278 L72.0495466,63.4864814 C72.5036189,63.8289804 73.0477511,64 73.5928264,64 C74.1124398,64 74.6320531,63.8450709 75.0748089,63.5319947 L82,58.6390865 C81.7076586,56.4310025 79.0365067,54.6518468 79.0365067,54.6518468" id="Fill-117" fill="#E54C64" mask="url(#mask-4)"></path>
                <path d="M50,63 C50,63 48.8680379,65.1618729 49.0127866,67" id="Stroke-118" stroke="#99293F" stroke-width="0.283" stroke-linecap="round" stroke-linejoin="round" mask="url(#mask-4)"></path>
                <path d="M81.4297681,53.2105029 C81.6137471,53.1031613 81.8106693,52.9976946 82.0228461,53 C82.2350229,53.0019133 82.4606052,53.1519103 82.4735484,53.3665935 C82.4934255,53.6956494 82.0662984,53.8508025 81.9165266,54.1437654 C81.8041977,54.363136 81.8670649,54.6378179 81.9946483,54.8487512 C82.122694,55.0596845 82.3075975,55.2270249 82.463841,55.4173335 C83.2127002,56.3295027 83.1720214,57.806973 82.3737005,58.6755493 C82.2234664,58.8391398 82.0339403,58.9891368 81.8139051,58.9994491 C81.5356253,59.012105 81.3007979,58.804453 81.0987908,58.6099256 C80.5565612,58.0872799 80.0092468,57.5590092 79.596912,56.9257407 C79.2257182,56.3552834 78.6862622,55.3517098 79.2321898,54.7789089 C79.8261923,54.1545464 80.6929276,53.6394005 81.4297681,53.2105029" id="Fill-121" fill="#EEB399" mask="url(#mask-4)"></path>
                <path d="M63.3049798,49.5296103 C63.7682837,50.4769937 64.4516693,51.3523399 65.3856624,51.8893011 C65.6884593,52.0637069 66.070525,52.3068323 65.9887944,52.6371606 C65.951868,52.7864481 65.8243486,52.8968735 65.6953522,52.986446 C64.8204415,53.5973401 63.6771985,53.6864386 62.5984537,53.7537365 C61.7772093,53.8049208 60.955965,53.8561051 60.1352131,53.9072894 C58.1751569,54.029563 56.144202,54.142358 54.3092034,53.4693793 C54.2082711,53.4324129 54.1024153,53.3883375 54.0438253,53.3011346 C53.9039972,53.0916582 54.1270329,52.8385803 54.3160964,52.6684399 C55.203316,51.8689222 55.7316104,50.7551898 56.0038815,49.6153914 C56.4120419,47.9092481 56.1535567,46.1599774 56.4893412,44.4576256 C56.6759429,43.5135597 57.1308768,42.508357 58.0525611,42.1386926 C58.6670173,41.8927237 59.3961916,41.9884573 59.9712596,42.3112027 C60.7329292,42.7386863 61.0391726,43.4922329 61.5822377,44.1002834 C62.1509051,44.7362957 62.428592,45.5789409 62.4108673,46.4121075 C62.3887114,47.444798 62.8505383,48.6007101 63.3049798,49.5296103" id="Fill-122" fill="#171C27" mask="url(#mask-4)"></path>
                <path d="M69.7925157,61.8500481 L66,59 C66,59 69.1122638,62.715636 70,65 C70,65 69.9881438,63.5879526 69.7925157,61.8500481" id="Fill-123" fill="#99293F" mask="url(#mask-4)"></path>
            </g>
        </g>
    </g>
</svg>