<?xml version="1.0" encoding="UTF-8"?>
<svg width="159px" height="119px" viewBox="0 0 159 119" version="1.1" xmlns="http://www.w3.org/2000/svg" xmlns:xlink="http://www.w3.org/1999/xlink">
    <!-- Generator: Sketch 59.1 (86144) - https://sketch.com -->
    <title>image-from-rawpixel-id-454654-original copy</title>
    <desc>Created with Sketch.</desc>
    <g id="Products-Page" stroke="none" stroke-width="1" fill="none" fill-rule="evenodd">
        <g id="Products-Page-Small-Business" transform="translate(-213.000000, -939.000000)">
            <g id="image-from-rawpixel-id-454654-original-copy" transform="translate(213.000000, 939.000000)">
                <polyline id="Fill-5" fill="#BABCBE" points="150.500582 78.5412229 151 89.7648309 149.535842 108.849025 147.344819 109 144.682458 91.6670715 141 77 150.500582 78.5412229"></polyline>
                <polyline id="Fill-6" fill="#292949" points="147.092398 110.142035 149.79001 111 151 109.928898 149.604995 109 147 109.142204 147.092398 110.142035"></polyline>
                <polyline id="Fill-7" fill="#BABCBE" points="135.490144 73.8804649 135 82.4404425 136.454482 107.892956 138.691109 108 142.043391 91.3066517 145 73 135.490144 73.8804649"></polyline>
                <polyline id="Fill-8" fill="#292949" points="138.934583 109.099932 136.246036 110 135 108.950118 136.376871 108 139 108.099932 138.934583 109.099932"></polyline>
                <path d="M151.480441,49.8535874 L144.904708,48.0006384 C144.904708,48.0006384 141.111383,47.7678248 137.085428,56.1943218 C134.845491,60.8824582 133.104247,68.571679 132,74.4716807 C132.015522,75.3425906 132.308847,79.1958643 136.300375,79.2269327 C143.155305,79.2807049 146.88893,78.8053191 149.703775,79.8363506 C152.087787,80.7940926 152.455538,77.3480933 152.623891,74.6993162 L153,66.4787467 L151.480441,49.8535874" id="Fill-9" fill="#00BAE4"></path>
                <path d="M151.70003,41.1745893 C150.026456,40.5512032 148.295293,39.9566672 146.496704,40.0024878 C146.102801,40.0124815 145.670984,40.0709358 145.408656,40.3413337 C145.307003,40.4461742 145.239782,40.5747735 145.176044,40.7026185 C144.460379,42.136067 143.493453,44.2758687 144.313639,45.8269799 C144.470012,46.1228337 144.706517,46.3753182 144.9711,46.5914103 C145.324629,46.8802873 145.733902,47.1031676 146.171663,47.2559029 C146.009347,47.6147364 145.811576,47.9599934 145.581628,48.2860172 C145.877978,48.9001636 147.72227,49.255603 148.1629,48.7798611 C148.266396,48.3246724 148.369893,47.8696722 148.47339,47.4146721 C148.715019,47.3660231 148.952139,47.2977636 149.179832,47.2055568 C150.061707,46.8482318 150.718963,46.2001441 151.172709,45.4311882 C151.667034,44.5937843 152.287605,43.8214343 152.756517,42.9625343 C152.927235,42.6497099 153.083403,42.2865395 152.949574,41.9588187 C152.807138,41.609979 152.393356,41.4342392 152.018308,41.2935719 C151.912352,41.2539739 151.806396,41.2141873 151.70003,41.1745893" id="Fill-10" fill="#F5A623"></path>
                <path d="M145.586999,40.6701307 C146.525322,40.2847101 147.834614,40.2658854 148.620553,40.4510271 C150.996533,41.0101393 151.57862,42.8522405 151.332585,45 C152.1379,44.297859 153.561026,43.4816056 153.819574,42.4516824 C154.031297,41.6086475 154.113443,40.425604 153.746107,39.6079921 C153.402385,38.8429729 152.27999,38.270664 151.643005,37.7561875 C151.042955,37.2710155 150.442501,36.7860376 149.842047,36.3008655 C149.717314,36.2001438 149.588948,36.0970933 149.435151,36.0448888 C149.253098,35.9831749 149.05409,35.9981182 148.861945,36.0138378 C147.21761,36.1491037 145.572871,36.2839815 143.928334,36.4190534 C143.612465,36.4448646 143.248358,36.4988157 143.087295,36.7613908 C142.989406,36.9213035 142.995663,37.1184774 143.004745,37.3038131 C143.045314,38.1192903 143.247147,38.9790151 143.191643,39.7896406 C143.206377,40.2680202 143.075791,42.687282 143.97637,42.5522101 C144.295872,42.199393 144.418789,41.7208193 144.687832,41.3311291 C144.88684,41.043131 145.206544,40.8265502 145.586999,40.6701307" id="Fill-11" fill="#000000"></path>
                <polyline id="Fill-12" fill="#00BAE4" points="145 48 142.45405 48.3313266 132.0431 56.2001349 131 59.2031763 134.045408 67 135.619887 64.6036018 134.703695 59.0704484 137.884576 57.5315549 143.117982 49.5422462 145 48"></polyline>
                <polyline id="Fill-13" fill="#00BAE4" points="150 49.8965871 155.296679 45.817921 156.461504 32.5310491 158.575337 32 159 45.7501851 157.619747 48.9258355 151.427481 55 150 49.8965871"></polyline>
                <polyline id="Fill-14" fill="#A0675C" points="157.823589 31.5462768 158 30.2421119 157.068716 28 156.123152 28.7435844 156.422379 30.6236853 156 31.1598654 156.381552 32 157.823589 31.5462768"></polyline>
                <polygon id="Fill-15" fill="#178FE3" points="14 110 141 110 141 30 14 30"></polygon>
                <polygon id="Fill-16" fill="#0B73AB" points="14 29 141 29 141 24 14 24"></polygon>
                <polygon id="Fill-17" fill="#979797" points="14 35 141 35 141 29 14 29"></polygon>
                <polygon id="Fill-18" fill="#ECECEC" points="27 34 135 34 135 31 27 31"></polygon>
                <path d="M19,26 C19,26.5521717 18.5523084,27 18,27 C17.4476916,27 17,26.5521717 17,26 C17,25.4478283 17.4476916,25 18,25 C18.5523084,25 19,25.4478283 19,26" id="Fill-19" fill="#8CABEF"></path>
                <path d="M22,26 C22,26.5521717 21.5521179,27 20.9998772,27 C20.4478821,27 20,26.5521717 20,26 C20,25.4478283 20.4478821,25 20.9998772,25 C21.5521179,25 22,25.4478283 22,26" id="Fill-20" fill="#DDDAE8"></path>
                <path d="M25,26 C25,26.5521717 24.5523084,27 24,27 C23.4476916,27 23,26.5521717 23,26 C23,25.4478283 23.4476916,25 24,25 C24.5523084,25 25,25.4478283 25,26" id="Fill-21" fill="#D67086"></path>
                <polyline id="Fill-22" fill="#9196DC" points="22 34 22 31 23 32.5 22 34"></polyline>
                <polyline id="Fill-23" fill="#9196DC" points="19 34 18 32.5 19 31 19 34"></polyline>
                <polyline id="Fill-24" fill="#252526" points="11.1441424 115.243763 11 116.487344 13.5223939 118 15 116.890865 13.8108742 115.512656 11.2884803 114 11.1441424 115.243763"></polyline>
                <polyline id="Fill-25" fill="#252526" points="17.1441424 115.243707 17 116.487413 19.5223939 118 21 116.890916 19.8108742 115.512769 17.2882848 114 17.1441424 115.243707"></polyline>
                <polyline id="Fill-26" fill="#474EBB" points="6 89.5619621 8.7871334 101.703752 10.5 116 13.6996891 115.706536 15 81 6.43303149 81.1524981 6 89.5619621"></polyline>
                <polyline id="Fill-27" fill="#474EBB" points="21.6541985 88.4823257 22 100.106727 19.7023889 115 16.4954409 114.662916 16.0550995 99.2698011 13.7678196 88.7197944 13 81.8137865 19.8585259 81 21.6541985 88.4823257"></polyline>
                <polyline id="Fill-28" fill="#96C4EA" points="16.819402 57.1799763 9.33770848 57 5 65.1285647 6.54169545 72.7420592 6.81624396 81.8532348 17.4885029 82 21 81.4254679 20.0676009 71.6904408 20.6022895 58.68601 16.819402 57.1799763"></polyline>
                <polyline id="Fill-29" fill="#E1CFB5" points="8.04631035 76.9906888 8 78.2140306 10.5369527 79 11.9991008 78.0571429 12 76.6330995 10.5884337 76.5661352 10.5441466 76.2529337 10.0819423 76 8.04631035 76.9906888"></polyline>
                <polyline id="Fill-30" fill="#96C4EA" points="9.01591007 58 0.419968467 67.4568027 0 71.5989269 8.47881729 78 10 75.8949636 4.51645269 70.2959583 9.82861355 65.3227853 9.01591007 58"></polyline>
                <polyline id="Fill-31" fill="#D67086" points="16 62.3882028 20.0121447 70.1660536 24.338043 71 33 69.7153836 31.9372206 67.0880189 23.994621 67.0880189 19.5094073 59 16 62.3882028"></polyline>
                <path d="M15.5485918,50.9793256 C14.4084682,47.6590543 10.0321413,48.9033816 9.13005891,51.8597081 C8.54144066,53.7883554 10.0285498,56.2910002 12.0234668,56.8450116 C12.0322462,56.9207585 12.0388307,56.9917087 12.0390303,57.0518665 C12.0406265,57.3614494 12.0785375,57.6666354 12.1244298,57.9760184 C12.14139,58.0913375 13.8874911,57.7553731 14.0820344,57.7168002 C14.1502743,57.7034096 14.2262958,57.6848226 14.2630096,57.6276627 C14.3332447,57.5177398 14.2187136,57.1945665 14.2061431,57.072652 C14.1907792,56.928553 14.1758143,56.7844541 14.1606499,56.6403552 C15.1449393,56.1590927 15.7658817,55.1344114 15.9392747,54.0913429 C16.1134658,53.0430781 15.8911876,51.9770258 15.5485918,50.9793256" id="Fill-32" fill="#EAC2A7"></path>
                <polyline id="Fill-33" fill="#ECECEC" points="11 57.1192512 13.2185955 60 14.2617637 59.9216547 16 57 11 57.1192512"></polyline>
                <path d="M21.3117896,49.0586722 C21.4403177,48.8460575 21.57923,48.6406117 21.7353839,48.4474284 C22.07375,48.0289905 22.4936217,47.6679039 22.7632173,47.2055092 C23.0326171,46.7431146 23.1178453,46.1216834 22.7741892,45.7073959 C22.5523998,45.440071 22.1989474,45.3110307 21.856075,45.221042 C20.7263595,44.9244756 19.5135709,44.9263621 18.384835,45.226513 C17.3095873,45.5123261 16.3515039,45.969627 15.2556838,45.5996736 C14.2256952,45.2519815 13.4905768,45.4159231 12.4300235,45.8036102 C11.2822827,46.22318 9.73230367,46.346938 8.6976128,46.927997 C8.26539768,47.170608 7.92448457,47.5432026 7.66096266,47.952585 C6.74872621,49.3712744 6.78379716,51.3021635 7.7473665,52.6891587 C7.96347406,53.0004403 8.22013853,53.2836122 8.48953825,53.5537669 C9.04675485,54.1127532 9.71388653,54.803421 10.4685976,55 C10.472908,54.3532889 9.81890344,52.3275061 10.3232197,51.7877628 C11.1237777,50.9314554 12.979403,51.1887815 13.9984197,51.3761164 C15.11011,51.5804304 16.1122769,52.3159982 17.2129952,52.4559805 C18.0051284,52.5567226 19.0051402,52.1643191 19.6683533,51.7583325 C20.4867407,51.2570748 20.843132,49.8346123 21.3117896,49.0586722" id="Fill-34" fill="#292949"></path>
                <polyline id="Fill-35" fill="#3B3387" points="15.1345606 80 9 74.4094492 26.315592 69 33 74.643839 15.1345606 80"></polyline>
                <polyline id="Fill-36" fill="#F7F7F7" points="15 80 33 74.7339615 33 61 15 66.2660385 15 80"></polyline>
                <polyline id="Fill-37" fill="#353A85" points="57.2211055 58 61.7488516 63.6025288 67.7128988 60.1800627 70 62.0199549 65.2923803 67.9455124 61.4770256 71 56 63.9996484 57.2211055 58"></polyline>
                <polyline id="Fill-38" fill="#292949" points="62.7957985 76.5530897 63 93.7991463 61.1186586 116 58.5609249 116 55.50031 95.5176376 52 75 62.7957985 76.5530897"></polyline>
                <polyline id="Fill-39" fill="#292949" points="58 117.500109 60.6667311 119 62 117.500109 60.6667311 116 58 116 58 117.500109"></polyline>
                <polyline id="Fill-40" fill="#292949" points="45.05086 76.5530897 45 86.5304906 46.7495839 116 49.3436471 116 53.6834289 96.4442001 56 75 45.05086 76.5530897"></polyline>
                <polyline id="Fill-41" fill="#292949" points="49 117.500109 46.3333978 119 45 117.500109 46.3333978 116 49 116 49 117.500109"></polyline>
                <path d="M42.0173777,82.1358924 C41.9634387,83.7533307 41.9982126,85.9167895 42.6699812,85.9974812 C42.795839,86.0126985 42.9171525,85.9562343 43.0279943,85.9015722 C44.196279,85.3263184 45.0292721,84.5131943 46.1813553,83.9573626 C47.388563,83.3749006 48.7605516,83.0703544 50.1013227,82.8597151 C52.1012174,82.5361473 54.1341078,82.3415261 56.1468451,82.3235056 C57.8766493,82.3078879 59.6756062,83.1075968 61.3109676,83.5474967 C61.9404543,83.716689 62.4525791,84.1816174 62.9755707,84.5462318 C63.747907,85.0846437 64.0865574,85.2980863 63.9812478,84.1978359 C63.8093541,82.4021951 63.6309403,80.607155 63.4130106,78.8169203 C62.9781392,75.2458618 62.3863901,71.683413 61.3852573,68.2262839 C61.0027443,66.9055829 60.5613528,65.6033028 60.1203565,64.3018236 C59.5831392,62.716622 59.0459219,61.1314204 58.5087046,59.5462188 C57.8412827,57.5759796 56.7144896,56.1880021 54.7416632,55.4988188 C53.0365564,54.9033421 50.9187071,54.7403568 49.2602289,55.5741044 C47.4168168,56.5009578 46.5401587,59.658146 45.6445331,61.3454637 C44.8597493,62.823944 43.8704712,66.8565271 43.5766712,68.4505387 C43.2230048,70.3691192 42.8964067,72.2784893 42.6393564,74.1830538 C42.3544475,76.292251 42.1537072,78.3954413 42.095619,80.4862175 C42.0890989,80.7174804 42.0432606,81.3636147 42.0173777,82.1358924" id="Fill-42" fill="#201251"></path>
                <path d="M51.5702147,57 L55.0501289,57.0323225 C55.0501289,57.0323225 58.7842918,69.7681581 58.9216143,71.9631287 C59.0563116,74.1180904 60,82.8554018 60,82.8554018 C60,82.8554018 56.1460838,82.9440915 51.7057197,83.4720906 C47.3647125,84.378696 47,83.8426163 47,83.8426163 C47,83.8426163 49.3427626,74.6592944 49.4203094,72.0208755 C49.4998757,69.3221476 49.8538851,60.4092306 49.8538851,60.4092306 L51.5702147,57" id="Fill-43" fill="#FFFFFF"></path>
                <path d="M53.5956947,56.8980816 C53.5583408,56.9327763 53.5152543,56.9601773 53.4655107,56.9777217 C53.3663933,57.0122193 53.2589544,56.999603 53.1553989,56.9865925 C52.733965,56.9333677 52.3123462,56.8801429 51.8909122,56.8271152 C52.0297876,55.450958 51.2753118,55.1396914 50.5400677,54.2547795 C49.794653,53.3574485 50.0241394,52.1478652 50.0659314,51.0498569 C50.0779513,50.7441099 50.0920052,50.4290979 50.2133131,50.1517374 C50.4261566,49.6648289 50.9217437,49.3961421 51.402722,49.2366648 C52.6304095,48.8299878 54.0346961,48.9301293 55.1157416,49.6719255 C55.4034779,49.8694487 55.6719826,50.1176341 55.8278706,50.4423055 C56.0680824,50.9428159 56.0070586,51.5403138 55.9401174,52.0981887 C55.8371166,52.9556997 55.5991239,53.7978346 55.1442193,54.5205093 C54.7205664,55.1937047 53.9126485,55.5160105 53.8198184,56.3240421 C53.7957788,56.5329988 53.7366042,56.7677794 53.5956947,56.8980816" id="Fill-44" fill="#EAC2A7"></path>
                <path d="M56.1686786,50.9412656 C56.109993,51.2935748 55.9862694,51.649899 56.0508537,52 C56.4722401,51.810295 56.7475177,51.2381689 56.8968028,50.656407 C56.9645634,50.3928275 57.0135689,50.1137906 56.9966287,49.8349544 C56.9795373,49.5561182 56.8883327,49.2758767 56.7224099,49.1180904 C56.4909953,48.8982735 56.0756589,48.9845943 56.0094108,49.3832759 C55.9425577,49.7851694 56.2568581,50.4114969 56.1686786,50.9412656" id="Fill-45" fill="#292949"></path>
                <path d="M58.9991876,48.2023036 C58.9865498,47.7683641 58.8331727,47.3806674 58.4735695,47.1186934 C58.1635601,46.8930531 57.8062546,46.7058109 57.6178363,46.3468095 C57.471544,46.0683203 57.450098,45.7235634 57.3051462,45.4440419 C57.0430073,44.9382608 56.4735397,44.7892102 55.9783672,44.617864 C54.739287,44.188879 54.0721636,43.6936264 52.7597459,44.2427602 C51.8266539,44.6333471 50.6210831,44.6855767 49.7552014,45.2551481 C49.3934919,45.4929685 49.0857802,45.8750913 48.8332155,46.3007731 C47.9583341,47.7753831 47.7482783,49.8490855 48.3181288,51.3870729 C48.4456558,51.731417 48.6076496,52.0480979 48.7809409,52.3511536 C49.1273318,52.9574716 49.498424,53.7033439 50.1117409,54 C50.1504203,53.7142853 50.3476468,53.5567706 50.4094955,53.2760105 C50.4539193,53.0741109 50.4389837,52.8623022 50.4294096,52.6544159 C50.3916877,51.845579 50.1615263,50.5668818 50.9107954,50.1657664 C51.858057,49.6587467 53.6348187,50.1162205 54.5472306,50.5454119 C55.3545188,50.9254703 56.7169134,51.4194842 57.5776251,51.0125885 C58.3766796,50.634801 59.0261866,49.1292249 58.9991876,48.2023036" id="Fill-46" fill="#292949"></path>
                <path d="M69.4999006,61 C85.7922761,61 99,73.9837125 99,90 C99,106.016288 85.7922761,119 69.4999006,119 C53.2075251,119 40,106.016288 40,90 C40,73.9837125 53.2075251,61 69.4999006,61 Z" id="Fill-47" fill="#F5A623"></path>
                <path d="M83.6267771,104.626741 C80.7514328,107.502098 77.1784511,109.425232 73.2898996,110.241114 C74.2791046,109.283579 75.4225532,108.060643 76.5691496,106.584305 C78.3728551,104.261788 79.8112158,101.788569 80.8442937,99.2331114 C81.1065471,98.5848527 81.3410603,97.9308886 81.5507844,97.2722028 L88.3750791,97.2722028 C87.3522317,100.001381 85.7492002,102.504309 83.6267771,104.626741 Z M54.3734197,104.626741 C52.2507998,102.504309 50.6477683,100.001381 49.6249209,97.2722028 L56.7553419,97.2722028 C56.965066,97.9308886 57.1995791,98.5848527 57.4616358,99.2331114 C58.4949104,101.788569 59.9332712,104.261788 61.7369767,106.584305 C62.9150514,108.101368 64.0891913,109.349684 65.0970865,110.318629 C61.0586197,109.551539 57.3435923,107.597123 54.3734197,104.626741 Z M49.1889467,84.0174286 L56.0596719,84.0174286 C55.6929499,85.7335925 55.5062443,87.4955969 55.5062443,89.291047 C55.5062443,91.1990326 55.7149847,93.093443 56.1291208,94.9575555 L48.9101671,94.9575555 C48.5176723,93.3543204 48.3148341,91.6930469 48.3148341,90.0000984 C48.3148341,87.9435741 48.6132876,85.9328902 49.1889467,84.0174286 Z M54.3734197,75.3732587 C57.2225976,72.5240686 60.7568217,70.6097874 64.6044514,69.7813148 C63.7232563,70.5625698 62.7484133,71.522268 61.7716028,72.6643443 C59.9564864,74.7865798 58.5088789,77.1037847 57.4693087,79.5518218 C57.1696748,80.2581187 56.905454,80.9756299 56.6738918,81.7027813 L50.0406309,81.7027813 C51.0617077,79.3714111 52.5195456,77.2271407 54.3734197,75.3732587 Z M83.6267771,75.3732587 C85.4806511,77.2271407 86.9382923,79.3714111 87.9595658,81.7027813 L81.6322344,81.7027813 C81.4008691,80.9756299 81.1364515,80.2581187 80.8366209,79.5518218 C79.7972474,77.1037847 78.3498366,74.7865798 76.5345235,72.6643443 C75.5958805,71.566928 74.6592048,70.6383147 73.8057499,69.8739794 C77.4942176,70.7477022 80.8791166,72.6257832 83.6267771,75.3732587 Z M82.2462577,84.0174286 L88.8110533,84.0174286 C89.3867124,85.9328902 89.6853626,87.9435741 89.6853626,90.0000984 C89.6853626,91.6930469 89.4823277,93.3543204 89.0898329,94.9575555 L82.1770055,94.9575555 C82.5909449,93.093443 82.799882,91.1990326 82.799882,89.291047 C82.799882,87.4955969 82.6131764,85.7335925 82.2462577,84.0174286 Z M70.1574171,94.9575555 L70.1574171,84.0174286 L79.8737789,84.0174286 C80.2792585,85.7269034 80.4850478,87.4898914 80.4850478,89.291047 C80.4850478,91.200213 80.2550596,93.0958039 79.799805,94.9575555 L70.1574171,94.9575555 Z M70.1574171,109.951119 L70.1574171,97.2722028 L79.1108241,97.2722028 C78.9872718,97.6239741 78.85585,97.9743682 78.7157716,98.3227949 C77.7702428,100.673446 76.4485484,102.955237 74.7872821,105.10482 C73.0364994,107.370282 71.2689939,109.014046 70.1574171,109.951119 Z M67.8427797,97.2722028 L67.8427797,109.691618 C66.74163,108.736642 65.1537475,107.210136 63.5650779,105.164629 C61.8924007,103.010718 60.5608694,100.723221 59.6076677,98.3654875 C59.4610969,98.0028955 59.3235762,97.6383361 59.1949087,97.2722028 L67.8427797,97.2722028 Z M67.8427797,70.1305285 L67.8427797,81.7027813 L59.1158195,81.7027813 C59.2590457,81.2994641 59.4128958,80.8996882 59.5799275,80.5042406 C60.5177835,78.2812742 61.828854,76.1710399 63.4763485,74.2323629 C65.09748,72.3245741 66.7339572,70.9558532 67.8427797,70.1305285 Z M74.7754777,74.1686191 C76.4367441,76.1110341 77.7592254,78.2265804 78.7061314,80.4564328 C78.8808359,80.8676196 79.0409816,81.2833314 79.19011,81.7027813 L70.1574171,81.7027813 L70.1574171,69.9038839 C71.2412537,70.6821877 73.007382,72.1012741 74.7754777,74.1686191 Z M57.8210785,89.291047 C57.8210785,87.4898914 58.0268677,85.7269034 58.4323474,84.0174286 L67.8427797,84.0174286 L67.8427797,94.9575555 L58.5067148,94.9575555 C58.0512634,93.0958039 57.8210785,91.2004097 57.8210785,89.291047 Z M90.1919662,81.0468498 C89.0335654,78.3080308 87.3754469,75.8483861 85.2632542,73.7365778 C83.151455,71.6247696 80.6920175,69.9664473 77.9530135,68.8078448 C75.1166236,67.6083204 72.1045455,67 69,67 C65.8956512,67 62.8833764,67.6083204 60.0471832,68.8078448 C57.3081792,69.9664473 54.848545,71.6247696 52.736549,73.7365778 C50.6247498,75.8483861 48.9664346,78.3080308 47.8080338,81.0468498 C46.6083178,83.8832519 46,86.8955396 46,90.0000984 C46,93.1044604 46.6083178,96.1167481 47.8080338,98.9531502 C48.9664346,101.691969 50.6247498,104.151614 52.736549,106.263422 C54.848545,108.375624 57.3081792,110.033553 60.0471832,111.192155 C62.8833764,112.391876 65.8956512,113 69,113 C72.1045455,113 75.1166236,112.391876 77.9530135,111.192155 C80.6920175,110.033553 83.151455,108.375624 85.2632542,106.263422 C87.3754469,104.151614 89.0335654,101.691969 90.1919662,98.9531502 C91.3916822,96.1167481 92,93.1044604 92,90.0000984 C92,86.8955396 91.3916822,83.8832519 90.1919662,81.0468498 L90.1919662,81.0468498 Z" id="Fill-48" fill="#FFFFFF"></path>
                <polyline id="Fill-49" fill="#EAC2A7" points="68.9353221 59.3864696 71.9301776 59 74 61.0138715 72.7420325 62 70.6949235 61.164639 69.7034976 61.5777146 68 60.7372371 68.9353221 59.3864696"></polyline>
                <path d="M120.108674,114.360063 C120.376982,114.101809 120.690387,113.960942 121.044563,114.009489 C121.384617,114.056445 121.690734,114.257796 121.83081,114.526994 C121.926472,114.710836 121.946743,114.91557 121.965647,115.115926 C122.063814,116.152924 122.054932,118.614701 120.473782,118.969254 C119.809162,119.118079 119.259563,118.705627 119.082134,118.184542 C118.814965,117.399232 119.210594,115.223764 120.108674,114.360063" id="Fill-50" fill="#323643"></path>
                <path d="M120,99 L120.069381,105.204867 C119.988723,107.961023 120.409977,110.732601 120.329511,113.488758 C120.31078,114.122557 120.149083,114.7911 120.305428,115.419239 C120.458142,116.033713 120.947248,116.142242 121.449159,115.831296 C122.12156,115.414359 122.012997,114.440725 122.125,113.730409 C122.432531,111.778847 122.793578,109.836069 123.11487,107.886654 C123.272362,106.930978 122.94763,105.591743 123.018349,104.624551 L124,99.4243545 L120,99" id="Fill-51" fill="#EAC2A7"></path>
                <polyline id="Fill-52" fill="#353A85" points="127 88.5169436 124.212996 100.594421 123.620946 112 119.201625 111.903116 118 80 126.567093 80.1517128 127 88.5169436"></polyline>
                <path d="M114.229552,114.32263 C114.501854,114.076244 114.812456,113.950749 115.152945,114.018 C115.48015,114.082849 115.767064,114.301214 115.890153,114.579825 C115.974058,114.769568 115.98402,114.976925 115.992654,115.179678 C116.03848,116.228671 115.912513,118.706745 114.363932,118.981553 C113.713285,119.09704 113.200116,118.653505 113.053117,118.119501 C112.831512,117.314893 113.318557,115.145452 114.229552,114.32263" id="Fill-53" fill="#323643"></path>
                <path d="M116,99 L115.645452,105.373578 C115.616699,107.14511 115.392774,108.902583 115.218927,110.661864 C115.057457,112.296027 115.308802,113.998272 114.498977,115.484624 C114.244966,115.950552 113.731804,116.260836 113.373066,115.694693 C113.096777,115.258287 113.260913,114.530475 113.207788,114.035225 C112.991479,112.014462 112.721664,110.000125 112.491646,107.980969 C112.378921,106.991072 112.763555,105.630441 112.737659,104.632912 L112,99.2403949 L116,99" id="Fill-54" fill="#EAC2A7"></path>
                <polyline id="Fill-55" fill="#353A85" points="111.346124 88.4842036 111 100.111615 112.81352 111.869806 117.135712 112 116.945121 99.27471 119.232213 88.7217881 120 81.8139071 113.14163 81 111.346124 88.4842036"></polyline>
                <polyline id="Fill-56" fill="#F7F7F7" points="116.180581 56.1798248 123.662323 56 128 64.1284779 126.458268 71.741985 126.183695 80.853176 115.511406 81 112 80.4255486 112.932374 70.6905037 112.39774 57.6860061 116.180581 56.1798248"></polyline>
                <polyline id="Fill-57" fill="#F7F7F7" points="123.971284 57 130 66.2858415 129.094145 71.4588615 119.757004 78 118 76.4464205 124.242282 68.4664835 124.000097 63.4237981 123.971284 57"></polyline>
                <polyline id="Fill-58" fill="#F7F7F7" points="116 61.3881501 112.0124 69.1662288 107.712937 70 97 65.4361895 98.8479023 63.3909241 108.617622 65.1356167 112.512104 58 116 61.3881501"></polyline>
                <path d="M116.451472,49.979482 C117.591697,46.6589675 121.967814,47.9033661 122.869922,50.8598553 C123.458573,52.7884148 121.971581,55.2911136 119.976435,55.8449961 C119.967711,55.9210581 119.961169,55.9917581 119.960772,56.052131 C119.959384,56.3617412 119.921515,56.6667837 119.875518,56.9759967 C119.858665,57.0913806 118.112541,56.7553572 117.917844,56.7170283 C117.849839,56.7035238 117.773903,56.6852531 117.737026,56.6276604 C117.66684,56.5180358 117.781239,56.1947225 117.793928,56.072785 C117.809194,55.9286047 117.824263,55.7844245 117.839331,55.6406414 C116.855141,55.1594449 116.234173,54.1346928 116.060691,53.0912728 C115.886613,52.043285 116.108671,50.9772251 116.451472,49.979482" id="Fill-59" fill="#EAC2A7"></path>
                <path d="M119.56944,47.4547154 C119.795291,47.6850564 119.884257,48.006498 119.949358,48.3150897 C119.988305,48.4994008 120.021715,48.6902328 119.982386,48.8728178 C119.825837,49.6006646 119.107237,49.5626899 118.551487,49.7972503 C117.865915,50.0866629 117.275037,50.6192664 116.8913,51.2328057 C116.290303,52.1936784 116.560637,53.4297712 116.804434,54.4894163 C116.890155,54.8628333 117.062932,55.4180682 116.774843,55.7510173 C116.48179,56.0895283 115.804809,56.0373612 115.45391,55.8630232 C115.133365,55.7040285 114.869904,55.4098211 114.517859,55.3503659 C114.145386,55.2878421 113.641756,55.4523987 113.468406,55.1090929 C113.420105,55.013581 113.415714,54.8965885 113.354812,54.8091318 C113.148816,54.5133902 112.636976,54.8597646 112.346787,54.6512879 C112.168282,54.5229797 112.169619,54.2498694 112.229948,54.0335292 C112.290276,53.8173807 112.392034,53.5981637 112.349842,53.3781794 C112.313568,53.1890735 112.178019,53.0398602 112.094017,52.8678237 C111.928495,52.5279701 111.985769,52.0857001 112.23243,51.798589 C112.691196,51.2652184 113.578945,51.366484 114.070739,50.8647588 C114.326564,50.6035395 114.42603,50.2264785 114.521487,49.8697473 C114.616943,49.5128243 114.731492,49.1367222 115.005262,48.8948738 C115.343562,48.5962553 115.831728,48.6470799 116.165255,48.292842 C116.361514,48.0847488 116.492099,47.8137481 116.712223,47.6326975 C117.002221,47.3939177 117.569044,47.2103737 117.929681,47.0885865 C118.50204,46.895453 119.141793,47.018391 119.56944,47.4547154" id="Fill-60" fill="#292949"></path>
                <path d="M122.481533,52.5298673 C122.501075,53.5916733 121.982174,54.7395352 122.463319,55.6741869 C122.948639,56.6175213 124.158522,56.7875106 125.189874,56.83652 C125.359489,56.8446239 127.535837,57.0360307 127.545134,56.9939675 C127.707919,56.2543887 127.876585,55.5001456 128.256607,54.8506746 C128.636818,54.2012036 129.272211,53.663065 130,53.6169498 C129.789973,53.5799033 129.684106,53.3184556 129.708391,53.0981062 C129.732676,52.8775639 129.844994,52.678825 129.90988,52.4669655 C130.06906,51.9465783 129.914054,51.3393634 129.528341,50.9737224 C128.758243,50.243984 127.362617,50.5471091 126.70256,49.7089326 C126.293321,49.1891243 126.34208,48.4352671 126.12769,47.8008462 C125.712949,46.5738747 124.392265,46.3172507 123.40493,45.7630971 C122.362954,45.1782645 121.381501,44.857581 120.178827,45.0615295 C118.68777,45.3142945 117.57939,46.8580906 118.154639,48.3108141 C118.892105,50.174136 121.840638,50.0134083 122.392741,51.9052869 C122.452126,52.1084637 122.477549,52.3174289 122.481533,52.5298673" id="Fill-61" fill="#292949"></path>
                <polyline id="Fill-62" fill="#EAC2A7" points="122 56.119187 119.781402 59 118.738283 58.9216328 117 56 122 56.119187"></polyline>
                <path d="M104.146724,73.4218061 C104.354106,73.4218061 104.557799,73.5055178 104.691781,73.6460978 L109.939239,79.154565 L113.197929,75.8989561 L107.960957,70.4016239 C107.80678,70.2399669 107.731245,70.0319801 107.747944,69.8160398 C107.766003,69.5861806 107.887752,69.3696437 108.08193,69.2217067 L111.795384,66.399768 L94.0450181,59.1311682 L100.702012,77.4831152 L103.604969,73.6779122 C103.729242,73.5148633 103.926915,73.4218061 104.146724,73.4218061 Z M109.919433,81 C109.718459,81 109.532437,80.9208616 109.395736,80.7772991 L104.221677,75.3461806 L101.023376,79.5387241 C100.893471,79.7093289 100.707837,79.8031814 100.501427,79.8031814 C100.182393,79.8031814 99.8686014,79.5765037 99.7552016,79.2637283 L92.0480946,58.0168683 C91.9465397,57.7371002 92.0084824,57.4493786 92.2086796,57.2557084 C92.3348951,57.0926595 92.5181988,57 92.717231,57 C92.807912,57 92.8999522,57.0188898 92.9910215,57.0562717 L113.541818,65.4715824 C113.819492,65.585319 114.00668,65.8217399 114.042214,66.1040928 C114.077749,66.3830655 113.95697,66.6574648 113.719491,66.8378128 L109.622147,69.9518476 L114.785138,75.3716321 C114.918538,75.5116156 114.996792,75.7058824 115,75.9043248 C115.003199,76.1152941 114.925917,76.3105551 114.782031,76.4543165 L110.452839,80.7792875 C110.312643,80.9196686 110.118077,81 109.919433,81 L109.919433,81 Z" id="Fill-63" fill="#FFFFFF"></path>
                <path d="M114.214043,76.0176745 C112.750184,77.4202229 111.286128,78.8225779 109.821875,80.2249329 C109.738546,80.3050122 109.625472,80.3467927 109.513186,80.3467927 C109.405824,80.3467927 109.299251,80.3086873 109.219862,80.2288015 C108.980515,79.9877898 108.741168,79.7467782 108.501821,79.50596 C106.902824,77.8964433 105.304024,76.2871201 103.705027,74.6779903 C102.545326,76.1354723 101.385625,77.5931478 100.225924,79.0508233 C100.151854,79.1440557 100.056115,79.1825479 99.9586032,79.1825479 C99.7720503,79.1825479 99.5782086,79.0415387 99.5133978,78.8707416 C99.1930862,78.024106 98.8727746,77.177277 98.5524631,76.330448 C97.1526267,72.6297783 95.7525934,68.9289151 94.35256,65.2280519 C93.4666799,62.8862158 92.5806028,60.5439928 91.6947227,58.2021567 C91.6283359,58.0271041 91.6834941,57.8860949 91.7918405,57.7973113 C91.8531055,57.7112358 91.9456925,57.6532073 92.0617217,57.6532073 C92.1091972,57.6532073 92.1608095,57.6630721 92.2157707,57.6847361 C93.0699349,58.0201407 93.924099,58.3553519 94.7782632,58.6907565 C98.5110944,60.1567494 102.24432,61.6225489 105.977348,63.0883484 C108.339695,64.0158369 110.702239,64.9435189 113.064586,65.8710075 C113.415431,66.0087285 113.480242,66.4085447 113.169977,66.6344689 C111.682479,67.7186344 110.19498,68.8026064 108.707482,69.8865785 C108.832376,70.0123069 108.956876,70.1378418 109.08177,70.2633768 C110.791674,71.9843081 112.501381,73.7052395 114.211286,75.4263643 C114.369668,75.5859426 114.380897,75.8577093 114.214043,76.0176745 Z M114.687616,74.970067 L109.715498,69.9654972 L113.566526,67.1592398 C113.905748,66.9120385 114.077527,66.5315651 114.025915,66.1410334 C113.973711,65.7472134 113.706785,65.4195459 113.311616,65.2644165 L92.4628006,57.0779516 C92.3310119,57.0261128 92.1960713,57 92.0617217,57 C91.7640644,57 91.4912283,57.1278561 91.3001446,57.3537803 C91.010958,57.6332842 90.9225079,58.0377427 91.070844,58.4296284 L98.8897161,79.0982132 C99.0514478,79.5256897 99.5009872,79.8359486 99.9586032,79.8359486 C100.26808,79.8359486 100.556873,79.6962934 100.750517,79.4529607 L103.760579,75.6695036 L108.02549,79.9620639 L108.384413,80.3235813 L108.743532,80.6849053 C108.94545,80.8881985 109.218877,81 109.513186,81 C109.800796,81 110.082891,80.888005 110.286779,80.6926425 L114.678751,76.4853841 C114.887564,76.2851858 115.004776,76.0031674 115,75.7114776 C114.99532,75.4315868 114.88461,75.168331 114.687616,74.970067 L114.687616,74.970067 Z" id="Fill-64" fill="#FFFFFF"></path>
                <path d="M112.28738,76.9946829 L110.132866,79.0542556 L104.910749,73.809403 C104.705259,73.6031092 104.409652,73.4847179 104.099296,73.4847179 C103.76449,73.4847179 103.461003,73.6244909 103.266626,73.8684007 L100.621926,77.1853364 L94.1757592,60.1809431 L110.639014,66.6318821 L111.364392,66.9157836 L107.990879,69.3691361 C107.709618,69.5736481 107.533022,69.8773475 107.506552,70.2026265 C107.481093,70.5152349 107.59384,70.8145788 107.823981,71.0458179 L113.034984,76.2797817 L112.28738,76.9946829 Z M108.312348,70.5785881 C108.099988,70.365365 108.17192,70.0701787 108.397616,69.9060544 C109.848978,68.8506298 111.300543,67.7950072 112.752309,66.7395825 C112.132202,66.4964647 111.512297,66.2537427 110.892593,66.0108228 C107.063445,64.51054 103.234702,63.0102572 99.4055536,61.5101723 C97.2704364,60.6733162 95.1351172,59.8368561 93,59 C93.2188258,59.577306 93.4376515,60.154612 93.6564773,60.7321159 C95.0924835,64.519845 96.5286918,68.3077721 97.964496,72.0955012 C98.7787784,74.2439664 99.5932629,76.3924316 100.407747,78.5406988 C101.539863,77.1203994 102.67218,75.7002979 103.804497,74.2801965 C103.874206,74.1926899 103.985741,74.1534901 104.099296,74.1534901 C104.220529,74.1534901 104.344187,74.1982333 104.42218,74.2762369 C104.667677,74.5229184 104.913376,74.7694019 105.158873,75.0160834 C106.812695,76.6775209 108.466719,78.3387605 110.120742,80 C111.413896,78.7638208 112.707049,77.5276416 114,76.2916604 C113.858157,76.1487197 113.71591,76.0059771 113.573664,75.8632344 C111.820027,74.1016197 110.06639,72.3402029 108.312348,70.5785881 L108.312348,70.5785881 Z" id="Fill-65" fill="#FFFFFF"></path>
                <polyline id="Fill-66" fill="#979797" points="92 58 99.8880749 78.8174452 103.669645 74.0718353 109.568957 80 114 75.7622847 108.100489 69.83412 113.033343 66.2453487 92 58"></polyline>
                <polyline id="Fill-67" fill="#E1CFB5" points="115.953764 76.9906844 116 78.2140684 113.463033 79 112.001117 78.0572243 112 76.6330798 113.41166 76.5661597 113.455886 76.2530418 113.918025 76 115.953764 76.9906844"></polyline>
                <polyline id="Fill-68" fill="#EAC2A7" points="49.8250194 78 49 79.0022479 50.3812355 81 52.0790385 80.9801653 53 79.7855207 51.9921944 78.9847934 52.1615404 78.6985785 51.9810287 78.2423802 49.8250194 78"></polyline>
                <polyline id="Fill-69" fill="#201251" points="48.6809487 57 42.4497639 60.8240596 39 67.3428683 39.9058551 72.4907915 49.2428008 79 51 77.4541536 44.7577183 69.512931 44.9999027 64.4943182 48.6809487 57"></polyline>
                <g id="Group-3" transform="translate(40.000000, 0.000000)">
                    <polygon id="Fill-70" fill="#0C7DBA" points="0 23 66 23 66 0 0 0"></polygon>
                    <polyline id="Fill-71" fill="#0C7DBA" points="40 21 40 33 51 21 40 21"></polyline>
                    <polyline id="Fill-72" fill="#FFFFFF" points="18.0808903 13.6936022 15.4288429 6.02825426 13.7273926 6.03458711 11.071225 13.6119247 8.48213316 6.05423519 6 6.06349089 9.99158523 17 11.9428804 16.9926929 14.5220839 9.73849311 17.1411703 16.9732072 19.0926303 16.9659 23 6 20.6741023 6.00860618 18.0808903 13.6936022"></polyline>
                    <polyline id="Fill-73" fill="#FFFFFF" points="36.0808903 13.693651 33.4290077 6.02841622 31.7273926 6.03474898 29.0713898 13.6119747 26.4821332 6.05423439 24 6.06365233 27.9915852 17 29.9428804 16.992693 32.5220839 9.7386003 35.1413351 16.9733699 37.0927951 16.9660629 41 6 38.6739375 6.00876843 36.0808903 13.693651"></polyline>
                    <polyline id="Fill-74" fill="#FFFFFF" points="53.0810075 13.6936022 50.4290991 6.02809188 48.7273027 6.03458711 46.0712742 13.6119247 43.4821572 6.05423519 41 6.06349089 44.9916239 17 46.942938 16.9926929 49.5221665 9.73849311 52.1414431 16.9732072 54.0927572 16.9659 58 6 55.6742446 6.00860618 53.0810075 13.6936022"></polyline>
                    <polyline id="Fill-75" fill="#FFFFFF" points="60.9925152 15 59 15.0075777 59.0074848 17 61 16.9924223 60.9925152 15"></polyline>
                </g>
            </g>
        </g>
    </g>
</svg>