<?xml version="1.0" encoding="UTF-8"?>
<svg width="580px" height="311px" viewBox="0 0 580 311" version="1.1" xmlns="http://www.w3.org/2000/svg" xmlns:xlink="http://www.w3.org/1999/xlink">
    <!-- Generator: Sketch 59.1 (86144) - https://sketch.com -->
    <title>Group 17</title>
    <desc>Created with Sketch.</desc>
    <defs>
        <polygon id="path-1" points="0.203425272 0.321478932 554.989878 0.321478932 554.989878 298 0.203425272 298"></polygon>
        <filter x="-5.4%" y="-10.1%" width="110.8%" height="120.2%" filterUnits="objectBoundingBox" id="filter-3">
            <feGaussianBlur stdDeviation="10" in="SourceGraphic"></feGaussianBlur>
        </filter>
    </defs>
    <g id="Products-Page" stroke="none" stroke-width="1" fill="none" fill-rule="evenodd">
        <g id="Products-Page-Small-Business" transform="translate(-748.000000, -193.000000)">
            <g id="Group-17" transform="translate(748.000000, 193.000000)">
                <g id="Group-3" transform="translate(25.000000, 13.000000)">
                    <mask id="mask-2" fill="white">
                        <use xlink:href="#path-1"></use>
                    </mask>
                    <g id="Clip-2"></g>
                    <path d="M492.445866,93.4841204 C469.665899,74.0249231 442.203015,-43.3296392 348.124273,17.7921204 C299.518419,49.3713358 217.557908,-9.31810862 149.719027,10.9529866 C87.4169872,29.5698778 81.4115161,90.9055082 87.4395921,110.89178 C99.6165283,151.264023 61.7226802,157.272 26.5697562,174.618168 C-28.5705903,201.826717 11.9764614,297.449578 64.0688626,297.906377 C116.160589,298.363851 431.744385,296.996159 431.744385,296.996159 C431.744385,296.996159 507.41872,297.18773 538.888063,255.36164 C572.75251,210.351814 551.28565,143.747463 492.445866,93.4841204" id="Fill-1" fill-opacity="0.100824956" fill="#178FE3" filter="url(#filter-3)" mask="url(#mask-2)"></path>
                </g>
                <polygon id="Fill-4" fill="#F7DF52" points="422 254 551 254 551 35 422 35"></polygon>
                <polygon id="Fill-7" fill="#308DFC" points="417 254 546 254 546 35 417 35"></polygon>
                <polygon id="Fill-8" fill="#F3F9FF" points="426 122 539 122 539 46 426 46"></polygon>
                <polygon id="Fill-9" fill="#F3F9FF" points="477 234 537 234 537 194 477 194"></polygon>
                <path d="M430,85.2186397 C430,85.2186397 449.168223,82.8962482 460.880901,93.3894705 C472.593578,103.882365 494.413321,94.3190173 503.198672,93.3894705 C518.473571,91.7726821 530.448231,96.6325559 534,101.974745 L534,118 L430,118 L430,85.2186397 Z" id="Fill-10" fill="#DB5A28"></path>
                <polygon id="Fill-12" fill="#EE9849" points="445 83 446 83 446 58 445 58"></polygon>
                <polygon id="Fill-14" fill="#EE9849" points="477 95 478 95 478 70 477 70"></polygon>
                <polygon id="Fill-15" fill="#EE9849" points="510 89 511 89 511 64 510 64"></polygon>
                <path d="M455.286338,62 L448.714022,62 C448.321022,62 448,61.7748678 448,61.5001259 C448,61.225384 448.321022,61 448.714022,61 L455.286338,61 C455.678978,61 456,61.225384 456,61.5001259 C456,61.7748678 455.678978,62 455.286338,62" id="Fill-16" fill="#EE9849"></path>
                <path d="M455.286338,64 L448.714022,64 C448.321022,64 448,63.7750063 448,63.500126 C448,63.2249937 448.321022,63 448.714022,63 L455.286338,63 C455.678978,63 456,63.2249937 456,63.500126 C456,63.7750063 455.678978,64 455.286338,64" id="Fill-17" fill="#EE9849"></path>
                <path d="M487.285682,75 L480.714318,75 C480.321713,75 480,74.7750063 480,74.500126 C480,74.2249937 480.321713,74 480.714318,74 L487.285682,74 C487.678647,74 488,74.2249937 488,74.500126 C488,74.7750063 487.678647,75 487.285682,75" id="Fill-18" fill="#EE9849"></path>
                <path d="M487.285682,77 L480.714318,77 C480.321713,77 480,76.775063 480,76.5 C480,76.224937 480.321713,76 480.714318,76 L487.285682,76 C487.678647,76 488,76.224937 488,76.5 C488,76.775063 487.678647,77 487.285682,77" id="Fill-19" fill="#EE9849"></path>
                <path d="M519.28565,65 L512.71399,65 C512.321368,65 512,64.7748678 512,64.5001259 C512,64.2251322 512.321368,64 512.71399,64 L519.28565,64 C519.678632,64 520,64.2251322 520,64.5001259 C520,64.7748678 519.678632,65 519.28565,65" id="Fill-20" fill="#EE9849"></path>
                <path d="M519.28565,68 L512.71399,68 C512.321368,68 512,67.7748111 512,67.5 C512,67.2251889 512.321368,67 512.71399,67 L519.28565,67 C519.678632,67 520,67.2251889 520,67.5 C520,67.7748111 519.678632,68 519.28565,68" id="Fill-21" fill="#EE9849"></path>
                <path d="M516,140.5 C516,134.148852 521.148424,129 527.499825,129 C533.850877,129 539,134.148852 539,140.5 C539,146.851148 533.850877,152 527.499825,152 C521.148424,152 516,146.851148 516,140.5" id="Fill-22" fill="#F3F9FF"></path>
                <path d="M537,140.500174 C537,146.298669 532.458643,151 526.856704,151 C524.21199,151 521.803934,149.953437 520,148.237549 L526.856704,140.500174 L526.856704,130 C532.458643,130 537,134.700982 537,140.500174" id="Fill-23" fill="#96C4EA"></path>
                <path d="M523.784542,140 L521.214982,140 C521.096552,140 521,139.775262 521,139.500276 C521,139.22529 521.096552,139 521.214982,139 L523.784542,139 C523.902973,139 524,139.22529 524,139.500276 C524,139.775262 523.902973,140 523.784542,140" id="Fill-24" fill="#EE9849"></path>
                <path d="M489,140.5 C489,134.148852 494.149123,129 500.500175,129 C506.851227,129 512,134.148852 512,140.5 C512,146.851148 506.851227,152 500.500175,152 C494.149123,152 489,146.851148 489,140.5" id="Fill-25" fill="#F3F9FF"></path>
                <path d="M500.522554,140.500174 L506.987428,148.784037 C505.204063,150.173638 502.96052,151 500.522554,151 C494.710532,151 490,146.298669 490,140.500174 C490,134.700982 494.710532,130 500.522554,130 C506.008675,130 510.514995,134.191136 511,139.540854 L500.522554,140.500174 Z" id="Fill-26" fill="#F5A623"></path>
                <path d="M507.708972,143 L505.290706,143 C505.130882,143 505,142.775691 505,142.500552 C505,142.225414 505.130882,142 505.290706,142 L507.708972,142 C507.869118,142 508,142.225414 508,142.500552 C508,142.775691 507.869118,143 507.708972,143" id="Fill-27" fill="#EE9849"></path>
                <path d="M516,172.499825 C516,166.148773 521.148424,161 527.499825,161 C533.850877,161 539,166.148773 539,172.499825 C539,178.851227 533.850877,184 527.499825,184 C521.148424,184 516,178.851227 516,172.499825" id="Fill-28" fill="#F3F9FF"></path>
                <path d="M537,172.499826 C537,178.299018 532.458643,183 526.856704,183 C524.21199,183 521.803934,181.953437 520,180.237898 L526.856704,172.499826 L526.856704,162 C532.458643,162 537,166.70168 537,172.499826" id="Fill-29" fill="#DB5A28"></path>
                <path d="M523.784542,171 L521.214982,171 C521.096552,171 521,170.775262 521,170.500276 C521,170.225842 521.096552,170 521.214982,170 L523.784542,170 C523.902973,170 524,170.225842 524,170.500276 C524,170.775262 523.902973,171 523.784542,171" id="Fill-30" fill="#EE9849"></path>
                <path d="M489,172.499825 C489,166.148773 494.149123,161 500.500175,161 C506.851227,161 512,166.148773 512,172.499825 C512,178.851227 506.851227,184 500.500175,184 C494.149123,184 489,178.851227 489,172.499825" id="Fill-31" fill="#F3F9FF"></path>
                <path d="M511,171.540854 C510.514995,166.191485 506.009025,162 500.522554,162 C494.710532,162 490,166.70168 490,172.499826 C490,178.299018 494.710532,183 500.522554,183 C502.96052,183 505.204063,182.173638 506.987428,180.784386 L500.522554,172.499826 L511,171.540854 Z" id="Fill-32" fill="#9B9B9B"></path>
                <path d="M507.708972,174 L505.290706,174 C505.130882,174 505,173.775138 505,173.5 C505,173.224862 505.130882,173 505.290706,173 L507.708972,173 C507.869118,173 508,173.224862 508,173.5 C508,173.775138 507.869118,174 507.708972,174" id="Fill-33" fill="#EE9849"></path>
                <polygon id="Fill-34" fill="#EE9849" points="533 230 479 230 479 197 479.671292 197 479.671292 229.305378 533 229.305378"></polygon>
                <path d="M495.800638,219.715388 C489.112831,214.284952 482,219.715388 482,219.715388 L482,229 L532,229 L532,205 C518.411874,205.350658 502.488112,225.146164 495.800638,219.715388" id="Fill-35" fill="#EE9849"></path>
                <path d="M481.585626,200 L505.414374,200 C505.736656,200 506,199.77516 506,199.5 C506,199.225131 505.736656,199 505.414374,199 L481.585626,199 C481.263685,199 481,199.225131 481,199.5 C481,199.77516 481.263685,200 481.585626,200" id="Fill-36" fill="#EE9849"></path>
                <path d="M481.585626,204 L505.414374,204 C505.736656,204 506,203.77516 506,203.499709 C506,203.22484 505.736656,203 505.414374,203 L481.585626,203 C481.263685,203 481,203.22484 481,203.499709 C481,203.77516 481.263685,204 481.585626,204" id="Fill-37" fill="#EE9849"></path>
                <path d="M481.486545,207 L497.513109,207 C497.780951,207 498,206.815881 498,206.591041 L498,206.40925 C498,206.184119 497.780951,206 497.513109,206 L481.486545,206 C481.219049,206 481,206.184119 481,206.40925 L481,206.591041 C481,206.815881 481.219049,207 481.486545,207" id="Fill-38" fill="#EE9849"></path>
                <polygon id="Fill-39" fill="#308DFC" points="219 268 396 268 396 0 219 0"></polygon>
                <polygon id="Fill-40" fill="#F3F9FF" points="236 174 379 174 379 14 236 14"></polygon>
                <path d="M238,224.5 C238,210.416336 249.417006,199 263.5,199 C277.583329,199 289,210.416336 289,224.5 C289,238.583329 277.583329,250 263.5,250 C249.417006,250 238,238.583329 238,224.5" id="Fill-41" fill="#F3F9FF"></path>
                <path d="M286,225.500167 C286,213.626616 276.151365,204 264.001025,204 C251.848635,204 242,213.626616 242,225.500167 C242,237.373718 251.848635,247 264.001025,247 C269.02035,247 273.64495,245.359551 277.344083,242.594299 L264.001025,225.500167 L284.559512,233.168063 C285.489421,230.786206 286,228.201965 286,225.500167" id="Fill-42" fill="#0280DA"></path>
                <path d="M327,224.5 C327,210.416336 338.417006,199 352.5,199 C366.583329,199 378,210.416336 378,224.5 C378,238.583329 366.583329,250 352.5,250 C338.417006,250 327,238.583329 327,224.5" id="Fill-43" fill="#F3F9FF"></path>
                <path d="M353.001196,202 C340.8489,202 331,212.000091 331,224.334289 C331,230.439115 333.410706,235.96874 337.321354,240 L353.001196,224.334289 L373.559523,232.29967 C374.489425,229.825406 375,227.140906 375,224.334289 C375,212.000091 365.151442,202 353.001196,202" id="Fill-44" fill="#0280DA"></path>
                <path d="M348.31261,214 L338.68739,214 C338.309449,214 338,214.225032 338,214.499872 C338,214.774968 338.309449,215 338.68739,215 L348.31261,215 C348.690551,215 349,214.774968 349,214.499872 C349,214.225032 348.690551,214 348.31261,214" id="Fill-45" fill="#FFFFFF"></path>
                <path d="M348.31261,216 L338.68739,216 C338.309449,216 338,216.225032 338,216.500128 C338,216.774968 338.309449,217 338.68739,217 L348.31261,217 C348.690551,217 349,216.774968 349,216.500128 C349,216.225032 348.690551,216 348.31261,216" id="Fill-46" fill="#FFFFFF"></path>
                <path d="M342.486014,219 L339.513986,219 C339.231123,219 339,219.225032 339,219.500128 C339,219.774968 339.231123,220 339.513986,220 L342.486014,220 C342.768615,220 343,219.774968 343,219.500128 C343,219.225032 342.768615,219 342.486014,219" id="Fill-47" fill="#FFFFFF"></path>
                <path d="M260.31228,214 L250.687368,214 C250.309439,214 250,214.225032 250,214.499872 C250,214.774968 250.309439,215 250.687368,215 L260.31228,215 C260.69021,215 261,214.774968 261,214.499872 C261,214.225032 260.69021,214 260.31228,214" id="Fill-48" fill="#FFFFFF"></path>
                <path d="M260.31228,216 L250.687368,216 C250.309439,216 250,216.225032 250,216.500128 C250,216.774968 250.309439,217 250.687368,217 L260.31228,217 C260.69021,217 261,216.774968 261,216.500128 C261,216.225032 260.69021,216 260.31228,216" id="Fill-49" fill="#FFFFFF"></path>
                <path d="M256.486014,219 L253.513986,219 C253.231123,219 253,219.225032 253,219.500128 C253,219.774968 253.231123,220 253.513986,220 L256.486014,220 C256.768615,220 257,219.774968 257,219.500128 C257,219.225032 256.768615,219 256.486014,219" id="Fill-50" fill="#FFFFFF"></path>
                <polygon id="Fill-51" fill="#00BAE4" points="248 166 263 166 263 72 248 72"></polygon>
                <polygon id="Fill-52" fill="#FEBA40" points="272 165 287 165 287 45 272 45"></polygon>
                <polygon id="Fill-53" fill="#00BAE4" points="299 165 314 165 314 94 299 94"></polygon>
                <polygon id="Fill-54" fill="#FEBA40" points="325 166 340 166 340 62 325 62"></polygon>
                <polygon id="Fill-55" fill="#00BAE4" points="352 166 367 166 367 109 352 109"></polygon>
                <path d="M340.628832,48 L327.371519,48 C326.617271,48 326,48.675182 326,49.5001916 C326,50.324818 326.617271,51 327.371519,51 L340.628832,51 C341.382729,51 342,50.324818 342,49.5001916 C342,48.675182 341.382729,48 340.628832,48" id="Fill-56" fill="#EE9849"></path>
                <path d="M330.81019,52 L328.190114,52 C327.535627,52 327,52.6750958 327,53.5 C327,54.3249042 327.535627,55 328.190114,55 L330.81019,55 C331.464677,55 332,54.3249042 332,53.5 C332,52.6750958 331.464677,52 330.81019,52" id="Fill-57" fill="#EE9849"></path>
                <path d="M287.628451,27 L274.371198,27 C273.617284,27 273,27.675182 273,28.5001916 C273,29.3252012 273.617284,30 274.371198,30 L287.628451,30 C288.382716,30 289,29.3252012 289,28.5001916 C289,27.675182 288.382716,27 287.628451,27" id="Fill-58" fill="#EE9849"></path>
                <path d="M276.810117,32 L274.189883,32 C273.53566,32 273,32.6754789 273,33.5 C273,34.3249042 273.53566,35 274.189883,35 L276.810117,35 C277.46434,35 278,34.3249042 278,33.5 C278,32.6754789 277.46434,32 276.810117,32" id="Fill-59" fill="#EE9849"></path>
                <path d="M313.628832,81 L300.371869,81 C299.617621,81 299,81.6754789 299,82.5 C299,83.3249042 299.617621,84 300.371869,84 L313.628832,84 C314.382729,84 315,83.3249042 315,82.5 C315,81.6754789 314.382729,81 313.628832,81" id="Fill-60" fill="#EE9849"></path>
                <path d="M304.809654,86 L302.190346,86 C301.535595,86 301,86.6747988 301,87.4998084 C301,88.324818 301.535595,89 302.190346,89 L304.809654,89 C305.464405,89 306,88.324818 306,87.4998084 C306,86.6747988 305.464405,86 304.809654,86" id="Fill-61" fill="#EE9849"></path>
                <path d="M365.628511,95 L352.371489,95 C351.617608,95 351,95.6754789 351,96.5 C351,97.3249042 351.617608,98 352.371489,98 L365.628511,98 C366.382743,98 367,97.3249042 367,96.5 C367,95.6754789 366.382743,95 365.628511,95" id="Fill-62" fill="#EE9849"></path>
                <path d="M356.809958,99 L354.190042,99 C353.535899,99 353,99.6754789 353,100.5 C353,101.324904 353.535899,102 354.190042,102 L356.809958,102 C357.464405,102 358,101.324904 358,100.5 C358,99.6754789 357.464405,99 356.809958,99" id="Fill-63" fill="#EE9849"></path>
                <polygon id="Fill-64" fill="#F7DF52" points="64 175 193 175 193 100 64 100"></polygon>
                <polygon id="Fill-65" stroke="#178FE3" stroke-width="2" fill="#FFFFFF" points="69 174 198 174 198 101 69 101"></polygon>
                <path d="M103.499831,113 C90.5213838,113 80,123.521308 80,136.5 C80,149.47903 90.5213838,160 103.499831,160 C116.478954,160 127,149.47903 127,136.5 C127,123.521308 116.478954,113 103.499831,113" id="Fill-66" fill="#F3F9FF"></path>
                <path d="M183.380404,123 L143.619941,123 C142.178922,123 141,123.89996 141,124.999736 C141,126.10004 142.178922,127 143.619941,127 L183.380404,127 C184.821424,127 186,126.10004 186,124.999736 C186,123.89996 184.821424,123 183.380404,123" id="Fill-67" fill="#178FE3"></path>
                <path d="M183.380404,135 L143.619941,135 C142.178922,135 141,135.899756 141,136.999868 C141,138.09998 142.178922,139 143.619941,139 L183.380404,139 C184.821424,139 186,138.09998 186,136.999868 C186,135.899756 184.821424,135 183.380404,135" id="Fill-68" fill="#FEBA40"></path>
                <path d="M183.380404,145 L143.619941,145 C142.178922,145 141,145.900224 141,147.000264 C141,148.10004 142.178922,149 143.619941,149 L183.380404,149 C184.821424,149 186,148.10004 186,147.000264 C186,145.900224 184.821424,145 183.380404,145" id="Fill-69" fill="#178FE3"></path>
                <path d="M83,136 L105,136 L105,114 C92.8499929,114 83,123.850339 83,136" id="Fill-70" fill="#A8D29F"></path>
                <path d="M126,137 L104.000173,137 L103.999481,137 L82,137 C82,149.149661 91.8502251,158.999654 103.999481,159 L103.999827,159 L104.000173,159 C116.149775,158.999654 126,149.149661 126,137" id="Fill-71" fill="#9E69CE"></path>
                <path d="M99.8002207,125 L88.2001152,125 C87.5397663,125 87,125.449762 87,125.99972 C87,126.549678 87.5397663,127 88.2001152,127 L99.8002207,127 C100.460234,127 101,126.549678 101,125.99972 C101,125.449762 100.460234,125 99.8002207,125" id="Fill-72" fill="#82B378"></path>
                <path d="M91.0478982,129 L88.9521018,129 C88.4282193,129 88,129.449762 88,129.99972 C88,130.549678 88.4282193,131 88.9521018,131 L91.0478982,131 C91.5717807,131 92,130.549678 92,129.99972 C92,129.449762 91.5717807,129 91.0478982,129" id="Fill-73" fill="#82B378"></path>
                <path d="M117.799578,141 L106.200086,141 C105.540089,141 105,141.449762 105,142 C105,142.549958 105.540089,143 106.200086,143 L117.799578,143 C118.459911,143 119,142.549958 119,142 C119,141.449762 118.459911,141 117.799578,141" id="Fill-74" fill="#FEBA40"></path>
                <path d="M108.048101,147 L105.952165,147 C105.428514,147 105,147.449762 105,147.99972 C105,148.549958 105.428514,149 105.952165,149 L108.048101,149 C108.571752,149 109,148.549958 109,147.99972 C109,147.449762 108.571752,147 108.048101,147" id="Fill-75" fill="#FEBA40"></path>
                <polygon id="Fill-76" fill="#F7DF52" points="55 262 184 262 184 187 55 187"></polygon>
                <polygon id="Fill-77" fill="#DB5A28" points="60 262 189 262 189 187 60 187"></polygon>
                <path d="M71,222.500169 C71,209.521384 81.5216462,199 94.5,199 C107.47903,199 118,209.521384 118,222.500169 C118,235.478954 107.47903,246 94.5,246 C81.5216462,246 71,235.478954 71,222.500169" id="Fill-78" fill="#F3F9FF"></path>
                <path d="M135.619941,214 L175.380404,214 C176.821078,214 178,213.099835 178,211.999868 C178,210.899901 176.821078,210 175.380404,210 L135.619941,210 C134.178922,210 133,210.899901 133,211.999868 C133,213.099835 134.178922,214 135.619941,214" id="Fill-79" fill="#F3F9FF"></path>
                <path d="M175.380404,221 L135.619941,221 C134.178922,221 133,221.90002 133,223.000132 C133,224.09998 134.178922,225 135.619941,225 L175.380404,225 C176.821078,225 178,224.09998 178,223.000132 C178,221.90002 176.821078,221 175.380404,221" id="Fill-80" fill="#F3F9FF"></path>
                <path d="M175.380404,231 L135.619941,231 C134.178922,231 133,231.89996 133,233 C133,234.099776 134.178922,235 135.619941,235 L175.380404,235 C176.821078,235 178,234.099776 178,233 C178,231.89996 176.821078,231 175.380404,231" id="Fill-81" fill="#F3F9FF"></path>
                <path d="M94.4769994,222.276506 L73.002025,222 C73,222.091486 73,222.184679 73,222.276506 C73,234.273465 82.6158315,244 94.4769994,244 C98.717253,244 102.669963,242.755722 106,240.609214 L94.4769994,222.276506 Z" id="Fill-82" fill="#9E69CE"></path>
                <path d="M95.8002495,231 L84.2000864,231 C83.5400892,231 83,231.449762 83,231.99972 L83,232 C83,232.549958 83.5400892,233 84.2000864,233 L95.8002495,233 C96.4602466,233 97,232.549958 97,232 L97,231.99972 C97,231.449762 96.4602466,231 95.8002495,231" id="Fill-83" fill="#DD8936"></path>
                <path d="M87.0478982,234 L84.9521018,234 C84.4284858,234 84,234.449762 84,234.99972 C84,235.549678 84.4284858,236 84.9521018,236 L87.0478982,236 C87.5717807,236 88,235.549678 88,234.99972 C88,234.449762 87.5717807,234 87.0478982,234" id="Fill-84" fill="#DD8936"></path>
                <polygon id="Fill-85" fill="#F7DF52" points="55 91 184 91 184 22 55 22"></polygon>
                <polygon id="Fill-86" fill="#27A9E0" points="60 91 189 91 189 22 60 22"></polygon>
                <path d="M71,57.5001691 C71,44.5213838 81.5210457,34 94.4998309,34 C107.478616,34 118,44.5213838 118,57.5001691 C118,70.4789543 107.478616,81 94.4998309,81 C81.5210457,81 71,70.4789543 71,57.5001691" id="Fill-87" fill="#F3F9FF"></path>
                <path d="M95.0010372,35 C82.8511488,35 73,44.5201651 73,56.2654674 C73,64.311454 77.6241003,71.3143867 84.442185,74.9264749 C87.9668731,68.6160151 95.0010372,56.2654674 95.0010372,56.2654674 L105.418141,75 C112.31436,71.4096351 117,64.3672663 117,56.2654674 C117,44.5201651 107.151617,35 95.0010372,35" id="Fill-88" fill="#A8D29F"></path>
                <path d="M175.379734,44 L135.619576,44 C134.178913,44 133,44.9000198 133,45.9998682 C133,47.0999802 134.178913,48 135.619576,48 L175.379734,48 C176.821087,48 178,47.0999802 178,45.9998682 C178,44.9000198 176.821087,44 175.379734,44" id="Fill-89" fill="#F3F9FF"></path>
                <path d="M175.379734,55 L135.619576,55 C134.178913,55 133,55.8999605 133,57 C133,58.1000395 134.178913,59 135.619576,59 L175.379734,59 C176.821087,59 178,58.1000395 178,57 C178,55.8999605 176.821087,55 175.379734,55" id="Fill-90" fill="#F3F9FF"></path>
                <path d="M175.379734,65 L135.619576,65 C134.178913,65 133,65.8999605 133,67 C133,68.1000395 134.178913,69 135.619576,69 L175.379734,69 C176.821087,69 178,68.1000395 178,67 C178,65.8999605 176.821087,65 175.379734,65" id="Fill-91" fill="#F3F9FF"></path>
                <path d="M95.7999136,46 L84.2004222,46 C83.5400892,46 83,46.4497621 83,47 C83,47.549958 83.5400892,48 84.2004222,48 L95.7999136,48 C96.4599108,48 97,47.549958 97,47 C97,46.4497621 96.4599108,46 95.7999136,46" id="Fill-92" fill="#82B378"></path>
                <path d="M87.0478982,51 L84.9523683,51 C84.4284858,51 84,51.4497621 84,51.9997201 C84,52.5496781 84.4284858,53 84.9523683,53 L87.0478982,53 C87.5717807,53 88,52.5496781 88,51.9997201 C88,51.4497621 87.5717807,51 87.0478982,51" id="Fill-93" fill="#82B378"></path>
                <path d="M220,139 C220,139 235.222125,154.784557 235.952694,160.736503 C236.683264,166.688789 228.710142,176 228.710142,176 L220,139 Z" id="Fill-94" fill="#002D51"></path>
                <path d="M213,301.644937 C213,301.644937 212.469867,309.866362 210.815894,309.983963 C210.595643,310 202.427567,310 202.427567,310 L192,309.941867 C192,309.941867 192.06809,307.525688 195.116181,307.014188 C198.164271,306.50369 203.265844,304.443322 205.112624,300.56915 C207.054939,296.493517 213,301.644937 213,301.644937" id="Fill-95" fill="#6B2BA7"></path>
                <path d="M235,301.644937 C235,301.644937 234.471011,309.866362 232.819524,309.983963 C232.599604,310 224.443459,310 224.443459,310 L214,309.963918 C214,309.963918 214.099554,307.525688 217.143062,307.014188 C220.186571,306.50369 225.280476,304.443322 227.12448,300.56915 C229.064222,296.493517 235,301.644937 235,301.644937" id="Fill-96" fill="#6B2BA7"></path>
                <path d="M202,210.671457 C202,210.671457 204.62141,227.580653 214.399528,257.597777 C224.177645,287.6149 225.509886,300.613373 225.509886,300.613373 C225.509886,300.613373 228.155003,301 230.948703,301 C232.71601,301 236,300.316667 236,300.316667 C236,300.316667 236.089686,267.511318 231.583104,252.417045 C227.076522,237.322772 230.610468,198 230.610468,198 L202,210.671457 Z" id="Fill-97" fill="#6C6A6A"></path>
                <path d="M197.00771,199 C197.00771,199 196.641573,224.473399 200.955469,255.750792 C205.269365,287.027511 203.807452,300.304074 203.807452,300.304074 C203.807452,300.304074 207.358754,300.953863 208.606456,300.996284 C209.942149,301.041736 214.139712,300.655229 214.139712,300.655229 C214.139712,300.655229 220.314944,269.36639 218.544566,253.711533 C216.774187,238.056676 227,199.992864 227,199.992864 L197.00771,199 Z" id="Fill-98" fill="#6C6A6A"></path>
                <path d="M217,139.149531 L212.501134,143 L206,141.4184 C206.090044,140.732888 206.519275,137.893461 206.910177,135.32156 C206.933296,135.170044 206.957024,135.018177 206.979231,134.869825 C207.314159,132.681459 207.602848,130.801398 207.602848,130.801398 L213.67536,127.303879 L215.939546,126 C215.933462,126.046052 215.764021,128.428823 215.740293,128.7765 C215.315625,134.953493 217,139.149531 217,139.149531" id="Fill-99" fill="#FFB27D"></path>
                <path d="M204.303482,138.174146 C204.463526,138.118505 214.245389,135.734394 215.308248,136.024464 C216.370765,136.313969 217,138.012306 217,138.012306 L201,141 C201,141 202.259153,138.885058 204.303482,138.174146" id="Fill-100" fill="#A40707"></path>
                <path d="M231.585089,202.851639 C229.904505,210.293832 201.937983,211.17637 194.729045,204.420896 C193.909028,203.651072 193.868824,200.068766 194.177977,195.238188 C194.782765,185.801116 196.725366,171.605468 196.801268,164.352704 C196.837659,160.850476 197.333967,157.26817 197.993862,154.01526 C199.398912,147.082135 201.541145,141.641552 201.541145,141.641552 C201.541145,141.641552 215.20139,137.354359 217.757444,138.083471 C230.071211,141.595793 233.265672,195.409784 231.585089,202.851639" id="Fill-101" fill="#002D51"></path>
                <path d="M195,194 C195.57718,184.702614 197.431102,170.717089 197.503209,163.571679 C197.538269,160.121291 198.01159,156.591678 198.641692,153.386918 L206.484064,152 C206.484064,152 214.151133,183.384976 195,194" id="Fill-102" fill="#979797"></path>
                <path d="M199.484658,182.211907 C199.484658,182.211907 200.079703,183.482257 198.830733,184.334966 C197.581764,185.188005 196.77181,186.569835 197.057373,187.579735 C197.34404,188.589636 200.083383,190.236848 201.032806,189.971466 C201.982965,189.705426 203.915666,188.375554 203.707382,187.842816 C203.499466,187.310407 205.007503,183.168204 202.692456,181.574265 C200.377042,179.979669 199.484658,182.211907 199.484658,182.211907" id="Fill-103" fill="#FFB27D"></path>
                <path d="M208.048297,140 C208.048297,140 200.020455,141.47148 193.624011,150.705039 C187.227568,159.937918 183.019399,166.802556 184.197728,170.130473 C185.37571,173.458391 196.116763,185 197.968274,185 C199.819785,185 202.807963,183.680871 202.976345,180.713087 C202.976345,180.713087 195.414071,169.611868 196.90382,167.949269 C197.540548,167.238525 206.721375,159.937918 208.03198,163.23557 C210.200466,168.69164 208.048297,140 208.048297,140" id="Fill-104" fill="#002D51"></path>
                <path d="M215.796983,130.578861 C214.237167,133.520962 208.423889,136.064658 206,137 C206.027047,136.848494 206.054805,136.696987 206.080429,136.548988 C206.472607,134.365821 206.810336,132.490227 206.810336,132.490227 L213.914385,129.001019 C215.484522,128.97717 216.440412,129.368212 215.796983,130.578861" id="Fill-105" fill="#FCA56B"></path>
                <path d="M204.23404,133.233031 C204.23404,133.233031 214.105326,136.309899 215.927985,130.138139 C217.750978,123.966379 220.252791,120.207246 214.027489,117.981874 C207.802188,115.756502 205.876303,117.748556 204.766539,119.660833 C203.656441,121.572443 201.713185,132.273721 204.23404,133.233031" id="Fill-106" fill="#FFB27D"></path>
                <path d="M204.926754,119.153825 C204.926754,119.153825 205.555492,125.963436 207.039448,125.667847 C208.523403,125.371943 209.869269,125.152941 209.652129,127.205287 C209.43499,129.258266 207.376998,131.628353 211.950943,131.991351 C216.524553,132.354665 223.099786,121.162498 221.843311,119.043059 C218.217977,112.929062 199.686381,111.695123 204.926754,119.153825" id="Fill-107" fill="#000000"></path>
                <polygon id="Fill-108" fill="#FFB27D" points="25 287 28.1339488 300 32.8282529 299.973924 33 287"></polygon>
                <polygon id="Fill-109" fill="#FFB27D" points="64 287.691849 71.9151018 300 75 295.653991 70.2362813 286"></polygon>
                <path d="M41.9857594,119.392411 C40.3889471,118.520279 38.4745577,118.425318 37.1362704,118.501485 C37.4809704,118.159556 38.1590405,118.035249 38.1590405,118.035249 C37.3288767,117.916547 35.4759427,118.707236 35.4759427,118.707236 C23.9288375,114.434284 22.1140129,130.762769 22.3567448,134.556295 C22.5977601,138.349492 18.476467,139.588611 12.4689373,142.576941 C1.00663374,148.279925 0,155.916437 0,155.916437 C0.089264929,155.967215 0.182306451,156.024918 0.281527853,156.090534 C0.850420112,155.164986 2.02116399,153.427316 3.00822811,153.165182 C2.9708055,153.249263 1.84160415,155.557692 1.42034235,156.879904 C4.80176653,159.350559 11.1275601,164.824382 15.5365609,168.705616 C15.5166479,167.947241 15.548234,166.870018 15.8366284,166.301566 L16.3818311,169.451462 C18.7404852,171.534687 20.3675102,173 20.3675102,173 C20.0763692,169.934184 34.8040525,153.757045 42.4877029,148.912014 C44.3581465,146.267262 45.0231702,141.595339 45.0729526,141.227692 C44.7498822,144.931862 44.0900084,147.009811 43.5005165,148.179687 C50.0068999,142.428563 46.2189769,121.702489 41.9857594,119.392411" id="Fill-110" fill="#554326"></path>
                <path d="M41.9997033,149.59973 C42.0385842,149.617233 38.2483923,151.602098 35.3975904,150.815853 C32.7161981,150.078268 30.963434,146.572024 31.0005791,146.564323 C32.1364563,146.336781 32.4638195,144.762892 32.4395189,138 L32.953302,138.102219 L41.5855524,139.825935 C41.5855524,139.825935 41.3894123,142.565538 41.3835107,145.146212 C41.3776091,147.31346 41.5077907,149.368338 41.9997033,149.59973" id="Fill-111" fill="#FFB27D"></path>
                <path d="M32,121 C32,121 35.9902776,116.652149 41,120.777597 C41,120.777597 38.0841405,120.261208 32,121" id="Fill-112" fill="#554326"></path>
                <path d="M41,139.712951 C41,139.712951 40.7958576,142.435444 40.7893424,145 C35.7527448,144.863632 33.0902071,140.447669 32,138 L41,139.712951 Z" id="Fill-113" fill="#D68D5D"></path>
                <path d="M32.1823509,138 C32.1823509,138 29.6751204,133.940876 29.0734126,130.46973 C28.6436213,127.991699 29.8752312,118.806707 38.8840006,120.129568 C38.8840006,120.129568 41.50057,120.393436 43.9600077,122.095365 C45.91573,123.448876 48.7382554,126.371149 45.5825558,134.386527 L44.7628578,137.094254 L32.1823509,138 Z" id="Fill-114" fill="#554326"></path>
                <path d="M74,292.71516 L69.6106695,292.851476 L64.8600567,293 C64.8600567,293 53.8867304,280.557564 47.7306128,260.612298 C47.5874318,260.148755 47.4362593,259.679446 47.2754304,259.204712 C43.9066808,249.20173 36.9231102,236.645358 33.2430252,225.280229 C32.6573149,223.470137 32.1312079,221.766181 31.6593765,220.153443 C31.508204,219.636661 31.3610273,219.129374 31.2208431,218.629886 C28.5087283,209.03348 27.7232306,202.732405 27,196 L53.574729,196.217021 C53.574729,196.217021 57.8648317,242.18652 74,292.71516" id="Fill-115" fill="#414040"></path>
                <path d="M50.0568754,180.07198 C49.9883583,192.579298 51.9555821,197.944941 51.9555821,197.944941 C51.9555821,197.944941 40.3073403,203.662629 26.4631435,199.453894 C26.2998616,199.404167 15,196.912846 15,196.912846 C15.231799,196.406678 17.2920833,187.977683 17.5177465,187.513339 C20.4404595,181.449204 22.6599351,178.789929 23.006611,176.925638 C23.6498533,173.445363 23.6638294,169.843898 23.3437422,166.447271 C22.4986984,157.455794 19.9860652,149.991712 19.9860652,149.991712 C23.7589352,149.162808 27.3889761,147.744418 31.3152425,146.322077 C32.2182361,147.408181 34.8808569,148.506469 37.2758863,148.454437 C40.0336129,148.395488 40.895019,147.269207 40.7937773,146 C43.7325117,147.579757 46.0685687,149.082124 46.0685687,149.082124 C48.5662031,153.273405 53.6320345,157.343495 53.9984815,163.773506 C54.0894967,165.354581 50.0589207,179.72191 50.0568754,180.07198" id="Fill-116" fill="#FFFFFF"></path>
                <path d="M27.9830485,182.058312 C26.8146526,183.708316 24.5739989,193.738684 19,195 C21.8720833,187.850873 24.0531114,184.716633 24.3937818,182.518856 C25.0258814,178.415736 25.0396154,174.170242 24.724738,170.166383 C26.5908887,166.903138 27.9830485,164.665924 27.9830485,164.665924 C28.129768,164.138537 30.9489251,155.442009 31.8523551,163.215444 C32.7534403,170.99055 29.2887846,180.212459 27.9830485,182.058312" id="Fill-117" fill="#5F9AA8"></path>
                <path d="M43.2859298,140.999555 C43.2859298,140.999555 32.1328441,141.175486 32.1253916,134.530937 C32.1176003,127.886389 30.6728211,123.43401 37.7930588,123.040677 C44.9139741,122.647343 46.3001491,125.181655 46.8665432,127.398772 C47.4332761,129.61589 46.186667,140.782476 43.2859298,140.999555" id="Fill-118" fill="#FFB27D"></path>
                <path d="M45.7308319,124.216748 C43.9520786,122.184203 42.6064588,122.626161 41.8515391,123.236453 C39.3605843,119.727523 31.4864499,124.801955 31.4864499,124.801955 C30.7154234,129.658874 27,132.441328 27,132.441328 C27,132.441328 29.1012398,133.664882 33.945191,132.490508 C37.7576055,131.566654 40.5237768,126.451624 41.5294027,124.314778 C42.214993,124.888762 43.6614555,126.216617 44.0949391,127.516416 C44.6695324,129.24035 44.9279419,132.788558 46.0253066,132.667753 C46.0253066,132.667753 48.4031635,127.270187 45.7308319,124.216748" id="Fill-119" fill="#554326"></path>
                <path d="M27.6964229,299 C27.6964229,299 28.0884419,301.618913 27.0758466,304.42068 C27.0758466,304.42068 26.2780661,307.927337 29.857229,307.992591 C33.4360303,308.057497 34.3140952,307.731572 33.909057,305.581307 C33.5040189,303.431041 32.7329998,299.712568 32.7329998,299.712568 L27.6964229,299 Z" id="Fill-120" fill="#FFB27D"></path>
                <path d="M33.9975287,308.994303 C33.9975287,308.994303 33.9935118,308.995857 33.9864822,309 L27.1320031,309 C27.1249735,308.995857 27.1212914,308.994303 27.1212914,308.994303 C26.7467169,307.633262 27.3592918,305.069658 27.3592918,305.069658 C31.1107275,307.844306 33.4585966,305 33.4585966,305 C34.0678242,306.186509 33.9975287,308.994303 33.9975287,308.994303" id="Fill-121" fill="#A40707"></path>
                <path d="M83.997221,305.632412 C83.997221,305.632412 77.6587484,299.199007 75.7127779,296 L71,298.157715 L81.5350577,307 L84,306.710649 L83.997221,305.632412 Z" id="Fill-122" fill="#FFB27D"></path>
                <path d="M88,309 L79.2684451,309 C78.4996572,308.35923 77.7667391,307.067478 76.8679229,305.373968 C76.3533281,304.403558 75.2006636,303.869371 74.0179925,303.575152 L74.0179925,309 L72.2117374,309 L70.5386148,303.231791 C69.4249242,301.299269 70.2613131,299.52694 71.0449318,298 C71.9565095,297.99809 74.600533,298.607907 79.2498204,303.549624 C80.777739,305.17261 82.4632782,305.751793 84.1401947,305.703926 C84.1622685,305.717329 84.1864117,305.729455 84.2088303,305.737752 C86.8563029,306.861334 87.7199391,308.242436 88,309" id="Fill-123" fill="#A40707"></path>
                <path d="M87.8551786,154.155148 C87.8551786,154.155148 80.6523025,158.221282 78.0797039,159.393273 C77.1648466,159.809846 75.506772,160.588482 73.8133695,161.387307 C72.7908624,161.869496 71.7553573,162.360433 70.8604969,162.785755 C69.3480663,163.50315 67.5483471,163.110131 66.4618499,161.827771 C62.5611252,157.229985 52.4680334,147.264526 42.0443264,146.015815 L42.008332,146 C42.008332,146 42.0099984,146.003365 42.012998,146.011441 C42.008332,146.010768 42.0043327,146.010431 42,146.009758 L42.0576577,146.123155 C42.6435663,147.594285 48.3576747,162.008466 48.5349804,165.048644 C48.7216179,168.252693 49.2818638,217.450754 49.2818638,217.450754 C49.2818638,217.450754 48.9082554,219.71297 53.2022521,218.770127 C57.4962488,217.827958 58.6167407,216.885452 58.6167407,216.885452 C58.6167407,216.885452 54.5090482,186.53717 55.6295401,175.981509 C55.8495058,173.910083 55.6508701,171.582252 55.1919417,169.178374 C61.5402845,173.060784 69.0251166,174.78731 69.0251166,174.78731 C69.0251166,174.78731 71.8166811,173.557779 76.1546709,170.844331 C77.9753868,169.703297 80.0873906,167.884237 82.1663996,165.960529 C84.6780077,163.636063 89,158.020061 89,158.020061 L87.8551786,154.155148 Z" id="Fill-124" fill="#979797"></path>
                <path d="M71,290.854485 L66.0497866,291 C66.0497866,291 54.6162093,278.782087 48.2022343,259.196199 C48.052701,258.741007 47.8951879,258.280155 47.7279603,257.813642 C44.2179162,247.990895 36.9414357,235.661099 33.1066509,224.500416 C32.4963744,222.723271 31.9482011,221.049685 31.4565798,219.466005 C31.2990667,218.958867 31.1460639,218.460721 31,217.970233 L35.0776463,215 C35.0776463,215 47.3196059,234.027138 51.1096347,251.932448 C54.4021441,267.485546 67.5871006,286.200344 71,290.854485" id="Fill-125" fill="#414040"></path>
                <path d="M36.2707165,254.37252 C36.3406624,263.224073 35.88062,283.574962 34.695715,292 L30.2978207,292 C27.8671124,292 26.6540202,291.96615 26.6540202,291.96615 C23.6811438,277.31703 21.5664102,265.196539 20.0262077,254.751645 C18.7630049,246.180712 17.64039,238.832457 16.7763315,232.506485 C15.9070532,226.140909 15.302943,220.810817 15.0868413,216.307015 C15.0534343,215.59751 15.0280311,214.907299 15.0141115,214.238414 C15.0008879,213.564791 14.996712,212.9108 15.0026278,212.275427 L39,210 C38.6979449,225.509259 36.2317417,249.227929 36.2707165,254.37252" id="Fill-126" fill="#414040"></path>
                <path d="M29,291 C26.6030061,291 25.4067397,290.965672 25.4067397,290.965672 C22.4750978,276.257475 20.389696,264.087483 18.8708563,253.600563 C17.6255176,244.994866 16.5181304,237.616806 15.6663998,231.265176 C14.8088353,224.87344 14.2131043,219.52173 14,215 L22.6830546,220.058396 C22.6830546,220.058396 17.1406282,221.995018 19.2555421,236.655293 C21.3701128,251.315567 26.0566905,288.924708 29,291" id="Fill-127" fill="#414040"></path>
                <path d="M31.3214137,216.740145 C31.3214137,216.740145 29.7391034,222.693043 24.262928,221.932947 C18.7867526,221.172512 11,217.752589 11,217.752589 C11,217.752589 13.3399033,210.055981 16.2497121,199.943753 C19.7727639,187.701832 24.1329153,171.919918 26.1886805,161.966086 C26.7654287,159.176693 27.1597029,156.847225 27.3056821,155.179151 L31.9431288,146 C31.9431288,146 38.622981,161.829059 38.987929,165.819139 C39.352877,169.809558 31.3214137,216.740145 31.3214137,216.740145" id="Fill-128" fill="#979797"></path>
                <path d="M50.9884504,170.249376 C48.1781301,170.611928 47.1006322,172.079548 46.7535117,174.059248 C46.5662266,175.127446 46.0061083,176.183013 45.5300773,176.928942 C42.7301811,177.076421 36.0633147,177.43317 30.4617848,177.781384 L30,185 C34.6011698,184.437395 40.2555147,183.289995 46.7632408,181.101367 C47.2632471,181.017386 47.8883419,180.712187 48.671187,180.08267 C52.7038993,176.837792 54.9926703,171.403603 55,170.625925 C55.007264,169.847223 53.7991181,169.886482 50.9884504,170.249376" id="Fill-129" fill="#FFB27D"></path>
                <path d="M29.9947581,174.220613 C29.730809,180.684719 28.1562519,193.232151 14.1124684,199.949094 C14.0748618,199.965723 14.0372551,199.985067 14,200 C17.8000247,187.75088 22.503311,171.960025 24.7203435,162 C27.2993836,165.722283 30.1385068,170.661909 29.9947581,174.220613" id="Fill-130" fill="#6D6A6A"></path>
                <path d="M31.3352444,146 C31.3352444,146 19.3964676,146.811294 16.5266902,152.939021 C13.6569129,159.065744 12.7435161,179.448197 16.3960553,185.450363 C16.3960553,185.450363 21.4248022,186.823502 30.3188067,185.22904 C30.4274363,185.20962 30.5371138,185.18953 30.6474898,185.168771 C30.6474898,185.168771 33.4844338,178.510338 30.9408945,177.197468 C30.9408945,177.197468 23.440213,177.572478 24.2229749,175.196523 C25.0057367,172.820903 31.3352444,146 31.3352444,146" id="Fill-131" fill="#979797"></path>
                <path d="M96.0373628,148.078288 C89.6196874,147.269136 88,152.998972 88,152.998972 L89.197752,156.934765 C91.1762066,157.202655 92.9072236,156.696678 94.5024813,154.456267 C96.09739,152.215855 96.5364262,153.076393 97.5506066,151.409102 C98.9259973,149.147451 96.773743,148.30507 96.0373628,148.078288" id="Fill-132" fill="#FFB27D"></path>
                <path d="M77.4948318,159.335786 C76.5309764,159.759784 74.7840981,160.553279 73,161.366998 C73.954726,163.022199 75.1489236,166.029256 75.4666974,171 C77.3852788,169.838035 79.8691816,167.903139 81.9896636,165.871242 C85.3917747,162.611912 89,157.936972 89,157.936972 L87.793864,154 C87.793864,154 80.2052143,158.141944 77.4948318,159.335786" id="Fill-133" fill="#FFB27D"></path>
                <path d="M406.792932,205 C406.792932,205 402.451835,205.864008 399.692005,205.219733 C396.932174,204.575458 392.18273,205.633469 391.417493,206.41334 C390.652921,207.193212 390.933784,207.503257 392.298926,207.772134 C393.663736,208.041525 398.499166,209.639863 401.677303,208.714875 C404.855109,207.78963 409,207.756181 409,207.756181 L406.792932,205 Z" id="Fill-134" fill="#E49963"></path>
                <path d="M445,165.943803 C445,165.943803 440.095445,201.358364 431.974382,204.530627 C427.96727,206.095728 410.257786,209.643494 405.019694,210 C405.019694,210 403.736296,208.942353 404.049133,204.636799 C404.049133,204.636799 422.602976,197.716299 425.238882,193.952459 C429.161859,188.351474 422.803632,171.069559 427.725882,165.809138 C432.648467,160.548038 440.939135,158.287224 445,165.943803" id="Fill-135" fill="#979797"></path>
                <path d="M443.402268,301.110496 L443.402268,293.42197 L455.407437,293.42197 C455.731701,293.42197 455.996674,293.154787 455.996674,292.828155 L455.996674,291.596275 C455.996674,291.269305 455.731701,291.002122 455.407437,291.002122 L443.402268,291.002122 L443.402268,247.233057 C443.402268,246.004555 442.40569,245 441.188022,245 L438.812313,245 C437.593975,245 436.597732,246.004555 436.597732,247.233057 L436.597732,291.002122 L424.592563,291.002122 C424.268634,291.002122 424.003326,291.269305 424.003326,291.596275 L424.003326,292.828155 C424.003326,293.154787 424.268634,293.42197 424.592563,293.42197 L436.597732,293.42197 L436.597732,301.110496 C427.911588,301.772881 420.952289,304.926048 419,309 L461,309 C459.047711,304.926048 452.088747,301.772881 443.402268,301.110496" id="Fill-136" fill="#14A884"></path>
                <path d="M442.80545,238.555161 C441.390521,240.992893 439.753644,243.276716 438.066233,245.439491 C432.851739,252.122633 427.175512,257.633181 426.186647,262.841948 C425.99013,263.879744 425.678013,264.997681 425.269784,266.175639 C424.856932,267.369021 424.346646,268.62343 423.757093,269.920424 C421.544533,274.800248 418.235107,280.267876 414.931295,285.238234 C409.220058,293.830318 403.849672,301 403.849672,301 L394,300.573481 C394.394687,299.571563 398.690666,287.707821 404.436913,273.210189 C406.770686,267.324759 409.251765,261.064113 411.64598,255.027122 C411.965032,254.221027 412.284085,253.41795 412.599834,252.62225 C413.331409,250.774335 414.051754,248.955928 414.755255,247.1848 C420.151073,233.571726 424.449033,222.731698 424.449033,222.731698 C424.449033,222.731698 446.015461,214.437038 448.255104,219.81212 C450.102041,224.242958 448.597937,228.584602 442.80545,238.555161" id="Fill-137" fill="#414040"></path>
                <path d="M404,301.645048 C404,301.645048 403.470215,309.866029 401.816242,309.983964 C401.59599,310 393.42722,310 393.42722,310 L383,309.941534 C383,309.941534 383.068438,307.525387 386.116181,307.014561 C389.164271,306.503736 394.265844,304.44373 396.112276,300.569275 C398.054939,296.493362 404,301.645048 404,301.645048" id="Fill-138" fill="#6B2BA7"></path>
                <path d="M426.98124,277 C426.98124,277 433.59829,281.51921 432.956108,282.986623 C432.870612,283.181916 429.21404,290.142972 429.21404,290.142972 L424.497374,299 C424.497374,299 422.513408,297.74619 423.451955,294.896127 C424.390822,292.046065 424.957077,286.679566 422.553285,283.189375 C420.025075,279.517792 426.98124,277 426.98124,277" id="Fill-139" fill="#6B2BA7"></path>
                <path d="M417.123824,220 C417.123824,220 389.279448,237.206388 386.171625,248.769321 C383.063121,260.332253 423.210715,285 423.210715,285 C423.210715,285 427.614258,281.145801 428.391214,278.319187 C428.391214,278.319187 410.24401,256.750369 406.307252,251.915433 C403.889753,248.946258 442.05402,241.636559 446.716096,234.441786 C451.378511,227.247012 449.709431,221.1934 449.709431,221.1934 L417.123824,220 Z" id="Fill-140" fill="#414040"></path>
                <path d="M469.897879,242 L412.101432,242 C410.945455,242 410,242.959713 410,244.133123 L410,255.866527 C410,257.039937 410.945455,258 412.101432,258 L469.897879,258 C471.053856,258 472,257.039937 472,255.866527 L472,244.133123 C472,242.959713 471.053856,242 469.897879,242" id="Fill-141" fill="#EE9849"></path>
                <path d="M429.30641,158.950475 C426.52975,160.604076 425,162.703081 425,162.703081 C431.772291,164.387857 443,158.353176 443,158.353176 C443,158.353176 438.640816,155.536814 437.02587,149.348247 C436.943777,149.035834 436.869618,148.716125 436.803392,148.388124 C436.591952,147.346084 436.460535,146.217483 436.43708,145 L433.325841,147.679722 L428.152285,152.135756 C428.152285,152.135756 428.26956,153.985029 428.916988,157.165873 C429.029434,157.720721 429.158436,158.316363 429.30641,158.950475" id="Fill-142" fill="#E49963"></path>
                <path d="M449.823872,190.679401 C448.881638,203.5052 450.466319,223.004809 449.397807,226.383249 C448.475336,229.29751 437.621061,227.573027 433.426398,226.599233 C431.873538,226.239485 429.993091,225.724785 428.050676,225.116503 C422.633086,223.418467 416.729808,220.993477 416.096739,219.193383 C416.071617,219.122857 416.05085,219.053688 416.038122,218.986214 C415.979504,218.725134 415.992568,218.479991 416.04951,218.232134 C416.260533,217.314625 417.074143,216.321505 417.169941,214.049772 C417.277127,211.51289 417.260714,208.526069 417.354837,205.313432 C417.359861,204.951989 417.364886,204.557657 417.403741,204.19757 L417.405415,204.066013 C417.40709,203.996844 417.408765,203.92937 417.410105,203.86054 C417.501213,200.278661 417.686444,196.51233 417.900816,192.777194 C418.037479,190.431206 418.194573,188.108274 418.376455,185.882653 C418.848744,180.136864 419.485832,175.027837 420.328248,171.797229 C421.705925,166.531555 424.742643,163.097508 427.506707,160.580292 L429.506064,158.84462 C431.737211,159.33762 434.37466,159.010762 436.760222,157.866758 C439.342739,156.625103 440.234059,155.735736 440.683906,156.071411 C446.647476,160.728464 450.936263,174.999695 449.823872,190.679401" id="Fill-143" fill="#96C4EA"></path>
                <path d="M429.082347,225 C423.63328,223.337703 417.695367,220.964225 417.058621,219.202369 C417.034027,219.133342 417.012802,219.065642 417,218.999602 C417.003032,218.753692 417.006064,218.50745 417.011118,218.261209 C417.223367,217.36319 418.041704,216.39183 418.138395,214.168022 C418.245867,211.68503 418.229695,208.761325 418.324365,205.617595 C418.329419,205.263498 418.334472,204.877543 418.373553,204.525105 L418.375237,204.396343 C418.376922,204.328643 418.37827,204.262934 418.379617,204.195566 L438.963033,195 C438.963033,195 440.149268,211.340889 429.082347,225" id="Fill-144" fill="#979797"></path>
                <path d="M429,151.697595 C429,151.697595 429.114908,153.646972 429.749268,157 C434.698761,155.345686 436.944536,150.720808 437.69448,148.759195 C437.907398,148.205076 438,147.862467 438,147.862467 C438,147.862467 437.808036,147.819466 437.476493,147.747098 C436.780623,147.594322 435.470672,147.3066 434.069133,147 L429,151.697595 Z" id="Fill-145" fill="#D68D5D"></path>
                <path d="M425.599487,152.914294 C425.599487,152.914294 436.599157,154.12952 437.266809,147.408104 C437.933776,140.686019 439.802722,136.316362 432.807935,135.256178 C425.812807,134.195995 424.191709,136.630465 423.411928,138.821154 C422.631804,141.011508 422.755216,152.424721 425.599487,152.914294" id="Fill-146" fill="#E49963"></path>
                <path d="M436.412966,148 C436.412966,148 435.730823,138.65361 425.936724,137.685823 C419.228318,137.022508 422.968734,130.966033 423.683646,130 C423.683646,130 428.823458,130.739082 434.091674,131.652499 C445.149409,133.568781 437.49871,146.544987 436.412966,148" id="Fill-147" fill="#000000"></path>
                <polygon id="Fill-148" fill="#A40707" points="385 211.693305 384.053587 212 376 187.306695 376.946413 187"></polygon>
                <polygon id="Fill-149" fill="#A40707" points="411.965529 211 385 211.526045 385.034139 213 412 212.473955"></polygon>
                <path d="M408.412381,210 C408.412381,210 404.217841,211.320382 401.381062,210.885871 C398.544947,210.451637 393.97135,212.016483 393.321539,212.918652 C392.672059,213.820821 392.995636,214.126055 394.391269,214.28765 C395.787234,214.449797 400.823938,215.712171 403.85307,214.433224 C406.882534,213.154553 411,212.738273 411,212.738273 L408.412381,210 Z" id="Fill-150" fill="#E49963"></path>
                <path d="M444,166.092854 C444,166.092854 442.926033,201.575589 434.88171,205.607411 C430.912552,207.59723 412.98982,213.066368 407.610602,214 C407.610602,214 406.163007,213.099363 406,208.817045 C406,208.817045 424.415574,199.927171 426.717478,195.921273 C430.143744,189.959225 421.613182,173.617464 426.112025,167.880323 C430.610868,162.143182 438.933588,158.990785 444,166.092854" id="Fill-151" fill="#FFFFFF"></path>
            </g>
        </g>
    </g>
</svg>