<?xml version="1.0" encoding="UTF-8"?>
<svg width="34px" height="34px" viewBox="0 0 34 34" version="1.1" xmlns="http://www.w3.org/2000/svg" xmlns:xlink="http://www.w3.org/1999/xlink">
    <!-- Generator: Sketch 59.1 (86144) - https://sketch.com -->
    <title>Fill 109</title>
    <desc>Created with Sketch.</desc>
    <g id="Products-Page" stroke="none" stroke-width="1" fill="none" fill-rule="evenodd">
        <g id="Products-Page-Small-Business-Mobile-Icon-Design" transform="translate(-124.000000, -106.000000)" stroke="#979797">
            <path d="M125,135 C125,137.209 126.791,139 129,139 L153,139 C155.209,139 157,137.209 157,135 L157,117 L125,117 L125,135 L125,135 Z M138,113 C137.448,113 137,112.553 137,112 C137,111.448 137.448,111 138,111 C138.552,111 139,111.448 139,112 C139,112.553 138.552,113 138,113 L138,113 Z M134,113 C133.448,113 133,112.553 133,112 C133,111.448 133.448,111 134,111 C134.552,111 135,111.448 135,112 C135,112.553 134.552,113 134,113 L134,113 Z M130,113 C129.448,113 129,112.553 129,112 C129,111.448 129.448,111 130,111 C130.552,111 131,111.448 131,112 C131,112.553 130.552,113 130,113 L130,113 Z M153,107 L129,107 C126.791,107 125,108.791 125,111 L125,115 L157,115 L157,111 C157,108.791 155.209,107 153,107 L153,107 Z" id="Fill-109"></path>
        </g>
    </g>
</svg>