<?xml version="1.0" encoding="UTF-8"?>
<svg width="32px" height="32px" viewBox="0 0 32 32" version="1.1" xmlns="http://www.w3.org/2000/svg" xmlns:xlink="http://www.w3.org/1999/xlink">
    <!-- Generator: Sketch 59.1 (86144) - https://sketch.com -->
    <title>Fill 171</title>
    <desc>Created with Sketch.</desc>
    <g id="Products-Page" stroke="none" stroke-width="1" fill="none" fill-rule="evenodd">
        <g id="Products-Page-Small-Business-Mobile-Icon-Design" transform="translate(-219.000000, -107.000000)" stroke="#979797">
            <path d="M234.999296,128 C232.260296,128 230.041296,125.762 230.041296,123 C230.041296,120.238 232.260296,118 234.999296,118 C237.738296,118 239.958296,120.238 239.958296,123 C239.958296,125.762 237.738296,128 234.999296,128 L234.999296,128 Z M249.007296,126.536 L246.684296,125.184 C246.814296,124.474 246.900296,123.749 246.900296,123 C246.900296,122.252 246.814296,121.526 246.684296,120.816 L249.007296,119.464 C249.956296,118.912 250.280296,117.688 249.732296,116.732 L247.749296,113.268 C247.202296,112.312 245.988296,111.983 245.040296,112.536 L242.693296,113.901 C241.597296,112.961 240.351296,112.192 238.966296,111.697 L238.966296,110 C238.966296,108.896 238.078296,108 236.982296,108 L233.016296,108 C231.920296,108 231.032296,108.896 231.032296,110 L231.032296,111.697 C229.647296,112.192 228.401296,112.961 227.305296,113.901 L224.958296,112.536 C224.010296,111.983 222.796296,112.312 222.249296,113.268 L220.266296,116.732 C219.718296,117.688 220.043296,118.912 220.991296,119.464 L223.314296,120.816 C223.184296,121.526 223.098296,122.252 223.098296,123 C223.098296,123.749 223.184296,124.474 223.314296,125.184 L220.991296,126.536 C220.043296,127.088 219.718296,128.312 220.266296,129.268 L222.249296,132.732 C222.796296,133.688 224.010296,134.017 224.958296,133.464 L227.305296,132.099 C228.401296,133.039 229.647296,133.809 231.032296,134.303 L231.032296,136 C231.032296,137.104 231.920296,138 233.016296,138 L236.982296,138 C238.078296,138 238.966296,137.104 238.966296,136 L238.966296,134.303 C240.351296,133.809 241.597296,133.039 242.693296,132.099 L245.040296,133.464 C245.988296,134.017 247.202296,133.688 247.749296,132.732 L249.732296,129.268 C250.280296,128.312 249.956296,127.088 249.007296,126.536 L249.007296,126.536 Z M234.999296,120 C233.356296,120 232.024296,121.344 232.024296,123 C232.024296,124.657 233.356296,126 234.999296,126 C236.642296,126 237.974296,124.657 237.974296,123 C237.974296,121.344 236.642296,120 234.999296,120 L234.999296,120 Z" id="Fill-171"></path>
        </g>
    </g>
</svg>