<?xml version="1.0" encoding="UTF-8"?>
<svg width="184px" height="119px" viewBox="0 0 184 119" version="1.1" xmlns="http://www.w3.org/2000/svg" xmlns:xlink="http://www.w3.org/1999/xlink">
    <!-- Generator: Sketch 59.1 (86144) - https://sketch.com -->
    <title>Group 146</title>
    <desc>Created with Sketch.</desc>
    <defs>
        <polygon id="path-1" points="0.0503528891 0.106269767 148.034987 0.106269767 148.034987 105.810317 0.0503528891 105.810317"></polygon>
        <polygon id="path-3" points="0 119 183.998394 119 183.998394 0.106269767 0 0.106269767"></polygon>
    </defs>
    <g id="Products-Page" stroke="none" stroke-width="1" fill="none" fill-rule="evenodd">
        <g id="Products-Page-Websites" transform="translate(-591.000000, -940.000000)">
            <g id="Group-146" transform="translate(591.000000, 940.000000)">
                <polygon id="Fill-1" fill="#414040" points="90.0515451 98.9911504 82.7826087 119 130.382609 119 123.113672 98.9911504"></polygon>
                <g id="Group-145">
                    <g id="Group-4" transform="translate(32.696681, 0.000000)">
                        <mask id="mask-2" fill="white">
                            <use xlink:href="#path-1"></use>
                        </mask>
                        <use id="Clip-3" fill="#D8D8D8" xlink:href="#path-1"></use>
                        <path d="M148.034987,105.810317 L0.0503528891,105.810317 L0.0503528891,3.02752605 C0.0503528891,1.41466093 1.33751224,0.106214419 2.92657095,0.106214419 L145.159314,0.106214419 C146.747283,0.106214419 148.034987,1.41466093 148.034987,3.02752605 L148.034987,105.810317 Z" id="Fill-2" fill="#414040" mask="url(#mask-2)"></path>
                    </g>
                    <path d="M177.125116,90.9039893 L36.353914,90.9039893 L36.353914,6.19591488 C36.353914,4.85647302 37.4230955,3.76997535 38.7424066,3.76997535 L174.735533,3.76997535 C176.055389,3.76997535 177.125116,4.85647302 177.125116,6.19591488 L177.125116,90.9039893 Z" id="Fill-5" fill="#84B8FF"></path>
                    <mask id="mask-4" fill="white">
                        <use xlink:href="#path-3"></use>
                    </mask>
                    <g id="Clip-8"></g>
                    <polygon id="Fill-7" fill="#D6E7F9" mask="url(#mask-4)" points="95.9173493 90.9038233 177.125007 90.9038233 177.125007 3.7698093 95.9173493 3.7698093"></polygon>
                    <path d="M106.739406,102.812181 C104.492599,102.812181 102.671394,100.962976 102.671394,98.6809437 C102.671394,96.3994647 104.492599,94.549153 106.739406,94.549153 C108.985668,94.549153 110.806873,96.3994647 110.806873,98.6809437 C110.806873,100.962976 108.985668,102.812181 106.739406,102.812181 Z" id="Fill-9" fill="#FDFDFD" mask="url(#mask-4)"></path>
                    <path d="M74.9128922,60.7799419 L29.1468026,60.7799419 C28.225846,60.7799419 27.4792718,60.0216628 27.4792718,59.0868209 L27.4792718,35.1274163 C27.4792718,34.1925744 28.225846,33.4337419 29.1468026,33.4337419 L74.9128922,33.4337419 C75.8333038,33.4337419 76.580423,34.1925744 76.580423,35.1274163 L76.580423,59.0868209 C76.580423,60.0216628 75.8333038,60.7799419 74.9128922,60.7799419" id="Fill-10" fill="#527EF9" mask="url(#mask-4)"></path>
                    <path d="M46.570428,57.1325642 L31.1185214,57.1325642 C30.6978241,57.1325642 30.3572337,56.7871874 30.3572337,56.3598944 L30.3572337,52.6991223 C30.3572337,52.2718293 30.6978241,51.9258991 31.1185214,51.9258991 L46.570428,51.9258991 C46.9911253,51.9258991 47.3311708,52.2718293 47.3311708,52.6991223 L47.3311708,56.3598944 C47.3311708,56.7871874 46.9911253,57.1325642 46.570428,57.1325642" id="Fill-11" fill="#FF5562" mask="url(#mask-4)"></path>
                    <path d="M52.3500569,58.456287 C52.0225451,58.456287 51.7571571,58.1867381 51.7571571,57.8535381 L51.7571571,36.3610312 C51.7571571,36.0283847 52.0225451,35.7582823 52.3500569,35.7582823 L72.8879323,35.7582823 C73.2165339,35.7582823 73.481922,36.0283847 73.481922,36.3610312 L73.481922,57.8535381 C73.481922,58.1867381 73.2165339,58.456287 72.8879323,58.456287 L52.3500569,58.456287 Z" id="Fill-12" fill="#FDFDFD" mask="url(#mask-4)"></path>
                    <g id="Group-16" mask="url(#mask-4)" fill="#FDFDFD">
                        <g transform="translate(29.971958, 37.637209)">
                            <path d="M17.0199305,2.41691767 L0.725539357,2.41691767 C0.536988495,2.41691767 0.385493872,2.26194093 0.385493872,2.07154093 L0.385493872,0.783573488 C0.385493872,0.593173488 0.536988495,0.438196744 0.725539357,0.438196744 L17.0199305,0.438196744 C17.2073914,0.438196744 17.359431,0.593173488 17.359431,0.783573488 L17.359431,2.07154093 C17.359431,2.26194093 17.2073914,2.41691767 17.0199305,2.41691767" id="Fill-13"></path>
                            <path d="M17.0199305,6.37430419 L0.725539357,6.37430419 C0.536988495,6.37430419 0.385493872,6.21932744 0.385493872,6.02837395 L0.385493872,4.74096 C0.385493872,4.55000651 0.536988495,4.39558326 0.725539357,4.39558326 L17.0199305,4.39558326 C17.2073914,4.39558326 17.359431,4.55000651 17.359431,4.74096 L17.359431,6.02837395 C17.359431,6.21932744 17.2073914,6.37430419 17.0199305,6.37430419" id="Fill-14"></path>
                            <path d="M17.0199305,10.331414 L0.725539357,10.331414 C0.536988495,10.331414 0.385493872,10.1769907 0.385493872,9.98548372 L0.385493872,8.69806977 C0.385493872,8.50766977 0.536988495,8.35269302 0.725539357,8.35269302 L17.0199305,8.35269302 C17.2073914,8.35269302 17.359431,8.50766977 17.359431,8.69806977 L17.359431,9.98548372 C17.359431,10.1769907 17.2073914,10.331414 17.0199305,10.331414" id="Fill-15"></path>
                        </g>
                    </g>
                    <path d="M70.1089324,53.8937716 C70.1089324,53.8937716 66.7880394,55.7922367 62.6175777,55.7922367 C58.4498408,55.7922367 55.1300377,53.8937716 55.1300377,53.8937716 L60.7097264,43.5274879 L60.3140965,42.2782647 C59.6427247,42.2782647 57.9305085,40.6714879 57.9305085,40.6714879 C57.9305085,40.6714879 58.9871562,39.3071391 59.610028,38.8720972 C60.2328998,38.4376088 61.2029013,38.4210042 61.2029013,38.4210042 C61.2029013,38.432074 61.2083508,38.4431437 61.2083508,38.4542135 C61.4083455,39.1859251 62.0154139,39.5490135 62.6175777,39.5490135 C63.2235562,39.5490135 63.8306246,39.1859251 64.0311643,38.4542135 C64.0311643,38.4431437 64.0360688,38.432074 64.0360688,38.4210042 C64.0360688,38.4210042 65.0055254,38.4376088 65.6289421,38.8720972 C66.2523588,39.3071391 67.3079167,40.6714879 67.3079167,40.6714879 C67.3079167,40.6714879 65.5962454,42.2782647 64.9243286,42.2782647 L64.5292437,43.5274879 L70.1089324,53.8937716 Z" id="Fill-17" fill="#FF5562" mask="url(#mask-4)"></path>
                    <path d="M70.1116026,53.8946019 C70.1116026,53.8946019 66.7907097,55.7925135 62.620248,55.7925135 L62.620248,39.5498437 C63.2262265,39.5498437 63.8332948,39.1867553 64.0338345,38.4544902 C64.0338345,38.4434205 64.038194,38.4329042 64.038194,38.4218344 C64.038194,38.4218344 65.0087405,38.4384391 65.6316123,38.8729274 C66.2544841,39.3079693 67.3111318,40.6723181 67.3111318,40.6723181 C67.3111318,40.6723181 65.5989156,42.2790949 64.9269988,42.2790949 L64.531369,43.5283181 L70.1116026,53.8946019 Z" id="Fill-18" fill="#FF5562" mask="url(#mask-4)"></path>
                    <polygon id="Fill-19" fill="#FEBC2A" mask="url(#mask-4)" points="44.2932677 95.1935242 46.9749405 105.046171 73.5873143 105.046171 75.7398458 95.1935242"></polygon>
                    <polygon id="Fill-20" fill="#FEBC2A" mask="url(#mask-4)" points="44.2932677 95.1935242 46.9749405 105.046171 60.0072927 105.046171 60.0072927 95.1935242"></polygon>
                    <polygon id="Fill-21" fill="#FF5562" mask="url(#mask-4)" points="56.2671193 96.8226619 74.5031483 96.8226619 73.0535955 78.300727 57.7232115 78.300727"></polygon>
                    <path d="M69.3415412,81.3595805 C69.3415412,81.8333665 69.7208227,82.2180409 70.1872954,82.2180409 C70.654313,82.2180409 71.0330496,81.8333665 71.0330496,81.3595805 C71.0330496,80.8852409 70.654313,80.500013 70.1872954,80.500013 C69.7208227,80.500013 69.3415412,80.8852409 69.3415412,81.3595805" id="Fill-22" fill="#EA3248" mask="url(#mask-4)"></path>
                    <path d="M59.7347658,81.3595805 C59.7347658,81.8333665 60.1135024,82.2180409 60.58052,82.2180409 C61.0475376,82.2180409 61.4262742,81.8333665 61.4262742,81.3595805 C61.4262742,80.8852409 61.0475376,80.500013 60.58052,80.500013 C60.1135024,80.500013 59.7347658,80.8852409 59.7347658,81.3595805" id="Fill-23" fill="#EA3248" mask="url(#mask-4)"></path>
                    <path d="M60.5442267,81.5060335 C60.6646595,81.5060335 60.7622046,81.4086195 60.7622046,81.2862986 L60.7622046,77.3449079 C60.7622046,74.8829916 62.836809,72.8804707 65.3871501,72.8804707 C67.9369463,72.8804707 70.0115507,74.8829916 70.0115507,77.3449079 L70.0115507,81.2862986 C70.0115507,81.4086195 70.1096408,81.5060335 70.2295286,81.5060335 C70.3499614,81.5060335 70.4469615,81.4086195 70.4469615,81.2862986 L70.4469615,77.3449079 C70.4469615,74.6394567 68.1772669,72.4382335 65.3871501,72.4382335 C62.5970333,72.4382335 60.3273387,74.6394567 60.3273387,77.3449079 L60.3273387,81.2862986 C60.3273387,81.4086195 60.4243389,81.5060335 60.5442267,81.5060335" id="Fill-24" fill="#FFFFFF" mask="url(#mask-4)"></path>
                    <polygon id="Fill-25" fill="#EA3248" mask="url(#mask-4)" points="56.2703345 96.8237135 55.1673664 95.8052949 57.723157 78.3039926"></polygon>
                    <polygon id="Fill-26" fill="#FF5562" mask="url(#mask-4)" points="65.3854063 78.3867391 65.3854063 96.908674 74.5028759 96.908674 73.053323 78.3867391"></polygon>
                    <polygon id="Fill-27" fill="#6040AB" mask="url(#mask-4)" points="45.8802011 96.8226619 64.1167751 96.8226619 62.6666773 78.300727 47.3368383 78.300727"></polygon>
                    <path d="M58.955168,81.3595805 C58.955168,81.8333665 59.3339045,82.2180409 59.8009221,82.2180409 C60.2673948,82.2180409 60.6466763,81.8333665 60.6466763,81.3595805 C60.6466763,80.8852409 60.2673948,80.500013 59.8009221,80.500013 C59.3339045,80.500013 58.955168,80.8852409 58.955168,81.3595805" id="Fill-28" fill="#422A8C" mask="url(#mask-4)"></path>
                    <path d="M49.3483926,81.3595805 C49.3483926,81.8333665 49.7271291,82.2180409 50.1936018,82.2180409 C50.6611643,82.2180409 51.0393559,81.8333665 51.0393559,81.3595805 C51.0393559,80.8852409 50.6611643,80.500013 50.1936018,80.500013 C49.7271291,80.500013 49.3483926,80.8852409 49.3483926,81.3595805" id="Fill-29" fill="#422A8C" mask="url(#mask-4)"></path>
                    <path d="M50.157254,81.5060335 C50.2782317,81.5060335 50.3752318,81.4086195 50.3752318,81.2862986 L50.3752318,77.3449079 C50.3752318,74.8829916 52.4498363,72.8804707 55.0007224,72.8804707 C57.5499736,72.8804707 59.6256679,74.8829916 59.6256679,77.3449079 L59.6256679,81.2862986 C59.6256679,81.4086195 59.7226681,81.5060335 59.8425559,81.5060335 C59.9635336,81.5060335 60.0599888,81.4086195 60.0599888,81.2862986 L60.0599888,77.3449079 C60.0599888,74.6394567 57.7908392,72.4382335 55.0007224,72.4382335 C52.2100606,72.4382335 49.940366,74.6394567 49.940366,77.3449079 L49.940366,81.2862986 C49.940366,81.4086195 50.0373661,81.5060335 50.157254,81.5060335" id="Fill-30" fill="#FFFFFF" mask="url(#mask-4)"></path>
                    <polygon id="Fill-31" fill="#422A8C" mask="url(#mask-4)" points="45.8828713 96.8237135 44.7804482 95.8052949 47.3362388 78.3039926"></polygon>
                    <polygon id="Fill-32" fill="#6040AB" mask="url(#mask-4)" points="54.9989785 78.3867391 54.9989785 96.908674 64.1164481 96.908674 62.6663503 78.3867391"></polygon>
                    <path d="M41.9016689,82.5611484 L77.4620345,82.5611484 L74.6991649,95.1934135 L72.7689709,104.014911 L47.7478355,104.014911 L45.3446295,95.1934135 L41.9016689,82.5611484 Z M29.2050027,75.1388693 C29.2050027,75.4217019 29.4338794,75.654167 29.7128911,75.654167 L37.4838023,75.654167 C38.3568037,75.654167 39.1338949,76.2524879 39.3676761,77.1087344 L44.2934312,95.1934135 L46.975104,105.04606 L73.5874778,105.04606 L75.7400093,95.1934135 L78.7257612,81.5299995 L41.7894103,81.5299995 C41.733826,81.5299995 41.6776967,81.5344274 41.6324663,81.55546 L40.3425822,76.8347577 C39.9916378,75.5307391 38.8140123,74.6230181 37.4838023,74.6230181 L29.7128911,74.6230181 C29.4338794,74.6230181 29.2050027,74.8543763 29.2050027,75.1388693 L29.2050027,75.1388693 Z" id="Fill-33" fill="#6040AB" mask="url(#mask-4)"></path>
                    <path d="M45.3352564,97.2544935 L74.4652747,97.2544935 C74.7459212,97.2544935 74.974798,97.0242423 74.974798,96.7386423 C74.974798,96.4541493 74.7459212,96.2233447 74.4652747,96.2233447 L45.3352564,96.2233447 C45.0546099,96.2233447 44.826823,96.4541493 44.826823,96.7386423 C44.826823,97.0242423 45.0546099,97.2544935 45.3352564,97.2544935" id="Fill-34" fill="#6040AB" mask="url(#mask-4)"></path>
                    <path d="M43.1645237,89.2716414 L76.1304077,89.2716414 C76.4115991,89.2716414 76.6382961,89.0413902 76.6382961,88.7557902 C76.6382961,88.4712972 76.4115991,88.2404926 76.1304077,88.2404926 L43.1645237,88.2404926 C42.8833323,88.2404926 42.6566353,88.4712972 42.6566353,88.7557902 C42.6566353,89.0413902 42.8833323,89.2716414 43.1645237,89.2716414" id="Fill-35" fill="#6040AB" mask="url(#mask-4)"></path>
                    <path d="M72.4579709,116.821747 C72.5734992,116.821747 72.6901174,116.781895 72.7860276,116.698872 C72.9996459,116.515114 73.0258033,116.190216 72.8448817,115.971588 L63.0260683,104.198337 C62.8451466,103.98137 62.5241742,103.954802 62.310011,104.138007 C62.0963926,104.322319 62.0702353,104.64777 62.2517019,104.865291 L72.0694254,116.639095 C72.1707851,116.760863 72.3135606,116.821747 72.4579709,116.821747" id="Fill-36" fill="#6040AB" mask="url(#mask-4)"></path>
                    <path d="M70.0860447,116.438511 C70.0860447,117.76799 71.1481419,118.846739 72.457644,118.846739 C73.7660562,118.846739 74.8276084,117.76799 74.8276084,116.438511 C74.8276084,115.109032 73.7660562,114.030283 72.457644,114.030283 C71.1481419,114.030283 70.0860447,115.109032 70.0860447,116.438511" id="Fill-37" fill="#FEBC2A" mask="url(#mask-4)"></path>
                    <path d="M71.6240421,116.438511 C71.6240421,116.905102 71.9978741,117.283134 72.4572625,117.283134 C72.9171958,117.283134 73.289938,116.905102 73.289938,116.438511 C73.289938,115.97026 72.9171958,115.593334 72.4572625,115.593334 C71.9978741,115.593334 71.6240421,115.97026 71.6240421,116.438511" id="Fill-38" fill="#FFFFFF" mask="url(#mask-4)"></path>
                    <path d="M47.1281244,116.821747 C47.2725348,116.821747 47.4153103,116.760863 47.5155801,116.639095 L57.3338485,104.865291 C57.5158601,104.64777 57.4891578,104.322319 57.2749945,104.138007 C57.0597414,103.954802 56.7398588,103.98137 56.5589372,104.198337 L46.7401238,115.971588 C46.5592022,116.190216 46.5859045,116.515114 46.7995228,116.698872 C46.8948881,116.781895 47.0115063,116.821747 47.1281244,116.821747" id="Fill-39" fill="#6040AB" mask="url(#mask-4)"></path>
                    <path d="M49.4984158,116.438511 C49.4984158,117.76799 48.4374085,118.846739 47.1279065,118.846739 C45.8184044,118.846739 44.7573971,117.76799 44.7573971,116.438511 C44.7573971,115.109032 45.8184044,114.030283 47.1279065,114.030283 C48.4374085,114.030283 49.4984158,115.109032 49.4984158,116.438511" id="Fill-40" fill="#FEBC2A" mask="url(#mask-4)"></path>
                    <path d="M47.960473,116.438511 C47.960473,116.905102 47.5877308,117.283134 47.1283424,117.283134 C46.6684091,117.283134 46.295122,116.905102 46.295122,116.438511 C46.295122,115.97026 46.6684091,115.593334 47.1283424,115.593334 C47.5877308,115.593334 47.960473,115.97026 47.960473,116.438511" id="Fill-41" fill="#FFFFFF" mask="url(#mask-4)"></path>
                    <path d="M29.8607346,76.0743753 L35.1706756,76.0743753 C35.679109,76.0743753 36.0910872,75.6553847 36.0910872,75.140087 C36.0910872,74.6231288 35.679109,74.2035847 35.1706756,74.2035847 L29.8607346,74.2035847 C29.3517563,74.2035847 28.940323,74.6231288 28.940323,75.140087 C28.940323,75.6553847 29.3517563,76.0743753 29.8607346,76.0743753" id="Fill-42" fill="#FF5562" mask="url(#mask-4)"></path>
                    <path d="M129.685119,38.9901563 L105.922806,38.9901563 C105.514643,38.9901563 105.183316,38.6541888 105.183316,38.239626 L105.183316,14.1047656 C105.183316,13.6896493 105.514643,13.3536819 105.922806,13.3536819 L129.685119,13.3536819 C130.093828,13.3536819 130.424064,13.6896493 130.424064,14.1047656 L130.424064,38.239626 C130.424064,38.6541888 130.093828,38.9901563 129.685119,38.9901563" id="Fill-43" fill="#FDFDFD" mask="url(#mask-4)"></path>
                    <path d="M167.120258,38.9901563 L143.357945,38.9901563 C142.949236,38.9901563 142.61791,38.6541888 142.61791,38.239626 L142.61791,14.1047656 C142.61791,13.6896493 142.949236,13.3536819 143.357945,13.3536819 L167.120258,13.3536819 C167.528422,13.3536819 167.859203,13.6896493 167.859203,14.1047656 L167.859203,38.239626 C167.859203,38.6541888 167.528422,38.9901563 167.120258,38.9901563" id="Fill-44" fill="#FDFDFD" mask="url(#mask-4)"></path>
                    <path d="M129.685119,76.657586 L105.922806,76.657586 C105.514643,76.657586 105.183316,76.3210651 105.183316,75.9059488 L105.183316,51.7721953 C105.183316,51.3576326 105.514643,51.0205581 105.922806,51.0205581 L129.685119,51.0205581 C130.093828,51.0205581 130.424064,51.3576326 130.424064,51.7721953 L130.424064,75.9059488 C130.424064,76.3210651 130.093828,76.657586 129.685119,76.657586" id="Fill-45" fill="#FDFDFD" mask="url(#mask-4)"></path>
                    <path d="M79.2282547,21.8449684 L42.2815499,21.8449684 C41.4472396,21.8449684 40.7709632,21.1580893 40.7709632,20.3106986 C40.7709632,19.4627544 41.4472396,18.7758753 42.2815499,18.7758753 L79.2282547,18.7758753 C80.062565,18.7758753 80.7388414,19.4627544 80.7388414,20.3106986 C80.7388414,21.1580893 80.062565,21.8449684 79.2282547,21.8449684" id="Fill-46" fill="#FDFDFD" mask="url(#mask-4)"></path>
                    <path d="M67.2080828,14.8885051 L42.2817678,14.8885051 C41.4474575,14.8885051 40.7706362,14.2010726 40.7706362,13.3536819 C40.7706362,12.5062912 41.4474575,11.8194121 42.2817678,11.8194121 L67.2080828,11.8194121 C68.0423931,11.8194121 68.7186695,12.5062912 68.7186695,13.3536819 C68.7186695,14.2010726 68.0423931,14.8885051 67.2080828,14.8885051" id="Fill-47" fill="#FDFDFD" mask="url(#mask-4)"></path>
                    <path d="M163.274801,31.9593595 C163.274801,31.9593595 159.953364,33.8572712 155.782357,33.8572712 C151.61571,33.8572712 148.295362,31.9593595 148.295362,31.9593595 L153.875595,21.5930758 L153.479966,20.3438526 C152.808594,20.3438526 151.096378,18.7365223 151.096378,18.7365223 C151.096378,18.7365223 152.153025,17.3721735 152.775352,16.9376851 C153.398224,16.5031967 154.36877,16.4865921 154.36877,16.4865921 C154.36877,16.4971084 154.373675,16.5087316 154.373675,16.5192479 C154.57367,17.251513 155.180738,17.6146014 155.782357,17.6146014 C156.388335,17.6146014 156.996494,17.251513 157.196488,16.5192479 C157.196488,16.5087316 157.201393,16.4971084 157.201393,16.4865921 C157.201393,16.4865921 158.171394,16.5031967 158.793721,16.9376851 C159.417683,17.3721735 160.473786,18.7365223 160.473786,18.7365223 C160.473786,18.7365223 158.761569,20.3438526 158.090198,20.3438526 L157.694568,21.5930758 L163.274801,31.9593595 Z" id="Fill-48" fill="#FEBC2A" mask="url(#mask-4)"></path>
                    <path d="M123.600267,43.6523549 L105.533171,43.6523549 C105.34026,43.6523549 105.183316,43.4935037 105.183316,43.2975688 L105.183316,41.5812014 C105.183316,41.3852665 105.34026,41.2264153 105.533171,41.2264153 L123.600267,41.2264153 C123.793177,41.2264153 123.949576,41.3852665 123.949576,41.5812014 L123.949576,43.2975688 C123.949576,43.4935037 123.793177,43.6523549 123.600267,43.6523549" id="Fill-49" fill="#FDFDFD" mask="url(#mask-4)"></path>
                    <path d="M130.074155,43.6523549 L126.191969,43.6523549 C125.999059,43.6523549 125.84266,43.4935037 125.84266,43.2975688 L125.84266,41.5812014 C125.84266,41.3852665 125.999059,41.2264153 126.191969,41.2264153 L130.074155,41.2264153 C130.267611,41.2264153 130.424555,41.3852665 130.424555,41.5812014 L130.424555,43.2975688 C130.424555,43.4935037 130.267611,43.6523549 130.074155,43.6523549" id="Fill-50" fill="#FF5562" mask="url(#mask-4)"></path>
                    <path d="M161.035406,43.6523549 L142.96831,43.6523549 C142.774854,43.6523549 142.61791,43.4935037 142.61791,43.2975688 L142.61791,41.5812014 C142.61791,41.3852665 142.774854,41.2264153 142.96831,41.2264153 L161.035406,41.2264153 C161.228316,41.2264153 161.384715,41.3852665 161.384715,41.5812014 L161.384715,43.2975688 C161.384715,43.4935037 161.228316,43.6523549 161.035406,43.6523549" id="Fill-51" fill="#FDFDFD" mask="url(#mask-4)"></path>
                    <path d="M167.509839,43.6523549 L163.626018,43.6523549 C163.433653,43.6523549 163.277254,43.4935037 163.277254,43.2975688 L163.277254,41.5812014 C163.277254,41.3852665 163.433653,41.2264153 163.626018,41.2264153 L167.509839,41.2264153 C167.702749,41.2264153 167.859694,41.3852665 167.859694,41.5812014 L167.859694,43.2975688 C167.859694,43.4935037 167.702749,43.6523549 167.509839,43.6523549" id="Fill-52" fill="#FF5562" mask="url(#mask-4)"></path>
                    <path d="M167.120258,76.657586 L143.357945,76.657586 C142.949236,76.657586 142.61791,76.3210651 142.61791,75.9059488 L142.61791,51.7721953 C142.61791,51.3576326 142.949236,51.0205581 143.357945,51.0205581 L167.120258,51.0205581 C167.528422,51.0205581 167.859203,51.3576326 167.859203,51.7721953 L167.859203,75.9059488 C167.859203,76.3210651 167.528422,76.657586 167.120258,76.657586" id="Fill-53" fill="#FDFDFD" mask="url(#mask-4)"></path>
                    <polygon id="Fill-54" fill="#FDFDFD" mask="url(#mask-4)" points="105.183044 81.3207256 123.949304 81.3207256 123.949304 78.8931256 105.183044 78.8931256"></polygon>
                    <polygon id="Fill-55" fill="#FF5562" mask="url(#mask-4)" points="125.842987 81.3207256 130.424337 81.3207256 130.424337 78.8931256 125.842987 78.8931256"></polygon>
                    <path d="M161.035406,81.3206149 L142.96831,81.3206149 C142.774854,81.3206149 142.61791,81.1612102 142.61791,80.9647219 L142.61791,79.2483544 C142.61791,79.051866 142.774854,78.8930149 142.96831,78.8930149 L161.035406,78.8930149 C161.228316,78.8930149 161.384715,79.051866 161.384715,79.2483544 L161.384715,80.9647219 C161.384715,81.1612102 161.228316,81.3206149 161.035406,81.3206149" id="Fill-56" fill="#FDFDFD" mask="url(#mask-4)"></path>
                    <path d="M167.509839,81.3206149 L163.626018,81.3206149 C163.433653,81.3206149 163.277254,81.1612102 163.277254,80.9647219 L163.277254,79.2483544 C163.277254,79.051866 163.433653,78.8930149 163.626018,78.8930149 L167.509839,78.8930149 C167.702749,78.8930149 167.859694,79.051866 167.859694,79.2483544 L167.859694,80.9647219 C167.859694,81.1612102 167.702749,81.3206149 167.509839,81.3206149" id="Fill-57" fill="#FF5562" mask="url(#mask-4)"></path>
                    <polygon id="Fill-58" fill="#FF5562" mask="url(#mask-4)" points="111.600312 34.6676335 124.676805 34.6676335 123.637051 21.38668 112.644971 21.38668"></polygon>
                    <path d="M120.97505,23.5802651 C120.97505,23.9206605 121.246433,24.1962977 121.582119,24.1962977 C121.916715,24.1962977 122.188642,23.9206605 122.188642,23.5802651 C122.188642,23.2398698 121.916715,22.9642326 121.582119,22.9642326 C121.246433,22.9642326 120.97505,23.2398698 120.97505,23.5802651" id="Fill-59" fill="#EA3248" mask="url(#mask-4)"></path>
                    <path d="M114.087712,23.5802651 C114.087712,23.9206605 114.35855,24.1962977 114.693146,24.1962977 C115.029377,24.1962977 115.300759,23.9206605 115.300759,23.5802651 C115.300759,23.2398698 115.029377,22.9642326 114.693146,22.9642326 C114.35855,22.9642326 114.087712,23.2398698 114.087712,23.5802651" id="Fill-60" fill="#EA3248" mask="url(#mask-4)"></path>
                    <path d="M114.667752,23.6859814 C114.753308,23.6859814 114.824151,23.6156884 114.824151,23.5271302 L114.824151,20.7015721 C114.824151,18.9364977 116.311305,17.5007488 118.140684,17.5007488 C119.968973,17.5007488 121.456672,18.9364977 121.456672,20.7015721 L121.456672,23.5271302 C121.456672,23.6156884 121.526425,23.6859814 121.612527,23.6859814 C121.698083,23.6859814 121.767836,23.6156884 121.767836,23.5271302 L121.767836,20.7015721 C121.767836,18.7621488 120.140631,17.1836 118.140684,17.1836 C116.138557,17.1836 114.512442,18.7621488 114.512442,20.7015721 L114.512442,23.5271302 C114.512442,23.6156884 114.58165,23.6859814 114.667752,23.6859814" id="Fill-61" fill="#FF5562" mask="url(#mask-4)"></path>
                    <polygon id="Fill-62" fill="#EA3248" mask="url(#mask-4)" points="111.601893 34.6686851 110.812268 33.938634 112.644917 21.3888386"></polygon>
                    <polygon id="Fill-63" fill="#FF5562" mask="url(#mask-4)" points="118.139104 21.3869014 118.139104 34.6678549 124.676805 34.6678549 123.637051 21.3869014"></polygon>
                    <path d="M126.677297,62.20368 C126.677297,62.20368 125.982493,63.0975637 125.644627,63.3565963 C125.12148,63.7445916 124.234855,64.2571219 124.234855,64.2571219 C124.234855,64.2571219 122.455611,61.8350567 122.391852,61.8350567 C122.422914,61.9518428 122.570049,72.4382335 122.570049,72.4382335 L113.035697,72.4382335 C113.035697,72.4382335 113.182287,61.9518428 113.220978,61.8350567 C113.15068,61.8350567 111.370346,64.2571219 111.370346,64.2571219 C111.370346,64.2571219 110.484811,63.7445916 109.968203,63.3565963 C109.623253,63.0975637 108.928449,62.20368 108.928449,62.20368 L111.013952,58.8091358 C111.550178,57.9418195 112.283128,57.2228381 113.163759,56.7108614 C113.807338,56.3350428 114.553913,55.9011079 115.083054,55.6033312 C115.401847,55.4345172 115.644347,55.2983591 115.740257,55.2601684 C115.758785,55.2474381 115.778403,55.2402428 115.784398,55.2402428 L119.828432,55.2402428 C119.833882,55.2402428 119.84696,55.2474381 119.866033,55.2601684 C119.961399,55.2983591 120.210438,55.4345172 120.529231,55.6033312 C121.058372,55.9011079 121.805492,56.3350428 122.448526,56.7108614 C123.323163,57.2228381 124.056658,57.9418195 124.592339,58.8091358 L126.677297,62.20368 Z" id="Fill-64" fill="#6040AB" mask="url(#mask-4)"></path>
                    <path d="M120.529122,55.6031651 C120.172728,57.1385419 119.087743,58.2582488 117.806578,58.2582488 C116.524324,58.2582488 115.432799,57.1385419 115.082945,55.6031651 C115.401738,55.4343512 115.644238,55.2987465 115.740148,55.2600023 C115.758676,55.2472721 115.778294,55.2400767 115.784289,55.2400767 L119.828323,55.2400767 C119.834318,55.2400767 119.846851,55.2472721 119.865924,55.2600023 C119.96129,55.2987465 120.210329,55.4343512 120.529122,55.6031651" id="Fill-65" fill="#84B8FF" mask="url(#mask-4)"></path>
                    <path d="M119.866033,55.2602237 C119.783202,56.5946842 118.890582,57.6374563 117.806687,57.6374563 C116.715708,57.6374563 115.829083,56.5946842 115.740257,55.2602237 C115.758785,55.2474935 115.778403,55.2402981 115.784398,55.2402981 L119.828432,55.2402981 C119.833882,55.2402981 119.84696,55.2474935 119.866033,55.2602237" id="Fill-66" fill="#422A8C" mask="url(#mask-4)"></path>
                    <path d="M126.677297,62.20368 C126.677297,62.20368 125.982493,63.0975637 125.644627,63.3565963 C125.12148,63.7445916 124.234855,64.2571219 124.234855,64.2571219 C124.234855,64.2571219 122.455611,61.8350567 122.391852,61.8350567 C122.422914,61.9518428 122.570049,72.4382335 122.570049,72.4382335 L117.806687,72.4382335 L117.806687,55.2402428 L119.828432,55.2402428 C119.833882,55.2402428 119.84696,55.2474381 119.866033,55.2601684 C119.961399,55.2983591 120.210438,55.4345172 120.529231,55.6033312 C121.058372,55.9011079 121.805492,56.3350428 122.448526,56.7108614 C123.323163,57.2228381 124.056658,57.9418195 124.592339,58.8091358 L126.677297,62.20368 Z" id="Fill-67" fill="#6040AB" mask="url(#mask-4)"></path>
                    <path d="M24.3088381,114.758563 C24.3088381,114.758563 25.0652213,115.527359 26.5322124,116.162763 C27.9992035,116.798721 29.4732789,116.407959 29.304891,117.763452 C29.1359582,119.117284 26.8542748,118.930759 25.3987275,118.751982 C23.9431802,118.571545 23.4352918,118.625787 22.1454077,118.726521 C20.8549787,118.826703 20.7874056,118.497931 20.7116582,117.76788 C20.6370008,117.038935 21.2042882,114.551559 21.2042882,114.551559 C21.2042882,114.551559 22.9323078,115.24674 24.3088381,114.758563" id="Fill-68" fill="#4A70F5" mask="url(#mask-4)"></path>
                    <path d="M9.9880732,114.013734 C9.9880732,114.013734 10.6136697,114.993962 11.9749415,115.837478 C13.3367583,116.680441 14.8135584,116.874162 14.4549848,118.18925 C14.0958663,119.504892 11.7515142,118.845687 10.3373827,118.453818 C8.92216139,118.064715 8.61699236,117.893134 7.32656334,117.805129 C6.03558938,117.716018 5.70208323,117.144264 5.7309653,116.412553 C5.75984737,115.680287 6.94564701,113.356743 6.94564701,113.356743 C6.94564701,113.356743 8.55704845,114.29546 9.9880732,114.013734" id="Fill-69" fill="#4A70F5" mask="url(#mask-4)"></path>
                    <path d="M8.42588026,60.6275112 C8.42588026,60.6275112 8.50489724,63.7392228 8.59535806,64.298246 C8.68527393,64.8589298 10.1304672,65.5314181 11.3832951,64.4238879 C12.635578,63.3196786 12.5135104,61.6630879 12.5135104,61.6630879 L11.6361494,58.9842042 L8.42588026,60.6275112 Z" id="Fill-70" fill="#FEB7BF" mask="url(#mask-4)"></path>
                    <path d="M8.73213918,55.11128 L8.73213918,55.11128 C8.38391952,56.8121498 8.26403169,58.5539777 8.37574535,60.2869498 L8.41770609,60.9406195 C8.41770609,60.9406195 10.162619,61.9119916 11.6334247,61.5710428 L11.1925644,56.5647405 L8.73213918,55.11128 Z" id="Fill-71" fill="#FEBC2A" mask="url(#mask-4)"></path>
                    <path d="M17.8198003,76.6808326 C17.7620361,79.4654326 17.6170808,81.992107 17.4372491,84.1994186 C17.2922938,85.9246419 17.1304452,87.4566977 16.9680517,88.7568419 L16.9680517,88.7629302 C16.561523,92.0307256 16.1680729,93.8865721 16.1680729,93.8865721 L11.0450479,114.169153 C8.72031388,114.934628 6.44789453,113.071586 6.44789453,113.071586 L10.5153617,92.6262791 C10.3360749,86.6021116 10.0919397,75.0319907 10.0919397,75.0319907 L17.8198003,76.6808326 Z" id="Fill-72" fill="#6040AB" mask="url(#mask-4)"></path>
                    <path d="M17.4371946,84.1994186 C17.2922393,85.9246419 17.1303907,87.4566977 16.9679972,88.7568419 C16.921132,88.509986 15.8023605,82.5040837 15.6519558,80.3078419 L17.4371946,84.1994186 Z" id="Fill-73" fill="#6040AB" mask="url(#mask-4)"></path>
                    <path d="M25.0203724,75.4047098 L26.2105316,90.0516726 L25.0427151,114.875073 C25.0427151,114.875073 23.7566457,115.706412 20.6787981,114.602203 L20.1905276,92.8971563 C20.1905276,92.8971563 15.2206321,83.2908121 15.1999242,76.2166772 L25.0203724,75.4047098 Z" id="Fill-74" fill="#6040AB" mask="url(#mask-4)"></path>
                    <path d="M14.3668128,49.6304721 C14.3668128,49.6304721 9.50045669,53.5956628 9.63723781,54.4679605 C10.1162442,57.5331791 10.8017846,62.080086 10.8137734,65.9799651 C10.8306667,70.9668953 10.0900868,75.0295 10.0900868,75.0295 C10.0900868,75.0295 13.5886317,82.4030721 25.0204814,75.4047651 C25.0204814,75.4047651 23.7409513,68.482286 24.0139686,66.1792209 C24.5741717,61.4524302 24.5131379,55.6468907 24.5131379,55.6468907 L21.8352797,50.3400442 C21.8352797,50.3400442 20.0876421,48.8179512 20.0053554,48.7841884 C19.9230688,48.7509791 15.5079269,47.1071186 15.5079269,47.1071186 L14.3668128,49.6304721 Z" id="Fill-75" fill="#FEBC2A" mask="url(#mask-4)"></path>
                    <path d="M14.723915,75.9127567 C11.9272589,74.4925056 11.5354436,71.0359707 10.7910492,67.6453009 C10.6695265,71.8407428 10.0902503,75.0293893 10.0902503,75.0293893 C10.0902503,75.0293893 13.5887952,82.4035149 25.0206449,75.4046544 C25.0206449,75.4046544 24.9650605,75.1030033 24.8800491,74.6103986 C22.4572251,77.1918684 19.2442312,78.3442312 14.723915,75.9127567" id="Fill-76" fill="#FEBC2A" mask="url(#mask-4)"></path>
                    <polygon id="Fill-77" fill="#FEBC2A" mask="url(#mask-4)" points="21.4495133 58.0163191 24.1382704 65.063333 24.6881196 59.2600074"></polygon>
                    <path d="M22.4938998,44.2039614 C22.0868262,46.6664312 20.1157612,46.9669753 20.1157612,46.9669753 L20.0656263,47.8010823 L20.0051375,48.7840777 L14.3551509,48.4326126 L14.4091005,47.0660498 C14.4091005,47.0660498 13.6625262,42.7012405 14.0897629,40.5459567 C14.5131849,38.390673 17.7752238,36.9521567 20.1631714,37.6146823 C22.5505741,38.2772079 22.8301307,42.1820684 22.4938998,44.2039614" id="Fill-78" fill="#FEB7BF" mask="url(#mask-4)"></path>
                    <path d="M22.142901,39.7203735 C22.142901,39.7203735 19.4214472,38.9327595 18.8568845,44.4598944 C18.2263835,50.6368247 21.5979563,56.1589781 17.22641,58.094527 C12.8543188,60.0300758 7.9220244,56.7849735 8.59448615,53.3123874 C9.26694789,49.8398014 13.4619321,47.8007502 13.1344203,43.1193456 C12.822167,38.6565688 15.4798623,35.7740014 20.8045168,37.5722851 C20.8045168,37.5722851 22.0562548,38.1540014 22.142901,39.7203735" id="Fill-79" fill="#6040AB" mask="url(#mask-4)"></path>
                    <path d="M10.3893705,55.55396 C8.354547,50.9029972 15.3963223,46.7379972 13.1200883,42.1457042 C13.1102793,42.461746 13.1113692,42.7844298 13.1348018,43.1192902 C13.4623136,47.8006949 9.26678441,49.839746 8.59486761,53.3123321 C8.14855791,55.6159507 10.1697578,57.8177274 12.85688,58.4752716 C11.7953278,57.8326716 10.9364949,56.88676 10.3893705,55.55396" id="Fill-80" fill="#6040AB" mask="url(#mask-4)"></path>
                    <polygon id="Fill-81" fill="#FEB7BF" mask="url(#mask-4)" points="22.9464764 60.4459116 26.8101342 57.860014 29.2340482 63.6046698 26.2962514 66.1850326"></polygon>
                    <path d="M21.3510418,49.9196144 C21.3510418,49.9196144 23.9929337,51.6536935 24.7983619,52.8281958 C25.1209692,53.2981074 27.5846641,59.4440423 27.5846641,59.4440423 L23.2719719,61.5710981 L21.4496768,58.0160423 C20.2507985,55.8242284 20.1548883,53.1824284 20.9101816,50.795233 L21.3510418,49.9196144 Z" id="Fill-82" fill="#FEBC2A" mask="url(#mask-4)"></path>
                    <path d="M25.5006322,64.7208344 C25.5006322,64.7208344 28.2558725,62.4996856 30.5489997,61.4524856 C33.2775378,60.2065833 37.8163821,57.0627693 37.8163821,57.0627693 L38.949867,58.5217647 C38.949867,58.5217647 32.9745485,63.7882065 30.5806065,65.2920344 C29.353936,66.0613833 28.3185411,66.4062065 27.5992141,66.5584158 C26.9861514,66.6890391 26.3649144,66.3824065 26.0722791,65.8206158 L25.5006322,64.7208344 Z" id="Fill-83" fill="#FEB7BF" mask="url(#mask-4)"></path>
                    <path d="M20.1158702,46.967086 L20.0657353,47.8006395 C18.7644074,47.2853419 18.7436995,46.0278163 18.7436995,45.9564163 C19.0129022,46.922807 20.1158702,46.967086 20.1158702,46.967086" id="Fill-84" fill="#FEB7BF" mask="url(#mask-4)"></path>
                    <path d="M37.8161641,57.0628247 C37.8161641,57.0628247 37.7224336,55.1676805 38.1485804,55.0464665 C38.575817,54.925806 38.447755,56.120234 38.447755,56.120234 C38.447755,56.120234 38.9234917,55.6375921 40.1403532,54.9147363 C41.3566697,54.1918805 41.5582993,53.998713 41.7114287,54.2422479 C41.8656481,54.4857828 39.7719706,56.000127 39.7719706,56.000127 C39.7719706,56.000127 40.5098257,55.3580805 41.0008209,56.1384991 C41.1828324,56.428527 41.2051751,57.1469549 39.9970328,57.8122479 C39.7376391,57.9550479 39.4199363,58.044713 38.9496491,58.52182 L37.8161641,57.0628247 Z" id="Fill-85" fill="#FEB7BF" mask="url(#mask-4)"></path>
                    <g id="Group-37" mask="url(#mask-4)">
                        <g transform="translate(0.000218, 27.872512)">
                            <path d="M13.0590545,5.32907052e-14 L0.734585439,5.32907052e-14 C0.329146591,5.32907052e-14 8.70414851e-14,0.35367907 8.70414851e-14,0.789274419 L8.70414851e-14,6.11272558 C8.70414851e-14,6.54887442 0.329146591,6.90144651 0.734585439,6.90144651 L11.693968,6.90144651 L13.7941849,9.15691163 L13.7941849,6.90144651 L13.7941849,0.789274419 C13.7941849,0.35367907 13.4650383,5.32907052e-14 13.0590545,5.32907052e-14" id="Fill-86" fill="#527EF9"></path>
                            <path d="M4.03498844,3.39880605 C4.03498844,3.72702465 3.77341499,3.99269907 3.45026279,3.99269907 C3.12765554,3.99269907 2.86608209,3.72702465 2.86608209,3.39880605 C2.86608209,3.07114093 3.12765554,2.80546651 3.45026279,2.80546651 C3.77341499,2.80546651 4.03498844,3.07114093 4.03498844,3.39880605" id="Fill-87" fill="#FFFFFF"></path>
                            <path d="M7.48132764,3.39880605 C7.48132764,3.72702465 7.21975419,3.99269907 6.89660199,3.99269907 C6.57399473,3.99269907 6.31187634,3.72702465 6.31187634,3.39880605 C6.31187634,3.07114093 6.57399473,2.80546651 6.89660199,2.80546651 C7.21975419,2.80546651 7.48132764,3.07114093 7.48132764,3.39880605" id="Fill-88" fill="#FFFFFF"></path>
                            <path d="M10.9276668,3.39880605 C10.9276668,3.72702465 10.6660934,3.99269907 10.3434861,3.99269907 C10.0203339,3.99269907 9.75876047,3.72702465 9.75876047,3.39880605 C9.75876047,3.07114093 10.0203339,2.80546651 10.3434861,2.80546651 C10.6660934,2.80546651 10.9276668,3.07114093 10.9276668,3.39880605" id="Fill-89" fill="#FFFFFF"></path>
                        </g>
                    </g>
                    <path d="M171.51976,26.8434112 C171.51976,30.3431181 174.314236,33.1802995 177.759922,33.1802995 C181.205062,33.1802995 183.998448,30.3431181 183.998448,26.8434112 C183.998448,23.3437042 181.205062,20.5059693 177.759922,20.5059693 C174.314236,20.5059693 171.51976,23.3437042 171.51976,26.8434112" id="Fill-90" fill="#FF5562" mask="url(#mask-4)"></path>
                    <polygon id="Fill-91" fill="#FF5562" mask="url(#mask-4)" points="175.833542 32.1407377 172.799835 33.7369981 173.237971 30.3579516"></polygon>
                    <path d="M177.526903,30.2040265 C177.526903,30.2040265 172.92648,27.612594 174.778747,25.5978963 C176.158547,24.0984963 177.331813,25.5021428 177.536167,25.7722451 C177.739432,25.5021428 178.913243,24.0984963 180.291408,25.5978963 C182.145854,27.612594 177.543797,30.2040265 177.543797,30.2040265" id="Fill-92" fill="#FFFFFF" mask="url(#mask-4)"></path>
                    <path d="M148.743797,117.620098 C148.743797,117.620098 147.38089,114.475731 148.438628,112.953084 C149.05387,112.069163 150.43694,114.512814 150.461462,114.686056 C150.485985,114.860405 150.461462,116.121805 150.461462,116.121805 L148.743797,117.620098 Z" id="Fill-93" fill="#6040AB" mask="url(#mask-4)"></path>
                    <path d="M148.821506,116.122857 C148.821506,116.122857 148.573011,117.074857 148.743579,117.620043 C148.914147,118.164122 150.607835,119.599317 152.826304,118.288103 C153.480238,117.900661 153.148367,116.122857 153.148367,116.122857 L148.821506,116.122857 Z" id="Fill-94" fill="#6040AB" mask="url(#mask-4)"></path>
                    <polygon id="Fill-95" fill="#FEB7BF" mask="url(#mask-4)" points="154.139512 51.5271107 154.894261 48.9799572 158.561738 48.9799572 159.53283 51.5271107"></polygon>
                    <path d="M160.664462,44.3109507 C160.664462,46.9472158 158.942437,50.0113274 156.817697,50.0113274 C154.693503,50.0113274 152.970933,46.9472158 152.970933,44.3109507 C152.970933,41.6752391 154.693503,39.5382205 156.817697,39.5382205 C158.942437,39.5382205 160.664462,41.6752391 160.664462,44.3109507" id="Fill-96" fill="#FEB7BF" mask="url(#mask-4)"></path>
                    <path d="M147.92638,78.5045767 C148.001037,78.7237581 147.47898,87.1965581 147.47898,92.4563581 C147.47898,97.3464279 148.951966,113.680423 149.1585,115.946958 C149.175393,116.134037 149.276753,116.298977 149.430972,116.403033 C149.742135,116.612251 150.354108,116.933274 151.315391,117.051167 C152.631432,117.211679 153.148585,116.122967 153.148585,116.122967 C153.148585,116.122967 153.745299,100.709977 153.969816,97.3137721 C154.193244,93.917014 155.909275,78.8687721 155.909275,78.8687721 L147.92638,78.5045767 Z" id="Fill-97" fill="#D86600" mask="url(#mask-4)"></path>
                    <path d="M162.404143,117.620098 C162.404143,117.620098 163.767595,114.475731 162.709312,112.953084 C162.09407,112.069163 160.710455,114.512814 160.685388,114.686056 C160.661955,114.860405 160.685388,116.121805 160.685388,116.121805 L162.404143,117.620098 Z" id="Fill-98" fill="#6040AB" mask="url(#mask-4)"></path>
                    <path d="M162.326489,116.122857 C162.326489,116.122857 162.575528,117.074857 162.404416,117.620043 C162.233848,118.164122 160.539615,119.599317 158.322235,118.288103 C157.668301,117.900661 157.999628,116.122857 157.999628,116.122857 L162.326489,116.122857 Z" id="Fill-99" fill="#6040AB" mask="url(#mask-4)"></path>
                    <path d="M163.22156,78.5045767 C163.146903,78.7237581 163.669505,87.1965581 163.669505,92.4563581 C163.669505,97.3464279 162.195974,113.680423 161.989985,115.946958 C161.972002,116.134037 161.871732,116.298977 161.717513,116.403033 C161.405805,116.612251 160.793287,116.933274 159.832549,117.051167 C158.517053,117.211679 157.999355,116.122967 157.999355,116.122967 C157.999355,116.122967 157.402096,100.709977 157.178124,97.3137721 C156.954696,93.917014 155.239211,78.8687721 155.239211,78.8687721 L163.22156,78.5045767 Z" id="Fill-100" fill="#D86600" mask="url(#mask-4)"></path>
                    <path d="M152.736171,51.6965888 C152.736171,51.6965888 149.229996,52.7919423 148.438737,53.8872958 C147.648022,54.9832028 149.307379,60.1898679 149.091581,66.3806353 C148.882867,72.3832167 147.563556,78.8689935 147.563556,78.8689935 C147.563556,78.8689935 155.127388,82.3758958 163.524441,79.0876214 C163.993638,78.9044167 162.914647,69.7104214 162.699939,66.5699284 C162.483596,63.4283284 164.21652,56.3669237 163.785469,54.686533 C163.353873,53.0066958 161.292892,52.4792214 161.292892,52.4792214 L156.817806,50.0117702 L152.736171,51.6965888 Z" id="Fill-101" fill="#0280DA" mask="url(#mask-4)"></path>
                    <path d="M155.522636,79.1126391 C150.437212,78.2514112 149.527155,73.8041321 148.897744,69.475853 C148.468872,74.4168437 147.563719,78.8691042 147.563719,78.8691042 C147.563719,78.8691042 155.127006,82.3760065 163.524059,79.0877321 C163.56275,79.0738949 163.589452,78.9925321 163.60907,78.8657833 C160.917044,79.3866158 158.076247,79.3489786 155.522636,79.1126391" id="Fill-102" fill="#0280DA" mask="url(#mask-4)"></path>
                    <path d="M167.167614,50.4009833 L169.091269,49.1550809 C169.091269,49.1550809 172.269386,50.1906577 172.357667,51.629174 L169.460196,53.8929414 L167.167614,50.4009833 Z" id="Fill-103" fill="#FEB7BF" mask="url(#mask-4)"></path>
                    <path d="M161.445695,53.0627088 L168.183391,49.3438205 C168.183391,49.3438205 169.820405,50.9544716 170.418754,53.365467 C170.475973,53.5984856 162.853287,59.3043972 162.853287,59.3043972 L161.445695,53.0627088 Z" id="Fill-104" fill="#0280DA" mask="url(#mask-4)"></path>
                    <path d="M168.983914,48.8667135 C168.983914,48.8667135 168.023722,42.4827786 167.84716,41.033746 C167.671688,39.58416 166.878793,37.1194763 166.878793,37.1194763 L168.541419,36.5742902 C168.541419,36.5742902 170.140832,40.1298995 170.796945,42.1036391 C171.453604,44.0779321 172.777819,48.8700344 172.357667,51.629174 C172.357667,51.629174 168.975195,49.817053 168.983914,48.8667135" id="Fill-105" fill="#FEB7BF" mask="url(#mask-4)"></path>
                    <path d="M166.878684,37.1196977 C166.878684,37.1196977 166.614386,36.7023674 166.156087,36.2086558 C165.697244,35.7143907 164.958299,34.6090744 165.3948,34.2985674 C165.830755,33.987507 166.204588,35.1116419 166.390959,35.1133023 C166.577875,35.1149628 166.632914,34.5576 166.311942,33.6022791 C165.990969,32.6458512 165.960997,32.0287116 166.480874,32.0729907 C167.000207,32.1167163 167.917894,33.0670558 168.226332,34.1125953 C168.534771,35.1581349 168.54131,36.5739581 168.54131,36.5739581 L166.878684,37.1196977 Z" id="Fill-106" fill="#FEB7BF" mask="url(#mask-4)"></path>
                    <path d="M146.698129,47.5418837 L145.148306,45.6876977 C145.148306,45.6876977 143.062803,47.0730791 142.505869,48.3986837 L143.38868,50.0541674 L146.698129,47.5418837 Z" id="Fill-107" fill="#FEB7BF" mask="url(#mask-4)"></path>
                    <path d="M151.414789,52.2017023 L146.329365,46.7094372 C146.329365,46.7094372 143.978474,47.2175395 142.411213,49.1259674 C142.259173,49.3108326 148.572902,58.4079674 148.572902,58.4079674 L151.414789,52.2017023 Z" id="Fill-108" fill="#0280DA" mask="url(#mask-4)"></path>
                    <path d="M145.14847,45.6876423 C145.14847,45.6876423 144.631862,39.251126 144.474373,37.799326 C144.316339,36.3480795 144.527233,33.7643958 144.527233,33.7643958 L142.78559,33.6232563 C142.78559,33.6232563 142.037381,37.4578237 141.84665,39.5322981 C141.657009,41.6067726 141.470638,45.8127307 142.505488,48.3986284 C142.505488,48.3986284 145.371897,46.6108609 145.14847,45.6876423" id="Fill-109" fill="#FEB7BF" mask="url(#mask-4)"></path>
                    <path d="M144.527396,33.7641744 C144.527396,33.7641744 144.68979,33.2959233 145.023296,32.7081186 C145.356802,32.1197605 145.82491,30.8710907 145.3301,30.6712814 C144.833655,30.4709186 144.726846,31.6515093 144.545379,31.6980023 C144.363913,31.7433884 144.184626,31.2131465 144.278357,30.2080116 C144.373722,29.2034302 144.263098,28.5951465 143.767198,28.7595326 C143.272389,28.9250256 142.595022,30.0646581 142.532354,31.1539233 C142.47023,32.2431884 142.785753,33.6230349 142.785753,33.6230349 L144.527396,33.7641744 Z" id="Fill-110" fill="#FEB7BF" mask="url(#mask-4)"></path>
                    <path d="M160.205782,50.2536447 C160.065731,48.6352447 161.428638,46.1866121 161.148536,43.9184167 C160.736013,40.0351423 157.749171,39.4063795 156.817861,39.3039842 L156.817861,39.2823981 C156.817861,39.2823981 156.762276,39.2840586 156.675085,39.290147 C156.588984,39.2840586 156.5334,39.2823981 156.5334,39.2823981 L156.5334,39.3039842 C155.601544,39.4063795 152.614702,40.0351423 152.202179,43.9184167 C151.922623,46.1866121 152.905703,47.8404353 152.905703,49.4649237 C152.905703,52.0087563 150.02349,53.6005888 150.292148,56.4875842 C150.41912,57.8574679 153.436479,59.8013191 155.009734,58.2388214 C156.157388,57.0997423 157.417845,56.8872028 158.982926,57.2453098 C160.556181,57.6050772 162.303274,57.1573051 162.44278,55.7896353 C162.582831,54.4214121 160.346378,51.8714912 160.205782,50.2536447" id="Fill-111" fill="#6040AB" mask="url(#mask-4)"></path>
                    <path d="M154.406644,56.7958219 C152.990878,57.0631567 151.727151,55.8543381 152.016517,54.4224637 C152.67699,51.1590963 155.177741,48.0324405 152.193079,45.4825195 C152.346753,46.9940963 152.905866,48.2383381 152.905866,49.4648684 C152.905866,52.0092544 150.023654,53.6005335 150.291767,56.4875288 C150.419284,57.8574126 153.436642,59.8012637 155.009353,58.238766 C155.998972,57.2568777 157.072513,56.9662963 158.352589,57.1323428 C157.164064,56.6696265 155.841483,56.5246126 154.406644,56.7958219" id="Fill-112" fill="#6040AB" mask="url(#mask-4)"></path>
                    <path d="M114.563449,114.988316 C114.563449,117.20393 109.495464,119 103.241678,119 L103.218791,119 C96.9775392,118.996679 91.9220873,117.201716 91.9220873,114.988316 C91.9220873,114.926326 91.925357,114.867656 91.934621,114.805665 C91.9891155,114.356786 92.2545036,113.923405 92.6964537,113.527107 C92.97928,113.266414 93.3351289,113.025647 93.7536464,112.795395 C93.8637252,112.739493 93.9754389,112.68193 94.0936919,112.625474 C94.5067599,112.422898 94.9748674,112.234712 95.4871154,112.065898 C97.5055906,111.391749 100.226499,110.978293 103.218791,110.974972 L103.241678,110.974972 C106.243234,110.974972 108.973407,111.389535 110.997876,112.065898 C111.510124,112.234712 111.978232,112.422898 112.391845,112.622707 C112.510098,112.68193 112.622356,112.739493 112.73189,112.798716 C113.151497,113.025647 113.506801,113.269735 113.789083,113.527107 C114.231033,113.923405 114.497511,114.356786 114.550915,114.805665 C114.560724,114.867656 114.563449,114.926326 114.563449,114.988316" id="Fill-113" fill="#EFA30A" mask="url(#mask-4)"></path>
                    <polygon id="Fill-114" fill="#EFA30A" mask="url(#mask-4)" points="91.9343485 115.205837 114.550643 115.205837 114.550643 112.784326 91.9343485 112.784326"></polygon>
                    <path d="M114.563449,112.784049 C114.563449,112.84604 114.560724,112.905263 114.550915,112.966147 C114.497511,113.415579 114.231033,113.848407 113.789083,114.245812 C113.170571,114.804281 112.209833,115.303528 110.997876,115.706467 C108.973407,116.383937 106.243234,116.79684 103.241678,116.79684 L103.218791,116.79684 C100.226499,116.793519 97.5055906,116.380063 95.4871154,115.706467 C94.2767933,115.303528 93.3155109,114.804281 92.6964537,114.245812 C92.2545036,113.848407 91.9891155,113.415579 91.934621,112.966147 C91.925357,112.905263 91.9220873,112.84604 91.9220873,112.784049 C91.9220873,110.571756 96.9775392,108.775133 103.218791,108.771812 L103.241678,108.771812 C109.495464,108.771812 114.563449,110.568435 114.563449,112.784049" id="Fill-115" fill="#FEBC2A" mask="url(#mask-4)"></path>
                    <path d="M112.965889,112.784049 C112.965889,114.639895 108.612871,116.144277 103.242441,116.144277 C97.8731013,116.144277 93.5184483,114.639895 93.5184483,112.784049 C93.5184483,110.927095 97.8731013,109.422714 103.242441,109.422714 C108.612871,109.422714 112.965889,110.927095 112.965889,112.784049" id="Fill-116" fill="#FDFDFD" mask="url(#mask-4)"></path>
                    <path d="M112.534293,112.784049 C112.534293,114.557426 108.374185,115.995388 103.242441,115.995388 C98.1106971,115.995388 93.9500445,114.557426 93.9500445,112.784049 C93.9500445,111.009565 98.1106971,109.571602 103.242441,109.571602 C108.374185,109.571602 112.534293,111.009565 112.534293,112.784049" id="Fill-117" fill="#FEBC2A" mask="url(#mask-4)"></path>
                    <path d="M106.135444,114.075891 C105.659162,114.255221 105.005773,114.36924 104.177457,114.417393 C104.128957,114.424588 104.104435,114.434551 104.104435,114.449495 L104.119693,114.785463 C104.119693,114.802067 104.102255,114.816458 104.068468,114.828635 C104.034682,114.841365 103.992721,114.847453 103.944221,114.847453 L102.483224,114.847453 C102.433634,114.847453 102.391674,114.841365 102.357887,114.828635 C102.3241,114.816458 102.308297,114.802067 102.308297,114.785463 L102.322466,114.443407 C102.322466,114.429016 102.297398,114.419053 102.248353,114.411858 C101.421127,114.353188 100.770463,114.233081 100.297451,114.049877 C99.8249841,113.866672 99.5884781,113.636974 99.5884781,113.360784 L99.5884781,113.247319 C99.5884781,113.229607 99.6064613,113.214663 99.6407928,113.20304 C99.6745794,113.190309 99.7154503,113.185328 99.7650402,113.185328 L101.3432,113.185328 C101.392245,113.185328 101.433116,113.190309 101.467447,113.20304 C101.501779,113.214663 101.518672,113.229607 101.518672,113.247319 L101.518672,113.325914 C101.518672,113.463733 101.688695,113.579412 102.02983,113.674612 C102.370421,113.769258 102.837438,113.816305 103.431973,113.816305 C103.928963,113.816305 104.2968,113.778667 104.535486,113.700626 C104.774717,113.622584 104.89406,113.527384 104.89406,113.413365 C104.89406,113.329235 104.820492,113.258942 104.674992,113.20304 C104.528402,113.145477 104.325682,113.09677 104.068468,113.051937 C103.809075,113.009872 103.403091,112.950095 102.847792,112.874267 C102.214567,112.795672 101.683246,112.713756 101.255464,112.63184 C100.826048,112.547709 100.463659,112.435351 100.166664,112.291444 C99.8696696,112.148091 99.7208997,111.971528 99.7208997,111.760095 C99.7208997,111.493867 99.9470517,111.274686 100.400991,111.100891 C100.853295,110.925988 101.465268,110.812523 102.234185,110.761602 C102.283775,110.754407 102.308297,110.743337 102.308297,110.730053 L102.278325,110.352574 C102.278325,110.334309 102.295763,110.320472 102.329005,110.307742 C102.363336,110.295565 102.404207,110.29003 102.452707,110.29003 L103.914794,110.29003 C103.963839,110.29003 104.00471,110.295565 104.039041,110.307742 C104.073373,110.320472 104.089721,110.334309 104.089721,110.352574 L104.075553,110.740016 C104.075553,110.754407 104.100075,110.76437 104.148575,110.771012 C104.956183,110.830235 105.599763,110.95477 106.077679,111.14683 C106.555051,111.339444 106.793737,111.571909 106.793737,111.849207 L106.793737,111.926142 C106.793737,111.943853 106.776299,111.958798 106.741422,111.970421 C106.70818,111.982044 106.666765,111.988686 106.61772,111.988686 L105.025391,111.988686 C104.976891,111.988686 104.935475,111.982044 104.900599,111.970421 C104.867357,111.958798 104.850464,111.943853 104.850464,111.926142 L104.850464,111.885184 C104.850464,111.74017 104.689705,111.616742 104.367643,111.515453 C104.046126,111.412505 103.607445,111.363244 103.052692,111.363244 C102.614011,111.363244 102.272876,111.3959 102.02983,111.465086 C101.78624,111.533719 101.664717,111.630026 101.664717,111.750686 C101.664717,111.83703 101.735015,111.909537 101.876156,111.9671 C102.017297,112.026323 102.22928,112.080565 102.512106,112.128719 C102.793843,112.176319 103.232523,112.239416 103.827058,112.314691 C104.478812,112.401035 104.994874,112.478523 105.375791,112.547709 C105.756162,112.616342 106.097297,112.720951 106.398652,112.85877 C106.700551,112.997142 106.850956,113.174812 106.850956,113.392333 C106.850956,113.668523 106.612815,113.89656 106.135444,114.075891" id="Fill-118" fill="#EFA30A" mask="url(#mask-4)"></path>
                    <g id="Group-122" mask="url(#mask-4)" fill="#EFA30A">
                        <g transform="translate(99.179933, 110.144186)">
                            <path d="M4.08392448,1.22265581 C4.5378634,1.23483256 4.90897073,1.28187907 5.18743747,1.37154419 C5.50949978,1.47227907 5.67025846,1.59626047 5.67025846,1.74127442 L5.67025846,1.78223256 C5.67025846,1.79994419 5.68715175,1.81433488 5.72093832,1.82651163 C5.75526983,1.8375814 5.79723057,1.84477674 5.84518571,1.84477674 L6.17106263,1.84477674 C6.1231075,1.84477674 6.08223665,1.8375814 6.04736019,1.82651163 C6.01302867,1.81433488 5.99613538,1.79994419 5.99613538,1.78223256 L5.99613538,1.74127442 C5.99613538,1.59626047 5.83592165,1.47227907 5.51440428,1.37154419 C5.19234197,1.26859535 4.7536615,1.2187814 4.19890781,1.2187814 C4.15585718,1.2187814 4.12479533,1.22154884 4.08392448,1.22265581" id="Fill-119"></path>
                            <path d="M2.07547634,2.48748744 C2.50325792,2.56940372 3.03457899,2.65132 3.66780471,2.72991535 C4.22310335,2.80574326 4.62963209,2.86607349 4.88848081,2.9081386 C5.14569471,2.95297116 5.34841413,3.00167814 5.49500425,3.05868744 C5.64050448,3.11514326 5.71407201,3.18543628 5.71407201,3.26901302 C5.71407201,3.38303163 5.59472913,3.47823163 5.35604335,3.55682698 C5.14514976,3.62435256 4.82799195,3.66143628 4.41655871,3.66863163 C4.47105318,3.67029209 4.52118809,3.67250605 4.57949718,3.67250605 C5.07594179,3.67250605 5.44377945,3.63431535 5.68192028,3.55682698 C5.921151,3.47823163 6.04049388,3.38303163 6.04049388,3.26901302 C6.04049388,3.18543628 5.96747129,3.11514326 5.82088117,3.05868744 C5.674836,3.00167814 5.47211657,2.95297116 5.21490268,2.9081386 C4.95550901,2.86607349 4.54952522,2.80574326 3.99422658,2.72991535 C3.36045591,2.65132 2.83022473,2.56940372 2.4018982,2.48748744 C1.97248179,2.4039107 1.61009357,2.29155256 1.31309872,2.14764558 C1.01555892,2.0037386 0.867333964,1.8277293 0.867333964,1.61629674 C0.867333964,1.34951535 1.09348601,1.13088744 1.54687999,0.956538605 C1.99972902,0.781636279 2.61115696,0.668171163 3.38061886,0.617250233 C3.42966388,0.610054884 3.45364145,0.599538605 3.45364145,0.585701395 L3.42421444,0.208775814 C3.42421444,0.190510698 3.44219761,0.17612 3.47543924,0.163943256 C3.50977075,0.151213023 3.55118655,0.146231628 3.60023157,0.146231628 L3.27271981,0.146231628 C3.22421974,0.146231628 3.18334889,0.151213023 3.14901737,0.163943256 C3.11577574,0.17612 3.09833751,0.190510698 3.09833751,0.208775814 L3.12830947,0.585701395 C3.12830947,0.599538605 3.10378696,0.610054884 3.054197,0.617250233 C2.28528004,0.668171163 1.67330716,0.781636279 1.22100307,0.956538605 C0.767064142,1.13088744 0.541457041,1.34951535 0.541457041,1.61629674 C0.541457041,1.8277293 0.689681996,2.0037386 0.986676851,2.14764558 C1.28367171,2.29155256 1.64605992,2.4039107 2.07547634,2.48748744" id="Fill-120"></path>
                            <path d="M3.45380493,4.64144279 L3.46851844,4.29938698 C3.46851844,4.28444279 3.44345099,4.27503349 3.39549585,4.26783814 C2.56717993,4.20916837 1.91706092,4.0890614 1.44404893,3.90585674 C0.971581883,3.72265209 0.736165778,3.49295442 0.736165778,3.21676372 L0.736165778,3.1032986 C0.736165778,3.08503349 0.753059064,3.07064279 0.787390579,3.05901953 C0.820632205,3.0462893 0.862592946,3.04075442 0.911637968,3.04075442 L0.584671155,3.04075442 C0.535626133,3.04075442 0.494210337,3.0462893 0.460968711,3.05901953 C0.426092251,3.07064279 0.408654021,3.08503349 0.408654021,3.1032986 L0.408654021,3.21676372 C0.408654021,3.49295442 0.645160015,3.72265209 1.11762706,3.90585674 C1.59063905,4.0890614 2.24075806,4.20916837 3.06852904,4.26783814 C3.11757406,4.27503349 3.14264152,4.28444279 3.14264152,4.29938698 L3.12792801,4.64144279 C3.12792801,4.65804744 3.14427635,4.67243814 3.17806292,4.68461488 C3.21184949,4.69734512 3.25381023,4.70288 3.3034002,4.70288 L3.62873218,4.70288 C3.57968716,4.70288 3.53881631,4.69734512 3.50448479,4.68461488 C3.47015328,4.67243814 3.45380493,4.65804744 3.45380493,4.64144279" id="Fill-121"></path>
                        </g>
                    </g>
                    <path d="M114.586337,112.113276 C114.586337,114.32889 109.517806,116.125513 103.264021,116.125513 L103.241678,116.125513 C96.9998819,116.122193 91.9433401,114.326676 91.9433401,112.113276 C91.9433401,112.050732 91.9476997,111.993169 91.9569638,111.930625 C92.0109133,111.481746 92.2773912,111.048365 92.7198863,110.651513 C93.0016227,110.391927 93.3569267,110.15116 93.7765341,109.919802 C93.885523,109.865007 93.9977816,109.806337 94.1165795,109.750988 C94.5296476,109.549518 94.9983001,109.359672 95.5100031,109.191965 C97.5290232,108.517816 100.248297,108.103807 103.241678,108.101593 L103.264021,108.101593 C106.265576,108.101593 108.995204,108.515048 111.021309,109.191965 C111.533012,109.359672 112.001119,109.549518 112.414187,109.747667 C112.53244,109.806337 112.645244,109.865007 112.753688,109.923123 C113.173295,110.15116 113.529689,110.395248 113.810881,110.651513 C114.253376,111.048365 114.519309,111.481746 114.573803,111.930625 C114.583612,111.993169 114.586337,112.050732 114.586337,112.113276" id="Fill-123" fill="#EFA30A" mask="url(#mask-4)"></path>
                    <polygon id="Fill-124" fill="#EFA30A" mask="url(#mask-4)" points="91.9566913 112.330465 114.573531 112.330465 114.573531 109.908953 91.9566913 109.908953"></polygon>
                    <path d="M114.586337,109.909064 C114.586337,109.971055 114.583612,110.030832 114.573803,110.091715 C114.519309,110.540594 114.253376,110.973976 113.810881,111.370273 C113.192913,111.930404 112.231631,112.428543 111.021309,112.831483 C108.995204,113.508953 106.265576,113.922408 103.264021,113.922408 L103.241678,113.922408 C100.248297,113.919087 97.5290232,113.505632 95.5100031,112.831483 C94.2985911,112.428543 93.3378536,111.930404 92.7198863,111.370273 C92.2773912,110.973976 92.0109133,110.540594 91.9569638,110.091715 C91.9476997,110.030832 91.9433401,109.971055 91.9433401,109.909064 C91.9433401,107.697325 96.9998819,105.900701 103.241678,105.89738 L103.264021,105.89738 C109.517806,105.89738 114.586337,107.69345 114.586337,109.909064" id="Fill-125" fill="#FEBC2A" mask="url(#mask-4)"></path>
                    <path d="M112.987687,109.909064 C112.987687,111.765464 108.634669,113.269292 103.264784,113.269292 C97.895444,113.269292 93.5418809,111.765464 93.5418809,109.909064 C93.5418809,108.052664 97.895444,106.547729 103.264784,106.547729 C108.634669,106.547729 112.987687,108.052664 112.987687,109.909064" id="Fill-126" fill="#FDFDFD" mask="url(#mask-4)"></path>
                    <path d="M112.557181,109.909064 C112.557181,111.683548 108.396528,113.120404 103.264784,113.120404 C98.1330399,113.120404 93.9729321,111.683548 93.9729321,109.909064 C93.9729321,108.13458 98.1330399,106.696618 103.264784,106.696618 C108.396528,106.696618 112.557181,108.13458 112.557181,109.909064" id="Fill-127" fill="#FEBC2A" mask="url(#mask-4)"></path>
                    <path d="M106.158331,111.20146 C105.68096,111.380236 105.029206,111.493701 104.200345,111.542962 C104.1513,111.550157 104.126777,111.559567 104.126777,111.574511 L104.142036,111.910478 C104.142036,111.927636 104.124598,111.942027 104.090266,111.954204 C104.057025,111.96638 104.013974,111.973022 103.967109,111.973022 L102.505022,111.973022 C102.456522,111.973022 102.415106,111.96638 102.380775,111.954204 C102.346988,111.942027 102.32955,111.927636 102.32955,111.910478 L102.344808,111.568422 C102.344808,111.555692 102.320286,111.544069 102.271241,111.537427 C101.44347,111.478757 100.792806,111.358097 100.319794,111.175446 C99.8484168,110.991687 99.6119108,110.763097 99.6119108,110.486906 L99.6119108,110.372334 C99.6119108,110.355176 99.628804,110.340232 99.6631356,110.328055 C99.6974671,110.315878 99.7388829,110.310343 99.7879279,110.310343 L101.365543,110.310343 C101.413498,110.310343 101.456004,110.315878 101.490335,110.328055 C101.523032,110.340232 101.541015,110.355176 101.541015,110.372334 L101.541015,110.450376 C101.541015,110.588748 101.711038,110.704427 102.052173,110.80018 C102.392764,110.894827 102.860871,110.942427 103.454861,110.942427 C103.95185,110.942427 104.320233,110.903683 104.557829,110.825641 C104.797059,110.748153 104.915857,110.651846 104.915857,110.53838 C104.915857,110.454804 104.842835,110.384511 104.696245,110.328055 C104.551834,110.271046 104.34857,110.221785 104.090266,110.178613 C103.831962,110.134887 103.424889,110.075111 102.87068,109.999283 C102.236909,109.920134 101.706133,109.839325 101.277262,109.756855 C100.84839,109.673278 100.486547,109.560367 100.189007,109.41646 C99.8925573,109.27366 99.7437874,109.097097 99.7437874,108.886218 C99.7437874,108.620543 99.9704844,108.399701 100.423333,108.22646 C100.876182,108.051557 101.487065,107.938092 102.256527,107.886618 C102.306117,107.879422 102.32955,107.868906 102.32955,107.855069 L102.300668,107.477036 C102.300668,107.459878 102.317561,107.445487 102.351348,107.433311 C102.386224,107.421134 102.42655,107.415046 102.475595,107.415046 L103.937137,107.415046 C103.985637,107.415046 104.027053,107.421134 104.061384,107.433311 C104.095171,107.445487 104.112609,107.459878 104.112609,107.477036 L104.09844,107.865585 C104.09844,107.879422 104.122418,107.889939 104.171463,107.896027 C104.979616,107.955804 105.622651,108.080892 106.100022,108.271846 C106.577394,108.465013 106.815535,108.697478 106.815535,108.974776 L106.815535,109.052264 C106.815535,109.069422 106.799186,109.083813 106.76431,109.09599 C106.730523,109.10872 106.689652,109.114255 106.640062,109.114255 L105.047734,109.114255 C104.998689,109.114255 104.957273,109.10872 104.922942,109.09599 C104.889155,109.083813 104.872262,109.069422 104.872262,109.052264 L104.872262,109.010199 C104.872262,108.865185 104.712048,108.742311 104.391076,108.640469 C104.068468,108.538073 103.629788,108.487706 103.075034,108.487706 C102.636354,108.487706 102.295763,108.520915 102.052173,108.590655 C101.808583,108.659287 101.686515,108.755594 101.686515,108.875701 C101.686515,108.962046 101.757358,109.035106 101.899044,109.092115 C102.039639,109.151892 102.251623,109.205027 102.534994,109.253734 C102.817275,109.301887 103.255956,109.364432 103.848856,109.439706 C104.502244,109.527157 105.018307,109.603539 105.398678,109.673278 C105.77905,109.741911 106.11964,109.84652 106.42045,109.984892 C106.722894,110.121604 106.874389,110.299827 106.874389,110.517901 C106.874389,110.794092 106.636248,111.022129 106.158331,111.20146" id="Fill-128" fill="#EFA30A" mask="url(#mask-4)"></path>
                    <g id="Group-132" mask="url(#mask-4)" fill="#EFA30A">
                        <g transform="translate(99.179933, 107.376744)">
                            <path d="M4.10572226,1.11561116 C4.55966119,1.12778791 4.93240335,1.1759414 5.21087009,1.26394605 C5.53184251,1.36523442 5.69205625,1.48866233 5.69205625,1.63367628 L5.69205625,1.6757414 C5.69205625,1.69289953 5.70894953,1.70673674 5.74328105,1.71946698 C5.77706762,1.73164372 5.81902836,1.7371786 5.86752844,1.7371786 L6.19395031,1.7371786 C6.14545023,1.7371786 6.10403443,1.73164372 6.06970292,1.71946698 C6.03591635,1.70673674 6.01847812,1.69289953 6.01847812,1.6757414 L6.01847812,1.63367628 C6.01847812,1.48866233 5.85771943,1.36523442 5.53729196,1.26394605 C5.2146847,1.16099721 4.77654917,1.11062977 4.22179548,1.11062977 C4.17874485,1.11062977 4.147683,1.11450419 4.10572226,1.11561116" id="Fill-129"></path>
                            <path d="M2.09727412,2.3798893 C2.52614559,2.46235907 3.05692172,2.54316837 3.69069239,2.62231721 C4.24490114,2.69814512 4.65197482,2.75847535 4.9102786,2.80220093 C5.16858238,2.84537302 5.37184675,2.89463349 5.51625709,2.9510893 C5.66284721,3.0080986 5.7358698,3.07839163 5.7358698,3.16141488 C5.7358698,3.27488 5.61707186,3.37118698 5.37838609,3.44922884 C5.16803744,3.51730791 4.85142457,3.55328465 4.43890145,3.56158698 C4.49394086,3.56269395 4.54407577,3.56601488 4.60075002,3.56601488 C5.09882946,3.56601488 5.46612218,3.52671721 5.70371807,3.44922884 C5.94349373,3.37118698 6.06174672,3.27488 6.06174672,3.16141488 C6.06174672,3.07839163 5.98926908,3.0080986 5.84376885,2.9510893 C5.69717873,2.89463349 5.49500425,2.84537302 5.23779036,2.80220093 C4.97894163,2.75847535 4.57186795,2.69814512 4.01656931,2.62231721 C3.38279864,2.54316837 2.85256746,2.46235907 2.42424094,2.3798893 C1.99536947,2.29686605 1.63189136,2.18395442 1.3359864,2.04004744 C1.0384466,1.89669395 0.889676697,1.72068465 0.889676697,1.50980558 C0.889676697,1.24357767 1.11582874,1.02273581 1.56922272,0.849493953 C2.0226167,0.674591628 2.63404464,0.561126512 3.4029616,0.509652093 C3.45146167,0.502456744 3.47652913,0.491940465 3.47652913,0.478103256 L3.44655717,0.100624186 C3.44655717,0.0834660465 3.4639954,0.0685218605 3.49778197,0.0568986047 C3.53211349,0.0441683721 3.57243939,0.0386334884 3.62202936,0.0386334884 L3.29560749,0.0386334884 C3.24656247,0.0386334884 3.20623656,0.0441683721 3.1713601,0.0568986047 C3.13757353,0.0685218605 3.12068025,0.0834660465 3.12068025,0.100624186 L3.14956232,0.478103256 C3.14956232,0.491940465 3.12612969,0.502456744 3.07653973,0.509652093 C2.30707783,0.561126512 1.69619483,0.674591628 1.2433458,0.849493953 C0.790496764,1.02273581 0.563799774,1.24357767 0.563799774,1.50980558 C0.563799774,1.72068465 0.712569673,1.89669395 1.00901958,2.04004744 C1.30655938,2.18395442 1.66840266,2.29686605 2.09727412,2.3798893" id="Fill-130"></path>
                            <path d="M3.47669261,4.53384465 L3.49031623,4.19178884 C3.49031623,4.17850512 3.46579372,4.16743535 3.41783859,4.16079349 C2.58952266,4.10212372 1.94049354,3.98146326 1.4669366,3.79881209 C0.99446956,3.61505395 0.75850851,3.38646326 0.75850851,3.11027256 L0.75850851,2.99570047 C0.75850851,2.97798884 0.775401796,2.96359814 0.809188366,2.9514214 C0.842974937,2.93924465 0.884935678,2.93315628 0.9339807,2.93315628 L0.607558832,2.93315628 C0.559058755,2.93315628 0.517098014,2.93924465 0.483311443,2.9514214 C0.448434983,2.96359814 0.432086643,2.97798884 0.432086643,2.99570047 L0.432086643,3.11027256 C0.432086643,3.38646326 0.668592637,3.61505395 1.13996979,3.79881209 C1.61298178,3.98146326 2.26310079,4.10212372 3.09141672,4.16079349 C3.14046174,4.16743535 3.16498425,4.17850512 3.16498425,4.19178884 L3.14918085,4.53384465 C3.14918085,4.5504493 3.16716403,4.56539349 3.2009506,4.57757023 C3.23528211,4.58974698 3.27669791,4.59583535 3.32519799,4.59583535 L3.65161986,4.59583535 C3.60202989,4.59583535 3.56115904,4.58974698 3.52737247,4.57757023 C3.49249601,4.56539349 3.47669261,4.5504493 3.47669261,4.53384465" id="Fill-131"></path>
                        </g>
                    </g>
                    <polygon id="Fill-133" fill="#FF5562" mask="url(#mask-4)" points="112.097356 118.846518 136.29617 118.846518 134.371426 94.2677595 114.029185 94.2677595"></polygon>
                    <path d="M129.445671,98.3263791 C129.445671,98.9573558 129.94811,99.4682256 130.568257,99.4682256 C131.188404,99.4682256 131.691388,98.9573558 131.691388,98.3263791 C131.691388,97.6970628 131.188404,97.1867465 130.568257,97.1867465 C129.94811,97.1867465 129.445671,97.6970628 129.445671,98.3263791" id="Fill-134" fill="#EA3248" mask="url(#mask-4)"></path>
                    <path d="M116.698542,98.3263791 C116.698542,98.9573558 117.201526,99.4682256 117.821673,99.4682256 C118.441276,99.4682256 118.94317,98.9573558 118.94317,98.3263791 C118.94317,97.6970628 118.441276,97.1867465 117.821673,97.1867465 C117.201526,97.1867465 116.698542,97.6970628 116.698542,98.3263791" id="Fill-135" fill="#EA3248" mask="url(#mask-4)"></path>
                    <path d="M117.7735,98.5225353 C117.932079,98.5225353 118.061231,98.3913586 118.061231,98.228633 L118.061231,92.9992749 C118.061231,89.73314 120.814292,87.0752888 124.198943,87.0752888 C127.582505,87.0752888 130.335565,89.73314 130.335565,92.9992749 L130.335565,98.228633 C130.335565,98.3913586 130.465262,98.5225353 130.625476,98.5225353 C130.784055,98.5225353 130.913207,98.3913586 130.913207,98.228633 L130.913207,92.9992749 C130.913207,89.4099028 127.901842,86.4896981 124.198943,86.4896981 C120.494954,86.4896981 117.484135,89.4099028 117.484135,92.9992749 L117.484135,98.228633 C117.484135,98.3913586 117.613832,98.5225353 117.7735,98.5225353" id="Fill-136" fill="#FF5562" mask="url(#mask-4)"></path>
                    <polygon id="Fill-137" fill="#EA3248" mask="url(#mask-4)" points="112.100572 118.848676 110.63685 117.496504 114.029131 94.2721321"></polygon>
                    <polygon id="Fill-138" fill="#FF5562" mask="url(#mask-4)" points="124.196818 94.2675935 124.196818 118.846352 136.296225 118.846352 134.37148 94.2675935"></polygon>
                    <polygon id="Fill-139" fill="#6040AB" mask="url(#mask-4)" points="123.599722 118.82543 144.958829 118.82543 143.260236 97.131453 125.305399 97.131453"></polygon>
                    <path d="M138.91354,100.714349 C138.91354,101.270052 139.35658,101.721145 139.904249,101.721145 C140.451374,101.721145 140.894958,101.270052 140.894958,100.714349 C140.894958,100.158647 140.451374,99.7086609 139.904249,99.7086609 C139.35658,99.7086609 138.91354,100.158647 138.91354,100.714349" id="Fill-140" fill="#422A8C" mask="url(#mask-4)"></path>
                    <path d="M127.661794,100.714349 C127.661794,101.270052 128.104289,101.721145 128.651959,101.721145 C129.199083,101.721145 129.643213,101.270052 129.643213,100.714349 C129.643213,100.158647 129.199083,99.7086609 128.651959,99.7086609 C128.104289,99.7086609 127.661794,100.158647 127.661794,100.714349" id="Fill-141" fill="#422A8C" mask="url(#mask-4)"></path>
                    <path d="M139.952858,100.49384 C139.812262,100.49384 139.698369,100.610626 139.698369,100.753426 L139.698369,105.369519 C139.698369,108.253193 137.268461,110.597216 134.282164,110.597216 C131.294777,110.597216 128.864869,108.253193 128.864869,105.369519 L128.864869,100.753426 C128.864869,100.610626 128.750975,100.49384 128.609834,100.49384 C128.469784,100.49384 128.35589,100.610626 128.35589,100.753426 L128.35589,105.369519 C128.35589,108.537133 131.013585,111.114728 134.282164,111.114728 C137.550197,111.114728 140.208437,108.537133 140.208437,105.369519 L140.208437,100.753426 C140.208437,100.610626 140.094544,100.49384 139.952858,100.49384" id="Fill-142" fill="#FFFFFF" mask="url(#mask-4)"></path>
                    <polygon id="Fill-143" fill="#422A8C" mask="url(#mask-4)" points="123.602392 118.826481 122.311963 117.633714 125.304799 97.1358256"></polygon>
                    <polygon id="Fill-144" fill="#6040AB" mask="url(#mask-4)" points="134.279929 97.2329074 134.279929 118.925777 144.95921 118.925777 143.260073 97.2329074"></polygon>
                </g>
            </g>
        </g>
    </g>
</svg>