<?xml version="1.0" encoding="UTF-8"?>
<svg width="160px" height="119px" viewBox="0 0 160 119" version="1.1" xmlns="http://www.w3.org/2000/svg" xmlns:xlink="http://www.w3.org/1999/xlink">
    <!-- Generator: Sketch 59.1 (86144) - https://sketch.com -->
    <title>Maintenance</title>
    <desc>Created with Sketch.</desc>
    <defs>
        <path d="M1.5,1.55594118 C-0.227777778,3.33052941 -0.118888889,6.10464706 1.74333333,7.75058824 L1.74333333,7.75058824 C3.60611111,9.39758824 6.51666667,9.29276471 8.24388889,7.51817647 L8.24388889,7.51817647 C9.97222222,5.74305882 9.86333333,2.97 8.00055556,1.32352941 L8.00055556,1.32352941 C7.115,0.540529412 5.99277778,0.153529412 4.87333333,0.153529412 L4.87333333,0.153529412 C3.63777778,0.153529412 2.40666667,0.624705882 1.5,1.55594118 L1.5,1.55594118 Z" id="path-1"></path>
        <path d="M1.5,1.55594118 C-0.227777778,3.33052941 -0.118888889,6.10464706 1.74333333,7.75058824 L1.74333333,7.75058824 C3.60611111,9.39758824 6.51666667,9.29276471 8.24388889,7.51817647 L8.24388889,7.51817647 C9.97222222,5.74305882 9.86333333,2.97 8.00055556,1.32352941 L8.00055556,1.32352941 C7.115,0.540529412 5.99277778,0.153529412 4.87333333,0.153529412 L4.87333333,0.153529412 C3.63777778,0.153529412 2.40666667,0.624705882 1.5,1.55594118 L1.5,1.55594118 Z" id="path-3"></path>
        <path d="M0.207058824,4.83222222 C0.16,7.37222222 2.30235294,9.46722222 4.99176471,9.51222222 L4.99176471,9.51222222 C7.68117647,9.55666667 9.9,7.53277778 9.94705882,4.99277778 L9.94705882,4.99277778 C9.99411765,2.45277778 7.85235294,0.357777778 5.16235294,0.313333333 L5.16235294,0.313333333 C5.13352941,0.312777778 5.10411765,0.312777778 5.07529412,0.312777778 L5.07529412,0.312777778 C2.42529412,0.312777778 0.253529412,2.31944444 0.207058824,4.83222222 L0.207058824,4.83222222 Z" id="path-5"></path>
        <path d="M0.207058824,4.83222222 C0.16,7.37222222 2.30235294,9.46722222 4.99176471,9.51222222 L4.99176471,9.51222222 C7.68117647,9.55666667 9.9,7.53277778 9.94705882,4.99277778 L9.94705882,4.99277778 C9.99411765,2.45277778 7.85235294,0.357777778 5.16235294,0.313333333 L5.16235294,0.313333333 C5.13352941,0.312777778 5.10411765,0.312777778 5.07529412,0.312777778 L5.07529412,0.312777778 C2.42529412,0.312777778 0.253529412,2.31944444 0.207058824,4.83222222 L0.207058824,4.83222222 Z" id="path-7"></path>
        <polygon id="path-9" points="0.529469168 0.251354067 10.4596964 0.251354067 10.4596964 8.38268612 0.529469168 8.38268612"></polygon>
        <path d="M5.68533333,1.00914286 L0.333125,15.6028571 L12.481625,15.6028571 L7.12941667,1.00914286 C7.00158333,0.661142857 6.70475,0.487428571 6.407375,0.487428571 L6.407375,0.487428571 C6.11,0.487428571 5.81316667,0.661142857 5.68533333,1.00914286 L5.68533333,1.00914286 Z" id="path-11"></path>
        <path d="M2.97009091,0.542857143 C1.37740909,0.542857143 0.0874545455,1.85828571 0.0874545455,3.48114286 L0.0874545455,3.48114286 L0.0874545455,8.86057143 C0.0874545455,10.4834286 1.37740909,11.7988571 2.97009091,11.7988571 L2.97009091,11.7988571 L33.5836667,11.7988571 C35.1752273,11.7988571 36.466303,10.4834286 36.466303,8.86057143 L36.466303,8.86057143 L36.466303,3.48114286 C36.466303,1.85828571 35.1752273,0.542857143 33.5836667,0.542857143 L33.5836667,0.542857143 L2.97009091,0.542857143 Z" id="path-13"></path>
        <path d="M2.97009091,0.542857143 C1.37740909,0.542857143 0.0874545455,1.85828571 0.0874545455,3.48114286 L0.0874545455,3.48114286 L0.0874545455,8.86057143 C0.0874545455,10.4834286 1.37740909,11.7988571 2.97009091,11.7988571 L2.97009091,11.7988571 L33.5836667,11.7988571 C35.1752273,11.7988571 36.466303,10.4834286 36.466303,8.86057143 L36.466303,8.86057143 L36.466303,3.48114286 C36.466303,1.85828571 35.1752273,0.542857143 33.5836667,0.542857143 L33.5836667,0.542857143 L2.97009091,0.542857143 Z" id="path-15"></path>
        <path d="M2.97009091,0.542857143 C1.37740909,0.542857143 0.0874545455,1.85828571 0.0874545455,3.48114286 L0.0874545455,8.86057143 C0.0874545455,10.4834286 1.37740909,11.7988571 2.97009091,11.7988571 L33.5836667,11.7988571 C35.1752273,11.7988571 36.466303,10.4834286 36.466303,8.86057143 L36.466303,3.48114286 C36.466303,1.85828571 35.1752273,0.542857143 33.5836667,0.542857143 L2.97009091,0.542857143 Z" id="path-17"></path>
    </defs>
    <g id="Products-Page" stroke="none" stroke-width="1" fill="none" fill-rule="evenodd">
        <g id="Products-Page-Inventory" transform="translate(-604.000000, -939.000000)">
            <g id="Maintenance" transform="translate(604.000000, 939.000000)">
                <polygon id="Fill-1" fill="#404DC4" points="65 115 90 115 90 109 65 109"></polygon>
                <g id="Group-40" transform="translate(20.000000, 34.000000)">
                    <path d="M75.310041,84.2385104 L40.3472543,84.2385104 C39.452523,84.2385104 38.7267778,83.5165953 38.7267778,82.6265858 C38.7267778,81.737133 39.452523,81.0157745 40.3472543,81.0157745 L75.310041,81.0157745 C76.2053319,81.0157745 76.9305175,81.737133 76.9305175,82.6265858 C76.9305175,83.5165953 76.2053319,84.2385104 75.310041,84.2385104" id="Fill-2" fill="#5B62DB"></path>
                    <path d="M114.928172,3.75276981 C114.928172,1.74120377 113.288111,0.110911321 111.266433,0.110911321 L4.39052687,0.110911321 C2.3688482,0.110911321 0.729346814,1.74120377 0.729346814,3.75276981 L0.729346814,65.2875434 L114.928172,65.2875434 L114.928172,3.75276981 Z" id="Fill-4" fill="#002D51"></path>
                    <polygon id="Fill-6" fill="#EAEDFB" points="5.62932964 60.5339245 110.027518 60.5339245 110.027518 5.3205 5.62932964 5.3205"></polygon>
                    <path d="M4.39058283,75.4703868 L111.266489,75.4703868 C113.288167,75.4703868 114.928228,73.8395377 114.928228,71.8285283 L114.928228,65.2873208 L0.72940277,65.2873208 L0.72940277,71.8285283 C0.72940277,73.8395377 2.36890416,75.4703868 4.39058283,75.4703868" id="Fill-8" fill="#FFFFFF"></path>
                    <path d="M59.9992803,70.3789094 C59.9992803,71.5717113 59.0273302,72.5379755 57.8287596,72.5379755 C56.6301889,72.5379755 55.6576792,71.5717113 55.6576792,70.3789094 C55.6576792,69.1861075 56.6301889,68.2198434 57.8287596,68.2198434 C59.0273302,68.2198434 59.9992803,69.1861075 59.9992803,70.3789094" id="Fill-9" fill="#404DC4"></path>
                    <g id="Group-13" transform="translate(10.277008, 4.849057)" fill="#FFFFFF">
                        <polygon id="Fill-10" points="24.3432942 0.471332075 0.50953241 55.6919925 8.94429141 55.6919925 33.0393662 0.471332075"></polygon>
                        <polygon id="Fill-11" points="85.1475884 0.471332075 61.3138266 55.6919925 69.748026 55.6919925 93.8431008 0.471332075"></polygon>
                        <polygon id="Fill-12" points="43.7944953 0.471332075 19.9607335 55.6919925 44.9253596 55.6919925 69.0204343 0.471332075"></polygon>
                    </g>
                    <polygon id="Fill-14" fill="#FFFFFF" points="13.0647202 48.0665566 57.3721053 48.0665566 57.3721053 16.8477642 13.0647202 16.8477642"></polygon>
                    <polygon id="Stroke-15" stroke="#1C75BB" stroke-width="3.014" stroke-linecap="round" stroke-linejoin="round" points="13.0647202 48.0665566 57.3721053 48.0665566 57.3721053 16.8477642 13.0647202 16.8477642"></polygon>
                    <line x1="62.4511463" y1="19.2017528" x2="102.948509" y2="19.2017528" id="Stroke-16" stroke="#27A9E0" stroke-width="2.805"></line>
                    <line x1="62.4511463" y1="28.6216594" x2="87.3514233" y2="28.6216594" id="Stroke-17" stroke="#27A9E0" stroke-width="2.805"></line>
                    <line x1="62.4511463" y1="23.8630868" x2="69.5927695" y2="23.8630868" id="Stroke-18" stroke="#27A9E0" stroke-width="2.805"></line>
                    <line x1="62.4511463" y1="34.7443009" x2="102.948509" y2="34.7443009" id="Stroke-19" stroke="#27A9E0" stroke-width="2.805"></line>
                    <line x1="62.4511463" y1="44.1647085" x2="102.948509" y2="44.1647085" id="Stroke-20" stroke="#27A9E0" stroke-width="2.805"></line>
                    <line x1="62.4511463" y1="39.4058575" x2="86.3442211" y2="39.4058575" id="Stroke-21" stroke="#27A9E0" stroke-width="2.805"></line>
                    <path d="M44.0737906,32.2732585 C44.0737906,37.6199943 39.7159623,41.9553811 34.3397407,41.9553811 C28.9646382,41.9553811 24.6062504,37.6199943 24.6062504,32.2732585 C24.6062504,26.925966 28.9646382,22.5905792 34.3397407,22.5905792 C39.7159623,22.5905792 44.0737906,26.925966 44.0737906,32.2732585" id="Fill-22" fill="#F04365"></path>
                    <line x1="29.4061845" y1="32.2732585" x2="38.96901" y2="32.2732585" id="Stroke-23" stroke="#FFFFFF" stroke-width="4.208" stroke-linecap="round" stroke-linejoin="round"></line>
                    <polygon id="Fill-24" fill="#1B1754" points="121.753254 50.871116 123.856628 81.6457387 127.177038 81.6373896 127.866972 50.8566443"></polygon>
                    <path d="M121.100811,84.1667642 L127.159132,84.1667642 L127.159132,81.3720566 L123.910346,81.3720566 C122.358695,81.3720566 121.100811,82.6238585 121.100811,84.1667642" id="Fill-25" fill="#243051"></path>
                    <path d="M128.271196,84.1667642 L134.588592,84.1667642 L134.329517,81.3720566 L131.08073,81.3720566 C129.529079,81.3720566 128.271196,82.6238585 128.271196,84.1667642" id="Fill-26" fill="#243051"></path>
                    <polygon id="Fill-27" fill="#2A2B7B" points="132.213273 50.8895953 134.329517 81.3725575 131.079611 81.4733028 125.650791 50.8895953"></polygon>
                    <path d="M126.543396,35.0438094 L135.167845,42.7021208 C135.882399,43.3372057 136.956188,43.360583 137.69928,42.7572245 C138.54533,42.0698189 138.65836,40.8246962 137.949402,39.9970264 C137.949402,39.9970264 133.783501,34.4376679 131.45015,32.5914132 L126.543396,35.0438094 Z" id="Fill-28" fill="#F04365"></path>
                    <path d="M139.855812,53.6845811 C139.855812,54.8228358 138.928066,55.7456849 137.783773,55.7456849 C136.639479,55.7456849 135.712294,54.8228358 135.712294,53.6845811 C135.712294,52.5463264 136.639479,51.624034 137.783773,51.624034 C138.928066,51.624034 139.855812,52.5463264 139.855812,53.6845811" id="Fill-29" fill="#F89A6E"></path>
                    <path d="M135.114855,41.8377151 L136.251874,52.0892434 L139.208572,52.0892434 L138.535425,41.5037528 C138.463802,40.5040925 137.547808,39.7799509 136.552356,39.9363566 C135.635802,40.080517 134.999586,40.9215453 135.114855,41.8377151" id="Fill-30" fill="#F04365"></path>
                    <path d="M125.656499,31.1519245 C125.656499,31.1519245 121.426249,31.2843962 121.200748,35.4939906 C120.973568,39.7280755 121.694277,50.8896509 121.694277,50.8896509 L132.213385,50.8896509 L132.479175,37.2189057 C133.136094,33.5653585 131.275568,31.2426509 127.503036,31.1018302 C126.936765,31.0812358 126.322371,31.0951509 125.656499,31.1519245" id="Fill-31" fill="#F04365"></path>
                    <polygon id="Fill-32" fill="#D72E57" points="132.419806 40.2624708 130.609639 38.6544425 132.355457 43.5954142"></polygon>
                    <path d="M111.333691,27.5274321 C111.333691,28.6656868 110.406506,29.5885358 109.262212,29.5885358 C108.117919,29.5885358 107.190173,28.6656868 107.190173,27.5274321 C107.190173,26.3891774 108.117919,25.4663283 109.262212,25.4663283 C110.406506,25.4663283 111.333691,26.3891774 111.333691,27.5274321" id="Fill-33" fill="#F89A6E"></path>
                    <path d="M115.79431,38.7209566 L111.333524,28.6430887 L108.489296,29.5358811 L112.51195,39.7356453 C112.785014,40.7007962 113.830266,41.2256736 114.773119,40.8722302 C115.641551,40.546617 116.093114,39.5948245 115.79431,38.7209566" id="Fill-34" fill="#F04365"></path>
                    <path d="M124.01336,31.5204519 C118.439615,33.8236783 113.418152,37.3597821 113.418152,37.3597821 C112.577698,37.8184236 112.197759,38.8169708 112.521742,39.7153292 C112.89049,40.738367 114.033665,41.2599047 115.053737,40.8708387 L123.553964,36.7564236 L124.01336,31.5204519 Z" id="Fill-35" fill="#F04365"></path>
                    <path d="M121.156543,37.9170538 C121.157102,37.9164972 121.200748,35.4936009 121.200748,35.4936009 L119.274753,38.8282142 L121.156543,37.9170538 Z" id="Fill-36" fill="#D72E57"></path>
                    <path d="M124.431909,28.7613113 L124.565083,31.5888585 C124.59418,32.2044623 124.981953,32.7454811 125.558296,32.9731321 C126.651111,33.4050566 127.816668,32.5373113 127.708673,31.3723396 L127.537449,28.5626038 L124.431909,28.7613113 Z" id="Fill-37" fill="#F89A6E"></path>
                    <path d="M124.527537,30.7806698 C124.527537,30.7806698 127.161371,31.1402358 127.537393,28.5626038 C127.913415,25.9849717 125.030578,27.0508679 125.030578,27.0508679 L124.450878,29.1687453 L124.527537,30.7806698 Z" id="Fill-38" fill="#E88057"></path>
                    <path d="M122.580055,22.0698764 C120.839834,23.9356123 120.949507,26.8516594 122.825141,28.5826972 C124.701335,30.3137349 127.632853,30.2046406 129.373075,28.3383481 C131.113296,26.4726123 131.003623,23.5565651 129.127429,21.8255274 C127.251795,20.0944896 124.319717,20.203584 122.580055,22.0698764" id="Fill-39" fill="#F89A6E"></path>
                </g>
                <g id="Group-47" transform="translate(141.000000, 54.000000)">
                    <g id="Group-43">
                        <mask id="mask-2" fill="white">
                            <use xlink:href="#path-1"></use>
                        </mask>
                        <g id="Clip-42"></g>
                        <path d="M6.21894444,5.85614118 C6.21894444,5.85614118 4.40338889,8.9892 6.95783333,9.85055294 C9.51227778,10.7124353 10.2456111,3.93861176 10.2456111,3.93861176 L7.48172222,-1.22368235 L0.743388889,-1.66891765 L0.367277778,0.554611765 C0.367277778,0.554611765 1.01061111,2.71937647 6.66172222,4.75708235 L6.21894444,5.85614118 Z" id="Fill-41" fill="#243051" mask="url(#mask-2)"></path>
                    </g>
                    <g id="Group-46">
                        <mask id="mask-4" fill="white">
                            <use xlink:href="#path-3"></use>
                        </mask>
                        <g id="Clip-45"></g>
                        <polygon id="Fill-44" fill="#243051" mask="url(#mask-4)" points="4.84255556 3.39342353 5.64033333 5.94783529 7.67088889 4.81701176"></polygon>
                    </g>
                </g>
                <g id="Group-72" transform="translate(21.000000, 4.000000)">
                    <path d="M125.678985,55.4548027 C125.213233,55.9516755 125.242938,56.7291482 125.745121,57.19053 C126.247864,57.6513573 127.033086,57.6225209 127.498838,57.1256482 C127.96515,56.6276664 127.935445,55.8513027 127.433263,55.3899209 C126.930519,54.9285391 126.145298,54.95793 125.678985,55.4548027" id="Fill-48" fill="#F89A6E"></path>
                    <path d="M120.026065,53.5084591 C120.026065,53.5084591 119.797953,50.2238864 122.590785,48.5125591 C124.893764,47.1012409 128.002702,47.8720591 129.276094,50.23775 C129.874118,51.3485045 130.213764,52.4359682 129.818071,54.5859409 L120.026065,53.5084591 Z" id="Fill-50" fill="#FDD63B"></path>
                    <path d="M129.680027,55.0621845 C129.662091,55.0621845 129.644156,55.06163 129.6251,55.0594118 L118.486841,53.8760118 C118.221737,53.8466209 118.031177,53.60983 118.060882,53.34753 C118.090587,53.0857845 118.324864,52.9000118 118.595012,52.9255209 L129.733271,54.1094755 C129.997814,54.1388664 130.188935,54.3756573 130.15923,54.6379573 C130.131767,54.8819573 129.92215,55.0621845 129.680027,55.0621845" id="Fill-52" fill="#F2A62F"></path>
                    <path d="M126.950976,12.64406 C126.950976,17.38376 123.067466,21.2262055 118.277112,21.2262055 C113.487319,21.2262055 109.603808,17.38376 109.603808,12.64406 C109.603808,7.90436 113.487319,4.06191455 118.277112,4.06191455 C123.067466,4.06191455 126.950976,7.90436 126.950976,12.64406" id="Fill-54" fill="#5B62DB"></path>
                    <path d="M119.396094,7.90957273 L119.337805,14.1021818 L117.201847,14.1021818 C117.201847,11.7597818 117.15869,10.2663909 117.15869,7.90957273 L119.396094,7.90957273 Z M119.547982,16.3669455 C119.547982,18.0239273 117.006802,18.0239273 117.006802,16.3669455 C117.006802,14.6955455 119.547982,14.6955455 119.547982,16.3669455 L119.547982,16.3669455 Z" id="Fill-56" fill="#FFFFFF"></path>
                    <path d="M5.98918584,8.33734909 L7.98782891,10.3475764 C8.42331563,10.7856673 9.07682596,10.9304036 9.65915634,10.7185673 C10.7644071,10.3165218 11.0513687,8.90187636 10.1882419,8.10887636 L8.17278466,6.13691273 L5.98918584,8.33734909 Z" id="Fill-66" fill="#F89A6E"></path>
                    <path d="M7.41721239,9.77328909 C7.41721239,9.77328909 8.66650442,7.22404364 8.17272861,6.13658 C7.09718289,3.77033455 5.28685841,6.67227091 5.28685841,6.67227091 L6.27721239,8.62704364 L7.41721239,9.77328909 Z" id="Fill-68" fill="#E88057"></path>
                    <path d="M0.111908555,4.59610818 C0.0670707965,7.13149 2.10830973,9.22268091 4.67078761,9.26704455 C7.23326549,9.31140818 9.34736578,7.29230818 9.39220354,4.75692636 C9.4370413,2.22099 7.39580236,0.129799091 4.83332448,0.0854354545 C2.27084661,0.0410718182 0.156746313,2.06072636 0.111908555,4.59610818" id="Fill-70" fill="#F89A6E"></path>
                </g>
                <g id="Group-79" transform="translate(21.000000, 3.000000)">
                    <g id="Group-75">
                        <mask id="mask-6" fill="white">
                            <use xlink:href="#path-5"></use>
                        </mask>
                        <g id="Clip-74"></g>
                        <path d="M7.11729412,5.04511111 C7.11729412,5.04511111 8.00788235,8.70511111 10.6608235,7.67455556 C13.3143529,6.644 8.87141176,0.859555556 8.87141176,0.859555556 L2.86494118,-1.33211111 L-2.77976471,2.81566667 L-2.15211765,6.40788889 C-2.15211765,6.40788889 -0.138,5.05344444 5.82964706,2.87622222 L7.11729412,5.04511111 Z" id="Fill-73" fill="#243051" mask="url(#mask-6)"></path>
                    </g>
                    <g id="Group-78">
                        <mask id="mask-8" fill="white">
                            <use xlink:href="#path-7"></use>
                        </mask>
                        <g id="Clip-77"></g>
                        <polygon id="Fill-76" fill="#243051" mask="url(#mask-8)" points="4.20594118 4.03816667 6.72829412 5.50316667 7.49241176 3.26427778"></polygon>
                    </g>
                </g>
                <g id="Group-115" transform="translate(4.000000, 0.000000)">
                    <path d="M24.3623864,8.75551866 C24.3623864,8.75551866 28.3559727,19.6499541 33.32685,14.6788536 C37.7364,10.2703608 31.0686818,7.58943732 29.2628182,7.11751866 C27.8818636,6.75644211 27.3529636,6.28396364 25.6102773,4.66387751 L22.1539773,5.16154737 L24.3623864,8.75551866 Z" id="Fill-80" fill="#243051"></path>
                    <path d="M23.1459164,7.49432584 C23.1341755,8.17897177 23.6781709,8.74325885 24.3624982,8.75557464 C25.0457073,8.76733062 25.60983,8.22207703 25.62213,7.5374311 C25.6333118,6.85278517 25.0893164,6.28849809 24.4055482,6.27674211 C23.72178,6.26442632 23.1576573,6.8096799 23.1459164,7.49432584" id="Fill-82" fill="#F89A6E"></path>
                    <g id="Group-86" transform="translate(15.654545, 0.000000)">
                        <mask id="mask-10" fill="white">
                            <use xlink:href="#path-9"></use>
                        </mask>
                        <g id="Clip-85"></g>
                        <path d="M1.41863727,8.38268612 C1.41863727,8.38268612 -0.406235455,5.60659522 1.17263727,2.73141818 C2.47420091,0.360628708 5.55758727,-0.48748134 7.83532364,0.967461244 C8.90542364,1.65098756 9.73902818,2.4403177 10.4596964,4.52448517 L1.41863727,8.38268612 Z" id="Fill-84" fill="#FDD63B" mask="url(#mask-10)"></path>
                    </g>
                    <path d="M26.2301973,5.01129474 C26.2151018,5.02025167 26.1983291,5.0286488 26.1815564,5.03592632 L15.9177655,9.46065359 C15.6728836,9.5653378 15.3899836,9.45057703 15.2859927,9.20538086 C15.1820018,8.9607445 15.29382,8.68251962 15.5409382,8.57279713 L25.8047291,4.14806986 C26.0496109,4.04338565 26.33307,4.15814641 26.4365018,4.40334258 C26.5332245,4.63118469 26.4409745,4.89261531 26.2301973,5.01129474" id="Fill-87" fill="#F2A62F"></path>
                    <path d="M16.8787868,34.2877737 L6.65357318,44.7864244 L4.03926409,43.6287402 L12.888555,31.0599172 C13.755705,29.6206493 15.8042141,29.5232426 16.8044277,30.873501 C17.3942686,31.6706684 17.4239005,33.4592569 16.8787868,34.2877737" id="Fill-89" fill="#1B1754"></path>
                    <path d="M0.09594,43.5721995 L5.26473545,47.1991995 L6.66414,44.7489172 L4.00510364,42.8836349 C2.73540818,41.9929794 0.985453636,42.3008742 0.09594,43.5721995" id="Fill-91" fill="#243051"></path>
                    <path d="M23.9484914,28.0295612 L13.6025141,29.873011 L15.7354459,33.9159488 L29.6143186,33.9159488 C29.6143186,33.9159488 33.7873732,33.8174225 31.8607459,29.2376282 L23.9484914,28.0295612 Z" id="Fill-93" fill="#2A2B7B"></path>
                    <path d="M17.422335,31.1927038 L22.348485,47.5133641 L19.5714805,49.1082589 L11.7816668,33.3434885 C10.9877577,31.8622349 11.948835,30.0478952 13.6188395,29.8754742 C14.6045168,29.7741488 16.9890395,30.3003689 17.422335,31.1927038" id="Fill-95" fill="#2A2B7B"></path>
                    <path d="M18.2991573,52.8232608 L23.4618027,50.1020311 L22.3480936,47.5134761 L19.4754845,49.0277584 C18.1034755,49.7504713 17.5773709,51.4500502 18.2991573,52.8232608" id="Fill-97" fill="#243051"></path>
                    <path d="M23.3550164,15.7427699 C23.3550164,15.7427699 23.7726573,13.9127555 24.3026755,13.3484684 C24.6795027,12.9470856 26.0380936,11.6651239 26.78448,11.3896981 C27.00588,11.3074062 27.2513209,11.3337172 27.4531527,11.4568751 C28.3460209,12.0038081 30.7998709,13.7817603 32.0035936,17.4026024 C33.1625891,20.89021 33.4102664,30.8150569 33.4102664,30.8150569 C30.1155436,32.9585641 23.9487709,28.0294493 23.9487709,28.0294493 C24.1069936,21.8452435 22.5812345,21.5317507 23.3550164,15.7427699" id="Fill-99" fill="#1C75BB"></path>
                    <path d="M22.6910959,28.2534287 L27.5495959,28.4756727 C29.2000323,28.5714 29.9324414,27.334223 30.0112732,26.2940986 L30.2270823,17.9014478 L22.6910959,28.2534287 Z" id="Fill-101" fill="#002D51"></path>
                    <path d="M18.3172159,27.062212 L15.4429295,26.0338435 C15.2103477,25.9504321 14.9509295,25.9946569 14.7586023,26.1514033 L13.4799614,27.1943268 C13.1048114,27.5005421 13.1892341,28.0961785 13.6348295,28.2859536 C13.8618205,28.3828005 14.1240341,28.3408148 14.3102114,28.1779105 L14.9235341,27.6388148 C14.9235341,27.6388148 17.0285114,28.8446426 18.0253705,28.5137957 L18.3172159,27.062212 Z" id="Fill-103" fill="#F97D7D"></path>
                    <path d="M25.6421455,14.2803818 L25.1389636,23.7030804 L17.4850091,25.6926402 L17.8025727,28.5616593 L27.1544864,27.5819943 C27.8253955,27.5377694 28.4431909,27.2293148 28.8809591,26.7394823 C29.1236045,26.4685349 29.2510773,26.1130565 29.2941273,25.7519799 L30.4553591,15.979401 L25.6421455,14.2803818 Z" id="Fill-105" fill="#1C75BB"></path>
                    <path d="M12.7707545,30.8165684 L23.6288591,28.9137789 C23.9620773,28.8555589 24.1851545,28.5381474 24.12645,28.2045014 C24.0683045,27.8708555 23.7507409,27.6480517 23.4180818,27.7062718 L12.5599773,29.6090612 C12.2267591,29.6678411 12.0042409,29.9852526 12.0623864,30.3183388 C12.1205318,30.6519847 12.4380955,30.8747885 12.7707545,30.8165684" id="Fill-107" fill="#243051"></path>
                    <path d="M12.8507605,30.2324641 C12.7875832,30.2324641 12.7238468,30.2061531 12.6785605,30.1546507 L6.14166955,22.7377464 C6.058365,22.6425789 6.06731045,22.4975885 6.16179682,22.4136172 C6.25684227,22.3296459 6.40164682,22.3380431 6.48551045,22.4337703 L13.0224014,29.8512344 C13.106265,29.9458421 13.0973195,30.0913923 13.0022741,30.1748038 C12.958665,30.2134306 12.9044332,30.2324641 12.8507605,30.2324641" id="Fill-109" fill="#243051"></path>
                    <path d="M25.5536973,11.2842301 C25.5536973,11.2842301 28.6499427,18.7397612 32.8839382,15.0243115 C37.1184927,11.3077421 28.2664064,9.16535455 28.2664064,9.16535455 L25.5536973,11.2842301 Z" id="Fill-111" fill="#243051"></path>
                    <path d="M109.925659,116.610821 L115.450595,102.313869 C115.713927,101.632022 116.676682,101.632022 116.940573,102.313869 L122.465509,116.610821 L109.925659,116.610821 Z" id="Fill-113" fill="#F2A62F"></path>
                </g>
                <g id="Group-119" transform="translate(114.000000, 101.000000)">
                    <mask id="mask-12" fill="white">
                        <use xlink:href="#path-11"></use>
                    </mask>
                    <use id="Clip-117" fill="#F6931D" xlink:href="#path-11"></use>
                    <polygon id="Fill-116" fill="#FAFAFA" mask="url(#mask-12)" points="1.573 6.95485714 11.0765417 6.95485714 11.0765417 4.14685714 1.573 4.14685714"></polygon>
                    <polygon id="Fill-118" fill="#FAFAFA" mask="url(#mask-12)" points="1.05408333 12.2622857 11.8029167 12.2622857 11.8029167 9.45428571 1.05408333 9.45428571"></polygon>
                </g>
                <g id="Group-127" transform="translate(0.000000, 90.000000)">
                    <path d="M113.194147,28.141216 C112.644663,28.141216 112.199255,27.6981594 112.199255,27.1521311 C112.199255,26.6055462 112.644663,26.1624896 113.194147,26.1624896 L127.409128,26.1624896 C127.958053,26.1624896 128.40346,26.6055462 128.40346,27.1521311 C128.40346,27.6981594 127.958053,28.141216 127.409128,28.141216 L113.194147,28.141216 Z" id="Fill-120" fill="#F6931D"></path>
                    <polygon id="Fill-122" fill="#8BBDF8" points="5.23236565 22.7209528 9.55494183 22.7209528 9.55494183 10.5636132 5.23236565 10.5636132"></polygon>
                    <polygon id="Fill-124" fill="#8BBDF8" points="28.0247922 22.7209528 32.347928 22.7209528 32.347928 10.5636132 28.0247922 10.5636132"></polygon>
                    <path d="M34.735277,28.1727755 L2.59433518,28.1727755 C1.55244044,28.1727755 0.707509695,27.3323038 0.707509695,26.2953509 L0.707509695,23.916983 C0.707509695,22.8805868 1.55244044,22.0401151 2.59433518,22.0401151 L34.735277,22.0401151 C35.7771717,22.0401151 36.6215429,22.8805868 36.6215429,23.916983 L36.6215429,26.2953509 C36.6215429,27.3323038 35.7771717,28.1727755 34.735277,28.1727755" id="Fill-125" fill="#5B62DB"></path>
                    <path d="M34.1413075,11.5491358 L3.58447091,11.5491358 C1.99532964,11.5491358 0.707789474,10.267834 0.707789474,8.68707925 L0.707789474,3.44721132 C0.707789474,1.8664566 1.99532964,0.585711321 3.58447091,0.585711321 L34.1413075,0.585711321 C35.7304488,0.585711321 37.0185485,1.8664566 37.0185485,3.44721132 L37.0185485,8.68707925 C37.0185485,10.267834 35.7304488,11.5491358 34.1413075,11.5491358" id="Fill-126" fill="#F2A62F"></path>
                </g>
                <g id="Group-137" transform="translate(1.000000, 90.000000)">
                    <g id="Group-130">
                        <mask id="mask-14" fill="white">
                            <use xlink:href="#path-13"></use>
                        </mask>
                        <use id="Clip-129" fill="#F6931D" xlink:href="#path-13"></use>
                        <polygon id="Fill-128" fill="#FFFFFF" mask="url(#mask-14)" points="-0.368318182 15.7478286 -6.92460606 15.7478286 8.35190909 -1.52702857 14.908197 -1.52702857"></polygon>
                    </g>
                    <g id="Group-133">
                        <mask id="mask-16" fill="white">
                            <use xlink:href="#path-15"></use>
                        </mask>
                        <g id="Clip-132"></g>
                        <polygon id="Fill-131" fill="#FFFFFF" mask="url(#mask-16)" points="26.2618712 15.7478286 19.7055833 15.7478286 34.9826591 -1.52702857 41.5383864 -1.52702857"></polygon>
                    </g>
                    <g id="Group-136">
                        <mask id="mask-18" fill="white">
                            <use xlink:href="#path-17"></use>
                        </mask>
                        <g id="Clip-135"></g>
                        <polygon id="Fill-134" fill="#FFFFFF" mask="url(#mask-18)" points="12.6731727 15.7478286 6.11688485 15.7478286 21.3939606 -1.52702857 27.9496879 -1.52702857"></polygon>
                    </g>
                </g>
            </g>
        </g>
    </g>
</svg>