<?xml version="1.0" encoding="UTF-8"?>
<svg width="28px" height="32px" viewBox="0 0 28 32" version="1.1" xmlns="http://www.w3.org/2000/svg" xmlns:xlink="http://www.w3.org/1999/xlink">
    <!-- Generator: Sketch 59.1 (86144) - https://sketch.com -->
    <title>Fill 214 Copy</title>
    <desc>Created with Sketch.</desc>
    <g id="Products-Page" stroke="none" stroke-width="1" fill="none" fill-rule="evenodd">
        <path d="M21,16 L7,16 C6.447,16 6,15.553 6,15 C6,14.448 6.447,14 7,14 L21,14 C21.553,14 22,14.448 22,15 C22,15.553 21.553,16 21,16 L21,16 Z M21,21 L7,21 C6.447,21 6,20.553 6,20 C6,19.448 6.447,19 7,19 L21,19 C21.553,19 22,19.448 22,20 C22,20.553 21.553,21 21,21 L21,21 Z M21,26 L7,26 C6.447,26 6,25.553 6,25 C6,24.448 6.447,24 7,24 L21,24 C21.553,24 22,24.448 22,25 C22,25.553 21.553,26 21,26 L21,26 Z M9,4 L11.223,4 C11.223,2.896 12.466,2 14,2 C15.534,2 16.777,2.896 16.777,4 L19,4 L19,8 L9,8 L9,4 L9,4 Z M24,4 L21,4 L21,2 L18.307,2 C17.44,0.81 15.846,0 14,0 C12.154,0 10.56,0.81 9.693,2 L7,2 L7,4 L4,4 C1.791,4 0,5.791 0,8 L0,28 C0,30.209 1.791,32 4,32 L24,32 C26.209,32 28,30.209 28,28 L28,8 C28,5.791 26.209,4 24,4 L24,4 Z" id="Fill-214-Copy" fill="#FFFFFE"></path>
    </g>
</svg>