<?xml version="1.0" encoding="UTF-8"?>
<svg width="192px" height="119px" viewBox="0 0 192 119" version="1.1" xmlns="http://www.w3.org/2000/svg" xmlns:xlink="http://www.w3.org/1999/xlink">
    <!-- Generator: Sketch 59.1 (86144) - https://sketch.com -->
    <title>Group 150</title>
    <desc>Created with Sketch.</desc>
    <defs>
        <polygon id="path-1" points="0.0233513514 0.148986737 128.676717 0.148986737 128.676717 74.2359247 0.0233513514 74.2359247"></polygon>
        <polygon id="path-3" points="0 119 191.90455 119 191.90455 0.148986737 0 0.148986737"></polygon>
    </defs>
    <g id="Products-Page" stroke="none" stroke-width="1" fill="none" fill-rule="evenodd">
        <g id="Products-Page-Inventory" transform="translate(-977.000000, -939.000000)">
            <g id="Group-150" transform="translate(977.000000, 939.000000)">
                <polygon id="Fill-1" fill="#404DC4" points="91 92 120 92 120 85 91 85"></polygon>
                <g id="Group-149">
                    <path d="M125.243298,95.7776235 L85.8546791,95.7776235 C84.8468757,95.7776235 84.029657,94.9575651 84.029657,93.9460651 C84.029657,92.9342495 84.8468757,92.1141911 85.8546791,92.1141911 L125.243298,92.1141911 C126.251259,92.1141911 127.06832,92.9342495 127.06832,93.9460651 C127.06832,94.9575651 126.251259,95.7776235 125.243298,95.7776235" id="Fill-2" fill="#5B62DB"></path>
                    <g id="Group-6" transform="translate(41.199017, 0.000000)">
                        <mask id="mask-2" fill="white">
                            <use xlink:href="#path-1"></use>
                        </mask>
                        <g id="Clip-5"></g>
                        <path d="M128.676717,4.28901883 C128.676717,2.00260902 126.829838,0.148955172 124.551941,0.148955172 L4.14812776,0.148955172 C1.87007371,0.148955172 0.0233513514,2.00260902 0.0233513514,4.28901883 L0.0233513514,74.2359247 L128.676717,74.2359247 L128.676717,4.28901883 Z" id="Fill-4" fill="#5B62DB" mask="url(#mask-2)"></path>
                    </g>
                    <mask id="mask-4" fill="white">
                        <use xlink:href="#path-3"></use>
                    </mask>
                    <g id="Clip-8"></g>
                    <polygon id="Fill-7" fill="#FFFFFF" mask="url(#mask-4)" points="46.742801 68.832504 164.355145 68.832504 164.355145 6.07105172 46.742801 6.07105172"></polygon>
                    <path d="M45.3470978,85.8112314 L165.750911,85.8112314 C168.028808,85.8112314 169.875687,83.9575776 169.875687,81.6711678 L169.875687,74.2358773 L41.2223214,74.2358773 L41.2223214,81.6711678 C41.2223214,83.9575776 43.0690437,85.8112314 45.3470978,85.8112314" id="Fill-9" fill="#FFFFFF" mask="url(#mask-4)"></path>
                    <path d="M107.994292,80.0234912 C107.994292,81.3788918 106.89953,82.477669 105.549083,82.477669 C104.198479,82.477669 103.103717,81.3788918 103.103717,80.0234912 C103.103717,78.6680907 104.198479,77.5693135 105.549083,77.5693135 C106.89953,77.5693135 107.994292,78.6680907 107.994292,80.0234912" id="Fill-10" fill="#404DC4" mask="url(#mask-4)"></path>
                    <polygon id="Fill-15" fill="#F6931D" mask="url(#mask-4)" points="55.1192531 54.6606141 105.03485 54.6606141 105.03485 19.1739934 55.1192531 19.1739934"></polygon>
                    <polygon id="Stroke-16" stroke="#1C75BB" stroke-width="3.014" stroke-linecap="round" stroke-linejoin="round" mask="url(#mask-4)" points="55.1192531 54.6606141 105.03485 54.6606141 105.03485 19.1739934 55.1192531 19.1739934"></polygon>
                    <line x1="110.756875" y1="21.8501361" x2="156.379912" y2="21.8501361" id="Stroke-17" stroke="#27A9E0" stroke-width="3" mask="url(#mask-4)"></line>
                    <line x1="110.756875" y1="32.5578792" x2="138.808688" y2="32.5578792" id="Stroke-18" stroke="#27A9E0" stroke-width="3" mask="url(#mask-4)"></line>
                    <line x1="110.756875" y1="27.1485243" x2="118.801848" y2="27.1485243" id="Stroke-19" stroke="#27A9E0" stroke-width="3" mask="url(#mask-4)"></line>
                    <line x1="110.756875" y1="39.5175168" x2="156.379912" y2="39.5175168" id="Stroke-20" stroke="#27A9E0" stroke-width="3" mask="url(#mask-4)"></line>
                    <line x1="110.756875" y1="50.2254178" x2="156.379912" y2="50.2254178" id="Stroke-21" stroke="#27A9E0" stroke-width="3" mask="url(#mask-4)"></line>
                    <line x1="110.756875" y1="44.8160471" x2="137.674457" y2="44.8160471" id="Stroke-22" stroke="#27A9E0" stroke-width="3" mask="url(#mask-4)"></line>
                    <path d="M20.2969631,45.5610912 L20.2969631,45.5610912 C20.0827912,45.5610912 19.9090319,45.3868525 19.9090319,45.1717371 L19.9090319,42.6803127 C19.9090319,42.4653552 20.0827912,42.2909586 20.2969631,42.2909586 C20.5111351,42.2909586 20.6848943,42.4653552 20.6848943,42.6803127 L20.6848943,45.1717371 C20.6848943,45.3868525 20.5111351,45.5610912 20.2969631,45.5610912" id="Fill-23" fill="#4C65BA" mask="url(#mask-4)"></path>
                    <path d="M62.9625081,56.1497081 L62.9625081,56.1497081 C62.7483361,56.1497081 62.5745769,55.9754694 62.5745769,55.7605118 L62.5745769,49.9989548 C62.5745769,49.7839972 62.7483361,49.6097585 62.9625081,49.6097585 C63.1766801,49.6097585 63.3502821,49.7839972 63.3502821,49.9989548 L63.3502821,55.7605118 C63.3502821,55.9754694 63.1766801,56.1497081 62.9625081,56.1497081" id="Fill-24" fill="#4C65BA" mask="url(#mask-4)"></path>
                    <path d="M20.2969631,56.1497081 L20.2969631,56.1497081 C20.0827912,56.1497081 19.9090319,55.9754694 19.9090319,55.7605118 L19.9090319,49.9989548 C19.9090319,49.7839972 20.0827912,49.6097585 20.2969631,49.6097585 C20.5111351,49.6097585 20.6848943,49.7839972 20.6848943,49.9989548 L20.6848943,55.7605118 C20.6848943,55.9754694 20.5111351,56.1497081 20.2969631,56.1497081" id="Fill-25" fill="#4C65BA" mask="url(#mask-4)"></path>
                    <path d="M20.2969631,63.9356855 L20.2969631,63.9356855 C20.0827912,63.9356855 19.9090319,63.7614468 19.9090319,63.5463314 L19.9090319,57.7847744 C19.9090319,57.5698168 20.0827912,57.3955781 20.2969631,57.3955781 C20.5111351,57.3955781 20.6848943,57.5698168 20.6848943,57.7847744 L20.6848943,63.5463314 C20.6848943,63.7614468 20.5111351,63.9356855 20.2969631,63.9356855" id="Fill-26" fill="#4C65BA" mask="url(#mask-4)"></path>
                    <path d="M57.6099224,118.669956 L25.5718683,118.669956 C22.6157602,118.669956 20.2192983,116.264705 20.2192983,113.297754 L20.2192983,36.1403 C20.2192983,33.1731912 22.6157602,30.7680971 25.5718683,30.7680971 L57.6099224,30.7680971 C60.5660305,30.7680971 62.9624924,33.1731912 62.9624924,36.1403 L62.9624924,113.297754 C62.9624924,116.264705 60.5660305,118.669956 57.6099224,118.669956" id="Fill-27" fill="#4C65BA" mask="url(#mask-4)"></path>
                    <path d="M56.6694211,117.95804 L26.5125268,117.95804 C23.7298634,117.95804 21.4741386,115.596663 21.4741386,112.683688 L21.4741386,36.9321393 C21.4741386,34.0191645 23.7298634,31.6577878 26.5125268,31.6577878 L56.6694211,31.6577878 C59.4519273,31.6577878 61.7078093,34.0191645 61.7078093,36.9321393 L61.7078093,112.683688 C61.7078093,115.596663 59.4519273,117.95804 56.6694211,117.95804" id="Fill-28" fill="#599AF2" mask="url(#mask-4)"></path>
                    <path d="M56.6694211,117.215773 L26.5125268,117.215773 C23.7298634,117.215773 21.4741386,114.89985 21.4741386,112.043061 L21.4741386,37.7491832 C21.4741386,34.8922362 23.7298634,32.5763131 26.5125268,32.5763131 L56.6694211,32.5763131 C59.4519273,32.5763131 61.7078093,34.8922362 61.7078093,37.7491832 L61.7078093,112.043061 C61.7078093,114.89985 59.4519273,117.215773 56.6694211,117.215773" id="Fill-29" fill="#3E479B" mask="url(#mask-4)"></path>
                    <polygon id="Fill-30" fill="#FFFFFF" mask="url(#mask-4)" points="22.7405995 108.470552 60.441317 108.470552 60.441317 41.5123767 22.7405995 41.5123767"></polygon>
                    <polygon id="Fill-32" fill="#FFFFFF" mask="url(#mask-4)" points="52.9499047 101.001566 52.9499047 89.1460723 60.4413641 89.1460723 60.4413641 85.8759397 34.5476246 85.8759397 34.5476246 79.7673256 60.4413641 79.7673256 60.4413641 78.1324171 34.5476246 78.1324171 34.5476246 71.3489436 60.4413641 71.3489436 60.4413641 68.0789688 52.9499047 68.0789688 52.9499047 52.8797964 60.4413641 52.8797964 60.4413641 49.6096638 22.7404894 49.6096638 22.7404894 52.8797964 49.6917229 52.8797964 49.6917229 68.0789688 22.7404894 68.0789688 22.7404894 71.3489436 31.2894428 71.3489436 31.2894428 85.8759397 22.7404894 85.8759397 22.7404894 89.1460723 49.6917229 89.1460723 49.6917229 101.001566 22.8658162 101.001566 22.8658162 104.271698 60.5666909 104.271698 60.5666909 101.001566"></polygon>
                    <path d="M48.9118978,61.9961592 C48.9118978,65.2252573 44.2763794,71.9400769 42.3824826,74.5486074 C41.9909346,75.0878952 41.190856,75.0878952 40.7993081,74.5486074 C38.9055686,71.9400769 34.2698929,65.2252573 34.2698929,61.9961592 C34.2698929,57.9380066 37.5475735,54.6481459 41.5908953,54.6481459 C45.6342172,54.6481459 48.9118978,57.9380066 48.9118978,61.9961592" id="Fill-33" fill="#599AF2" mask="url(#mask-4)"></path>
                    <path d="M45.5677641,62.4249379 C45.5677641,64.6292788 43.7872432,66.4163305 41.5909582,66.4163305 C39.394516,66.4163305 37.6139951,64.6292788 37.6139951,62.4249379 C37.6139951,60.2204393 39.394516,58.4335454 41.5909582,58.4335454 C43.7872432,58.4335454 45.5677641,60.2204393 45.5677641,62.4249379" id="Fill-34" fill="#FFFFFF" mask="url(#mask-4)"></path>
                    <path d="M43.303485,77.5846068 C43.303485,78.4992023 42.5647332,79.240506 41.6536373,79.240506 C40.7423843,79.240506 40.0036324,78.4992023 40.0036324,77.5846068 C40.0036324,76.6700113 40.7423843,75.9287076 41.6536373,75.9287076 C42.5647332,75.9287076 43.303485,76.6700113 43.303485,77.5846068" id="Fill-35" fill="#599AF2" mask="url(#mask-4)"></path>
                    <path d="M44.3060206,112.938323 C44.3060206,114.443342 43.0904924,115.663486 41.590974,115.663486 C40.0914555,115.663486 38.8759273,114.443342 38.8759273,112.938323 C38.8759273,111.433462 40.0914555,110.213318 41.590974,110.213318 C43.0904924,110.213318 44.3060206,111.433462 44.3060206,112.938323 Z" id="Stroke-36" stroke="#FFFFFF" mask="url(#mask-4)"></path>
                    <path d="M35.5789838,36.6073829 C35.5789838,36.9943696 35.2663744,37.3079678 34.880802,37.3079678 C34.4952295,37.3079678 34.1826201,36.9943696 34.1826201,36.6073829 C34.1826201,36.2203962 34.4952295,35.9066402 34.880802,35.9066402 C35.2663744,35.9066402 35.5789838,36.2203962 35.5789838,36.6073829 Z" id="Stroke-37" stroke="#FFFFFF" mask="url(#mask-4)"></path>
                    <path d="M42.0563342,34.3494289 C42.0563342,34.6074727 41.8479803,34.8165907 41.5910369,34.8165907 C41.3339361,34.8165907 41.1255823,34.6074727 41.1255823,34.3494289 C41.1255823,34.091543 41.3339361,33.8824249 41.5910369,33.8824249 C41.8479803,33.8824249 42.0563342,34.091543 42.0563342,34.3494289 Z" id="Stroke-38" stroke="#FFFFFF" mask="url(#mask-4)"></path>
                    <path d="M45.1593749,36.9966265 L38.0225101,36.9966265 C37.8511096,36.9966265 37.7122595,36.8572671 37.7122595,36.6852379 C37.7122595,36.5132088 37.8511096,36.3738493 38.0225101,36.3738493 L45.1593749,36.3738493 C45.3306182,36.3738493 45.4696256,36.5132088 45.4696256,36.6852379 C45.4696256,36.8572671 45.3306182,36.9966265 45.1593749,36.9966265 Z" id="Stroke-39" stroke="#FFFFFF" mask="url(#mask-4)"></path>
                    <path d="M157.118569,56.322921 C152.809183,52.1061544 146.710156,49.7034276 140.315503,49.7034276 L138.219542,49.7034276 L68.6669523,49.7034276 C65.5927509,49.7034276 63.1006821,52.2046371 63.1006821,55.2901146 L63.1006821,102.776165 C63.1006821,105.861642 65.5927509,108.362852 68.6669523,108.362852 L138.219542,108.362852 L189.441557,108.362852 L189.441557,90.3616557 C189.441557,88.811657 188.792751,87.3173706 187.62251,86.172035 L157.118569,56.322921 Z" id="Fill-40" fill="#1284C3" mask="url(#mask-4)"></path>
                    <path d="M152.949134,58.6388282 C152.391532,58.1198999 151.586264,57.822242 150.739798,57.822242 L143.838962,57.822242 C143.409517,57.822242 143.061527,58.1058534 143.061527,58.4557513 L143.061527,81.1617089 C143.061527,81.4756227 143.373822,81.7301943 143.75908,81.7301943 L167.67511,81.7301943 L167.67511,72.3437142 L152.949134,58.6388282 Z" id="Fill-41" fill="#FFFFFF" mask="url(#mask-4)"></path>
                    <path d="M176.694219,80.7374123 L169.086711,73.6575436 L169.086711,81.7301312 L176.141649,81.7301312 C176.772843,81.7301312 177.110141,81.1243991 176.694219,80.7374123" id="Fill-42" fill="#D0E6F3" mask="url(#mask-4)"></path>
                    <path d="M164.568751,83.5639149 L162.39165,83.5639149 C161.751336,83.5639149 161.232102,83.0429347 161.232102,82.4002716 L161.232102,75.6660395 C161.232102,75.0233764 161.751336,74.5023963 162.39165,74.5023963 L164.568751,74.5023963 C165.209065,74.5023963 165.728299,75.0233764 165.728299,75.6660395 L165.728299,82.4002716 C165.728299,83.0429347 165.209065,83.5639149 164.568751,83.5639149" id="Fill-43" fill="#3E479B" mask="url(#mask-4)"></path>
                    <path d="M168.168114,82.6081902 L168.168114,82.6081902 C167.887898,82.8894342 167.433293,82.8894342 167.153234,82.6081902 L164.585372,80.030909 C164.305156,79.749665 164.305156,79.2937088 164.585372,79.0124647 L164.585372,79.0123069 C164.865588,78.7310629 165.320035,78.7310629 165.600252,79.0123069 L168.168114,81.5895881 C168.44833,81.8708321 168.44833,82.3269462 168.168114,82.6081902" id="Fill-44" fill="#3E479B" mask="url(#mask-4)"></path>
                    <path d="M168.168114,82.6081902 L168.168114,82.6081902 C168.095308,82.6812631 164.51807,79.0800138 164.585372,79.0124647 L164.585372,79.0123069 C164.865588,78.7310629 165.320035,78.7310629 165.600252,79.0123069 L168.168114,81.5895881 C168.44833,81.8708321 168.44833,82.3269462 168.168114,82.6081902" id="Fill-45" fill="#599AF2" mask="url(#mask-4)"></path>
                    <path d="M188.229692,92.8241192 L178.891668,92.8241192 L178.891668,90.1305211 C178.891668,89.042476 179.770371,88.1605503 180.854439,88.1605503 L185.281289,88.1605503 C186.909437,88.1605503 188.229692,89.4854906 188.229692,91.1197678 L188.229692,92.8241192 Z" id="Fill-46" fill="#F28393" mask="url(#mask-4)"></path>
                    <path d="M188.229692,92.8241192 L183.318518,92.8241192 L183.318518,90.1305211 C183.318518,89.042476 184.197221,88.1605503 185.281289,88.1605503 C186.909437,88.1605503 188.229692,89.4854906 188.229692,91.1197678 L188.229692,92.8241192 Z" id="Fill-47" fill="#FFFFFF" mask="url(#mask-4)"></path>
                    <polygon id="Fill-48" fill="#3D58A3" mask="url(#mask-4)" points="63.1005405 108.362915 189.441572 108.362915 189.441572 92.8241034 63.1005405 92.8241034"></polygon>
                    <polygon id="Fill-49" fill="#27A9E0" mask="url(#mask-4)" points="63.1005405 98.6372692 189.441572 98.6372692 189.441572 92.8241034 63.1005405 92.8241034"></polygon>
                    <path d="M75.5543273,108.362931 L62.1292658,108.362931 C61.5960373,108.362931 61.1637622,107.92907 61.1637622,107.393886 L61.1637622,101.562412 C61.1637622,101.027386 61.5960373,100.593367 62.1292658,100.593367 L75.5543273,100.593367 C76.0873985,100.593367 76.5196737,101.027386 76.5196737,101.562412 L76.5196737,107.393886 C76.5196737,107.92907 76.0873985,108.362931 75.5543273,108.362931" id="Fill-50" fill="#2B3882" mask="url(#mask-4)"></path>
                    <path d="M190.939157,108.362931 L180.972611,108.362931 C180.43954,108.362931 180.007265,107.92907 180.007265,107.393886 L180.007265,101.562412 C180.007265,101.027386 180.43954,100.593367 180.972611,100.593367 L190.939157,100.593367 C191.472385,100.593367 191.90466,101.027386 191.90466,101.562412 L191.90466,107.393886 C191.90466,107.92907 191.472385,108.362931 190.939157,108.362931" id="Fill-51" fill="#3E479B" mask="url(#mask-4)"></path>
                    <path d="M155.884029,88.160566 L150.082201,88.160566 C149.260894,88.160566 148.594948,87.4923353 148.594948,86.6678578 C148.594948,85.8435382 149.260894,85.1753074 150.082201,85.1753074 L155.884029,85.1753074 C156.705337,85.1753074 157.371125,85.8435382 157.371125,86.6678578 C157.371125,87.4923353 156.705337,88.160566 155.884029,88.160566" id="Fill-52" fill="#FFFFFF" mask="url(#mask-4)"></path>
                    <polygon id="Fill-53" fill="#F28393" mask="url(#mask-4)" points="63.1005405 90.4923979 69.740973 90.4923979 69.740973 86.6679841 63.1005405 86.6679841"></polygon>
                    <polygon id="Fill-54" fill="#FFFFFF" mask="url(#mask-4)" points="63.1005405 93.8185584 69.740973 93.8185584 69.740973 90.4923979 63.1005405 90.4923979"></polygon>
                    <polygon id="Fill-55" fill="#F28393" mask="url(#mask-4)" points="63.1005405 100.544426 69.740973 100.544426 69.740973 92.8241034 63.1005405 92.8241034"></polygon>
                    <path d="M63.1362783,54.6634707 L138.738335,54.6634707 L139.758561,54.6634707 C141.58264,54.6634707 143.061401,53.179285 143.061401,51.3485158 L143.061401,49.7033487 L68.0425514,49.7033487 C65.3190133,49.7033487 63.1167528,51.9299428 63.1362783,54.6634707" id="Fill-56" fill="#27A9E0" mask="url(#mask-4)"></path>
                    <path d="M124.312169,69.6936757 L81.5913042,69.6936757 C81.2555794,69.6936757 80.9833828,69.4206386 80.9833828,69.0835245 L80.9833828,62.3788057 C80.9833828,62.0418495 81.2555794,61.7686545 81.5913042,61.7686545 L124.312169,61.7686545 C124.647894,61.7686545 124.92009,62.0418495 124.92009,62.3788057 L124.92009,69.0835245 C124.92009,69.4206386 124.647894,69.6936757 124.312169,69.6936757" id="Fill-57" fill="#FFFFFF" mask="url(#mask-4)"></path>
                    <path d="M113.327976,76.5071202 L92.5754654,76.5071202 C92.2397405,76.5071202 91.967544,76.234083 91.967544,75.896969 L91.967544,73.1549186 C91.967544,72.8178045 92.2397405,72.5447674 92.5754654,72.5447674 L113.327976,72.5447674 C113.663701,72.5447674 113.935898,72.8178045 113.935898,73.1547607 L113.935898,75.896969 C113.935898,76.234083 113.663701,76.5071202 113.327976,76.5071202" id="Fill-58" fill="#FFFFFF" mask="url(#mask-4)"></path>
                    <g id="Group-61" mask="url(#mask-4)">
                        <g transform="translate(168.255528, 85.067639)">
                            <line x1="0.3988" y1="0.10766817" x2="0.3988" y2="13.5696615" id="Fill-59" stroke="none" fill="#7F5E07" fill-rule="evenodd"></line>
                            <line x1="0.3988" y1="0.10766817" x2="0.3988" y2="13.5696615" id="Stroke-60" stroke="#599AF2" stroke-width="1" fill="none"></line>
                        </g>
                    </g>
                    <g id="Group-67" mask="url(#mask-4)">
                        <g transform="translate(138.063882, 54.923077)">
                            <line x1="0.4948" y1="0.156988462" x2="0.4948" y2="53.4397908" id="Fill-65" stroke="none" fill="#7F5E07" fill-rule="evenodd"></line>
                            <line x1="0.4948" y1="0.156988462" x2="0.4948" y2="53.4397908" id="Stroke-66" stroke="#599AF2" stroke-width="1" fill="none"></line>
                        </g>
                    </g>
                    <path d="M164.953742,114.222797 C161.59382,114.222797 158.869968,111.488954 158.869968,108.11655 C158.869968,104.743989 161.59382,102.010146 164.953742,102.010146 C168.31382,102.010146 171.037673,104.743989 171.037673,108.11655 C171.037673,111.488954 168.31382,114.222797 164.953742,114.222797 M164.953742,97.0700676 C159.011019,97.0700676 154.19325,101.90535 154.19325,107.870028 C154.19325,113.834548 159.011019,118.669988 164.953742,118.669988 C170.896621,118.669988 175.71439,113.834548 175.71439,107.870028 C175.71439,101.90535 170.896621,97.0700676 164.953742,97.0700676" id="Fill-68" fill="#2B3882" mask="url(#mask-4)"></path>
                    <path d="M164.953742,102.010177 C161.59382,102.010177 158.869968,104.744021 158.869968,108.116424 C158.869968,111.488985 161.59382,114.222829 164.953742,114.222829 C168.31382,114.222829 171.037673,111.488985 171.037673,108.116424 C171.037673,104.744021 168.31382,102.010177 164.953742,102.010177" id="Fill-69" fill="#FFFFFF" mask="url(#mask-4)"></path>
                    <path d="M167.409659,108.116487 C167.409659,109.477727 166.31018,110.581239 164.953757,110.581239 C163.597492,110.581239 162.49817,109.477727 162.49817,108.116487 C162.49817,106.755247 163.597492,105.651735 164.953757,105.651735 C166.31018,105.651735 167.409659,106.755247 167.409659,108.116487" id="Fill-70" fill="#599AF2" mask="url(#mask-4)"></path>
                    <path d="M94.5775961,114.222797 C91.2175174,114.222797 88.4936649,111.488954 88.4936649,108.11655 C88.4936649,104.743989 91.2175174,102.010146 94.5775961,102.010146 C97.9376747,102.010146 100.661527,104.743989 100.661527,108.11655 C100.661527,111.488954 97.9376747,114.222797 94.5775961,114.222797 M94.5775961,97.0700676 C88.6347165,97.0700676 83.8171047,101.90535 83.8171047,107.870028 C83.8171047,113.834548 88.6347165,118.669988 94.5775961,118.669988 C100.520318,118.669988 105.338087,113.834548 105.338087,107.870028 C105.338087,101.90535 100.520318,97.0700676 94.5775961,97.0700676" id="Fill-71" fill="#2B3882" mask="url(#mask-4)"></path>
                    <path d="M94.5775961,102.010177 C91.2175174,102.010177 88.4936649,104.744021 88.4936649,108.116424 C88.4936649,111.488985 91.2175174,114.222829 94.5775961,114.222829 C97.9376747,114.222829 100.661527,111.488985 100.661527,108.116424 C100.661527,104.744021 97.9376747,102.010177 94.5775961,102.010177" id="Fill-72" fill="#FFFFFF" mask="url(#mask-4)"></path>
                    <path d="M97.033372,108.116487 C97.033372,109.477727 95.9338929,110.581239 94.5776275,110.581239 C93.2213622,110.581239 92.121883,109.477727 92.121883,108.116487 C92.121883,106.755247 93.2213622,105.651735 94.5776275,105.651735 C95.9338929,105.651735 97.033372,106.755247 97.033372,108.116487" id="Fill-73" fill="#599AF2" mask="url(#mask-4)"></path>
                    <path d="M133.827978,118.27369 C133.765079,119.056028 132.664657,119.056186 131.417207,118.901675 C130.169757,118.747007 126.404607,118.505061 126.321895,118.253804 C126.247988,118.030639 127.09131,117.849614 127.993757,117.636393 C128.107133,117.609878 128.220981,117.581943 128.334829,117.55385 C129.352539,117.302435 130.231556,116.750048 130.904578,115.884536 C131.662829,114.909493 132.355978,110.469247 132.355978,110.469247 L135.088008,110.980599 C135.088008,110.980599 133.4976,114.786548 133.334534,116.034785 C133.261413,116.594906 133.65815,116.968635 133.751241,117.45884 C133.801089,117.725406 133.850465,117.998285 133.827978,118.27369" id="Fill-74" fill="#B77446" mask="url(#mask-4)"></path>
                    <path d="M133.827821,118.27369 C133.764765,119.055554 132.664657,119.056344 131.417521,118.901675 C130.56272,118.795459 130.448086,118.911934 129.898504,119 L127.705364,119 C126.751182,118.834599 126.384951,118.446666 126.322052,118.253488 C126.247831,118.030955 127.09131,117.849614 127.993757,117.636393 L128.004293,117.652806 C128.004293,117.652806 129.125629,118.267692 130.565865,118.133225 C131.740352,118.023537 132.940942,117.540751 133.751241,117.45884 C133.800932,117.725721 133.85015,117.997812 133.827821,118.27369" id="Fill-75" fill="#14A884" mask="url(#mask-4)"></path>
                    <path d="M131.385254,113.666717 C131.385254,113.666717 132.101048,114.14177 132.773755,114.264558 C133.782817,114.448581 134.251259,114.244356 134.251259,114.244356 C134.251259,114.244356 139.105195,102.01245 138.828124,97.8793308 C138.821362,97.7797432 138.817903,97.6741584 138.816645,97.5624183 C138.808625,96.8454196 138.911308,95.8896318 139.088684,94.789592 C139.154099,94.3861915 139.229421,93.963852 139.313077,93.5269926 C139.507593,92.507917 139.748812,91.4083507 140.01346,90.2873202 C140.129824,89.7938016 140.251534,89.2960218 140.374974,88.7988732 C141.595062,83.9080363 143.086247,79.0885363 143.086247,79.0885363 C143.086247,79.0885363 134.32721,76.2170695 133.831878,78.9007247 C133.641608,79.930848 133.008527,84.0522883 133.293618,90.3543958 C133.523672,95.4273626 133.374915,99.3843493 132.938237,103.976897 C132.554237,108.009955 131.897254,111.478947 131.385254,113.666717" id="Fill-76" fill="#9E69CE" mask="url(#mask-4)"></path>
                    <path d="M138.816613,97.5624025 C138.808594,96.8454038 138.911277,95.889616 139.088653,94.7895763 C139.154068,94.3861757 139.22939,93.9638362 139.313046,93.5269768 C139.507719,92.5079012 139.74878,91.4083349 140.013429,90.2873044 C140.129793,89.7937858 140.251503,89.296006 140.3751,88.7988574 C140.20197,87.3066227 140.06249,86.2824967 140.06249,86.2824967 C140.06249,86.2824967 136.425655,91.2400935 138.816613,97.5624025" id="Fill-77" fill="#4B1787" mask="url(#mask-4)"></path>
                    <path d="M144.8782,118.27369 C144.814986,119.056028 143.714878,119.056186 142.467271,118.901675 C141.219978,118.747007 137.454671,118.505061 137.371801,118.253804 C137.298052,118.030639 138.141531,117.849614 139.043664,117.636393 C139.157354,117.609878 139.271202,117.581943 139.38505,117.55385 C140.402445,117.302435 141.080814,116.544402 141.954485,115.884536 C142.782396,115.259865 142.203251,112.228837 142.203251,112.228837 L144.7719,111.307928 C144.7719,111.307928 144.384598,114.357106 144.384598,116.034785 C144.384598,116.599956 144.708371,116.968635 144.801305,117.45884 C144.851153,117.725406 144.900686,117.998285 144.8782,118.27369" id="Fill-78" fill="#B77446" mask="url(#mask-4)"></path>
                    <path d="M144.877806,118.27369 C144.815064,119.055554 143.714485,119.056344 142.467507,118.901675 C141.612863,118.795459 141.498386,118.911934 140.948647,119 L138.755507,119 C137.801325,118.834599 137.434937,118.446666 137.372037,118.253488 C137.297816,118.030955 138.141138,117.849614 139.043743,117.636393 L139.054121,117.652806 C139.054121,117.652806 140.175615,118.267692 141.615851,118.133225 C142.790337,118.023537 143.990927,117.540751 144.801541,117.45884 C144.85076,117.725721 144.900293,117.997812 144.877806,118.27369" id="Fill-79" fill="#14A884" mask="url(#mask-4)"></path>
                    <path d="M137.810021,78.1314544 C137.810021,78.1314544 140.659829,92.3862024 141.141166,100.144718 C141.622659,107.903076 142.223505,114.326236 142.223505,114.326236 C142.223505,114.326236 142.845264,114.551452 143.558856,114.510417 C144.312389,114.467331 144.909618,114.234066 144.909618,114.234066 C144.909618,114.234066 147.734109,102.561334 146.79864,97.8889265 C145.863013,93.2163615 146.642335,88.9064782 147.091279,85.031087 C147.735367,79.4740711 145.257765,76.891266 143.52835,75.1304133 C141.777549,73.3482541 137.810021,78.1314544 137.810021,78.1314544" id="Fill-80" fill="#9E69CE" mask="url(#mask-4)"></path>
                    <path d="M135.790278,52.0223651 C135.507074,49.7015495 136.229315,45.9879288 140.844548,46.5813505 C145.459782,47.1747723 146.914327,51.7270747 145.983418,53.7511794 C145.052509,55.7751264 147.32333,56.2634367 148.036136,58.4401582 C148.64846,60.310068 148.861846,62.6318306 149.852824,63.6737908 C153.047949,67.0329367 146.785384,72.1991781 143.010485,71.1095548 C136.134023,69.1253797 135.248401,68.8293001 135.49245,63.4067511 C135.617462,60.6282431 137.77129,59.5518771 136.40386,58.7479168 C133.100548,56.8060389 136.431064,57.273832 135.790278,52.0223651" id="Fill-81" fill="#4B1787" mask="url(#mask-4)"></path>
                    <path d="M137.187397,59.4752846 L138.552625,61.5304809 L141.303053,61.3945936 L142.57346,58.0984199 C142.57346,58.0984199 142.181598,58.0239265 141.999033,53.9136918 L138.565991,54.964648 C138.565991,54.964648 138.748556,56.036595 138.505293,57.203079 C138.336409,58.0168244 137.964674,58.885335 137.187397,59.4752846" id="Fill-82" fill="#D9935C" mask="url(#mask-4)"></path>
                    <path d="M136.804717,58.025268 C136.981464,58.025268 140.21543,56.9394325 144.833179,58.8270187 C144.833179,58.8270187 142.640826,71.4154511 143.582742,73.8177044 C144.524187,76.2202733 144.882084,78.352646 144.882084,78.352646 L134.666457,78.4798529 C134.666457,78.4798529 134.809396,70.233658 134.33828,67.3150015 C133.867636,64.396345 136.804717,58.025268 136.804717,58.025268" id="Fill-83" fill="#D9935C" mask="url(#mask-4)"></path>
                    <path d="M144.826528,72.8356861 C144.765987,72.593267 144.724945,72.3776781 144.708906,72.1991781 C144.574616,70.6796397 144.803255,69.4408718 145.183009,68.2254619 C145.183638,68.2240415 145.184267,68.2229367 145.184267,68.221832 C145.1904,68.202893 145.196375,68.1831649 145.202665,68.164068 C145.213044,68.1320296 145.225781,68.0831038 145.241034,68.019816 C145.241663,68.01808 145.241663,68.0168174 145.242292,68.0147656 C145.257073,67.9573174 145.272955,67.8878744 145.291353,67.8086463 C145.296857,67.782763 145.30299,67.7553015 145.308965,67.7251569 C145.572041,66.5433638 146.148828,63.5746768 146.301044,63.1703293 C146.351363,63.0363359 146.408759,62.8055959 146.457663,62.5219845 C146.611923,61.6282219 146.67954,60.2063771 146.160464,59.612324 C145.437437,58.7853214 142.955746,58.191584 142.955746,58.191584 C142.451294,58.9852855 140.742636,60.9265322 138.598243,60.5717418 C137.358498,60.3660959 137.16697,57.9449036 137.16697,57.9449036 C135.834921,58.1290853 135.494164,58.3323638 135.494164,58.3323638 C135.494164,58.3323638 132.300926,60.3321635 127.788847,66.700084 C127.645909,66.9024155 127.305152,66.8792153 126.472051,66.717129 C125.41157,66.5097471 123.246891,66.5365773 119.980847,66.0553691 C119.980847,66.0553691 119.868415,66.1372802 119.837751,66.4957007 C119.770606,67.2868771 119.691511,67.5210893 119.691511,67.5210893 C119.691511,67.5210893 121.842194,68.5385866 124.129525,69.2653704 C124.938724,69.5232564 125.784719,69.7637816 126.592031,69.9451224 C127.343678,70.1136794 128.062459,70.2309434 128.686262,70.2606145 C128.686262,70.2606145 131.292965,69.2551118 133.818528,66.4617683 C133.965712,68.8065733 134.291687,71.8347603 134.091825,74.0462033 C133.977348,75.3051728 133.119245,79.5415097 133.334518,80.246198 C133.783461,81.714759 137.229398,81.7906728 140.307058,81.637267 C140.374518,81.6344261 140.441034,81.6306383 140.508336,81.6262192 C140.985427,81.5985999 141.453869,81.5569341 141.891176,81.5076927 C142.715786,81.4150495 143.430793,81.2947869 143.895461,81.1873081 C144.496149,81.0493691 145.250312,80.8508253 145.863737,80.5537988 C146.334066,80.3260574 146.720739,80.0407099 146.891353,79.6797643 C146.595255,78.0817869 145.169643,74.6012736 144.826528,72.8356861" id="Fill-84" fill="#D86600" mask="url(#mask-4)"></path>
                    <path d="M138.122363,76.9036869 C138.705282,78.8883354 139.043994,80.5219813 140.508289,81.6262824 C140.98538,81.598663 141.453822,81.5568394 141.891286,81.5077558 C142.715739,81.4151126 143.430746,81.2946922 143.895414,81.187529 C144.496102,81.0494322 145.250264,80.8508885 145.863689,80.5538619 C146.334019,80.3261206 146.720692,80.0407731 146.891306,79.6798275 C146.595208,78.08185 145.169596,74.6011789 144.826481,72.8357492 C144.792672,72.6638779 144.769557,72.5084203 144.758549,72.3728487 C144.631336,70.7914428 144.835601,69.4923858 145.182962,68.2255251 C145.183591,68.2241046 145.184377,68.2229999 145.184377,68.2217373 C145.203247,68.1541882 145.222274,68.0874282 145.241144,68.0198792 C145.241616,68.0179853 145.241616,68.0167227 145.242245,68.0148288 C145.25451,67.9712691 145.271021,67.9007214 145.291306,67.8087094 C145.29681,67.7828261 145.302943,67.7552068 145.309075,67.72522 C145.543847,66.6054521 146.15853,63.09148 146.315149,62.6331564 C146.364682,62.4881153 146.420348,62.239541 146.468623,61.9333606 L145.238628,60.7454123 C145.238628,60.7454123 138.181645,63.7699694 136.62709,67.9419137 C135.072377,72.1137001 137.285016,74.0566829 138.122363,76.9036869" id="Fill-85" fill="#D86600" mask="url(#mask-4)"></path>
                    <path d="M124.129572,69.2653546 C125.691676,69.7625032 127.391371,70.1984156 128.68631,70.2605987 C128.68631,70.2605987 131.327607,69.24247 133.869209,66.4065138 C133.976138,65.9246743 134.07945,65.1161371 133.497946,65.3494024 C132.681985,65.6767313 129.664865,69.5650642 128.522771,69.6466597 C127.705867,69.7048971 125.382683,69.4280721 124.129572,69.2653546" id="Fill-86" fill="#008D6A" mask="url(#mask-4)"></path>
                    <path d="M129.703018,68.158118 C129.703018,68.158118 133.181547,69.9117109 136.197724,70.6372321 C137.065576,70.8460345 137.901665,70.9940743 138.614785,71.0278488 C138.614785,71.0278488 141.926589,70.074744 144.333586,66.5465676 C148.784338,60.0220849 145.423316,59.0995981 145.423316,59.0995981 C145.423316,59.0995981 142.229449,61.0997135 137.717999,67.4673183 C137.560279,67.6901671 137.163857,67.6399788 136.137498,67.4316499 C135.041478,67.2094324 132.859974,67.2359469 129.848358,66.7921432 C129.848358,66.7921432 129.797409,66.9043568 129.766903,67.262935 C129.699129,68.0542692 129.703018,68.158118 129.703018,68.158118" id="Fill-87" fill="#D86600" mask="url(#mask-4)"></path>
                    <path d="M126.47202,66.7171922 C125.422231,66.5117041 123.189936,66.4959216 119.976885,66.0287598 C119.72686,65.949216 119.443184,65.8441046 119.179636,65.7116895 C118.491204,65.3660529 116.655332,65.1357863 116.265356,65.5041497 C115.875066,65.8729866 116.678447,67.3699561 118.353455,67.416041 C118.940462,67.4321391 119.3806,67.4766458 119.705002,67.5276232 C119.881907,67.6104813 121.942644,68.5703725 124.129651,69.2654336 C124.93885,69.5231617 125.784688,69.7638447 126.592,69.9450277 C126.916088,68.4980887 126.692167,67.3704296 126.47202,66.7171922" id="Fill-88" fill="#A86337" mask="url(#mask-4)"></path>
                    <path d="M138.505341,57.2030001 C139.924348,57.0879458 141.99908,53.9136129 141.99908,53.9136129 L138.565881,54.9645691 C138.565881,54.9645691 138.748446,56.036516 138.505341,57.2030001" id="Fill-89" fill="#CC7C46" mask="url(#mask-4)"></path>
                    <path d="M137.666815,55.1976607 C137.666815,55.1976607 141.777753,56.0263995 142.252328,53.4489605 C142.727218,50.8716793 143.577301,49.242926 140.972643,48.6048398 C138.368142,47.9669114 137.675621,48.855308 137.308918,49.6771024 C136.941901,50.498739 136.609793,54.9159432 137.666815,55.1976607" id="Fill-90" fill="#D9935C" mask="url(#mask-4)"></path>
                    <path d="M139.675723,47.9614507 C139.675723,47.9614507 139.603703,48.835643 140.955723,50.3190395 C142.307743,51.8022782 141.985384,54.4467928 141.985384,54.4467928 C141.985384,54.4467928 144.26391,50.1481151 143.048381,48.7756695 C141.832696,47.4032239 139.675723,47.9614507 139.675723,47.9614507" id="Fill-91" fill="#4B1787" mask="url(#mask-4)"></path>
                    <path d="M141.328826,46.8240064 C141.328826,46.8240064 139.285071,46.1376257 137.257042,48.143265 C136.383371,49.0073565 136.515459,50.7061841 136.983273,51.6918008 C136.983273,51.6918008 137.702054,49.5796297 139.010044,49.1189387 C140.318192,48.6582477 141.328826,46.8240064 141.328826,46.8240064" id="Fill-92" fill="#4B1787" mask="url(#mask-4)"></path>
                    <polygon id="Fill-93" fill="#00BAE4" mask="url(#mask-4)" points="125.129812 60.8545483 116.376436 61.0524607 118.385439 73.2584833 127.246215 73.5466716"></polygon>
                    <path d="M136.197677,70.6372321 C135.535819,69.3231817 135.794492,68.1745318 136.137608,67.4316499 C135.041431,67.2094324 132.844674,67.1130013 129.833057,66.6691976 C129.833057,66.6691976 129.832586,66.6714072 129.832271,66.6744058 C129.507711,66.5883912 129.027947,66.439878 128.598188,66.2244469 C127.863367,65.8554523 125.903583,65.6097188 125.486876,66.0031764 C125.07064,66.396634 125.927957,67.9947692 127.716497,68.0438528 C128.707003,68.0711565 129.306119,68.1737427 129.644202,68.2599151 C129.941873,68.3976963 133.317205,69.9442228 136.197677,70.6372321" id="Fill-94" fill="#F5A623" mask="url(#mask-4)"></path>
                    <path d="M104.595955,69.5045541 C104.595955,69.5045541 102.506441,70.48007 100.267542,71.1909135 C99.4713946,71.4385408 98.6588934,71.6699122 97.8627459,71.8517265 C97.1331145,72.0174427 96.4365052,72.1331284 95.8229229,72.1493844 C95.8229229,72.1493844 95.7733897,72.1331284 95.6738516,72.0830979 C95.1099597,71.8354706 92.9040826,70.7941416 90.7648786,68.4297663 C90.5989818,68.231696 90.416574,68.0331523 90.2505199,67.8183525 C90.118117,67.6695236 89.9853995,66.1984374 89.8858614,64.6612225 L89.8693504,64.6441775 C89.753144,62.842448 89.6702742,60.9247172 89.6702742,60.9247172 C89.6702742,60.9247172 92.5559351,61.702005 96.70194,68.7111682 C96.8179892,68.9093963 97.1662939,68.8762531 97.9787951,68.727582 C99.0235518,68.5290382 101.130048,68.5457676 104.314009,68.0827093 C104.314009,68.0827093 104.430058,68.1655674 104.463395,68.5126244 C104.513085,69.2728671 104.595955,69.5045541 104.595955,69.5045541" id="Fill-95" fill="#E52998" mask="url(#mask-4)"></path>
                    <path d="M95.6738044,72.0830821 C95.1099125,71.8354548 92.9041926,70.7941259 90.7648314,68.4299084 C90.5990919,68.2316802 90.4165268,68.0331365 90.25063,67.8184946 C90.1180698,67.6695078 89.9853523,66.1984216 89.8858143,64.6612068 C90.2839666,65.0573473 94.9275047,69.554411 95.6738044,72.0830821" id="Fill-96" fill="#E52998" mask="url(#mask-4)"></path>
                    <path d="M85.2452167,48.7046483 C85.2452167,48.7046483 84.9810398,48.1653605 83.6607843,48.3132424 C82.3405287,48.4609666 80.0574428,48.7044905 80.037944,55.9199308 C80.0357425,56.710318 75.2873199,63.9159732 80.6425631,70.7005515 L84.4652658,60.9960541 L85.2452167,48.7046483 Z" id="Fill-97" fill="#6B2BA7" mask="url(#mask-4)"></path>
                    <path d="M85.626512,48.7991223 C85.626512,48.7991223 84.2181975,48.3254897 83.477087,49.0273371 C82.7358192,49.7293424 83.155829,50.6578265 83.155829,50.6578265 L85.626512,48.7991223 Z" id="Fill-98" fill="#9E69CE" mask="url(#mask-4)"></path>
                    <path d="M90.0735214,51.5639942 C90.0735214,51.5639942 90.0474182,48.469205 85.0503862,48.8254159 C84.2009317,48.8860207 83.430573,49.3707011 83.0426418,50.1263668 C82.4806369,51.2211984 82.235487,53.1488721 84.0517032,56.2397156 L90.0735214,51.5639942 Z" id="Fill-99" fill="#6B2BA7" mask="url(#mask-4)"></path>
                    <path d="M83.7475066,60.6514118 L84.8732462,65.0386293 L88.1267106,65.1970855 L89.7458948,62.7782606 C88.2320668,61.6345033 88.0178948,59.6291797 88.0400668,58.4396532 C88.0400668,58.4279741 88.0406958,58.4164529 88.0406958,58.4047739 C88.0539047,57.8446532 88.1177474,57.4736068 88.1177474,57.4736068 L85.8095017,56.7730219 L84.0514673,56.2397314 C84.2131184,57.5765086 84.2021111,58.5411346 84.1291479,59.2212023 C84.0141995,60.2846267 83.7475066,60.6514118 83.7475066,60.6514118" id="Fill-100" fill="#F5A623" mask="url(#mask-4)"></path>
                    <path d="M80.4632688,83.3407504 L92.2683597,83.3251257 C92.2683597,83.3251257 90.7995047,75.4357729 91.6149936,72.8499692 C92.4301681,70.2641655 91.5750526,66.4863101 91.5750526,66.4863101 C90.3892442,63.6787623 90.0870133,61.0505037 89.5594457,60.9130382 C89.2696373,60.8369666 89.0359666,60.681509 88.7519764,60.6245342 C84.114571,59.7009427 80.3448609,61.3825674 80.3448609,61.3825674 C79.3040354,63.988257 81.5327135,65.945444 81.6409002,71.8291576 C81.7472,77.6124944 80.4632688,83.3407504 80.4632688,83.3407504" id="Fill-101" fill="#F5A623" mask="url(#mask-4)"></path>
                    <path d="M92.9704885,83.8866668 C92.9704885,83.8866668 83.9818693,85.7381111 78.840798,83.8203804 C78.5590093,83.7050103 79.6367882,79.8365634 80.383088,77.1914175 C80.7480609,75.8854162 81.0298496,74.8772305 81.0133386,74.7448154 C80.8309307,71.1411987 80.1178103,68.0662955 79.7860167,65.685822 C79.6864786,65.0573631 79.6202771,64.4956642 79.6037661,63.9664772 L79.6037661,63.7021204 C79.587255,62.842448 79.7033042,62.148334 80.0016039,61.5695899 C80.5654958,60.528261 83.6003853,60.5115316 83.6003853,60.5115316 C83.8989995,60.8589042 85.5406703,61.9993472 87.4976236,61.9829334 C89.4712452,61.9663618 88.4955204,60.5759241 88.4955204,60.5759241 C88.5783902,60.5923379 88.7084344,60.6108034 88.7746359,60.6272172 C89.7531912,60.8421748 90.4166211,61.3049175 90.4166211,61.3049175 C91.9919332,63.0242623 92.5061346,71.5875276 92.4729553,71.868456 C92.4064393,72.9096271 92.9704885,83.8866668 92.9704885,83.8866668" id="Fill-102" fill="#E52998" mask="url(#mask-4)"></path>
                    <path d="M84.1291165,59.2212812 C85.5267381,58.4760318 87.69063,58.4403634 88.0400354,58.4397321 L88.0883106,58.4397321 C88.0883106,58.4397321 88.0716423,58.4274218 88.0406644,58.404695 C87.8095096,58.2347175 86.7716717,57.4730544 85.8096275,56.772943 L84.0514359,56.2396525 C84.213087,57.5764297 84.2020796,58.5410557 84.1291165,59.2212812" id="Fill-103" fill="#F5A623" mask="url(#mask-4)"></path>
                    <path d="M88.9085956,58.5041247 C88.9085956,58.5041247 83.9489887,58.73013 83.8552688,55.6490716 C83.7618634,52.5683289 83.0586496,50.5226021 86.2212246,50.2479867 C89.3839568,49.9735292 90.0351214,51.1305438 90.3173818,52.1513554 C90.599485,53.1721671 90.1961435,58.3660279 88.9085956,58.5041247" id="Fill-104" fill="#F5A623" mask="url(#mask-4)"></path>
                    <path d="M88.4066123,51.4642804 C88.4066123,51.4642804 90.5307204,52.9208467 90.1902781,54.6094156 C90.1902781,54.6094156 91.2424256,54.0579753 91.1433592,52.4478454 C91.0441356,50.838031 89.5032609,49.7310469 88.1469956,49.6470841 C86.7908875,49.5631212 85.7692462,49.6726517 85.7692462,49.6726517 L88.4066123,51.4642804 Z" id="Fill-105" fill="#6B2BA7" mask="url(#mask-4)"></path>
                    <path d="M88.7794477,50.9297589 C89.6595656,51.3943955 86.0217867,51.7856435 85.7992806,53.2632005 C85.5770889,54.7409154 83.8424845,55.3064021 83.8424845,55.3064021 C83.8424845,55.3064021 81.6425828,47.1620042 88.7794477,50.9297589" id="Fill-106" fill="#6B2BA7" mask="url(#mask-4)"></path>
                    <path d="M91.6602968,71.1412145 C91.6602968,71.1412145 87.6966998,76.4476044 80.383088,77.1914333 C80.7480609,75.885432 81.0298496,74.8772463 81.0133386,74.7448312 C80.8309307,71.1412145 80.1178103,68.0663113 79.7860167,65.6858378 C79.6864786,65.0573789 79.6202771,64.49568 79.6037661,63.966493 L79.6037661,63.7021362 C80.4494467,63.8676946 81.7596383,64.7434651 82.3235302,64.8757224 C86.6849651,65.9009532 91.6602968,71.1412145 91.6602968,71.1412145" id="Fill-107" fill="#E52998" mask="url(#mask-4)"></path>
                    <path d="M96.0846281,69.8960389 C96.0846281,69.8960389 92.6911686,71.5953399 89.7490555,72.2982922 C88.9024314,72.5004659 88.0867853,72.643771 87.3911194,72.6764407 C87.3911194,72.6764407 84.2271292,71.7066065 81.8124265,68.3348346 C77.1484462,61.8225044 80.7492717,61.1201834 80.7492717,61.1201834 C80.7492717,61.1201834 83.8648295,63.0578001 88.2657337,69.227019 C88.4198369,69.4429235 88.8063528,69.3939977 89.8075518,69.1924553 C90.8766821,68.9773399 93.0050359,69.0029076 95.9429032,68.5728346 C95.9429032,68.5728346 95.9922791,68.6817338 96.0223135,69.0289487 C96.088515,69.7955044 96.0846281,69.8960389 96.0846281,69.8960389" id="Fill-108" fill="#E52998" mask="url(#mask-4)"></path>
                    <path d="M104.598093,69.502092 C104.598093,69.502092 102.500088,70.4878666 100.26858,71.1920814 C99.4791941,71.4417605 98.6539558,71.6750257 97.866457,71.8505271 C97.550231,70.4485682 97.7686486,69.3559462 97.9836069,68.723226 C99.0179853,68.522157 101.229209,68.5087419 104.415371,68.0425271 L104.598093,69.502092 Z" id="Fill-109" fill="#A86337" mask="url(#mask-4)"></path>
                    <path d="M103.619743,68.2399503 C103.619743,68.2399503 104.425639,68.0838614 105.097246,67.7491147 C105.768853,67.414368 107.559752,67.1910458 107.94045,67.5482036 C108.320833,67.9052036 107.537266,69.3556147 105.903143,69.4002792 C104.26902,69.4449436 103.799005,69.7127725 103.799005,69.7127725 L103.619743,68.2399503 Z" id="Fill-110" fill="#F5A623" mask="url(#mask-4)"></path>
                    <path d="M96.1628934,69.9852731 C96.1628934,69.9852731 92.6911686,71.5952452 89.7490555,72.2981975 C90.3945592,71.0248659 90.1423332,69.9122001 89.8075518,69.1925184 C90.8766821,68.9772452 93.0199744,68.8838129 95.9576845,68.4538977 C95.9576845,68.4538977 95.9922791,68.6816391 96.0221563,69.028854 C96.088515,69.7955675 96.1628934,69.9852731 96.1628934,69.9852731" id="Fill-111" fill="#F5A623" mask="url(#mask-4)"></path>
                    <path d="M59.7475066,83.4561836 L59.7475066,83.3409714 L47.425541,83.3409714 C45.8997622,83.3409714 44.6725975,84.5477008 44.6725975,86.0191027 C44.6725975,87.3590363 45.6682929,88.4571822 46.9808432,88.662039 L46.9808432,118.669925 L93.314799,118.669925 L93.314799,83.4561836 L59.7475066,83.4561836 Z" id="Fill-112" fill="#4B1787" mask="url(#mask-4)"></path>
                    <polygon id="Fill-113" fill="#1C75BB" mask="url(#mask-4)" points="97.2653759 72.3360597 104.666889 72.3360597 104.666889 64.9580597 97.2653759 64.9580597"></polygon>
                    <polygon id="Fill-114" fill="#FEBA40" mask="url(#mask-4)" points="99.5473612 72.3360597 106.949032 72.3360597 106.949032 64.9580597 99.5473612 64.9580597"></polygon>
                    <polygon id="Fill-115" fill="#9E69CE" mask="url(#mask-4)" points="99.5474241 64.9579966 97.2652816 66.3370708 97.2652816 64.9579966"></polygon>
                    <polygon id="Fill-116" fill="#6B2BA7" mask="url(#mask-4)" points="100.792971 66.5542853 98.3040472 66.5542853 98.4086172 66.2643609 98.3040472 65.951394 100.769856 65.951394 100.618583 66.2758821"></polygon>
                    <polygon id="Fill-117" fill="#9E69CE" mask="url(#mask-4)" points="99.5486506 65.9513467 99.5486506 66.5542379 98.3040314 66.5542379 98.4086015 66.2643135 98.3040314 65.9513467"></polygon>
                    <polygon id="Fill-118" fill="#6B2BA7" mask="url(#mask-4)" points="100.792971 71.0096042 98.3040472 71.0096042 98.4086172 70.7198377 98.3040472 70.4068708 100.769856 70.4068708 100.618583 70.7313589"></polygon>
                    <polygon id="Fill-119" fill="#9E69CE" mask="url(#mask-4)" points="99.5486506 70.4068077 99.5486506 71.0095411 98.3040314 71.0095411 98.4086015 70.7197745 98.3040314 70.4068077"></polygon>
                    <path d="M95.5848963,68.5469671 C95.5848963,68.5469671 96.4453582,68.3799883 97.1622526,68.0228305 C97.8791469,67.665357 99.7911273,67.4271992 100.197299,67.8083464 C100.603629,68.1894936 99.7670683,69.7380719 98.0225572,69.785735 C96.2778889,69.8332403 95.7762673,70.1190613 95.7762673,70.1190613 L95.5848963,68.5469671 Z" id="Fill-120" fill="#F5A623" mask="url(#mask-4)"></path>
                    <polygon id="Fill-121" fill="#F3C2BC" mask="url(#mask-4)" points="59.8335528 118.669988 106.167509 118.669988 106.167509 83.4562467 59.8335528 83.4562467"></polygon>
                    <path d="M112.999045,83.3409082 L47.4254624,83.3409082 C45.8998408,83.3409082 44.6725189,84.5476377 44.6725189,86.0191973 C44.6725189,87.5068552 45.8998408,88.697013 47.4254624,88.697013 L112.999045,88.697013 C114.690878,88.697013 116.067428,87.4901257 116.067428,86.0191973 C116.067428,84.5476377 114.690878,83.3409082 112.999045,83.3409082" id="Fill-122" fill="#E07070" mask="url(#mask-4)"></path>
                    <path d="M52.1294939,112.507998 C52.1294939,115.911019 49.3809533,118.669956 45.9902113,118.669956 C42.5996265,118.669956 39.8509287,115.911019 39.8509287,112.507998 C39.8509287,109.104976 42.5996265,106.346197 45.9902113,106.346197 C49.3809533,106.346197 52.1294939,109.104976 52.1294939,112.507998" id="Fill-123" fill="#2B3882" mask="url(#mask-4)"></path>
                    <path d="M49.4613543,112.648714 C49.4613543,114.572758 47.9072708,116.132542 45.9902585,116.132542 C44.0730889,116.132542 42.5190054,114.572758 42.5190054,112.648714 C42.5190054,110.724671 44.0730889,109.164887 45.9902585,109.164887 C47.9072708,109.164887 49.4613543,110.724671 49.4613543,112.648714" id="Fill-124" fill="#FFFFFF" mask="url(#mask-4)"></path>
                    <path d="M37.4538221,103.737777 L45.7422152,103.737777 C49.1897238,103.737777 51.9844953,106.542799 51.9844953,110.002953 L37.4538221,110.002953 L37.4538221,103.737777 Z" id="Fill-125" fill="#4C65BA" mask="url(#mask-4)"></path>
                    <path d="M43.3442595,99.5201103 L38.286687,92.6136912 C37.8438762,92.0090639 37.5246624,91.3225255 37.3472865,90.5935321 L37.322913,90.4936289 L38.8806133,90.1118504 C38.9985494,90.0829684 39.0707263,89.963495 39.0419499,89.8452841 L38.1759843,86.2864897 C38.0665396,85.8366886 37.6144511,85.5611263 37.1661366,85.6709724 L35.6353258,86.0462801 C34.3730948,86.355617 33.5999057,87.6333676 33.908112,88.9000706 C33.9128295,88.9199565 33.9200629,88.9385798 33.9254093,88.9581501 L33.9221071,88.957361 L35.4198958,95.1130069 L36.6215862,93.2443597 L36.6215862,110.003 L18.1373799,110.003 L18.1373799,112.543982 C18.1373799,113.793482 19.1465985,114.806244 20.3915322,114.806244 L35.2863921,114.806244 C36.8804167,114.806244 38.2692324,113.936945 39.0171047,112.647041 L39.0188344,112.648777 L43.6795125,105.216328 C44.7014683,103.418386 44.5700088,101.18469 43.3442595,99.5201103" id="Fill-126" fill="#27A9E0" mask="url(#mask-4)"></path>
                    <path d="M26.2968767,84.4462983 L27.5355204,84.1426431 C28.675884,83.863293 29.8033533,84.470919 30.0538496,85.500411 C30.3041887,86.5295874 29.5827342,87.5904866 28.4425278,87.8699946 L27.6047096,88.0753248 C27.0428619,88.213106 26.4874614,87.9137121 26.3640216,87.4066206 L25.8158545,85.1536696 C25.7411617,84.8465423 25.9564344,84.5297877 26.2968767,84.4462983" id="Fill-127" fill="#2B3882" mask="url(#mask-4)"></path>
                    <path d="M39.4640354,87.5990881 C39.7722418,88.865791 39.5105808,90.0180708 38.879544,90.1728971 C38.2485071,90.3275655 37.4869543,89.4259117 37.1787479,88.1592088 C36.8703843,86.892348 37.1322025,85.7400682 37.7632393,85.5853997 C38.3942762,85.4307313 39.155829,86.3322273 39.4640354,87.5990881" id="Fill-128" fill="#4C65BA" mask="url(#mask-4)"></path>
                    <path d="M38.7438231,86.7463126 C38.9215135,87.4767264 38.7707125,88.1410115 38.4068403,88.2301826 C38.0429681,88.3195115 37.6039312,87.7996362 37.4262408,87.0693802 C37.2485504,86.3389664 37.3993514,85.6745235 37.7632236,85.5855102 C38.1270958,85.4961813 38.5661327,86.0158988 38.7438231,86.7463126" id="Fill-129" fill="#FFFFFF" mask="url(#mask-4)"></path>
                    <path d="M33.8411872,88.3601672 L32.4386909,85.9228768 C32.1468383,85.4154696 31.5563715,85.1623184 30.9893346,85.3013622 L28.8609808,85.8231314" id="Stroke-130" stroke="#2B3882" stroke-linecap="round" stroke-linejoin="round" mask="url(#mask-4)"></path>
                    <path d="M34.328515,89.1685623 L29.8961612,90.2550292 C29.7268049,90.2965371 29.5560334,90.1923727 29.5148344,90.0225531 L29.3981563,89.5429231 C29.3568,89.3731034 29.4604265,89.2017056 29.6297828,89.1600398 L34.0621366,88.0737308 C34.2313356,88.0322228 34.4022644,88.1363873 34.4434634,88.3062069 L34.5602988,88.785679 C34.6014978,88.9556565 34.4978713,89.1270544 34.328515,89.1685623" id="Fill-131" fill="#2B3882" mask="url(#mask-4)"></path>
                    <path d="M34.8015646,89.7778139 L34.1831076,89.9293259 C33.9222329,89.993245 33.6589995,89.8328948 33.595314,89.5709054 L33.27783,88.2660089 L34.3686604,87.9986534 L34.8015646,89.7778139 Z" id="Fill-132" fill="#2B3882" mask="url(#mask-4)"></path>
                    <path d="M29.9971302,90.520396 L29.9971302,90.520396 C29.6582604,90.6034119 29.3164029,90.395083 29.2336904,90.0549703 L29.1670172,89.781144 C29.0843047,89.4410313 29.2918722,89.0979199 29.630742,89.014904 C29.969769,88.9318881 30.3116265,89.140217 30.3943391,89.4803297 L30.460855,89.754156 C30.5437248,90.0942687 30.336,90.4373801 29.9971302,90.520396" id="Fill-133" fill="#2B3882" mask="url(#mask-4)"></path>
                    <path d="M3.15582899,100.083135 L13.8024727,100.083135 C14.4918486,100.083135 15.0508658,99.5220674 15.0508658,98.8301629 L15.0508658,85.1162809 C15.0508658,84.4242186 14.4918486,83.8633088 13.8024727,83.8633088 L3.12107715,83.8633088 C1.39732285,83.8633088 1.57248157e-05,85.2657411 1.57248157e-05,86.995818 L1.57248157e-05,96.9157464 C1.57248157e-05,98.665078 1.41289042,100.083135 3.15582899,100.083135" id="Fill-134" fill="#599AF2" mask="url(#mask-4)"></path>
                    <path d="M3.15582899,100.083135 L13.8024727,100.083135 C14.4918486,100.083135 15.0508658,98.4733207 15.0508658,97.7812584 C15.0508658,97.7812584 0.0262761671,97.3862225 0.0758436011,97.6095448 C0.391091892,99.0250767 1.65033514,100.083135 3.15582899,100.083135" id="Fill-135" fill="#3E479B" mask="url(#mask-4)"></path>
                    <path d="M15.0508816,88.179221 L15.0508816,85.1163125 C15.0508816,84.4242501 14.4918644,83.8631825 13.8024885,83.8631825 L3.12109287,83.8631825 C1.39733857,83.8631825 3.14496315e-05,85.2657727 3.14496315e-05,86.9958496 L3.14496315e-05,88.2488218 L15.0508816,88.179221 Z" id="Fill-136" fill="#3E479B" mask="url(#mask-4)"></path>
                    <line x1="0.120279115" y1="97.7812741" x2="14.8427951" y2="97.7812741" id="Stroke-137" stroke="#2B3882" stroke-linecap="round" mask="url(#mask-4)"></line>
                    <line x1="0.120279115" y1="88.3601672" x2="14.8427951" y2="88.3601672" id="Stroke-138" stroke="#2B3882" stroke-linecap="round" mask="url(#mask-4)"></line>
                    <path d="M25.5243007,110.002984 L0.983367076,107.841888 C0.782403931,107.824053 0.632074693,107.649026 0.645755283,107.44701 C0.667927273,107.115735 0.707082064,106.635 0.762276167,106.346181 C1.44394693,102.778864 4.56988305,100.083056 8.32308206,100.083056 L24.0386201,100.083056 C24.6908855,100.083056 25.0924973,100.798634 24.754571,101.358597 L23.8101386,102.923274 C22.602001,104.924809 22.9363106,107.499565 24.6150919,109.123584 L25.5243007,110.002984 Z" id="Fill-139" fill="#599AF2" mask="url(#mask-4)"></path>
                    <path d="M25.5243007,100.083135 L8.32308206,100.083135 C4.66627617,100.083135 1.60496904,102.641951 0.819671744,106.072907 C0.691828993,106.631292 0.624212285,107.212876 0.624212285,107.810244 L13.558974,108.822691 C13.558974,108.822691 11.5936865,107.98322 11.5936865,103.475582 C11.5936865,100.031684 16.3746595,99.9982252 16.3746595,99.9982252" id="Fill-140" fill="#FFFFFF" mask="url(#mask-4)"></path>
                    <path d="M16.3156914,100.083135 L7.72742604,100.083135 C5.4229543,100.083135 1.24235479,102.641951 0.747337592,106.072907 C0.666826536,106.631292 0.624212285,107.212876 0.624212285,107.810244 L8.43850221,108.421815 C8.43850221,108.421815 7.17517052,108.047139 7.53684128,103.475582 C7.80856609,100.042416 10.5498732,99.9982252 10.5498732,99.9982252" id="Fill-141" fill="#FFFFFF" mask="url(#mask-4)"></path>
                    <path d="M26.0496511,102.021572 C26.0880197,102.334381 25.8431843,102.609628 25.5291597,102.606188 L13.0674005,102.475793 C11.9105258,102.46364 10.8681278,101.701503 10.4388403,100.553643 L9.42616216,97.8466294 C8.96306634,96.6084928 9.76110074,95.2665074 11.0060344,95.1898045 L22.9340934,94.8635804 C24.1961671,94.8290167 25.2882555,95.8234716 25.4519509,97.1561454 L26.0496511,102.021572 Z" id="Fill-142" fill="#4C65BA" mask="url(#mask-4)"></path>
                    <line x1="9.62550565" y1="98.4665027" x2="18.2604737" y2="98.4407772" id="Stroke-143" stroke="#2B3882" stroke-linecap="round" mask="url(#mask-4)"></line>
                    <line x1="20.3705867" y1="100.064954" x2="25.8011518" y2="99.9981936" id="Stroke-144" stroke="#2B3882" stroke-linecap="round" mask="url(#mask-4)"></line>
                    <path d="M40.6093052,100.23572 C40.5593002,100.062902 40.5026909,99.9033408 40.4396344,99.7767653 L36.6214919,92.112313 C35.1163125,92.8383077 34.4250496,94.6075252 35.0370595,96.1668355 L35.9034968,98.3744907 C36.4008727,99.6413515 36.6562437,100.99107 36.6562437,102.352784 L36.6562437,104.578905 C36.6562437,107.57458 34.2365091,110.003032 31.2517818,110.003032 L25.5243322,110.003032 L25.5243322,109.99009 L9.2073199,108.549938 L9.2073199,112.404654 L18.1374428,112.404654 L25.5243322,112.404654 L34.0031528,112.404654 C35.5654133,112.404654 37.5991037,110.944615 38.7544059,108.81098 C39.8865926,106.719642 40.4674673,104.154513 40.7217376,102.740875 C40.8715951,101.907875 40.8443912,101.048676 40.6093052,100.23572" id="Fill-145" fill="#3E479B" mask="url(#mask-4)"></path>
                    <path d="M13.3144688,112.507998 C13.3144688,115.911019 10.5659283,118.669956 7.17518624,118.669956 C3.78444423,118.669956 1.03590369,115.911019 1.03590369,112.507998 C1.03590369,109.104976 3.78444423,106.346197 7.17518624,106.346197 C10.5659283,106.346197 13.3144688,109.104976 13.3144688,112.507998" id="Fill-146" fill="#2B3882" mask="url(#mask-4)"></path>
                    <path d="M10.6463135,112.648714 C10.6463135,114.572758 9.09222998,116.132542 7.17521769,116.132542 C5.25804816,116.132542 3.70396462,114.572758 3.70396462,112.648714 C3.70396462,110.724671 5.25804816,109.164887 7.17521769,109.164887 C9.09222998,109.164887 10.6463135,110.724671 10.6463135,112.648714" id="Fill-147" fill="#FFFFFF" mask="url(#mask-4)"></path>
                    <path d="M16.6461641,114.423471 L7.49070467,114.423471 C6.39908796,114.423471 5.51409533,113.535233 5.51409533,112.439612 C5.51409533,111.343834 6.39908796,110.455437 7.49070467,110.455437 L16.6461641,110.455437 C17.7379381,110.455437 18.6229307,111.343834 18.6229307,112.439612 C18.6229307,113.535233 17.7379381,114.423471 16.6461641,114.423471" id="Fill-148" fill="#4C65BA" mask="url(#mask-4)"></path>
                </g>
            </g>
        </g>
    </g>
</svg>