<?xml version="1.0" encoding="UTF-8"?>
<svg width="178px" height="119px" viewBox="0 0 178 119" version="1.1" xmlns="http://www.w3.org/2000/svg" xmlns:xlink="http://www.w3.org/1999/xlink">
    <!-- Generator: Sketch 59.1 (86144) - https://sketch.com -->
    <title>Group 19</title>
    <desc>Created with Sketch.</desc>
    <defs>
        <path d="M116.141274,66.2606363 L101.052066,66.2606363 C101.173041,65.5608164 101.236139,64.8456944 101.236139,64.1200308 C101.236139,57.7777859 96.4572011,52.3084455 89.559464,49.7903862 L92.6608565,47.0268119 L101.49419,47.4165075 L108.53553,39.8266245 L108.059464,39.556966 L101.206548,46.9435 L92.4075928,46.5555046 L88.9981063,49.5938382 C86.5468443,48.7692205 83.8453648,48.3125353 81.0072446,48.3125353 C79.3475406,48.3125353 77.7339635,48.4689577 76.1904474,48.7634397 L74.7330932,48.7634397 L74.7330932,49.087846 C66.6321359,51.1509203 60.77835,57.1010893 60.77835,64.1200308 C60.77835,64.8456944 60.8414483,65.5608164 60.9624231,66.2606363 L0.141274238,66.2606363 L0.141274238,0.368074301 L116.141274,0.368074301 L116.141274,66.2606363" id="path-1"></path>
        <linearGradient x1="0%" y1="50%" x2="99.9996249%" y2="50%" id="linearGradient-3">
            <stop stop-color="#FFFFFF" offset="0%"></stop>
            <stop stop-color="#F1F5FF" offset="100%"></stop>
        </linearGradient>
        <path d="M9.02100364,16.4154052 C-0.00174117036,11.8844194 1.3097954,3.19104004 1.3097954,3.19104004 C7.23630402,3.19104004 9.02100364,1.29114258 9.02100364,1.29114258 C9.02100364,1.29114258 10.8057033,3.19104004 16.7322119,3.19104004 C16.7322119,3.19104004 18.0441837,11.8844194 9.02100364,16.4154052 Z M17.8356786,2.38065115 C11.06122,2.38065115 9.02100364,0.208911664 9.02100364,0.208911664 C9.02100364,0.208911664 6.98122256,2.38065115 0.206328688,2.38065115 C0.206328688,2.38065115 -1.29325428,12.3185105 9.02100364,17.4976361 C19.3352616,12.3185105 17.8356786,2.38065115 17.8356786,2.38065115 L17.8356786,2.38065115 Z" id="path-4"></path>
        <path d="M6.32001311,0.131425985 L6.32001311,11.5813263 C-0.511033501,8.15140776 0.48230419,1.56983416 0.48230419,1.56983416 C4.96886492,1.56983416 6.32001311,0.131425985 6.32001311,0.131425985" id="path-6"></path>
        <path d="M7.66376134,7.10171227 L7.66376134,10.2863308 L6.61992971,10.2863308 L6.61992971,7.10171227 C5.79505025,6.87696099 5.18825238,6.13549582 5.18825238,5.25275843 C5.18825238,4.1919324 6.06275519,3.33188417 7.14184552,3.33188417 C8.22006527,3.33188417 9.09456808,4.1919324 9.09456808,5.25275843 C9.09456808,6.13549582 8.48820551,6.87696099 7.66376134,7.10171227 Z M12.0210402,0.185794389 L2.26221559,0.185794389 C1.23753683,0.185794389 0.406998572,1.00260475 0.406998572,2.01034666 L0.406998572,11.6082965 C0.406998572,12.6156103 1.23753683,13.4324206 2.26221559,13.4324206 L12.0210402,13.4324206 C13.0452836,13.4324206 13.8758219,12.6156103 13.8758219,11.6082965 L13.8758219,2.01034666 C13.8758219,1.00260475 13.0452836,0.185794389 12.0210402,0.185794389 L12.0210402,0.185794389 Z" id="path-8"></path>
        <polyline id="path-10" points="36.4927543 12.4687728 0.0526704034 6.36709666 1.10738435 0.27398251 37.5479035 6.37608671 36.4927543 12.4687728"></polyline>
        <path d="M40.3141879,22.6874642 L5.10249974,22.6874642 C6.42361275,19.2609704 8.1713125,16.5297073 10.1501526,14.3541149 L15.9421558,14.3541149 L15.9421558,13.1383175 L11.3385014,13.1383175 C13.2620593,11.3073438 15.3532049,9.93614695 17.453927,8.91213732 L19.822354,9.41686447 C19.8132128,9.576973 19.8258363,9.74093441 19.8619656,9.90489582 C20.0508826,10.7619474 20.8243975,11.3492974 21.6819239,11.3492974 C21.8120764,11.3492974 21.94397,11.3355982 22.076299,11.3077719 C23.0800837,11.0937231 23.7199638,10.1168042 23.5023175,9.13003903 C23.4370236,8.83251115 23.3012123,8.56751869 23.1157777,8.34833269 L24.7276662,6.54047622 C27.1252577,6.08883318 29.2368621,5.97667159 30.7434098,5.97667159 C32.2308045,5.97667159 33.1283779,6.08583649 33.1283779,6.08583649 C31.6327125,4.74674698 29.9198362,3.63797401 28.048078,2.81602648 L28.8181106,1.95255348 C35.7179335,5.12261673 40.4983167,12.0081397 40.4983167,19.9925893 C40.4983167,20.9061498 40.4351993,21.8064392 40.3141879,22.6874642 L40.3141879,22.6874642 Z M27.3059042,10.5714439 L33.7264699,10.5714439 L33.7264699,9.35564651 L27.3059042,9.35564651 L27.3059042,10.5714439 Z M1.34157176,22.6874642 L0.212422784,22.6874642 C0.0914114439,21.8064392 0.0282940184,20.9061498 0.0282940184,19.9925893 C0.0282940184,11.1562253 5.88384994,3.66537226 13.9872568,1.06810369 L13.9872568,1.875924 L15.1342528,1.875924 C8.47427614,3.6957672 3.2777532,8.97207099 1.66717062,15.6165749 L0.570668586,16.6341631 L0.974184816,17.054555 L1.45561842,16.6080492 C1.25277207,17.7056916 1.14656068,18.8371537 1.14656068,19.9925893 C1.14656068,20.9074341 1.21316045,21.8072954 1.34157176,22.6874642 L1.34157176,22.6874642 Z M19.9477182,8.85177555 L18.3266886,8.50630073 C20.1875644,7.68221271 22.0401697,7.11797998 23.770893,6.73611686 L22.6730851,7.96732576 C22.3814391,7.78709664 22.0397344,7.68563749 21.6827945,7.68563749 C21.552642,7.68563749 21.4203131,7.69890852 21.2879841,7.72716296 C20.655504,7.86201373 20.1679763,8.29952955 19.9477182,8.85177555 L19.9477182,8.85177555 Z M27.4791506,2.57714798 C25.2944171,1.70040395 22.9085784,1.21023212 20.4078225,1.19225201 L20.4078225,0.659698511 L15.4450517,0.659698511 C16.9890345,0.288965928 18.6030994,0.0920409993 20.2633054,0.0920409993 C23.1022836,0.0920409993 25.80458,0.666976172 28.2565832,1.70511302 L27.4791506,2.57714798 L27.4791506,2.57714798 Z" id="path-12"></path>
        <linearGradient x1="-149.877382%" y1="-83.5641613%" x2="136.840124%" y2="-83.5641613%" id="linearGradient-14">
            <stop stop-color="#F8F8F8" offset="0%"></stop>
            <stop stop-color="#EBEEF8" offset="100%"></stop>
        </linearGradient>
        <path d="M4.23191456,21.8312688 L0.470986582,21.8312688 C0.342575268,20.9511 0.275975502,20.0512387 0.275975502,19.136394 C0.275975502,17.9809584 0.382186894,16.8494962 0.585033241,15.7518538 L9.00663898,7.93693082 C9.33876723,8.2169067 9.76753043,8.38001191 10.2193641,8.38001191 C10.3495166,8.38001191 10.4818456,8.36674089 10.6141745,8.33848644 C11.2971486,8.19336133 11.8112291,7.69462754 12.0018873,7.07945119 L16.5833418,8.05594198 C14.4826198,9.07995161 12.3914742,10.4511484 10.4679162,12.2821222 L8.65100493,12.2821222 L8.65100493,13.4979196 L9.27956743,13.4979196 C7.30072732,15.6735119 5.55302757,18.4047751 4.23191456,21.8312688 M0.79658544,14.7603796 C2.40716802,8.11587565 7.60369096,2.83957185 14.2636676,1.01972865 L19.5372373,1.01972865 L19.5372373,0.336056672 C22.0379932,0.354036774 24.4238319,0.844208608 26.6085654,1.72095264 L22.9003079,5.87992151 C21.1695845,6.26178464 19.3169793,6.82601737 17.4561034,7.65010538 L12.0819811,6.50494411 C12.0793694,6.39107013 12.06544,6.27591186 12.040193,6.16075359 C11.8512761,5.30370205 11.0777611,4.71635204 10.2202347,4.71635204 C10.0900822,4.71635204 9.95818858,4.73005117 9.82585963,4.75830562 C8.82207492,4.97192635 8.18219481,5.94884524 8.39984111,6.93603847 C8.44467625,7.13895676 8.52215833,7.32689164 8.62575796,7.49556212 L0.79658544,14.7603796 M23.857081,5.68428088 L27.1774929,1.95983114 C29.049251,2.78177867 30.7621273,3.89055164 32.2577927,5.22964115 C32.2577927,5.22964115 31.3602194,5.12047625 29.8728246,5.12047625 C28.3662769,5.12047625 26.2546726,5.23263783 23.857081,5.68428088" id="path-15"></path>
        <linearGradient x1="-193.152493%" y1="-92.95971%" x2="169.661912%" y2="-92.95971%" id="linearGradient-17">
            <stop stop-color="#D5DCE8" offset="0%"></stop>
            <stop stop-color="#CDD4E8" offset="100%"></stop>
        </linearGradient>
        <path d="M19.6330017,9.8723604 C19.6330017,10.1450586 19.6212488,10.414332 19.5986136,10.681465 C19.5511667,11.2521192 19.45192,11.8090743 19.3065322,12.347193 C18.5713231,15.081881 16.6434122,17.33924 14.1047858,18.5511845 C12.8128374,19.1676451 11.3624425,19.513548 9.83021256,19.513548 C9.23647347,19.513548 8.65535786,19.4613201 8.09165396,19.3615734 C5.57740396,18.9197766 3.39571749,17.5348806 1.9387932,15.5926015 C0.908890928,14.2222608 0.240716802,12.5736567 0.0709526922,10.782496 C0.0413527961,10.4828277 0.0274234332,10.1797345 0.0274234332,9.8723604 C0.0274234332,6.75709364 1.52961816,3.98772981 3.8597394,2.22653599 C5.51298065,0.9743503 7.58323221,0.232028938 9.83021256,0.232028938 C12.5529677,0.232028938 15.0167238,1.323678 16.7935881,3.08701231 L16.7935881,3.0874404 C18.5491231,4.82936983 19.6330017,7.22628869 19.6330017,9.8723604" id="path-18"></path>
    </defs>
    <g id="Products-Page" stroke="none" stroke-width="1" fill="none" fill-rule="evenodd">
        <g id="Products-Page-CMS" transform="translate(-984.000000, -945.000000)">
            <g id="Group-19" transform="translate(984.000000, 944.955466)">
                <polygon id="Fill-357" fill="#414040" points="78.9002643 113.628099 93.4799543 113.628099 93.4799543 70.0764384 78.9002643 70.0764384"></polygon>
                <path d="M29.6451666,91.0557929 L142.734617,91.0557929 C146.271369,91.0557929 149.138206,88.2359135 149.138206,84.7580481 L149.138206,10.0079137 C149.138206,6.53004821 146.271369,3.71059695 142.734617,3.71059695 L29.6451666,3.71059695 C26.1088495,3.71059695 23.2420126,6.53004821 23.2420126,10.0079137 L23.2420126,84.7580481 C23.2420126,88.2359135 26.1088495,91.0557929 29.6451666,91.0557929" id="Fill-358" fill="#414040"></path>
                <g id="Group-361" transform="translate(27.858726, 11.477376)">
                    <mask id="mask-2" fill="white">
                        <use xlink:href="#path-1"></use>
                    </mask>
                    <g id="Clip-360"></g>
                    <path d="M116.141274,66.2606363 L101.052066,66.2606363 C101.173041,65.5608164 101.236139,64.8456944 101.236139,64.1200308 C101.236139,57.7777859 96.4572011,52.3084455 89.559464,49.7903862 L92.6608565,47.0268119 L101.49419,47.4165075 L108.53553,39.8266245 L108.059464,39.556966 L101.206548,46.9435 L92.4075928,46.5555046 L88.9981063,49.5938382 C86.5468443,48.7692205 83.8453648,48.3125353 81.0072446,48.3125353 C79.3475406,48.3125353 77.7339635,48.4689577 76.1904474,48.7634397 L74.7330932,48.7634397 L74.7330932,49.087846 C66.6321359,51.1509203 60.77835,57.1010893 60.77835,64.1200308 C60.77835,64.8456944 60.8414483,65.5608164 60.9624231,66.2606363 L0.141274238,66.2606363 L0.141274238,0.368074301 L116.141274,0.368074301 L116.141274,66.2606363" id="Fill-359" fill="url(#linearGradient-3)" mask="url(#mask-2)"></path>
                </g>
                <path d="M82.1292647,83.6308669 C82.1292647,85.8368542 83.9474819,87.6254463 86.1901093,87.6254463 C88.4327367,87.6254463 90.2509539,85.8368542 90.2509539,83.6308669 C90.2509539,81.4253077 88.4327367,79.6371437 86.1901093,79.6371437 C83.9474819,79.6371437 82.1292647,81.4253077 82.1292647,83.6308669" id="Fill-364" fill="#949494"></path>
                <polygon id="Fill-365" fill="#414040" points="53.394295 115.271994 118.985924 115.271994 118.985924 111.984204 53.394295 111.984204"></polygon>
                <g id="Group-369" transform="translate(0.000000, 40.553539)">
                    <mask id="mask-5" fill="white">
                        <use xlink:href="#path-4"></use>
                    </mask>
                    <g id="Clip-368"></g>
                    <path d="M9.02100364,16.4154052 C-0.00174117036,11.8844194 1.3097954,3.19104004 1.3097954,3.19104004 C7.23630402,3.19104004 9.02100364,1.29114258 9.02100364,1.29114258 C9.02100364,1.29114258 10.8057033,3.19104004 16.7322119,3.19104004 C16.7322119,3.19104004 18.0441837,11.8844194 9.02100364,16.4154052 Z M17.8356786,2.38065115 C11.06122,2.38065115 9.02100364,0.208911664 9.02100364,0.208911664 C9.02100364,0.208911664 6.98122256,2.38065115 0.206328688,2.38065115 C0.206328688,2.38065115 -1.29325428,12.3185105 9.02100364,17.4976361 C19.3352616,12.3185105 17.8356786,2.38065115 17.8356786,2.38065115 L17.8356786,2.38065115 Z" id="Fill-367" fill="#1C75BB" mask="url(#mask-5)"></path>
                </g>
                <g id="Group-372" transform="translate(2.176463, 43.550222)">
                    <mask id="mask-7" fill="white">
                        <use xlink:href="#path-6"></use>
                    </mask>
                    <g id="Clip-371"></g>
                    <path d="M6.32001311,0.131425985 L6.32001311,11.5813263 C-0.511033501,8.15140776 0.48230419,1.56983416 0.48230419,1.56983416 C4.96886492,1.56983416 6.32001311,0.131425985 6.32001311,0.131425985" id="Fill-370" fill="#1C75BB" mask="url(#mask-7)"></path>
                </g>
                <path d="M166.367087,45.0806716 L175.256632,45.0806716 L175.256632,43.7920976 C175.256632,41.3814796 173.262557,39.4207923 170.811859,39.4207923 C168.360727,39.4207923 166.367087,41.3814796 166.367087,43.7920976 L166.367087,45.0806716 Z M176.266511,46.0738582 L165.356773,46.0738582 L165.356773,43.7920976 C165.356773,40.8339427 167.803988,38.4271776 170.811859,38.4271776 C173.819731,38.4271776 176.266511,40.8339427 176.266511,43.7920976 L176.266511,46.0738582 L176.266511,46.0738582 Z" id="Fill-373" fill="#0280DA"></path>
                <g id="Group-376" transform="translate(163.670014, 44.834515)">
                    <mask id="mask-9" fill="white">
                        <use xlink:href="#path-8"></use>
                    </mask>
                    <g id="Clip-375"></g>
                    <path d="M7.66376134,7.10171227 L7.66376134,10.2863308 L6.61992971,10.2863308 L6.61992971,7.10171227 C5.79505025,6.87696099 5.18825238,6.13549582 5.18825238,5.25275843 C5.18825238,4.1919324 6.06275519,3.33188417 7.14184552,3.33188417 C8.22006527,3.33188417 9.09456808,4.1919324 9.09456808,5.25275843 C9.09456808,6.13549582 8.48820551,6.87696099 7.66376134,7.10171227 Z M12.0210402,0.185794389 L2.26221559,0.185794389 C1.23753683,0.185794389 0.406998572,1.00260475 0.406998572,2.01034666 L0.406998572,11.6082965 C0.406998572,12.6156103 1.23753683,13.4324206 2.26221559,13.4324206 L12.0210402,13.4324206 C13.0452836,13.4324206 13.8758219,12.6156103 13.8758219,11.6082965 L13.8758219,2.01034666 C13.8758219,1.00260475 13.0452836,0.185794389 12.0210402,0.185794389 L12.0210402,0.185794389 Z" id="Fill-374" fill="#0280DA" mask="url(#mask-9)"></path>
                </g>
                <polygon id="Fill-385" fill="#E0E0E0" points="31.8325118 73.7537974 35.9085916 73.7537974 35.9085916 51.9032642 31.8325118 51.9032642"></polygon>
                <polygon id="Fill-386" fill="#E0E0E0" points="40.8308802 73.7537974 44.9069601 73.7537974 44.9069601 45.551579 40.8308802 45.551579"></polygon>
                <polygon id="Fill-387" fill="#E0E0E0" points="49.8292487 73.7537974 53.9053285 73.7537974 53.9053285 56.3619014 49.8292487 56.3619014"></polygon>
                <polygon id="Fill-388" fill="#E0E0E0" points="58.8280524 73.7537974 62.9036969 73.7537974 62.9036969 47.9335145 58.8280524 47.9335145"></polygon>
                <polygon id="Fill-389" fill="#E0E0E0" points="67.8264208 73.7537974 71.9025006 73.7537974 71.9025006 42.0090708 67.8264208 42.0090708"></polygon>
                <polygon id="Fill-390" fill="#E0E0E0" points="76.8247892 73.7537974 80.900869 73.7537974 80.900869 53.2470628 76.8247892 53.2470628"></polygon>
                <polygon id="Fill-391" fill="#4AAFFF" points="31.8325118 73.7537974 35.9085916 73.7537974 35.9085916 57.9360166 31.8325118 57.9360166"></polygon>
                <polygon id="Fill-392" fill="#4AAFFF" points="40.8308802 73.7537974 44.9069601 73.7537974 44.9069601 53.3378195 40.8308802 53.3378195"></polygon>
                <polygon id="Fill-393" fill="#4AAFFF" points="49.8292487 73.7537974 53.9053285 73.7537974 53.9053285 61.1634449 49.8292487 61.1634449"></polygon>
                <polygon id="Fill-394" fill="#4AAFFF" points="58.8280524 73.7537974 62.9036969 73.7537974 62.9036969 55.0621969 58.8280524 55.0621969"></polygon>
                <polygon id="Fill-395" fill="#4AAFFF" points="67.8264208 73.7537974 71.9025006 73.7537974 71.9025006 50.7739425 67.8264208 50.7739425"></polygon>
                <polygon id="Fill-396" fill="#4AAFFF" points="76.8247892 73.7537974 80.900869 73.7537974 80.900869 58.9086545 76.8247892 58.9086545"></polygon>
                <path d="M14.3441967,85.8128807 C14.3441967,85.8128807 14.5805606,86.1938876 14.6097252,86.5042585 C14.633231,86.7504146 14.8434773,87.1177224 14.9344535,87.3206407 C15.0258649,87.523559 15.3183815,88.4422566 15.3288286,88.6811351 C15.3336168,88.7791695 15.1116176,89.395202 15.1429586,89.592127 C15.1742997,89.7890519 15.2887816,90.179477 15.1090058,90.2055909 C14.92923,90.2312768 14.7250777,89.9114878 14.7250777,89.9114878 C14.7250777,89.9114878 14.7424894,90.0930012 14.590137,90.161925 C14.2937028,90.2972038 14.1369974,90.1781927 14.1369974,90.1781927 C14.1369974,90.1781927 14.0281743,90.3776862 13.8910571,90.4046563 C13.5885288,90.4637338 13.4405293,90.3447227 13.4405293,90.3447227 C13.4405293,90.3447227 13.3077651,90.4568843 13.0988246,90.4530314 C12.831555,90.4474661 12.7192495,90.2205743 12.7192495,90.2205743 C12.7192495,90.2205743 12.3810271,90.2882138 12.2830863,90.1328143 C12.1847102,89.977843 12.2016866,89.8121692 12.1612044,89.671325 C12.1202869,89.530909 12.1511927,88.2603151 12.5899676,87.3458985 C13.0287425,86.4314819 12.4780974,85.5393263 12.4780974,85.5393263 L14.3441967,85.8128807" id="Fill-397" fill="#EEA886"></path>
                <path d="M14.7729599,89.7924767 C14.7729599,89.7924767 14.8029951,88.6528807 14.497855,88.4101493 C14.1927149,88.1674179 14.1583268,88.5788198 14.1583268,88.5788198 C14.1583268,88.5788198 14.1996796,88.172127 13.8662455,88.1173305 C13.5328113,88.062534 13.518882,88.5454282 13.518882,88.5454282 C13.518882,88.5454282 13.4644704,88.2320607 13.1140599,88.2962753 C12.7640846,88.36049 12.8476608,88.7607613 12.8476608,88.7607613 C12.8476608,88.7607613 12.5133561,88.3686238 12.2961451,88.7453498 C11.930064,89.3815029 12.2830863,90.1328143 12.2830863,90.1328143 C12.2830863,90.1328143 12.3862506,90.3049096 12.7192495,90.2205743 C12.7192495,90.2205743 12.9421193,90.6623711 13.4405293,90.3447227 C13.4405293,90.3447227 13.9511275,90.6212738 14.1369974,90.1781927 C14.1369974,90.1781927 14.6998308,90.4414727 14.7729599,89.7924767" id="Fill-398" fill="#DB9C7C"></path>
                <path d="M18.2753241,69.3949069 C18.2753241,69.3949069 16.2916958,75.8977106 15.6213452,78.2967699 C15.4110989,79.0485094 14.9022418,86.2332726 14.8125715,86.5222386 C14.722466,86.8116326 12.2064748,87.2076229 12.2064748,87.2076229 C12.2064748,87.2076229 12.5111796,78.2201404 12.5394736,77.7299686 C12.568203,77.2397968 15.3162051,67.2030469 16.1154023,66.8455853 C16.7139296,66.5771681 17.0303873,66.7989227 17.7847494,67.3498844 C18.8438162,68.1230287 18.2753241,69.3949069 18.2753241,69.3949069" id="Fill-399" fill="#E52998"></path>
                <path d="M28.8742634,71.1368364 L29.387038,70.9501858 C29.387038,70.9501858 28.7475932,69.4745331 28.469006,69.5104933 C28.1473247,69.5520188 27.7464203,69.6560465 27.7464203,69.6560465 L28.8742634,71.1368364" id="Fill-400" fill="#EAD8CF"></path>
                <path d="M28.9917924,71.3915545 C28.9260632,71.3431794 27.902255,69.4111746 27.902255,69.4111746 L25.7140392,69.7035654 L26.8962938,71.9921755 L28.9917924,71.3915545" id="Fill-401" fill="#DA9B5B"></path>
                <path d="M16.6656121,113.795057 C16.6656121,113.795057 16.4849657,115.029691 16.4623305,115.215485 C16.4396952,115.400423 14.4504081,115.105892 14.4504081,115.105892 L14.2893499,113.636233 C14.2893499,113.636233 16.41706,113.621249 16.6656121,113.795057" id="Fill-402" fill="#424773"></path>
                <path d="M16.4836598,115.058373 C16.4836598,115.058373 17.1135282,115.802407 17.7233731,116.126477 C18.3327827,116.450975 19.2908617,116.578976 19.651284,116.915033 C19.9115889,117.156908 20.5989159,118.199754 18.0672542,118.179205 C15.5355925,118.1578 14.3150321,118.326043 14.0438448,117.926628 C13.7722223,117.526356 14.4360435,114.974466 14.4360435,114.974466 C14.4360435,114.974466 15.0358766,115.186802 16.4836598,115.058373" id="Fill-403" fill="#292C47"></path>
                <path d="M30.9183974,113.795057 C30.9183974,113.795057 30.7373157,115.029691 30.7146804,115.215485 C30.6920452,115.400423 28.7031934,115.105892 28.7031934,115.105892 L28.5421351,113.636233 C28.5421351,113.636233 30.6698453,113.621249 30.9183974,113.795057" id="Fill-404" fill="#424773"></path>
                <path d="M30.7360098,115.058373 C30.7360098,115.058373 31.3663135,115.802407 31.9757231,116.126477 C32.5851327,116.450975 34.8286307,116.717252 35.189053,117.05288 C35.4493579,117.294755 35.8820388,118.27039 32.3196042,118.179205 C29.7888131,118.114134 28.5673821,118.326043 28.2961948,117.926628 C28.0250075,117.526356 28.6888287,114.974466 28.6888287,114.974466 C28.6888287,114.974466 29.2538385,115.201358 30.7360098,115.058373" id="Fill-405" fill="#292C47"></path>
                <path d="M18.3127593,82.0743038 C18.3127593,82.0743038 16.4440482,84.9947861 16.5833418,87.6344363 C16.7230707,90.2745146 15.9055912,93.1564682 15.6248275,95.9142734 C15.3118521,98.9888708 14.0307861,106.266531 13.9842097,107.911283 C13.9380687,109.556034 14.1831385,114.807508 14.1831385,114.807508 L16.7474471,114.864873 C16.7474471,114.864873 18.9008396,102.140954 19.4588847,100.842534 C20.0164945,99.5441135 22.7823436,90.2882138 22.8754962,89.2496488 C22.9682135,88.2110839 18.3127593,82.0743038 18.3127593,82.0743038" id="Fill-406" fill="#292C47"></path>
                <path d="M28.1516777,82.469866 C28.1516777,82.469866 29.5607198,89.7055728 29.7461544,91.3207854 C29.9324597,92.9368541 30.0560828,99.1404174 30.1492354,100.149872 C30.242388,101.159754 31.0176441,113.334424 31.2648903,114.864873 L27.9867018,114.864873 C27.9867018,114.864873 25.4702753,105.992549 25.4702753,101.794623 C25.4702753,97.5971253 23.5258233,92.6684368 22.2713101,89.8986449 C21.0163615,87.128853 18.1438657,87.063354 17.3725273,81.9244696 C17.3725273,81.9244696 27.1074108,80.8400982 28.1516777,82.469866" id="Fill-407" fill="#292C47"></path>
                <path d="M21.4316307,57.5203337 C21.4316307,57.5203337 23.9406572,56.5990675 25.0972296,58.477132 C26.253802,60.3551965 26.1423671,64.1151784 24.8778421,64.5775238 C23.6137524,65.0398693 21.7137003,64.7979941 21.0664202,63.622866 C20.4191401,62.4477379 19.8345422,60.7486183 19.8624009,59.6133032 C19.8906949,58.4779882 20.773033,57.8482565 21.4316307,57.5203337" id="Fill-408" fill="#EEA886"></path>
                <path d="M24.6057842,64.6635715 C24.6057842,64.6635715 24.501314,65.3296914 24.6736899,65.6576143 C24.846501,65.9859652 21.4237954,65.9945271 21.4237954,65.9945271 C21.4237954,65.9945271 21.1456434,64.2093598 20.6189394,62.7015998 C20.0922354,61.1934117 24.6057842,64.6635715 24.6057842,64.6635715" id="Fill-409" fill="#EEA886"></path>
                <path d="M20.6189394,62.7015998 C20.6189394,62.7015998 20.8553033,63.0847473 21.8194764,62.9361974 C22.7836495,62.7876475 23.9602453,61.5256155 24.362891,61.38734 C24.7655366,61.2486363 24.7694543,61.0157512 24.7694543,61.0157512 L25.0214887,61.3783499 L25.448946,61.404892 C25.448946,61.404892 25.0589238,60.2764265 25.6474394,59.8157934 C26.2355197,59.3555884 25.0367239,56.1624079 21.9444053,57.2258025 C21.9444053,57.2258025 19.5690137,57.8696614 19.6552016,59.1980485 C19.7418248,60.5268637 20.0874472,62.0401889 20.6189394,62.7015998" id="Fill-410" fill="#323657"></path>
                <path d="M24.8769715,65.6182293 C24.8769715,65.6182293 24.8660892,64.9910662 24.5770549,64.9311325 C24.2880206,64.8711988 21.3876661,64.5972163 21.0329027,64.7342076 L21.0329027,65.4645422 C21.0329027,65.4645422 21.716312,65.8780846 24.8769715,65.6182293" id="Fill-411" fill="#E2D2CA"></path>
                <path d="M24.7054662,60.532857 C24.6510547,60.3102462 24.0751626,59.673665 23.8544692,60.3547684 C23.6337759,61.036728 24.1879034,61.9541413 24.4969611,61.8753713 C24.8055835,61.7974576 24.8425834,61.097946 24.7054662,60.532857" id="Fill-412" fill="#EEA886"></path>
                <polyline id="Fill-413" fill="#323657" points="36.3887194 73.0260314 36.3839311 73.0256033 36.3887194 73.0260314"></polyline>
                <path d="M20.7173155,57.7420883 C20.7173155,57.7420883 17.5187856,57.9882445 20.6189394,62.7015998 L20.7173155,57.7420883" id="Fill-414" fill="#323657"></path>
                <path d="M42.5154626,58.6993147 C42.4136041,58.3842348 42.0692877,58.2921938 42.0692877,58.2921938 C41.9256411,58.0790012 41.556513,57.9676958 41.556513,57.9676958 L41.5347484,57.924886 C41.7615358,57.6851513 42.4214394,57.2369331 42.4593098,57.1521697 C42.5058861,57.0489982 42.4945685,57.0374396 42.3665925,56.9689439 C42.2595105,56.9115788 41.1839025,57.600388 40.8247861,57.8337012 C40.7364217,57.8884977 40.6650338,57.9394413 40.6506691,57.951 C40.5514224,58.0336228 40.3503172,58.0935565 40.1809884,58.2686485 L40.1270121,58.3298664 C39.9489774,58.5537615 39.5293554,60.3474907 39.5293554,60.3474907 L40.2784939,60.6775541 L41.0002091,61.2803156 C41.0002091,61.2803156 41.8429355,60.594075 42.0592759,60.3783138 C42.2756163,60.1625526 42.3744278,59.9112592 42.4340628,59.805091 C42.4484275,59.7798332 42.4745451,59.7430168 42.5054508,59.7014914 C42.6033917,59.5713497 42.7518264,59.3966858 42.7518264,59.3966858 C42.8253909,59.2956548 42.8689201,59.0430771 42.8689201,59.0430771 C42.8541202,58.8315969 42.5154626,58.6993147 42.5154626,58.6993147" id="Fill-415" fill="#EFAA88"></path>
                <path d="M29.6747664,66.5677499 C27.6859146,66.3100351 24.8769715,65.6182293 24.8769715,65.6182293 L21.0329027,65.4641141 C21.0329027,65.4641141 17.5048562,66.2278404 16.1154023,66.8455853 C15.9835086,66.9033785 15.9830733,69.9407315 15.6213452,70.7369931 L16.7731294,73.1270624 C16.7731294,73.1270624 17.4386917,77.8618227 17.5766795,79.967207 C17.6402322,80.9338516 16.204202,89.0317471 16.204202,89.0317471 C16.204202,89.0317471 17.7429613,89.4769687 20.3664697,89.7616536 C22.9899781,90.0459105 29.5454845,89.6589102 29.5864021,89.3541047 C29.6277548,89.0492991 28.3170889,78.0060916 28.2587597,77.4341531 C28.16996,76.5565529 28.5665115,71.8924287 28.5665115,71.8924287 C29.1724388,71.4300833 34.4908437,69.0023414 35.9421092,67.7373127 C36.3299549,67.3986875 37.9692668,65.8288533 38.4350298,65.2868817 C40.0847887,63.3681479 41.4372428,61.7225405 41.6017834,61.3676475 C41.7889592,61.1655854 39.8092485,60.107328 39.629908,60.0486786 C39.4727674,59.9968788 37.2423281,62.8390192 36.3839311,63.7534358 C36.001309,64.1609848 34.4103145,65.2992965 34.4103145,65.2992965 C34.4103145,65.2992965 30.9188327,66.6379579 29.6747664,66.5677499" id="Fill-416" fill="#E52998"></path>
                <path d="M63.4351891,36.5735147 L32.2534398,36.5735147 C32.0209935,36.5735147 31.8325118,36.758881 31.8325118,36.9874851 L31.8325118,38.4806898 C31.8325118,38.709294 32.0209935,38.8946602 32.2534398,38.8946602 L63.4351891,38.8946602 C63.6676354,38.8946602 63.8561171,38.709294 63.8561171,38.4806898 L63.8561171,36.9874851 C63.8561171,36.758881 63.6676354,36.5735147 63.4351891,36.5735147" id="Fill-417" fill="#E0E0E0"></path>
                <path d="M51.8220181,31.6379766 L32.2534398,31.6379766 C32.0209935,31.6379766 31.8325118,31.8233429 31.8325118,32.0519471 L31.8325118,33.5447237 C31.8325118,33.7737559 32.0209935,33.9586941 32.2534398,33.9586941 L51.8220181,33.9586941 C52.0544644,33.9586941 52.2429461,33.7737559 52.2429461,33.5447237 L52.2429461,32.0519471 C52.2429461,31.8233429 52.0544644,31.6379766 51.8220181,31.6379766" id="Fill-418" fill="#E0E0E0"></path>
                <path d="M56.9145061,27.0081003 L32.2534398,27.0081003 C32.0209935,27.0081003 31.8325118,27.1934666 31.8325118,27.4220708 L31.8325118,28.9148473 C31.8325118,29.1434515 32.0209935,29.3288178 32.2534398,29.3288178 L56.9145061,29.3288178 C57.1469524,29.3288178 57.3349988,29.1434515 57.3349988,28.9148473 L57.3349988,27.4220708 C57.3349988,27.1934666 57.1469524,27.0081003 56.9145061,27.0081003" id="Fill-419" fill="#E0E0E0"></path>
                <path d="M68.9002876,22.2737682 L32.2534398,22.2737682 C32.0209935,22.2737682 31.8325118,22.4591345 31.8325118,22.6877386 L31.8325118,24.1805152 C31.8325118,24.4095474 32.0209935,24.5944856 32.2534398,24.5944856 L68.9002876,24.5944856 C69.1322986,24.5944856 69.3207803,24.4095474 69.3207803,24.1805152 L69.3207803,22.6877386 C69.3207803,22.4591345 69.1322986,22.2737682 68.9002876,22.2737682" id="Fill-420" fill="#E0E0E0"></path>
                <path d="M45.0527831,17.784736 L32.2534398,17.784736 C32.0209935,17.784736 31.8325118,17.9701023 31.8325118,18.1987064 L31.8325118,19.691483 C31.8325118,19.9200872 32.0209935,20.1054535 32.2534398,20.1054535 L45.0527831,20.1054535 C45.2852293,20.1054535 45.473711,19.9200872 45.473711,19.691483 L45.473711,18.1987064 C45.473711,17.9701023 45.2852293,17.784736 45.0527831,17.784736" id="Fill-421" fill="#E0E0E0"></path>
                <path d="M120.313566,13.2023785 L118.927594,10.070844 C119.209664,9.9505486 119.498698,9.83795891 119.792521,9.73478738 C122.745981,8.69622243 125.820453,8.7013596 128.59936,9.55712684 L127.564235,12.8166625 C125.48136,12.1753722 123.17605,12.1710912 120.962152,12.9498009 C120.741459,13.0277147 120.525118,13.1120499 120.313566,13.2023785" id="Fill-424" fill="#2273B5"></path>
                <path d="M115.473983,12.1860746 C116.491262,11.3345884 117.648269,10.6175248 118.927594,10.070844 L120.313566,13.2023785 C119.354181,13.6112118 118.486643,14.1497587 117.72401,14.7876242 L115.473983,12.1860746" id="Fill-425" fill="#5CAEF2"></path>
                <path d="M103.821636,19.9265086 L95.9589456,19.9265086 C95.551947,19.9265086 95.2224305,19.6020106 95.2224305,19.2021674 L95.2224305,18.6880221 C95.2224305,18.2881788 95.551947,17.9641089 95.9589456,17.9641089 L103.821636,17.9641089 C104.228199,17.9641089 104.558151,18.2881788 104.558151,18.6880221 L104.558151,19.2021674 C104.558151,19.6020106 104.228199,19.9265086 103.821636,19.9265086" id="Fill-426" fill="#78C2FF"></path>
                <path d="M94.6704795,29.141311 L86.8077895,29.141311 C86.4012262,29.141311 86.0712744,28.816813 86.0712744,28.4173978 L86.0712744,27.9032525 C86.0712744,27.5034093 86.4012262,27.1789113 86.8077895,27.1789113 L94.6704795,27.1789113 C95.0770428,27.1789113 95.4069946,27.5034093 95.4069946,27.9032525 L95.4069946,28.4173978 C95.4069946,28.816813 95.0770428,29.141311 94.6704795,29.141311" id="Fill-427" fill="#4AAFFF"></path>
                <path d="M104.759256,38.7152873 L96.8961305,38.7152873 C96.4895673,38.7152873 96.1600508,38.3907893 96.1600508,37.9909461 L96.1600508,37.4768008 C96.1600508,37.0769575 96.4895673,36.7528876 96.8961305,36.7528876 L104.759256,36.7528876 C105.165384,36.7528876 105.495336,37.0769575 105.495336,37.4768008 L105.495336,37.9909461 C105.495336,38.3907893 105.165384,38.7152873 104.759256,38.7152873" id="Fill-428" fill="#2273B5"></path>
                <path d="M120.649612,45.1859836 L112.786922,45.1859836 C112.379923,45.1859836 112.050407,44.8614856 112.050407,44.4616424 L112.050407,43.9474971 C112.050407,43.5480819 112.379923,43.2235839 112.786922,43.2235839 L120.649612,43.2235839 C121.056175,43.2235839 121.386127,43.5480819 121.386127,43.9474971 L121.386127,44.4616424 C121.386127,44.8614856 121.056175,45.1859836 120.649612,45.1859836" id="Fill-429" fill="#1A598C"></path>
                <polyline id="Fill-430" fill="#4AAFFF" points="89.7738732 71.7353169 89.370357 71.314925 99.8095438 61.6279309 110.374966 63.8792965 120.466789 52.5608222 129.268405 53.0492816 136.123393 43.750144 136.599603 44.0896255 129.556134 53.6447655 120.720129 53.1541656 110.588694 64.516734 99.9880138 62.2576626 89.7738732 71.7353169"></polyline>
                <path d="M112.014713,63.8715908 C112.197971,64.7042407 111.660385,65.5253321 110.813741,65.7055612 C109.967096,65.8857903 109.132205,65.3570897 108.948947,64.5248678 C108.765689,63.6917898 109.303275,62.8706984 110.149919,62.6904693 C110.996563,62.5106683 111.831455,63.0389408 112.014713,63.8715908" id="Fill-431" fill="#FFFFFF"></path>
                <path d="M110.212166,62.9734419 C109.525274,63.1194232 109.087805,63.7881117 109.236675,64.4632218 C109.38511,65.1383318 110.064602,65.568998 110.751494,65.4225886 C111.438385,65.2766073 111.875854,64.6083469 111.726984,63.9328087 C111.57855,63.2576987 110.899058,62.8270325 110.212166,62.9734419 M110.875987,65.9885338 C109.872203,66.2021545 108.878865,65.5728509 108.661654,64.5856577 C108.444008,63.5988926 109.083888,62.6215456 110.087672,62.4079248 C111.091457,62.193876 112.084795,62.8231796 112.302006,63.8108009 C112.519652,64.797566 111.879772,65.7744849 110.875987,65.9885338" id="Fill-432" fill="#4AAFFF"></path>
                <path d="M122.123077,52.6288897 C122.306335,53.4611116 121.768749,54.2822029 120.922105,54.4628602 C120.075896,54.6430893 119.241005,54.1139606 119.057312,53.2813106 C118.874053,52.4490887 119.412075,51.6279974 120.258284,51.4477683 C121.104928,51.2675391 121.939819,51.7962398 122.123077,52.6288897" id="Fill-433" fill="#FFFFFF"></path>
                <path d="M120.320531,51.7303127 C119.633639,51.8767221 119.19617,52.5449826 119.344605,53.2200926 C119.493475,53.8960588 120.173402,54.3258689 120.859858,54.1803157 C121.54675,54.0339063 121.984219,53.3652177 121.835784,52.6896796 C121.686914,52.0145696 121.007422,51.5839033 120.320531,51.7303127 Z M120.984352,54.7454046 C119.980567,54.9590254 118.987229,54.3297218 118.770018,53.3429567 C118.552807,52.3557634 119.192688,51.3788445 120.196037,51.1652238 C121.199822,50.951175 122.193159,51.5800504 122.41037,52.5676718 C122.627581,53.554865 121.988137,54.5313558 120.984352,54.7454046 L120.984352,54.7454046 Z" id="Fill-434" fill="#4AAFFF"></path>
                <path d="M130.86027,52.9726522 C131.043528,53.8053021 130.505942,54.6263935 129.659298,54.8066226 C128.812654,54.9868517 127.977763,54.4581511 127.794504,53.6259292 C127.611246,52.7928511 128.148833,51.9717598 128.995477,51.7915307 C129.842121,51.6117297 130.677012,52.1400022 130.86027,52.9726522" id="Fill-435" fill="#FFFFFF"></path>
                <path d="M129.057724,52.0745033 C128.371267,52.2204846 127.933363,52.8891731 128.082233,53.5642831 C128.230668,54.2398213 128.910159,54.6700594 129.597051,54.52365 C130.283943,54.3776687 130.721412,53.7094083 130.572977,53.0338701 C130.424107,52.3587601 129.744615,51.9280938 129.057724,52.0745033 Z M129.721545,55.0895951 C128.718195,55.3032159 127.724422,54.6739123 127.507211,53.6867191 C127.29,52.6999539 127.92988,51.722607 128.93323,51.5089862 C129.937015,51.2949374 130.930352,51.924241 131.147563,52.9118623 C131.36521,53.8986274 130.725329,54.8755463 129.721545,55.0895951 L129.721545,55.0895951 Z" id="Fill-436" fill="#4AAFFF"></path>
                <path d="M101.423173,61.7589288 C101.606432,62.5915787 101.068845,63.4126701 100.222201,63.5928992 C99.3755571,63.7731283 98.5406659,63.2439996 98.3574078,62.4117777 C98.1741496,61.5791277 98.7117359,60.7580364 99.55838,60.5778073 C100.405024,60.3975782 101.239915,60.9262788 101.423173,61.7589288" id="Fill-437" fill="#FFFFFF"></path>
                <path d="M99.6206269,60.8603518 C98.9337352,61.0067612 98.4962661,61.6750216 98.6447009,62.3509878 C98.7935709,63.0260979 99.4730627,63.4567641 100.159954,63.3103547 C100.846411,63.1639453 101.284315,62.4952568 101.135445,61.8201467 C100.98701,61.1446086 100.307083,60.7143705 99.6206269,60.8603518 M100.284448,63.8754437 C99.2806633,64.0890644 98.2873257,63.4601889 98.0701147,62.4729957 C97.8524684,61.4858025 98.4923485,60.5088836 99.4961332,60.2952628 C100.499483,60.0816421 101.493256,60.7109457 101.710467,61.6977108 C101.927678,62.684904 101.288233,63.6618229 100.284448,63.8754437" id="Fill-438" fill="#4AAFFF"></path>
                <polygon id="Fill-439" fill="#E0E0E0" points="98.3212785 69.0348768 104.741844 69.0348768 104.741844 67.8190794 98.3212785 67.8190794"></polygon>
                <polygon id="Fill-440" fill="#E0E0E0" points="102.786945 56.5566859 109.207511 56.5566859 109.207511 55.3404604 102.786945 55.3404604"></polygon>
                <polygon id="Fill-441" fill="#E0E0E0" points="116.105593 65.2522058 122.526158 65.2522058 122.526158 64.0364084 116.105593 64.0364084"></polygon>
                <polygon id="Fill-442" fill="#E0E0E0" points="121.864514 48.1753897 128.285079 48.1753897 128.285079 46.9591642 121.864514 46.9591642"></polygon>
                <polygon id="Fill-443" fill="#E0E0E0" points="131.190222 58.3508432 137.610352 58.3508432 137.610352 57.1350458 131.190222 57.1350458"></polygon>
                <path d="M154.889727,73.094527 C154.889727,73.094527 152.511288,67.795534 155.270608,68.2343341 C155.270608,68.2343341 156.209969,68.9980604 157.174143,70.5537673 C157.903693,71.7323202 159.421993,74.8505837 159.365841,75.9058444 C159.309688,76.9598209 158.547055,77.7466644 157.723046,79.4406469 C157.723046,79.4406469 156.010605,82.5850243 155.938782,82.9638907 L154.1284,82.0396278 C154.1284,82.0396278 155.661936,79.0330979 156.742768,76.390451 L154.889727,73.094527" id="Fill-444" fill="#275070"></path>
                <g id="Group-447" transform="translate(132.328947, 76.513743)">
                    <mask id="mask-11" fill="white">
                        <use xlink:href="#path-10"></use>
                    </mask>
                    <g id="Clip-446"></g>
                    <polyline id="Fill-445" fill="#F6931D" mask="url(#mask-11)" points="36.4927543 12.4687728 0.0526704034 6.36709666 1.10738435 0.27398251 37.5479035 6.37608671 36.4927543 12.4687728"></polyline>
                </g>
                <polyline id="Fill-448" fill="#2D3038" points="132.508723 82.1466523 130.562095 81.8204418 131.362598 77.1957027 133.309226 77.5219131 132.508723 82.1466523"></polyline>
                <path d="M141.123164,117.986561 L140.673942,117.986561 C140.673942,117.986561 140.823682,116.319977 140.408413,116.303709 C139.993144,116.287442 138.962806,117.659923 138.347738,117.872687 C137.733105,118.085024 134.576363,118.264397 134.559822,117.692458 C134.542845,117.120948 135.772547,116.891915 136.154734,116.72881 C136.536921,116.565277 138.397797,114.783963 138.73036,114.571626 C139.062488,114.358862 139.629239,112.882353 139.629239,112.882353 L141.391739,112.805295 C141.391739,112.805295 141.491421,114.18591 141.598068,114.916673 C141.638115,115.186802 141.666844,115.433387 141.670762,115.601201 C141.687738,116.221943 141.123164,117.986561 141.123164,117.986561" id="Fill-449" fill="#EEA886"></path>
                <path d="M152.47603,117.657354 L152.102113,117.657354 L152.102113,116.105928 C151.790444,116.131186 150.743565,117.105964 150.419707,117.388081 C150.09585,117.669769 149.650981,117.657354 148.286338,117.742546 C146.922131,117.827737 146.793285,117.024198 147.00919,116.751071 C147.225095,116.477517 147.923304,116.358078 148.286338,116.187267 C148.649808,116.016028 150.083226,114.426501 150.465413,114.050631 C150.847165,113.674333 151.080482,112.597668 151.080482,112.597668 L152.675394,112.734231 C152.675394,112.734231 152.664947,113.719712 152.846464,114.54594 L152.846464,114.546368 L152.848205,114.55279 C152.86344,114.623426 152.880416,114.69235 152.899134,114.759561 C153.136368,115.618753 152.47603,117.657354 152.47603,117.657354" id="Fill-450" fill="#EEA886"></path>
                <path d="M146.577815,82.491699 C146.577815,82.491699 145.97537,83.8937189 145.921829,84.2477556 C145.868723,84.6017924 144.457505,87.9567939 144.0492,90.2184339 C143.805001,91.5725068 143.130298,95.8115299 143.075886,96.3500768 C142.982298,97.2726273 142.540476,99.3086598 142.472571,100.250475 C142.4347,100.776607 139.797262,108.860375 139.159123,113.08099 C139.159123,113.08099 140.675683,113.301888 141.814843,113.005645 C141.814843,113.005645 144.1306,108.643758 145.416019,102.45689 C146.190405,98.7307279 146.87512,96.7439267 147.474953,95.2091965 C148.074786,93.6744664 151.472245,89.3279907 151.827008,88.8395313 C152.181337,88.3514999 154.40307,85.6527722 152.299301,82.7297213 C150.195532,79.8062423 146.577815,82.491699 146.577815,82.491699" id="Fill-451" fill="#1D3B54"></path>
                <path d="M154.173235,94.9095281 C153.980836,96.1681353 154.183247,97.8214485 154.585022,102.423498 C154.987233,107.02512 153.881154,112.597668 153.881154,112.597668 C152.492571,113.064722 150.89287,112.597668 150.89287,112.597668 C150.92987,112.274026 150.89287,101.380653 150.89287,100.410155 C150.89287,99.4392296 150.609495,98.3377343 150.536801,97.223396 C150.486742,96.4639508 150.127626,95.0644995 149.723239,93.6355095 C149.602228,93.2074118 149.477299,92.7767455 149.355417,92.3597784 L149.355417,92.3593503 C149.287076,92.125609 149.220041,91.8961486 149.154747,91.6739659 C148.58582,89.732543 147.82014,82.2365528 147.82014,82.2365528 C147.82014,82.2365528 152.062502,78.875558 154.1284,82.0396278 C156.193864,85.2024134 155.133056,87.5034384 155.060362,87.8990007 C154.987233,88.294991 154.365635,93.6513491 154.173235,94.9095281" id="Fill-452" fill="#1D3B54"></path>
                <path d="M152.414218,88.1485816 C152.381136,88.220502 150.267355,92.8349668 149.723239,93.6355095 C149.602228,93.2074118 149.477299,92.7767455 149.355417,92.3597784 L149.355417,92.3593503 C149.355417,92.3593503 152.343265,88.2504689 152.414218,88.1485816" id="Fill-453" fill="#122536"></path>
                <path d="M152.47603,117.657354 L152.102113,117.657354 L152.102113,116.105928 C151.790444,116.131186 150.743565,117.105964 150.419707,117.388081 C150.09585,117.669769 149.650981,117.657354 148.286338,117.742546 C146.922131,117.827737 146.793285,117.024198 147.00919,116.751071 C147.225095,116.477517 147.923304,116.358078 148.286338,116.187267 C149.74631,116.263896 151.527527,114.245416 152.382877,114.24969 C152.837322,114.251837 152.83297,114.499278 152.846464,114.54594 L152.846464,114.546368 L152.848205,114.55279 C152.86344,114.623426 152.880416,114.69235 152.899134,114.759561 C153.136368,115.618753 152.47603,117.657354 152.47603,117.657354" id="Fill-454" fill="#172F42"></path>
                <path d="M141.123164,117.986561 L140.673942,117.986561 C140.673942,117.986561 140.823682,116.319977 140.408413,116.303709 C139.993144,116.287442 138.962806,117.659923 138.347738,117.872687 C137.733105,118.085024 134.576363,118.264397 134.559822,117.692458 C134.542845,117.120948 135.772547,116.891915 136.154734,116.72881 C137.456694,116.725814 139.574393,115.316088 140.230814,115.030547 C140.887235,114.744578 141.598068,114.916673 141.598068,114.916673 C141.638115,115.186802 141.666844,115.433387 141.670762,115.601201 C141.687738,116.221943 141.123164,117.986561 141.123164,117.986561" id="Fill-455" fill="#172F42"></path>
                <path d="M150.323508,64.893888 C150.323508,64.893888 151.000823,66.6550818 150.474119,68.0168605 C150.474119,68.0168605 152.956157,67.8580363 153.050181,67.5729232 C153.144204,67.2882383 152.950499,64.6490161 153.292203,63.8685941 C153.633037,63.0890282 150.323508,64.893888 150.323508,64.893888" id="Fill-456" fill="#EEA886"></path>
                <path d="M150.084097,67.4209486 C150.084097,67.4209486 148.617161,67.9342377 147.95421,68.0767942 C147.291695,68.2193507 145.904853,68.864922 146.017593,71.2969449 C146.130334,73.7289678 146.543862,75.8377769 146.694473,76.8831914 C146.845085,77.9277497 146.750626,80.5879486 146.506427,81.8803755 C146.506427,81.8803755 150.022721,82.7541229 154.159741,81.8803755 C154.159741,81.8803755 153.426273,79.6761006 153.444991,79.1058745 C153.463708,78.5360765 155.889594,73.8428417 156.002335,73.1022328 C156.115076,72.3607676 156.604345,69.0930981 155.494784,68.3708973 C154.385223,67.6486965 153.482426,67.7437342 153.012745,67.4209486 C152.542629,67.0977348 150.770118,67.1889196 150.084097,67.4209486" id="Fill-457" fill="#285173"></path>
                <path d="M155.743771,85.7015753 C149.735863,87.2696971 144.955044,85.7079968 144.955044,85.7079968 C145.390772,84.8265437 145.711583,83.9476592 145.944029,83.0957448 L145.944464,83.0953167 C146.10857,82.4938395 146.22871,81.9069176 146.314028,81.3426848 C146.802426,78.1233903 146.165593,75.6588321 146.165593,75.6588321 C146.859014,70.0460435 155.494784,68.3708973 156.186464,70.1500712 C156.878144,71.9296732 154.846198,79.5754976 154.743469,80.2309152 C154.640304,80.8863327 155.743771,85.7015753 155.743771,85.7015753" id="Fill-458" fill="#285173"></path>
                <path d="M152.487347,57.8268517 C151.489221,57.4903669 148.792148,57.1320491 148.100904,61.2036861 C147.410094,65.2757511 148.915336,65.3455311 150.46106,65.2295166 C152.007219,65.1139302 154.425705,62.3655432 154.610704,61.5303246 C154.796139,60.6942499 155.334161,58.7875028 152.487347,57.8268517" id="Fill-459" fill="#EEA886"></path>
                <path d="M148.656772,59.3906925 C148.656772,59.3906925 149.480781,61.1240599 150.561613,61.7281057 C150.561613,61.7281057 151.238493,63.57021 152.704994,64.3151 C152.704994,64.3151 156.595639,61.7803337 154.337776,58.7682384 C152.080349,55.7561432 148.911854,58.1552026 148.656772,59.3906925" id="Fill-460" fill="#FCCCA2"></path>
                <path d="M150.466284,61.1274847 C150.553778,60.9155764 151.136634,60.5709577 151.398245,61.1523144 C151.659856,61.7332429 150.720495,62.7572525 150.463237,62.7020279 C150.205979,62.6468033 150.13372,61.9314521 150.466284,61.1274847" id="Fill-461" fill="#EEA886"></path>
                <path d="M154.205882,59.2335806 C154.2912,59.1034389 156.867697,57.9304513 157.403542,60.3813105 C157.938952,62.8325977 155.328067,65.6824439 154.871009,66.9080876 C154.413517,68.1333031 155.077338,71.0058385 155.077338,71.0058385 C155.077338,71.0058385 153.506802,69.5451692 153.031463,68.0168605 C152.509547,66.3378615 152.334124,62.1048317 154.205882,59.2335806" id="Fill-462" fill="#FCCCA2"></path>
                <path d="M154.336035,59.1501016 C154.336035,59.1501016 153.54772,59.7639936 153.445861,60.7319225 C153.445861,60.7319225 153.297427,59.9771863 153.616061,59.5152689 C153.933824,59.0537796 154.336035,59.1501016 154.336035,59.1501016" id="Fill-463" fill="#E54242"></path>
                <path d="M145.944464,83.0953167 C146.10857,82.4938395 146.22871,81.9069176 146.314028,81.3426848 C146.314028,81.3426848 146.710144,80.5138877 146.843779,80.1183255 C146.977414,79.7227632 147.972057,74.856577 147.972057,74.856577 C147.972057,74.856577 149.024159,79.4265197 145.944464,83.0953167" id="Fill-464" fill="#1D3B54"></path>
                <path d="M141.521892,83.3778612 C141.521892,83.3778612 140.747071,84.1343097 140.496342,84.2105111 C140.246049,84.2867125 139.76331,83.8671768 137.984269,83.7374632 C137.827999,83.7259046 137.553329,83.8641801 137.618188,84.0670984 C137.682611,84.2700167 138.456996,84.8222627 138.788254,84.9065979 C139.119947,84.9905051 140.683083,85.6014005 141.444845,85.3017321 C142.206607,85.0020637 142.72504,84.0482621 142.72504,84.0482621 L141.521892,83.3778612" id="Fill-465" fill="#EEA886"></path>
                <path d="M147.539376,68.2099326 C147.539376,68.2099326 145.482184,69.0117595 145.360302,71.823505 C145.238855,74.6356786 145.126985,76.1036255 145.015115,76.5377166 C144.90368,76.9718076 144.689951,78.7163056 144.172388,79.7660011 C143.670061,80.7844455 140.37359,84.0071647 140.37359,84.0071647 L141.968937,85.4828174 C141.968937,85.4828174 146.564756,80.9475507 146.843779,80.1183255 C147.122801,79.2891003 148.271538,73.5187718 148.363385,72.5461339 C148.43695,71.761859 149.488617,68.2681539 147.539376,68.2099326" id="Fill-466" fill="#285173"></path>
                <path d="M109.062994,94.5734715 C104.795385,94.5734715 100.836399,93.274195 97.5725752,91.0557929 L120.553412,91.0557929 C117.289588,93.274195 113.331038,94.5734715 109.062994,94.5734715" id="Fill-467" fill="#F8F8F8"></path>
                <path d="M120.553412,91.0557929 L97.5725752,91.0557929 C93.0002619,87.9482319 89.7921555,83.0375235 89.0121111,77.3682261 L90.1412601,77.3682261 C90.4603296,79.5532366 91.1611507,81.6175235 92.1758177,83.4925913 L92.176253,83.4925913 C92.6089338,81.2373728 93.1944024,79.2034808 93.9021881,77.3682261 L129.113876,77.3682261 C128.333832,83.0375235 125.125726,87.9482319 120.553412,91.0557929" id="Fill-468" fill="#DADADA"></path>
                <g id="Group-471" transform="translate(88.799688, 54.680762)">
                    <mask id="mask-13" fill="white">
                        <use xlink:href="#path-12"></use>
                    </mask>
                    <g id="Clip-470"></g>
                    <path d="M40.3141879,22.6874642 L5.10249974,22.6874642 C6.42361275,19.2609704 8.1713125,16.5297073 10.1501526,14.3541149 L15.9421558,14.3541149 L15.9421558,13.1383175 L11.3385014,13.1383175 C13.2620593,11.3073438 15.3532049,9.93614695 17.453927,8.91213732 L19.822354,9.41686447 C19.8132128,9.576973 19.8258363,9.74093441 19.8619656,9.90489582 C20.0508826,10.7619474 20.8243975,11.3492974 21.6819239,11.3492974 C21.8120764,11.3492974 21.94397,11.3355982 22.076299,11.3077719 C23.0800837,11.0937231 23.7199638,10.1168042 23.5023175,9.13003903 C23.4370236,8.83251115 23.3012123,8.56751869 23.1157777,8.34833269 L24.7276662,6.54047622 C27.1252577,6.08883318 29.2368621,5.97667159 30.7434098,5.97667159 C32.2308045,5.97667159 33.1283779,6.08583649 33.1283779,6.08583649 C31.6327125,4.74674698 29.9198362,3.63797401 28.048078,2.81602648 L28.8181106,1.95255348 C35.7179335,5.12261673 40.4983167,12.0081397 40.4983167,19.9925893 C40.4983167,20.9061498 40.4351993,21.8064392 40.3141879,22.6874642 L40.3141879,22.6874642 Z M27.3059042,10.5714439 L33.7264699,10.5714439 L33.7264699,9.35564651 L27.3059042,9.35564651 L27.3059042,10.5714439 Z M1.34157176,22.6874642 L0.212422784,22.6874642 C0.0914114439,21.8064392 0.0282940184,20.9061498 0.0282940184,19.9925893 C0.0282940184,11.1562253 5.88384994,3.66537226 13.9872568,1.06810369 L13.9872568,1.875924 L15.1342528,1.875924 C8.47427614,3.6957672 3.2777532,8.97207099 1.66717062,15.6165749 L0.570668586,16.6341631 L0.974184816,17.054555 L1.45561842,16.6080492 C1.25277207,17.7056916 1.14656068,18.8371537 1.14656068,19.9925893 C1.14656068,20.9074341 1.21316045,21.8072954 1.34157176,22.6874642 L1.34157176,22.6874642 Z M19.9477182,8.85177555 L18.3266886,8.50630073 C20.1875644,7.68221271 22.0401697,7.11797998 23.770893,6.73611686 L22.6730851,7.96732576 C22.3814391,7.78709664 22.0397344,7.68563749 21.6827945,7.68563749 C21.552642,7.68563749 21.4203131,7.69890852 21.2879841,7.72716296 C20.655504,7.86201373 20.1679763,8.29952955 19.9477182,8.85177555 L19.9477182,8.85177555 Z M27.4791506,2.57714798 C25.2944171,1.70040395 22.9085784,1.21023212 20.4078225,1.19225201 L20.4078225,0.659698511 L15.4450517,0.659698511 C16.9890345,0.288965928 18.6030994,0.0920409993 20.2633054,0.0920409993 C23.1022836,0.0920409993 25.80458,0.666976172 28.2565832,1.70511302 L27.4791506,2.57714798 L27.4791506,2.57714798 Z" id="Fill-469" fill="url(#linearGradient-14)" mask="url(#mask-13)"></path>
                </g>
                <path d="M89.7738732,71.7353169 L89.370357,71.314925 L90.466859,70.2973368 C90.3876357,70.6244034 90.3171183,70.9548948 90.2553068,71.288811 L89.7738732,71.7353169 M108.622042,64.0976263 L106.253615,63.5928992 C106.544391,63.4511989 106.835602,63.31592 107.126377,63.1870626 L108.747407,63.5325374 C108.676019,63.7110541 108.632925,63.9015576 108.622042,64.0976263 M111.915466,63.0290946 C111.788796,62.8792604 111.639055,62.7508311 111.472774,62.6480876 L112.570581,61.4168787 C112.894004,61.3453864 113.212638,61.2803156 113.527355,61.2212381 L111.915466,63.0290946 M116.847766,57.4967884 C116.65972,57.4141655 116.469932,57.3345393 116.278839,57.2579099 L117.056272,56.3858749 C117.244753,56.4655011 117.431929,56.5481239 117.617799,56.6333154 L116.847766,57.4967884" id="Fill-472" fill="#55B0F8"></path>
                <path d="M110.481612,65.4512712 C109.894838,65.4512712 109.365522,65.0492875 109.236675,64.4632218 C109.087805,63.7881117 109.525274,63.1194232 110.212166,62.9734419 C110.302707,62.9541775 110.392813,62.9447593 110.482048,62.9447593 C111.068822,62.9447593 111.598138,63.346743 111.726984,63.9328087 C111.875854,64.6083469 111.438385,65.2766073 110.751494,65.4225886 C110.660953,65.441853 110.570847,65.4512712 110.481612,65.4512712" id="Fill-473" fill="#F8F8F8"></path>
                <path d="M110.481612,66.0300592 C109.624086,66.0300592 108.850571,65.4427092 108.661654,64.5856577 C108.625525,64.4216963 108.612901,64.2577349 108.622042,64.0976263 C108.632925,63.9015576 108.676019,63.7110541 108.747407,63.5325374 C108.967665,62.9802914 109.455192,62.5427756 110.087672,62.4079248 C110.220001,62.3796704 110.35233,62.3663994 110.482483,62.3663994 C110.839423,62.3663994 111.181127,62.4678585 111.472774,62.6480876 C111.639055,62.7508311 111.788796,62.8792604 111.915466,63.0290946 C112.100901,63.2482806 112.236712,63.513273 112.302006,63.8108009 C112.519652,64.797566 111.879772,65.7744849 110.875987,65.9885338 C110.743658,66.0163601 110.611765,66.0300592 110.481612,66.0300592 M110.482048,62.9447593 C110.392813,62.9447593 110.302707,62.9541775 110.212166,62.9734419 C109.525274,63.1194232 109.087805,63.7881117 109.236675,64.4632218 C109.365522,65.0492875 109.894838,65.4512712 110.481612,65.4512712 C110.570847,65.4512712 110.660953,65.441853 110.751494,65.4225886 C111.438385,65.2766073 111.875854,64.6083469 111.726984,63.9328087 C111.598138,63.346743 111.068822,62.9447593 110.482048,62.9447593" id="Fill-474" fill="#55B0F8"></path>
                <path d="M104.741844,69.0348768 L98.949841,69.0348768 C99.3376867,68.6084915 99.7342382,68.2035111 100.13819,67.8190794 L104.741844,67.8190794 L104.741844,69.0348768" id="Fill-475" fill="#DCDCDC"></path>
                <path d="M103.933941,56.5566859 L102.786945,56.5566859 L102.786945,55.7488656 C103.265332,55.5951785 103.751118,55.4590434 104.24474,55.3404604 L109.207511,55.3404604 L109.207511,55.8730139 C109.159193,55.8725858 109.111311,55.8725858 109.062994,55.8725858 C107.286565,55.8725858 105.566288,56.1110362 103.933941,56.5566859" id="Fill-476" fill="#DCDCDC"></path>
                <polygon id="Fill-477" fill="#DCDCDC" points="116.105593 65.2522058 122.526158 65.2522058 122.526158 64.0364084 116.105593 64.0364084"></polygon>
                <path d="M92.176253,83.4925913 L92.1758177,83.4925913 C91.1611507,81.6175235 90.4603296,79.5532366 90.1412601,77.3682261 L93.9021881,77.3682261 C93.1944024,79.2034808 92.6089338,81.2373728 92.176253,83.4925913" id="Fill-478" fill="#C1C7D3"></path>
                <g id="Group-481" transform="translate(89.670274, 55.536957)">
                    <mask id="mask-16" fill="white">
                        <use xlink:href="#path-15"></use>
                    </mask>
                    <g id="Clip-480"></g>
                    <path d="M4.23191456,21.8312688 L0.470986582,21.8312688 C0.342575268,20.9511 0.275975502,20.0512387 0.275975502,19.136394 C0.275975502,17.9809584 0.382186894,16.8494962 0.585033241,15.7518538 L9.00663898,7.93693082 C9.33876723,8.2169067 9.76753043,8.38001191 10.2193641,8.38001191 C10.3495166,8.38001191 10.4818456,8.36674089 10.6141745,8.33848644 C11.2971486,8.19336133 11.8112291,7.69462754 12.0018873,7.07945119 L16.5833418,8.05594198 C14.4826198,9.07995161 12.3914742,10.4511484 10.4679162,12.2821222 L8.65100493,12.2821222 L8.65100493,13.4979196 L9.27956743,13.4979196 C7.30072732,15.6735119 5.55302757,18.4047751 4.23191456,21.8312688 M0.79658544,14.7603796 C2.40716802,8.11587565 7.60369096,2.83957185 14.2636676,1.01972865 L19.5372373,1.01972865 L19.5372373,0.336056672 C22.0379932,0.354036774 24.4238319,0.844208608 26.6085654,1.72095264 L22.9003079,5.87992151 C21.1695845,6.26178464 19.3169793,6.82601737 17.4561034,7.65010538 L12.0819811,6.50494411 C12.0793694,6.39107013 12.06544,6.27591186 12.040193,6.16075359 C11.8512761,5.30370205 11.0777611,4.71635204 10.2202347,4.71635204 C10.0900822,4.71635204 9.95818858,4.73005117 9.82585963,4.75830562 C8.82207492,4.97192635 8.18219481,5.94884524 8.39984111,6.93603847 C8.44467625,7.13895676 8.52215833,7.32689164 8.62575796,7.49556212 L0.79658544,14.7603796 M23.857081,5.68428088 L27.1774929,1.95983114 C29.049251,2.78177867 30.7621273,3.89055164 32.2577927,5.22964115 C32.2577927,5.22964115 31.3602194,5.12047625 29.8728246,5.12047625 C28.3662769,5.12047625 26.2546726,5.23263783 23.857081,5.68428088" id="Fill-479" fill="url(#linearGradient-17)" mask="url(#mask-16)"></path>
                </g>
                <path d="M90.2553068,71.288811 C90.3171183,70.9548948 90.3876357,70.6244034 90.466859,70.2973368 L98.2960315,63.0325193 C98.3991959,63.2003336 98.5284778,63.3488835 98.6769125,63.473888 L90.2553068,71.288811 M106.253615,63.5928992 L101.672161,62.6164084 C101.729184,62.4331826 101.757043,62.2396825 101.752255,62.0419013 L107.126377,63.1870626 C106.835602,63.31592 106.544391,63.4511989 106.253615,63.5928992 M112.570581,61.4168787 L116.278839,57.2579099 C116.469932,57.3345393 116.65972,57.4141655 116.847766,57.4967884 L113.527355,61.2212381 C113.212638,61.2803156 112.894004,61.3453864 112.570581,61.4168787" id="Fill-482" fill="#64A9E8"></path>
                <path d="M99.890073,63.3386092 C99.3032986,63.3386092 98.7739828,62.9370536 98.6447009,62.3509878 C98.4962661,61.6750216 98.9337352,61.0067612 99.6206269,60.8603518 C99.7111677,60.8410874 99.8012733,60.8320973 99.890073,60.8320973 C100.476847,60.8320973 101.006598,61.2336529 101.135445,61.8201467 C101.284315,62.4952568 100.846411,63.1639453 100.159954,63.3103547 C100.069414,63.3296191 99.9788727,63.3386092 99.890073,63.3386092" id="Fill-483" fill="#D6DCE8"></path>
                <path d="M99.8896377,63.9169691 C99.437804,63.9169691 99.0090408,63.7538639 98.6769125,63.473888 C98.5284778,63.3488835 98.3991959,63.2003336 98.2960315,63.0325193 C98.1924319,62.8638489 98.1149498,62.675914 98.0701147,62.4729957 C97.8524684,61.4858025 98.4923485,60.5088836 99.4961332,60.2952628 C99.6284621,60.2670084 99.7603558,60.2533093 99.8905083,60.2533093 C100.748035,60.2533093 101.52155,60.8406593 101.710467,61.6977108 C101.735714,61.8128691 101.749643,61.9280273 101.752255,62.0419013 C101.757043,62.2396825 101.729184,62.4331826 101.672161,62.6164084 C101.481503,63.2315848 100.967422,63.7303185 100.284448,63.8754437 C100.152119,63.9036981 100.01979,63.9169691 99.8896377,63.9169691 M99.890073,60.8320973 C99.8012733,60.8320973 99.7111677,60.8410874 99.6206269,60.8603518 C98.9337352,61.0067612 98.4962661,61.6750216 98.6447009,62.3509878 C98.7739828,62.9370536 99.3032986,63.3386092 99.890073,63.3386092 C99.9788727,63.3386092 100.069414,63.3296191 100.159954,63.3103547 C100.846411,63.1639453 101.284315,62.4952568 101.135445,61.8201467 C101.006598,61.2336529 100.476847,60.8320973 99.890073,60.8320973" id="Fill-484" fill="#64A9E8"></path>
                <path d="M98.949841,69.0348768 L98.3212785,69.0348768 L98.3212785,67.8190794 L100.13819,67.8190794 C99.7342382,68.2035111 99.3376867,68.6084915 98.949841,69.0348768" id="Fill-485" fill="#C2C8D4"></path>
                <path d="M109.207511,56.5566859 L103.933941,56.5566859 C105.566288,56.1110362 107.286565,55.8725858 109.062994,55.8725858 C109.111311,55.8725858 109.159193,55.8725858 109.207511,55.8730139 L109.207511,56.5566859" id="Fill-486" fill="#C2C8D4"></path>
                <path d="M109.062123,93.5049397 C98.487125,93.5049397 89.9144727,85.0748403 89.9144727,74.6733512 C89.9144727,64.2735745 98.487125,55.8421909 109.062123,55.8421909 C119.637121,55.8421909 128.209774,64.2735745 128.209774,74.6733512 C128.209774,85.0748403 119.637121,93.5049397 109.062123,93.5049397 Z M109.062123,52.1802434 C96.4299322,52.1802434 86.189674,62.250813 86.189674,74.6733512 C86.189674,87.0971737 96.4299322,97.1681714 109.062123,97.1681714 C121.694314,97.1681714 131.934137,87.0971737 131.934137,74.6733512 C131.934137,62.250813 121.694314,52.1802434 109.062123,52.1802434 L109.062123,52.1802434 Z" id="Fill-487" fill="#3F444F"></path>
                <polygon id="Fill-488" fill="#E0E0E0" points="32.3317924 9.23733788 45.5925459 9.23733788 45.5925459 7.90210125 32.3317924 7.90210125"></polygon>
                <polygon id="Fill-489" fill="#E0E0E0" points="48.1725251 9.23733788 57.5861626 9.23733788 57.5861626 7.90210125 48.1725251 7.90210125"></polygon>
                <polygon id="Fill-490" fill="#E0E0E0" points="48.1725251 14.2649169 56.9623883 14.2649169 56.9623883 12.9296803 48.1725251 12.9296803"></polygon>
                <polygon id="Fill-491" fill="#78C2FF" points="95.3282066 9.23733788 104.742279 9.23733788 104.742279 7.90210125 95.3282066 7.90210125"></polygon>
                <polygon id="Fill-492" fill="#1487E3" points="60.1208714 9.23733788 72.1140528 9.23733788 72.1140528 7.90210125 60.1208714 7.90210125"></polygon>
                <polygon id="Fill-493" fill="#FFC055" points="80.9848805 9.23733788 92.9784972 9.23733788 92.9784972 7.90210125 80.9848805 7.90210125"></polygon>
                <polygon id="Fill-494" fill="#E0E0E0" points="74.3318686 9.23733788 78.7222296 9.23733788 78.7222296 7.90210125 74.3318686 7.90210125"></polygon>
                <polygon id="Fill-495" fill="#78C2FF" points="32.3317924 14.2649169 39.1998389 14.2649169 39.1998389 12.9296803 32.3317924 12.9296803"></polygon>
                <polygon id="Fill-496" fill="#1487E3" points="40.8857271 14.2649169 43.1035428 14.2649169 43.1035428 12.9296803 40.8857271 12.9296803"></polygon>
                <polygon id="Fill-497" fill="#E0E0E0" points="86.4121085 14.2649169 104.742279 14.2649169 104.742279 12.9296803 86.4121085 12.9296803"></polygon>
                <polygon id="Fill-498" fill="#FFC455" points="44.732843 14.2649169 46.9954939 14.2649169 46.9954939 12.9296803 44.732843 12.9296803"></polygon>
                <polygon id="Fill-499" fill="#1487E3" points="78.7222296 14.2649169 84.7188203 14.2649169 84.7188203 12.9296803 78.7222296 12.9296803"></polygon>
                <polygon id="Fill-500" fill="#78C2FF" points="64.3749858 14.2649169 77.1347175 14.2649169 77.1347175 12.9296803 64.3749858 12.9296803"></polygon>
                <polygon id="Fill-501" fill="#E0E0E0" points="58.1746782 14.2649169 62.564604 14.2649169 62.564604 12.9296803 58.1746782 12.9296803"></polygon>
                <polygon id="Fill-362" fill="#F6931D" points="28.1725717 17.2183498 144.207647 17.2183498 144.207647 7.19915189 28.1725717 7.19915189"></polygon>
                <path d="M48.1851485,14.1017987 L34.4029146,14.1017987 C33.6385408,14.1017987 33.0191194,13.4921877 33.0191194,12.7408762 L33.0191194,11.6766254 C33.0191194,10.9248859 33.6385408,10.3157029 34.4029146,10.3157029 L48.1851485,10.3157029 C48.9495223,10.3157029 49.5689437,10.9248859 49.5689437,11.6766254 L49.5689437,12.7408762 C49.5689437,13.4921877 48.9495223,14.1017987 48.1851485,14.1017987" id="Fill-366" fill="#F5F7FF"></path>
                <g id="Group-40" transform="translate(15.000000, 0.043798)">
                    <g id="Group-379">
                        <mask id="mask-19" fill="white">
                            <use xlink:href="#path-18"></use>
                        </mask>
                        <g id="Clip-378"></g>
                        <path d="M19.6330017,9.8723604 C19.6330017,10.1450586 19.6212488,10.414332 19.5986136,10.681465 C19.5511667,11.2521192 19.45192,11.8090743 19.3065322,12.347193 C18.5713231,15.081881 16.6434122,17.33924 14.1047858,18.5511845 C12.8128374,19.1676451 11.3624425,19.513548 9.83021256,19.513548 C9.23647347,19.513548 8.65535786,19.4613201 8.09165396,19.3615734 C5.57740396,18.9197766 3.39571749,17.5348806 1.9387932,15.5926015 C0.908890928,14.2222608 0.240716802,12.5736567 0.0709526922,10.782496 C0.0413527961,10.4828277 0.0274234332,10.1797345 0.0274234332,9.8723604 C0.0274234332,6.75709364 1.52961816,3.98772981 3.8597394,2.22653599 C5.51298065,0.9743503 7.58323221,0.232028938 9.83021256,0.232028938 C12.5529677,0.232028938 15.0167238,1.323678 16.7935881,3.08701231 L16.7935881,3.0874404 C18.5491231,4.82936983 19.6330017,7.22628869 19.6330017,9.8723604" id="Fill-377" fill="#27A9E0" mask="url(#mask-19)"></path>
                    </g>
                    <path d="M8.14388907,19.0764603 C5.70494468,18.6475065 3.5894227,17.3045641 2.17646295,15.4205062 C2.16645122,15.3169066 2.1851688,15.2193003 2.23609803,15.1298279 C3.04835401,13.7123965 2.52077939,13.9517031 2.35797996,13.0330055 C2.19561582,12.1143079 1.72854687,12.5141511 1.58664149,11.9546275 C1.44430081,11.39596 1.89091101,11.439626 0.916290902,11.0774553 C0.769597299,11.0230869 0.578503852,10.9109253 0.363904605,10.7550978 C0.335610587,10.4644195 0.322116517,10.1703164 0.322116517,9.8723604 C0.322116517,6.85084703 1.77904082,4.16453415 4.03907994,2.45599634 C4.03907994,2.45599634 3.98249191,3.09857094 3.49496421,3.93207711 C3.0078718,4.76601137 2.76410795,4.29810062 2.76410795,5.53016572 C2.76410795,6.76265891 3.60901086,7.21087717 4.03907994,7.98530586 C4.46958431,8.75973455 5.31405194,9.32482347 4.03907994,9.72124192 C2.76410795,10.1176604 2.19561582,10.7255591 2.19561582,11.1399576 C2.19561582,11.5556404 1.95185197,11.5556404 2.19561582,12.1143079 C2.43937967,12.6738316 2.60174381,12.3005304 2.79109609,12.833512 C2.98088366,13.3660655 2.79109609,13.3660655 3.03442465,13.552288 C3.2781885,13.7385105 3.68431648,14.1648957 4.44303147,14.1113835 C5.20044057,14.0578713 8.15128904,13.6212117 8.31365318,15.1580823 C8.43727627,16.3246485 8.10732449,18.1256554 8.14388907,19.0764603" id="Fill-380" fill="#FFFFFF"></path>
                    <path d="M5.33581657,3.51682237 C5.17345243,3.72744642 4.55098403,4.64015066 4.55098403,5.19582144 C4.55098403,5.75106411 4.33464361,6.82387688 5.0110883,7.41936074 C5.68796827,8.0144165 6.82495252,7.71817291 6.71656466,7.0409224 C6.6086121,6.36367188 7.44785622,5.96425675 7.79957263,5.83111838 C8.15172433,5.69798 8.17871247,4.34990044 7.88097234,3.93207711 C7.58279692,3.51510998 6.41925983,3.27023811 5.95872026,3.31304788 C5.498616,3.35500145 5.33581657,3.51682237 5.33581657,3.51682237" id="Fill-381" fill="#FFFFFF"></path>
                    <path d="M13.6068111,4.40640933 C13.3221297,4.04723538 12.632191,3.56776599 12.4693915,4.12686155 C12.3070274,4.68638521 12.7945551,4.52670478 12.4693915,5.04598725 C12.1446633,5.56441353 11.8604172,5.60465471 11.819935,6.04431102 C11.7794528,6.48353923 11.6575709,6.76265891 12.0632635,7.12226096 C12.4693915,7.481863 13.3221297,7.20231522 13.6068111,7.20231522 C13.8910571,7.20231522 14.3376673,7.32218257 14.5405137,6.96258052 C14.7437953,6.60297848 14.5405137,5.92401557 14.5405137,5.92401557 L13.728693,4.76601137 L13.6068111,4.40640933" id="Fill-382" fill="#FFFFFF"></path>
                    <path d="M19.0214156,12.272704 C18.3084063,14.9256253 16.4388247,17.1149168 13.9759392,18.290473 C13.9145629,18.1509132 13.817928,18.0254805 13.6742814,17.9591254 C13.2677181,17.7720467 13.3360591,17.3597887 13.2141772,16.813536 C13.0927305,16.2677115 12.8759548,16.4809041 12.632191,16.1080311 C12.3884271,15.735158 12.3340155,15.349442 12.5238031,14.9765689 C12.7135907,14.6045521 12.5507912,14.6841782 13.3360591,14.297606 C14.1208916,13.91189 14.1887973,14.0317574 14.3920789,13.938004 C14.5949253,13.8455349 15.4746516,13.7256675 16.1445669,13.8185647 C16.7409177,13.9011876 17.9436311,12.7286281 19.0214156,12.272704" id="Fill-383" fill="#FFFFFF"></path>
                    <path d="M19.3383086,9.8723604 C19.3383086,10.1369248 19.3265557,10.3980643 19.3047911,10.6566353 C19.013145,10.5431894 18.7981105,10.436165 18.7637224,10.3573951 C18.6422758,10.0774192 18.682758,9.91773875 18.682758,9.67843215 C18.682758,9.43869745 17.870502,8.52042795 17.870502,8.52042795 L17.0177638,9.11933659 C17.0177638,9.11933659 16.9772816,9.70454611 17.0177638,9.9442808 C17.058246,10.1840155 17.735126,10.5423333 17.7756082,10.8364364 C17.8160904,11.1305395 17.9784546,11.2221524 17.9784546,11.2221524 C17.9784546,11.2221524 17.6123735,12.5753691 17.5192209,11.5290984 C17.4917974,11.2260052 17.2345395,11.409231 17.2345395,11.2097375 C17.2345395,11.0098159 16.6255652,10.6767559 16.6255652,10.6767559 C16.6255652,10.6767559 16.5306714,10.4370212 16.0026615,9.99779301 C15.4746516,9.5589929 14.2971851,11.0106721 14.2971851,11.0106721 C14.2971851,11.0106721 14.4952432,12.1044617 14.2971851,13.5124749 C14.2793381,13.6374794 12.6404615,14.3909313 12.1855808,14.3909313 C11.7307,14.3909313 11.007679,12.0346817 11.007679,11.794947 C11.007679,11.5556404 11.4952067,11.3557188 11.7711822,11.0106721 C12.0462871,10.6656254 11.8604172,9.87835376 11.9418169,9.19939086 C12.0232166,8.52042795 12.1446633,8.79954763 12.1446633,8.68010838 C12.1446633,8.56024103 12.7135907,8.12058472 13.2006831,7.74257448 C13.6886461,7.36456424 13.5254114,7.68178461 14.1343857,7.7400059 C14.7437953,7.79737098 15.3122874,6.84271318 15.6779332,6.61539331 C16.0431437,6.38721725 16.2055078,6.68303274 16.4897539,6.61539331 C16.774,6.54689769 16.7335177,6.48353923 17.058246,6.33028026 C17.3834096,6.175737 17.1396457,5.72495016 17.058246,5.24248408 C16.9772816,4.76001801 16.9367994,4.52670478 16.5842124,3.29164299 C18.287077,4.9809164 19.3383086,7.30634295 19.3383086,9.8723604" id="Fill-384" fill="#FFFFFF"></path>
                </g>
                <g id="Group-18" transform="translate(111.000000, 9.878509)">
                    <path d="M4.08363323,17.0927932 C2.58492084,12.971925 3.93737492,8.53041171 7.13721075,5.85351697 C7.89984336,5.21565144 8.7673815,4.67710457 9.72676636,4.26827129 C9.93831856,4.17794268 10.154659,4.09360744 10.3753523,4.01569367 C12.5892504,3.236984 14.89456,3.24126498 16.977435,3.88255529 C19.9844362,4.80853055 22.5291567,7.0607524 23.6713645,10.2029893 C24.0487632,11.24027 24.2450801,12.2976712 24.2772918,13.3418014 C24.4096207,17.6548855 21.735183,21.7483554 17.380516,23.2800889 C11.971135,25.1821268 6.0180735,22.4123349 4.08363323,17.0927932 Z M18.5492766,26.4951024 C24.3569503,24.4522203 27.9241731,18.9931188 27.7483149,13.2399142 C27.7060915,11.8468844 27.4440454,10.4371587 26.9408471,9.05354706 C25.4164525,4.86289896 22.0224762,1.8576533 18.0125608,0.623019621 C15.2336529,-0.232747624 12.1591814,-0.237884796 9.20572113,0.800680155 C8.91189864,0.903851693 8.62286436,1.01644138 8.34079476,1.13673683 C7.06146984,1.68341755 5.90446213,2.40048115 4.88718335,3.25196742 C0.619139503,6.822302 -1.1842777,12.7467457 0.81371529,18.2426636 C3.39456506,25.3379544 11.3347372,29.0324373 18.5492766,26.4951024 L18.5492766,26.4951024 Z" id="Fill-422" fill="#4AAFFF"></path>
                    <path d="M16.977435,3.88255529 L18.0125608,0.623019621 C22.0224762,1.8576533 25.4164525,4.86289896 26.9408471,9.05354706 C27.4440454,10.4371587 27.7060915,11.8468844 27.7483149,13.2399142 L24.2772918,13.3418014 C24.2450801,12.2976712 24.0487632,11.24027 23.6713645,10.2029893 C22.5291567,7.0607524 19.9844362,4.80853055 16.977435,3.88255529" id="Fill-423" fill="#1A598C"></path>
                </g>
                <path d="M141.599205,34.4607431 L133.73608,34.4607431 C133.329516,34.4607431 133,34.136245 133,33.7364018 L133,33.2222565 C133,32.8224133 133.329516,32.4983433 133.73608,32.4983433 L141.599205,32.4983433 C142.005333,32.4983433 142.335285,32.8224133 142.335285,33.2222565 L142.335285,33.7364018 C142.335285,34.136245 142.005333,34.4607431 141.599205,34.4607431" id="Fill-428-Copy" fill="#2273B5"></path>
            </g>
        </g>
    </g>
</svg>