<?xml version="1.0" encoding="UTF-8"?>
<svg width="50px" height="99px" viewBox="0 0 50 99" version="1.1" xmlns="http://www.w3.org/2000/svg" xmlns:xlink="http://www.w3.org/1999/xlink">
    <!-- Generator: Sketch 59.1 (86144) - https://sketch.com -->
    <title>Group 20</title>
    <desc>Created with Sketch.</desc>
    <g id="Products-Page" stroke="none" stroke-width="1" fill="none" fill-rule="evenodd">
        <g id="Products-Page-Small-Business" transform="translate(-219.000000, -2497.000000)">
            <g id="Group-20" transform="translate(221.638762, 2497.000000)">
                <path d="M44.8031265,74.170433 C44.8031265,86.4146392 34.8542847,96.340866 22.5821823,96.340866 C10.31008,96.340866 0.36123814,86.4146392 0.36123814,74.170433 C0.36123814,61.9262268 10.31008,52 22.5821823,52 C34.8542847,52 44.8031265,61.9262268 44.8031265,74.170433" id="Fill-18" fill="#FEBA40"></path>
                <path d="M44.4418884,73.9569423 C44.4418884,86.2011485 34.4930465,96.1273753 22.2209442,96.1273753 C9.94884186,96.1273753 -1.42108547e-14,86.2011485 -1.42108547e-14,73.9569423 C-1.42108547e-14,61.7127361 9.94884186,51.7865093 22.2209442,51.7865093 C34.4930465,51.7865093 44.4418884,61.7127361 44.4418884,73.9569423 Z" id="Stroke-20" stroke="#FFFFFF" stroke-width="4"></path>
                <path d="M22.1583335,1.70530257e-13 L22.1583335,76.1661649 C21.1009195,76.6226598 20.3612381,77.6675258 20.3612381,78.8848454 C20.3612381,80.5256907 21.693173,81.8520619 23.3352149,81.8520619 C24.9772567,81.8520619 26.3091916,80.5256907 26.3091916,78.8848454 C26.3091916,77.6649897 25.5695102,76.6201237 24.5120963,76.1661649 L24.5120963,1.70530257e-13 L22.1583335,1.70530257e-13 Z" id="Fill-23" fill="#FFFFFF"></path>
            </g>
        </g>
    </g>
</svg>