<?xml version="1.0" encoding="UTF-8"?>
<svg width="100px" height="134px" viewBox="0 0 100 134" version="1.1" xmlns="http://www.w3.org/2000/svg" xmlns:xlink="http://www.w3.org/1999/xlink">
    <!-- Generator: Sketch 59.1 (86144) - https://sketch.com -->
    <title>Group 17</title>
    <desc>Created with Sketch.</desc>
    <g id="Our-Story-Page" stroke="none" stroke-width="1" fill="none" fill-rule="evenodd">
        <g transform="translate(-159.000000, -843.000000)" id="Group-17">
            <g transform="translate(159.000000, 843.000000)">
                <g id="Group-14" transform="translate(0.000000, 90.000000)">
                    <path d="M27.6231901,8.99429342 L40.5558919,8.99429342 L40.5558919,3 C40.5558919,3 49.6531736,6.93146575 58.8651161,3.43860615 L59.1557382,8.99429342 L74.2681071,8.99429342 C74.2681071,8.99429342 100.14671,10.0168815 98.9710213,43 L1.03122072,42.7075958 C1.03122072,42.7075958 -1.22166829,11.8721133 27.6231901,8.99429342 Z" id="body-bg-flat-copy" fill="#308DFC"></path>
                    <path d="M1.86857459,44 L4.81235959e-15,44 L0.466425392,35.8966188 C1.37712948,20.0746761 13.6350638,8 27.6625791,8 L37.8151261,8 L37.8151261,9.61632517 L28.5141594,9.61632517 C14.9945213,9.61632517 3.18038995,21.2388663 2.30265278,36.4683563 L1.97866737,42.0897977 L97.9625397,42.0897977 L97.7830407,36.4683563 C96.9053035,21.2388663 85.0911721,9.61632517 71.5715235,9.61632517 L59.9539579,9.61632517 C59.9539579,9.61632517 59.8030557,8 59.9539579,8 C60.1048602,8 72.3374212,8 72.3374212,8 C86.3649362,8 98.6228709,20.0746761 99.5335746,35.8966188 L100,44 L98.2171189,44 L1.86857459,44 Z" id="Rounded-Rectangle-13" fill="#3B434F"></path>
                    <path d="M30.6930693,11.9193526 C30.6930693,10.5586518 30.9491507,9.24465251 31.4176341,8 L31.4484154,8 L33.3921225,8 L35.1335134,8 L35.1335134,9.59677334 L32.8640623,9.59677334 C32.6807398,10.3497406 32.5814006,11.1254047 32.5814006,11.9193526 C32.5814006,18.8941821 39.9367073,24.5483881 49.0099076,24.5483881 C58.0831217,24.5483881 65.4384014,18.8941821 65.4384014,11.9193526 C65.4384014,11.1254047 65.3390754,10.3497406 65.1557392,9.59677334 L64.0091307,9.59677334 L64.0091307,8 L64.6276795,8 L66.5714003,8 L66.6021678,8 C67.0706513,9.24465251 67.3267327,10.5586518 67.3267327,11.9193526 C67.3267327,19.6958861 59.1260191,26 49.0099076,26 C38.8938098,26 30.6930693,19.6958861 30.6930693,11.9193526 Z" id="Ellipse-4" fill="#3B434F"></path>
                    <path d="M34.6534653,9.72165435 C34.6534653,9.72165435 34.6534653,4.68951302e-05 34.6534653,4.68951302e-05 C34.6534653,4.68951302e-05 49.1482409,6.37613896 63.8257064,0.711382914 C63.8257064,0.711382914 64.288757,9.72165435 64.288757,9.72165435 C64.288757,9.72165435 65.1175814,15.4592316 60.9742936,18.1053647 C52.7197026,23.3772037 36.2320529,25.5372766 34.6534653,9.72165435 Z" id="body-bg-flat-copy" fill="#FDDEC1"></path>
                    <path d="M35.2966657,11.4726089 C35.2966657,16.5607691 41.4896809,20.6855556 49.129146,20.6855556 C56.7686117,20.6855556 62.9616269,16.5607691 62.9616269,11.4726089 L62.9616269,1.86965475 C63.7643859,1.70677497 64.5595882,1.52986273 65.3465347,1.33873693 L65.3465347,11.5393458 C65.3465347,17.5564707 57.719548,21.8749256 49.0099097,22.4343332 C40.3002713,22.9937407 32.6732673,17.5564707 32.6732673,11.5393458 L32.6732673,0.474039763 C33.5373334,0.701792297 34.4125049,1.47398513 35.2966657,1.6673626 L35.2966657,11.4726089 Z" id="neck" fill="#554326"></path>
                </g>
                <path d="M37.581726,105.990551 C36.9706339,105.288202 36.0904581,103.543852 36.0904581,103.543852 C36.0904581,103.543852 35.2453704,100.689428 35.2453704,99.4385909 L35.2453704,93.6536612 C35.0542427,91.0445993 34.5719465,91 34.5719465,91 C24.5680977,96.0007382 28.9600068,103.771922 28.9600068,103.771922 L37.2656756,117 C40.5090973,111.422357 44,112.438599 44,112.438599 C40.9178263,110.844295 38.8964277,108.369944 37.581726,105.990551 L37.581726,105.990551 Z M65.4280609,91 C65.4280609,91 64.945758,91.0445993 64.754629,93.6536612 L64.754629,99.4385909 C64.754629,100.689428 63.9095439,103.543852 63.9095439,103.543852 C63.9095439,103.543852 63.0293603,105.288202 62.4182735,105.990551 C61.1035703,108.369944 59.0821666,110.844295 56,112.438599 C56,112.438599 59.4909012,111.422357 62.7343338,117 L71.0399922,103.771922 C71.0399922,103.771922 75.4319017,96.0007382 65.4280609,91 L65.4280609,91 Z" id="Shape-2-copy-9" stroke="#515151" stroke-width="2" fill="#FFFFFF"></path>
                <path d="M63.7700695,120.274377 C60.6350322,110.649502 51.5676703,114.231045 51.5676703,114.231045 C51.5676703,114.231045 48.4040893,118.654425 48.4040893,114.230373 C48.3307271,114.201556 39.3355151,110.688772 36.2166566,120.274377 L24.7046932,103.263548 C24.7046932,103.263548 20.2516235,92.0494587 33.7336848,87.1480249 L33.7336848,82 L36.2830527,82 L36.2830527,98.2014129 C36.6103464,100.990303 38.5489436,108.936823 49.9858798,111.545128 C61.435245,108.936823 63.3759596,100.990303 63.7036088,98.2014129 L63.7036088,82 L66.2557402,82 L66.2557402,87.1480249 C79.7524448,92.0494587 75.2945429,103.263548 75.2945429,103.263548 C74.0429635,105.110956 72.7913841,106.958364 71.5398047,108.805772 C68.9498929,112.62864 66.3599812,116.451508 63.7700695,120.274377 Z" id="Shape-2-copy-9-path" stroke="#515151" stroke-width="2" fill="#FFFFFF"></path>
                <g id="Group-15" transform="translate(9.900990, 0.000000)">
                    <path d="M39.2054922,6.76541099 C56.2495,6.76541099 69.7023474,22.8164163 69.2649229,42.1020884 L68.8000104,62.5993482 C68.3879175,80.7683656 55.1425862,95.1300547 39.2054922,95.1300547 C23.2683979,95.1300547 10.0230666,80.7683656 9.61097404,62.5993482 L9.14606154,42.1020884 C8.70864661,22.8164163 22.1614844,6.76541099 39.2054922,6.76541099 L39.2054922,6.76541099 Z" id="2-copy-5" fill="#FDDEC1"></path>
                    <path d="M63.1167144,86.73544 C63.1167144,85.1459979 53.8624553,93.6251047 53.8624553,93.6251047 C51.974357,95.5801711 44.3277611,100.132015 44.3277611,100.132015 L44.3277611,98.2182183 L38.7191184,100.51478 L36.1952323,98.2182183 L35.9147971,100.51478 C35.1637756,99.3934147 19.9301748,89.0320015 19.9301748,89.0320015 C19.9301748,89.0320015 18.3868925,87.3107184 18.6124203,89.0320015 C18.6271232,89.1442174 17.8575154,88.2977498 17.0797687,87.3408022 C14.9697622,84.7446282 14.8823926,81.7595712 14.8823926,81.7595712 C14.8823926,81.7595712 11.7976463,76.3925023 11.7976463,76.3925023 C9.13569008,69.8639913 9.55419513,64.5354039 9.55419513,64.5354039 L8.72071982,39.2488042 L10.9641807,39.2488042 L11.7976463,57.2629736 L15.4432627,63.3871182 C17.8006439,66.8600611 24.136652,65.3009144 24.136652,65.3009144 C42.4471203,78.1042173 54.1428902,64.5354039 54.1428902,64.5354039 C54.1428902,64.5354039 62.0751641,66.3092544 64.5188702,65.3009144 C66.9625663,64.2925844 67.3153615,39.2132029 67.3153615,39.2132029 L69.2783875,39.2132029 C69.2783875,39.2132029 68.289363,72.9381659 67.8840517,74.8699062 C67.4787404,76.8016367 63.1167144,88.3248821 63.1167144,86.73544 Z M54.7340609,76.8119961 C54.3315815,71.9445113 51.3924276,72.3572485 51.3924276,72.3572485 C46.167302,73.892615 42.0657004,74.7455635 38.861291,75.1790593 L38.861291,75.1472403 C35.6793325,74.7172801 31.6064535,73.8713334 26.4179393,72.3485481 C26.4179393,72.3485481 23.4993646,71.9391884 23.0997075,76.7667858 C23.0997075,76.7667858 21.9277345,80.498981 25.8648989,82.5657098 L30.8422417,85.3271121 C30.8422417,85.3271121 34.2436425,86.4036225 34.1604735,82.2895707 C34.1604735,82.2895707 33.8142734,81.7065495 35.8195845,81.1850135 L38.861291,81.1850135 L38.861291,81.2758683 L41.9244588,81.2758683 C43.9439107,81.8017199 43.5952804,82.4101014 43.5952804,82.4101014 C43.5115231,86.5581546 46.9369037,85.4727364 46.9369037,85.4727364 L51.9493583,82.6679806 C55.9142851,80.5841674 54.7340609,76.8119961 54.7340609,76.8119961 L54.7340609,76.8119961 Z" id="Shape-1" fill="#3B434F"></path>
                    <path d="M53.9334535,74.9996805 C51.4431503,77.1787528 45.8182895,79.252029 39.2735798,79.252029 C32.72886,79.252029 27.1039992,77.1787528 24.6136865,74.9996805 C24.6136865,74.9996805 24.358897,74.2931661 24.7327222,73.9164447 C25.1134658,73.5327513 25.7097518,73.6162585 25.7097518,73.6162585 C28.1974481,75.7968126 32.7263611,77.5952037 39.2735798,77.5952037 C45.8207884,77.5952037 50.3497015,75.7968126 52.8373978,73.6162585 C52.8373978,73.6162585 53.4459137,73.3884599 53.7415183,73.686355 C54.3108652,74.2601128 53.9334535,74.9996805 53.9334535,74.9996805 L53.9334535,74.9996805 Z" id="usta" fill="#3B434F"></path>
                    <path d="M8.70136984,44.5770511 C8.69697642,44.5772683 8.31062625,44.3095826 7.58106629,44.1102946 C7.21643439,44.0108679 6.76325691,43.9290787 6.24672352,43.9089132 C6.1177238,43.9038767 5.98495654,43.9026816 5.84910467,43.9060293 C5.71325243,43.9093772 5.5743044,43.9172579 5.43306847,43.930343 C5.15063093,43.956523 4.85892764,44.00357 4.5653915,44.0768265 C3.39005301,44.3698727 2.19106119,45.0823615 1.48689604,46.5529448 C1.13341905,47.2882759 0.900234044,48.2132168 0.838585666,49.3704795 C0.823161915,49.6598024 0.8184496,49.9636424 0.825210732,50.2826712 C0.831983426,50.6016997 0.850241504,50.9359167 0.880735413,51.2859941 C0.941689663,51.986119 1.05175993,52.749694 1.21576111,53.5817459 C1.21217559,53.5809262 1.06280109,56.0961219 2.09921431,58.9862514 C3.07354685,61.8119235 5.41322856,65.2830102 9.73309386,66.274907 C9.2362635,59.0976374 9.22082893,51.7858337 8.70136984,44.5770511 L8.70136984,44.5770511 L8.70136984,44.5770511 Z" id="Shape-11-copy" fill="#FDDEC1"></path>
                    <path d="M8.02964249,44.8663938 C8.02964249,44.8663938 1.55073684,42.8433447 1.77874423,49.5556356 C1.77874423,49.5556356 2.74333807,59.2886695 3.16221193,60.1856923 C3.16221193,60.1856923 5.70665764,65.8526003 9.9059027,66.1037448 C14.0100523,66.3492007 9.9059027,66.1037448 9.9059027,66.1037448 L9.95687043,67.9303205 C9.95687043,67.9303205 2.57619609,66.9766714 1.15066834,58.405255 L0.0255275314,50.6185376 C0.0255275314,50.6185376 -0.848096552,40.3135828 7.62610468,42.9336957 C15.8816969,45.486221 7.62610468,42.9336957 7.62610468,42.9336957 L8.02964249,44.8663938" id="Shape-3" fill="#3B434F"></path>
                    <path d="M5.89117441,58.3888814 C5.89117441,58.3888814 5.52858913,58.6650208 5.21710901,58.6650208 C4.9056289,58.6650208 4.54746342,58.3888814 4.54746342,58.3888814 L3.87883703,51.5988308 C3.87883703,51.5988308 4.80137083,48.2549111 8.71602579,50.022076 L8.80856323,51.9635928 C8.80856323,51.9635928 5.37404955,50.7361054 5.44506727,52.2646084 C5.51342938,53.7358732 5.89117441,58.3888814 5.89117441,58.3888814 L5.89117441,58.3888814 Z" id="Shape-4" fill="#3B434F"></path>
                    <path d="M69.4796445,44.5929014 C69.4840414,44.5931186 69.8703954,44.3256203 70.5999472,44.1264607 C70.9645871,44.0271033 71.4177603,43.9453736 71.9342965,43.9252175 C72.0632889,43.920191 72.1960554,43.9189959 72.3319157,43.9223439 C72.4677645,43.9256815 72.6067071,43.9335622 72.7479507,43.9466376 C73.0303806,43.9727978 73.3220927,44.0198151 73.6156293,44.0930224 C74.7909651,44.3858709 75.9899531,45.0978759 76.6941188,46.5674618 C77.0475955,47.3022891 77.2807838,48.226598 77.342424,49.3830806 C77.3578485,49.6722061 77.3625629,49.9758389 77.3558082,50.2946503 C77.3490313,50.6134613 77.3307737,50.9474515 77.3002765,51.2972916 C77.2393277,51.9969425 77.1292499,52.760004 76.9652501,53.5914831 C76.9688426,53.5906634 77.1182115,56.1041605 76.0817957,58.9923251 C75.1074736,61.8160811 72.7677836,65.2848075 68.4479204,66.2760329 C68.9447486,59.1036318 68.9601842,51.7967953 69.4796445,44.5929014 L69.4796445,44.5929014 L69.4796445,44.5929014 Z" id="Shape-11-copy_1" fill="#FDDEC1"></path>
                    <path d="M70.118399,44.8820564 C70.118399,44.8820564 76.625684,42.86038 76.3966773,49.5681082 C76.3966773,49.5681082 75.4278599,59.2945357 75.0071435,60.1909463 C75.0071435,60.1909463 72.4515558,65.8540125 68.2339267,66.104989 C64.111795,66.3502773 68.2339267,66.104989 68.2339267,66.104989 L68.1827335,67.9303205 C68.1827335,67.9303205 75.5957269,66.9773231 77.0274971,58.4117234 L78.157567,50.6302892 C78.157567,50.6302892 79.035023,40.3323264 70.5237004,42.9506618 C62.2319579,45.5014587 70.5237004,42.9506618 70.5237004,42.9506618 L70.118399,44.8820564" id="Shape-3_1" fill="#3B434F"></path>
                    <path d="M72.2662356,58.3953599 C72.2662356,58.3953599 72.6304081,58.6713113 72.9432504,58.6713113 C73.2560927,58.6713113 73.6158262,58.3953599 73.6158262,58.3953599 L74.2873827,51.6099209 C74.2873827,51.6099209 73.3608112,48.268273 69.4290072,50.0342327 L69.3360678,51.9744361 C69.3360678,51.9744361 72.785624,50.7477784 72.7142925,52.2752445 C72.6456366,53.7455116 72.2662356,58.3953599 72.2662356,58.3953599 L72.2662356,58.3953599 Z" id="Shape-4_1" fill="#3B434F"></path>
                    <path d="M41.6712177,57.8512288 L42.1507414,57.8512288 C43.1421665,59.2080753 43.5455181,61.2931824 44.0688555,63.0978739 C44.2310389,63.6571541 44.0736967,64.6354034 43.9318475,65.0308487 C43.4123611,66.4791329 41.7811495,66.4531406 40.4381443,67.101893 C40.0774603,67.2761365 39.8091667,67.5768855 39.342079,67.6541811 C39.0375661,67.3838685 38.669895,67.3307779 38.5200202,66.8947935 C38.149997,66.3813258 38.6268944,66.0606777 38.9995536,65.8592665 C39.6758922,65.493734 41.7637455,65.1334651 42.013733,64.4785702 C42.3230379,64.1239896 42.1173736,63.0579079 42.013733,62.6836653 C41.7483012,61.7251078 41.6208967,60.9248552 41.2601931,60.0603426 C41.0205932,59.4861107 40.5999256,58.8806526 40.8491688,58.1963977 C41.055705,58.1070243 41.5020864,58.0054052 41.6712177,57.8512288 L41.6712177,57.8512288 Z" id="new_vector_shape_done" fill="#3B434F"></path>
                    <path d="M23.3556272,47.2198582 L25.9338193,47.2198582 C27.3577097,47.2198582 28.5119985,48.3091369 28.5119985,49.6528329 C28.5119985,50.9965286 27.3577097,52.0858072 25.9338193,52.0858072 L23.3556272,52.0858072 C21.9317368,52.0858072 20.777448,50.9965286 20.777448,49.6528329 C20.777448,48.3091369 21.9317368,47.2198582 23.3556272,47.2198582 L23.3556272,47.2198582 Z" id="Rounded-Rectangle-8" fill="#3B434F"></path>
                    <path d="M54.5935184,47.2198582 L57.1717106,47.2198582 C58.5956006,47.2198582 59.7498895,48.3091369 59.7498895,49.6528329 C59.7498895,50.9965286 58.5956006,52.0858072 57.1717106,52.0858072 L54.5935184,52.0858072 C53.1696279,52.0858072 52.015339,50.9965286 52.015339,49.6528329 C52.015339,48.3091369 53.1696279,47.2198582 54.5935184,47.2198582 L54.5935184,47.2198582 Z" id="Rounded-Rectangle-8-copy" fill="#3B434F"></path>
                    <path d="M9.27848349,53.5710606 C9.27848349,53.5710606 13.0899779,36.7451332 16.4066906,32.1426381 C19.7234033,27.5401433 22.5935387,26.4393095 24.0832245,26.2985239 C25.5729104,26.1577485 37.3040371,29.6524176 53.4185334,25.6491691 C53.4185334,25.6491691 59.7724451,25.3936204 62.4658741,31.8179709 C62.4658741,31.8179709 68.1445545,42.0559497 69.0457548,52.2723706 L70.1423984,52.2723706 C70.1423984,52.2723706 72.466353,34.3633559 71.5132245,23.7011343 C70.5600668,13.0389226 56.7084739,7.7921587 56.7084739,7.7921587 L59.7242508,5.51943657 C59.7242508,5.51943657 52.6833287,3.3259954 49.85443,4.54543421 L52.0477169,-2.3823063e-14 C52.0477169,-2.3823063e-14 37.8384286,0.0285399878 29.8406151,6.493459 L30.1147784,3.24672448 C30.1147784,3.24672448 1.92430741,7.60319094 7.90767663,52.9217158 L9.27848349,53.5710606 L9.27848349,53.5710606 Z" id="Shape-7" fill="#3B434F"></path>
                </g>
            </g>
        </g>
    </g>
</svg>