<?xml version="1.0" encoding="UTF-8"?>
<svg width="1258px" height="34px" viewBox="0 0 1258 34" version="1.1" xmlns="http://www.w3.org/2000/svg" xmlns:xlink="http://www.w3.org/1999/xlink">
    <!-- Generator: Sketch 59.1 (86144) - https://sketch.com -->
    <title>Stroke 1 Copy</title>
    <desc>Created with Sketch.</desc>
    <g id="Our-Story-Page" stroke="none" stroke-width="1" fill="none" fill-rule="evenodd">
        <g transform="translate(-47.000000, -1867.000000)" fill="#4A4A4A" fill-rule="nonzero" id="Stroke-1-Copy">
            <path d="M64,1867 C73.3888407,1867 81,1874.61116 81,1884 C81,1893.38884 73.3888407,1901 64,1901 C54.6111593,1901 47,1893.38884 47,1884 C47,1874.61116 54.6111593,1867 64,1867 Z M1272.91703,1867 C1273.23188,1867 1273.54242,1867.07331 1273.82404,1867.21412 L1273.82404,1867.21412 L1303.76732,1882.18576 C1304.76917,1882.68668 1305.17526,1883.90493 1304.67433,1884.90679 C1304.47808,1885.29929 1304.15982,1885.61755 1303.76732,1885.8138 L1303.76732,1885.8138 L1273.82404,1900.78544 C1272.82218,1901.28637 1271.60393,1900.88029 1271.10301,1899.87843 C1270.9622,1899.59681 1270.88889,1899.28628 1270.88889,1898.97142 L1270.88889,1898.97142 L1270.888,1887 L1270,1887 L1270,1881 L1270.888,1881 L1270.88889,1869.02814 C1270.88889,1867.95894 1271.71624,1867.08299 1272.76566,1867.00556 Z M64,1873 C57.9248678,1873 53,1877.92487 53,1884 C53,1890.07513 57.9248678,1895 64,1895 C70.0751322,1895 75,1890.07513 75,1884 C75,1877.92487 70.0751322,1873 64,1873 Z M84,1881 L84,1887 L82,1887 L82,1881 L84,1881 Z M88,1881 L88,1887 L86,1887 L86,1881 L88,1881 Z M92,1881 L92,1887 L90,1887 L90,1881 L92,1881 Z M96,1881 L96,1887 L94,1887 L94,1881 L96,1881 Z M100,1881 L100,1887 L98,1887 L98,1881 L100,1881 Z M104,1881 L104,1887 L102,1887 L102,1881 L104,1881 Z M108,1881 L108,1887 L106,1887 L106,1881 L108,1881 Z M112,1881 L112,1887 L110,1887 L110,1881 L112,1881 Z M116,1881 L116,1887 L114,1887 L114,1881 L116,1881 Z M120,1881 L120,1887 L118,1887 L118,1881 L120,1881 Z M124,1881 L124,1887 L122,1887 L122,1881 L124,1881 Z M128,1881 L128,1887 L126,1887 L126,1881 L128,1881 Z M132,1881 L132,1887 L130,1887 L130,1881 L132,1881 Z M136,1881 L136,1887 L134,1887 L134,1881 L136,1881 Z M140,1881 L140,1887 L138,1887 L138,1881 L140,1881 Z M144,1881 L144,1887 L142,1887 L142,1881 L144,1881 Z M148,1881 L148,1887 L146,1887 L146,1881 L148,1881 Z M152,1881 L152,1887 L150,1887 L150,1881 L152,1881 Z M156,1881 L156,1887 L154,1887 L154,1881 L156,1881 Z M160,1881 L160,1887 L158,1887 L158,1881 L160,1881 Z M164,1881 L164,1887 L162,1887 L162,1881 L164,1881 Z M168,1881 L168,1887 L166,1887 L166,1881 L168,1881 Z M172,1881 L172,1887 L170,1887 L170,1881 L172,1881 Z M176,1881 L176,1887 L174,1887 L174,1881 L176,1881 Z M180,1881 L180,1887 L178,1887 L178,1881 L180,1881 Z M184,1881 L184,1887 L182,1887 L182,1881 L184,1881 Z M188,1881 L188,1887 L186,1887 L186,1881 L188,1881 Z M192,1881 L192,1887 L190,1887 L190,1881 L192,1881 Z M196,1881 L196,1887 L194,1887 L194,1881 L196,1881 Z M200,1881 L200,1887 L198,1887 L198,1881 L200,1881 Z M204,1881 L204,1887 L202,1887 L202,1881 L204,1881 Z M208,1881 L208,1887 L206,1887 L206,1881 L208,1881 Z M212,1881 L212,1887 L210,1887 L210,1881 L212,1881 Z M216,1881 L216,1887 L214,1887 L214,1881 L216,1881 Z M220,1881 L220,1887 L218,1887 L218,1881 L220,1881 Z M224,1881 L224,1887 L222,1887 L222,1881 L224,1881 Z M228,1881 L228,1887 L226,1887 L226,1881 L228,1881 Z M232,1881 L232,1887 L230,1887 L230,1881 L232,1881 Z M236,1881 L236,1887 L234,1887 L234,1881 L236,1881 Z M240,1881 L240,1887 L238,1887 L238,1881 L240,1881 Z M244,1881 L244,1887 L242,1887 L242,1881 L244,1881 Z M248,1881 L248,1887 L246,1887 L246,1881 L248,1881 Z M252,1881 L252,1887 L250,1887 L250,1881 L252,1881 Z M256,1881 L256,1887 L254,1887 L254,1881 L256,1881 Z M260,1881 L260,1887 L258,1887 L258,1881 L260,1881 Z M264,1881 L264,1887 L262,1887 L262,1881 L264,1881 Z M268,1881 L268,1887 L266,1887 L266,1881 L268,1881 Z M272,1881 L272,1887 L270,1887 L270,1881 L272,1881 Z M276,1881 L276,1887 L274,1887 L274,1881 L276,1881 Z M280,1881 L280,1887 L278,1887 L278,1881 L280,1881 Z M284,1881 L284,1887 L282,1887 L282,1881 L284,1881 Z M288,1881 L288,1887 L286,1887 L286,1881 L288,1881 Z M292,1881 L292,1887 L290,1887 L290,1881 L292,1881 Z M296,1881 L296,1887 L294,1887 L294,1881 L296,1881 Z M300,1881 L300,1887 L298,1887 L298,1881 L300,1881 Z M304,1881 L304,1887 L302,1887 L302,1881 L304,1881 Z M308,1881 L308,1887 L306,1887 L306,1881 L308,1881 Z M312,1881 L312,1887 L310,1887 L310,1881 L312,1881 Z M316,1881 L316,1887 L314,1887 L314,1881 L316,1881 Z M320,1881 L320,1887 L318,1887 L318,1881 L320,1881 Z M324,1881 L324,1887 L322,1887 L322,1881 L324,1881 Z M328,1881 L328,1887 L326,1887 L326,1881 L328,1881 Z M332,1881 L332,1887 L330,1887 L330,1881 L332,1881 Z M336,1881 L336,1887 L334,1887 L334,1881 L336,1881 Z M340,1881 L340,1887 L338,1887 L338,1881 L340,1881 Z M344,1881 L344,1887 L342,1887 L342,1881 L344,1881 Z M348,1881 L348,1887 L346,1887 L346,1881 L348,1881 Z M352,1881 L352,1887 L350,1887 L350,1881 L352,1881 Z M356,1881 L356,1887 L354,1887 L354,1881 L356,1881 Z M360,1881 L360,1887 L358,1887 L358,1881 L360,1881 Z M364,1881 L364,1887 L362,1887 L362,1881 L364,1881 Z M368,1881 L368,1887 L366,1887 L366,1881 L368,1881 Z M372,1881 L372,1887 L370,1887 L370,1881 L372,1881 Z M376,1881 L376,1887 L374,1887 L374,1881 L376,1881 Z M380,1881 L380,1887 L378,1887 L378,1881 L380,1881 Z M384,1881 L384,1887 L382,1887 L382,1881 L384,1881 Z M388,1881 L388,1887 L386,1887 L386,1881 L388,1881 Z M392,1881 L392,1887 L390,1887 L390,1881 L392,1881 Z M396,1881 L396,1887 L394,1887 L394,1881 L396,1881 Z M400,1881 L400,1887 L398,1887 L398,1881 L400,1881 Z M404,1881 L404,1887 L402,1887 L402,1881 L404,1881 Z M408,1881 L408,1887 L406,1887 L406,1881 L408,1881 Z M412,1881 L412,1887 L410,1887 L410,1881 L412,1881 Z M416,1881 L416,1887 L414,1887 L414,1881 L416,1881 Z M420,1881 L420,1887 L418,1887 L418,1881 L420,1881 Z M424,1881 L424,1887 L422,1887 L422,1881 L424,1881 Z M428,1881 L428,1887 L426,1887 L426,1881 L428,1881 Z M432,1881 L432,1887 L430,1887 L430,1881 L432,1881 Z M436,1881 L436,1887 L434,1887 L434,1881 L436,1881 Z M440,1881 L440,1887 L438,1887 L438,1881 L440,1881 Z M444,1881 L444,1887 L442,1887 L442,1881 L444,1881 Z M448,1881 L448,1887 L446,1887 L446,1881 L448,1881 Z M452,1881 L452,1887 L450,1887 L450,1881 L452,1881 Z M456,1881 L456,1887 L454,1887 L454,1881 L456,1881 Z M460,1881 L460,1887 L458,1887 L458,1881 L460,1881 Z M464,1881 L464,1887 L462,1887 L462,1881 L464,1881 Z M468,1881 L468,1887 L466,1887 L466,1881 L468,1881 Z M472,1881 L472,1887 L470,1887 L470,1881 L472,1881 Z M476,1881 L476,1887 L474,1887 L474,1881 L476,1881 Z M480,1881 L480,1887 L478,1887 L478,1881 L480,1881 Z M484,1881 L484,1887 L482,1887 L482,1881 L484,1881 Z M488,1881 L488,1887 L486,1887 L486,1881 L488,1881 Z M492,1881 L492,1887 L490,1887 L490,1881 L492,1881 Z M496,1881 L496,1887 L494,1887 L494,1881 L496,1881 Z M500,1881 L500,1887 L498,1887 L498,1881 L500,1881 Z M504,1881 L504,1887 L502,1887 L502,1881 L504,1881 Z M508,1881 L508,1887 L506,1887 L506,1881 L508,1881 Z M512,1881 L512,1887 L510,1887 L510,1881 L512,1881 Z M516,1881 L516,1887 L514,1887 L514,1881 L516,1881 Z M520,1881 L520,1887 L518,1887 L518,1881 L520,1881 Z M524,1881 L524,1887 L522,1887 L522,1881 L524,1881 Z M528,1881 L528,1887 L526,1887 L526,1881 L528,1881 Z M532,1881 L532,1887 L530,1887 L530,1881 L532,1881 Z M536,1881 L536,1887 L534,1887 L534,1881 L536,1881 Z M540,1881 L540,1887 L538,1887 L538,1881 L540,1881 Z M544,1881 L544,1887 L542,1887 L542,1881 L544,1881 Z M548,1881 L548,1887 L546,1887 L546,1881 L548,1881 Z M552,1881 L552,1887 L550,1887 L550,1881 L552,1881 Z M556,1881 L556,1887 L554,1887 L554,1881 L556,1881 Z M560,1881 L560,1887 L558,1887 L558,1881 L560,1881 Z M564,1881 L564,1887 L562,1887 L562,1881 L564,1881 Z M568,1881 L568,1887 L566,1887 L566,1881 L568,1881 Z M572,1881 L572,1887 L570,1887 L570,1881 L572,1881 Z M576,1881 L576,1887 L574,1887 L574,1881 L576,1881 Z M580,1881 L580,1887 L578,1887 L578,1881 L580,1881 Z M584,1881 L584,1887 L582,1887 L582,1881 L584,1881 Z M588,1881 L588,1887 L586,1887 L586,1881 L588,1881 Z M592,1881 L592,1887 L590,1887 L590,1881 L592,1881 Z M596,1881 L596,1887 L594,1887 L594,1881 L596,1881 Z M600,1881 L600,1887 L598,1887 L598,1881 L600,1881 Z M604,1881 L604,1887 L602,1887 L602,1881 L604,1881 Z M608,1881 L608,1887 L606,1887 L606,1881 L608,1881 Z M612,1881 L612,1887 L610,1887 L610,1881 L612,1881 Z M616,1881 L616,1887 L614,1887 L614,1881 L616,1881 Z M620,1881 L620,1887 L618,1887 L618,1881 L620,1881 Z M624,1881 L624,1887 L622,1887 L622,1881 L624,1881 Z M628,1881 L628,1887 L626,1887 L626,1881 L628,1881 Z M632,1881 L632,1887 L630,1887 L630,1881 L632,1881 Z M636,1881 L636,1887 L634,1887 L634,1881 L636,1881 Z M640,1881 L640,1887 L638,1887 L638,1881 L640,1881 Z M644,1881 L644,1887 L642,1887 L642,1881 L644,1881 Z M648,1881 L648,1887 L646,1887 L646,1881 L648,1881 Z M652,1881 L652,1887 L650,1887 L650,1881 L652,1881 Z M656,1881 L656,1887 L654,1887 L654,1881 L656,1881 Z M660,1881 L660,1887 L658,1887 L658,1881 L660,1881 Z M664,1881 L664,1887 L662,1887 L662,1881 L664,1881 Z M668,1881 L668,1887 L666,1887 L666,1881 L668,1881 Z M672,1881 L672,1887 L670,1887 L670,1881 L672,1881 Z M676,1881 L676,1887 L674,1887 L674,1881 L676,1881 Z M680,1881 L680,1887 L678,1887 L678,1881 L680,1881 Z M684,1881 L684,1887 L682,1887 L682,1881 L684,1881 Z M688,1881 L688,1887 L686,1887 L686,1881 L688,1881 Z M692,1881 L692,1887 L690,1887 L690,1881 L692,1881 Z M696,1881 L696,1887 L694,1887 L694,1881 L696,1881 Z M700,1881 L700,1887 L698,1887 L698,1881 L700,1881 Z M704,1881 L704,1887 L702,1887 L702,1881 L704,1881 Z M708,1881 L708,1887 L706,1887 L706,1881 L708,1881 Z M712,1881 L712,1887 L710,1887 L710,1881 L712,1881 Z M716,1881 L716,1887 L714,1887 L714,1881 L716,1881 Z M720,1881 L720,1887 L718,1887 L718,1881 L720,1881 Z M724,1881 L724,1887 L722,1887 L722,1881 L724,1881 Z M728,1881 L728,1887 L726,1887 L726,1881 L728,1881 Z M732,1881 L732,1887 L730,1887 L730,1881 L732,1881 Z M736,1881 L736,1887 L734,1887 L734,1881 L736,1881 Z M740,1881 L740,1887 L738,1887 L738,1881 L740,1881 Z M744,1881 L744,1887 L742,1887 L742,1881 L744,1881 Z M748,1881 L748,1887 L746,1887 L746,1881 L748,1881 Z M752,1881 L752,1887 L750,1887 L750,1881 L752,1881 Z M756,1881 L756,1887 L754,1887 L754,1881 L756,1881 Z M760,1881 L760,1887 L758,1887 L758,1881 L760,1881 Z M764,1881 L764,1887 L762,1887 L762,1881 L764,1881 Z M768,1881 L768,1887 L766,1887 L766,1881 L768,1881 Z M772,1881 L772,1887 L770,1887 L770,1881 L772,1881 Z M776,1881 L776,1887 L774,1887 L774,1881 L776,1881 Z M780,1881 L780,1887 L778,1887 L778,1881 L780,1881 Z M784,1881 L784,1887 L782,1887 L782,1881 L784,1881 Z M788,1881 L788,1887 L786,1887 L786,1881 L788,1881 Z M792,1881 L792,1887 L790,1887 L790,1881 L792,1881 Z M796,1881 L796,1887 L794,1887 L794,1881 L796,1881 Z M800,1881 L800,1887 L798,1887 L798,1881 L800,1881 Z M804,1881 L804,1887 L802,1887 L802,1881 L804,1881 Z M808,1881 L808,1887 L806,1887 L806,1881 L808,1881 Z M812,1881 L812,1887 L810,1887 L810,1881 L812,1881 Z M816,1881 L816,1887 L814,1887 L814,1881 L816,1881 Z M820,1881 L820,1887 L818,1887 L818,1881 L820,1881 Z M824,1881 L824,1887 L822,1887 L822,1881 L824,1881 Z M828,1881 L828,1887 L826,1887 L826,1881 L828,1881 Z M832,1881 L832,1887 L830,1887 L830,1881 L832,1881 Z M836,1881 L836,1887 L834,1887 L834,1881 L836,1881 Z M840,1881 L840,1887 L838,1887 L838,1881 L840,1881 Z M844,1881 L844,1887 L842,1887 L842,1881 L844,1881 Z M848,1881 L848,1887 L846,1887 L846,1881 L848,1881 Z M852,1881 L852,1887 L850,1887 L850,1881 L852,1881 Z M856,1881 L856,1887 L854,1887 L854,1881 L856,1881 Z M860,1881 L860,1887 L858,1887 L858,1881 L860,1881 Z M864,1881 L864,1887 L862,1887 L862,1881 L864,1881 Z M868,1881 L868,1887 L866,1887 L866,1881 L868,1881 Z M872,1881 L872,1887 L870,1887 L870,1881 L872,1881 Z M876,1881 L876,1887 L874,1887 L874,1881 L876,1881 Z M880,1881 L880,1887 L878,1887 L878,1881 L880,1881 Z M884,1881 L884,1887 L882,1887 L882,1881 L884,1881 Z M888,1881 L888,1887 L886,1887 L886,1881 L888,1881 Z M892,1881 L892,1887 L890,1887 L890,1881 L892,1881 Z M896,1881 L896,1887 L894,1887 L894,1881 L896,1881 Z M900,1881 L900,1887 L898,1887 L898,1881 L900,1881 Z M904,1881 L904,1887 L902,1887 L902,1881 L904,1881 Z M908,1881 L908,1887 L906,1887 L906,1881 L908,1881 Z M912,1881 L912,1887 L910,1887 L910,1881 L912,1881 Z M916,1881 L916,1887 L914,1887 L914,1881 L916,1881 Z M920,1881 L920,1887 L918,1887 L918,1881 L920,1881 Z M924,1881 L924,1887 L922,1887 L922,1881 L924,1881 Z M928,1881 L928,1887 L926,1887 L926,1881 L928,1881 Z M932,1881 L932,1887 L930,1887 L930,1881 L932,1881 Z M936,1881 L936,1887 L934,1887 L934,1881 L936,1881 Z M940,1881 L940,1887 L938,1887 L938,1881 L940,1881 Z M944,1881 L944,1887 L942,1887 L942,1881 L944,1881 Z M948,1881 L948,1887 L946,1887 L946,1881 L948,1881 Z M952,1881 L952,1887 L950,1887 L950,1881 L952,1881 Z M956,1881 L956,1887 L954,1887 L954,1881 L956,1881 Z M960,1881 L960,1887 L958,1887 L958,1881 L960,1881 Z M964,1881 L964,1887 L962,1887 L962,1881 L964,1881 Z M968,1881 L968,1887 L966,1887 L966,1881 L968,1881 Z M972,1881 L972,1887 L970,1887 L970,1881 L972,1881 Z M976,1881 L976,1887 L974,1887 L974,1881 L976,1881 Z M980,1881 L980,1887 L978,1887 L978,1881 L980,1881 Z M984,1881 L984,1887 L982,1887 L982,1881 L984,1881 Z M988,1881 L988,1887 L986,1887 L986,1881 L988,1881 Z M992,1881 L992,1887 L990,1887 L990,1881 L992,1881 Z M996,1881 L996,1887 L994,1887 L994,1881 L996,1881 Z M1000,1881 L1000,1887 L998,1887 L998,1881 L1000,1881 Z M1004,1881 L1004,1887 L1002,1887 L1002,1881 L1004,1881 Z M1008,1881 L1008,1887 L1006,1887 L1006,1881 L1008,1881 Z M1012,1881 L1012,1887 L1010,1887 L1010,1881 L1012,1881 Z M1016,1881 L1016,1887 L1014,1887 L1014,1881 L1016,1881 Z M1020,1881 L1020,1887 L1018,1887 L1018,1881 L1020,1881 Z M1024,1881 L1024,1887 L1022,1887 L1022,1881 L1024,1881 Z M1028,1881 L1028,1887 L1026,1887 L1026,1881 L1028,1881 Z M1032,1881 L1032,1887 L1030,1887 L1030,1881 L1032,1881 Z M1036,1881 L1036,1887 L1034,1887 L1034,1881 L1036,1881 Z M1040,1881 L1040,1887 L1038,1887 L1038,1881 L1040,1881 Z M1044,1881 L1044,1887 L1042,1887 L1042,1881 L1044,1881 Z M1048,1881 L1048,1887 L1046,1887 L1046,1881 L1048,1881 Z M1052,1881 L1052,1887 L1050,1887 L1050,1881 L1052,1881 Z M1056,1881 L1056,1887 L1054,1887 L1054,1881 L1056,1881 Z M1060,1881 L1060,1887 L1058,1887 L1058,1881 L1060,1881 Z M1064,1881 L1064,1887 L1062,1887 L1062,1881 L1064,1881 Z M1068,1881 L1068,1887 L1066,1887 L1066,1881 L1068,1881 Z M1072,1881 L1072,1887 L1070,1887 L1070,1881 L1072,1881 Z M1076,1881 L1076,1887 L1074,1887 L1074,1881 L1076,1881 Z M1080,1881 L1080,1887 L1078,1887 L1078,1881 L1080,1881 Z M1084,1881 L1084,1887 L1082,1887 L1082,1881 L1084,1881 Z M1088,1881 L1088,1887 L1086,1887 L1086,1881 L1088,1881 Z M1092,1881 L1092,1887 L1090,1887 L1090,1881 L1092,1881 Z M1096,1881 L1096,1887 L1094,1887 L1094,1881 L1096,1881 Z M1100,1881 L1100,1887 L1098,1887 L1098,1881 L1100,1881 Z M1104,1881 L1104,1887 L1102,1887 L1102,1881 L1104,1881 Z M1108,1881 L1108,1887 L1106,1887 L1106,1881 L1108,1881 Z M1112,1881 L1112,1887 L1110,1887 L1110,1881 L1112,1881 Z M1116,1881 L1116,1887 L1114,1887 L1114,1881 L1116,1881 Z M1120,1881 L1120,1887 L1118,1887 L1118,1881 L1120,1881 Z M1124,1881 L1124,1887 L1122,1887 L1122,1881 L1124,1881 Z M1128,1881 L1128,1887 L1126,1887 L1126,1881 L1128,1881 Z M1132,1881 L1132,1887 L1130,1887 L1130,1881 L1132,1881 Z M1136,1881 L1136,1887 L1134,1887 L1134,1881 L1136,1881 Z M1140,1881 L1140,1887 L1138,1887 L1138,1881 L1140,1881 Z M1144,1881 L1144,1887 L1142,1887 L1142,1881 L1144,1881 Z M1148,1881 L1148,1887 L1146,1887 L1146,1881 L1148,1881 Z M1152,1881 L1152,1887 L1150,1887 L1150,1881 L1152,1881 Z M1156,1881 L1156,1887 L1154,1887 L1154,1881 L1156,1881 Z M1160,1881 L1160,1887 L1158,1887 L1158,1881 L1160,1881 Z M1164,1881 L1164,1887 L1162,1887 L1162,1881 L1164,1881 Z M1168,1881 L1168,1887 L1166,1887 L1166,1881 L1168,1881 Z M1172,1881 L1172,1887 L1170,1887 L1170,1881 L1172,1881 Z M1176,1881 L1176,1887 L1174,1887 L1174,1881 L1176,1881 Z M1180,1881 L1180,1887 L1178,1887 L1178,1881 L1180,1881 Z M1184,1881 L1184,1887 L1182,1887 L1182,1881 L1184,1881 Z M1188,1881 L1188,1887 L1186,1887 L1186,1881 L1188,1881 Z M1192,1881 L1192,1887 L1190,1887 L1190,1881 L1192,1881 Z M1196,1881 L1196,1887 L1194,1887 L1194,1881 L1196,1881 Z M1200,1881 L1200,1887 L1198,1887 L1198,1881 L1200,1881 Z M1204,1881 L1204,1887 L1202,1887 L1202,1881 L1204,1881 Z M1208,1881 L1208,1887 L1206,1887 L1206,1881 L1208,1881 Z M1212,1881 L1212,1887 L1210,1887 L1210,1881 L1212,1881 Z M1216,1881 L1216,1887 L1214,1887 L1214,1881 L1216,1881 Z M1220,1881 L1220,1887 L1218,1887 L1218,1881 L1220,1881 Z M1224,1881 L1224,1887 L1222,1887 L1222,1881 L1224,1881 Z M1228,1881 L1228,1887 L1226,1887 L1226,1881 L1228,1881 Z M1232,1881 L1232,1887 L1230,1887 L1230,1881 L1232,1881 Z M1236,1881 L1236,1887 L1234,1887 L1234,1881 L1236,1881 Z M1240,1881 L1240,1887 L1238,1887 L1238,1881 L1240,1881 Z M1244,1881 L1244,1887 L1242,1887 L1242,1881 L1244,1881 Z M1248,1881 L1248,1887 L1246,1887 L1246,1881 L1248,1881 Z M1252,1881 L1252,1887 L1250,1887 L1250,1881 L1252,1881 Z M1256,1881 L1256,1887 L1254,1887 L1254,1881 L1256,1881 Z M1260,1881 L1260,1887 L1258,1887 L1258,1881 L1260,1881 Z M1264,1881 L1264,1887 L1262,1887 L1262,1881 L1264,1881 Z M1268,1881 L1268,1887 L1266,1887 L1266,1881 L1268,1881 Z"></path>
        </g>
    </g>
</svg>