<?xml version="1.0" encoding="UTF-8"?>
<svg width="34px" height="34px" viewBox="0 0 34 34" version="1.1" xmlns="http://www.w3.org/2000/svg" xmlns:xlink="http://www.w3.org/1999/xlink">
    <!-- Generator: Sketch 59.1 (86144) - https://sketch.com -->
    <title>Stroke 1 Copy</title>
    <desc>Created with Sketch.</desc>
    <g id="Our-Story-Page" stroke="none" stroke-width="1" fill="none" fill-rule="evenodd">
        <path id="Stroke-1-Copy" d="M17,0 C26.3888407,0 34,7.61115925 34,17 C34,26.3888407 26.3888407,34 17,34 C7.61115925,34 0,26.3888407 0,17 C0,7.61115925 7.61115925,0 17,0 Z M17,6 C10.9248678,6 6,10.9248678 6,17 C6,23.0751322 10.9248678,28 17,28 C23.0751322,28 28,23.0751322 28,17 C28,10.9248678 23.0751322,6 17,6 Z M19,14 L19,20 L17,20 L17,14 L19,14 Z M23,14 L23,20 L21,20 L21,14 L23,14 Z M27,14 L27,20 L25,20 L25,14 L27,14 Z" fill="#4A4A4A" fill-rule="nonzero"></path>
    </g>
</svg>