<?xml version="1.0" encoding="UTF-8"?>
<svg width="637px" height="159px" viewBox="0 0 637 159" version="1.1" xmlns="http://www.w3.org/2000/svg" xmlns:xlink="http://www.w3.org/1999/xlink">
    <!-- Generator: Sketch 59.1 (86144) - https://sketch.com -->
    <title>Group</title>
    <desc>Created with Sketch.</desc>
    <defs>
        <filter x="-1.4%" y="-850.0%" width="102.7%" height="1800.0%" filterUnits="objectBoundingBox" id="filter-1">
            <feGaussianBlur stdDeviation="2" in="SourceGraphic"></feGaussianBlur>
        </filter>
        <polygon id="path-2" points="0.9264 0.7442 121.432 0.7442 121.432 81.6342 0.9264 81.6342"></polygon>
        <filter x="-13.8%" y="-14.0%" width="127.6%" height="128.1%" filterUnits="objectBoundingBox" id="filter-4">
            <feOffset dx="0" dy="2" in="SourceAlpha" result="shadowOffsetOuter1"></feOffset>
            <feGaussianBlur stdDeviation="1" in="shadowOffsetOuter1" result="shadowBlurOuter1"></feGaussianBlur>
            <feColorMatrix values="0 0 0 0 0   0 0 0 0 0   0 0 0 0 0  0 0 0 0.299032998 0" type="matrix" in="shadowBlurOuter1" result="shadowMatrixOuter1"></feColorMatrix>
            <feMerge>
                <feMergeNode in="shadowMatrixOuter1"></feMergeNode>
                <feMergeNode in="SourceGraphic"></feMergeNode>
            </feMerge>
        </filter>
        <filter x="-20.5%" y="-16.7%" width="141.0%" height="133.3%" filterUnits="objectBoundingBox" id="filter-5">
            <feOffset dx="0" dy="1" in="SourceAlpha" result="shadowOffsetOuter1"></feOffset>
            <feGaussianBlur stdDeviation="1.5" in="shadowOffsetOuter1" result="shadowBlurOuter1"></feGaussianBlur>
            <feColorMatrix values="0 0 0 0 0   0 0 0 0 0   0 0 0 0 0  0 0 0 0.297667177 0" type="matrix" in="shadowBlurOuter1" result="shadowMatrixOuter1"></feColorMatrix>
            <feMerge>
                <feMergeNode in="shadowMatrixOuter1"></feMergeNode>
                <feMergeNode in="SourceGraphic"></feMergeNode>
            </feMerge>
        </filter>
        <path d="M2.407,1.022 C2.07,1.339 2.123,1.797 2.123,1.797 L2.123,1.797 C2.123,1.797 2.617,1.828 2.901,1.394 L2.901,1.394 C3.185,0.961 3.109,0.67 3.109,0.67 L3.109,0.67 C3.109,0.67 2.743,0.706 2.407,1.022 L2.407,1.022 Z M2.737,1.893 L2.159,2.087 C2.159,2.087 1.897,2.001 1.727,1.937 L1.727,1.937 C1.558,1.872 1.502,1.855 1.355,1.857 L1.355,1.857 C0.629,1.87 0.314,2.515 0.314,2.515 L0.314,2.515 C0.314,2.515 0.043,2.938 0.153,3.676 L0.153,3.676 C0.262,4.413 0.63,4.932 0.798,5.152 L0.798,5.152 C0.964,5.37 1.079,5.443 1.177,5.5 L1.177,5.5 C1.274,5.557 1.374,5.557 1.402,5.557 L1.402,5.557 C1.43,5.557 1.488,5.554 1.564,5.534 L1.564,5.534 C1.64,5.515 1.883,5.422 1.883,5.422 L1.883,5.422 C1.883,5.422 2.111,5.358 2.232,5.358 L2.232,5.358 C2.353,5.358 2.527,5.412 2.527,5.412 L2.527,5.412 L2.824,5.52 C2.824,5.52 2.978,5.554 3.052,5.554 L3.052,5.554 C3.127,5.554 3.073,5.557 3.224,5.512 L3.224,5.512 C3.374,5.466 3.574,5.25 3.574,5.25 L3.574,5.25 C3.574,5.25 3.691,5.101 3.864,4.843 L3.864,4.843 C4.036,4.585 4.127,4.256 4.127,4.256 L4.127,4.256 C4.127,4.256 3.956,4.198 3.709,3.944 L3.709,3.944 C3.464,3.689 3.472,3.234 3.472,3.234 L3.472,3.234 C3.472,3.234 3.452,3.132 3.554,2.833 L3.554,2.833 C3.658,2.534 4.001,2.33 4.001,2.33 L4.001,2.33 C4.001,2.33 3.87,2.154 3.715,2.043 L3.715,2.043 C3.56,1.93 3.212,1.845 3.059,1.845 L3.059,1.845 C2.905,1.845 2.737,1.893 2.737,1.893 L2.737,1.893 Z" id="path-6"></path>
    </defs>
    <g id="Our-Story-Page" stroke="none" stroke-width="1" fill="none" fill-rule="evenodd">
        <g transform="translate(-361.000000, -203.000000)" id="Group">
            <g transform="translate(368.000000, 193.000000)">
                <text id="This-is-our-story" font-family="Gotham-Book, Gotham" font-size="31" font-weight="300" fill="#084E75">
                    <tspan x="48" y="25">This is our story</tspan>
                </text>
                <g id="Group-11" transform="translate(0.000000, 9.000000)">
                    <line x1="0.5" y1="152.5" x2="622.5" y2="152.5" id="Line" stroke="#DEDEDE" stroke-width="6" stroke-linecap="square" filter="url(#filter-1)"></line>
                    <g id="Group-125" transform="translate(48.000000, 0.000000)">
                        <polygon id="Fill-1" fill="#1C75BB" points="0 149.263 18.158 149.263 18.158 39.71 0 39.71"></polygon>
                        <g id="Group-121" transform="translate(39.000000, 0.629000)">
                            <path d="M193.3268,69.3952 L211.4858,69.3952 L211.4858,81.5522 C216.5878,74.1982 223.9408,67.7442 236.2478,67.7442 C254.1058,67.7442 264.4608,79.7502 264.4608,98.0592 L264.4608,148.6342 L246.3028,148.6342 L246.3028,103.6122 C246.3028,91.3072 240.1488,84.2522 229.3448,84.2522 C218.8398,84.2522 211.4858,91.6062 211.4858,103.9132 L211.4858,148.6342 L193.3268,148.6342 L193.3268,69.3952 Z" id="Fill-2" fill="#1C75BB"></path>
                            <path d="M283.2242,119.8205 L283.2242,69.3955 L301.3822,69.3955 L301.3822,114.4175 C301.3822,126.7245 307.5362,133.6265 318.3402,133.6265 C328.8462,133.6265 336.2002,126.4245 336.2002,114.1185 L336.2002,69.3955 L354.5072,69.3955 L354.5072,148.6335 L336.2002,148.6335 L336.2002,136.3295 C331.0972,143.8335 323.7442,150.2855 311.4382,150.2855 C293.5792,150.2855 283.2242,138.2795 283.2242,119.8205" id="Fill-4" fill="#1C75BB"></path>
                            <g id="Group-8" transform="translate(374.000000, 67.000000)">
                                <mask id="mask-3" fill="white">
                                    <use xlink:href="#path-2"></use>
                                </mask>
                                <g id="Clip-7"></g>
                                <path d="M0.9264,2.3952 L19.0844,2.3952 L19.0844,14.4012 C24.1864,7.3492 31.0904,0.7442 43.2454,0.7442 C54.6514,0.7442 62.7554,6.2972 66.9564,14.7022 C73.2604,6.2972 81.6634,0.7442 93.6694,0.7442 C110.9284,0.7442 121.4324,11.7012 121.4324,31.0592 L121.4324,81.6342 L103.2744,81.6342 L103.2744,36.6122 C103.2744,24.0062 97.4214,17.2522 87.2174,17.2522 C77.3114,17.2522 70.2594,24.1562 70.2594,36.9132 L70.2594,81.6342 L52.0994,81.6342 L52.0994,36.4622 C52.0994,24.1562 46.0964,17.2522 36.0424,17.2522 C25.9884,17.2522 19.0844,24.7562 19.0844,36.9132 L19.0844,81.6342 L0.9264,81.6342 L0.9264,2.3952 Z" id="Fill-6" fill="#1C75BB" mask="url(#mask-3)"></path>
                            </g>
                            <path d="M38.7477,142.0002 C17.6017,142.0002 0.4587,124.8572 0.4587,103.7122 C0.4587,82.5652 17.6017,65.4232 38.7477,65.4232" id="Stroke-9" stroke="#1C75BB" stroke-width="16"></path>
                            <path d="M136.6773,65.4236 C157.8233,65.4236 174.9653,82.5656 174.9653,103.7126 C174.9653,124.8576 157.8233,142.0006 136.6773,142.0006" id="Stroke-11" stroke="#F6931D" stroke-width="16"></path>
                            <path d="M39.8624,65.4236 C75.9454,65.4236 87.7124,103.7126 87.7124,103.7126 C87.7124,103.7126 98.8594,142.0006 134.9834,142.0006" id="Stroke-13" stroke="#1C75BB" stroke-width="16"></path>
                            <path d="M134.983,65.4236 C97.195,65.4236 87.712,103.7126 87.712,103.7126 C87.712,103.7126 76.565,142.0006 40.442,142.0006" id="Stroke-15" stroke="#27A9E0" stroke-width="16"></path>
                            <path d="M260.818,102.5383 C260.672,103.1123 260.075,105.7323 260.101,106.3963 C260.151,107.6523 260.457,108.8683 260.819,109.2773 C261.374,109.9033 263.749,110.6253 264.147,110.1633 C264.547,109.6983 265.326,109.3543 265.562,109.7513 C265.797,110.1433 267.577,111.8553 270.407,112.1523 C273.235,112.4483 276.254,112.4673 277.374,111.4313 C278.492,110.3923 278.357,109.1523 277.712,108.3023 C277.065,107.4503 269.42,105.3323 268.543,103.5003 L260.818,102.5383 Z" id="Fill-17" fill="#4C3F36"></path>
                            <g id="Group-10" filter="url(#filter-4)" transform="translate(222.636884, 54.272000)">
                                <path d="M18.786516,2.1735 C18.786516,2.1735 41.452516,9.3155 46.265516,11.1775 C51.077516,13.0405 54.026516,15.5235 53.871516,18.3195 C53.719516,21.1135 50.611516,30.7375 50.456516,33.6865 C50.302516,36.6355 48.250516,50.5505 47.989516,50.8095 C47.729516,51.0695 40.451516,51.7835 37.527516,49.5105 C37.527516,49.5105 39.996516,33.1325 39.996516,32.1575 C39.996516,31.1835 37.850516,18.7055 37.850516,18.7055 C37.850516,18.7055 15.236516,8.5675 16.015516,8.7615 C16.795516,8.9565 18.786516,2.1735 18.786516,2.1735" id="Fill-19" fill="#2D2D45"></path>
                                <path d="M10.869416,18.939 C17.700416,19.095 19.098416,20.337 25.308416,23.44 C31.517416,26.546 36.020416,28.564 36.020416,28.564 C36.020416,28.564 39.653416,44.842 41.360416,47.324 C43.067416,49.809 44.308416,55.568 45.790416,55.568 C47.275416,55.568 56.136416,51.23 57.378416,48.901 C57.378416,48.901 53.148416,36.196 52.499416,33.112 C52.113416,31.282 47.196416,20.958 44.713416,18.472 C42.230416,15.99 12.888416,4.97379915e-14 12.888416,4.97379915e-14 C12.888416,4.97379915e-14 4.19441603,4.501 2.02041603,6.364 C-0.152583974,8.229 0.00241602624,11.487 0.00241602624,11.487 C1.08241603,17.463 4.03841603,18.784 10.869416,18.939 Z" id="Fill-23" fill="#3F405F"></path>
                                <path d="M8.56931603,8.9482 C8.56931603,8.9482 3.72231603,8.2302 0.792316026,9.3532 C0.697316026,10.0472 0.830316026,10.8922 0.830316026,10.8922 C0.396316026,16.0522 4.03831603,18.7842 10.869316,18.9392 C17.700316,19.0952 19.098316,20.3372 25.308316,23.4402 C31.517316,26.5452 36.020316,28.5642 36.020316,28.5642 C36.020316,28.5642 39.370316,47.3502 41.077316,49.8322 C42.784316,52.3172 45.405316,56.0432 46.889316,56.0432 C47.662316,56.0432 50.131316,54.7382 52.499316,53.1592 C52.497316,53.1552 41.176316,24.1442 36.878316,20.1262 C32.579316,16.1082 9.88231603,11.0492 8.56931603,8.9482 Z" id="Fill-29" fill="#3F405F"></path>
                            </g>
                            <path d="M270.5143,109.7141 C271.1113,111.3321 272.8703,113.1571 273.6813,113.3601 C274.4933,113.5641 276.8593,112.8191 276.9263,112.2111 C276.9933,111.6021 277.4413,110.8781 277.8603,111.0701 C278.2793,111.2631 280.7123,111.6701 283.2143,110.3181 C285.7173,108.9661 288.2193,107.2751 288.5573,105.7871 C288.8953,104.2981 288.0833,103.3521 287.0703,103.0151 C286.0553,102.6771 278.5483,105.2461 276.7903,104.2331 L270.5143,109.7141 Z" id="Fill-21" fill="#4C3F36"></path>
                            <path d="M228.3971,22.2136 C230.2321,20.5416 230.3711,17.3486 230.3711,17.3486 L239.0871,18.4466 C239.0871,18.4466 238.1521,23.7156 238.7111,25.7516 C239.2721,27.7866 230.9611,28.1746 228.3971,22.2136" id="Fill-25" fill="#D7A97C"></path>
                            <path d="M281.2916,40.9582 C281.7326,41.1702 281.5206,41.4622 281.6086,41.7712 C281.6986,42.0822 281.2726,42.5052 281.1416,42.8582 C281.0106,43.2112 280.8726,43.4952 280.2976,43.7962 C279.7216,44.0982 276.5996,44.2692 276.0526,44.6352 C276.0526,44.6352 274.8506,43.1562 275.0646,42.9782 C275.2826,42.7992 281.2916,40.9582 281.2916,40.9582" id="Fill-27" fill="#E7AB79"></path>
                            <g id="Group-4" transform="translate(213.350256, 22.213600)" fill="#27A9E0">
                                <path d="M57.5859669,23.7524 C57.5818442,22.5234 57.4648442,21.0944 57.1948442,20.7644 L57.0038442,20.7794 C56.6938442,20.8044 56.3728442,20.8284 56.0368442,20.8534 L53.7018442,21.0294 L49.4788442,21.3534 C46.7608442,21.5184 43.7708442,21.6044 43.4028442,21.2454 C42.8468442,20.7004 36.0238442,7.3784 34.1808442,4.9674 C32.3388442,2.5564 31.2888442,3.4064 25.8858442,1.5524 C25.8858442,1.5524 29.7838442,17.0944 30.3718442,18.1274 C30.9598442,19.1634 39.1618442,27.9934 39.9288442,28.2874 C40.6988442,28.5814 45.2048442,28.7224 49.0328442,27.2884 C49.7338442,27.0254 50.4548442,26.7254 51.1738442,26.4164 C51.1798442,26.4134 51.1888442,26.4134 51.1948442,26.4104 C52.8628442,25.7234 57.4298442,25.6024 57.4298442,25.6024 C57.5368442,25.4164 57.5888442,24.6364 57.5859669,23.7524" id="Fill-31"></path>
                                <path d="M25.2157442,1.3169 L29.4587442,2.8069 C29.4587442,2.8069 31.9627442,9.1229 31.7627442,12.2849 C31.5627442,15.4449 32.6847442,23.3329 33.3287442,25.0979 C33.9747442,26.8659 35.9827442,36.4509 35.9638781,36.9239 C35.9447442,37.3999 27.7437442,36.4499 24.0117442,38.7619 C20.2777442,41.0749 11.2717442,45.3439 10.1767442,44.9859 C9.08074419,44.6249 9.72074419,39.5599 9.32174419,37.5629 C8.92374419,35.5679 10.0047442,18.9629 10.0047442,18.9629 C10.0047442,18.9629 15.7447442,8.5789 15.9867442,8.4309 C16.2327442,8.2819 22.6407442,3.4249 22.6407442,3.4249 L25.2157442,1.3169 Z" id="Fill-33"></path>
                                <path d="M24.0409442,38.7256 C27.7839442,36.4326 35.9809442,37.4216 36.0021116,36.9466 C36.0229442,36.4736 34.0619442,26.8776 33.4249442,25.1076 C32.8669442,23.5566 31.9659442,17.3056 31.8969442,13.6556 C31.3329442,12.2516 30.9839442,11.3866 30.9839442,11.3866 C31.7269442,15.9416 30.8759442,27.8716 9.53394419,28.6056 C9.32494419,32.6186 9.18194419,36.5486 9.35794419,37.4566 C9.74694419,39.4546 9.23794419,43.8666 10.3319442,44.2326 C11.4259442,44.5966 20.2959442,41.0206 24.0409442,38.7256" id="Fill-35"></path>
                                <path d="M15.0468442,4.26325641e-14 C13.0248442,0.762 6.85084419,1.537 5.97184419,2.563 C5.09184419,3.587 3.48384419,10.716 2.23384419,15.918 C0.984844193,21.119 -0.304155807,27.74 0.0638441927,29.118 C0.430844193,30.498 2.67884419,31.419 3.81684419,31.881 C4.95384419,32.344 17.8298442,30.851 18.5338442,30.137 C18.5338442,30.137 18.6688442,27.809 18.2698442,25.39 C18.2698442,25.39 11.1638442,24.716 8.01684419,24.84 C8.01684419,24.84 9.34984419,21.588 10.0048442,18.963 L22.6408442,3.425 L15.0468442,4.26325641e-14 Z" id="Fill-37"></path>
                                <path d="M21.9393442,26.2773 C13.4893442,25.4433 10.6053442,14.3413 10.7293442,12.6703 L10.0983442,17.8913 L9.68234419,24.8943 L21.9393442,26.2773 Z" id="Fill-39"></path>
                                <path d="M4.09464419,27.7285 C5.37764419,25.8415 8.01664419,24.8395 8.01664419,24.8395 C8.01664419,24.8395 9.34964419,21.5875 10.0046442,18.9635 L10.7456442,12.4615 C10.1746442,16.9175 4.09464419,27.7285 4.09464419,27.7285" id="Fill-57"></path>
                                <path d="M40.9823442,25.4116 C40.2963442,24.6516 31.1053442,11.8766 31.1053442,11.8766 C31.0233442,14.0486 31.4223442,19.4416 31.4223442,19.4416 C33.7963442,22.1986 39.3053442,28.0506 39.9283442,28.2876 C40.6993442,28.5806 45.2053442,28.7226 49.0333442,27.2886 C49.7343442,27.0256 50.4553442,26.7256 51.1733442,26.4166 C51.1793442,26.4136 51.1883442,26.4136 51.1953442,26.4106 C52.8633442,25.7236 57.4293442,25.6016 57.4293442,25.6016 C57.5373442,25.4156 57.5883442,24.6366 57.5864008,23.7526 C57.5864008,23.7526 49.3823442,24.9556 46.3423442,25.7196 C43.3013442,26.4846 41.6703442,26.1716 40.9823442,25.4116" id="Fill-59"></path>
                            </g>
                            <path d="M224.0797,34.8835 L224.0967,34.6755 C224.0967,34.6755 224.0887,34.7575 224.0797,34.8835" id="Fill-41" fill="#FFC92E"></path>
                            <path d="M236.5377,43.5842 L237.1007,52.0722 C237.1007,52.0722 239.8337,53.7332 242.5387,52.2822 L242.8697,43.6532 L236.5377,43.5842 Z" id="Fill-43" fill="#F7F2DF"></path>
                            <path d="M235.7857,42.8249 C235.8237,43.0119 236.1577,43.9489 236.1577,43.9489 L243.1947,43.9729 L243.2457,42.6509 L235.7857,42.8249 Z" id="Fill-45" fill="#7A553C"></path>
                            <polygon id="Fill-47" fill="#6A4429" points="237.1402 41.6462 236.5692 42.8082 242.5492 42.6672 241.9822 41.4932"></polygon>
                            <path d="M241.568,41.0764 C241.137,40.2594 240.973,39.6974 241.653,38.8624 C242.332,38.0234 241.311,36.8464 241.311,36.8464 C241.311,36.8464 243.005,38.1744 242.233,38.9924 C241.463,39.8094 241.249,39.7694 241.568,41.0764" id="Fill-49" fill="#F6EADE"></path>
                            <path d="M241.442,47.8279 C241.423,49.3309 240.64,50.5429 239.692,50.5309 C238.742,50.5179 237.988,49.2909 238.005,47.7879 C238.023,46.2819 238.807,45.0719 239.755,45.0839 C240.704,45.0939 241.46,46.3239 241.442,47.8279" id="Fill-51" fill="#799DD1"></path>
                            <path d="M238.5475,45.3298 C238.0265,45.3878 234.8145,47.3898 234.2855,47.6808 C233.7865,47.9528 232.9385,47.9868 231.6925,48.1198 C231.8405,49.2148 231.8935,50.2488 231.9025,51.0258 C232.7755,50.8188 234.4505,50.4458 235.1215,50.4728 C236.0445,50.5078 237.2705,49.9068 238.1115,49.6168 C238.9555,49.3258 240.4395,50.3988 240.9065,50.2318 C241.3755,50.0638 243.1805,48.7948 243.0225,48.1418 C242.8605,47.4878 239.0685,45.2738 238.5475,45.3298" id="Fill-53" fill="#D7A97C"></path>
                            <path d="M278.7369,41.9402 C280.6609,41.3432 281.9119,40.8072 281.3989,40.6132 C280.8859,40.4182 279.9379,40.8662 276.9499,41.3182 C273.9609,41.7712 273.9649,42.4952 272.6279,42.7362 C272.0409,42.8452 271.2549,42.9212 270.3539,42.9932 L270.5459,42.9782 C270.8149,43.3082 270.9319,44.7372 270.9359,45.9662 C271.3359,45.8582 271.6859,45.7872 271.9159,45.8212 C273.2299,46.0032 274.0159,46.4762 275.7839,46.1942 C277.5509,45.9132 279.0089,46.3252 279.0949,45.8962 C279.1789,45.4642 277.6639,45.1182 276.9069,44.9452 C276.1499,44.7722 275.9889,44.3642 276.0679,43.8742 C276.1479,43.3842 276.8119,42.5382 278.7369,41.9402" id="Fill-55" fill="#D7A97C"></path>
                            <path d="M242.3883,8.8459 C243.4743,5.8079 241.5813,1.4159 234.8843,1.1119 C232.4643,1.0019 230.0283,1.6179 229.2513,3.7739 C229.2073,3.8929 229.0723,3.9529 228.9863,4.0479 C227.7693,5.3839 227.2343,7.1009 227.1913,8.5759 C227.1063,11.4619 227.8803,13.3119 228.0793,13.8919 C228.2883,14.4739 230.0003,16.1019 230.5123,17.8989 C231.0253,19.6939 242.3883,8.8459 242.3883,8.8459" id="Fill-61" fill="#231F20"></path>
                            <path d="M230.0719,15.4929 C230.4529,16.4969 230.4729,17.5659 232.1759,18.8709 C233.8799,20.1789 236.5949,21.8809 237.4589,21.8739 C238.3139,21.8639 238.9869,22.1019 240.2569,19.9389 C241.5239,17.7779 242.4699,16.7749 242.5219,14.5779 C242.5709,12.3839 243.3829,7.9099 240.5879,6.2849 C238.5229,5.0699 235.1969,5.6849 233.4639,7.4849 C231.7219,9.2819 231.6949,9.9439 231.1149,12.7649 C231.1149,12.7649 229.8359,11.0099 229.2489,10.9379 C228.6599,10.8599 228.1629,11.2369 228.5159,12.4329 C228.8729,13.6269 228.9379,13.2569 228.9889,13.8699 C229.0419,14.4799 229.1149,15.0889 229.4319,15.3079 C229.8269,15.5709 230.0719,15.4929 230.0719,15.4929" id="Fill-63" fill="#D7A97C"></path>
                            <path d="M240.4566,5.9323 C240.4566,5.9323 238.7636,5.6883 237.2166,6.3583 C235.5406,7.0843 233.2156,8.1473 232.7916,9.9033 C232.3666,11.6593 231.8756,13.4483 231.8756,13.4483 L231.1896,13.3523 L231.1736,7.2773 L234.8336,3.8623 L240.4566,5.9323 Z" id="Fill-65" fill="#231F20"></path>
                            <path d="M231.1148,12.7649 C230.7978,14.8679 230.0068,14.6689 229.8218,15.6869 C229.6368,16.7059 229.6468,17.4629 231.6008,19.7309 C233.5568,21.9959 236.1828,23.6359 237.6628,23.5469 C239.1398,23.4569 240.0688,22.1619 240.2928,21.4889 C240.5148,20.8179 241.4568,17.9739 241.4568,17.9739 C241.4568,17.9739 240.7208,19.2869 239.1668,19.6849 C237.6118,20.0789 234.4978,18.8929 233.5578,17.7229 C232.6178,16.5549 231.8758,13.4479 231.8758,13.4479 L231.4918,10.5049 L230.6098,11.1249 L231.1148,12.7649 Z" id="Fill-67" fill="#231F20"></path>
                            <path d="M240.8199,19.0124 C241.1589,18.4644 241.4619,17.9794 241.7149,17.5104 C241.3709,17.2644 240.7889,16.9934 239.9029,17.0464 C238.7999,17.1114 238.7819,17.2844 237.1199,17.9564 C235.3309,18.6814 234.5099,18.6404 233.1459,17.8584 C232.1499,17.2864 232.8379,18.8074 233.2799,19.6694 C233.5829,19.8794 233.8889,20.0864 234.2019,20.2884 L236.1419,20.4964 L236.4809,19.4084 C238.0779,19.3024 238.3569,18.4684 239.1589,18.2224 C240.1319,17.9264 240.3779,18.3044 240.8199,19.0124" id="Fill-69" fill="#231F20"></path>
                            <g id="Group-9" filter="url(#filter-5)" transform="translate(328.607606, 59.897800)">
                                <path d="M12.3187935,18.5477 C14.9067935,17.2767 20.5727935,15.5187 27.8017935,17.9597 L27.1187935,12.7827 L18.0137935,10.4387 L11.8617935,14.4927 L12.3187935,18.5477 Z" id="Fill-71" fill="#554326"></path>
                                <path d="M14.2503935,16.08 C15.0083935,14.875 17.9453935,13.59 19.3233935,13.683 C20.6993935,13.772 25.2913935,15.611 25.2913935,15.611 L28.6853935,7.81597009e-14 L10.3243935,7.81597009e-14 L8.76439353,8.041 L14.2503935,16.08 Z" id="Fill-89" fill="#4C3F36"></path>
                                <path d="M4.44859353,1.2557 C2.36359353,1.4867 -0.271406474,3.3057 0.022593526,9.1837 C0.316593526,15.0587 2.04259353,40.4927 1.91459353,42.8797 C1.78559353,45.2687 1.91459353,47.1947 1.91459353,47.1947 C1.91459353,47.1947 9.68159353,49.2167 14.6395935,46.7367 C14.6395935,46.7367 14.0895935,22.6797 14.1795935,18.2737 C14.2735935,13.8647 14.8235935,6.2447 14.6395935,4.6847 C14.4575935,3.1227 14.6395935,0.1217 4.44859353,1.2557" id="Fill-93" fill="#4C3F36"></path>
                                <path d="M14.1800935,18.2733 C14.2740935,13.8653 14.8240935,6.2453 14.6400935,4.6843 C14.5010935,3.4963 14.5610935,1.4833 10.1220935,1.0813 C9.47309353,7.8153 10.9720935,42.4023 11.2100935,47.7603 C12.4110935,47.5773 13.5890935,47.2603 14.6400935,46.7373 C14.6400935,46.7373 14.0890935,22.6793 14.1800935,18.2733" id="Fill-95" fill="#4D3F36"></path>
                                <path d="M34.1976935,1.2557 C36.2826935,1.4867 38.9166935,3.3057 38.6226935,9.1837 C38.3296935,15.0587 36.6026935,40.4927 36.7316935,42.8797 C36.8596935,45.2687 36.7316935,47.1947 36.7316935,47.1947 C36.7316935,47.1947 28.9646935,49.2167 24.0056935,46.7367 C24.0056935,46.7367 24.5566935,22.6797 24.4656935,18.2737 C24.3736935,13.8647 23.8216935,6.2447 24.0056935,4.6847 C24.1886935,3.1227 24.0056935,0.1217 34.1976935,1.2557" id="Fill-97" fill="#4C3F36"></path>
                                <path d="M24.4651935,18.2733 C24.3731935,13.8653 23.8211935,6.2453 24.0051935,4.6843 C24.1451935,3.4963 24.0851935,1.4833 28.5231935,1.0813 C29.1741935,7.8153 27.6741935,42.4023 27.4351935,47.7603 C26.2341935,47.5773 25.0561935,47.2603 24.0051935,46.7373 C24.0051935,46.7373 24.5571935,22.6793 24.4651935,18.2733" id="Fill-99" fill="#4D3F36"></path>
                            </g>
                            <path d="M332.8131,105.2414 C332.6551,106.5174 332.5941,107.5944 331.4041,111.0724 C330.3261,114.2204 327.2631,118.8304 329.2791,120.4564 C331.1591,121.9734 334.6671,122.2524 336.3681,121.4374 C338.0691,120.6224 339.1211,117.7614 339.5081,115.2104 C339.8951,112.6604 339.6451,111.0694 340.2341,110.8224 C340.8231,110.5774 341.5021,110.0514 341.5421,108.4074 C341.5821,106.7624 341.2191,103.6634 341.2191,103.6634 L332.8131,105.2414 Z" id="Fill-73" fill="#7A553C"></path>
                            <path d="M332.8248,107.5393 C335.9458,109.2443 340.5148,107.9103 340.5148,107.9103 C340.5148,107.9103 341.1998,109.9633 340.2388,110.2593 C339.2778,110.5553 339.2938,112.0093 339.0928,113.3813 C338.8898,114.7513 337.4348,119.8613 335.2258,120.5563 C333.0158,121.2513 329.2788,120.4563 328.8148,118.6883 C328.8148,118.6883 328.7438,118.7813 328.6198,118.9423 C328.6378,119.5633 328.8238,120.0893 329.2788,120.4563 C331.1588,121.9743 334.6668,122.2523 336.3678,121.4373 C338.0688,120.6223 339.1218,117.7613 339.5088,115.2103 C339.8948,112.6603 339.6448,111.0693 340.2338,110.8223 C340.8228,110.5773 341.5028,110.0493 341.5418,108.4073 C341.5708,107.2163 341.3898,105.2713 341.2868,104.2843 C339.4048,104.4633 337.5798,104.7323 337.5798,104.7323 L332.8248,107.5393 Z" id="Fill-75" fill="#6A4429"></path>
                            <path d="M362.8014,104.5051 C363.0754,105.7621 363.2334,106.8291 364.7374,110.1821 C366.0994,113.2181 369.5714,117.5301 367.7134,119.3341 C365.9804,121.0151 362.5124,121.6141 360.7444,120.9601 C358.9754,120.3041 357.6664,117.5481 357.0464,115.0451 C356.4284,112.5411 356.5304,110.9351 355.9214,110.7421 C355.3134,110.5531 354.5884,110.0911 354.3984,108.4581 C354.2084,106.8251 354.2854,103.7031 354.2854,103.7031 L362.8014,104.5051 Z" id="Fill-77" fill="#7A553C"></path>
                            <path d="M362.9615,107.552 C359.8405,108.831 355.3745,107.868 355.3745,107.868 C355.3745,107.868 354.8815,109.976 355.8655,110.182 C356.8495,110.39 356.9665,111.839 357.2925,113.185 C357.6185,114.532 359.5365,119.489 361.8005,119.977 C364.0655,120.467 367.7135,119.334 368.0125,117.531 C368.0125,117.531 368.0925,117.616 368.2325,117.767 C368.2705,118.386 368.1335,118.925 367.7135,119.334 C365.9805,121.015 362.5125,121.615 360.7445,120.96 C358.9755,120.304 357.6665,117.548 357.0465,115.045 C356.4285,112.541 356.5315,110.935 355.9215,110.742 C355.3135,110.553 354.5885,110.091 354.3985,108.458 C354.2605,107.274 354.2635,105.321 354.2745,104.328 C356.1645,104.335 358.0065,104.435 358.0065,104.435 L362.9615,107.552 Z" id="Fill-79" fill="#6A4429"></path>
                            <g id="Group-6" transform="translate(319.056899, 21.468700)" fill="#FEBA40">
                                <path d="M55.9808014,28.055 C55.7518014,27.026 54.0898014,24.598 52.8978014,22.334 C52.5548014,21.502 52.1758014,20.598 51.7798014,19.672 C51.7788014,19.67 51.7778014,19.668 51.7778014,19.666 L51.7778014,19.668 C50.7098014,17.184 49.5208014,12.588 48.5808014,11.008 C46.3468014,7.256 45.2758014,4.866 41.0168014,3.445 C36.7578014,2.026 32.3768014,0.449 32.3768014,0.449 L21.6858014,1.42108547e-14 C19.3378014,0.934 11.5298014,3.675 9.50180143,5.093 C7.47280143,6.514 3.92280143,14.802 1.59080143,23.321 C1.41480143,23.965 1.26280143,24.537 1.12580143,25.076 L1.12380143,25.076 C-0.216198572,28.541 -0.077198572,33.096 0.137801428,34.479 C0.352801428,35.862 3.11780143,37.245 4.74480143,37.813 C6.37180143,38.383 12.5098014,35.585 12.5098014,35.585 L13.6448014,41.311 L43.7488014,39.685 L43.8798014,32.446 C43.8798014,32.446 45.0838014,34.885 46.7918014,35.618 C48.4988014,36.35 50.6948014,37.977 53.5428014,35.618 C56.3878014,33.259 56.3058014,29.518 55.9808014,28.055" id="Fill-81"></path>
                                <path d="M10.0306014,10.2327 C10.1216014,12.5347 9.44960143,23.1707 7.81860143,24.7057 C6.18660143,26.2417 4.93960143,26.5287 4.07760143,27.7747 C4.07760143,27.7747 5.51460143,26.7297 6.28360143,26.9627 C6.28360143,26.9627 4.36460143,28.3417 4.65260143,29.8827 C4.65260143,29.8827 5.58060143,28.2737 8.20260143,27.5847 C10.8236014,26.8927 11.4656014,25.0877 11.4656014,23.6497 C11.4656014,22.2117 10.8036014,13.3017 10.0306014,10.2327" id="Fill-83"></path>
                                <path d="M11.5384014,27.5842 C9.57040143,27.7742 7.88740143,32.8742 8.75040143,34.6032 C9.61440143,36.3282 13.6444023,34.6032 13.6444023,34.6032 L13.6444023,29.1292 C13.6444023,29.1292 13.6544014,27.3812 11.5384014,27.5842" id="Fill-87"></path>
                                <path d="M46.5228014,25.8499 C46.9658014,25.4729 49.6528014,24.8849 50.1318014,25.8499 C50.6118014,26.8159 50.9008014,31.2019 50.4208014,32.2229 C49.9418014,33.2459 46.1628014,32.7359 45.6528014,32.2229 C45.1428014,31.7099 44.0838014,30.4109 44.8048014,29.4299 C45.5278014,28.4469 46.5228014,25.8499 46.5228014,25.8499" id="Fill-91"></path>
                            </g>
                            <polygon id="Fill-85" fill="#FEBA40" points="358.7633 38.6286 358.3573 32.7176 360.4473 39.0156"></polygon>
                            <path d="M340.8072,19.2922 C341.0602,20.2352 340.4092,23.3622 340.4742,23.8862 C340.5402,24.4092 343.2322,28.6252 346.6212,28.6912 C350.0112,28.7582 352.9012,25.0082 352.7692,24.4422 C352.6362,23.8772 352.1712,21.2452 352.1712,19.8712 C352.1712,18.4942 340.8072,19.2922 340.8072,19.2922" id="Fill-101" fill="#D7A97C"></path>
                            <path d="M339.815,17.3366 C339.541,18.0616 339.899,19.9156 340.396,21.0646 C340.892,22.2126 343.532,25.4216 346.876,25.8876 C350.22,26.3566 352.497,22.4426 352.881,21.4136 C353.502,19.7516 353.288,17.2836 353.288,17.2836 L339.815,17.3366 Z" id="Fill-103" fill="#151824"></path>
                            <path d="M337.6324,13.7707 C337.1654,13.9167 337.4074,14.8117 338.0654,15.6357 C338.7224,16.4597 338.3454,17.4367 338.7484,17.7857 C339.1524,18.1347 339.7874,17.5927 339.7874,17.5927 C339.7874,17.5927 341.8794,21.9947 346.9324,21.9837206 C351.0964,21.9747 352.7084,19.5727 353.2874,17.2837 C353.2874,17.2837 353.9054,17.6877 354.1584,16.8857 C354.4104,16.0857 354.4294,14.7627 354.7374,14.2167 C355.0444,13.6707 355.0494,12.5177 354.2704,12.6167 C353.4924,12.7167 352.4714,7.2237 352.4714,7.2237 C352.4714,7.2237 350.5844,5.1557 350.4164,5.1797 C350.2474,5.2017 340.9064,6.5917 340.9064,6.5917 L338.6084,11.7667 L337.6324,13.7707 Z" id="Fill-105" fill="#D7A97C"></path>
                            <path d="M339.5348,15.7942 C339.5348,15.7942 339.2248,12.3522 337.6328,13.7712 C337.6328,13.7712 336.4878,6.1482 338.4748,5.9842 C338.4748,5.9842 338.3218,1.8012 342.3308,1.8562 C346.3408,1.9122 349.5988,1.8852 349.6128,0.3712 C349.6128,0.3712 352.3108,2.0262 351.4508,3.6772 C351.4508,3.6772 354.1738,4.4262 354.3078,8.0762 C354.4428,11.7272 354.2698,12.6172 354.2698,12.6172 C354.2698,12.6172 353.4818,12.9112 353.1598,13.7842 C353.1598,13.7842 352.9338,11.6032 352.2498,9.6782 C351.5218,7.6322 350.7078,7.0002 350.7078,7.0002 C350.4588,7.2012 345.5368,9.3222 340.9428,8.3732 C340.9428,8.3732 340.3698,14.3692 339.5348,15.7942" id="Fill-107" fill="#151824"></path>
                            <path d="M339.7242,17.9265 L339.7202,16.5675 C339.7202,16.5675 340.3512,18.5095 342.2612,19.0605 C344.1712,19.6105 344.8822,18.6405 346.8902,18.3485 C348.8962,18.0565 349.4472,18.8015 350.7092,18.5435 C352.2112,18.2335 353.1692,16.1145 353.1692,16.1145 C353.1692,16.1145 353.3462,17.4385 353.3242,18.2805 C353.3002,19.1195 349.5782,22.7775 349.4802,22.8935 C349.3822,23.0095 344.3982,23.3975 344.3982,23.3975 L340.0922,19.3515 L339.7242,17.9265 Z" id="Fill-109" fill="#151824"></path>
                            <path d="M349.7359,20.0324 C349.9169,20.4524 348.9029,21.0864 347.6069,21.0864 C346.3109,21.0864 345.2569,20.6684 345.259894,20.2774 C345.2649,19.9414 346.3439,19.3964 347.6389,19.3964 C348.9349,19.3964 349.6049,19.7324 349.7359,20.0324" id="Fill-111" fill="#D7A97C"></path>
                            <path d="M330.1939,39.3225 L331.9229,61.1315 C331.9239,61.1445 331.9329,61.1535 331.9459,61.1535 L362.8209,61.1535 C362.8339,61.1535 362.8439,61.1445 362.8439,61.1315 L364.2729,38.8345 C364.3009,38.3945 363.9689,38.0215 363.5529,38.0274286 L330.8929,38.5025 C330.4789,38.5095 330.1579,38.8855 330.1939,39.3225" id="Fill-113" fill="#B6B8B9"></path>
                            <path d="M331.8316,59.8742 L331.9326,61.1312 C331.9326,61.1452 331.9416,61.1532 331.9546,61.1532 L362.8296,61.1532 C362.8426,61.1532 362.8526,61.1452 362.8526,61.1312 L362.9336,59.8742 L331.8316,59.8742 Z" id="Fill-115" fill="#C2C5D3"></path>
                            <path d="M362.9498,45.1661335 C361.1648,45.1822 359.4078,45.1642 358.8518,45.4742 C358.2968,45.7832 357.7158,46.0042 357.5688,46.5152 C357.4728,46.8502 357.8108,47.9772 358.3168,48.2982 C358.7478,48.5722 359.2088,49.4792 359.4248,49.5622 C359.6378,49.6432 361.6568,49.7872 362.1208,50.6432 C362.5848,51.4992 364.1678,51.2282 364.8608,51.9322 C365.5528,52.6352 366.7318,52.9222 367.4418,52.6452 C368.1508,52.3632 368.6628,49.4272 368.3278,48.9892 C367.9938,48.5542 366.8698,47.6942 365.9538,46.7772 C365.4538,46.2772 364.1868,45.1562 362.9498,45.1661335" id="Fill-117" fill="#D7A97C"></path>
                            <path d="M331.0152,49.6701 C329.3082,50.8741 329.4302,55.9741 331.4932,55.7041 L331.0152,49.6701 Z" id="Fill-119" fill="#D7A97C"></path>
                        </g>
                        <g id="Group-124" transform="translate(384.000000, 47.629000)">
                            <mask id="mask-7" fill="white">
                                <use xlink:href="#path-6"></use>
                            </mask>
                            <g id="Clip-123"></g>
                            <polygon id="Fill-122" fill="#FEFEFE" mask="url(#mask-7)" points="-6.139 11.822 10.391 11.822 10.391 -5.595 -6.139 -5.595"></polygon>
                        </g>
                    </g>
                </g>
            </g>
        </g>
    </g>
</svg>