<?xml version="1.0" encoding="UTF-8"?>
<svg width="9px" height="19px" viewBox="0 0 9 19" version="1.1" xmlns="http://www.w3.org/2000/svg" xmlns:xlink="http://www.w3.org/1999/xlink">
    <!-- Generator: Sketch 59.1 (86144) - https://sketch.com -->
    <title>Fill 3070</title>
    <desc>Created with Sketch.</desc>
    <g id="Home-Page" stroke="none" stroke-width="1" fill="none" fill-rule="evenodd">
        <g transform="translate(-733.000000, -2753.000000)" fill="#FFFFFF" id="Group-11">
            <g transform="translate(1.000000, 2525.000000)">
                <path d="M733.928571,247 L737.785714,247 C737.785714,247 737.785714,241.756 737.785714,237.5 L740.648357,237.5 L741,233.7 L737.934857,233.7 L737.934857,232.18 C737.934857,231.439 738.435643,231.268 738.787286,231.268 C739.138929,231.268 740.9505,231.268 740.9505,231.268 L740.9505,228.012667 L737.9715,228 C734.664,228 733.9125,230.425667 733.9125,231.983667 L733.9125,233.7 L732,233.7 L732,237.5 L733.928571,237.5 C733.928571,241.806667 733.928571,247 733.928571,247" id="Fill-3070"></path>
            </g>
        </g>
    </g>
</svg>