<?xml version="1.0" encoding="UTF-8"?>
<svg width="222px" height="49px" viewBox="0 0 222 49" version="1.1" xmlns="http://www.w3.org/2000/svg" xmlns:xlink="http://www.w3.org/1999/xlink">
    <!-- Generator: Sketch 59.1 (86144) - https://sketch.com -->
    <title>Group 10</title>
    <desc>Created with Sketch.</desc>
    <g id="Home-Page" stroke="none" stroke-width="1" fill="none" fill-rule="evenodd">
        <g transform="translate(-114.000000, -2580.000000)" id="Group-11">
            <g transform="translate(1.000000, 2525.000000)">
                <g id="Group-10" transform="translate(113.000000, 55.000000)">
                    <polygon id="Fill-1" fill="#FFFFFF" points="0 46 7 46 7 0 0 0"></polygon>
                    <path d="M97,13.6739013 L104.402498,13.6739013 L104.402498,18.6332592 C106.482943,15.6334395 109.480686,13 114.498074,13 C121.77831,13 126,17.898515 126,25.3676426 L126,46 L118.596841,46 L118.596841,27.6327181 C118.596841,22.6131786 116.088147,19.7350448 111.683394,19.7350448 C107.400242,19.7350448 104.402498,22.7348644 104.402498,27.7557266 L104.402498,46 L97,46 L97,13.6739013 Z" id="Fill-2" fill="#FFFFFF"></path>
                    <path d="M134,33.5712654 L134,13 L141.38701,13 L141.38701,31.3669887 C141.38701,36.3879514 143.890456,39.2039761 148.285994,39.2039761 C152.560185,39.2039761 155.551657,36.2649405 155.551657,31.2446391 L155.551657,13 L163,13 L163,45.3260852 L155.551657,45.3260852 L155.551657,40.3064451 C153.475565,43.3678304 150.484093,46 145.477861,46 C138.212858,46 134,41.1020482 134,33.5712654" id="Fill-4" fill="#FFFFFF"></path>
                    <g id="Group-12" transform="translate(52.500000, 28.500000) scale(-1, 1) translate(-52.500000, -28.500000) translate(17.000000, 12.000000)" stroke-width="7">
                        <path d="M15,33 C6.71599136,33 0,25.8369533 0,17 C0,8.1630467 6.68890852,0.444282544 15,1" id="Stroke-8" stroke="#FFFFFF"></path>
                        <path d="M56,1 C64.2846437,1 71,8.1630467 71,17 C71,25.8369533 64.2846437,33 56,33" id="Stroke-10" stroke="#F6931D"></path>
                        <path d="M16,1 C31.1020594,1.9057115 35.4996656,17 35.4996656,17 C35.4996656,17 40.0985614,33 55,33" id="Stroke-12" stroke="#FFFFFF"></path>
                        <path d="M55,1 C39.411101,1 35.4996656,17 35.4996656,17 C35.4996656,17 30.9014386,33 16,33" id="Stroke-14" stroke="#27A9E0"></path>
                    </g>
                    <path d="M172,13.6739013 L179.533933,13.6739013 L179.533933,18.5717549 C181.651318,15.6949438 184.515302,13 189.558551,13 C194.291726,13 197.654116,15.2657368 199.396855,18.6947634 C202.012645,15.2657368 205.499469,13 210.480837,13 C217.641471,13 222,17.4699693 222,25.3676426 L222,46 L214.466067,46 L214.466067,27.6327181 C214.466067,22.4901701 212.037263,19.7350448 207.803167,19.7350448 C203.693504,19.7350448 200.767639,22.5516744 200.767639,27.7557266 L200.767639,46 L193.232361,46 L193.232361,27.5718752 C193.232361,22.5516744 190.741676,19.7350448 186.570133,19.7350448 C182.39859,19.7350448 179.533933,22.7963687 179.533933,27.7557266 L179.533933,46 L172,46 L172,13.6739013 Z" id="Fill-6" fill="#FFFFFF"></path>
                </g>
            </g>
        </g>
    </g>
</svg>