<?xml version="1.0" encoding="UTF-8"?>
<svg width="166px" height="135px" viewBox="0 0 166 135" version="1.1" xmlns="http://www.w3.org/2000/svg" xmlns:xlink="http://www.w3.org/1999/xlink">
    <!-- Generator: Sketch 59.1 (86144) - https://sketch.com -->
    <title>Group 21</title>
    <desc>Created with Sketch.</desc>
    <defs>
        <path d="M6.54536638,17.4178963 C7.39719828,14.1428571 8.07616575,0 8.07616575,0 L42.9238342,0 C42.9238342,0 43.6462441,14.0870216 44.6656125,17.4178963 C45.6849809,20.748771 48.4994612,22.5 50.203125,23.7857143 L0.796875,23.7857143 C2.50053879,22.5 5.69353448,20.6929354 6.54536638,17.4178963 Z" id="path-1"></path>
    </defs>
    <g id="Home-Page" stroke="none" stroke-width="1" fill="none" fill-rule="evenodd">
        <g transform="translate(-211.000000, -2086.000000)" id="Group-21">
            <g transform="translate(211.000000, 2086.000000)">
                <g id="//-Thunderbolt-Display-Copy">
                    <g id="::-stand" transform="translate(58.000000, 108.000000)">
                        <rect id="Rectangle-80" fill="#B2B2B2" x="0" y="25.7142857" width="51" height="1.28571429"></rect>
                        <path d="M0.389880795,24.6822483 C0.576934469,24.1871062 1.15687229,23.7857143 1.6959945,23.7857143 L49.3040055,23.7857143 C49.8382985,23.7857143 50.4259398,24.1947147 50.6101192,24.6822483 L51,25.7142857 L-4.04438388e-17,25.7142857 L0.389880795,24.6822483 Z" id="Rectangle-77" fill="#C3C3C3"></path>
                        <mask id="mask-2" fill="white">
                            <use xlink:href="#path-1"></use>
                        </mask>
                        <use id="Mask" fill="#D8D8D8" xlink:href="#path-1"></use>
                        <rect id="Rectangle-123" fill="#B3B3B3" mask="url(#mask-2)" x="3.825" y="0" width="43.35" height="1.28571429"></rect>
                    </g>
                    <g id="::-base">
                        <rect id="dark-bezel" fill="#737373" x="0" y="0" width="166" height="108" rx="6"></rect>
                        <path d="M84.0637102,102.584669 C84.1861426,102.584669 84.4638241,102.652759 84.5875151,102.742333 C84.7112062,102.831906 84.8148376,102.971821 84.8148376,102.971821 C84.8148376,102.971821 84.5411727,103.134602 84.4591238,103.373119 C84.3770748,103.611636 84.3926052,103.693572 84.3926052,103.693572 C84.3926052,103.693572 84.3866308,104.056527 84.5827294,104.259569 C84.778828,104.462611 84.9153846,104.50863 84.9153846,104.50863 C84.9153846,104.50863 84.8430314,104.772047 84.7055192,104.977509 C84.568007,105.18297 84.4742967,105.30192 84.4742967,105.30192 C84.4742967,105.30192 84.3154663,105.474812 84.1951159,105.51096 C84.0747655,105.547108 84.1177595,105.544163 84.0584738,105.544163 C83.9991882,105.544163 83.8764605,105.518219 83.8764605,105.518219 L83.6395588,105.431583 C83.6395588,105.431583 83.5003374,105.388555 83.4036982,105.388555 C83.307059,105.388555 83.1251777,105.43994 83.1251777,105.43994 C83.1251777,105.43994 82.9310835,105.513535 82.8704616,105.528849 C82.8098397,105.544163 82.7631322,105.547386 82.7407418,105.547386 C82.7183514,105.547386 82.6386409,105.546505 82.5611524,105.501289 C82.4836639,105.456074 82.3917249,105.397708 82.2586955,105.223053 C82.125666,105.048398 81.8317473,104.634553 81.7440192,104.045913 C81.656291,103.457273 81.8725581,103.119806 81.8725581,103.119806 C81.8725581,103.119806 82.1243298,102.604753 82.7037611,102.594711 C82.821499,102.59267 82.8655283,102.606299 83.0007719,102.657753 C83.1360155,102.709208 83.3448399,102.777661 83.3448399,102.777661 L83.8063293,102.62234 C83.8063293,102.62234 83.9412777,102.584669 84.0637102,102.584669 Z M84.1036276,101.647059 C84.1036276,101.647059 84.1633642,101.878889 83.9370824,102.224783 C83.7108006,102.570677 83.3170655,102.546333 83.3170655,102.546333 C83.3170655,102.546333 83.2740405,102.181013 83.5431371,101.928588 C83.8122338,101.676164 84.1036276,101.647059 84.1036276,101.647059 Z" id="logo" fill="#FFFFFF"></path>
                        <rect id="camera-on-light" fill="#62FFB1" x="86.1923077" y="3.81176471" width="1.27692308" height="1.27058824" rx="0.635294118"></rect>
                        <rect id="camera" fill="#5C5C5C" x="81.7230769" y="3.17647059" width="2.55384615" height="2.54117647" rx="1.27058824"></rect>
                        <rect id="microphone" fill="#545454" x="78.5307692" y="3.81176471" width="1.27692308" height="1.27058824" rx="0.635294118"></rect>
                    </g>
                    <rect id="wallpaper" fill="#FFFFFF" x="9" y="9" width="148" height="90"></rect>
                    <g id="::-screen" transform="translate(55.000000, 92.000000)">
                        <g id="::-contents"></g>
                    </g>
                </g>
                <polygon id="Fill-71" fill="#FDBE44" points="9 17 157 17 157 9 9 9"></polygon>
                <polygon id="Fill-72" fill="#178FE3" points="16 34 79 34 79 31 16 31"></polygon>
                <polygon id="Fill-73" fill="#178FE3" points="16 40 73 40 73 37 16 37"></polygon>
                <polygon id="Fill-74" fill="#178FE3" points="16 46 54 46 54 43 16 43"></polygon>
                <polygon id="Fill-74-Copy-8" fill="#178FE3" points="16 52 54 52 54 49 16 49"></polygon>
                <polygon id="Fill-75" fill="#178FE3" points="16 28 39 28 39 25 16 25"></polygon>
                <polygon id="Fill-76" stroke="#DEDEDE" points="89 55 146 55 146 25 89 25"></polygon>
                <path d="M16,13 C16,14.1043219 15.1049003,15 13.9996274,15 C12.8950997,15 12,14.1043219 12,13 C12,11.8964232 12.8950997,11 13.9996274,11 C15.1049003,11 16,11.8964232 16,13" id="Fill-78" fill="#DB5A28"></path>
                <path d="M21,13 C21,14.1043219 20.104155,15 18.9996274,15 C17.8950997,15 17,14.1043219 17,13 C17,11.8964232 17.8950997,11 18.9996274,11 C20.104155,11 21,11.8964232 21,13" id="Fill-79" fill="#FFE780"></path>
                <path d="M27,13 C27,14.1043219 26.1049003,15 24.9996274,15 C23.895845,15 23,14.1043219 23,13 C23,11.8964232 23.895845,11 24.9996274,11 C26.1049003,11 27,11.8964232 27,13" id="Fill-80" fill="#1FB288"></path>
                <polygon id="Fill-1071" fill="#FA9C00" points="16 92 55 92 55 70 16 70"></polygon>
                <polygon id="Fill-1071-Copy" fill="#979797" points="16 64 150 64 150 63 16 63"></polygon>
                <polygon id="Fill-1072" fill="#178FE3" points="64 92 102 92 102 70 64 70"></polygon>
                <polygon id="Fill-1073" fill="#0B73AB" points="111 92 150 92 150 70 111 70"></polygon>
                <path d="M90,53 C94.8213467,41.0208333 99.8026382,35.8125 104.943875,37.375 C112.65573,39.71875 117.289258,46.75 120.894629,39.71875 C124.5,32.6875 126.525507,28 130.716363,28 C134.907219,28 144,35.8125 144,35.8125 C144,35.8125 144,41.5416667 144,53 L90,53 Z" id="Path-4" fill="#DB5A28"></path>
            </g>
        </g>
    </g>
</svg>