<?xml version="1.0" encoding="UTF-8"?>
<svg width="166px" height="135px" viewBox="0 0 166 135" version="1.1" xmlns="http://www.w3.org/2000/svg" xmlns:xlink="http://www.w3.org/1999/xlink">
    <!-- Generator: Sketch 59.1 (86144) - https://sketch.com -->
    <title>Group 26</title>
    <desc>Created with Sketch.</desc>
    <defs>
        <path d="M6.54536638,17.4178963 C7.39719828,14.1428571 8.07616575,0 8.07616575,0 L42.9238342,0 C42.9238342,0 43.6462441,14.0870216 44.6656125,17.4178963 C45.6849809,20.748771 48.4994612,22.5 50.203125,23.7857143 L0.796875,23.7857143 C2.50053879,22.5 5.69353448,20.6929354 6.54536638,17.4178963 Z" id="path-1"></path>
    </defs>
    <g id="Home-Page" stroke="none" stroke-width="1" fill="none" fill-rule="evenodd">
        <g transform="translate(-602.000000, -2086.000000)" id="Group-26">
            <g transform="translate(602.000000, 2086.000000)">
                <g id="//-Thunderbolt-Display-Copy">
                    <g id="::-stand" transform="translate(58.000000, 108.000000)">
                        <rect id="Rectangle-80" fill="#B2B2B2" x="0" y="25.7142857" width="51" height="1.28571429"></rect>
                        <path d="M0.389880795,24.6822483 C0.576934469,24.1871062 1.15687229,23.7857143 1.6959945,23.7857143 L49.3040055,23.7857143 C49.8382985,23.7857143 50.4259398,24.1947147 50.6101192,24.6822483 L51,25.7142857 L-4.04438388e-17,25.7142857 L0.389880795,24.6822483 Z" id="Rectangle-77" fill="#C3C3C3"></path>
                        <mask id="mask-2" fill="white">
                            <use xlink:href="#path-1"></use>
                        </mask>
                        <use id="Mask" fill="#D8D8D8" xlink:href="#path-1"></use>
                        <rect id="Rectangle-123" fill="#B3B3B3" mask="url(#mask-2)" x="3.825" y="0" width="43.35" height="1.28571429"></rect>
                    </g>
                    <g id="::-base">
                        <rect id="dark-bezel" fill="#737373" x="0" y="0" width="166" height="108" rx="6"></rect>
                        <path d="M84.0637102,102.584669 C84.1861426,102.584669 84.4638241,102.652759 84.5875151,102.742333 C84.7112062,102.831906 84.8148376,102.971821 84.8148376,102.971821 C84.8148376,102.971821 84.5411727,103.134602 84.4591238,103.373119 C84.3770748,103.611636 84.3926052,103.693572 84.3926052,103.693572 C84.3926052,103.693572 84.3866308,104.056527 84.5827294,104.259569 C84.778828,104.462611 84.9153846,104.50863 84.9153846,104.50863 C84.9153846,104.50863 84.8430314,104.772047 84.7055192,104.977509 C84.568007,105.18297 84.4742967,105.30192 84.4742967,105.30192 C84.4742967,105.30192 84.3154663,105.474812 84.1951159,105.51096 C84.0747655,105.547108 84.1177595,105.544163 84.0584738,105.544163 C83.9991882,105.544163 83.8764605,105.518219 83.8764605,105.518219 L83.6395588,105.431583 C83.6395588,105.431583 83.5003374,105.388555 83.4036982,105.388555 C83.307059,105.388555 83.1251777,105.43994 83.1251777,105.43994 C83.1251777,105.43994 82.9310835,105.513535 82.8704616,105.528849 C82.8098397,105.544163 82.7631322,105.547386 82.7407418,105.547386 C82.7183514,105.547386 82.6386409,105.546505 82.5611524,105.501289 C82.4836639,105.456074 82.3917249,105.397708 82.2586955,105.223053 C82.125666,105.048398 81.8317473,104.634553 81.7440192,104.045913 C81.656291,103.457273 81.8725581,103.119806 81.8725581,103.119806 C81.8725581,103.119806 82.1243298,102.604753 82.7037611,102.594711 C82.821499,102.59267 82.8655283,102.606299 83.0007719,102.657753 C83.1360155,102.709208 83.3448399,102.777661 83.3448399,102.777661 L83.8063293,102.62234 C83.8063293,102.62234 83.9412777,102.584669 84.0637102,102.584669 Z M84.1036276,101.647059 C84.1036276,101.647059 84.1633642,101.878889 83.9370824,102.224783 C83.7108006,102.570677 83.3170655,102.546333 83.3170655,102.546333 C83.3170655,102.546333 83.2740405,102.181013 83.5431371,101.928588 C83.8122338,101.676164 84.1036276,101.647059 84.1036276,101.647059 Z" id="logo" fill="#FFFFFF"></path>
                        <rect id="camera-on-light" fill="#62FFB1" x="86.1923077" y="3.81176471" width="1.27692308" height="1.27058824" rx="0.635294118"></rect>
                        <rect id="camera" fill="#5C5C5C" x="81.7230769" y="3.17647059" width="2.55384615" height="2.54117647" rx="1.27058824"></rect>
                        <rect id="microphone" fill="#545454" x="78.5307692" y="3.81176471" width="1.27692308" height="1.27058824" rx="0.635294118"></rect>
                    </g>
                    <rect id="wallpaper" fill="#FFFFFF" x="9" y="9" width="148" height="90"></rect>
                    <g id="::-screen" transform="translate(55.000000, 92.000000)">
                        <g id="::-contents"></g>
                    </g>
                </g>
                <g id="Group-25" transform="translate(9.000000, 9.000000)">
                    <polygon id="Fill-71" fill="#FDBE44" points="0 8 148 8 148 0 0 0"></polygon>
                    <polygon id="Fill-72" fill="#178FE3" points="25 63 144 63 144 60 25 60"></polygon>
                    <polygon id="Fill-73" fill="#178FE3" points="25 69 133 69 133 66 25 66"></polygon>
                    <polygon id="Fill-74" fill="#178FE3" points="25 75 96 75 96 72 25 72"></polygon>
                    <polygon id="Fill-74-Copy-8" fill="#178FE3" points="25 81 96 81 96 78 25 78"></polygon>
                    <polygon id="Fill-75" fill="#178FE3" points="25 57 68 57 68 54 25 54"></polygon>
                    <path d="M7,4 C7,5.10432191 6.10490032,6 4.99962735,6 C3.89509968,6 3,5.10432191 3,4 C3,2.89642325 3.89509968,2 4.99962735,2 C6.10490032,2 7,2.89642325 7,4" id="Fill-78" fill="#DB5A28"></path>
                    <path d="M12,4 C12,5.10432191 11.104155,6 9.99962735,6 C8.89509968,6 8,5.10432191 8,4 C8,2.89642325 8.89509968,2 9.99962735,2 C11.104155,2 12,2.89642325 12,4" id="Fill-79" fill="#FFE780"></path>
                    <path d="M18,4 C18,5.10432191 17.1049003,6 15.9996274,6 C14.895845,6 14,5.10432191 14,4 C14,2.89642325 14.895845,2 15.9996274,2 C17.1049003,2 18,2.89642325 18,4" id="Fill-80" fill="#1FB288"></path>
                    <polygon id="Fill-104" fill="#F29E7D" points="25 39 50 39 50 32 25 32"></polygon>
                    <polygon id="Fill-109" fill="#F7BE7E" points="57 39 80 39 80 32 57 32"></polygon>
                    <polygon id="Fill-109-Copy" fill="#F7BE7E" points="119 39 144 39 144 32 119 32"></polygon>
                    <polygon id="Fill-110" fill="#82CEED" points="89 39 112 39 112 32 89 32"></polygon>
                    <g id="Group-24" transform="translate(25.000000, 11.000000)">
                        <polygon id="Fill-132" fill="#178FE3" points="0 17 119 17 119 0 0 0"></polygon>
                        <polygon id="Fill-133" fill="#FFF57F" points="11 14 43 14 43 3 11 3"></polygon>
                        <polygon id="Fill-135" fill="#FFFFFF" points="50 9 98 9 98 8 50 8"></polygon>
                        <polygon id="Fill-136" fill="#FFFFFF" points="50 11 98 11 98 10 50 10"></polygon>
                        <polygon id="Fill-137" fill="#FFFFFF" points="51 13 85 13 85 12 51 12"></polygon>
                        <polygon id="Fill-139" fill="#FFF57F" points="112 8.99976964 109.500665 8.49988482 107 8 107 8.99976964 107 10 109.500665 9.50011518"></polygon>
                    </g>
                    <polygon id="Fill-134" fill="#FFFFFF" points="84 20 105 20 105 19 84 19"></polygon>
                    <polygon id="Fill-140" fill="#F29E7D" points="25 47 59 47 59 43 25 43"></polygon>
                    <polygon id="Fill-141" fill="#82CEED" points="66 47 103 47 103 43 66 43"></polygon>
                    <polygon id="Fill-142" fill="#F7BE7E" points="110 47 144 47 144 43 110 43"></polygon>
                    <path d="M5.79550671,87 L21,86.964125 L20.8619544,11 L3,11.0419738 L3.13267153,83.9904743 C3.13569443,85.6556881 4.32772294,87.0034277 5.79550671,87" id="Fill-98" fill="#DB5A28"></path>
                    <path d="M18.0377133,82.9759622 L5.96678352,83 C5.43425777,83.0009997 5.00138595,82.585377 5.00034789,82.0716073 L5,81.9564347 C4.99896381,81.442665 5.4297595,81.0250393 5.96263127,81.0240378 L18.033561,81 C18.5660868,80.9990003 18.9986126,81.414623 19,81.9283927 L19,82.0438991 C19.0013808,82.5576688 18.5705851,82.9749607 18.0377133,82.9759622" id="Fill-100" fill="#FFFFFE"></path>
                    <path d="M17.3430866,26.9801588 L7.68390528,27 C6.76683265,27.0019474 6.02211765,26.2601592 6.02016643,25.3427614 L6,15.6842305 C5.99805262,14.7668327 6.740166,14.0221176 7.65723863,14.0201664 L17.3160947,14 C18.2331673,13.9980526 18.9782076,14.740166 18.9801588,15.6575638 L19,25.3160947 C19.0019474,26.2334925 18.259834,26.9782076 17.3430866,26.9801588" id="Fill-101" fill="#FFFFFE"></path>
                    <path d="M18.4964527,30.9772191 L6.50538377,31 C6.22698294,31.0003346 6.00036907,30.7946399 6,30.540704 L6,30.4837527 C5.99926722,30.2294819 6.22477924,30.0231172 6.50318007,30.0227822 L18.494249,30 C18.7730171,29.9993316 18.9992636,30.2050263 19,30.4592972 L19,30.5162485 C19.0007328,30.7705193 18.7752208,30.9768841 18.4964527,30.9772191" id="Fill-112" fill="#FFFFFE"></path>
                    <path d="M18.4964539,33.9772191 L6.50538382,34 C6.22661568,34.0003346 6.00073636,33.7946399 6,33.540704 L6,33.4837527 C5.99926722,33.2294819 6.22477926,33.0231172 6.50318012,33.0224471 L18.4942502,33 C18.7730184,32.9993316 18.999265,33.2050263 18.9996323,33.4589622 L19,33.5162485 C19.0003668,33.7701843 18.7748548,33.9765491 18.4964539,33.9772191" id="Fill-113" fill="#FFFFFE"></path>
                </g>
            </g>
        </g>
    </g>
</svg>