<?xml version="1.0" encoding="UTF-8"?>
<svg width="166px" height="135px" viewBox="0 0 166 135" version="1.1" xmlns="http://www.w3.org/2000/svg" xmlns:xlink="http://www.w3.org/1999/xlink">
    <!-- Generator: Sketch 59.1 (86144) - https://sketch.com -->
    <title>Group 23</title>
    <desc>Created with Sketch.</desc>
    <defs>
        <path d="M6.54536638,17.4178963 C7.39719828,14.1428571 8.07616575,0 8.07616575,0 L42.9238342,0 C42.9238342,0 43.6462441,14.0870216 44.6656125,17.4178963 C45.6849809,20.748771 48.4994612,22.5 50.203125,23.7857143 L0.796875,23.7857143 C2.50053879,22.5 5.69353448,20.6929354 6.54536638,17.4178963 Z" id="path-1"></path>
    </defs>
    <g id="Home-Page" stroke="none" stroke-width="1" fill="none" fill-rule="evenodd">
        <g transform="translate(-990.000000, -2086.000000)" id="Group-23">
            <g transform="translate(990.000000, 2086.000000)">
                <g id="//-Thunderbolt-Display-Copy">
                    <g id="::-stand" transform="translate(58.000000, 108.000000)">
                        <rect id="Rectangle-80" fill="#B2B2B2" x="0" y="25.7142857" width="51" height="1.28571429"></rect>
                        <path d="M0.389880795,24.6822483 C0.576934469,24.1871062 1.15687229,23.7857143 1.6959945,23.7857143 L49.3040055,23.7857143 C49.8382985,23.7857143 50.4259398,24.1947147 50.6101192,24.6822483 L51,25.7142857 L-4.04438388e-17,25.7142857 L0.389880795,24.6822483 Z" id="Rectangle-77" fill="#C3C3C3"></path>
                        <mask id="mask-2" fill="white">
                            <use xlink:href="#path-1"></use>
                        </mask>
                        <use id="Mask" fill="#D8D8D8" xlink:href="#path-1"></use>
                        <rect id="Rectangle-123" fill="#B3B3B3" mask="url(#mask-2)" x="3.825" y="0" width="43.35" height="1.28571429"></rect>
                    </g>
                    <g id="::-base">
                        <rect id="dark-bezel" fill="#737373" x="0" y="0" width="166" height="108" rx="6"></rect>
                        <path d="M84.0637102,102.584669 C84.1861426,102.584669 84.4638241,102.652759 84.5875151,102.742333 C84.7112062,102.831906 84.8148376,102.971821 84.8148376,102.971821 C84.8148376,102.971821 84.5411727,103.134602 84.4591238,103.373119 C84.3770748,103.611636 84.3926052,103.693572 84.3926052,103.693572 C84.3926052,103.693572 84.3866308,104.056527 84.5827294,104.259569 C84.778828,104.462611 84.9153846,104.50863 84.9153846,104.50863 C84.9153846,104.50863 84.8430314,104.772047 84.7055192,104.977509 C84.568007,105.18297 84.4742967,105.30192 84.4742967,105.30192 C84.4742967,105.30192 84.3154663,105.474812 84.1951159,105.51096 C84.0747655,105.547108 84.1177595,105.544163 84.0584738,105.544163 C83.9991882,105.544163 83.8764605,105.518219 83.8764605,105.518219 L83.6395588,105.431583 C83.6395588,105.431583 83.5003374,105.388555 83.4036982,105.388555 C83.307059,105.388555 83.1251777,105.43994 83.1251777,105.43994 C83.1251777,105.43994 82.9310835,105.513535 82.8704616,105.528849 C82.8098397,105.544163 82.7631322,105.547386 82.7407418,105.547386 C82.7183514,105.547386 82.6386409,105.546505 82.5611524,105.501289 C82.4836639,105.456074 82.3917249,105.397708 82.2586955,105.223053 C82.125666,105.048398 81.8317473,104.634553 81.7440192,104.045913 C81.656291,103.457273 81.8725581,103.119806 81.8725581,103.119806 C81.8725581,103.119806 82.1243298,102.604753 82.7037611,102.594711 C82.821499,102.59267 82.8655283,102.606299 83.0007719,102.657753 C83.1360155,102.709208 83.3448399,102.777661 83.3448399,102.777661 L83.8063293,102.62234 C83.8063293,102.62234 83.9412777,102.584669 84.0637102,102.584669 Z M84.1036276,101.647059 C84.1036276,101.647059 84.1633642,101.878889 83.9370824,102.224783 C83.7108006,102.570677 83.3170655,102.546333 83.3170655,102.546333 C83.3170655,102.546333 83.2740405,102.181013 83.5431371,101.928588 C83.8122338,101.676164 84.1036276,101.647059 84.1036276,101.647059 Z" id="logo" fill="#FFFFFF"></path>
                        <rect id="camera-on-light" fill="#62FFB1" x="86.1923077" y="3.81176471" width="1.27692308" height="1.27058824" rx="0.635294118"></rect>
                        <rect id="camera" fill="#5C5C5C" x="81.7230769" y="3.17647059" width="2.55384615" height="2.54117647" rx="1.27058824"></rect>
                        <rect id="microphone" fill="#545454" x="78.5307692" y="3.81176471" width="1.27692308" height="1.27058824" rx="0.635294118"></rect>
                    </g>
                    <rect id="wallpaper" fill="#FFFFFF" x="9" y="9" width="148" height="90"></rect>
                    <g id="::-screen" transform="translate(55.000000, 92.000000)">
                        <g id="::-contents"></g>
                    </g>
                </g>
                <g id="Group-22" transform="translate(9.000000, 9.000000)">
                    <polygon id="Fill-71" fill="#FDBE44" points="0 8 148 8 148 0 0 0"></polygon>
                    <path d="M7,4 C7,5.10432191 6.10490032,6 4.99962735,6 C3.89509968,6 3,5.10432191 3,4 C3,2.89642325 3.89509968,2 4.99962735,2 C6.10490032,2 7,2.89642325 7,4" id="Fill-78" fill="#DB5A28"></path>
                    <path d="M12,4 C12,5.10432191 11.104155,6 9.99962735,6 C8.89509968,6 8,5.10432191 8,4 C8,2.89642325 8.89509968,2 9.99962735,2 C11.104155,2 12,2.89642325 12,4" id="Fill-79" fill="#FFE780"></path>
                    <path d="M18,4 C18,5.10432191 17.1049003,6 15.9996274,6 C14.895845,6 14,5.10432191 14,4 C14,2.89642325 14.895845,2 15.9996274,2 C17.1049003,2 18,2.89642325 18,4" id="Fill-80" fill="#1FB288"></path>
                    <rect id="Rectangle-Copy-28" fill="#D8D8D8" x="65" y="29" width="15" height="2"></rect>
                    <rect id="Rectangle-Copy-29" fill="#D8D8D8" x="65" y="38" width="15" height="2"></rect>
                    <rect id="Rectangle-Copy-31" fill="#D8D8D8" x="65" y="48" width="15" height="2"></rect>
                    <rect id="Rectangle-Copy-30" fill="#D8D8D8" x="65" y="20" width="15" height="2"></rect>
                    <rect id="Rectangle" fill="#0870E7" x="54" y="36" width="6" height="6" rx="3"></rect>
                    <rect id="Rectangle" fill="#FF9500" x="54" y="45" width="6" height="6" rx="3"></rect>
                    <rect id="Rectangle" fill="#27BEB8" x="54" y="27" width="6" height="6" rx="3"></rect>
                    <rect id="Rectangle" fill="#3BA500" x="54" y="18" width="6" height="6" rx="3"></rect>
                    <g id="Group-15" transform="translate(8.000000, 15.000000)">
                        <circle id="Oval" stroke="#FFFFFF" fill="#3BA500" cx="20" cy="20" r="19.5"></circle>
                        <path d="M19.3280781,39.7917033 C19.3278847,39.792754 19.3276908,39.7938085 19.3274963,39.7948666 C19.3280784,39.7916998 19.3286641,39.7883965 19.3292531,39.784958 Z M19.3610967,39.4949747 C19.3835064,39.2170945 19.4033848,38.8047146 19.4204753,38.2654129 C19.4537369,37.2158259 19.476212,35.6960846 19.4885664,33.746831 C19.5103372,30.3118838 19.5004379,25.6262324 19.4647988,20.003169 C19.4370749,15.6289553 19.3954876,10.9421301 19.3459786,6.2552814 C19.3286503,4.61486586 19.3115695,3.09162833 19.2954792,1.7246349 C19.2900388,1.26243769 19.2866776,0.982486309 19.2808765,0.506274525 C8.86518223,0.77126606 0.5,9.39623962 0.5,20 C0.5,30.3436944 9.42010712,39.2535108 19.3610967,39.4949747 Z" id="Oval" stroke="#FFFFFF" fill="#27BEB8"></path>
                        <path d="M19.3906692,39.4956674 C19.4015174,39.3909927 19.4117894,39.2639537 19.421243,39.1160719 C19.4540105,38.6034924 19.4763179,37.8557345 19.4885972,36.8953173 C19.5103183,35.1964066 19.5004311,32.8764177 19.4648296,30.0918622 C19.437121,27.9246446 19.395552,25.6022874 19.3460642,23.2798828 C19.3287426,22.4670038 19.3116688,21.7121986 19.2955854,21.0348388 C19.2923977,20.9005879 19.2894803,20.7790185 19.28686,20.6708292 C14.6726331,20.6687333 10.1086321,20.6370572 5.78588963,20.5854344 C4.21959397,20.5667295 2.79745859,20.5466879 1.54598328,20.5266453 C1.15760989,20.5204254 0.810581633,20.514599 0.507206736,20.5092823 C0.794046638,30.6446986 9.60137251,39.274867 19.3906692,39.4956674 Z" id="Oval" stroke="#FFFFFF" fill="#0870E7"></path>
                        <path d="M19.3884639,39.49576 C19.3995509,39.39103 19.4100544,39.2637407 19.41972,39.1154494 C19.4531166,38.6030693 19.4758567,37.855457 19.4883746,36.895192 C19.51052,35.1963822 19.5004393,32.8764664 19.4641412,30.0919875 C19.4358901,27.9248009 19.3935071,25.6024703 19.34305,23.2800914 C19.3253893,22.4672207 19.307981,21.7124234 19.2915827,21.0350713 C19.2904947,20.9901282 19.2894375,20.9466064 19.288412,20.9045145 C12.3488306,25.3690766 12.1893449,25.4716813 7.46308268,28.5123101 C4.80051347,30.2252673 4.16704671,30.6328065 3.70706562,30.9287342 C7.39123542,36.0690462 13.3556974,39.3619264 19.3884639,39.49576 Z" id="Oval" stroke="#FFFFFF" fill="#FF9500"></path>
                        <circle id="Oval" fill="#FFFFFF" cx="20" cy="20" r="10"></circle>
                    </g>
                    <rect id="Rectangle" fill="#178FE3" transform="translate(132.000000, 54.000000) scale(1, -1) translate(-132.000000, -54.000000) " x="124" y="22" width="16" height="64"></rect>
                    <rect id="Rectangle-Copy-9" fill="#F5A623" transform="translate(114.833333, 71.500000) scale(1, -1) translate(-114.833333, -71.500000) " x="109.333333" y="57" width="11" height="29"></rect>
                    <rect id="Rectangle-Copy-11" fill="#64BE00" transform="translate(88.833333, 74.500000) scale(1, -1) translate(-88.833333, -74.500000) " x="84.3333333" y="63" width="9" height="23"></rect>
                    <rect id="Rectangle-Copy-10" fill="#D86600" transform="translate(100.833333, 76.500000) scale(1, -1) translate(-100.833333, -76.500000) " x="97.3333333" y="67" width="7" height="19"></rect>
                    <rect id="Rectangle-Copy-6" fill="#D8D8D8" x="7" y="83" width="50" height="2"></rect>
                    <rect id="Rectangle-Copy-32" fill="#D8D8D8" x="7" y="71" width="50" height="2"></rect>
                    <rect id="Rectangle-Copy-7" fill="#D8D8D8" x="7" y="79" width="50" height="2"></rect>
                    <rect id="Rectangle-Copy-33" fill="#D8D8D8" x="7" y="67" width="50" height="2"></rect>
                    <rect id="Rectangle-Copy-8" fill="#D8D8D8" x="7" y="75" width="50" height="2"></rect>
                    <rect id="Rectangle-Copy-34" fill="#979797" x="7" y="62" width="50" height="3"></rect>
                    <line x1="127" y1="30.5" x2="137" y2="30.5" id="Line-2" stroke="#FFFFFF" stroke-width="2.5" stroke-linecap="square" transform="translate(132.000000, 30.500000) scale(1, -1) translate(-132.000000, -30.500000) "></line>
                    <line x1="127" y1="37" x2="137" y2="37" id="Line-2-Copy" stroke="#FFFFFF" stroke-width="2.5" stroke-linecap="square" transform="translate(132.000000, 37.000000) scale(1, -1) translate(-132.000000, -37.000000) "></line>
                    <line x1="127" y1="43" x2="137" y2="43" id="Line-2-Copy-2" stroke="#FFFFFF" stroke-width="2.5" stroke-linecap="square" transform="translate(132.000000, 43.000000) scale(1, -1) translate(-132.000000, -43.000000) "></line>
                    <line x1="127" y1="49.5" x2="137" y2="49.5" id="Line-2-Copy-3" stroke="#FFFFFF" stroke-width="2.5" stroke-linecap="square" transform="translate(132.000000, 49.500000) scale(1, -1) translate(-132.000000, -49.500000) "></line>
                </g>
            </g>
        </g>
    </g>
</svg>