<?xml version="1.0" encoding="UTF-8"?>
<svg width="500px" height="416px" viewBox="0 0 500 416" version="1.1" xmlns="http://www.w3.org/2000/svg" xmlns:xlink="http://www.w3.org/1999/xlink">
    <!-- Generator: Sketch 59.1 (86144) - https://sketch.com -->
    <title>Group 110</title>
    <desc>Created with Sketch.</desc>
    <defs>
        <polygon id="path-1" points="0.284782609 0.0624433551 133.3 0.0624433551 133.3 13.0697854 0.284782609 13.0697854"></polygon>
        <polygon id="path-3" points="0 415.686275 500 415.686275 500 1.13686838e-13 0 1.13686838e-13 0 202.111793"></polygon>
    </defs>
    <g id="Home-Page" stroke="none" stroke-width="1" fill="none" fill-rule="evenodd">
        <g transform="translate(-773.000000, -166.000000)" id="Group-110">
            <g transform="translate(773.000000, 166.000000)">
                <path d="M200.980392,406.863482 C200.980392,411.737025 171.353184,415.686275 134.803922,415.686275 C98.2561171,415.686275 68.627451,411.737025 68.627451,406.863482 C68.627451,401.98994 98.2561171,398.039216 134.803922,398.039216 C171.353184,398.039216 200.980392,401.98994 200.980392,406.863482" id="Fill-1" fill="#AEE4ED"></path>
                <g id="Group-5" transform="translate(366.666667, 389.215686)">
                    <mask id="mask-2" fill="white">
                        <use xlink:href="#path-1"></use>
                    </mask>
                    <g id="Clip-4"></g>
                    <path d="M133.300725,6.56611438 C133.300725,10.1576939 103.523913,13.0697854 66.792029,13.0697854 C30.0615942,13.0697854 0.284782609,10.1576939 0.284782609,6.56611438 C0.284782609,2.97453486 30.0615942,0.0624433551 66.792029,0.0624433551 C103.523913,0.0624433551 133.300725,2.97453486 133.300725,6.56611438" id="Fill-3" fill="#AEE4ED" mask="url(#mask-2)"></path>
                </g>
                <polygon id="Fill-6" fill="#30C5CC" points="20.5882353 322.552615 12.7429546 322.552615 12.7429546 314.705882 7.84673274 314.705882 7.84673274 322.552615 0 322.552615 0 327.447385 7.84673274 327.447385 7.84673274 335.294118 12.7429546 335.294118 12.7429546 327.447385 20.5882353 327.447385"></polygon>
                <path d="M27.4509804,307.844604 C27.4509804,310.550146 25.2568393,312.745098 22.5490196,312.745098 C19.8412,312.745098 17.6470588,310.550146 17.6470588,307.844604 C17.6470588,305.136128 19.8412,302.941176 22.5490196,302.941176 C25.2568393,302.941176 27.4509804,305.136128 27.4509804,307.844604" id="Fill-8" fill="#3D9CFF"></path>
                <path d="M432.9254,370.588235 L63.1530315,370.588235 C48.36999,370.588235 36.2745098,358.504268 36.2745098,343.733521 L36.2745098,58.2287165 C36.2745098,43.4579697 48.36999,31.372549 63.1530315,31.372549 L432.9254,31.372549 C447.708441,31.372549 459.803922,43.4579697 459.803922,58.2287165 L459.803922,343.733521 C459.803922,358.504268 447.708441,370.588235 432.9254,370.588235" id="Fill-10" fill="#EFEFEF"></path>
                <path d="M432.9254,370.588235 L63.1530315,370.588235 C48.36999,370.588235 36.2745098,358.504268 36.2745098,343.733521 L36.2745098,58.2287165 C36.2745098,43.4579697 48.36999,31.372549 63.1530315,31.372549 L432.9254,31.372549 C447.708441,31.372549 459.803922,43.4579697 459.803922,58.2287165 L459.803922,343.733521 C459.803922,358.504268 447.708441,370.588235 432.9254,370.588235 Z" id="Stroke-12" stroke="#234587"></path>
                <path d="M66.4951034,358.823529 C56.8445217,358.823529 49.0196078,350.991687 49.0196078,341.332561 L49.0196078,60.6282229 C49.0196078,50.9676408 56.8445217,43.1372549 66.4951034,43.1372549 L429.583328,43.1372549 C439.235364,43.1372549 447.058824,50.9676408 447.058824,60.6282229 L447.058824,341.332561 C447.058824,350.991687 439.235364,358.823529 429.583328,358.823529 L66.4951034,358.823529 Z" id="Fill-14" fill="#F9FBFC"></path>
                <path d="M66.4951034,358.823529 C56.8445217,358.823529 49.0196078,350.991687 49.0196078,341.332561 L49.0196078,60.6282229 C49.0196078,50.9676408 56.8445217,43.1372549 66.4951034,43.1372549 L429.583328,43.1372549 C439.235364,43.1372549 447.058824,50.9676408 447.058824,60.6282229 L447.058824,341.332561 C447.058824,350.991687 439.235364,358.823529 429.583328,358.823529 L66.4951034,358.823529 Z" id="Stroke-16" stroke="#75D5EF"></path>
                <path d="M425.007022,349.019608 L71.0714096,349.019608 C64.8496073,349.019608 59.8039216,343.96778 59.8039216,337.735156 L59.8039216,63.2452358 C59.8039216,57.0126122 64.8496073,51.9607843 71.0714096,51.9607843 L425.007022,51.9607843 C431.228824,51.9607843 436.27451,57.0126122 436.27451,63.2452358 L436.27451,337.735156 C436.27451,343.96778 431.228824,349.019608 425.007022,349.019608" id="Fill-18" fill="#308DFC"></path>
                <path d="M11.7647059,348.039216 C20.2483777,362.113907 35.6217666,371.568627 53.0841363,371.568627 L443.974687,371.568627 C461.437057,371.568627 476.810446,362.113907 485.294118,348.039216 L11.7647059,348.039216 Z" id="Fill-20" fill="#EFEFEF"></path>
                <path d="M11.7647059,348.039216 C20.2483777,362.113907 35.6217666,371.568627 53.0841363,371.568627 L443.974687,371.568627 C461.437057,371.568627 476.810446,362.113907 485.294118,348.039216 L11.7647059,348.039216 Z" id="Stroke-22" stroke="#234587"></path>
                <path d="M16.8180516,355.882353 L480.240772,355.882353 C482.114908,353.74818 483.814842,351.458663 485.294118,349.019608 L11.7647059,349.019608 C13.2439817,351.458663 14.943915,353.74818 16.8180516,355.882353" id="Fill-24" fill="#F9FBFC"></path>
                <path d="M16.8180516,355.882353 L480.240772,355.882353 C482.114908,353.74818 483.814842,351.458663 485.294118,349.019608 L11.7647059,349.019608 C13.2439817,351.458663 14.943915,353.74818 16.8180516,355.882353 Z" id="Stroke-26" stroke="#4CB0DD"></path>
                <mask id="mask-4" fill="white">
                    <use xlink:href="#path-3"></use>
                </mask>
                <g id="Clip-29"></g>
                <polygon id="Fill-28" fill="#DB5A28" mask="url(#mask-4)" points="90.1960784 287.254902 195.098039 287.254902 195.098039 228.431373 90.1960784 228.431373"></polygon>
                <polygon id="Fill-30" fill="#30C5CC" mask="url(#mask-4)" points="192.156863 83.3333333 232.352941 83.3333333 232.352941 78.4313725 192.156863 78.4313725"></polygon>
                <polygon id="Fill-31" fill="#30C5CC" mask="url(#mask-4)" points="141.176471 83.3333333 165.686275 83.3333333 165.686275 78.4313725 141.176471 78.4313725"></polygon>
                <polygon id="Fill-32" fill="#30C5CC" mask="url(#mask-4)" points="86.2745098 83.3333333 134.313725 83.3333333 134.313725 78.4313725 86.2745098 78.4313725"></polygon>
                <polygon id="Fill-33" fill="#30C5CC" mask="url(#mask-4)" points="173.529412 83.3333333 184.313725 83.3333333 184.313725 78.4313725 173.529412 78.4313725"></polygon>
                <polygon id="Fill-34" fill="#30C5CC" mask="url(#mask-4)" points="242.156863 83.3333333 265.686275 83.3333333 265.686275 78.4313725 242.156863 78.4313725"></polygon>
                <polygon id="Fill-35" fill="#30C5CC" mask="url(#mask-4)" points="192.156863 99.0196078 206.862745 99.0196078 206.862745 94.1176471 192.156863 94.1176471"></polygon>
                <polygon id="Fill-36" fill="#30C5CC" mask="url(#mask-4)" points="213.72549 99.0196078 228.431373 99.0196078 228.431373 94.1176471 213.72549 94.1176471"></polygon>
                <polygon id="Fill-37" fill="#30C5CC" mask="url(#mask-4)" points="116.666667 99.0196078 141.176471 99.0196078 141.176471 94.1176471 116.666667 94.1176471"></polygon>
                <polygon id="Fill-38" fill="#30C5CC" mask="url(#mask-4)" points="86.2745098 99.0196078 109.803922 99.0196078 109.803922 94.1176471 86.2745098 94.1176471"></polygon>
                <polygon id="Fill-39" fill="#30C5CC" mask="url(#mask-4)" points="147.058824 99.0196078 187.254902 99.0196078 187.254902 94.1176471 147.058824 94.1176471"></polygon>
                <path d="M156.862745,396.704736 C154.339737,388.675474 149.442994,354.706746 148.346861,341.403973 C148.11417,338.584371 116.895603,326.491864 116.895603,326.491864 C98.6198919,326.033298 89.2156863,333.139623 89.2156863,333.139623 L133.097589,347.83696 C133.097589,367.462433 149.968376,397.058824 149.968376,397.058824 C149.968376,397.06027 156.862745,396.704736 156.862745,396.704736" id="Fill-40" fill="#2F2F8E" mask="url(#mask-4)"></path>
                <path d="M119.15524,351.307451 L106.045616,396.427123 L113.535358,398.039216 C116.79804,387.396205 135.667418,350.920433 136.179789,346.584661 C136.396221,344.73541 136.262239,343.308097 135.564355,342.729025 C134.860581,342.147042 113.700259,329.651871 107.553282,328.287121 C99.3200143,326.45824 87.0952607,323.529412 87.0952607,323.529412 C87.0952607,323.529412 80.2032854,330.654336 81.54605,342.238704 C82.8888147,353.823072 119.15524,351.307451 119.15524,351.307451" id="Fill-41" fill="#4C49A2" mask="url(#mask-4)"></path>
                <path d="M101.468749,272.572956 C101.468749,272.572956 87.3522693,273.819149 86.7099536,277.651374 C86.0690845,281.485039 93.445589,305.740427 93.445589,305.740427 L86.2745098,324.803582 C86.2745098,324.803582 106.634762,329.794118 116.557383,326.071386 C117.499157,326.502151 119.102053,306.060259 119.102053,306.060259 L122.637683,296.017237 L127.119426,311.170372 L137.383458,325.544095 L144.117647,320.11415 L136.639877,307.022637 C136.639877,307.022637 125.063726,280.712831 121.98958,277.651374 C116.215972,271.903037 101.468749,272.572956 101.468749,272.572956" id="Fill-42" fill="#FFFFFF" mask="url(#mask-4)"></path>
                <path d="M113.021052,273.325645 L111.923419,258.823529 L101.301351,258.823529 L101.301351,272.370399 C99.9568956,272.519249 102.750343,283.333333 111.309267,283.333333 C111.309267,283.333333 115.303432,281.89107 113.021052,273.325645" id="Fill-43" fill="#E67750" mask="url(#mask-4)"></path>
                <path d="M90.3096595,298.039216 C91.5642803,302.548587 92.5865095,305.968256 92.5865095,305.968256 L85.2941176,325.693215 C85.2941176,325.693215 101.046743,329.621212 111.764706,328.067902 C110.807193,327.355347 98.099193,318.676484 97.4770305,314.891593 C96.1724013,306.959572 90.3096595,298.039216 90.3096595,298.039216" id="Fill-44" fill="#EFEFEF" mask="url(#mask-4)"></path>
                <path d="M121.253159,244.339442 C120.370203,240.594762 114.653094,239.510277 105.616695,240.59622 C99.4702326,241.332328 98.0894538,247.113332 97.9182829,251.410457 C97.8255653,251.432322 97.7342742,251.443983 97.6401302,251.473136 C95.5190371,252.13782 94.0070273,254.247027 94.1239941,256.538438 C94.1824775,257.711839 94.587582,258.78029 95.3435869,259.650501 C96.1423846,260.978412 97.5031934,261.870488 99.0608488,262.074558 C99.4973347,262.131406 99.9266884,262.109541 100.347484,262.048321 C102.906489,267.491152 107.600852,274.273555 114.186653,273.463106 C123.84212,266.564092 121.253159,244.339442 121.253159,244.339442" id="Fill-45" fill="#FD9E71" mask="url(#mask-4)"></path>
                <path d="M100.691168,253.921569 C100.691168,253.921569 98.6128136,248.925382 103.302852,245.394546 C107.991406,241.865198 108.307838,247.074336 113.251915,247.714682 C118.194505,248.353539 123.073215,247.949972 122.542856,251.224671 C125.53634,243.824954 121.208787,239.592715 116.371674,237.272579 C111.536047,234.95542 103.960973,233.953205 98.6989784,238.35521 C93.4369837,242.755725 94.1500717,253.327387 94.1500717,253.327387 C97.6189473,251.646107 98.5489328,253.007214 100.691168,253.921569" id="Fill-46" fill="#201251" mask="url(#mask-4)"></path>
                <path d="M99.0196078,239.472007 C99.0196078,239.472007 94.6790211,228.005208 86.4555285,230.843956 C78.2320359,233.682704 81.9407277,249.981908 81.0327478,257.073695 C80.124768,264.165483 74.9588792,264.47622 73.1045333,261.323831 C69.6660208,267.752033 83.1380801,274.284783 87.5244349,268.106332 C91.9107897,261.927881 89.38321,246.271933 92.1868747,244.674684 C94.9920158,243.078886 97.8178263,245.152407 97.8178263,245.152407 L99.0196078,239.472007 Z" id="Fill-47" fill="#201251" mask="url(#mask-4)"></path>
                <path d="M86.9828097,276.522566 C83.6235242,278.506571 77.4509804,302.187054 77.4509804,306.08761 C77.4509804,309.988167 107.214479,329.411765 107.214479,329.411765 C107.214479,329.411765 108.587429,324.618186 111.764706,323.643047 C111.129824,323.317512 89.5252041,302.187054 89.5252041,302.187054 L95.2434417,285.624353 C95.2434417,285.624353 95.2434417,271.64687 86.9828097,276.522566" id="Fill-48" fill="#FFFFFF" mask="url(#mask-4)"></path>
                <polygon id="Fill-49" fill="#30C5CC" mask="url(#mask-4)" points="104.901961 331.296241 135.813195 330.392157 155.882353 337.495279 121.907593 339.215686"></polygon>
                <polygon id="Fill-50" fill="#0B9B9B" mask="url(#mask-4)" points="122.164258 340.196078 104.901961 333.193129 104.901961 331.372549 123.529412 338.409644"></polygon>
                <polygon id="Fill-51" fill="#0B9B9B" mask="url(#mask-4)" points="121.568627 339.215686 131.810198 311.764706 165.686275 313.549364 155.626204 338.07908"></polygon>
                <path d="M142.719691,324.216898 C141.764938,326.264891 142.054004,328.494465 143.365921,329.198463 C144.677838,329.900972 146.517856,328.811487 147.475389,326.763494 C148.431531,324.715501 148.142465,322.485927 146.829159,321.781929 C145.517242,321.07942 143.675834,322.168905 142.719691,324.216898" id="Fill-52" fill="#30C5CC" mask="url(#mask-4)"></path>
                <path d="M111.483449,322.54902 C111.483449,322.54902 123.744687,332.278805 122.453801,332.928433 C121.162914,333.576598 115.679194,333.576598 112.775791,331.955455 C109.870933,330.332848 106.862745,328.306419 106.862745,328.306419 C106.862745,328.306419 107.935331,322.873834 111.483449,322.54902" id="Fill-53" fill="#FD9E71" mask="url(#mask-4)"></path>
                <path d="M113.704509,396.238692 C115.846947,398.428206 123.138402,401.745695 126.729673,402.642587 C130.58033,403.604471 129.906788,406.862745 127.09224,406.862745 C121.566326,406.862745 109.277759,406.165163 103.220176,406.165163 C102.267185,403.283843 103.908049,399.43053 105.83696,396.833732 C106.423085,396.042272 113.396399,395.92673 113.704509,396.238692" id="Fill-54" fill="#201251" mask="url(#mask-4)"></path>
                <path d="M157.822156,396.238692 C159.964594,398.428206 167.256049,401.745695 170.847321,402.642587 C174.697977,403.604471 174.024435,406.862745 171.209887,406.862745 C165.683973,406.862745 153.393973,406.165163 147.337823,406.165163 C146.384832,403.283843 148.025696,399.43053 149.954607,396.833732 C150.540732,396.042272 157.514046,395.92673 157.822156,396.238692" id="Fill-55" fill="#201251" mask="url(#mask-4)"></path>
                <polygon id="Fill-56" fill="#31D0A8" mask="url(#mask-4)" points="89.2156863 213.72549 119.607843 213.72549 119.607843 204.901961 89.2156863 204.901961"></polygon>
                <polygon id="Fill-57" fill="#31D0A8" mask="url(#mask-4)" points="164.705882 213.72549 195.098039 213.72549 195.098039 204.901961 164.705882 204.901961"></polygon>
                <polygon id="Fill-58" fill="#31D0A8" mask="url(#mask-4)" points="127.45098 213.72549 157.843137 213.72549 157.843137 204.901961 127.45098 204.901961"></polygon>
                <polygon id="Fill-59" fill="#FEBA40" mask="url(#mask-4)" points="291.176471 83.9039969 197.749523 106.862745 189.215686 71.9798097 282.642634 49.0196078"></polygon>
                <polygon id="Fill-60" fill="#FEDB9B" mask="url(#mask-4)" points="265.686275 62.6294338 197.252456 79.4117647 196.078431 74.6254682 264.513692 57.8431373"></polygon>
                <polygon id="Fill-61" fill="#FEDB9B" mask="url(#mask-4)" points="256.862745 74.5973994 199.222636 89.2156863 198.039216 84.2261301 255.680779 69.6078431"></polygon>
                <polygon id="Fill-62" fill="#FEDB9B" mask="url(#mask-4)" points="228.431373 91.1969933 201.177819 98.0392157 200 93.1167322 227.253553 86.2745098"></polygon>
                <polygon id="Fill-63" fill="#FFFFFF" mask="url(#mask-4)" points="273.529412 70.7431054 259.015754 74.5098039 257.843137 69.452973 272.358235 65.6862745"></polygon>
                <polygon id="Fill-64" fill="#FFFFFF" mask="url(#mask-4)" points="89.2156863 197.058824 194.117647 197.058824 194.117647 110.784314 89.2156863 110.784314"></polygon>
                <polygon id="Fill-65" fill="#4CB0DD" mask="url(#mask-4)" points="201.960784 199.019608 408.823529 199.019608 408.823529 160.784314 201.960784 160.784314"></polygon>
                <polygon id="Fill-66" fill="#FFFFFF" mask="url(#mask-4)" points="347.058824 194.117647 402.941176 194.117647 402.941176 166.666667 347.058824 166.666667"></polygon>
                <polygon id="Fill-67" fill="#75D5EF" mask="url(#mask-4)" points="209.803922 173.529412 339.215686 173.529412 339.215686 168.627451 209.803922 168.627451"></polygon>
                <polygon id="Fill-68" fill="#75D5EF" mask="url(#mask-4)" points="209.803922 182.352941 339.215686 182.352941 339.215686 177.45098 209.803922 177.45098"></polygon>
                <polygon id="Fill-69" fill="#75D5EF" mask="url(#mask-4)" points="209.803922 192.156863 297.058824 192.156863 297.058824 187.254902 209.803922 187.254902"></polygon>
                <polygon id="Fill-70" fill="#FFFFFF" mask="url(#mask-4)" points="201.960784 320.588235 400.980392 320.588235 400.980392 227.45098 201.960784 227.45098"></polygon>
                <polygon id="Fill-71" fill="#FDBE44" mask="url(#mask-4)" points="201.960784 242.156863 400.980392 242.156863 400.980392 226.470588 201.960784 226.470588"></polygon>
                <polygon id="Fill-72" fill="#98DBE5" mask="url(#mask-4)" points="206.862745 272.54902 321.568627 272.54902 321.568627 264.705882 206.862745 264.705882"></polygon>
                <polygon id="Fill-73" fill="#98DBE5" mask="url(#mask-4)" points="206.862745 286.27451 309.803922 286.27451 309.803922 278.431373 206.862745 278.431373"></polygon>
                <polygon id="Fill-74" fill="#98DBE5" mask="url(#mask-4)" points="206.862745 300 276.470588 300 276.470588 292.156863 206.862745 292.156863"></polygon>
                <polygon id="Fill-75" fill="#98DBE5" mask="url(#mask-4)" points="206.862745 259.803922 248.039216 259.803922 248.039216 251.960784 206.862745 251.960784"></polygon>
                <polygon id="Fill-76" fill="#86D2E8" mask="url(#mask-4)" points="332.352941 311.764706 392.156863 311.764706 392.156863 251.960784 332.352941 251.960784"></polygon>
                <path d="M368.915737,280.181132 C369.843923,278.933521 370.399688,277.395037 370.399688,275.722524 L370.399688,271.223993 C370.399688,267.081922 367.029286,263.72549 362.866776,263.72549 C358.707129,263.72549 355.335295,267.081922 355.335295,271.223993 L355.335295,275.722524 C355.335295,277.480588 355.945491,279.094641 356.963917,280.373621 C350.052659,282.796126 345.096607,289.349296 345.098039,297.058824 L382.352941,297.058824 C382.352941,297.058824 380.910529,283.643077 368.915737,280.181132" id="Fill-77" fill="#F6FFFA" mask="url(#mask-4)"></path>
                <path d="M216.666667,235.294118 C216.666667,237.459455 214.911569,239.215686 212.744367,239.215686 C210.578627,239.215686 208.823529,237.459455 208.823529,235.294118 C208.823529,233.130242 210.578627,231.372549 212.744367,231.372549 C214.911569,231.372549 216.666667,233.130242 216.666667,235.294118" id="Fill-78" fill="#DB5A28" mask="url(#mask-4)"></path>
                <path d="M228.431373,235.294118 C228.431373,237.459455 226.674814,239.215686 224.509073,239.215686 C222.343333,239.215686 220.588235,237.459455 220.588235,235.294118 C220.588235,233.130242 222.343333,231.372549 224.509073,231.372549 C226.674814,231.372549 228.431373,233.130242 228.431373,235.294118" id="Fill-79" fill="#FFE780" mask="url(#mask-4)"></path>
                <path d="M243.137255,235.294118 C243.137255,237.459455 241.382157,239.215686 239.214956,239.215686 C237.050676,239.215686 235.294118,237.459455 235.294118,235.294118 C235.294118,233.130242 237.050676,231.372549 239.214956,231.372549 C241.382157,231.372549 243.137255,233.130242 243.137255,235.294118" id="Fill-80" fill="#1FB288" mask="url(#mask-4)"></path>
                <polygon id="Fill-81" fill="#DB5A28" mask="url(#mask-4)" points="333.333333 144.117647 402.941176 144.117647 402.941176 74.5098039 333.333333 74.5098039"></polygon>
                <path d="M430.840782,383.676616 C430.840782,383.676616 431.448688,385.509397 425.762636,388.07238 C420.078057,390.636819 414.072597,389.732065 412.600671,391.886309 C411.128744,394.039099 410.784314,396.078431 410.784314,396.078431 L443.137255,396.078431 C443.137255,396.078431 442.891443,387.250538 439.227819,383.333333 C439.694419,384.17554 430.840782,383.676616 430.840782,383.676616" id="Fill-82" fill="#9E472D" mask="url(#mask-4)"></path>
                <path d="M464.920907,382.697812 C464.920907,382.697812 465.491848,384.529561 460.150605,387.093404 C454.809363,389.657247 449.170427,388.751204 447.786939,390.905135 C446.40345,393.057553 446.078431,395.098039 446.078431,395.098039 L476.470588,395.098039 C476.470588,395.098039 476.240486,386.270554 472.800462,382.352941 C473.237655,383.195455 464.920907,382.697812 464.920907,382.697812" id="Fill-83" fill="#9E472D" mask="url(#mask-4)"></path>
                <polygon id="Fill-84" fill="#FFFFFF" mask="url(#mask-4)" points="425.490196 215.496897 401.890416 219.607843 385.294118 184.408414 410.708355 182.352941"></polygon>
                <path d="M396.097232,211.750354 C396.105075,211.746432 396.112918,211.744472 396.124683,211.746432 C396.014879,211.793491 395.999193,211.797413 396.097232,211.750354" id="Fill-85" fill="#262845" mask="url(#mask-4)"></path>
                <path d="M440.261057,149.620982 C440.261057,149.620982 437.254902,155.673102 437.254902,161.223276 C437.254902,165.102213 437.743545,170.705601 438.037874,173.727346 C438.146461,174.826163 439.223762,175.551036 440.273916,175.225994 L444.770289,173.833776 L444.518824,180.392157 L457.066377,180.172106 L459.803922,153.656688 C459.803922,153.656688 449.279522,142.054394 440.261057,149.620982" id="Fill-86" fill="#FD9E71" mask="url(#mask-4)"></path>
                <path d="M441.068907,164.352157 C441.068907,164.352157 441.805564,158.89782 445.910858,160.027231 C450.017643,161.156641 445.311392,166.65729 445.311392,166.65729 L449.234759,173.731047 C452.106824,174.77381 455.280114,174.848506 458.386299,173.469609 C458.386299,173.469609 462.745098,160.196045 462.745098,156.004078 C462.745098,151.812112 458.93059,148.981115 458.93059,148.981115 C458.93059,148.981115 448.709854,143.8659 443.217737,144.127338 C437.727112,144.390269 437.203698,149.890918 437.203698,149.890918 C437.203698,149.890918 435.113025,154.082885 437.203698,155.91743 C439.297353,157.750482 441.068907,164.352157 441.068907,164.352157" id="Fill-87" fill="#201251" mask="url(#mask-4)"></path>
                <path d="M457.843137,177.472003 L457.269189,181.31947 L444.117647,181.372549 C444.117647,181.372549 446.659834,177.117132 457.843137,177.472003" id="Fill-88" fill="#6AA5CC" mask="url(#mask-4)"></path>
                <path d="M401.855467,210.300211 C401.855467,210.300211 402.815804,207.328932 398.936645,205.584108 C399.037972,204.887971 398.162326,201.410275 397.347173,200.606581 C396.530508,199.804381 396.020848,204.273997 396.020848,204.273997 C396.020848,204.273997 392.221843,197.593474 391.246382,199.297963 C390.270921,200.999465 399.821366,214.140913 400.086026,214.666751 C400.352198,215.1896 401.855467,210.300211 401.855467,210.300211" id="Fill-89" fill="#FD9E71" mask="url(#mask-4)"></path>
                <path d="M436.210965,252.471339 L427.45098,327.294518 L429.227763,385.294118 L440.254478,384.499921 C440.254478,384.499921 443.371412,353.993185 443.623592,346.340682 C443.875771,338.688179 441.601835,326.954148 441.601835,326.954148 L452.720775,280.700216 L454.569609,281.040586 L455.079732,326.615233 L465.207248,384.499921 L474.477354,384.949384 C474.477354,384.949384 474.706477,355.09866 473.947058,347.702161 C473.19052,340.304209 469.230586,325.509758 469.230586,325.509758 L473.274099,278.320536 C473.274099,278.320536 477.316171,265.905765 470.073585,251.960784 C469.145566,252.046604 436.210965,252.471339 436.210965,252.471339" id="Fill-90" fill="#201251" mask="url(#mask-4)"></path>
                <path d="M444.258805,181.423153 C444.258805,181.423153 428.456441,186.493692 425.566899,189.368009 C422.677357,192.240881 414.393907,221.858785 414.393907,221.858785 L401.908411,209.414494 L398.039216,218.440834 C398.039216,218.440834 412.652623,240.077735 417.239844,240.754386 C421.828518,241.428144 432.193369,213.370295 432.193369,213.370295 C432.193369,213.370295 433.135231,228.697578 434.912852,236.359051 C436.952101,245.148274 435.93175,252.247318 435.93175,252.247318 C450.074226,254.80066 462.100418,254.275823 470.08881,251.73983 L474.045215,222.210122 C474.045215,222.210122 479.433309,222.836168 481.132442,220.976826 C482.831574,219.117484 475.014694,188.523643 473.315562,186.156813 C471.61643,183.789983 457.446337,181.372549 457.446337,181.372549 L444.258805,181.423153 Z" id="Fill-91" fill="#96C4EA" mask="url(#mask-4)"></path>
                <path d="M459.841997,201.365924 C459.757765,200.763464 458.77982,200.910087 458.801235,201.508192 C459.268079,214.268731 458.844065,226.70699 456.872471,239.339778 C456.741126,240.187578 457.980332,240.575184 458.165928,239.702706 C460.828508,227.213637 461.593732,214.042264 459.841997,201.365924" id="Fill-92" fill="#6AA5CC" mask="url(#mask-4)"></path>
                <path d="M473.967433,210.076558 C473.880911,209.646313 473.226859,209.759381 473.219527,210.177879 C473.081678,217.721113 472.150461,224.92955 470.722107,232.334753 C469.452133,238.914709 468.290678,245.502007 468.717425,252.230273 C468.777551,253.171525 470.230835,253.184741 470.19124,252.230273 C469.865681,244.459434 471.443616,236.957315 472.855839,229.361218 C474.029026,223.052919 475.238874,216.459747 473.967433,210.076558" id="Fill-93" fill="#6AA5CC" mask="url(#mask-4)"></path>
                <path d="M433.840068,209.856298 C429.522276,212.551504 427.901069,217.828587 426.247321,222.318176 C424.010766,228.391471 421.77717,234.358702 416.906156,238.916579 C416.181346,239.595102 417.264123,240.642673 418.000766,239.990302 C426.99136,232.04126 426.56387,219.043246 434.233536,210.354657 C434.459854,210.096033 434.168451,209.651433 433.840068,209.856298" id="Fill-94" fill="#6AA5CC" mask="url(#mask-4)"></path>
                <path d="M470.549732,249.322369 C470.549732,249.322369 449.170354,251.885933 436.27451,248.039216 C436.61269,248.039216 436.27451,251.885933 436.27451,251.885933 C436.27451,251.885933 452.714715,257.712214 471.568627,253.169085 C471.419131,253.112879 470.549732,249.322369 470.549732,249.322369" id="Fill-95" fill="#9E472D" mask="url(#mask-4)"></path>
                <path d="M248.862516,335.294118 C248.862516,335.294118 247.094878,339.372304 244.04498,340.053023 C240.992184,340.73221 232.962475,342.602656 231.677316,343.79085 C230.392157,344.980576 230.392157,348.039216 230.392157,348.039216 L255.882353,348.039216 C255.882353,348.039216 255.835989,339.873645 254.356679,335.629878 C254.96521,335.634478 248.862516,335.294118 248.862516,335.294118" id="Fill-96" fill="#1A133A" mask="url(#mask-4)"></path>
                <path d="M297.881724,335.294118 C297.881724,335.294118 296.113987,339.372304 293.063915,340.053023 C290.010945,340.73221 281.98078,342.602656 280.696997,343.79085 C279.411765,344.980576 279.411765,348.039216 279.411765,348.039216 L304.901961,348.039216 C304.901961,348.039216 304.855594,339.873645 303.3762,335.629878 C303.984766,335.634478 297.881724,335.294118 297.881724,335.294118" id="Fill-97" fill="#1A133A" mask="url(#mask-4)"></path>
                <path d="M294.907556,84.6152768 C294.907556,84.6152768 287.702145,82.7825759 287.266879,83.9261813 C286.831614,85.0712528 298.404386,88.4830087 298.404386,88.4830087 L308.825763,117.294532 L304.924548,126.513751 L312.096138,134.313725 C312.096138,134.313725 319.920626,123.750038 320.572054,120.662303 C321.223482,117.574569 301.989446,86.533015 301.989446,86.533015 C301.989446,86.533015 298.173519,74.4386555 297.589734,73.8565897 C297.005948,73.2745239 290.115222,73.6410641 288.55503,73.667455 C286.993368,73.6938458 293.09738,79.8531869 293.09738,79.8531869 L294.907556,84.6152768 Z" id="Fill-98" fill="#E79673" mask="url(#mask-4)"></path>
                <path d="M267.10037,105.9025 C267.10037,105.9025 263.732564,110.684519 263.012849,115.78028 C262.293133,120.87604 263.252273,125.728104 263.252273,125.728104 L269.432594,125.522347 L269.432594,131.372549 L281.718236,131.372549 C281.718236,131.372549 281.959102,126.940755 282.437951,124.515453 C282.918242,122.088691 286.27451,117.478867 286.27451,117.478867 L280.759096,101.707107 L272.845112,100.980392 L267.10037,105.9025 Z" id="Fill-99" fill="#E79673" mask="url(#mask-4)"></path>
                <path d="M270.373031,113.671154 C270.373031,113.671154 272.572244,108.605229 275.260987,110.534691 C277.94973,112.464152 274.527426,116.565347 274.527426,116.565347 C274.527426,116.565347 276.238578,123.560734 279.171351,124.525465 L282.104125,125.490196 C282.104125,125.490196 289.682293,118.496259 290.905385,116.565347 C292.127006,114.635885 288.950203,103.540754 286.74952,101.128201 C284.550307,98.7156485 275.016957,98.9564686 274.283396,97.7509176 C273.549835,96.5453666 271.105122,94.373634 268.661879,95.3383649 C266.217166,96.3045465 266.706697,104.264665 266.706697,104.264665 C266.706697,104.264665 269.729144,106.830994 269.927602,108.683568 C270.127531,110.534691 268.729502,112.989314 268.729502,112.989314 L270.373031,113.671154 Z" id="Fill-100" fill="#201251" mask="url(#mask-4)"></path>
                <path d="M258.61934,131.718393 C258.61934,131.718393 270.888136,129.914429 277.928366,129.753075 C284.968596,129.591721 296.170603,133.297044 296.170603,133.297044 L304.322373,124.509804 L314.705882,134.336395 C314.705882,134.336395 305.866979,147.472918 303.01884,150.537186 C300.170701,153.600001 298.090535,167.94159 297.449595,172.292328 C296.810099,176.641612 295.210637,202.100622 295.210637,202.100622 C295.210637,202.100622 287.689702,211.123351 256.806232,201.295307 C256.485762,200.972599 258.086667,182.604433 257.927876,178.092342 C257.766198,173.580251 253.767543,158.273446 252.966369,154.56667 C252.165194,150.861348 239.407032,143.444888 239.407032,143.444888 C239.407032,143.444888 237.832111,134.416345 243.718939,130.071422 C244.485468,130.55839 258.61934,131.718393 258.61934,131.718393" id="Fill-101" fill="#201251" mask="url(#mask-4)"></path>
                <path d="M230.453884,93.955864 C230.453884,93.955864 225.804299,98.3534353 225.483139,100.144494 C225.163426,101.937022 231.881744,122.342458 231.881744,122.342458 L244.117647,129.61836 L239.797902,143.137255 C239.797902,143.137255 226.445172,133.694158 224.521106,130.926024 C222.59704,128.15789 219.229201,100.470676 219.229201,100.470676 C219.229201,100.470676 214.899329,94.9329389 214.578169,93.466592 C214.258455,92.0017144 213.248682,87.2074361 213.993716,86.2656242 C214.740195,85.3238122 219.700814,80.1093183 220.42704,81.6579451 C221.153267,83.2065719 223.823813,94.4877454 223.823813,94.4877454 C223.823813,94.4877454 229.332718,92.0017144 230.453884,93.955864" id="Fill-102" fill="#E79673" mask="url(#mask-4)"></path>
                <path d="M256.659264,201.506381 L249.685895,267.612605 L246.078431,337.75092 L258.102828,338.235294 C258.102828,338.235294 265.559313,291.700423 265.677922,284.615171 C265.797978,277.52992 265.557867,269.064274 265.557867,269.064274 L273.254464,233.754384 L277.583709,233.754384 L286.480866,279.705969 L295.621027,336.783625 L305.241412,337.266545 C305.241412,337.266545 306.683529,301.715195 305.241412,294.458303 C303.797848,287.202866 301.633948,280.190344 301.633948,280.190344 L297.304703,232.545629 C297.304703,232.545629 301.152278,215.614337 295.140803,202.313672 C293.937351,199.894709 256.659264,201.506381 256.659264,201.506381" id="Fill-103" fill="#4C49A2" mask="url(#mask-4)"></path>
                <polygon id="Fill-104" fill="#FDBE44" mask="url(#mask-4)" points="183.333333 126.474184 175.488606 126.474184 175.488606 118.627451 170.592729 118.627451 170.592729 126.474184 162.745098 126.474184 162.745098 131.370406 170.592729 131.370406 170.592729 139.215686 175.488606 139.215686 175.488606 131.370406 183.333333 131.370406"></polygon>
                <path d="M109.314451,169.140537 C106.081576,169.140537 103.453505,171.768918 103.453505,175.000725 C103.453505,178.231082 106.081576,180.859463 109.314451,180.859463 C112.542974,180.859463 115.173946,178.231082 115.173946,175.000725 C115.173946,171.768918 112.542974,169.140537 109.314451,169.140537 M109.314451,187.254902 C102.558627,187.254902 97.0588235,181.757349 97.0588235,175.000725 C97.0588235,168.242651 102.558627,162.745098 109.314451,162.745098 C116.071725,162.745098 121.568627,168.242651 121.568627,175.000725 C121.568627,181.757349 116.071725,187.254902 109.314451,187.254902" id="Fill-105" fill="#30C5CC" mask="url(#mask-4)"></path>
                <polygon id="Fill-106" fill="#30C5CC" mask="url(#mask-4)" points="487.254902 73.5330073 479.410175 73.5330073 479.410175 65.6862745 474.514298 65.6862745 474.514298 73.5330073 466.666667 73.5330073 466.666667 78.4292291 474.514298 78.4292291 474.514298 86.2745098 479.410175 86.2745098 479.410175 78.4292291 487.254902 78.4292291"></polygon>
                <path d="M449.019608,20.5897025 C449.019608,23.2952445 446.825795,25.4901961 444.118381,25.4901961 C441.409499,25.4901961 439.215686,23.2952445 439.215686,20.5897025 C439.215686,17.8826933 441.409499,15.6862745 444.118381,15.6862745 C446.825795,15.6862745 449.019608,17.8826933 449.019608,20.5897025" id="Fill-107" fill="#3D9CFF" mask="url(#mask-4)"></path>
                <path d="M353.433548,87.7679876 C350.200673,87.7679876 347.571152,90.3963692 347.571152,93.6267257 C347.571152,96.8585327 350.200673,99.4869144 353.433548,99.4869144 C356.662072,99.4869144 359.291593,96.8585327 359.291593,93.6267257 C359.291593,90.3963692 356.662072,87.7679876 353.433548,87.7679876 M353.433548,105.882353 C346.676274,105.882353 341.176471,100.3848 341.176471,93.6267257 C341.176471,86.8686517 346.676274,81.372549 353.433548,81.372549 C360.189372,81.372549 365.686275,86.8686517 365.686275,93.6267257 C365.686275,100.3848 360.189372,105.882353 353.433548,105.882353" id="Fill-108" fill="#FEBA40" mask="url(#mask-4)"></path>
                <path d="M419.119823,6.39543857 C415.886948,6.39543857 413.258877,9.02382022 413.258877,12.2556272 C413.258877,15.4859837 415.886948,18.1143654 419.119823,18.1143654 C422.348346,18.1143654 424.977867,15.4859837 424.977867,12.2556272 C424.977867,9.02382022 422.348346,6.39543857 419.119823,6.39543857 M419.119823,24.5098039 C412.362548,24.5098039 406.862745,19.0122507 406.862745,12.2556272 C406.862745,5.49755323 412.362548,1.13686838e-13 419.119823,1.13686838e-13 C425.877097,1.13686838e-13 431.372549,5.49755323 431.372549,12.2556272 C431.372549,19.0122507 425.877097,24.5098039 419.119823,24.5098039" id="Fill-109" fill="#FEBA40" mask="url(#mask-4)"></path>
            </g>
        </g>
    </g>
</svg>