<?xml version="1.0" encoding="UTF-8"?>
<svg width="20px" height="20px" viewBox="0 0 20 20" version="1.1" xmlns="http://www.w3.org/2000/svg" xmlns:xlink="http://www.w3.org/1999/xlink">
    <!-- Generator: Sketch 59.1 (86144) - https://sketch.com -->
    <title>Instagram-black</title>
    <desc>Created with Sketch.</desc>
    <g id="Home-Page" stroke="none" stroke-width="1" fill="none" fill-rule="evenodd">
        <g transform="translate(-797.000000, -2753.000000)" fill="#FFFFFF" id="Group-11">
            <g transform="translate(1.000000, 2525.000000)">
                <path d="M807.027558,228.00078 C808.827953,228.004047 809.208753,228.018464 810.122987,228.060178 C811.187371,228.108725 811.914306,228.277786 812.55038,228.525007 C813.207968,228.780524 813.765644,229.122457 814.321613,229.678387 C814.877543,230.234356 815.219476,230.792032 815.475033,231.44962 C815.722214,232.085694 815.891275,232.812629 815.939822,233.877013 C815.988488,234.943619 816,235.284163 816,238.00002 C816,240.715837 815.988488,241.056381 815.939822,242.122987 C815.891275,243.187371 815.722214,243.914306 815.475033,244.55038 C815.219476,245.207968 814.877543,245.765644 814.321613,246.321613 C813.765644,246.877543 813.207968,247.219476 812.55038,247.475033 C811.914306,247.722214 811.187371,247.891275 810.122987,247.939822 C809.056381,247.988488 808.715837,248 806.00002,248 C803.284163,248 802.943619,247.988488 801.877013,247.939822 C800.812629,247.891275 800.085694,247.722214 799.44962,247.475033 C798.792032,247.219476 798.234356,246.877543 797.678387,246.321613 C797.122457,245.765644 796.780524,245.207968 796.525007,244.55038 C796.277786,243.914306 796.108725,243.187371 796.060178,242.122987 C796.018464,241.208753 796.004047,240.827953 796.00078,239.027558 L796.00078,236.972467 C796.004047,235.172047 796.018464,234.791247 796.060178,233.877013 C796.108725,232.812629 796.277786,232.085694 796.525007,231.44962 C796.780524,230.792032 797.122457,230.234356 797.678387,229.678387 C798.234356,229.122457 798.792032,228.780524 799.44962,228.525007 C800.085694,228.277786 800.812629,228.108725 801.877013,228.060178 C802.791247,228.018464 803.172047,228.004047 804.972467,228.00078 Z M806.555884,229.801978 L805.444148,229.801978 C803.278984,229.803518 802.935493,229.815564 801.959142,229.860111 C800.984152,229.904569 800.454659,230.067478 800.102286,230.204426 C799.635512,230.385832 799.302391,230.602527 798.952479,230.952479 C798.602527,231.302391 798.385832,231.635512 798.204426,232.102286 C798.067478,232.454659 797.904569,232.984152 797.860111,233.959142 C797.815564,234.935493 797.803518,235.278984 797.801978,237.444148 L797.801978,238.555884 C797.803518,240.721016 797.815564,241.064507 797.860111,242.040858 C797.904569,243.015848 798.067478,243.545341 798.204426,243.897714 C798.385832,244.364488 798.602567,244.697609 798.952479,245.047521 C799.302391,245.397473 799.635512,245.614168 800.102286,245.795574 C800.454659,245.932522 800.984152,246.095431 801.959142,246.139889 C802.935383,246.184436 803.278797,246.196482 805.444108,246.198022 L806.555924,246.198022 C808.721208,246.196482 809.064654,246.184436 810.040858,246.139889 C811.015848,246.095431 811.545341,245.932522 811.897714,245.795574 C812.364488,245.614168 812.697609,245.397473 813.047521,245.047521 C813.397473,244.697609 813.614168,244.364488 813.795574,243.897714 C813.932522,243.545341 814.095431,243.015848 814.139889,242.040858 C814.184436,241.064507 814.196482,240.721016 814.198022,238.555884 L814.198022,237.444148 C814.196482,235.278984 814.184436,234.935493 814.139889,233.959142 C814.095431,232.984152 813.932522,232.454659 813.795574,232.102286 C813.614168,231.635512 813.397473,231.302391 813.047521,230.952479 C812.697609,230.602527 812.364488,230.385832 811.897714,230.204426 C811.545341,230.067478 811.015848,229.904569 810.040858,229.860111 C809.064507,229.815564 808.721016,229.803518 806.555884,229.801978 Z M806.00002,232.864868 C808.836073,232.864868 811.135132,235.163927 811.135132,238.00002 C811.135132,240.836073 808.836073,243.135132 806.00002,243.135132 C803.163927,243.135132 800.864868,240.836073 800.864868,238.00002 C800.864868,235.163927 803.163927,232.864868 806.00002,232.864868 Z M806.00002,234.666667 C804.159042,234.666667 802.666667,236.159042 802.666667,238.00002 C802.666667,239.840958 804.159042,241.333333 806.00002,241.333333 C807.840958,241.333333 809.333333,239.840958 809.333333,238.00002 C809.333333,236.159042 807.840958,234.666667 806.00002,234.666667 Z M811.338013,231.461965 C812.000762,231.461965 812.538035,231.999238 812.538035,232.661987 C812.538035,233.324735 812.000762,233.861968 811.338013,233.861968 C810.675304,233.861968 810.138032,233.324735 810.138032,232.661987 C810.138032,231.999238 810.675304,231.461965 811.338013,231.461965 Z" id="Instagram"></path>
            </g>
        </g>
    </g>
</svg>