<?xml version="1.0" encoding="UTF-8"?>
<svg width="19px" height="19px" viewBox="0 0 19 19" version="1.1" xmlns="http://www.w3.org/2000/svg" xmlns:xlink="http://www.w3.org/1999/xlink">
    <!-- Generator: Sketch 59.1 (86144) - https://sketch.com -->
    <title>Group 9</title>
    <desc>Created with Sketch.</desc>
    <g id="Home-Page" stroke="none" stroke-width="1" fill="none" fill-rule="evenodd">
        <g transform="translate(-698.000000, -2753.000000)" fill="#FFFFFF" id="Group-11">
            <g transform="translate(1.000000, 2525.000000)">
                <g id="Group-9" transform="translate(697.000000, 228.000000)">
                    <polygon id="Fill-3092" points="0 19 5 19 5 6 0 6"></polygon>
                    <path d="M2.5,5 C3.87928571,5 5,3.87857143 5,2.5 C5,1.12142857 3.87928571,0 2.5,0 C1.11785714,0 0,1.12142857 0,2.5 C0,3.87857143 1.11785714,5 2.5,5" id="Fill-3093"></path>
                    <path d="M19,11.8565 C19,8.3465 18.2035789,6 13.8992105,6 C11.8301579,6 10.4418947,6.728 9.874,7.755 L9.81515789,7.755 L9.81515789,6 L6,6 L6,19 L9.98757895,19 L9.98757895,12.552 C9.98757895,10.8555 10.3255789,9.211 12.5383158,9.211 C14.7182105,9.211 14.8947368,11.1545 14.8947368,12.6625 L14.8947368,19 L19,19 L19,11.8565" id="Fill-3094"></path>
                </g>
            </g>
        </g>
    </g>
</svg>