<?xml version="1.0" encoding="UTF-8"?>
<svg width="127px" height="29px" viewBox="0 0 127 29" version="1.1" xmlns="http://www.w3.org/2000/svg" xmlns:xlink="http://www.w3.org/1999/xlink">
    <!-- Generator: Sketch 59.1 (86144) - https://sketch.com -->
    <title>Group 17 Copy</title>
    <desc>Created with Sketch.</desc>
    <g id="Home-Page" stroke="none" stroke-width="1" fill="none" fill-rule="evenodd">
        <g id="Home-Page-Mobile" transform="translate(-15.000000, -46.000000)">
            <g id="Group-17-Copy" transform="translate(15.000000, 46.000000)">
                <polygon id="Fill-1" fill="#1C75BB" points="0 26.8787879 5 26.8787879 5 0.878787879 0 0.878787879"></polygon>
                <g id="Group-16" transform="translate(9.000000, 7.878788)">
                    <path d="M46.0108993,0.478807692 L50.3302392,0.478807692 L50.3302392,3.36303846 C51.5441739,1.61842308 53.2933503,0.0868846154 56.2209843,0.0868846154 C60.4689843,0.0868846154 62.9323307,2.93573077 62.9323307,7.27957692 L62.9323307,19.2788077 L58.6126052,19.2788077 L58.6126052,8.59688462 C58.6126052,5.67765385 57.1487882,4.00380769 54.5786248,4.00380769 C52.0794157,4.00380769 50.3302392,5.74842308 50.3302392,8.66842308 L50.3302392,19.2788077 L46.0108993,19.2788077 L46.0108993,0.478807692 Z" id="Fill-2" fill="#1C75BB"></path>
                    <path d="M67.3959314,12.4424615 L67.3959314,0.479 L71.7152712,0.479 L71.7152712,11.1605385 C71.7152712,14.0805385 73.1790882,15.7182308 75.7492516,15.7182308 C78.2484608,15.7182308 79.9976373,14.009 79.9976373,11.0893846 L79.9976373,0.479 L84.3528399,0.479 L84.3528399,19.2786154 L79.9976373,19.2786154 L79.9976373,16.3593846 C78.7837026,18.1397692 77.0345261,19.6705385 74.1072778,19.6705385 C69.8592778,19.6705385 67.3959314,16.8220769 67.3959314,12.4424615" id="Fill-4" fill="#1C75BB"></path>
                    <path d="M89.2094654,0.478807692 L93.5288052,0.478807692 L93.5288052,3.32726923 C94.7427399,1.65419231 96.3847137,0.0868846154 99.2760993,0.0868846154 C101.989714,0.0868846154 103.917433,1.40457692 104.916576,3.39880769 C106.416256,1.40457692 108.415315,0.0868846154 111.271224,0.0868846154 C115.376544,0.0868846154 117.875367,2.6865 117.875367,7.27957692 L117.875367,19.2788077 L113.556027,19.2788077 L113.556027,8.59688462 C113.556027,5.60611538 112.16355,4.00380769 109.736067,4.00380769 C107.379923,4.00380769 105.702472,5.64188462 105.702472,8.66842308 L105.702472,19.2788077 L101.382361,19.2788077 L101.382361,8.5615 C101.382361,5.64188462 99.9544065,4.00380769 97.5627856,4.00380769 C95.1711647,4.00380769 93.5288052,5.78419231 93.5288052,8.66842308 L93.5288052,19.2788077 L89.2094654,19.2788077 L89.2094654,0.478807692 Z" id="Fill-6" fill="#1C75BB"></path>
                    <path d="M9.23982418,18.6537692 C4.20978497,18.6537692 0.131843791,14.5868462 0.131843791,9.56953846 C0.131843791,4.55223077 4.20978497,0.485307692 9.23982418,0.485307692" id="Stroke-8" stroke="#1C75BB" stroke-width="4"></path>
                    <path d="M32.5352608,0.485384615 C37.5656856,0.485384615 41.6432412,4.55230769 41.6432412,9.56961538 C41.6432412,14.5869231 37.5656856,18.6538462 32.5352608,18.6538462" id="Stroke-10" stroke="#F6931D" stroke-width="4"></path>
                    <path d="M9.6431451,0.485384615 C18.3516222,0.999615385 20.8874654,9.56961538 20.8874654,9.56961538 C20.8874654,9.56961538 23.5393804,18.6538462 32.1321712,18.6538462" id="Stroke-12" stroke="#1C75BB" stroke-width="4"></path>
                    <path d="M32.1323255,0.485384615 C23.1431163,0.485384615 20.8876196,9.56961538 20.8876196,9.56961538 C20.8876196,9.56961538 18.2360902,18.6538462 9.64329935,18.6538462" id="Stroke-14" stroke="#27A9E0" stroke-width="4"></path>
                </g>
            </g>
        </g>
    </g>
</svg>