<?xml version="1.0" encoding="UTF-8"?>
<svg width="455px" height="270px" viewBox="0 0 455 270" version="1.1" xmlns="http://www.w3.org/2000/svg" xmlns:xlink="http://www.w3.org/1999/xlink">
    <!-- Generator: Sketch 59.1 (86144) - https://sketch.com -->
    <title>Group 19</title>
    <desc>Created with Sketch.</desc>
    <g id="Home-Page" stroke="none" stroke-width="1" fill="none" fill-rule="evenodd">
        <g transform="translate(-456.000000, -1295.000000)" id="Group-19">
            <g transform="translate(456.000000, 1295.000000)">
                <path d="M187.779375,58.8850559 C189.291938,57.8494381 191.093532,57.5664581 192.840487,57.3175543 C201.693219,56.0552562 210.580166,55.1129774 219.483965,54.4926932 C233.116948,53.5439943 247.204416,53.4313949 259.919241,59.1695174 C262.01293,60.1142655 264.439057,62.0328993 263.931976,64.5540384 C263.509152,66.6578685 261.325077,67.4727323 259.480587,67.8722624 C241.464132,71.7747191 222.969703,71.1648059 204.644811,70.5415586 C201.322483,70.4284654 176.880954,66.3452571 187.779375,58.8850559" id="Fill-1" fill="#4A90E2"></path>
                <path d="M223.348748,61.5310799 C223.714334,61.3631458 224.03862,61.1297896 224.287444,60.8021637 C224.3471,60.7238631 224.402677,60.6378356 224.421543,60.5409902 C224.442958,60.4261151 224.412365,60.3091794 224.381262,60.1973951 C224.263479,59.7693178 223.053015,56.4544233 223.322744,56.2864893 C225.396441,55.1233142 227.165227,53.1658008 228.188564,51.1433803 C230.099608,47.3648643 230.200565,43.0511229 229.82733,38.9913431 C229.291443,33.1558925 227.288109,26.7594598 221.93433,24.6216491 C217.828236,22.9814589 212.676371,24.7669172 209.367225,27.8716365 C205.111226,31.8644488 205.763877,38.4442696 206.662802,43.5157747 C207.305765,47.1423259 208.847144,50.7400295 211.372598,53.4367619 C212.641189,54.7915672 214.16982,55.900138 215.892208,56.5852677 C216.729437,56.9180449 217.509049,56.8500471 217.758382,57.6897173 C218.066862,58.7302903 217.915936,60.2751805 218.013834,61.3837512 C218.03015,61.5676545 218.058194,61.7737085 218.203511,61.8849777 C218.308547,61.9643085 218.448255,61.9735809 218.579295,61.9787323 C219.476181,62.0137615 220.375106,62.0055193 221.271481,61.9540058 C221.972061,61.9133101 222.721591,61.8195555 223.348748,61.5310799" id="Fill-3" fill="#FDAE70"></path>
                <path d="M224.593935,33.3876176 C226.613441,34.5943648 228.591058,36.6457348 228.220963,38.9985408 C229.280489,38.463379 230.597257,39.5121356 230.750519,40.7053408 C230.903781,41.8990475 230.250817,43.0461094 229.492887,43.9704798 C230.675613,44.173109 231.836163,43.3049131 232.375289,42.2150287 C232.914415,41.1241413 232.968131,39.8597149 232.988829,38.6394256 C233.050429,35.0201871 232.896182,31.3031448 231.52619,27.9622706 C230.157185,24.6213964 227.350673,21.6917993 223.838962,21.1165129 C222.756767,20.9394631 221.650425,20.9871111 220.560345,21.1074849 C219.675765,21.2052886 218.772457,21.3587652 218.002207,21.8121731 C211.723901,25.5096546 221.981095,31.8262692 224.593935,33.3876176" id="Fill-5" fill="#F57823"></path>
                <path d="M209.591891,41.3443333 C208.084616,44.323638 207.774695,47.7372003 207.77923,51.0369431 C207.78175,53.2307901 208.675734,55.6138237 205.873845,54.8565645 C203.426728,54.1951804 200.504902,51.2825268 198.535012,49.7080224 C197.749879,49.0809893 196.951643,48.4037115 196.535895,47.4803372 C196.187674,46.7061589 196.141312,45.8314912 196.122162,44.9809205 C196.029438,40.9213551 195.630824,35.6548918 197.050414,31.8352704 C198.507296,27.9136215 201.473972,24.7246222 204.674475,22.1836767 C209.123734,18.6521932 214.390882,16.3501663 219.829873,19.463286 C221.002534,20.1349241 222.052739,21.003952 223.095888,21.8683657 C225.479006,23.8427767 222.538534,26.1858196 221.284235,27.9787346 C218.237937,32.3320776 213.738788,35.3523983 210.623954,39.6488316 C210.230883,40.1912691 209.88871,40.7578035 209.591891,41.3443333" id="Fill-7" fill="#F57823"></path>
                <polygon id="Fill-9" fill="#C5C7C7" points="205 260 162 259.513734 166.249888 226 201.479559 226.398697"></polygon>
                <polygon id="Fill-11" fill="#C5C7C7" points="165 234.637522 202.946141 233 204 243"></polygon>
                <path d="M70,71.110387 L70,230.273788 C70,232.884282 72.1026127,235 74.6964283,235 L293.303572,235 C295.897387,235 298,232.884282 298,230.273788 L298,71.110387 C298,69.3927412 296.616394,68 294.909388,68 L73.0911204,68 C71.3841141,68 70,69.3927412 70,71.110387" id="Fill-13" fill="#DEDEDE"></path>
                <path d="M70,71.3275511 L70,214 L298,214 L298,71.3275511 C298,69.4900091 296.513171,68 294.67955,68 L73.3204501,68 C71.4863209,68 70,69.4900091 70,71.3275511" id="Fill-15" fill="#002D51"></path>
                <polygon id="Fill-17" fill="#FFFFFF" points="76 206 292 206 292 75 76 75"></polygon>
                <path d="M218,267 L149,267 L149,259.211863 C149,256.885802 150.890896,255 153.223872,255 L213.776128,255 C216.109104,255 218,256.885802 218,259.211863 L218,267 Z" id="Fill-19" fill="#CDD2D2"></path>
                <polygon id="Fill-21" fill="#F5A623" points="92 194 151 194 151 160 92 160"></polygon>
                <polygon id="Fill-22" fill="#D86600" points="154 194 213 194 213 160 154 160"></polygon>
                <polygon id="Fill-23" fill="#0280DA" points="216 194 275 194 275 160 216 160"></polygon>
                <polygon id="Fill-24" fill="#CFD2D4" points="91 201 124 201 124 197 91 197"></polygon>
                <polygon id="Fill-25" fill="#CFD2D4" points="154 201 187 201 187 197 154 197"></polygon>
                <polygon id="Fill-26" fill="#CFD2D4" points="216 201 249 201 249 197 216 197"></polygon>
                <polygon id="Fill-254" fill="#FDAE70" points="321.318776 99 317.761176 101.665591 313.896149 101.037524 313.348349 101.792937 314.246389 102.508617 310.890475 102.9095 309 104.905255 309.689133 108.505561 312.528198 111 316.014615 109.934884 318.972318 106.753799 324 103.317005"></polygon>
                <path d="M318,99.2041633 C321.181215,95.5534082 324.361924,91.9031641 327.543139,88.252409 C329.597136,85.8957154 331.702255,83.5752942 333.708673,81.1772192 C336.230868,78.1630218 334.20471,76.3483728 334.672908,72.5131897 C335.727239,63.8828784 337.112092,54.5490841 343.265985,48.4634706 C343.880463,47.8555223 344.571371,47.2705636 345.409066,47.0713201 C346.993853,46.6937791 348.618626,47.8677834 349.32067,49.3508707 C350.022207,50.8344689 350.020689,52.5448982 349.990319,54.1884021 C349.828854,63.0981653 350.29604,73.5242231 348.1317,82.203579 C347.158861,86.1051765 341.86544,89.2721273 338.85885,91.9210449 C332.77582,97.2806966 326.693297,102.640348 320.610267,108 L318,99.2041633 Z" id="Fill-255" fill="#005467"></path>
                <polygon id="Fill-256" fill="#333333" points="72.8711132 235.548793 76 238.536726 73.2531425 250 69.9457509 250 68 241.604932 70.5765321 235"></polygon>
                <polygon id="Fill-257" fill="#877870" points="30.5650024 136 54.6311763 140.512729 40.8249394 189.000255 70 236.05175 66.6751851 242 24.7845487 197.394999 21 186.33385 23.6288644 141.599041"></polygon>
                <polygon id="Fill-258" fill="#877870" points="74 136 67.715335 180.590071 59.971317 248 51.9624647 247.348149 48 179.275235 50.458889 136.25153"></polygon>
                <path d="M14.7918261,148.777612 C14.2871956,150.769405 13.7436698,152.750508 13.1612484,154.720413 C13.0369851,155.140354 12.9122166,155.602035 13.0844678,156.005178 C13.2299469,156.345712 13.5567696,156.566626 13.8724793,156.756491 C17.8150626,159.124449 22.7962046,159.655356 27.1428963,158.170547 C29.2851763,157.439086 31.2607616,156.251543 33.43436,155.620868 C37.0804286,154.563126 40.8987485,155.131192 44.615031,155.341417 C48.2999951,155.549097 51.5136677,154.60283 55.0521425,154.310143 C63.7278462,153.591408 66.0479339,153.155178 74.3033648,155.771029 C74.3033648,140.025023 77.4973371,127.915961 75.1206741,113.100951 C72.7748245,98.4773328 70.4289748,83.8542235 68.0831252,69.2306052 C67.6870989,66.7633882 67.2759185,64.2452692 66.2651422,62.0732835 C61.6941703,52.2527722 50.9357926,50.3785628 41.384689,53.1863138 C36.5247795,54.6146222 32.6544307,60.1390097 30.2661496,64.4325884 C27.2136153,69.9213445 25.5330292,76.099822 24.32525,82.2350328 C20.5458255,101.431172 20.4220673,121.211666 16.6673945,140.412387 C16.1188173,143.217593 15.4934594,146.007528 14.7918261,148.777612" id="Fill-259" fill="#FD5959"></path>
                <path d="M47.475176,54.8871008 C47.5591174,55.0831341 47.6760174,55.2730093 47.8382354,55.4572395 C48.4778377,56.1833838 49.4037678,56.6360052 50.3405123,56.839223 C51.575944,57.1065878 52.8592685,56.9916363 54.1147843,56.8453811 C55.8106061,56.6472951 55.8224506,55.6671286 56.1746954,54.17122 C56.5583538,52.5398329 56.7519854,50.8714972 56.9517968,49.2098327 C59.3804319,49.0117467 62.2637924,48.482662 63.315892,46.0101792 C63.6470227,45.2311778 63.7366288,44.3592914 63.8210852,43.5063926 C64.1712701,39.9793327 64.5219699,36.4522728 64.8721548,32.9257261 C64.9936895,31.7059063 65.1121344,30.4481115 64.8057227,29.2780698 C64.2675709,27.2243387 62.5449703,25.8721195 60.8177349,24.9622581 C56.4090103,22.640649 51.0589063,22.227029 46.5791147,24.545559 C45.3869412,25.16291 44.2390558,25.9916895 43.4743138,27.1899559 C42.2960447,29.036877 42.2012888,31.4421337 42.1508209,33.6934376 L42.010232,39.9275019 C41.9566743,42.3173634 42.0555501,45.083383 43.7524018,46.5033415 C44.6536129,47.2571973 45.8859547,47.4932584 46.6362773,48.4313444 C47.5755967,49.6054915 47.3896897,51.2533003 47.3314972,52.6532449 C47.2980237,53.4532866 47.1836986,54.2040633 47.475176,54.8871008" id="Fill-260" fill="#FDAE70"></path>
                <path d="M61.0361918,28.8873752 C61.1320904,29.0864156 61.2090091,29.2904949 61.2649499,29.5016288 C61.5576404,30.6061767 61.2209964,31.8049537 61.5051958,32.9120211 C61.9552199,34.6676072 63.8642012,35.8416932 64.0350205,37.6466614 C64.1753721,39.1230872 63.088022,40.4372572 62.8992216,41.9081401 C62.6929398,43.5145719 63.6074727,45.1164686 63.3347611,46.6972016 C63.0980114,48.0703279 62.0890784,49.9508811 61.1915276,51 C61.4692339,50.6749848 63.7558158,50.964727 64.3771587,50.6407196 C65.3301509,50.1453863 65.4590146,49.7987034 65.7991549,48.8589307 C66.1367979,47.9267165 65.9954473,46.9728346 66.4849297,46.028023 C67.0857943,44.8685501 68.207608,44.0673497 68.6696194,42.8181827 C69.2999528,41.1134905 68.5127852,39.2087501 68.7145718,37.4007584 C69.0192496,34.6640799 71.5555674,32.2493932 70.8887726,29.5787255 C70.4976862,28.0121017 69.0946699,26.926702 68.3649416,25.4880688 C67.8105279,24.3961184 67.66668,23.1459436 67.312055,21.9723615 C66.95743,20.7992833 66.2891368,19.6020179 65.1503411,19.1711838 C64.5180098,18.9318315 63.8172508,18.9600498 63.1634422,18.7872123 C62.0341365,18.4889038 61.1395825,17.6227004 60.0627213,17.1656635 C58.5228497,16.5116018 55.6234159,17.9194972 54.6054924,19.2019216 C53.5950609,20.4752758 53.975159,21.6473462 54.82526,22.9000406 C56.2412625,24.9856809 59.9113813,26.5507929 61.0361918,28.8873752" id="Fill-261" fill="#554326"></path>
                <path d="M38.938647,18.9697884 C37.9253063,19.5969557 36.7000482,20.0149005 35.7619203,20.7651989 C33.9319103,22.2277552 33.4206661,24.7384268 33.1894374,27.0483848 C32.9831103,29.1050733 31.9336877,30.8704519 32.0033104,33.0342544 C32.0495561,34.4873006 32.565374,35.9898995 33.6945832,36.926396 C35.1007587,38.0921365 37.4176195,38.4314976 37.9563062,40.1623394 C38.5417468,42.0428405 36.4489999,44.2096462 37.5004553,45.8819256 C38.0808139,46.8039067 39.3335145,47.0221389 40.2121836,47.6768356 C41.1924917,48.4071127 41.6351295,49.6184016 42.1870292,50.7000526 C42.7394372,51.7812031 43.6064178,52.8868796 44.8301512,53 C45.0141178,51.1675501 45.1757238,49.716506 44.5023655,47.9806589 C44.1105472,46.9700836 42.877158,45.0685601 44.003318,44.0835119 C44.7295286,43.2501251 46.3120477,43.0749387 46.4329981,41.9832771 C46.4894078,41.4707317 46.1570483,41.0072385 45.9014262,40.5572596 C44.9109542,38.8159067 44.9602491,36.5930413 45.8495903,34.7996329 C46.7389315,33.0062246 48.4002208,31.6412721 50.2830832,30.9029865 C52.4896657,30.0375656 52.1837323,29.5 52.9505985,27.5339015 C53.6559731,25.724476 54.7541825,25.3660947 56.494242,24.8120051 C58.0569415,24.3144757 58.5727594,23.9721113 59.2354456,22.6121642 C59.7202636,21.6171054 60.3148517,20.4268388 59.8041158,19.241077 C59.398068,18.2995752 58.59512,17.5893194 57.8160571,16.9120988 C56.189325,15.4970931 54.3547412,14 52.1842405,14 C50.9788021,14 49.8104619,14.4745049 48.6050234,14.4564857 C47.801059,14.4439724 47.0174223,14.2132269 46.2180317,14.1296379 C44.8550528,13.9874867 43.3843366,14.2943132 42.2190455,15.0170823 C41.0440988,15.7458578 41.0136071,16.59376 40.3092488,17.6969339 C39.9646927,18.2370086 39.4819074,18.6334304 38.938647,18.9697884" id="Fill-262" fill="#554326"></path>
                <path d="M43.7497781,12.2244237 C44.0582074,10.964257 44.0453132,9.29351354 42.8183008,8.77468009 C42.146255,8.49081832 41.3540352,8.69535843 40.6479486,8.50428803 C39.1424214,8.09720332 38.7555954,6.27130866 38.0515719,4.92184279 C37.9458394,4.71979707 37.8179289,4.51376032 37.6116217,4.40700036 C37.3166023,4.2543436 36.9581435,4.34663609 36.6239257,4.36260019 C35.0900313,4.43593531 34.043022,2.90387997 32.6504481,2.27828656 C30.9272668,1.50302964 28.6176572,2.41897024 27.9523163,4.14109822 C27.6789592,4.84900656 27.65936,5.6282545 27.3988971,6.34065275 C26.3451828,9.22616497 21.7945607,10.1675484 21.4541537,13.2107061 C21.2246369,15.2665837 23.1628935,17.3873155 22.209754,19.2386529 C21.6001161,20.4224912 19.9156174,21.140876 20.003298,22.4604091 C20.0600325,23.3095 20.9430275,23.9465677 21.8213806,23.9959566 C22.6997337,24.0453456 23.53992,23.6357665 24.2423962,23.1239173 C25.3574869,22.3112445 26.2327454,21.2291774 27.3019327,20.3611291 C28.37112,19.492582 29.7600836,18.8245839 31.1299637,19.0879917 C32.4565193,19.3429185 33.5922407,20.435462 34.9383955,20.3122391 C36.0153193,20.2144589 36.8730417,19.3513994 37.9375871,19.1658167 C38.9340511,18.9917081 39.9227786,19.4342132 40.9259476,19.5629238 C41.9291166,19.6921333 43.2040954,19.2715789 43.3041544,18.2972695 C43.3278798,18.0613001 43.2778502,17.8123598 43.37172,17.5928533 C43.6332145,16.9787341 44.7416002,17.0924784 45,16.4768625 C44.5327141,15.6557088 43.769893,15.884694 43.4692002,14.8345551 C43.236073,14.0218823 43.556365,13.0156447 43.7497781,12.2244237" id="Fill-263" fill="#554326"></path>
                <path d="M54.5485516,122 C59.5673086,122 63.6601712,121.500693 63.9645398,120.870128 L63.9819323,120.692666 C63.9819323,120.709467 63.9819323,120.725743 63.9814207,120.742545 C63.9896054,120.698442 63.9947209,120.654339 63.9947209,120.609186 L63.9947209,98.7226352 C63.9947209,98.516297 64.0243904,98.3041835 63.9430549,98.1351226 C63.90827,98.062668 63.8525117,97.9986139 63.7655492,97.9466356 C63.6668213,97.8873068 63.559397,97.844254 63.4524844,97.8054015 C62.3848923,97.4147765 61.180718,97.3302461 60.06146,97.2262895 C58.2296213,97.0577537 56.3875518,97 54.5485516,97 C52.7090398,97 50.8659472,97.0582787 49.033597,97.2268145 C47.914339,97.3302461 46.7096531,97.4147765 45.6425726,97.8059266 C45.3315539,97.9203839 44.9801233,98.077369 45.0026312,98.453818 C45.0082582,98.5409736 45.0026312,98.6302293 45.0026312,98.7173849 L45.0026312,120.236412 C45.0026312,120.539882 44.9617077,120.75777 45.2026449,120.971459 C45.2972805,121.05494 45.4180048,121.108493 45.5325907,121.155746 C45.938245,121.322182 46.3786842,121.407762 46.807358,121.485992 C48.2862314,121.755334 49.797332,121.856666 51.2961556,121.926495 C52.3796055,121.977424 53.4640785,122 54.5485516,122" id="Fill-264" fill="#E7E7E7"></path>
                <polygon id="Fill-265" fill="#E7E7E7" points="52.2031949 251.700091 51 257.384887 56.7365887 258 59.6905342 252.623811 60 248.669741 52.0002832 247"></polygon>
                <path d="M64,98 C64,98.5526079 59.7465874,99 54.5,99 C49.2534126,99 45,98.5526079 45,98 C45,97.4473921 49.2534126,97 54.5,97 C59.7465874,97 64,97.4473921 64,98" id="Fill-266" fill="#BBA087"></path>
                <path d="M54.8204902,97 C50.6661897,97 47.2630537,97.5074627 47,98.2703151 C47.9971685,98.6495301 51.1747602,99 55.0577257,99 C58.4077637,99 61.3193789,98.8463239 62.6409804,98.4250967 C62.6570559,98.3875069 63,98.3775567 63,98.3388612 C63,97.5317855 59.1467499,97 54.8204902,97" id="Fill-267" fill="#68625B"></path>
                <path d="M47.6643186,103.488076 C45.7294341,101.589452 43.2152664,100.336971 40.7203097,101.374416 C38.7263146,102.203028 37.316036,104.329611 37.0426499,106.606098 C36.4638593,111.412877 41.9039979,115.369333 45.5915095,113.54773 C46.6604249,113.020478 45.902825,111.236093 44.8260282,111.779886 C42.0980775,113.156943 38.4425841,109.599544 39.3386012,106.517189 C40.3922463,102.892591 43.7945496,102.770083 46.2500993,105.113769 C47.2323192,106.050416 48.6549125,104.46039 47.6643186,103.488076" id="Fill-268" fill="#E7E7E7"></path>
                <path d="M53.3377431,82.2793166 C54.2223639,82.3265054 54.2191393,81.054893 53.3377431,81.0077043 C51.2094939,80.8934579 49.2704224,82.0552943 49.0232015,84.1286184 C48.904428,85.1220656 49.2505372,85.9943121 49.8583781,86.8019846 C50.9740966,88.2842078 53.8359469,89.9834991 51.0735224,91.7866056 C50.3560444,92.2550159 51.0423511,93.3577422 51.7678906,92.8843647 C53.0690248,92.0354641 53.839709,90.7151729 53.4780141,89.2125841 C53.2968979,88.4585577 52.820729,87.9111684 52.2741559,87.3498707 C51.7592916,86.8203634 50.9289519,86.3315874 50.6790439,85.6356777 C50.0185342,83.7953169 51.2051944,82.1650702 53.3377431,82.2793166" id="Fill-269" fill="#F2F2F2"></path>
                <path d="M60.3377431,84.2793714 C61.2223639,84.3265599 61.2191393,83.0549541 60.3377431,83.0077656 C58.2094939,82.893023 56.2704224,84.0553502 56.0232015,86.1286638 C55.904428,87.1216091 56.2505372,87.9943479 56.8583781,88.8020163 C57.9740966,90.2842319 60.8359469,91.9835145 58.072985,93.7866118 C57.355507,94.2550197 58.0423511,95.3577404 58.7678906,94.8843653 C60.0690248,94.035469 60.839709,92.7151845 60.4780141,91.2126034 C60.2968979,90.4585809 59.820729,89.9111944 59.2741559,89.3498996 C58.7592916,88.820395 57.9284145,88.3316215 57.6785064,87.6357154 C57.0179968,85.795364 58.204657,84.1651256 60.3377431,84.2793714" id="Fill-270" fill="#F2F2F2"></path>
                <path d="M42.9353589,107.454345 C42.9106341,107.320231 42.8760193,107.189225 42.8290422,107.062879 C42.3904237,105.88175 41.1754456,105.834111 40.52271,104.96108 C40.2314516,104.571685 40.308593,103.024463 39.5347059,103.319098 C39.2498758,103.430428 38.2658276,103.719367 37.2916693,104.07355 C36.457948,104.045071 35.6182928,104.056462 34.7964395,103.944097 C32.7160923,103.658783 28.8244041,100.408995 27.0209751,102.989252 C26.672355,103.488423 26.3168119,104.001574 26.1437381,104.586184 C26.0023121,105.064125 25.9914331,105.564331 26.0037956,106.053663 C26.0126965,106.434773 25.941489,107.048898 26.1946712,107.286056 C26.4602159,107.535123 27.3829466,107.543408 27.7464016,107.622116 C28.7853389,107.846846 29.8237817,108.072094 30.8622246,108.296825 C31.8813821,108.51793 33.0548225,108.880917 33.350037,109.937771 C33.414816,110.169233 33.4301454,110.419854 33.5240998,110.637335 C33.6304165,110.88226 33.8272262,111.062976 34.0235413,111.23023 C34.7435284,111.842283 35.5322504,112.404109 36.3817956,112.811109 C37.9003946,113.5376 40.2660663,111.987788 41.6412613,111.21832 C41.9839475,111.026729 42.3335566,110.816498 42.5748709,110.490794 C42.9679957,109.96159 42.9927205,109.252188 42.9986545,108.601816 C43.002116,108.217082 43.004094,107.824062 42.9353589,107.454345" id="Fill-271" fill="#FDAE70"></path>
                <path d="M5.98115641,86.9871647 C5.29327758,88.7753009 4.90153291,90.6646139 5.02143366,92.7288256 C5.14546891,94.8754024 6.35584623,96.8526732 7.94298062,98.3306692 C9.53011501,99.8086651 11.4774684,100.850431 13.4279228,101.82 C19.245176,104.712439 25.312567,107.117297 31.5427543,109 C32.5810327,106.916976 33.6187943,104.834461 34.6565559,102.750929 C34.9082441,102.247079 35.1651004,101.675099 34.980598,101.143285 C34.8053982,100.640451 34.2916855,100.342513 33.8172507,100.0883 C31.5572251,98.8792614 29.2971994,97.6697147 27.0371738,96.4606764 C24.916171,95.3253599 22.665448,94.0614116 21.6111484,91.9239864 C19.5929915,87.8331865 24.2153719,86.0653874 26.5244948,83.7434035 C29.6651707,80.5865831 32.9159279,77.5050099 35.9594428,74.2576896 C38.8427456,71.3586415 41.8061545,68.334012 43.0666627,64.5594534 C45.5747588,57.0484682 42.9875902,51.8025233 35.7925121,54.9115515 C31.2321494,56.8817043 27.8191127,60.3562913 23.0168813,64.6738494 C16.4962448,70.5370242 9.13578628,78.7837026 5.98115641,86.9871647" id="Fill-272" fill="#FD5959"></path>
                <polygon id="Fill-273" fill="#433226" points="349 255.100351 349 258.999468 338.999645 264 334 258.999468 338.999645 254 339.644555 254 339.805782 255.100351"></polygon>
                <polygon id="Fill-274" fill="#433226" points="372.309886 254 373 254 378 258.999468 373 264 363 258.999468 363 255.100351 372.193892 255.100351"></polygon>
                <path d="M371.896656,112.374002 C370.619858,106.005052 369.622262,100.127586 369.530398,96.9395488 C369.25584,87.3515255 368.031682,55.6868813 368.031682,55.6868813 L362.095652,43.5747835 L361,43.585468 C361.078961,43.5763099 361.157406,43.566643 361.236368,43.5574849 C360.978324,43.5875031 361.360229,41.2165724 361.452608,41.0074624 C366.613992,40.8339673 373.264802,43.7040145 376.520278,47.7025433 C378.928855,50.6616276 380.360479,54.2785689 381.755978,57.832421 C385.685463,67.8381555 387.466994,77.1086979 389.427608,87.62983 C390.677054,94.3386481 391.83154,101.01643 392.740885,107.676405 C393.747254,115.052238 394.456874,122.406702 394.662276,129.71792 C394.684984,130.526377 394.847551,132.786901 394.938383,135.487015 C395.129335,141.142651 395.007022,148.708769 392.631991,148.991144 C392.186608,149.044566 391.75774,148.84665 391.367062,148.656365 C388.311312,147.167664 385.903767,145.224621 383.209278,143.52681 L383.064774,114.022461 L371.896656,112.374002 Z" id="Fill-275" fill="#178FE3"></path>
                <path d="M318.065676,143.241249 C318.66657,136.970045 319.290438,130.700366 320.053171,124.447455 C321.57302,111.974665 323.6422,99.5318563 327.143417,87.4579718 C328.480497,82.8448942 330.02383,78.2968611 331.566143,73.7503525 C333.444384,68.2134399 335.323136,62.6765272 337.200867,57.1401227 C339.535523,50.2586183 343.475286,45.4112789 350.374084,43.0046326 C351.605994,42.5742209 352.902741,42.2429005 354.23931,42 C354.272494,42.1422848 354.302105,42.2866023 354.320484,42.438034 C354.400637,43.0991503 354.586981,43.8319172 355,44.3111122 L350.472106,44.3553222 C350.472106,44.3553222 337.697103,89.5460018 337.227925,97.3345719 C337.04975,100.295113 336.455493,106.75891 335.795887,113.567239 L328.858289,114.601345 L328.56065,140.644551 C328.172647,140.757362 327.786175,140.866617 327.402767,140.969773 C325.20187,141.560764 323.410929,143.184843 321.582209,144.458801 C318.881503,146.339501 317.697073,147.083956 318.065676,143.241249" id="Fill-276" fill="#178FE3"></path>
                <path d="M336.351425,113 C335.289587,123.744769 334.057606,135.352463 334.057606,135.352463 C334.057606,135.352463 339.755843,135.486234 348,136.097326 C347.389975,136.082631 346.77995,136.066923 346.171481,136.061349 C340.437452,136.011692 334.490226,138.431228 329,140 L329.302419,114.031153 L336.351425,113 Z" id="Fill-277" fill="#178FE3"></path>
                <path d="M373.563184,139.953242 C377.366013,140.156263 377.839234,139.433791 377.839234,139.433791 C377.839234,139.433791 374.408759,125.297224 372,113 L382.858987,114.640372 L383,144 C382.07865,143.406124 381.123175,142.841614 380.093431,142.338364 C378.028923,141.330345 375.824909,140.5618 373.563184,139.953242" id="Fill-278" fill="#178FE3"></path>
                <path d="M327.419048,139.990092 C333.004944,138.400937 339.055805,135.949962 344.889752,136 C345.508824,136.005911 346.129479,136.022336 346.750134,136.036708 C347.26893,136.074692 347.797754,136.115242 348.336605,136.157332 C352.245782,136.463255 356.637868,136.871323 361.223644,137.412847 C361.449001,137.439539 361.672775,137.465203 361.898659,137.492408 C367.763745,138.734064 371.572119,139.219639 374.044712,139.346936 C376.423363,139.963914 378.74132,140.743093 380.912029,141.76506 C381.995537,142.275274 382.99988,142.847596 383.968862,143.449688 L384,149.647704 L372.818179,254.927731 L363.649266,254.927731 L363.649266,256 L363.597017,256 L353.515592,185.382663 L353.473899,184.98486 L347.950806,256 L347.898557,256 L347.898557,254.927731 L338.685839,254.927731 L327,175.848241 L327.419048,139.990092 Z" id="Fill-279" fill="#554326"></path>
                <path d="M334,135.931442 C334,135.931442 339.548298,136.06638 347.575527,136.679966 C348.07202,136.717647 348.578614,136.757874 349.093796,136.799628 C352.834919,137.103111 357.038191,137.507925 361.426827,138.044621 C361.642496,138.071609 361.856144,138.097069 362.072823,138.124057 C367.685772,139.355811 371.330425,139.837514 373.696723,139.963796 C377.524215,140.167985 378,139.441866 378,139.441866 C378,139.441866 374.547277,125.22348 372.122895,112.855525 C370.873833,106.481871 369.89701,100.599086 369.807611,97.4084401 C369.538403,87.813079 368.340355,56.1220106 368.340355,56.1220106 L362.53093,44 L361.458647,44.0106932 C359.978259,44.1904407 358.49686,44.3701883 357.015967,44.5494266 C356.633622,44.5957638 356.236125,44.6410826 355.870447,44.517347 C355.686598,44.4557338 355.526993,44.3584767 355.388601,44.2352503 C355.332537,44.1853487 355.28203,44.1293368 355.232532,44.0717972 L350.752982,44.1155884 C350.752982,44.1155884 338.114378,89.3987272 337.650715,97.2032326 C337.473937,100.17034 336.886529,106.646852 336.233462,113.469111 C335.199564,124.266693 334,135.931442 334,135.931442" id="Fill-280" fill="#FFFFFF"></path>
                <path d="M347.578839,13.5851698 C346.319235,16.1118688 345.795958,18.9740481 345.816744,21.8036615 C345.82246,22.5562952 345.815705,23.4257526 345.238386,23.900284 C344.620535,24.4078982 345.237866,25.4200252 344.717188,24.810578 C344.19599,24.2011307 342.425061,22.0827976 342.309701,21.2857088 C342.039489,19.4185982 341.945434,17.5251248 342.030136,15.639922 C342.103924,14.0002556 342.346596,12.2783992 343.338586,10.9793823 C343.926817,10.2096902 344.734856,9.64779954 345.531982,9.10245023 C346.687139,8.31104758 347.878671,7.51189116 349.235448,7.1826139 C351.573303,6.61503708 353.065186,7.39610135 351.066655,9.16964967 C349.63505,10.4407529 348.441959,11.8540089 347.578839,13.5851698" id="Fill-281" fill="#002D51"></path>
                <path d="M363.003494,44.5761649 C359.871694,45.0506049 356.740398,45.52556 353.608095,46 C352.989287,43.1976618 352.566343,40.3396889 352.344298,37.4626559 C349.579553,37.1200907 346.310296,36.3710834 345.225244,33.4337796 C344.883867,32.5085958 344.822943,31.4860515 344.766047,30.4851428 L344.064162,18.0744933 C343.983601,16.6434463 343.907068,15.1686128 344.312389,13.8153513 C345.023842,11.4400606 347.055483,9.93843997 349.071517,8.95401564 C354.217839,6.44169879 360.349016,6.20216069 365.357378,9.11525311 C366.690155,9.89053235 367.963016,10.9110162 368.7797,12.3456691 C370.038462,14.5576619 370.033427,17.3718482 369.985091,20.005222 C369.940279,22.4351171 369.89597,24.8655274 369.851662,27.2954225 C369.800304,30.0905488 369.557112,33.317874 367.551149,34.8998558 C366.486236,35.7400421 365.06736,35.9600051 364.166086,37.0211846 C362.576521,38.8937029 363.499446,42.0236675 363.003494,44.5761649" id="Fill-282" fill="#FDAE70"></path>
                <path d="M354.746337,32.4083975 C355.980557,33.1804781 357.230438,33.1240349 358.533365,32.637795 C359.202259,32.3876844 359.549336,33.5600456 358.881453,33.8096384 C357.308745,34.3963368 355.726943,34.4268886 354.244667,33.4999776 C353.627305,33.1136784 354.125439,32.0200269 354.746337,32.4083975 M344.45427,32.2426927 C345.074664,34.8059383 346.39881,37.2143534 348.492386,38.5601868 C350.865341,40.0857063 353.747544,40.0489405 356.471618,39.9697129 C357.961472,39.9267332 359.451326,39.8832357 360.941685,39.8397382 C364.711536,39.7304767 368.432382,39.021571 370.165746,34.7847073 C370.965488,32.8309446 371.139279,30.5996264 370.901832,28.4584102 C370.836155,27.8696405 370.734103,27.2663716 370.441083,26.7713286 C370.148064,26.2768034 369.620123,25.9138064 369.102286,26.0178898 C368.439455,26.1514892 368.075706,26.9214985 367.674572,27.5268387 C366.799555,28.8472986 365.178347,29.6447527 363.807216,29.0373412 C363.400525,28.8576551 363.042839,28.5723322 362.686163,28.2839024 C362.540158,28.1653199 362.394659,28.0472553 362.246128,27.9348867 C360.771936,26.8231113 359.011796,26.371048 357.267823,26.2281277 C355.75473,26.1043669 353.514139,25.6466075 352.464319,27.0405988 C351.85403,27.8515165 351.243235,28.6624342 350.632441,29.4733519 C350.381353,29.8078684 350.123698,30.1475631 349.788746,30.3712646 C349.44369,30.6011799 349.036998,30.6923175 348.635359,30.7213159 C347.624946,30.7943295 346.466002,30.3686754 346.06992,29.3180037 C345.89714,28.8602443 345.894109,28.3501843 345.851671,27.856177 C345.809739,27.3626875 345.711729,26.8417531 345.402037,26.4854879 C344.218844,25.1246375 344.007162,27.4025602 344.000595,28.1761943 C343.98948,29.5437764 344.133969,30.9196438 344.45427,32.2426927" id="Fill-283" fill="#002D51"></path>
                <path d="M342.533668,6.43540625 C342.221664,5.4684006 341.977202,4.47821502 341.802802,3.47593558 C342.737806,3.75560632 343.742872,3.78987228 344.69451,3.57571 C344.667291,2.99369253 344.640577,2.41167506 344.612855,1.82915367 C344.592693,1.34489498 351.017758,0.6686461 351.53894,0.597594616 C356.419107,-0.0680721231 360.880411,-0.691410319 365.447565,1.75054352 C369.348371,3.83623211 371.948237,7.12022162 372.753701,11.5294449 C373.523378,15.7421428 372.438673,21.3531944 370.20424,25 C370.161396,23.870231 370.665946,21.1732981 370.349405,20.1135728 C370.134178,19.0462888 369.716324,18.0283881 369.163387,17.097664 C368.060032,15.2387355 366.41886,13.7113806 364.558933,12.6582061 C361.593635,10.9786699 358.205443,10.1855137 354.846485,9.88770211 C351.768281,9.61508614 348.024233,9.41049818 345.046838,10.3921173 C343.615349,10.8632743 343.393569,11.2462468 342.439411,9.80304503 C342.27106,9.54856985 340.886952,6.54677064 341.007419,6.53870806 C341.516,6.50444209 342.024582,6.46967222 342.533668,6.43540625" id="Fill-284" fill="#002D51"></path>
                <path d="M364.732807,133 L317.267193,133 C316.015017,133 315,131.986638 315,130.736505 L315,45.2640014 C315,44.013362 316.015017,43 317.267193,43 L364.732807,43 C365.984983,43 367,44.013362 367,45.2640014 L367,130.736505 C367,131.986638 365.984983,133 364.732807,133" id="Fill-285" fill="#414040"></path>
                <polygon id="Fill-286" fill="#FFFFFF" points="317 121 365 121 365 48 317 48"></polygon>
                <path d="M345.646073,130 L337.354406,130 C336.606322,130 336,129.328025 336,128.499469 L336,127.500531 C336,126.671444 336.606322,126 337.354406,126 L345.646073,126 C346.394157,126 347,126.671444 347,127.500531 L347,128.499469 C347,129.328025 346.394157,130 345.646073,130" id="Fill-287" fill="#000000"></path>
                <polygon id="Fill-292" fill="#FDAE70" points="370.79099 106 368.645643 109.998453 364.871764 111.009666 364.681683 111.951285 365.792887 112.254965 362.903142 114.02854 362 116.700503 364.102193 119.819022 367.708081 121 370.444221 118.544199 371.832839 114.307441 375 108.969316"></polygon>
                <path d="M368,107.076288 C369.383841,102.464711 370.767682,97.8531345 372.151523,93.2420654 C373.044685,90.2648236 373.997294,87.299767 374.832471,84.3047552 C375.883508,80.5395396 373.397467,79.7175487 372.323528,76.0437217 C369.906679,67.7771034 367.508347,58.7372348 370.563029,50.7026423 C370.868546,49.9004523 371.249103,49.0870926 371.908863,48.5646537 C373.157244,47.57664 375.041022,47.9802735 376.232879,49.0413982 C377.425224,50.1025229 378.085959,51.6566391 378.696506,53.1609991 C382.007004,61.317951 386.457709,70.5954303 387.917564,79.3585941 C388.573914,83.2984638 385.144522,88.3309365 383.526305,91.9621154 C380.252352,99.3082462 376.978399,106.653869 373.704446,114 L368,107.076288 Z" id="Fill-293" fill="#FFFFFF"></path>
                <path d="M433,252 L267,252 L267,145.311624 C267,142.930426 268.927347,141 271.304747,141 L428.694744,141 C431.072653,141 433,142.930426 433,145.311624 L433,252 Z" id="Fill-1066" fill="#002D51"></path>
                <polygon id="Fill-1067" fill="#FFFFFF" points="274 245 427 245 427 148 274 148"></polygon>
                <path d="M444.376811,267 L256.589051,266.427104 C252.257027,266.413973 248.244479,263.97871 246,260 L455,260.63795 L455,260.638498 C452.733611,264.602435 448.708325,267.013078 444.376811,267" id="Fill-1068" fill="#DEDEDE"></path>
                <path d="M453.328301,262 L247.671699,262 C246.748173,262 246,261.229419 246,260.279403 L246,252.720597 C246,251.770058 246.748173,251 247.671699,251 L453.328301,251 C454.251319,251 455,251.770058 455,252.720597 L455,260.279403 C455,261.229419 454.251319,262 453.328301,262" id="Fill-1069" fill="#F1F1F1"></path>
                <polygon id="Fill-1071" fill="#F5A623" points="284 234 326 234 326 209 284 209"></polygon>
                <polygon id="Fill-1072" fill="#D86600" points="329 234 371 234 371 209 329 209"></polygon>
                <polygon id="Fill-1073" fill="#0280DA" points="373 234 415 234 415 209 373 209"></polygon>
                <polygon id="Fill-1074" fill="#CFD2D4" points="284 238 307 238 307 236 284 236"></polygon>
                <polygon id="Fill-1075" fill="#CFD2D4" points="329 238 352 238 352 236 329 236"></polygon>
                <polygon id="Fill-1076" fill="#CFD2D4" points="373 238 396 238 396 236 373 236"></polygon>
                <path d="M365.101395,258 L335.897584,258 C334.849779,258 334,257.104598 334,255.999462 C334,254.895402 334.849779,254 335.897584,254 L365.101395,254 C366.150221,254 367,254.895402 367,255.999462 C367,257.104598 366.150221,258 365.101395,258" id="Fill-1078" fill="#C1C1C1"></path>
                <path d="M128.416217,158.972806 C125.221528,149.971541 112.42772,147.242539 109.84558,157.922951 C109.069985,161.132448 108.65309,164.522776 109.368484,167.752423 C110.083878,170.982587 112.088585,174.035535 115.029927,175.267255 C115.046984,175.274488 115.064041,175.279138 115.080597,175.285855 C114.996816,176.133695 114.912534,176.981535 114.829256,177.829892 C114.810693,178.012274 114.79765,178.212738 114.899992,178.36102 C115.016883,178.530484 115.238625,178.568201 115.436287,178.592484 C116.403523,178.708732 117.370258,178.826014 118.337494,178.942263 C118.816597,179.000646 119.315767,179.056445 119.769285,178.886464 C120.762107,178.514468 121.136359,177.238832 121.142379,176.134212 C121.143382,175.869681 121.131844,175.603084 121.1188,175.335971 C126.740109,173.096763 130.504203,164.857056 128.416217,158.972806" id="Fill-1079" fill="#FDAE70"></path>
                <path d="M110.100404,161.162968 C108.877629,163.650161 109.226481,166.518005 109.836075,169.132254 C110.431326,171.688421 110.382149,174.246662 111.212529,176.754598 C110.9774,177.181923 110.345778,176.973447 109.939553,176.715185 C107.557525,175.198806 105.195475,173.649237 102.854941,172.065959 C102.619299,171.907269 102.376998,171.74028 102.225368,171.496021 C102.032757,171.186418 102.013803,170.799545 102.006631,170.432378 C101.860124,163.185498 104.154042,157.666584 107.612849,151.611441 C109.292563,148.671513 114.178026,145.135716 117.413485,148.149285 C118.149609,148.83539 118.489752,149.854952 118.755105,150.839768 C118.913395,151.427858 119.056828,152.037728 118.977428,152.641376 C118.660336,155.049742 116.46887,155.12442 114.831162,156.040263 C112.811817,157.169768 111.132616,159.063686 110.100404,161.162968" id="Fill-1080" fill="#002D51"></path>
                <path d="M127.016344,163.403627 C127.208108,165.466932 126.945587,167.855289 126.512324,169.863902 C126.362092,170.559926 125.220739,172.251743 125.22279,172.713007 C125.229456,174.049331 128.226404,176.908239 129.039092,178 C133.055874,175.23706 137.072143,172.473604 141.088925,169.710664 C141.396567,169.498606 141.718053,169.27107 141.876489,168.92796 C142.020568,168.616839 142.007749,168.25567 141.988265,167.911528 C141.600636,161.143743 139.313316,155.242248 136.192799,149.379449 C133.074332,143.519745 126.887647,139.100073 120.180534,140.156749 C114.761417,141.011171 111.323515,145.414849 113.839516,150.879846 C115.739206,155.004908 121.097821,155.414577 124.238848,158.060395 C126.211347,159.721255 126.895338,161.489949 127.016344,163.403627" id="Fill-1081" fill="#002D51"></path>
                <path d="M145.24154,234.961182 C140.427581,232.351864 135.698879,235.558532 132.265986,238.585542 C125.463372,244.577159 118.069607,249.898456 110.810918,255.367707 C108.412412,254.039647 105.785356,252.598358 104.587644,251.983394 C97.2426703,248.213597 89.7405356,244.676801 82.8203081,240.260336 C79.441343,238.100415 74.8169013,236.090964 70.291584,239.925679 C66.5803206,243.070951 65.2331515,248.71986 66.4180234,252.151981 C67.6028954,255.584101 70.616692,257.305698 73.6135397,258.735412 C81.1670343,262.33763 90.016338,266.876383 98.4789021,267.783228 C102.165513,268.178274 106.31693,267.930678 110.038466,267.837578 C115.892462,267.691637 122.377672,267.421396 127.443295,264.40898 C132.596229,261.344227 137.546806,257.96243 142.402367,254.465894 C145.462388,252.262694 148.531139,249.765097 149.649244,246.053676 C150.767348,242.342255 149.189573,237.100973 145.24154,234.961182" id="Fill-1082" fill="#453933"></path>
                <path d="M137.945028,254.247699 C137.392027,249.453522 134.995014,245.648056 130.565938,243.564449 C126.973714,241.87409 122.936452,241.476777 119.000566,240.970228 C110.235173,239.842306 101.867677,238.715909 93.0171286,239.064447 C85.9396298,239.343379 81.5774616,245.396052 78.265032,251.365401 C76.1777199,255.127681 76.7575851,256.892219 79.3852263,260.043287 C81.8085967,262.94794 84.7494868,265.419715 88.0345451,267.290948 C94.538768,270.995816 104.531306,270.080269 111.694467,269.280054 C118.455675,268.524549 125.073438,266.500386 131.103733,263.343221 C134.984876,261.311437 138.483329,258.915873 137.945028,254.247699" id="Fill-1083" fill="#453933"></path>
                <path d="M115.470829,176.073582 C118.812828,175.621618 122.20564,175.007319 125.005459,176.244679 C127.376921,177.292905 127.335762,180.329874 127.866255,182.625252 C129.620334,190.219995 130.938434,197.90647 131.970454,205.634689 C132.463853,209.329247 133.31701,213.285605 133.295668,217.017269 C133.278392,220.011979 132.539057,222.922687 132.766701,225.974602 C132.940991,228.319454 133.923722,230.850347 136.040609,231.808902 C137.106167,232.291271 138.329754,232.313947 139.396836,232.791678 C140.464426,233.268379 141.378559,234.54336 140.841461,235.593647 C140.58587,236.093023 140.074687,236.393989 139.590435,236.668156 C136.950169,238.161646 134.309904,239.654621 131.669639,241.147596 C129.652854,242.28807 127.624891,243.433697 125.452109,244.225278 C122.373324,245.346684 119.081122,245.72856 115.81382,245.89708 C107.375235,246.332037 98.8690686,245.385851 90.7236775,243.105933 C86.3384794,241.878365 82.1021647,239.701518 83.1656895,234.669106 C84.2612268,229.490333 86.378622,224.323414 88.661669,219.581145 C91.425919,213.840123 92.2455394,206.921523 94.2033805,200.864075 C96.1881526,194.724171 98.2867469,188.62395 100.401093,182.528881 C100.409223,182.505691 100.417354,182.483015 100.425484,182.46034 C101.198356,180.231957 101.514923,178.028828 103.217173,176.220457 C105.546968,173.747798 106.668929,175.714382 109.313767,176.217365 C111.234514,176.58275 113.342255,176.361148 115.470829,176.073582" id="Fill-1084" fill="#FFFFFF"></path>
                <path d="M2.28864419,269 C1.02439203,269 0,267.977097 0,266.714682 L0,146.284807 C0,145.022903 1.02439203,144 2.28864419,144 L95.7118672,144 C96.975608,144 98,145.022903 98,146.284807 L98,266.714682 C98,267.977097 96.975608,269 95.7118672,269 L2.28864419,269 Z" id="Fill-1085" fill="#002D51"></path>
                <polygon id="Fill-1086" fill="#F2F2F2" points="4 259 93 259 93 149 4 149"></polygon>
                <polygon id="Fill-1093" fill="#FFFFFF" points="93 149 93 259 4 259 4 149.235222"></polygon>
                <path d="M52,262.999747 C52,264.656595 50.6571019,266 49.0002532,266 C47.3434045,266 46,264.656595 46,262.999747 C46,261.343405 47.3434045,260 49.0002532,260 C50.6571019,260 52,261.343405 52,262.999747" id="Fill-1087" fill="#000000"></path>
                <polygon id="Fill-1088" fill="#F5A623" points="6 250 48 250 48 225 6 225"></polygon>
                <polygon id="Fill-1088-Copy" fill="#F5A623" points="321 115 361 115 361 94 321 94"></polygon>
                <polygon id="Fill-1089" fill="#D86600" points="50 250 92 250 92 225 50 225"></polygon>
                <polygon id="Fill-1090" fill="#CFD2D4" points="6 254 29 254 29 252 6 252"></polygon>
                <polygon id="Fill-1090-Copy" fill="#CFD2D4" points="321 119 344 119 344 117 321 117"></polygon>
                <polygon id="Fill-1091" fill="#CFD2D4" points="50 254 73 254 73 252 50 252"></polygon>
                <path d="M71.0129047,223.183545 C71.7762364,222.149874 72.5395682,221.116202 73.3028999,220.082531 C73.5390968,219.762657 74.0261896,218.742082 74.5284882,219.060949 C74.7717812,219.2161 75.6369919,219.667954 76.4758458,220.174211 C77.28074,220.318784 78.0800588,220.50013 78.8950903,220.569142 C80.9575051,220.743436 85.5222896,218.704805 86.5755454,221.318705 C86.7793033,221.824459 86.9861023,222.343309 86.9992807,222.887851 C87.0104316,223.333156 86.8903057,223.770905 86.7519328,224.194549 C86.6439716,224.524498 86.5527367,225.073573 86.2491274,225.229228 C85.9308191,225.391936 85.0463477,225.21059 84.6783671,225.206056 C83.6271387,225.189936 82.5754034,225.174824 81.5246819,225.159712 C80.493221,225.145104 79.277263,225.222679 78.7202235,226.083065 C78.598577,226.270959 78.518493,226.48656 78.3720104,226.656823 C78.2067739,226.848244 77.9715907,226.965615 77.7404624,227.070896 C76.8934987,227.457264 75.9938216,227.786709 75.0769112,227.968055 C74.2405915,228.133785 73.810774,227.62249 73.1594584,227.175674 C72.3981541,226.653801 71.4994907,226.705686 70.7371727,226.207488 C70.3063414,225.926402 69.9692792,225.449362 70.0022252,224.939578 C70.0295956,224.52752 70.2850532,224.169362 70.5313874,223.835887 C70.6920621,223.618272 70.85223,223.401161 71.0129047,223.183545" id="Fill-1094" fill="#FDAE70"></path>
                <path d="M108.590783,222.148515 C106.767402,223.586009 104.701445,224.535491 102.130037,225.1695 C95.7758625,226.736655 89.1780969,227.304812 82.6518862,226.845896 C81.9287253,223.847372 81.8054073,220.704384 82.291067,217.657365 C87.5983074,216.798747 92.8370378,215.514905 97.9412856,213.822684 C100.442154,212.994185 102.521305,211.838982 103.426144,209.206468 C105.441861,203.345717 107.018605,197.333354 108.138109,191.236253 C108.38576,189.889112 108.621739,188.506238 109.293137,187.31224 C110.525302,185.122817 113.133756,183.912993 115.638684,184.004879 C118.143612,184.097275 120.509491,185.350488 122.313587,187.093757 C123.606649,188.343397 124.677943,189.917188 124.936251,191.699763 C125.203693,193.542574 124.584566,195.39049 123.918243,197.130185 C120.947447,204.890411 116.85461,212.219286 111.8072,218.81512 C110.787162,220.147457 109.737183,221.244465 108.590783,222.148515" id="Fill-1095" fill="#50E3C2"></path>
                <path d="M291.986249,84 C225.832836,84 142.277048,84 76.1235972,84 C76.0774547,81.3150209 76.0032972,78.6296506 76,75.9446714 C76,75.2186631 76.3839725,75.0645428 77.8704188,75.0273818 C78.9209836,75.0011735 79.9764923,75.011735 81.0295291,75.011735 C149.901265,75.007041 218.773002,75.0019558 287.644738,75 C289.091633,75 290.539353,75.0316846 291.986249,75.0481137 C291.913607,75.0481137 292.04004,84 291.986249,84 Z" id="Fill-164-Copy" fill="#00BAE4"></path>
                <path d="M92.9943339,158 C65.7366776,158 31.3085986,158 4.05092662,158 C4.03191422,155.315021 4.00135857,152.629651 4,149.944671 C4,149.218663 4.15821088,149.064543 4.7706818,149.027382 C5.20355343,149.001174 5.63846211,149.011735 6.07235226,149.011735 C34.4500584,149.007041 62.8277645,149.001956 91.2054707,149 C91.8016452,149 92.3981593,149.031685 92.9943339,149.048114 C92.9644029,149.048114 93.0164981,158 92.9943339,158 Z" id="Fill-164-Copy-2" fill="#00BAE4"></path>
                <polygon id="Fill-73-Copy-5" fill="#98DBE5" points="97 102 176 102 176 96 97 96"></polygon>
                <polygon id="Fill-73-Copy-7" fill="#98DBE5" points="281 162 360 162 360 156 281 156"></polygon>
                <polygon id="Fill-73-Copy-6" fill="#98DBE5" points="13 176 67 176 67 170 13 170"></polygon>
                <polygon id="Fill-73-Copy-8" fill="#98DBE5" points="322 71 362 71 362 67 322 67"></polygon>
                <polygon id="Fill-73-Copy-9" fill="#98DBE5" points="322 64 362 64 362 60 322 60"></polygon>
                <polygon id="Fill-73-Copy-10" fill="#00BAE4" points="317 52 365 52 365 48 317 48"></polygon>
                <polygon id="Fill-74-Copy-4" fill="#98DBE5" points="98 113 151 113 151 107 98 107"></polygon>
                <polygon id="Fill-74-Copy-6" fill="#98DBE5" points="282 173 335 173 335 167 282 167"></polygon>
                <polygon id="Fill-74-Copy-5" fill="#98DBE5" points="13 186 49 186 49 180 13 180"></polygon>
                <polygon id="Fill-74-Copy-7" fill="#98DBE5" points="328 78 356 78 356 74 328 74"></polygon>
                <polygon id="Fill-104-Copy-4" fill="#FDBE44" points="273 94.0980323 266.903526 94.0980323 266.903526 88 263.098731 88 263.098731 94.0980323 257 94.0980323 257 97.9030961 263.098731 97.9030961 263.098731 104 266.903526 104 266.903526 97.9030961 273 97.9030961"></polygon>
                <polygon id="Fill-104-Copy-6" fill="#FDBE44" points="416 162.098032 409.903526 162.098032 409.903526 156 406.098731 156 406.098731 162.098032 400 162.098032 400 165.903096 406.098731 165.903096 406.098731 172 409.903526 172 409.903526 165.903096 416 165.903096"></polygon>
                <polygon id="Fill-104-Copy-5" fill="#FDBE44" points="87 165.81127 83.1897038 165.81127 83.1897038 162 80.8117066 162 80.8117066 165.81127 77 165.81127 77 168.189435 80.8117066 168.189435 80.8117066 172 83.1897038 172 83.1897038 168.189435 87 168.189435"></polygon>
                <path d="M216.500562,125.957744 C213.994438,125.957744 211.957157,127.995265 211.957157,130.500562 C211.957157,133.004735 213.994438,135.042256 216.500562,135.042256 C219.003314,135.042256 221.042843,133.004735 221.042843,130.500562 C221.042843,127.995265 219.003314,125.957744 216.500562,125.957744 M216.500562,140 C211.263448,140 207,135.738297 207,130.500562 C207,125.261703 211.263448,121 216.500562,121 C221.738801,121 226,125.261703 226,130.500562 C226,135.738297 221.738801,140 216.500562,140" id="Fill-105-Copy-4" fill="#30C5CC"></path>
                <path d="M377.500562,183.957744 C374.994438,183.957744 372.957157,185.995265 372.957157,188.500562 C372.957157,191.004735 374.994438,193.042256 377.500562,193.042256 C380.003314,193.042256 382.042843,191.004735 382.042843,188.500562 C382.042843,185.995265 380.003314,183.957744 377.500562,183.957744 M377.500562,198 C372.263448,198 368,193.738297 368,188.500562 C368,183.261703 372.263448,179 377.500562,179 C382.738801,179 387,183.261703 387,188.500562 C387,193.738297 382.738801,198 377.500562,198" id="Fill-105-Copy-6" fill="#30C5CC"></path>
                <path d="M71.5003754,191.466667 C69.8269934,191.466667 68.4666667,192.82733 68.4666667,194.500375 C68.4666667,196.17267 69.8269934,197.533333 71.5003754,197.533333 C73.1715052,197.533333 74.5333333,196.17267 74.5333333,194.500375 C74.5333333,192.82733 73.1715052,191.466667 71.5003754,191.466667 M71.5003846,201 C67.9170957,201 65,198.084098 65,194.500385 C65,190.915902 67.9170957,188 71.5003846,188 C75.0844429,188 78,190.915902 78,194.500385 C78,198.084098 75.0844429,201 71.5003846,201" id="Fill-105-Copy-5" fill="#30C5CC"></path>
                <path d="M233.58194,77.4873924 C233.817777,77.532414 234.060609,77.5836619 234.252976,77.7216003 C234.813088,78.1229628 234.643206,78.9481986 234.790104,79.6034061 C234.88354,80.0220109 235.124373,80.3951152 235.36071,80.7581614 C235.766929,81.3836738 236.173648,82.0091863 236.579867,82.6346987 C236.648319,82.7395894 236.72027,82.8487906 236.832192,82.9115335 C236.933622,82.9685288 237.055038,82.9795448 237.172957,82.9867291 C238.399109,83.0633615 239.708203,82.8167008 240.615076,82.022118 C241.497466,81.2490881 241.875705,80.0694272 241.971638,78.9271247 C242.033096,78.1952847 241.994622,77.4557815 241.856718,76.7335206 C241.814247,76.5088917 241.757786,76.2785154 241.614885,76.0960343 C241.497966,75.9466011 241.331081,75.8407525 241.164197,75.744004 C240.113423,75.1323812 238.923746,74.7415557 237.70309,74.606012 C237.010569,74.5293796 236.292565,74.5298585 235.651009,74.2693082 C235.20082,74.0863482 234.817086,73.7860447 234.426356,73.5044205 C233.644397,72.9392561 232.813471,72.4363556 231.945072,72.0014664 C231.772191,71.9152549 231.023209,75.6577925 231.004222,75.9997648 C230.915284,77.5692933 232.246363,77.2316316 233.58194,77.4873924" id="Fill-28" fill="#FDAE70"></path>
                <path d="M192.627486,54.2584772 C191.623032,54.152149 190.627298,54.0752732 189.642851,54.030845 C188.562985,53.9824232 187.45747,53.9499756 186.425827,54.2644675 C185.449074,54.5624859 184.595955,55.1555277 183.81722,55.8019832 C180.425776,58.6169348 176.770137,64.1300268 180.705361,67.7806282 C181.884749,68.8748601 183.493004,69.3980148 185.059194,69.8353082 C189.381221,71.0418587 193.812004,71.837573 198.234066,72.6317897 C210.057694,74.7543601 221.881323,76.8769304 233.704952,79 C234.464193,76.5988797 235.223433,74.1982586 235.983186,71.7976375 C236.602891,69.8393018 219.898065,62.2146217 217.976366,61.4074259 C210.298292,58.1821373 201.155089,55.1605196 192.627486,54.2584772" id="Fill-29" fill="#4A90E2"></path>
            </g>
        </g>
    </g>
</svg>