<?xml version="1.0" encoding="UTF-8"?>
<svg width="310px" height="184px" viewBox="0 0 310 184" version="1.1" xmlns="http://www.w3.org/2000/svg" xmlns:xlink="http://www.w3.org/1999/xlink">
    <!-- Generator: Sketch 59.1 (86144) - https://sketch.com -->
    <title>Group 19 Copy</title>
    <desc>Created with Sketch.</desc>
    <g id="Home-Page" stroke="none" stroke-width="1" fill="none" fill-rule="evenodd">
        <g id="Home-Page-Mobile" transform="translate(-33.000000, -1313.000000)">
            <g id="Group-19-Copy" transform="translate(33.000000, 1313.000000)">
                <path d="M127.899826,40.4482747 C128.93373,39.7172504 130.165199,39.5174999 131.35932,39.341803 C137.410555,38.4507691 143.485177,37.7856311 149.571318,37.3477835 C158.890066,36.6781136 168.519474,36.5986317 177.21062,40.6490711 C178.64175,41.3159521 180.300115,42.6702819 179.953502,44.4499095 C179.664484,45.934966 178.171571,46.5101639 176.910781,46.7921852 C164.595736,49.5468605 151.953974,49.1163336 139.428099,48.6763943 C137.15714,48.5965638 120.450272,45.7142991 127.899826,40.4482747" id="Fill-1" fill="#4A90E2"></path>
                <path d="M152.565832,41.6791599 C152.809556,41.5642577 153.025747,41.4045929 153.191629,41.1804278 C153.2314,41.1268537 153.268452,41.0679928 153.281029,41.0017301 C153.295305,40.9231314 153.27491,40.8431227 153.254175,40.7666387 C153.175653,40.4737437 152.368677,38.2056581 152.548496,38.0907558 C153.93096,37.2948992 155.110152,35.9555479 155.792376,34.5717865 C157.066406,31.9864861 157.13371,29.0349788 156.884887,26.2572347 C156.527628,22.264558 155.192073,17.8880515 151.622887,16.4253389 C148.885491,15.3031035 145.450914,16.5247328 143.244817,18.6490145 C140.407484,21.3809386 140.842585,25.8829213 141.441868,29.3528985 C141.87051,31.834223 142.898096,34.2958097 144.581732,36.1409423 C145.427459,37.0679144 146.446547,37.8264102 147.594805,38.2951831 C148.152958,38.5228729 148.672699,38.476348 148.838921,39.0508592 C149.044575,39.7628302 148.943958,40.8198603 149.009223,41.5783561 C149.0201,41.7041846 149.038796,41.845169 149.135674,41.9213005 C149.205698,41.9755795 149.298837,41.9819238 149.386197,41.9854484 C149.98412,42.0094157 150.583404,42.0037764 151.180987,41.9685303 C151.648041,41.9406859 152.147727,41.876538 152.565832,41.6791599" id="Fill-3" fill="#FDAE70"></path>
                <path d="M153.066307,22.6174731 C154.49184,23.4569494 155.887805,24.8839894 155.626562,26.520724 C156.374463,26.1484375 157.303946,26.8780074 157.412131,27.7080632 C157.520316,28.5384678 157.0594,29.3364239 156.524391,29.9794642 C157.359256,30.1204237 158.178468,29.5164613 158.559028,28.7582809 C158.939587,27.9994026 158.977504,27.1198017 158.992114,26.2709048 C159.035597,23.7531736 158.926717,21.1674051 157.959664,18.8433187 C156.993307,16.5192323 155.01224,14.4812517 152.533385,14.0810525 C151.769482,13.9578874 150.988535,13.9910338 150.219067,14.0747721 C149.594657,14.1428094 148.957029,14.2495758 148.413322,14.56499 C143.981577,17.1371511 151.22195,21.5313177 153.066307,22.6174731" id="Fill-5" fill="#F57823"></path>
                <path d="M143.223069,27.7731982 C142.200275,29.7862419 141.989972,32.0927029 141.993049,34.3222588 C141.994759,35.8045879 142.601391,37.4147457 140.700109,36.9030841 C139.039565,36.456203 137.056897,34.4881938 135.720187,33.4243395 C135.187418,33.0006684 134.645757,32.5430483 134.363643,31.9191468 C134.12735,31.3960533 134.09589,30.8050616 134.082896,30.2303517 C134.019976,27.4874021 133.749488,23.928981 134.712781,21.3481557 C135.701379,18.6983929 137.714481,16.5436636 139.886251,14.8268086 C142.905391,12.4406711 146.479527,10.8852475 150.170271,12.9887067 C150.966006,13.4425163 151.678644,14.0296973 152.386496,14.6137606 C154.003611,15.9478221 152.008291,17.5309592 151.15716,18.7423882 C149.090028,21.6838362 146.037035,23.7245935 143.923398,26.6275889 C143.656671,26.9941007 143.424482,27.3768943 143.223069,27.7731982" id="Fill-7" fill="#F57823"></path>
                <polygon id="Fill-9" fill="#C5C7C7" points="140 177 111 176.671055 113.866204 154 137.625749 154.269707"></polygon>
                <polygon id="Fill-11" fill="#C5C7C7" points="112 160.146265 138.270405 159 139 166"></polygon>
                <path d="M48,49.1046331 L48,156.802024 C48,158.568406 49.4294078,160 51.1927473,160 L199.807253,160 C201.570592,160 203,158.568406 203,156.802024 L203,49.1046331 C203,47.9423937 202.059391,47 200.898926,47 L50.1014195,47 C48.9409548,47 48,47.9423937 48,49.1046331" id="Fill-13" fill="#DEDEDE"></path>
                <path d="M48,49.2563532 L48,146 L203,146 L203,49.2563532 C203,48.0103486 201.989217,47 200.742676,47 L50.2573235,47 C49.0104375,47 48,48.0103486 48,49.2563532" id="Fill-15" fill="#002D51"></path>
                <polygon id="Fill-17" fill="#FFFFFF" points="52 140 199 140 199 51 52 51"></polygon>
                <path d="M149,182 L102,182 L102,176.807909 C102,175.257201 103.288001,174 104.87713,174 L146.12287,174 C147.711999,174 149,175.257201 149,176.807909 L149,182 Z" id="Fill-19" fill="#CDD2D2"></path>
                <polygon id="Fill-21" fill="#F5A623" points="63 132 103 132 103 109 63 109"></polygon>
                <polygon id="Fill-22" fill="#D86600" points="105 132 145 132 145 109 105 109"></polygon>
                <polygon id="Fill-23" fill="#0280DA" points="147 132 187 132 187 109 147 109"></polygon>
                <polygon id="Fill-24" fill="#CFD2D4" points="62 137 84 137 84 134 62 134"></polygon>
                <polygon id="Fill-25" fill="#CFD2D4" points="105 137 127 137 127 134 105 134"></polygon>
                <polygon id="Fill-26" fill="#CFD2D4" points="147 137 169 137 169 134 147 134"></polygon>
                <polygon id="Fill-254" fill="#FDAE70" points="219.212517 68 216.840784 69.7770609 214.264099 69.3583496 213.8989 69.8619577 214.497593 70.339078 212.260316 70.6063333 211 71.9368367 211.459422 74.3370405 213.352132 76 215.67641 75.2899227 217.648212 73.1691994 221 70.8780032"></polygon>
                <path d="M217,67.9438501 C219.187085,65.4302155 221.373823,62.9169326 223.560908,60.403298 C224.973031,58.7806565 226.4203,57.1829895 227.799713,55.5318559 C229.533722,53.4565068 228.140738,52.2070763 228.462624,49.5664585 C229.187477,43.6242769 230.139564,37.19773 234.370364,33.0076355 C234.792818,32.5890481 235.267818,32.1862897 235.843733,32.0491056 C236.933274,31.7891594 238.050305,32.5974902 238.53296,33.6186323 C239.015268,34.6401261 239.014224,35.8177988 238.993344,36.9493916 C238.882337,43.0839827 239.203527,50.2625798 237.715544,56.2385298 C237.046717,58.9248757 233.40749,61.1053992 231.34046,62.929244 C227.158377,66.619496 222.976641,70.309748 218.794558,74 L217,67.9438501 Z" id="Fill-255" fill="#005467"></path>
                <polygon id="Fill-256" fill="#333333" points="50.0444458 160.365862 52 162.357817 50.283214 170 48.2160943 170 47 164.403288 48.6103326 160"></polygon>
                <polygon id="Fill-257" fill="#877870" points="21.4417363 93 37.6495677 96.0652497 28.3514898 129.000173 48 160.959679 45.7608389 165 17.5487777 134.702263 15 127.18903 16.7704597 96.8031225"></polygon>
                <polygon id="Fill-258" fill="#877870" points="51 93 46.649078 123.257549 41.2878349 169 35.7432448 168.557672 33 122.365338 34.7023078 93.1706808"></polygon>
                <path d="M10.2229924,101.025847 C9.87856211,102.384734 9.50758412,103.736328 9.11005845,105.080282 C9.02524378,105.366784 8.94008434,105.681762 9.05765264,105.956804 C9.15694786,106.189131 9.38001734,106.339848 9.59550177,106.469382 C12.2864713,108.084904 15.6862984,108.447112 18.6530879,107.434111 C20.1152791,106.935077 21.4636944,106.124885 22.9472616,105.694611 C25.4358481,104.972974 28.042003,105.360533 30.5785132,105.503957 C33.0936475,105.645645 35.2871065,105.000061 37.702256,104.800378 C43.623768,104.310026 45.20732,104.012411 50.8419791,105.797057 C50.8419791,95.054455 53.021992,86.793132 51.3998252,76.6856956 C49.7986897,66.7088345 48.1975542,56.7323207 46.5964188,46.7554596 C46.3261151,45.0722181 46.0454682,43.3542491 45.3555733,41.872427 C42.2357035,35.1724521 34.8926838,33.8937858 28.3736766,35.8093543 C25.0565955,36.7838077 22.4149289,40.5527823 20.7848323,43.4820463 C18.7013565,47.2267117 17.5542898,51.4419346 16.7299325,55.6276392 C14.1503254,68.7240708 14.0658555,82.2191741 11.5031423,95.3187312 C11.1287166,97.2325633 10.701885,99.1359771 10.2229924,101.025847" id="Fill-259" fill="#FD5959"></path>
                <path d="M31.8088181,37.5706858 C31.8672121,37.7032966 31.9485338,37.8317416 32.0613811,37.9563679 C32.5063219,38.4475832 33.1504471,38.7537682 33.8020955,38.8912391 C34.6615262,39.0721035 35.5542738,38.9943422 36.427676,38.8954049 C37.6073782,38.7614055 37.6156178,38.0983517 37.8606576,37.0864136 C38.1275505,35.9828282 38.2622507,34.8542481 38.40125,33.7301809 C40.0907353,33.5961816 42.0965513,33.2382714 42.8284466,31.5657095 C43.0587984,31.0387379 43.1211331,30.4489324 43.1798853,29.8719715 C43.4234922,27.4860192 43.6674573,25.1000669 43.9110642,22.7144618 C43.9956101,21.8892896 44.0780066,21.0384283 43.8648505,20.2469296 C43.4904841,18.8576409 42.2921532,17.9429043 41.0905982,17.3274099 C38.0236593,15.7569096 34.3018478,15.4771079 31.1854711,17.0455252 C30.356133,17.463145 29.557604,18.02379 29.0256096,18.8343819 C28.2059441,20.0837697 28.140027,21.7108552 28.1049189,23.2337961 L28.0071179,27.4509572 C27.9698604,29.0676282 28.0386435,30.9387591 29.2190621,31.8993193 C29.8459916,32.4092805 30.7032728,32.5689689 31.2252364,33.2035565 C31.878676,33.9978325 31.7493494,35.1125266 31.7088676,36.059548 C31.6855817,36.6007527 31.6060512,37.1086311 31.8088181,37.5706858" id="Fill-260" fill="#FDAE70"></path>
                <path d="M41.9667236,20.0414597 C42.0344168,20.1761047 42.0887123,20.3141583 42.1281999,20.4569842 C42.334805,21.2041783 42.0971739,22.0151158 42.2977853,22.7640143 C42.6154494,23.9516166 43.9629655,24.7458513 44.0835439,25.9668592 C44.1826156,26.9656178 43.4150743,27.8546152 43.2818035,28.8496242 C43.1361928,29.9363281 43.7817454,31.0199641 43.5892431,32.0892834 C43.4221257,33.018163 42.7099377,34.2903019 42.0763724,35 C42.2724004,34.7801368 43.8864582,34.9761389 44.3250532,34.7569574 C44.9977536,34.421879 45.0887162,34.1873582 45.3288152,33.5516296 C45.5671514,32.9210141 45.4673746,32.2757411 45.8128916,31.6366038 C46.2370313,30.8522544 47.0288997,30.310266 47.3550254,29.4652412 C47.7999667,28.3120671 47.244319,27.0235662 47.3867566,25.8005131 C47.6018233,23.9492305 49.3921652,22.315766 48.9214865,20.5091378 C48.6454255,19.4493629 47.6550611,18.715122 47.1399588,17.7419289 C46.7486079,17.0032566 46.6470682,16.1575501 46.3967447,15.3636563 C46.1464212,14.5701034 45.6746848,13.7601886 44.870829,13.468742 C44.4244775,13.3068272 43.9298241,13.3259161 43.4683122,13.2089966 C42.6711552,13.0071996 42.0397053,12.4212385 41.279568,12.1120665 C40.1925998,11.669613 38.1459406,12.6220128 37.4274064,13.4895352 C36.7141607,14.3509219 36.9824652,15.143793 37.5825365,15.9912039 C38.5820677,17.4020782 41.1727398,18.4608305 41.9667236,20.0414597" id="Fill-261" fill="#4E3F39"></path>
                <path d="M26.7083676,12.4406227 C26.0207435,12.8748155 25.1893184,13.1641619 24.5527316,13.6835992 C23.3109391,14.6961382 22.9640234,16.4342955 22.8071182,18.0334972 C22.6671105,19.4573585 21.9550023,20.6795436 22.0022463,22.1775607 C22.0336274,23.1835158 22.3836466,24.2237766 23.1498957,24.8721203 C24.1040862,25.6791714 25.6762418,25.9141137 26.0417792,27.1123888 C26.4390424,28.4142742 25.0189642,29.9143704 25.7324518,31.0721024 C26.1262666,31.710397 26.9763134,31.8614808 27.5725532,32.3147323 C28.2377622,32.8203088 28.5381236,33.6588934 28.912627,34.4077287 C29.2874752,35.1562175 29.8757835,35.9216859 30.706174,36 C30.8310085,34.7313808 30.9406697,33.7268119 30.483748,32.5250716 C30.2178713,31.8254425 29.3809286,30.5090032 30.1451087,29.8270467 C30.6378944,29.2500866 31.7117467,29.1288037 31.7938202,28.373038 C31.8320981,28.0181989 31.6065685,27.6973189 31.4331106,27.3857951 C30.7610047,26.1802431 30.7944548,24.6413363 31.3979363,23.3997459 C32.0014178,22.1581555 33.1287213,21.2131884 34.4063779,20.7020676 C35.9037017,20.10293 35.6961041,19.7307648 36.2164776,18.3696241 C36.6951246,17.116945 37.4403381,16.8688348 38.6210928,16.4852343 C39.681496,16.1407908 40.0315153,15.9037694 40.4811953,14.9622675 C40.8101789,14.2733806 41.2136494,13.4493499 40.8670786,12.628438 C40.5915462,11.976629 40.0466886,11.4849134 39.5180388,11.0160684 C38.4141848,10.036449 37.1692887,9 35.6964489,9 C34.8784728,9 34.0856705,9.32850341 33.2676945,9.31602859 C32.7221472,9.30736553 32.1903937,9.14761862 31.6479501,9.08974935 C30.7230715,8.99133694 29.7250855,9.20375528 28.9343523,9.70413389 C28.137067,10.2086708 28.1163762,10.79568 27.6384189,11.5594158 C27.4046129,11.9333137 27.0770086,12.2077595 26.7083676,12.4406227" id="Fill-262" fill="#4E3F39"></path>
                <path d="M30.1498491,7.97119797 C30.359581,7.11199344 30.350813,5.97285014 29.5164446,5.61910006 C29.0594534,5.42555794 28.5207439,5.56501711 28.040605,5.43474184 C27.0168466,5.15718408 26.7538048,3.9122559 26.2750689,2.99216554 C26.2031708,2.85440709 26.1161917,2.71392749 25.9759027,2.64113661 C25.7752896,2.53705245 25.5315376,2.59997915 25.3042695,2.61086377 C24.2612213,2.66086498 23.549255,1.6162818 22.6023047,1.18974083 C21.4305414,0.661156575 19.8600069,1.28566153 19.4075751,2.45983969 C19.2216922,2.94250447 19.2083648,3.47380989 19.03125,3.95953596 C18.3147243,5.92693066 15.2203013,6.56878298 14.9888245,8.64366328 C14.8327531,10.045398 16.1507676,11.4913515 15.5026327,12.753627 C15.088079,13.5607894 13.9426199,14.0505972 14.0022426,14.950279 C14.0408221,15.5292046 14.6412587,15.9635689 15.2385388,15.9972431 C15.8358189,16.0309174 16.4071456,15.751659 16.8848294,15.4026709 C17.6430911,14.8485758 18.2382669,14.1108028 18.9653142,13.5189517 C19.6923616,12.9267604 20.6368568,12.4713072 21.5683753,12.6509034 C22.4704331,12.8247172 23.2427237,13.5696332 24.1581089,13.4856175 C24.8904171,13.4189493 25.4736684,12.8304996 26.1975592,12.7039659 C26.8751548,12.5852556 27.5474895,12.8869636 28.2296444,12.9747208 C28.9117993,13.0628182 29.7787849,12.7760765 29.846825,12.1117747 C29.8629582,11.9508864 29.8289382,11.7811544 29.8927696,11.6314909 C30.0705858,11.2127733 30.8242881,11.2903262 31,10.8705881 C30.6822456,10.3107105 30.1635273,10.4668368 29.9590561,9.75083301 C29.8005297,9.19673793 30.0183282,8.51066685 30.1498491,7.97119797" id="Fill-263" fill="#4E3F39"></path>
                <path d="M37.5332195,83 C40.9671059,83 43.7674855,82.6604713 43.9757378,82.2316868 L43.9876379,82.1110131 C43.9876379,82.1224378 43.9876379,82.1335055 43.9872879,82.1449303 C43.9928879,82.1149404 43.996388,82.0849504 43.996388,82.0542465 L43.996388,67.171392 C43.996388,67.031082 44.0166882,66.8868448 43.9610376,66.7718834 C43.9372373,66.7226142 43.8990869,66.6790575 43.8395863,66.6437122 C43.7720356,66.6033686 43.6985348,66.5740927 43.625384,66.5476731 C42.8949263,66.2820481 42.0710176,66.2245674 41.3052095,66.1538768 C40.0518462,66.0392725 38.7914828,66 37.5332195,66 C36.2746062,66 35.0135428,66.0396295 33.7598295,66.1542339 C32.9940214,66.2245674 32.1697627,66.2820481 31.4396549,66.5480301 C31.2268527,66.6258611 30.9864001,66.7326109 31.0018003,66.9885963 C31.0056503,67.0478621 31.0018003,67.1085559 31.0018003,67.1678217 L31.0018003,81.8007602 C31.0018003,82.0071195 30.9738,82.1552839 31.1386517,82.3005922 C31.2034024,82.3573589 31.2860033,82.3937752 31.3644041,82.4259073 C31.6419571,82.5390835 31.9433103,82.5972782 32.2366134,82.6504746 C33.2484741,82.8336274 34.2823851,82.9025328 35.3078959,82.9500168 C36.0492038,82.984648 36.7912116,83 37.5332195,83" id="Fill-264" fill="#E7E7E7"></path>
                <polygon id="Fill-265" fill="#E7E7E7" points="35.8021299 171.990967 35 175.608565 38.8243925 176 40.7936895 172.578789 41 170.062563 35.6668555 169"></polygon>
                <path d="M44,66.5 C44,66.776304 41.0897703,67 37.5,67 C33.9102297,67 31,66.776304 31,66.5 C31,66.223696 33.9102297,66 37.5,66 C41.0897703,66 44,66.223696 44,66.5" id="Fill-266" fill="#BBA087"></path>
                <path d="M37.376587,66 C34.5205054,66 32.1808494,66.2537313 32,66.6351575 C32.6855534,66.8247651 34.8701477,67 37.5396864,67 C39.8428376,67 41.844573,66.923162 42.753174,66.7125484 C42.7642259,66.6937535 43,66.6887783 43,66.6694306 C43,66.2658928 40.3508905,66 37.376587,66" id="Fill-267" fill="#68625B"></path>
                <path d="M31.7863846,70.7225138 C30.5550944,69.4080822 28.9551695,68.5409796 27.3674698,69.2592111 C26.0985639,69.8328659 25.2011138,71.3051152 25.0271408,72.8811448 C24.6588196,76.2089149 28.120726,78.948 30.4673242,77.68689 C31.1475431,77.3218696 30.6654341,76.0865257 29.9801998,76.4629978 C28.2442311,77.4163454 25.9180081,74.9535307 26.4882007,72.8195923 C27.1587022,70.3102554 29.3238043,70.2254418 30.8864268,71.8479937 C31.5114758,72.4964418 32.4167625,71.3956546 31.7863846,70.7225138" id="Fill-268" fill="#E7E7E7"></path>
                <path d="M36.6026459,55.8528777 C37.1334183,55.8843369 37.1314836,55.0365954 36.6026459,55.0051362 C35.3256963,54.9289719 34.1622534,55.7035295 34.0139209,57.0857456 C33.9426568,57.7480437 34.1503223,58.3295414 34.5150269,58.8679898 C35.184458,59.8561385 36.9015681,60.9889994 35.2441134,62.1910704 C34.8136267,62.5033439 35.2254106,63.2384948 35.6607344,62.9229098 C36.4414149,62.3569761 36.9038254,61.4767819 36.6868084,60.4750561 C36.5781388,59.9723718 36.2924374,59.6074456 35.9644936,59.2332472 C35.655575,58.8802423 35.1573712,58.5543916 35.0074263,58.0904518 C34.6111205,56.8635446 35.3231166,55.7767135 36.6026459,55.8528777" id="Fill-269" fill="#F2F2F2"></path>
                <path d="M40.6026459,57.8529143 C41.1334183,57.8843733 41.1314836,57.0366361 40.6026459,57.0051771 C39.3256963,56.928682 38.1622534,57.7035668 38.0139209,59.0857758 C37.9426568,59.7477394 38.1503223,60.3295653 38.5150269,60.8680109 C39.184458,61.8561546 40.9015681,62.9890097 39.243791,64.1910745 C38.8133042,64.5033465 39.2254106,65.2384936 39.6607344,64.9229102 C40.4414149,64.3569794 40.9038254,63.4767897 40.6868084,62.475069 C40.5781388,61.9723873 40.2924374,61.6074629 39.9644936,61.2332664 C39.655575,60.8802633 39.1570487,60.5544143 39.0071039,60.0904769 C38.6107981,58.863576 39.3227942,57.7767504 40.6026459,57.8529143" id="Fill-270" fill="#F2F2F2"></path>
                <path d="M29.954371,73.4709466 C29.9369182,73.3856018 29.9124842,73.302234 29.8793239,73.221832 C29.5697108,72.4702043 28.7120792,72.4398888 28.2513247,71.8843236 C28.0457305,71.6365271 28.1001833,70.6519311 27.55391,70.8394262 C27.3528535,70.9102722 26.6582312,71.0941426 25.9705901,71.319532 C25.382081,71.3014086 24.7893832,71.3086579 24.2092514,71.2371528 C22.7407711,71.0555891 19.993697,68.9875422 18.7206883,70.629524 C18.4746035,70.9471781 18.2236319,71.2737292 18.1014622,71.6457535 C18.001632,71.9498975 17.9939528,72.2682106 18.0026792,72.5796039 C18.0089622,72.8221282 17.9586981,73.212935 18.137415,73.3638537 C18.3248583,73.5223512 18.9761976,73.5276235 19.232754,73.57771 C19.9661216,73.7207203 20.6991401,73.86406 21.4321585,74.0070703 C22.1515638,74.1477739 22.9798747,74.3787651 23.1882614,75.0513087 C23.2339878,75.1986027 23.2448085,75.3580888 23.3111292,75.4964858 C23.3861764,75.6523472 23.5251008,75.7673485 23.6636762,75.8737824 C24.1719024,76.2632712 24.7286474,76.6207968 25.3283263,76.8797969 C26.4002785,77.3421089 28.0701645,76.3558654 29.0408904,75.8662035 C29.2827865,75.7442824 29.5295693,75.6104986 29.6999089,75.4032326 C29.9774087,75.0664665 29.9948616,74.6150286 29.9990502,74.2011556 C30.0014936,73.9563247 30.0028899,73.7062215 29.954371,73.4709466" id="Fill-271" fill="#FDAE70"></path>
                <path d="M3.67926213,59.1913654 C3.20303833,60.3942933 2.93183048,61.6652857 3.01483869,63.0539372 C3.10070924,64.497998 3.93866277,65.828162 5.03744812,66.8224502 C6.13623347,67.8167383 7.48440123,68.5175627 8.83471576,69.1698185 C12.8620449,71.1156408 17.0625464,72.733454 21.375753,74 C22.0945611,72.5986933 22.8130114,71.1977286 23.5314618,69.7960798 C23.7057074,69.4571257 23.8835311,69.0723393 23.7557986,68.7145734 C23.6345064,68.3763033 23.2788592,68.1758724 22.9504043,68.0048562 C21.3857712,67.1915031 19.8211381,66.3778081 18.2565049,65.564455 C16.7881184,64.8006967 15.2299256,63.9504041 14.5000258,62.5124999 C13.1028403,59.7605073 16.3029498,58.5712606 17.9015733,57.0091987 C20.0758874,54.8855195 22.3264116,52.8124612 24.4334604,50.6279003 C26.4295931,48.6776316 28.4811839,46.6428808 29.3538434,44.1036323 C31.0902176,39.0507877 29.2991009,35.5216975 24.317893,37.6132256 C21.1607188,38.9386011 18.7978473,41.2760505 15.4732255,44.1805896 C10.9589387,48.1249072 5.86323666,53.6726727 3.67926213,59.1913654" id="Fill-272" fill="#FD5959"></path>
                <polygon id="Fill-273" fill="#433226" points="238 173.770246 238 176.499628 231.333097 180 228 176.499628 231.333097 173 231.763037 173 231.870521 173.770246"></polygon>
                <polygon id="Fill-274" fill="#433226" points="253.206591 173 253.666667 173 257 176.499628 253.666667 180 247 176.499628 247 173.770246 253.129261 173.770246"></polygon>
                <path d="M253.371267,76.904409 C252.507551,72.5404983 251.832707,68.5133457 251.770564,66.3289501 C251.584833,59.7593786 250.756726,38.0632335 250.756726,38.0632335 L246.741177,29.7642035 L246,29.7715243 C246.053415,29.7652493 246.106481,29.7586257 246.159896,29.7523507 C245.985337,29.7729188 246.243684,28.1483922 246.306176,28.0051131 C249.7977,27.8862368 254.296778,29.8527507 256.499011,32.5924834 C258.128343,34.6200041 259.096795,37.0982787 260.040809,39.5333255 C262.69899,46.3891065 263.904143,52.7411449 265.230441,59.9500687 C266.075654,64.5468515 266.85663,69.1223689 267.471775,73.685685 C268.152554,78.7394965 268.632591,83.7786664 268.77154,88.7882044 C268.786901,89.342147 268.896873,90.8910251 268.958318,92.7411029 C269.087491,96.6162611 269.00475,101.800453 267.398111,101.993932 C267.096823,102.030536 266.806706,101.894927 266.542424,101.764546 C264.4753,100.744511 262.846666,99.413166 261.023924,98.2498516 L260.926171,78.0339082 L253.371267,76.904409 Z" id="Fill-275" fill="#178FE3"></path>
                <path d="M217.044376,98.116622 C217.450385,93.8353192 217.871918,89.5550572 218.387278,85.2862435 C219.414203,76.7711655 220.812297,68.2765557 223.177985,60.0338077 C224.081417,56.8844951 225.12421,53.7795879 226.166313,50.6757214 C227.435395,46.8957138 228.704822,43.1157061 229.973559,39.3360453 C231.551029,34.6380952 234.213031,31.3288539 238.874381,29.6858549 C239.706752,29.3920162 240.582933,29.1658263 241.48602,29 C241.508442,29.0971368 241.528449,29.1956612 241.540868,29.2990425 C241.595025,29.7503815 241.720933,30.2506358 242,30.5777785 L238.940612,30.6079603 C238.940612,30.6079603 230.308853,61.4592897 229.991841,66.7764866 C229.871453,68.7976251 229.469927,73.2104094 229.024248,77.8584034 L224.336682,78.5643796 L224.135574,96.3438761 C223.87341,96.4208917 223.612281,96.4954788 223.353221,96.565903 C221.866129,96.9693675 220.656033,98.0781142 219.420412,98.9478352 C217.59561,100.231775 216.795319,100.740008 217.044376,98.116622" id="Fill-276" fill="#178FE3"></path>
                <path d="M229.029922,77 C228.303402,84.1631791 227.460467,91.9016421 227.460467,91.9016421 C227.460467,91.9016421 231.359261,91.9908229 237,92.3982171 C236.582614,92.3884208 236.165229,92.3779488 235.748908,92.3742329 C231.825625,92.3411279 227.75647,93.9541522 224,95 L224.206918,77.6874355 L229.029922,77 Z" id="Fill-277" fill="#178FE3"></path>
                <path d="M254.994754,95.2586477 C257.414735,95.3961783 257.715876,94.9067614 257.715876,94.9067614 C257.715876,94.9067614 255.532847,85.3303773 254,77 L260.910265,78.11122 L261,98 C260.413686,97.5976972 259.805657,97.2152866 259.150365,96.8743753 C257.836588,96.1915238 256.434033,95.6708966 254.994754,95.2586477" id="Fill-278" fill="#178FE3"></path>
                <path d="M223.286717,95.7265631 C227.108646,94.64064 231.248708,92.9658071 235.240357,93 C235.663932,93.0040389 236.088591,93.0152629 236.51325,93.0250839 C236.868215,93.0510395 237.230042,93.0787487 237.59873,93.1075103 C240.27343,93.3165575 243.278541,93.595404 246.416177,93.9654456 C246.570369,93.9836846 246.723477,94.0012222 246.87803,94.0198119 C250.890984,94.868277 253.496713,95.2000869 255.188487,95.2870729 C256.815985,95.7086749 258.401956,96.2411139 259.887178,96.9394578 C260.628525,97.2881037 261.315707,97.6791903 261.978695,98.0906205 L262,102.325931 L254.349281,174.267283 L248.075813,174.267283 L248.075813,175 L248.040064,175 L241.142247,126.744819 L241.11372,126.472988 L237.334762,175 L237.299013,175 L237.299013,174.267283 L230.995574,174.267283 L223,120.229632 L223.286717,95.7265631 Z" id="Fill-279" fill="#554326"></path>
                <path d="M228,92.2452474 C228,92.2452474 231.782931,92.3366116 237.256041,92.7520603 C237.594559,92.7775733 237.939964,92.8048102 238.291224,92.8330814 C240.84199,93.0385648 243.707857,93.3126575 246.700109,93.6760458 C246.847156,93.6943186 246.992826,93.7115572 247.140561,93.72983 C250.967572,94.5638304 253.452563,94.8899834 255.065947,94.9754866 C257.675601,95.1137396 258,94.6220966 258,94.6220966 C258,94.6220966 255.64587,84.9950643 253.992883,76.6209287 C253.14125,72.3054338 252.475234,68.3222979 252.41428,66.1619647 C252.230729,59.6651055 251.413878,38.2076113 251.413878,38.2076113 L247.452907,30 L246.721805,30.0072402 C245.712449,30.1289442 244.702405,30.2506483 243.692705,30.3720076 C243.432015,30.4033817 243.160994,30.4340663 242.911668,30.350287 C242.786317,30.3085698 242.677495,30.2427186 242.583137,30.1592841 C242.544912,30.1254965 242.510475,30.0875718 242.476726,30.0486127 L239.422488,30.0782629 C239.422488,30.0782629 230.805257,60.7387215 230.489124,66.0230221 C230.368593,68.032001 229.968088,72.4171395 229.522815,77.0363774 C228.817884,84.3472401 228,92.2452474 228,92.2452474" id="Fill-280" fill="#FFFFFF"></path>
                <path d="M236.905187,9.39011323 C236.023464,11.0745792 235.657171,12.9826987 235.671721,14.8691076 C235.675722,15.3708635 235.670993,15.9505017 235.26687,16.266856 C234.834375,16.6052655 235.266506,17.2800168 234.902032,16.8737187 C234.537193,16.4674205 233.297543,15.0551984 233.216791,14.5238059 C233.027642,13.2790655 232.961804,12.0167498 233.021095,10.759948 C233.072747,9.66683708 233.242617,8.51893279 233.93701,7.65292153 C234.348772,7.1397935 234.914399,6.76519969 235.472387,6.40163349 C236.280997,5.87403172 237.115069,5.34126077 238.064813,5.1217426 C239.701312,4.74335805 240.74563,5.26406757 239.346658,6.44643311 C238.344535,7.29383529 237.509371,8.23600591 236.905187,9.39011323" id="Fill-281" fill="#002D51"></path>
                <path d="M247.156265,31.014268 C244.988096,31.3427265 242.820275,31.6715415 240.651758,32 C240.223353,30.0599197 239.930545,28.0813231 239.776821,26.089531 C237.862767,25.8523705 235.599436,25.3338269 234.848246,23.3003089 C234.611908,22.6597971 234.56973,21.9518818 234.53034,21.258945 L234.04442,12.6669569 C233.988647,11.6762321 233.935663,10.6551935 234.21627,9.71832013 C234.708813,8.07388808 236.115335,7.0343046 237.51105,6.35278006 C241.073888,4.61348378 245.31855,4.44764971 248.785877,6.464406 C249.708569,7.00113778 250.58978,7.70762659 251.155177,8.70084786 C252.026628,10.2322274 252.023142,12.1805103 251.989678,14.0036152 C251.958655,15.6858503 251.927979,17.368442 251.897304,19.0506771 C251.861749,20.9857646 251.693385,23.2200666 250.304641,24.3152848 C249.567394,24.8969522 248.585095,25.0492343 247.961136,25.7838971 C246.860669,27.0802559 247.499616,29.2471544 247.156265,31.014268" id="Fill-282" fill="#FDAE70"></path>
                <path d="M241.164225,21.5774268 C241.987038,22.1289129 242.820292,22.0885964 243.68891,21.7412821 C244.134839,21.5626317 244.366224,22.4000326 243.920969,22.5783131 C242.872497,22.9973834 241.817962,23.0192062 240.829778,22.3571269 C240.418203,22.0811988 240.750292,21.3000192 241.164225,21.5774268 M236.994924,25.971562 C238.576894,27.0612188 240.498363,27.0349575 242.314412,26.9783664 C243.307648,26.9476666 244.300884,26.916597 245.294457,26.8855273 C247.807691,26.8074833 250.288255,26.3011221 251.443831,23.274791 C251.976992,21.8792462 252.092853,20.2854475 251.934554,18.7560073 C251.89077,18.3354575 251.822735,17.9045511 251.627389,17.550949 C251.432042,17.1977167 251.080082,16.9384332 250.734857,17.0127784 C250.29297,17.1082066 250.050471,17.6582132 249.783048,18.0905991 C249.199703,19.0337847 248.118898,19.6033948 247.204811,19.1695294 C246.933683,19.0411822 246.695226,18.8373802 246.457442,18.6313588 C246.360106,18.5466571 246.263106,18.4623252 246.164086,18.3820619 C245.18129,17.5879367 244.007864,17.2650343 242.845215,17.1629483 C241.836486,17.0745478 240.342759,16.7475768 239.64288,17.7432849 C239.23602,18.3225118 238.828824,18.9017387 238.421627,19.4809656 C238.254235,19.719906 238.082465,19.9625451 237.859164,20.1223318 C237.629126,20.2865571 237.357999,20.3516554 237.090239,20.3723685 C236.416631,20.4245211 235.644002,20.1204824 235.379947,19.3700026 C235.26476,19.0430316 235.262739,18.6787031 235.234447,18.3258407 C235.206493,17.9733482 235.141153,17.6012522 234.934692,17.3467771 C234.145896,16.3747411 234.004775,18.0018287 234.000396,18.5544245 C233.992987,19.5312689 234.089313,20.5140313 234.302847,21.4590662 C234.934692,24.0363184 235.599207,25.0102524 236.994924,25.971562 Z" id="Fill-283" fill="#002D51"></path>
                <path d="M233.054397,4.37607625 C232.839894,3.71851241 232.671826,3.04518622 232.551927,2.36363619 C233.194742,2.55381229 233.885725,2.57711315 234.539976,2.4314828 C234.521263,2.03571092 234.502897,1.63993904 234.483837,1.2438245 C234.469976,0.914528583 238.887208,0.454679348 239.245522,0.406364339 C242.600636,-0.0462890437 245.667783,-0.470159017 248.807701,1.19036959 C251.489505,2.60863784 253.276913,4.8417507 253.83067,7.84002254 C254.359823,10.7046571 253.614088,14.5201722 252.077915,17 C252.04846,16.2317571 252.395338,14.3978427 252.177716,13.6772295 C252.029747,12.9514764 251.742473,12.2593039 251.362328,11.6264115 C250.603772,10.3623401 249.475467,9.32373878 248.196767,8.60758013 C246.158124,7.46549555 243.828742,6.92614928 241.519459,6.72363744 C239.403193,6.53825857 236.82916,6.39913876 234.782201,7.06663974 C233.798052,7.3870265 233.645579,7.64744782 232.989595,6.66607062 C232.873854,6.4930275 231.92228,4.45180403 232.0051,4.44632148 C232.35475,4.42302062 232.7044,4.39937711 233.054397,4.37607625" id="Fill-284" fill="#002D51"></path>
                <path d="M248.474005,90 L216.525995,90 C215.683185,90 215,89.3131658 215,88.4658531 L215,30.5344898 C215,29.6868342 215.683185,29 216.525995,29 L248.474005,29 C249.316815,29 250,29.6868342 250,30.5344898 L250,88.4658531 C250,89.3131658 249.316815,90 248.474005,90" id="Fill-285" fill="#414040"></path>
                <polygon id="Fill-286" fill="#FFFFFF" points="216 83 249 83 249 33 216 33"></polygon>
                <path d="M235.13841,89 L229.861895,89 C229.385841,89 229,88.4960191 229,87.8746019 L229,87.1253981 C229,86.5035828 229.385841,86 229.861895,86 L235.13841,86 C235.614464,86 236,86.5035828 236,87.1253981 L236,87.8746019 C236,88.4960191 235.614464,89 235.13841,89" id="Fill-287" fill="#000000"></path>
                <polygon id="Fill-292" fill="#FDAE70" points="253.08607 72 251.60083 74.6656357 248.988145 75.3397772 248.85655 75.9675231 249.625845 76.1699765 247.625252 77.3523602 247 79.1336684 248.455365 81.2126815 250.951749 82 252.845999 80.3627992 253.80735 77.5382939 256 73.9795438"></polygon>
                <path d="M251,73.2792874 C251.968689,70.1350305 252.937377,66.9907735 253.906066,63.8468627 C254.531279,61.8169252 255.198106,59.7952957 255.78273,57.7532422 C256.518455,55.1860497 254.778227,54.6256014 254.02647,52.1207194 C252.334676,46.4843887 250.655843,40.3208419 252.794121,34.8427106 C253.007982,34.2957629 253.274372,33.7411995 253.736204,33.3849912 C254.610071,32.7113454 255.928715,32.9865501 256.763015,33.7100443 C257.597656,34.4335384 258.060171,35.493163 258.487554,36.518863 C260.804903,42.0804211 263.920396,48.4059752 264.942295,54.3808596 C265.40174,57.0671344 263.001165,60.4983658 261.868414,62.9741696 C259.576646,67.9828951 257.284879,72.9912745 254.993112,78 L251,73.2792874 Z" id="Fill-293" fill="#FFFFFF"></path>
                <path d="M295,172 L182,172 L182,98.952103 C182,97.3217331 183.311989,96 184.93034,96 L292.069314,96 C293.688011,96 295,97.3217331 295,98.952103 L295,172 Z" id="Fill-1066" fill="#002D51"></path>
                <polygon id="Fill-1067" fill="#FFFFFF" points="187 167 291 167 291 101 187 101"></polygon>
                <path d="M302.782331,182 L175.194475,181.590789 C172.251186,181.581409 169.524957,179.841935 168,177 L310,177.455679 L310,177.45607 C308.460157,180.287453 305.725273,182.009341 302.782331,182" id="Fill-1068" fill="#DEDEDE"></path>
                <path d="M308.864204,178 L169.135796,178 C168.508328,178 168,177.50963 168,176.905074 L168,172.094926 C168,171.490037 168.508328,171 169.135796,171 L308.864204,171 C309.491327,171 310,171.490037 310,172.094926 L310,176.905074 C310,177.50963 309.491327,178 308.864204,178" id="Fill-1069" fill="#F1F1F1"></path>
                <polygon id="Fill-1071" fill="#F5A623" points="193 159 222 159 222 142 193 142"></polygon>
                <polygon id="Fill-1072" fill="#D86600" points="224 159 253 159 253 142 224 142"></polygon>
                <polygon id="Fill-1073" fill="#0280DA" points="254 159 283 159 283 142 254 142"></polygon>
                <polygon id="Fill-1074" fill="#CFD2D4" points="193 162 209 162 209 161 193 161"></polygon>
                <polygon id="Fill-1075" fill="#CFD2D4" points="224 162 240 162 240 161 224 161"></polygon>
                <polygon id="Fill-1076" fill="#CFD2D4" points="254 162 270 162 270 161 254 161"></polygon>
                <path d="M248.734263,176 L229.265056,176 C228.566519,176 228,175.328449 228,174.499597 C228,173.671551 228.566519,173 229.265056,173 L248.734263,173 C249.433481,173 250,173.671551 250,174.499597 C250,175.328449 249.433481,176 248.734263,176" id="Fill-1078" fill="#C1C1C1"></path>
                <path d="M87.5913519,108.410118 C85.3550694,102.302117 76.3994041,100.450294 74.5919063,107.697717 C74.0489897,109.87559 73.7571633,112.17617 74.2579388,114.367716 C74.7587144,116.559612 76.1620098,118.631256 78.2209489,119.467066 C78.2328888,119.471974 78.2448288,119.475129 78.2564176,119.479687 C78.1977713,120.055007 78.1387739,120.630328 78.0804789,121.205998 C78.0674854,121.329757 78.0583549,121.465787 78.1299946,121.566406 C78.2118183,121.6814 78.3670377,121.706993 78.5054007,121.723471 C79.1824661,121.802354 79.8591803,121.881938 80.5362458,121.960821 C80.8716179,122.000438 81.2210371,122.038302 81.5384993,121.922958 C82.2334746,121.670532 82.4954512,120.804922 82.4996653,120.055358 C82.5003676,119.875855 82.4922906,119.69495 82.4831601,119.513694 C86.4180761,117.994232 89.0529423,112.403002 87.5913519,108.410118" id="Fill-1079" fill="#FDAE70"></path>
                <path d="M74.717932,109.441979 C73.8547971,111.100107 74.1010455,113.012003 74.5313473,114.754836 C74.9515244,116.458947 74.9168109,118.164441 75.5029616,119.836399 C75.336988,120.121282 74.8911375,119.982298 74.6043901,119.810123 C72.9229587,118.799204 71.2556296,117.766158 69.6034876,116.71064 C69.4371524,116.604846 69.2661165,116.49352 69.1590834,116.330681 C69.0231225,116.124279 69.0097434,115.866363 69.004681,115.621585 C68.9012639,110.790332 70.5205005,107.111056 72.9620113,103.074294 C74.1476917,101.114342 77.5962533,98.7571439 79.8801073,100.76619 C80.3997239,101.223593 80.639825,101.903301 80.8271329,102.559846 C80.9388667,102.951905 81.0401142,103.358486 80.9840665,103.760917 C80.7602372,105.366495 79.2133203,105.41628 78.057291,106.026842 C76.631871,106.779845 75.4465523,108.042457 74.717932,109.441979" id="Fill-1080" fill="#002D51"></path>
                <path d="M86.6664444,111.013008 C86.7986952,112.424743 86.6176459,114.058882 86.318844,115.433196 C86.2152358,115.909423 85.428096,117.066982 85.4295105,117.382584 C85.4341074,118.296911 87.5009681,120.253005 88.0614427,121 C90.8316371,119.109567 93.6014778,117.218782 96.3716722,115.328349 C96.5838393,115.183257 96.8055538,115.027574 96.9148198,114.792814 C97.0141847,114.579942 97.0053444,114.332827 96.9919072,114.097361 C96.7245767,109.466772 95.1471147,105.428906 92.9950337,101.417517 C90.8443671,97.4082468 86.5776878,94.3842604 81.9520926,95.1072495 C78.2147701,95.6918539 75.8438034,98.7048965 77.5789762,102.444105 C78.8891077,105.266516 82.584704,105.546816 84.7509296,107.357112 C86.1112739,108.49349 86.582992,109.703649 86.6664444,111.013008" id="Fill-1081" fill="#002D51"></path>
                <path d="M98.7710453,160.650211 C95.5044299,158.885085 92.2956676,161.054301 89.9662045,163.101984 C85.3501454,167.155137 80.3329475,170.754838 75.4074086,174.454625 C73.7798513,173.556232 71.9972056,172.581242 71.1844725,172.165237 C66.2003834,169.61508 61.1096492,167.222542 56.4137805,164.234933 C54.1209113,162.77381 50.9828973,161.414475 47.9121463,164.008548 C45.393789,166.136232 44.4796385,169.957552 45.2836588,172.279281 C46.087679,174.60101 48.1327553,175.765619 50.1663305,176.732779 C55.2919161,179.169573 61.2968008,182.239906 67.039255,182.85336 C69.5408837,183.120597 72.3579169,182.953106 74.8832445,182.890126 C78.8555995,182.791402 83.2562773,182.608591 86.6936643,180.570781 C90.1902986,178.497565 93.5496186,176.209879 96.8444636,173.844576 C98.920906,172.354176 101.003273,170.664624 101.761987,168.153957 C102.5207,165.64329 101.450067,162.097717 98.7710453,160.650211" id="Fill-1082" fill="#453933"></path>
                <path d="M93.9621503,173.329086 C93.5813956,170.081418 91.9309932,167.503522 88.8814657,166.092046 C86.4081307,164.946964 83.6283771,164.677817 80.9184227,164.334671 C74.8832339,163.570595 69.122007,162.807551 63.0281869,163.043657 C58.155155,163.232611 55.1516949,167.332809 52.8710057,171.376562 C51.4338399,173.925203 51.8330914,175.120535 53.642287,177.25513 C55.3108371,179.222798 57.3357122,180.897226 59.5975556,182.164836 C64.075873,184.674585 70.9559813,184.054375 75.8879935,183.512294 C80.5432519,183.000501 85.0997444,181.629294 89.2517505,179.490569 C91.9240133,178.114199 94.3327841,176.491398 93.9621503,173.329086" id="Fill-1083" fill="#453933"></path>
                <path d="M78.3936752,119.725802 C80.6985018,119.420249 83.0383721,119.004948 84.9692821,119.841473 C86.6047733,120.550133 86.5763879,122.603295 86.9422445,124.1551 C88.1519543,129.289574 89.0609889,134.486064 89.7727272,139.710775 C90.1130019,142.208505 90.7013862,144.883226 90.6866678,147.406041 C90.674753,149.430634 90.1648666,151.398436 90.3218625,153.461703 C90.4420626,155.046954 91.1198084,156.757981 92.5797305,157.406018 C93.3145977,157.732127 94.1584509,157.747457 94.8943694,158.07043 C95.6306383,158.392707 96.2610752,159.254666 95.8906629,159.964719 C95.7143929,160.302326 95.3618529,160.505795 95.027886,160.691148 C93.2070134,161.700831 91.3861408,162.710166 89.5652682,163.719501 C88.1743823,164.490526 86.7757867,165.265035 85.2773165,165.800188 C83.1540165,166.558322 80.8835327,166.816491 78.6302204,166.93042 C72.8105069,167.224476 66.9441853,166.5848 61.3266741,165.043448 C58.3023996,164.213542 55.3808032,162.741871 56.1142686,159.339677 C56.8698116,155.838535 58.3300842,152.345407 59.9045993,149.139366 C61.8109786,145.258112 62.3762341,140.580748 63.7264693,136.485572 C65.0952777,132.334651 66.542584,128.210557 68.000754,124.089948 C68.0063609,124.07427 68.0119679,124.05894 68.0175749,124.04361 C68.5505902,122.537098 68.7689127,121.047658 69.9428779,119.825098 C71.5496332,118.153441 72.323399,119.482962 74.1474255,119.823008 C75.4720788,120.070028 76.925693,119.920213 78.3936752,119.725802" id="Fill-1084" fill="#FFFFFF"></path>
                <path d="M1.56468531,183 C0.70034965,183 0,182.304426 0,181.445984 L0,99.553669 C0,98.6955742 0.70034965,98 1.56468531,98 L65.4356643,98 C66.2996503,98 67,98.6955742 67,99.553669 L67,181.445984 C67,182.304426 66.2996503,183 65.4356643,183 L1.56468531,183 Z" id="Fill-1085" fill="#002D51"></path>
                <polygon id="Fill-1086" fill="#F2F2F2" points="3 177 64 177 64 102 3 102"></polygon>
                <polygon id="Fill-1093" fill="#FFFFFF" points="64 102 64 177 3 177 3 102.160379"></polygon>
                <path d="M35,178.999831 C35,180.104397 34.1047346,181 33.0001688,181 C31.895603,181 31,180.104397 31,178.999831 C31,177.895603 31.895603,177 33.0001688,177 C34.1047346,177 35,177.895603 35,178.999831" id="Fill-1087" fill="#000000"></path>
                <polygon id="Fill-1088" fill="#F5A623" points="4 170 33 170 33 153 4 153"></polygon>
                <polygon id="Fill-1088-Copy" fill="#F5A623" points="219 78 246 78 246 64 219 64"></polygon>
                <polygon id="Fill-1089" fill="#D86600" points="34 170 63 170 63 153 34 153"></polygon>
                <polygon id="Fill-1090" fill="#CFD2D4" points="4 173 20 173 20 172 4 172"></polygon>
                <polygon id="Fill-1090-Copy" fill="#CFD2D4" points="219 81 235 81 235 80 219 80"></polygon>
                <polygon id="Fill-1091" fill="#CFD2D4" points="34 173 50 173 50 172 34 172"></polygon>
                <path d="M47.7149916,151.78903 C48.253814,151.099916 48.7926363,150.410801 49.3314587,149.721687 C49.498186,149.508438 49.8420162,148.828055 50.1965799,149.040632 C50.3683162,149.144067 50.9790531,149.445302 51.5711852,149.782807 C52.1393459,149.879189 52.7035709,150.000087 53.2788873,150.046095 C54.7347095,150.16229 57.9569103,148.803204 58.700385,150.545803 C58.8442141,150.882972 58.9901899,151.228873 58.9994923,151.591901 C59.0073635,151.888771 58.9225687,152.180603 58.8248938,152.463033 C58.7486858,152.682998 58.6842847,153.049049 58.4699723,153.152819 C58.245284,153.26129 57.6209513,153.140393 57.3612003,153.137371 C56.6191567,153.126624 55.8767554,153.11655 55.1350696,153.106475 C54.4069796,153.096736 53.5486562,153.148453 53.1554519,153.722043 C53.0695838,153.847306 53.0130539,153.99104 52.9096544,154.104549 C52.7930169,154.232163 52.6270052,154.31041 52.4638558,154.380598 C51.8659991,154.638176 51.2309329,154.857806 50.583702,154.978703 C49.9933587,155.08919 49.6899581,154.748327 49.2302059,154.450449 C48.6928147,154.102534 48.058464,154.137124 47.5203572,153.804992 C47.216241,153.617602 46.9783148,153.299575 47.0015707,152.959719 C47.020891,152.685013 47.2012141,152.446241 47.375097,152.223925 C47.4885144,152.078848 47.6015741,151.934107 47.7149916,151.78903" id="Fill-1094" fill="#FDAE70"></path>
                <path d="M73.9333185,151.728068 C72.7035967,152.697541 71.310277,153.337889 69.5760715,153.765476 C65.290698,154.822395 60.8410421,155.205571 56.4396442,154.896069 C55.951931,152.873809 55.868763,150.754119 56.196301,148.699153 C59.7756026,148.120086 63.3086999,147.254239 66.7510996,146.112973 C68.4377317,145.554218 69.83995,144.775128 70.4501905,142.999711 C71.8096269,139.047111 72.8730128,134.992262 73.6280271,130.880264 C73.7950475,129.971727 73.954196,129.039091 74.4069993,128.233836 C75.2379941,126.757249 76.9971843,125.941321 78.6865544,126.00329 C80.3759246,126.065604 81.9715169,126.910794 83.188233,128.086487 C84.0602985,128.929268 84.7827986,129.990662 84.9570063,131.192864 C85.1373746,132.43569 84.7198237,133.681958 84.270443,134.855241 C82.2668828,140.088882 79.5065971,145.031611 76.10253,149.479964 C75.4145977,150.378517 74.7064723,151.11836 73.9333185,151.728068" id="Fill-1095" fill="#50E3C2"></path>
                <path d="M198.990641,57 C153.969569,57 97.1052135,57 52.0841148,57 C52.0527122,55.2100139 52.0022439,53.419767 52,51.6297809 C52,51.1457754 52.2613146,51.0430285 53.2729239,51.0182545 C53.9878916,51.0007823 54.7062239,51.0078234 55.422874,51.0078234 C102.293917,51.004694 149.164959,51.0013039 196.036002,51 C197.020695,51 198.005949,51.0211231 198.990641,51.0320758 C198.941205,51.0320758 199.02725,57 198.990641,57 Z" id="Fill-164-Copy" fill="#00BAE4"></path>
                <path d="M63.9961165,108 C45.3139026,108 21.7171294,108 3.03490476,108 C3.02187379,106.210014 3.00093116,104.419767 3,102.629781 C3,102.145775 3.10843667,102.043029 3.52822011,102.018255 C3.82490741,102.000782 4.12299088,102.007823 4.42037627,102.007823 C23.8702647,102.004694 43.3201532,102.001304 62.7700417,102 C63.1786557,102 63.5875025,102.021123 63.9961165,102.032076 C63.975602,102.032076 64.0113077,108 63.9961165,108 Z" id="Fill-164-Copy-2" fill="#00BAE4"></path>
                <polygon id="Fill-73-Copy-5" fill="#98DBE5" points="66 69 120 69 120 65 66 65"></polygon>
                <polygon id="Fill-73-Copy-7" fill="#98DBE5" points="191 110 245 110 245 106 191 106"></polygon>
                <polygon id="Fill-73-Copy-6" fill="#98DBE5" points="6 120 43 120 43 116 6 116"></polygon>
                <polygon id="Fill-73-Copy-8" fill="#98DBE5" points="220 49 247 49 247 46 220 46"></polygon>
                <polygon id="Fill-73-Copy-9" fill="#98DBE5" points="220 44 247 44 247 41 220 41"></polygon>
                <polygon id="Fill-73-Copy-10" fill="#00BAE4" points="216 36 249 36 249 33 216 33"></polygon>
                <polygon id="Fill-74-Copy-4" fill="#98DBE5" points="67 77 103 77 103 73 67 73"></polygon>
                <polygon id="Fill-74-Copy-6" fill="#98DBE5" points="192 118 228 118 228 114 192 114"></polygon>
                <polygon id="Fill-74-Copy-5" fill="#98DBE5" points="6 127 31 127 31 123 6 123"></polygon>
                <polygon id="Fill-74-Copy-7" fill="#98DBE5" points="224 53 243 53 243 50 224 50"></polygon>
                <polygon id="Fill-104-Copy-4" fill="#FDBE44" points="186 64.1923972 181.808674 64.1923972 181.808674 60 179.192877 60 179.192877 64.1923972 175 64.1923972 175 66.8083786 179.192877 66.8083786 179.192877 71 181.808674 71 181.808674 66.8083786 186 66.8083786"></polygon>
                <polygon id="Fill-104-Copy-6" fill="#FDBE44" points="283 110.192397 278.808674 110.192397 278.808674 106 276.192877 106 276.192877 110.192397 272 110.192397 272 112.808379 276.192877 112.808379 276.192877 117 278.808674 117 278.808674 112.808379 283 112.808379"></polygon>
                <polygon id="Fill-104-Copy-5" fill="#FDBE44" points="60 113.667889 57.3327927 113.667889 57.3327927 111 55.6681946 111 55.6681946 113.667889 53 113.667889 53 115.332605 55.6681946 115.332605 55.6681946 118 57.3327927 118 57.3327927 115.332605 60 115.332605"></polygon>
                <path d="M147.500385,85.3921406 C145.785668,85.3921406 144.391739,86.7862342 144.391739,88.5003847 C144.391739,90.2137658 145.785668,91.6078594 147.500385,91.6078594 C149.212794,91.6078594 150.608261,90.2137658 150.608261,88.5003847 C150.608261,86.7862342 149.212794,85.3921406 147.500385,85.3921406 M147.500385,95 C143.917096,95 141,92.0840978 141,88.5003847 C141,84.9159022 143.917096,82 147.500385,82 C151.084443,82 154,84.9159022 154,88.5003847 C154,92.0840978 151.084443,95 147.500385,95" id="Fill-105-Copy-4" fill="#30C5CC"></path>
                <path d="M257.500385,125.392141 C255.785668,125.392141 254.391739,126.786234 254.391739,128.500385 C254.391739,130.213766 255.785668,131.607859 257.500385,131.607859 C259.212794,131.607859 260.608261,130.213766 260.608261,128.500385 C260.608261,126.786234 259.212794,125.392141 257.500385,125.392141 M257.500385,135 C253.917096,135 251,132.084098 251,128.500385 C251,124.915902 253.917096,122 257.500385,122 C261.084443,122 264,124.915902 264,128.500385 C264,132.084098 261.084443,135 257.500385,135" id="Fill-105-Copy-6" fill="#30C5CC"></path>
                <path d="M47.5002599,137.4 C46.3417646,137.4 45.4,138.341998 45.4,139.50026 C45.4,140.658002 46.3417646,141.6 47.5002599,141.6 C48.6571959,141.6 49.6,140.658002 49.6,139.50026 C49.6,138.341998 48.6571959,137.4 47.5002599,137.4 M47.5002663,144 C45.0195278,144 43,141.981298 43,139.500266 C43,137.018702 45.0195278,135 47.5002663,135 C49.9815374,135 52,137.018702 52,139.500266 C52,141.981298 49.9815374,144 47.5002663,144" id="Fill-105-Copy-5" fill="#30C5CC"></path>
                <path d="M159.643053,52.491977 C159.793131,52.5206271 159.94766,52.5532394 160.070075,52.6410184 C160.426511,52.8964309 160.318404,53.4215809 160.411885,53.8385311 C160.471343,54.104916 160.624601,54.342346 160.774997,54.5733755 C161.0335,54.9714288 161.292321,55.3694822 161.550824,55.7675355 C161.594385,55.8342842 161.640172,55.9037759 161.711395,55.9437031 C161.775941,55.9799729 161.853206,55.986983 161.928245,55.9915549 C162.708524,56.040321 163.541584,55.883355 164.118685,55.3777115 C164.680206,54.8857833 164.920903,54.13509 164.981952,53.4081702 C165.021061,52.9424539 164.996578,52.471861 164.90882,52.0122404 C164.881794,51.8692947 164.845864,51.7226916 164.754927,51.6065673 C164.680524,51.5114734 164.574324,51.4441152 164.468125,51.382548 C163.799451,50.9933335 163.042384,50.7446263 162.265603,50.6583713 C161.824907,50.6096052 161.367996,50.60991 160.959733,50.4441052 C160.673249,50.3276761 160.429055,50.1365739 160.180408,49.9573585 C159.682798,49.5977084 159.154027,49.2776808 158.601409,49.0009332 C158.491394,48.9460713 158.014769,51.3276861 158.002687,51.5453049 C157.94609,52.5440958 158.79314,52.3292201 159.643053,52.491977" id="Fill-28" fill="#FDAE70"></path>
                <path d="M131.324069,37.1757645 C130.636811,37.1034613 129.95552,37.0511858 129.281951,37.0209746 C128.543095,36.9880478 127.78669,36.9659834 127.080829,37.1798379 C126.412524,37.3824904 125.828811,37.7857588 125.295993,38.2253486 C122.975531,40.1395157 120.474304,43.8884182 123.166826,46.3708272 C123.973775,47.1149049 125.074161,47.4706501 126.145764,47.7680096 C129.102941,48.5884639 132.134529,49.1295496 135.16015,49.669617 C143.250001,51.1129648 151.339853,52.5563127 159.429704,54 C159.949184,52.3672382 160.468665,50.7348159 160.988496,49.1023935 C161.412504,47.7707252 149.982886,42.5859427 148.66804,42.0370496 C143.414621,39.8438534 137.158745,37.7891534 131.324069,37.1757645" id="Fill-29" fill="#4A90E2"></path>
            </g>
        </g>
    </g>
</svg>