<?xml version="1.0" encoding="UTF-8"?>
<svg width="20px" height="18px" viewBox="0 0 20 18" version="1.1" xmlns="http://www.w3.org/2000/svg" xmlns:xlink="http://www.w3.org/1999/xlink">
    <!-- Generator: Sketch 59.1 (86144) - https://sketch.com -->
    <title>Fill 3063</title>
    <desc>Created with Sketch.</desc>
    <g id="Home-Page" stroke="none" stroke-width="1" fill="none" fill-rule="evenodd">
        <g transform="translate(-663.000000, -2753.000000)" fill="#FFFFFF" id="Group-11">
            <g transform="translate(1.000000, 2525.000000)">
                <path d="M681.448055,228.33 C680.654801,228.855 679.776222,229.23 678.841649,229.4325 C678.094391,228.5475 677.027831,228 675.846615,228 C673.581509,228 671.744359,230.0325 671.744359,232.545 C671.744359,232.8975 671.781022,233.2425 671.849682,233.58 C668.440023,233.385 665.416992,231.5775 663.393194,228.8325 C663.040563,229.5 662.83725,230.28 662.83725,231.1125 C662.83725,232.6875 663.563177,234.0825 664.663067,234.9 C663.991134,234.87 663.357864,234.6675 662.804586,234.33 L662.804586,234.3825 C662.804586,236.5875 664.219111,238.425 666.096257,238.845 C665.751625,238.9425 665.389661,239.0025 665.014365,239.0025 C664.750392,239.0025 664.493751,238.9725 664.242442,238.92 C664.765723,240.7275 666.280239,242.04 668.075392,242.0775 C666.670866,243.2925 664.902376,244.02 662.979235,244.02 C662.647269,244.02 662.321301,243.9975 662,243.96 C663.817152,245.25 665.974269,246 668.290704,246 C675.83795,246 679.963537,239.0775 679.963537,233.07 C679.963537,232.875 679.960871,232.6725 679.953538,232.485 C680.754125,231.84 681.450722,231.0375 682,230.13 C681.264074,230.49 680.474153,230.7375 679.643569,230.8425 C680.490818,230.28 681.140753,229.395 681.448055,228.33" id="Fill-3063"></path>
            </g>
        </g>
    </g>
</svg>