<?xml version="1.0" encoding="UTF-8"?>
<svg width="25px" height="19px" viewBox="0 0 25 19" version="1.1" xmlns="http://www.w3.org/2000/svg" xmlns:xlink="http://www.w3.org/1999/xlink">
    <!-- Generator: Sketch 59.1 (86144) - https://sketch.com -->
    <title>Fill 3175</title>
    <desc>Created with Sketch.</desc>
    <g id="Home-Page" stroke="none" stroke-width="1" fill="none" fill-rule="evenodd">
        <g transform="translate(-757.000000, -2753.000000)" fill="#FFFFFF" id="Group-11">
            <g transform="translate(1.000000, 2525.000000)">
                <path d="M767,241 L767,233 L773,237.013652 L767,241 Z M780.75,232.093636 C780.75,232.093636 780.508333,230.236818 779.758333,229.416364 C778.808333,228.336818 777.741667,228.328182 777.25,228.267727 C773.75,228 768.508333,228 768.508333,228 L768.491667,228 C768.491667,228 763.25,228 759.75,228.267727 C759.258333,228.328182 758.191667,228.336818 757.241667,229.416364 C756.491667,230.236818 756.25,232.093636 756.25,232.093636 C756.25,232.093636 756,234.278636 756,236.472273 L756,238.519091 C756,240.704091 756.25,242.889091 756.25,242.889091 C756.25,242.889091 756.491667,244.754545 757.241667,245.575 C758.191667,246.645909 759.441667,246.611364 760,246.723636 C762,246.930909 768.5,247 768.5,247 C768.5,247 773.75,246.991364 777.25,246.715 C777.741667,246.654545 778.808333,246.645909 779.758333,245.575 C780.508333,244.754545 780.75,242.889091 780.75,242.889091 C780.75,242.889091 781,240.704091 781,238.519091 L781,236.472273 C781,234.278636 780.75,232.093636 780.75,232.093636 L780.75,232.093636 Z" id="Fill-3175"></path>
            </g>
        </g>
    </g>
</svg>