<?xml version="1.0" encoding="UTF-8"?>
<svg width="168px" height="119px" viewBox="0 0 168 119" version="1.1" xmlns="http://www.w3.org/2000/svg" xmlns:xlink="http://www.w3.org/1999/xlink">
    <!-- Generator: Sketch 59.1 (86144) - https://sketch.com -->
    <title>Group 238</title>
    <desc>Created with Sketch.</desc>
    <defs>
        <path d="M32.2800275,4.24738346 C25.9881967,6.93040814 20.3387623,10.7702289 15.4886191,15.6601631 L15.4886191,15.6601631 C10.6384759,20.5500973 6.82990115,26.2459485 4.16870916,32.5893299 L4.16870916,32.5893299 C1.41225712,39.1596504 0.0146814121,46.1359647 0.0146814121,53.3241435 L0.0146814121,53.3241435 C0.0146814121,60.5122541 1.41225712,67.4885684 4.16870916,74.0590254 L4.16870916,74.0590254 C6.82990115,80.4024067 10.6384759,86.0981897 15.4886191,90.9880557 L15.4886191,90.9880557 C20.3387623,95.8779218 25.9881967,99.7177425 32.2800275,102.400835 L32.2800275,102.400835 C38.7969507,105.179902 45.7163611,106.589011 52.8460472,106.589011 L52.8460472,106.589011 C59.975801,106.589011 66.8952791,105.179902 73.4122023,102.400835 L73.4122023,102.400835 C79.7040331,99.7177425 85.3534675,95.8779218 90.203543,90.9880557 L90.203543,90.9880557 C95.0536862,86.0981897 98.8623286,80.4024067 101.523453,74.0590254 L101.523453,74.0590254 C104.279905,67.4885684 105.677548,60.5122541 105.677548,53.3241435 L105.677548,53.3241435 C105.677548,46.1359647 104.279905,39.1596504 101.523453,32.5893299 L101.523453,32.5893299 C98.8623286,26.2459485 95.0536862,20.5500973 90.203543,15.6601631 L90.203543,15.6601631 C85.3534675,10.7702289 79.7040331,6.93040814 73.4122023,4.24738346 L73.4122023,4.24738346 C66.8952791,1.46831721 59.975801,0.0592756508 52.8460472,0.0592756508 L52.8460472,0.0592756508 C45.7163611,0.0592756508 38.7969507,1.46831721 32.2800275,4.24738346 M11.2400756,53.3241435 C11.2400756,30.1942935 29.9044803,11.3767641 52.8460472,11.3767641 L52.8460472,11.3767641 C75.7877495,11.3767641 94.4520866,30.1942935 94.4520866,53.3241435 L94.4520866,53.3241435 C94.4520866,76.4539254 75.7877495,95.2714548 52.8460472,95.2714548 L52.8460472,95.2714548 C29.9044803,95.2714548 11.2400756,76.4539254 11.2400756,53.3241435" id="path-1"></path>
        <polygon id="path-3" points="0.0159431603 0.0668900189 0.87286576 1.84424066 3.67244908 1.84424066 2.81552648 0.0668900189"></polygon>
        <linearGradient x1="-0.000704211629%" y1="49.9988549%" x2="100.002217%" y2="49.9988549%" id="linearGradient-5">
            <stop stop-color="#FFAE70" offset="0%"></stop>
            <stop stop-color="#FFD870" offset="100%"></stop>
        </linearGradient>
        <polygon id="path-6" points="0.0488389175 0.0668900189 1.04868586 1.84424066 1.82699117 1.84424066 0.827248132 0.0668900189"></polygon>
        <linearGradient x1="0.00410881253%" y1="49.9988549%" x2="100.000015%" y2="49.9988549%" id="linearGradient-8">
            <stop stop-color="#FFAE70" offset="0%"></stop>
            <stop stop-color="#FFD870" offset="100%"></stop>
        </linearGradient>
        <polygon id="path-9" points="0.0189876643 0.0819586941 0.318326774 0.93011215 9.33590861 0.93011215 9.03664035 0.0819586941"></polygon>
        <linearGradient x1="0.000421815472%" y1="49.9978168%" x2="99.9995909%" y2="49.9978168%" id="linearGradient-11">
            <stop stop-color="#FFAE70" offset="0%"></stop>
            <stop stop-color="#FFD870" offset="100%"></stop>
        </linearGradient>
        <polygon id="path-12" points="2.62900812e-13 0 113.070979 0 113.070979 111.284376 2.62900812e-13 111.284376"></polygon>
    </defs>
    <g id="Services-Page" stroke="none" stroke-width="1" fill="none" fill-rule="evenodd">
        <g transform="translate(-1001.000000, -935.000000)" id="Group-238">
            <g transform="translate(1001.000000, 935.000000)">
                <g id="Group-6" transform="translate(15.898626, 0.227909)">
                    <mask id="mask-2" fill="white">
                        <use xlink:href="#path-1"></use>
                    </mask>
                    <g id="Clip-5"></g>
                    <path d="M32.2800275,4.24738346 C25.9881967,6.93040814 20.3387623,10.7702289 15.4886191,15.6601631 L15.4886191,15.6601631 C10.6384759,20.5500973 6.82990115,26.2459485 4.16870916,32.5893299 L4.16870916,32.5893299 C1.41225712,39.1596504 0.0146814121,46.1359647 0.0146814121,53.3241435 L0.0146814121,53.3241435 C0.0146814121,60.5122541 1.41225712,67.4885684 4.16870916,74.0590254 L4.16870916,74.0590254 C6.82990115,80.4024067 10.6384759,86.0981897 15.4886191,90.9880557 L15.4886191,90.9880557 C20.3387623,95.8779218 25.9881967,99.7177425 32.2800275,102.400835 L32.2800275,102.400835 C38.7969507,105.179902 45.7163611,106.589011 52.8460472,106.589011 L52.8460472,106.589011 C59.975801,106.589011 66.8952791,105.179902 73.4122023,102.400835 L73.4122023,102.400835 C79.7040331,99.7177425 85.3534675,95.8779218 90.203543,90.9880557 L90.203543,90.9880557 C95.0536862,86.0981897 98.8623286,80.4024067 101.523453,74.0590254 L101.523453,74.0590254 C104.279905,67.4885684 105.677548,60.5122541 105.677548,53.3241435 L105.677548,53.3241435 C105.677548,46.1359647 104.279905,39.1596504 101.523453,32.5893299 L101.523453,32.5893299 C98.8623286,26.2459485 95.0536862,20.5500973 90.203543,15.6601631 L90.203543,15.6601631 C85.3534675,10.7702289 79.7040331,6.93040814 73.4122023,4.24738346 L73.4122023,4.24738346 C66.8952791,1.46831721 59.975801,0.0592756508 52.8460472,0.0592756508 L52.8460472,0.0592756508 C45.7163611,0.0592756508 38.7969507,1.46831721 32.2800275,4.24738346 M11.2400756,53.3241435 C11.2400756,30.1942935 29.9044803,11.3767641 52.8460472,11.3767641 L52.8460472,11.3767641 C75.7877495,11.3767641 94.4520866,30.1942935 94.4520866,53.3241435 L94.4520866,53.3241435 C94.4520866,76.4539254 75.7877495,95.2714548 52.8460472,95.2714548 L52.8460472,95.2714548 C29.9044803,95.2714548 11.2400756,76.4539254 11.2400756,53.3241435" id="Fill-4" fill="#0280DA" mask="url(#mask-2)"></path>
                </g>
                <g id="Group-13" transform="translate(41.149386, 88.137961)">
                    <path d="M111.503696,7.03991174 L111.503696,18.3013432 L82.7765776,18.3013432 C84.5580766,14.6716144 86.1196083,10.9118306 87.4419046,7.03991174 L111.503696,7.03991174 Z" id="Fill-7" fill="#27A9E0"></path>
                    <path d="M87.4418844,7.03991174 C86.1195881,10.9118306 84.5580564,14.6716144 82.7765573,18.3013432 L0.00203461296,18.3013432 L0.00203461296,7.03991174 L87.4418844,7.03991174 Z" id="Fill-9" fill="#0280DA"></path>
                    <polygon id="Fill-11" fill="#27A9E0" points="126.225636 12.6148857 110.022774 0.0306403033 110.022774 25.1991312"></polygon>
                </g>
                <polygon id="Fill-14" fill="#DB5A28" points="0 106.842227 69.2057852 106.842227 69.2057852 94.6844538 0 94.6844538"></polygon>
                <g id="Group-71" transform="translate(38.343746, 35.766015)">
                    <polygon id="Fill-16" fill="#E0E0E0" points="1.69421437 1.35371269 14.4571403 1.35371269 14.4571403 0.00872255257 1.69421437 0.00872255257"></polygon>
                    <polygon id="Fill-18" fill="#E0E0E0" points="18.0290033 11.4819699 27.2437545 11.4819699 27.2437545 10.136911 18.0290033 10.136911"></polygon>
                    <polygon id="Fill-19" fill="#1487E3" points="28.6792659 11.4819699 34.794252 11.4819699 34.794252 10.136911 28.6792659 10.136911"></polygon>
                    <polygon id="Fill-20" fill="#1487E3" points="41.172412 52.1444495 47.2873982 52.1444495 47.2873982 50.7993907 41.172412 50.7993907"></polygon>
                    <polygon id="Fill-21" fill="#1487E3" points="1.83901332 36.9520294 7.9539995 36.9520294 7.9539995 35.6070393 1.83901332 35.6070393"></polygon>
                    <polygon id="Fill-22" fill="#E0E0E0" points="36.0023557 11.4819699 50.7663763 11.4819699 50.7663763 10.136911 36.0023557 10.136911"></polygon>
                    <polygon id="Fill-23" fill="#E0E0E0" points="1.83901332 31.8505724 11.3260132 31.8505724 11.3260132 30.5055136 1.83901332 30.5055136"></polygon>
                    <polygon id="Fill-24" fill="#E0E0E0" points="27.3304337 42.016261 36.8174336 42.016261 36.8174336 40.6712022 27.3304337 40.6712022"></polygon>
                    <polygon id="Fill-25" fill="#E0E0E0" points="15.0633607 42.016261 20.8548514 42.016261 20.8548514 40.6712022 15.0633607 40.6712022"></polygon>
                    <polygon id="Fill-26" fill="#1487E3" points="1.83908004 42.016261 13.3134955 42.016261 13.3134955 40.6712022 1.83908004 40.6712022"></polygon>
                    <polygon id="Fill-27" fill="#E0E0E0" points="1.83908004 47.0803553 8.16792826 47.0803553 8.16792826 45.7352964 1.83908004 45.7352964"></polygon>
                    <polygon id="Fill-28" fill="#78C2FF" points="16.9400084 1.35371269 26.0003519 1.35371269 26.0003519 0.00872255257 16.9400084 0.00872255257"></polygon>
                    <polygon id="Fill-29" fill="#1487E3" points="16.9400084 16.5461328 26.0003519 16.5461328 26.0003519 15.201074 16.9400084 15.201074"></polygon>
                    <polygon id="Fill-30" fill="#E0E0E0" points="12.4098033 21.610227 16.2810064 21.610227 16.2810064 20.2652369 12.4098033 20.2652369"></polygon>
                    <polygon id="Fill-31" fill="#78C2FF" points="8.53860021 26.7491154 17.2338769 26.7491154 17.2338769 25.4040566 8.53860021 25.4040566"></polygon>
                    <polygon id="Fill-32" fill="#1487E3" points="18.5484778 26.7491154 30.5523103 26.7491154 30.5523103 25.4040566 18.5484778 25.4040566"></polygon>
                    <polygon id="Fill-33" fill="#1487E3" points="1.83908004 21.6475898 10.8994235 21.6475898 10.8994235 20.3025996 1.83908004 20.3025996"></polygon>
                    <polygon id="Fill-34" fill="#1487E3" points="1.83901332 26.7491154 7.21499107 26.7491154 7.21499107 25.4040566 1.83901332 25.4040566"></polygon>
                    <polygon id="Fill-35" fill="#FF8761" points="18.1062071 21.6475898 23.1781071 21.6475898 23.1781071 20.3025996 18.1062071 20.3025996"></polygon>
                    <polygon id="Fill-36" fill="#FF8761" points="1.99108557 52.1444495 7.06298554 52.1444495 7.06298554 50.7993907 1.99108557 50.7993907"></polygon>
                    <polygon id="Fill-37" fill="#78C2FF" points="1.80278022 11.4819699 10.8631237 11.4819699 10.8631237 10.136911 1.80278022 10.136911"></polygon>
                    <polygon id="Fill-38" fill="#78C2FF" points="9.81523312 36.9520294 18.8755766 36.9520294 18.8755766 35.6070393 9.81523312 35.6070393"></polygon>
                    <polygon id="Fill-39" fill="#78C2FF" points="9.92693516 47.0803553 18.9872787 47.0803553 18.9872787 45.7352964 9.92693516 45.7352964"></polygon>
                    <polygon id="Fill-40" fill="#78C2FF" points="26.0221051 47.0803553 35.0824487 47.0803553 35.0824487 45.7352964 26.0221051 45.7352964"></polygon>
                    <polygon id="Fill-41" fill="#78C2FF" points="1.80271349 16.5461328 14.7184457 16.5461328 14.7184457 15.201074 1.80271349 15.201074"></polygon>
                    <polygon id="Fill-42" fill="#78C2FF" points="30.0490505 52.1444495 39.109394 52.1444495 39.109394 50.7993907 30.0490505 50.7993907"></polygon>
                    <polygon id="Fill-43" fill="#1487E3" points="28.439647 1.35371269 39.9828586 1.35371269 39.9828586 0.00872255257 28.439647 0.00872255257"></polygon>
                    <polygon id="Fill-44" fill="#1487E3" points="8.97780144 52.1444495 20.5210131 52.1444495 20.5210131 50.7993907 8.97780144 50.7993907"></polygon>
                    <polygon id="Fill-45" fill="#1487E3" points="49.2283713 52.1444495 60.771583 52.1444495 60.771583 50.7993907 49.2283713 50.7993907"></polygon>
                    <polygon id="Fill-46" fill="#1487E3" points="47.4516816 42.016261 58.9948932 42.016261 58.9948932 40.6712022 47.4516816 40.6712022"></polygon>
                    <polygon id="Fill-47" fill="#1487E3" points="44.2299384 16.5461328 55.7731501 16.5461328 55.7731501 15.201074 44.2299384 15.201074"></polygon>
                    <polygon id="Fill-48" fill="#FF8761" points="22.6680411 42.016261 25.1564477 42.016261 25.1564477 40.6712022 22.6680411 40.6712022"></polygon>
                    <polygon id="Fill-49" fill="#FF8761" points="48.5205247 1.35371269 60.0637363 1.35371269 60.0637363 0.00872255257 48.5205247 0.00872255257"></polygon>
                    <polygon id="Fill-50" fill="#FF8761" points="35.3489588 16.5461328 42.1173419 16.5461328 42.1173419 15.201074 35.3489588 15.201074"></polygon>
                    <polygon id="Fill-51" fill="#FF8761" points="30.0490505 37.0268236 36.8174336 37.0268236 36.8174336 35.6817648 30.0490505 35.6817648"></polygon>
                    <polygon id="Fill-52" fill="#E0E0E0" points="42.1172751 1.35371269 46.342535 1.35371269 46.342535 0.00872255257 42.1172751 0.00872255257"></polygon>
                    <polygon id="Fill-53" fill="#E0E0E0" points="28.439647 16.5461328 32.6649068 16.5461328 32.6649068 15.201074 28.439647 15.201074"></polygon>
                    <polygon id="Fill-54" fill="#1487E3" points="1.69421437 6.41787561 8.30438625 6.41787561 8.30438625 5.0728168 1.69421437 5.0728168"></polygon>
                    <polygon id="Fill-55" fill="#1487E3" points="19.3313263 31.8880039 24.5503607 31.8880039 24.5503607 30.542945 19.3313263 30.542945"></polygon>
                    <polygon id="Fill-56" fill="#1487E3" points="9.92693516 6.41787561 12.0613517 6.41787561 12.0613517 5.0728168 9.92693516 5.0728168"></polygon>
                    <polygon id="Fill-57" fill="#E0E0E0" points="36.8175003 47.0803553 54.4590163 47.0803553 54.4590163 45.7352964 36.8175003 45.7352964"></polygon>
                    <polygon id="Fill-58" fill="#FF8761" points="13.6295176 6.41787561 15.8075072 6.41787561 15.8075072 5.0728168 13.6295176 5.0728168"></polygon>
                    <polygon id="Fill-59" fill="#1487E3" points="46.3426017 6.41787561 52.1142076 6.41787561 52.1142076 5.0728168 46.3426017 5.0728168"></polygon>
                    <polygon id="Fill-60" fill="#FF8761" points="52.1142076 11.4819699 57.8858134 11.4819699 57.8858134 10.136911 52.1142076 10.136911"></polygon>
                    <polygon id="Fill-61" fill="#FF8761" points="39.2315056 42.016261 45.0031114 42.016261 45.0031114 40.6712022 39.2315056 40.6712022"></polygon>
                    <polygon id="Fill-62" fill="#FF8761" points="22.435829 52.1444495 28.2074348 52.1444495 28.2074348 50.7993907 22.435829 50.7993907"></polygon>
                    <polygon id="Fill-63" fill="#1487E3" points="32.5341874 6.41787561 44.8146059 6.41787561 44.8146059 5.0728168 32.5341874 5.0728168"></polygon>
                    <polygon id="Fill-64" fill="#1487E3" points="21.1035453 37.0268236 28.2782996 37.0268236 28.2782996 35.6817648 21.1035453 35.6817648"></polygon>
                    <polygon id="Fill-65" fill="#1487E3" points="20.6421237 47.0803553 24.2295343 47.0803553 24.2295343 45.7352964 20.6421237 45.7352964"></polygon>
                    <polygon id="Fill-66" fill="#78C2FF" points="26.5666026 6.41787561 30.7918624 6.41787561 30.7918624 5.0728168 26.5666026 5.0728168"></polygon>
                    <polygon id="Fill-67" fill="#FF8761" points="12.344477 11.4819699 16.5697368 11.4819699 16.5697368 10.136911 12.344477 10.136911"></polygon>
                    <polygon id="Fill-68" fill="#FF8761" points="13.1866463 31.8880039 17.4119062 31.8880039 17.4119062 30.542945 13.1866463 30.542945"></polygon>
                    <polygon id="Fill-69" fill="#1487E3" points="17.5933386 6.41787561 24.9548635 6.41787561 24.9548635 5.0728168 17.5933386 5.0728168"></polygon>
                    <path d="M0.0937167809,56.0632055 C0.091294657,56.0620471 0.0884512942,56.0617312 0.0848707632,56.0624683 C0.12193979,56.0785807 0.127205276,56.0800551 0.0937167809,56.0632055" id="Fill-70" fill="#323657"></path>
                </g>
                <g id="Group-74" transform="translate(89.780478, 23.608242)">
                    <mask id="mask-4" fill="white">
                        <use xlink:href="#path-3"></use>
                    </mask>
                    <g id="Clip-73"></g>
                    <polygon id="Fill-72" fill="url(#linearGradient-5)" mask="url(#mask-4)" points="0.0159431603 0.0668900189 0.87286576 1.84424066 3.67244908 1.84424066 2.81552648 0.0668900189"></polygon>
                </g>
                <g id="Group-77" transform="translate(88.845265, 23.608242)">
                    <mask id="mask-7" fill="white">
                        <use xlink:href="#path-6"></use>
                    </mask>
                    <g id="Clip-76"></g>
                    <polygon id="Fill-75" fill="url(#linearGradient-8)" mask="url(#mask-7)" points="0.0488389175 0.0668900189 1.04868586 1.84424066 1.82699117 1.84424066 0.827248132 0.0668900189"></polygon>
                </g>
                <g id="Group-80" transform="translate(82.298772, 22.673029)">
                    <mask id="mask-10" fill="white">
                        <use xlink:href="#path-9"></use>
                    </mask>
                    <g id="Clip-79"></g>
                    <polygon id="Fill-78" fill="url(#linearGradient-11)" mask="url(#mask-10)" points="0.0189876643 0.0819586941 0.318326774 0.93011215 9.33590861 0.93011215 9.03664035 0.0819586941"></polygon>
                </g>
                <g id="Group-90" transform="translate(38.343746, 16.126535)">
                    <polygon id="Fill-81" fill="#FFD770" points="86.7238927 42.3962688 93.4932006 42.3962688 93.4932006 41.9185886 86.7238927 41.9185886"></polygon>
                    <polygon id="Fill-83" fill="#FFD770" points="86.7238927 44.8268705 93.4932006 44.8268705 93.4932006 42.8188165 86.7238927 42.8188165"></polygon>
                    <polygon id="Fill-84" fill="#FFD770" points="83.5439645 45.8021061 87.5374539 45.8021061 87.5374539 45.5020755 83.5439645 45.5020755"></polygon>
                    <polygon id="Fill-85" fill="#FFD770" points="83.5439645 46.7460317 87.5374539 46.7460317 87.5374539 45.9334035 83.5439645 45.9334035"></polygon>
                    <polygon id="Fill-86" fill="#FFD770" points="85.5685019 44.4781735 85.8666476 44.4781735 85.8666476 38.8519193 85.5685019 38.8519193"></polygon>
                    <polygon id="Fill-87" fill="#FFFFFF" points="0.064781949 1.48803737 5.39685028 1.48803737 5.39685028 0.515796688 0.064781949 0.515796688"></polygon>
                    <polygon id="Fill-88" fill="#FFFFFF" points="0.064781949 0.245034056 5.39685028 0.245034056 5.39685028 0.0620752942 0.064781949 0.0620752942"></polygon>
                    <polygon id="Fill-89" stroke="#F09A0C" stroke-width="0.5" fill="#FF8761" points="52.9374893 19.6723958 59.8622604 12.702266 88.3119498 12.702266 88.3119498 12.3467624 59.7159938 12.3467624 52.687761 19.4210317"></polygon>
                </g>
                <polygon id="Fill-91" fill="#FEBA40" points="28.9916127 107.77744 108.484744 107.77744 108.484744 92.8140272 28.9916127 92.8140272"></polygon>
                <g id="Group-97" transform="translate(9.352133, 24.543455)" stroke-width="0.5">
                    <polygon id="Fill-93" stroke="#4A90E2" fill="#78C2FF" points="37.9640068 27.9922705 38.2130227 27.7370678 25.0176055 14.2138142 0.0441323938 14.2138142 0.0441323938 14.5747467 24.8716888 14.5747467"></polygon>
                    <polygon id="Fill-95" stroke="#178FE3" fill="#1487E3" points="64.2570081 11.7248868 64.5060241 11.4696841 53.3692195 0.0561197093 37.7060295 0.0561197093 37.7060295 0.417052158 53.2233028 0.417052158"></polygon>
                </g>
                <g id="Group-237" transform="translate(10.287346, 6.774402)">
                    <g id="Fill-101-+-Fill-103-+-Fill-104-+-Fill-105-+-Fill-106-+-Fill-107-+-Fill-108-+-Fill-109-+-Fill-110-+-Fill-111-+-Fill-112-+-Fill-113-+-Fill-114-+-Fill-115-+-Fill-116-+-Fill-117-+-Fill-118-+-Fill-119-+-Fill-120-+-Fill-121-+-Fill-122-+-Fill-123-+-Fill-124-+-Fill-125-+-Fill-126-+-Fill-127-+-Fill-128-+-Fill-129-+-Fill-130-+-Fill-131-+-Fill-132-+-Fill-133-+-Fill-134-+-Fill-135-+-Fill-136-+-Fill-137-+-Fill-138-+-Fill-139-+-Fill-140-+-Fill-141-+-Fill-142-+-Fill-143-+-Fill-144-+-Fill-145-+-Fill-146-+-Fill-147-+-Fill-148-+-Fill-149-+-Fill-150-+-Fill-151-+-Fill-152-+-Fill-153-+-Fill-154-+-Fill-155-+-Fill-156-+-Fill-157-+-Fill-158-+-Fill-159-+-Fill-160-+-Fill-161-+-Fill-162-+-Fill-163-+-Fill-164-+-Fill-165-+-Fill-166-+-Fill-167-+-Fill-168-+-Fill-169-+-Fill-170-+-Fill-171-+-Fill-172-+-Fill-173-+-Fill-174-+-Fill-175-+-Fill-176-+-Fill-177-+-Fill-178-+-Fill-179-+-Fill-180-+-Fill-181-+-Fill-182-+-Fill-183-+-Fill-184-+-Fill-185-+-Fill-186-+-Fill-187-+-Fill-188-+-Fill-189-+-Fill-190-+-Fill-191-+-Fill-192-+-Fill-193-+-Fill-194-+-Fill-195-+-Fill-196-+-Fill-197-+-Fill-198-+-Fill-199-+-Fill-200-+-Fill-201-+-Fill-202-+-Fill-203-+-Fill-204-+-Fill-205-+-Fill-206-+-Fill-207-+-Fill-208-+-Fill-209-+-Fill-210-+-Fill-211-+-Fill-212-+-Fill-213-+-Fill-214-+-Fill-215-+-Fill-216-+-Fill-217-+-Fill-218-+-Fill-219-+-Fill-220-+-Fill-221-+-Fill-222-+-Fill-223-+-Fill-224-+-Fill-225-+-Fill-226-+-Fill-227-+-Fill-228-+-Fill-229-+-Fill-230-+-Fill-231-+-Fill-232-+-Fill-233-+-Fill-234-+-Fill-235-+-Fill-236-Mask" transform="translate(0.066166, 0.006009)">
                        <mask id="mask-13" fill="white">
                            <use xlink:href="#path-12"></use>
                        </mask>
                        <g id="Mask"></g>
                        <polygon id="Fill-101" fill="#609AE8" mask="url(#mask-13)" points="100.975622 20.1722777 103.486319 20.1722777 103.486319 12.4604966 100.975622 12.4604966"></polygon>
                        <path d="M111.968303,16.1753669 L92.4936924,16.1753669 C91.8846925,16.1753669 91.3910842,15.6761325 91.3910842,15.0602756 L91.3910842,1.82417108 C91.3910842,1.20838252 91.8846925,0.709079711 92.4936924,0.709079711 L111.968303,0.709079711 C112.577303,0.709079711 113.070979,1.20838252 113.070979,1.82417108 L113.070979,15.0602756 C113.070979,15.6761325 112.577303,16.1753669 111.968303,16.1753669" id="Fill-103" fill="#9CC7FF" mask="url(#mask-13)"></path>
                        <polygon id="Fill-104" fill="#FFFFFF" mask="url(#mask-13)" points="92.2400675 13.7516838 112.221941 13.7516838 112.221941 1.59163707 92.2400675 1.59163707"></polygon>
                        <polygon id="Fill-105" fill="#9CC7FF" mask="url(#mask-13)" points="96.5833741 20.4633554 107.878702 20.4633554 107.878702 19.8812 96.5833741 19.8812"></polygon>
                        <polygon id="Fill-106" fill="#308DFC" mask="url(#mask-13)" points="104.739402 12.7897877 111.161583 12.7897877 111.161583 5.2819934 104.739402 5.2819934"></polygon>
                        <polygon id="Fill-107" fill="#D7D7E6" mask="url(#mask-13)" points="97.1300476 6.21791272 103.746981 6.21791272 103.746981 5.2819934 97.1300476 5.2819934"></polygon>
                        <polygon id="Fill-108" fill="#D7D7E6" mask="url(#mask-13)" points="97.1300476 8.13958594 103.746981 8.13958594 103.746981 7.20373498 97.1300476 7.20373498"></polygon>
                        <polygon id="Fill-109" fill="#DB5A28" mask="url(#mask-13)" points="97.1300476 12.7897877 103.746981 12.7897877 103.746981 8.92907774 97.1300476 8.92907774"></polygon>
                        <polygon id="Fill-110" fill="#D7D7E6" mask="url(#mask-13)" points="93.3874262 12.7897877 96.1949499 12.7897877 96.1949499 5.06843618 93.3874262 5.06843618"></polygon>
                        <polygon id="Fill-111" fill="#D7D7E6" mask="url(#mask-13)" points="93.4527269 4.45606562 111.226883 4.45606562 111.226883 2.52796655 93.4527269 2.52796655"></polygon>
                        <path d="M40.091138,15.7360365 L48.9881195,15.7360365 C49.5708233,15.7360365 50.0431379,15.2583355 50.0431379,14.6691391 L50.0431379,1.0669658 C50.0431379,0.477700986 49.5708233,1.86517468e-13 48.9881195,1.86517468e-13 L40.091138,1.86517468e-13 C39.5084342,1.86517468e-13 39.0360521,0.477700986 39.0360521,1.0669658 L39.0360521,14.6691391 C39.0360521,15.2583355 39.5084342,15.7360365 40.091138,15.7360365" id="Fill-112" fill="#9CC7FF" mask="url(#mask-13)"></path>
                        <polygon id="Fill-113" fill="#FFFFFF" mask="url(#mask-13)" points="39.6443556 13.6415556 49.4347938 13.6415556 49.4347938 0.727427585 39.6443556 0.727427585"></polygon>
                        <polygon id="Fill-114" fill="#D7D7E6" mask="url(#mask-13)" points="40.3023648 3.37522271 48.8232927 3.37522271 48.8232927 1.65610073 40.3023648 1.65610073"></polygon>
                        <polygon id="Fill-115" fill="#308DFC" mask="url(#mask-13)" points="45.3160512 12.468153 48.8232927 12.468153 48.8232927 4.04173453 45.3160512 4.04173453"></polygon>
                        <polygon id="Fill-116" fill="#D7D7E6" mask="url(#mask-13)" points="40.3023648 5.01771292 44.6645315 5.01771292 44.6645315 4.04173453 40.3023648 4.04173453"></polygon>
                        <polygon id="Fill-117" fill="#D7D7E6" mask="url(#mask-13)" points="40.3023648 6.70470561 44.6645315 6.70470561 44.6645315 5.72879558 40.3023648 5.72879558"></polygon>
                        <polygon id="Fill-118" fill="#D7D7E6" mask="url(#mask-13)" points="40.3023648 8.39176667 44.6645315 8.39176667 44.6645315 7.41578828 40.3023648 7.41578828"></polygon>
                        <polygon id="Fill-119" fill="#DB5A28" mask="url(#mask-13)" points="40.3023648 12.468153 44.6645315 12.468153 44.6645315 9.10284933 40.3023648 9.10284933"></polygon>
                        <path d="M2.99684844,29.265413 L20.1555831,29.265413 L20.1555831,18.2650285 C20.1555831,17.8332655 19.8094084,17.4832614 19.3824528,17.4832614 L3.76991118,17.4832614 C3.34295558,17.4832614 2.99684844,17.8332655 2.99684844,18.2650285 L2.99684844,29.265413 Z" id="Fill-120" fill="#609AE8" mask="url(#mask-13)"></path>
                        <polygon id="Fill-121" fill="#FFFFFF" mask="url(#mask-13)" points="3.47568631 28.6382767 19.6767452 28.6382767 19.6767452 18.1103294 3.47568631 18.1103294"></polygon>
                        <path d="M2.16928734,29.265413 L20.9831172,29.265413 L20.9831172,29.4482082 C20.9831172,29.825283 20.6807466,30.1310581 20.307735,30.1310581 L2.84460186,30.1310581 C2.47165789,30.1310581 2.16928734,29.825283 2.16928734,29.4482082 L2.16928734,29.265413 Z" id="Fill-122" fill="#9CC7FF" mask="url(#mask-13)"></path>
                        <polygon id="Fill-123" fill="#D7D7E6" mask="url(#mask-13)" points="4.1532316 20.33935 18.982503 20.33935 18.982503 18.8754166 4.1532316 18.8754166"></polygon>
                        <polygon id="Fill-124" fill="#DB5A28" mask="url(#mask-13)" points="13.8981756 27.8731895 18.982503 27.8731895 18.982503 21.1663715 13.8981756 21.1663715"></polygon>
                        <polygon id="Fill-125" fill="#308DFC" mask="url(#mask-13)" points="8.1623961 27.8731895 13.2467235 27.8731895 13.2467235 21.1663715 8.1623961 21.1663715"></polygon>
                        <polygon id="Fill-126" fill="#D7D7E6" mask="url(#mask-13)" points="4.1532316 22.1246446 7.25359446 22.1246446 7.25359446 21.1663032 4.1532316 21.1663032"></polygon>
                        <polygon id="Fill-127" fill="#D7D7E6" mask="url(#mask-13)" points="4.1532316 23.6061466 7.25359446 23.6061466 7.25359446 22.6478051 4.1532316 22.6478051"></polygon>
                        <polygon id="Fill-128" fill="#D7D7E6" mask="url(#mask-13)" points="4.1532316 27.8731895 7.25359446 27.8731895 7.25359446 24.1293755 4.1532316 24.1293755"></polygon>
                        <polygon id="Fill-129" fill="#FEBA40" mask="url(#mask-13)" points="9.49557106 46.1436731 5.67696828 43.9141739 5.67696828 45.3841914 2.95763414e-13 45.3841914 2.95763414e-13 46.9030864 5.67696828 46.9030864 5.67696828 48.3731722"></polygon>
                        <polygon id="Fill-130" fill="#FEBA40" mask="url(#mask-13)" points="1.35198104e-05 41.2533425 3.8186163 43.4828417 3.8186163 42.0127558 9.49558458 42.0127558 9.49558458 40.4938609 3.8186163 40.4938609 3.8186163 39.0238434"></polygon>
                        <polygon id="Fill-131" fill="#FFFFFF" mask="url(#mask-13)" points="65.2942611 14.3719021 62.4323877 12.7009741 62.4323877 13.8027352 58.1777711 13.8027352 58.1777711 14.9410007 62.4323877 14.9410007 62.4323877 16.0427618"></polygon>
                        <polygon id="Fill-132" fill="#FFFFFF" mask="url(#mask-13)" points="58.177744 10.7067912 61.0396174 12.3777193 61.0396174 11.2759581 65.2942341 11.2759581 65.2942341 10.1376243 61.0396174 10.1376243 61.0396174 9.03586318"></polygon>
                        <path d="M104.417212,31.4225597 C102.652674,31.2872749 101.108306,32.628912 100.97446,34.4133179 C100.893003,35.5003816 101.353217,36.5499839 102.205506,37.2211442 L102.237818,37.2465059 L102.251879,37.2854028 C102.451634,37.8355656 102.701277,38.6599211 102.756573,39.4630166 L102.756844,39.4740226 C102.754884,39.7705007 102.88927,40.0515978 103.135263,40.2654285 C103.387881,40.4852065 103.72662,40.6077079 104.088478,40.6100017 C104.826862,40.6150224 105.43086,40.1136005 105.434983,39.4922064 L105.435051,39.4867376 L105.435456,39.4812004 C105.486156,38.8640446 105.653869,38.1655402 105.933932,37.4049648 L105.949682,37.3620346 L105.987065,37.3361261 C106.795008,36.7760511 107.300784,35.8895562 107.37467,34.9040757 C107.508449,33.1196697 106.18175,31.5578446 104.417212,31.4225597 M103.954091,40.8936586 C103.574252,40.8645371 103.221385,40.7216643 102.948825,40.4846596 C102.639627,40.2158673 102.470089,39.8584803 102.4709,39.4777824 C102.418511,38.728418 102.187727,37.9540338 101.997301,37.4233537 C101.090054,36.6915579 100.601651,35.5614273 100.689395,34.3914427 C100.83507,32.4480309 102.517138,30.9869003 104.438776,31.1342165 C106.360617,31.2815327 107.805479,32.9825392 107.659803,34.9258826 C107.580442,35.9838932 107.044246,36.9370393 106.186347,37.5481794 C105.925549,38.2653461 105.76899,38.9216723 105.720927,39.4999311 C105.712207,40.2780751 104.980379,40.9052114 104.086517,40.8992387 C104.042037,40.8988539 103.997895,40.8970082 103.954091,40.8936586" id="Fill-133" fill="#FFFFFF" mask="url(#mask-13)"></path>
                        <polygon id="Fill-134" fill="#FFFFFF" mask="url(#mask-13)" points="103.30612 39.6883386 102.848407 35.8363788 103.64256 36.5007714 104.13502 35.9481477 104.560691 36.4665913 105.302793 35.8307049 104.851502 39.6886804 104.567518 39.6547737 104.933432 36.5261331 104.525134 36.8760005 104.126164 36.3900963 103.671425 36.9002684 103.217633 36.5206642 103.590036 39.6537483"></polygon>
                        <polygon id="Fill-135" fill="#FFFFFF" mask="url(#mask-13)" points="105.319301 41.5652085 102.840308 41.5483919 102.847001 40.5381651 105.326061 40.5549817"></polygon>
                        <polygon id="Fill-136" fill="#FFFFFF" mask="url(#mask-13)" points="105.720738 41.1519028 102.444347 41.1296174 102.455163 39.5033969 105.731486 39.525614"></polygon>
                        <path d="M67.3510163,101.11037 C67.3510163,101.11037 67.471275,102.103165 67.6307412,102.54108 C67.7902074,102.978996 68.656354,103.989838 68.2905079,104.960963 C67.8937691,106.013983 66.161949,104.999039 65.4555389,104.677678 C64.7492641,104.356248 64.9100822,103.773614 64.8347093,103.059592 C64.7594039,102.34557 64.4147164,102.326293 64.5418702,101.824187 C64.669024,101.32215 65.4416135,100.361074 65.4416135,100.361074 L67.3510163,101.11037 Z" id="Fill-137" fill="#35527A" mask="url(#mask-13)"></path>
                        <path d="M65.7752757,99.8415023 C65.7752757,99.8415023 65.3318935,100.468912 65.344129,100.486139 C65.3562968,100.503297 67.2430539,101.664874 67.3744664,101.288072 C67.4788394,100.988791 67.522576,100.555046 67.522576,100.555046 L65.7752757,99.8415023 Z" id="Fill-138" fill="#EEA886" mask="url(#mask-13)"></path>
                        <path d="M59.3793104,101.812326 C59.3793104,101.812326 58.8036369,102.322567 58.2867745,103.10659 C57.7698446,103.890545 56.3977867,103.932313 56.3390431,105.002491 C56.2802995,106.072738 58.2045741,106.105756 59.2148419,105.757325 C60.2251097,105.408893 60.3778836,104.363529 60.9887762,104.102119 C61.5996012,103.840847 61.9168436,103.629272 61.8698622,103.119031 C61.8228133,102.608791 61.484818,101.780471 61.484818,101.780471 C61.484818,101.780471 61.1052494,101.903109 60.8820373,101.927924 C60.6588252,101.952875 59.907935,101.961693 59.3793104,101.812326" id="Fill-139" fill="#35527A" mask="url(#mask-13)"></path>
                        <path d="M66.304218,72.814858 C66.304218,72.814858 65.9170106,75.1434111 65.6049734,76.6815153 L65.6049734,76.6815836 C65.4782928,77.305302 65.364118,77.7990676 65.2932066,77.9545187 C65.2039758,78.1501655 64.4771508,78.9393839 63.5876825,79.8654594 C62.0269557,81.4901759 59.9649142,83.5362647 59.9649142,83.5362647 L59.1587955,81.9888635 C59.1587955,81.9888635 60.9903918,79.8175389 62.2319836,78.3685763 C62.8067783,77.6980996 63.2550276,77.1824587 63.3371605,77.1081512 C63.5967408,76.8731972 63.8979622,74.5593416 64.3215378,72.6527077 C64.7450459,70.7460737 65.593752,69.6924381 65.593752,69.6924381 L66.304218,72.814858 Z" id="Fill-140" fill="#FFD670" mask="url(#mask-13)"></path>
                        <path d="M63.5877163,79.8654388 C62.0269219,81.4902238 59.9648804,83.5362442 59.9648804,83.5362442 L59.1587617,81.988843 C59.1587617,81.988843 60.990358,79.8175184 62.2320174,78.3686242 C62.6126676,78.5572983 63.3113038,79.0075869 63.5877163,79.8654388" id="Fill-141" fill="#EEA886" mask="url(#mask-13)"></path>
                        <path d="M59.4696836,101.099357 L59.3793036,101.812354 C59.3793036,101.812354 60.3811216,102.170288 61.4848113,101.780498 L61.5072542,101.146526 L59.4696836,101.099357 Z" id="Fill-142" fill="#EEA886" mask="url(#mask-13)"></path>
                        <path d="M73.6904688,83.2214934 C73.7481308,83.4287614 63.079919,83.2214934 63.079919,83.2214934 C63.079919,83.2214934 66.0309556,81.0493484 66.2221933,80.4690388 C66.4134986,79.8887975 65.4707623,76.4070765 65.3477996,75.2741431 C65.249443,74.3677554 65.0029768,70.3118771 65.5937925,69.6924655 C66.2113775,69.0447527 68.4355214,68.3660728 68.4355214,68.3660728 L71.6779775,68.4878223 C71.6779775,68.4878223 72.2131592,68.6009584 72.5957022,68.7805406 C72.9782452,68.9601912 75.1659533,69.748179 75.5211863,70.8534265 C75.8763517,71.9587424 73.3382778,75.5124467 73.3382778,75.5124467 C73.3382778,75.5124467 73.333343,75.6722045 73.3257044,75.9339556 L73.3257044,75.934024 C73.3158349,76.2830711 73.3013687,76.8134094 73.2881193,77.3887288 C73.2712195,78.1337864 73.2562801,78.9542454 73.2562801,79.5536275 C73.2562801,80.9626677 73.632942,83.0142936 73.6904688,83.2214934" id="Fill-143" fill="#FFD670" mask="url(#mask-13)"></path>
                        <path d="M73.6905364,83.2215617 C73.6905364,83.2215617 75.1416177,85.3767533 75.1622207,86.848138 C75.1825827,88.3194543 72.5870495,93.2474718 72.1942314,93.9526071 C71.0134112,96.0718413 67.7750787,100.643429 67.7750787,100.643429 C67.7750787,100.643429 67.2167781,100.62921 65.4749534,99.9453346 C65.4749534,99.9453346 67.6292675,93.9068058 67.9023677,93.2798062 C69.0604746,90.6211418 69.7069244,88.7351526 69.3175538,88.2791901 C68.9281833,87.8232961 67.866743,87.3662398 67.5593701,87.096764 C67.2519972,86.8274249 61.8969356,88.1200476 61.3358635,88.2672271 C59.8828895,88.6482668 60.5451574,91.2048011 60.8665909,92.3509963 C61.4043414,94.2684996 61.8744252,101.193318 61.8744252,101.193318 C61.8744252,101.193318 60.8394837,101.639232 59.1060412,101.26243 C59.1060412,101.26243 55.7021586,88.7588052 55.5929186,87.5153334 C55.4836109,86.2718616 55.4299372,84.2215345 63.8181683,82.663059 L73.6905364,83.2215617 Z" id="Fill-144" fill="#293F5E" mask="url(#mask-13)"></path>
                        <path d="M69.3252466,61.241827 C69.3252466,61.241827 66.5105573,60.5997198 67.1534919,64.1818619 C67.7964265,67.7640041 68.4733634,68.0455113 70.1715191,67.3042818 C71.8696749,66.5629156 71.717577,64.2679274 71.8030222,63.1424453 C71.888535,62.0170999 70.2231648,61.2808607 69.3252466,61.241827" id="Fill-145" fill="#EEA886" mask="url(#mask-13)"></path>
                        <path d="M68.5804741,69.2855651 C68.5804741,69.2855651 69.8270006,70.6220751 71.7971073,69.407383 C71.7971073,69.407383 71.3564967,66.5110986 71.588429,65.1004178 C71.8203614,63.6897369 69.0179751,67.2862347 69.0179751,67.2862347 C69.0549518,67.3058541 69.0792199,67.4404553 69.0848982,67.6320006 C69.0896977,67.794356 69.0811126,67.9974541 69.055425,68.2060211 C68.9975602,68.6749036 68.8533714,69.1702415 68.5804741,69.2855651" id="Fill-146" fill="#EEA886" mask="url(#mask-13)"></path>
                        <path d="M71.6658975,64.9805413 C71.6658975,64.9805413 71.5932286,63.851983 71.1856063,63.8167775 C70.777984,63.7815037 70.7152521,64.2360305 70.7152521,64.2360305 L70.3035739,64.3146448 C70.3035739,64.3146448 70.4336344,63.3253361 70.0266206,63.1525899 C69.6196067,62.979707 67.3893788,63.6971472 67.0626726,63.4068215 C66.7359664,63.1164274 66.8896866,61.1097825 67.4805699,60.8351796 C68.0715208,60.5606451 69.7034295,59.9452667 70.8991215,60.7636749 C70.8991215,60.7636749 71.8311772,60.6562126 71.9694173,61.4168564 C72.1076573,62.1774319 71.9192588,64.4149975 71.6658975,64.9805413" id="Fill-147" fill="#3A3F47" mask="url(#mask-13)"></path>
                        <path d="M69.0554453,68.2060211 C71.0879459,67.5722538 71.2409902,66.3346609 71.243221,66.315315 C70.5739228,67.4782585 69.0849185,67.6320006 69.0849185,67.6320006 C69.0896504,67.794356 69.0811329,67.9974541 69.0554453,68.2060211" id="Fill-148" fill="#A77860" mask="url(#mask-13)"></path>
                        <path d="M72.6290894,68.7961609 C72.6290894,68.7961609 71.1406935,71.7925246 68.7361276,71.5990653 C66.3315618,71.4056743 68.3263422,68.3939295 68.4355147,68.3661069 C68.5556382,68.3354816 70.9015956,67.7443027 72.6290894,68.7961609" id="Fill-149" fill="#EEA886" mask="url(#mask-13)"></path>
                        <path d="M61.8595466,83.0698226 C61.8595466,83.0698226 69.2270995,83.9883101 73.6905297,83.2215822 L65.1617602,82.1439522 C65.1617602,82.1439522 65.1113313,82.3637986 61.8595466,83.0698226" id="Fill-150" fill="#FFD670" mask="url(#mask-13)"></path>
                        <path d="M67.3698629,81.8046259 L66.8210939,82.0857914 C66.8210939,82.0857914 66.9460845,82.9674327 67.2466299,83.234516 L67.8625248,83.0756469 C67.8625248,83.0756469 67.7341542,82.1085553 67.3698629,81.8046259" id="Fill-151" fill="#EEA886" mask="url(#mask-13)"></path>
                        <path d="M75.8951646,79.9992881 C75.7854513,80.1278052 74.3370064,80.7169333 72.7007714,81.3542554 L72.7006362,81.3543921 C70.4653384,82.2252325 67.9438262,83.0489044 67.9438262,83.0489044 L67.3698427,81.8046806 C67.3698427,81.8046806 70.0103968,80.3537357 71.7946737,79.3361259 C72.6375663,78.8554854 73.2892211,78.4715063 73.3812911,78.3828431 C73.668249,78.1065312 73.7425404,77.6634205 73.5316313,76.8906769 C73.3206547,76.1179334 72.8348203,72.5662115 72.7801327,72.1516753 C72.7255127,71.7372075 72.9167504,70.63196 73.9414844,70.5766566 C74.9661508,70.5214216 75.4876775,70.8138665 75.4876775,70.8138665 C75.4876775,70.8138665 75.7448919,70.9220807 75.9361296,73.4366418 C76.1274349,75.9511345 76.1547449,79.6953587 75.8951646,79.9992881" id="Fill-152" fill="#FFD670" mask="url(#mask-13)"></path>
                        <path d="M73.3257044,75.9339283 L73.3257044,75.934065 C73.3158349,76.2830438 73.3013687,76.8133821 73.2881193,77.3887014 C72.2880589,74.9098927 72.865828,72.9314805 72.8756299,72.8981891 C72.7674714,73.5709217 73.3179305,75.9009103 73.3257044,75.9339283" id="Fill-153" fill="#8F773F" mask="url(#mask-13)"></path>
                        <path d="M65.6049599,76.6814811 L65.6049599,76.6816178 C65.4782793,77.3052678 65.3641045,77.7991018 65.2931931,77.9544845 C64.9516151,76.2827361 65.2589204,74.142447 65.2589204,74.142447 C65.3056313,75.164842 65.6049599,76.6814811 65.6049599,76.6814811" id="Fill-154" fill="#8F773F" mask="url(#mask-13)"></path>
                        <path d="M72.7007782,81.3542759 L72.700643,81.3544126 C70.4653452,82.2251846 67.8625113,83.0756537 67.8625113,83.0756537 L67.3698494,81.8047011 C67.3698494,81.8047011 70.0104035,80.3536878 71.7946805,79.3361464 C71.7946805,79.3361464 72.4437666,79.6557987 72.7007782,81.3542759" id="Fill-155" fill="#EEA886" mask="url(#mask-13)"></path>
                        <polygon id="Fill-156" fill="#444C94" mask="url(#mask-13)" points="67.2109984 83.1494007 56.7392971 82.9936078 62.0264216 85.7083959"></polygon>
                        <polygon id="Fill-157" fill="#303669" mask="url(#mask-13)" points="62.0264013 85.7083686 67.2109781 83.6774558 67.2109781 83.1493734 61.6165483 85.1902667"></polygon>
                        <path d="M66.9396761,82.1050348 C66.9396761,82.1050348 66.2855201,82.0020843 65.83335,81.8956475 C65.4834574,81.8132735 64.6135928,81.9268198 64.3920031,82.153844 C64.170481,82.3808681 63.4657609,83.9629963 63.3325232,84.0595209 C63.1992178,84.1560455 63.4007306,84.3794466 63.6348937,84.2672675 C63.6348937,84.2672675 63.8497235,84.9595511 64.3800381,84.700466 C64.9104202,84.4413125 65.2704527,83.8753585 65.5482172,83.7756894 C65.8259817,83.6760202 67.443289,83.1732994 67.443289,83.1732994 C67.443289,83.1732994 67.3563567,81.9365269 66.9396761,82.1050348" id="Fill-158" fill="#EEA886" mask="url(#mask-13)"></path>
                        <path d="M64.5516923,82.0500937 C64.5516923,82.0500937 64.1315642,82.255311 64.021851,82.3468453 C63.9121377,82.4383112 63.4675387,82.7749168 63.3598535,82.8540779 C63.2521006,82.933239 63.5222264,83.158349 64.3171912,82.810259 C65.1120885,82.4621005 64.5516923,82.0500937 64.5516923,82.0500937" id="Fill-159" fill="#EEA886" mask="url(#mask-13)"></path>
                        <polygon id="Fill-160" fill="#303669" mask="url(#mask-13)" points="62.0264013 85.7083686 58.9115047 77.1081786 48.8702065 77.2740204 51.8387512 85.1992219"></polygon>
                        <path d="M55.6986638,80.9128058 C56.0050903,81.5322858 55.9125472,82.2068641 55.4919459,82.419601 C55.0713446,82.6324063 54.4819484,82.3027051 54.1755895,81.6832934 C53.8692306,81.0638134 53.9617061,80.3891667 54.3823074,80.1764298 C54.8029087,79.9636929 55.3922373,80.2933258 55.6986638,80.9128058" id="Fill-161" fill="#518AFA" mask="url(#mask-13)"></path>
                        <path d="M70.7239386,63.7578032 C70.7610504,63.441774 71.378703,63.3259035 71.4284559,63.799708 C71.4782088,64.2735808 71.1477846,65.1051141 70.9133511,65.0233553 C70.6789176,64.9414598 70.6728337,64.193531 70.7239386,63.7578032" id="Fill-162" fill="#EEA886" mask="url(#mask-13)"></path>
                        <path d="M41.1510979,108.841012 C41.1510979,108.841012 40.1085854,109.542045 39.6338372,109.807214 C39.1590891,110.072384 37.2693576,110.242327 37.0917073,110.432027 C36.9139894,110.621794 37.0124812,111.190414 37.329318,111.232114 C37.6461547,111.273745 39.9583127,111.361041 40.7167064,111.138392 C41.4751002,110.915812 42.9269926,111.144476 43.2393002,111.018215 C43.5516078,110.891954 43.2557944,109.169277 43.1124844,108.786734 C42.969242,108.40419 41.1510979,108.841012 41.1510979,108.841012" id="Fill-163" fill="#1D2033" mask="url(#mask-13)"></path>
                        <polygon id="Fill-164" fill="#50558A" mask="url(#mask-13)" points="42.9620832 108.325172 43.1124911 108.78674 41.1511047 108.841018 41.2148506 108.207183"></polygon>
                        <path d="M52.4364755,107.879498 C52.4364755,107.879498 51.6372519,108.853973 51.2579537,109.24595 C50.8786554,109.637996 49.1169565,110.350104 49.0007538,110.583554 C48.884551,110.816935 49.1405486,111.332918 49.4558306,111.280691 C49.7711802,111.228464 52.0105339,110.639882 52.6735454,110.206137 C53.3366245,109.772392 54.7922348,109.56943 55.0555331,109.35765 C55.3186963,109.145871 54.5456335,107.581995 54.2996406,107.257284 C54.0536476,106.932504 52.4364755,107.879498 52.4364755,107.879498" id="Fill-165" fill="#1D2033" mask="url(#mask-13)"></path>
                        <polygon id="Fill-166" fill="#50558A" mask="url(#mask-13)" points="54.0243637 106.858901 54.299627 107.257304 52.436462 107.879519 52.3174201 107.253818"></polygon>
                        <path d="M37.6469727,68.4310628 C37.6469727,68.4310628 35.8877074,67.5466871 35.7275652,67.5920099 C35.5674907,67.6373327 35.5314604,67.7413769 35.6929545,67.8313389 C35.8544486,67.9212325 37.3713037,68.7379317 37.3713037,68.7379317 C37.3713037,68.7379317 35.1362087,68.0628065 34.9966167,68.0688222 C34.9148894,68.0723085 34.8339734,68.2689124 34.9165118,68.325583 C34.9990503,68.3821853 37.1826348,69.1866479 37.1826348,69.1866479 C37.1826348,69.1866479 35.0948381,68.5603319 34.9805281,68.6028519 C34.8804815,68.6401082 34.8487776,68.8419759 35.0010106,68.8997402 C35.1531761,68.957573 37.0637281,69.6558723 37.0637281,69.6558723 C37.0637281,69.6558723 35.5203741,69.3020399 35.4451364,69.4000684 C35.3991014,69.4600203 35.3217005,69.6262039 35.7222249,69.7042029 C36.1228169,69.7822703 37.0526418,70.0724592 37.0526418,70.0724592 L37.6469727,68.4310628 Z" id="Fill-167" fill="#EEA886" mask="url(#mask-13)"></path>
                        <path d="M39.5301132,69.7829812 C39.5301132,69.7829812 38.9672835,69.4530066 38.9803302,69.0648574 C38.9913488,68.7348828 38.7839549,68.292524 38.7203442,68.1562138 C38.635237,67.9738972 38.5648664,67.3157937 38.353349,67.4222305 C38.1418991,67.5285306 38.4211508,68.5114817 38.4417685,68.7290038 C38.4623862,68.9465259 37.7115636,68.3770856 37.5013981,68.3868611 C37.2913003,68.396705 36.5230371,69.7611743 37.0785661,70.0890981 C37.6340951,70.4169536 38.4176357,70.3788769 38.5053116,70.457081 C38.59292,70.5352851 38.9011717,70.7126797 38.9011717,70.7126797 L39.5301132,69.7829812 Z" id="Fill-168" fill="#EEA886" mask="url(#mask-13)"></path>
                        <path d="M45.4738409,74.1016223 C45.0503328,75.0251001 44.8342187,75.1393983 44.343044,75.261558 C43.2805897,75.5259068 38.3247005,70.9626593 38.3247005,70.9626593 L39.4063529,69.5275055 C39.4063529,69.5275055 40.6173899,70.480925 41.649357,71.1833943 C42.2881004,71.6180967 43.5491607,72.6793886 43.6626595,72.6075421 C43.7760907,72.5355588 45.463701,70.1385772 45.6200576,69.7943153 C45.7764142,69.4495065 46.4440901,66.8084107 46.8400177,66.5130947 C46.8400177,66.5130947 48.21167,68.1317272 45.4738409,74.1016223" id="Fill-169" fill="#DCE6FA" mask="url(#mask-13)"></path>
                        <path d="M46.6370516,86.2558448 C46.6370516,86.2558448 47.0106715,89.0443252 47.392133,91.7223355 L47.392133,91.7227457 C47.4648019,92.2323025 47.5375385,92.7374843 47.6079091,93.21874 L47.6079091,93.2191502 C47.8547809,94.9019729 48.0736666,96.2919406 48.1576922,96.5381056 C48.39679,97.2387292 51.7428755,107.723883 51.7428755,107.723883 C51.7428755,107.723883 54.3455741,107.239073 54.4326417,106.952438 C54.4326417,106.952438 51.5990247,95.9730403 51.6312694,95.5760044 C51.6639874,95.1788317 51.2786728,83.9796557 51.2786728,83.9796557 C51.2786728,83.9796557 46.7684641,85.6118235 46.6370516,86.2558448" id="Fill-170" fill="#292C47" mask="url(#mask-13)"></path>
                        <path d="M44.5163003,82.7830995 C44.5163003,82.7830995 42.1670305,94.1716332 41.9706553,95.0097974 C41.7743476,95.8480984 40.6493642,108.629813 40.6493642,108.629813 C40.6493642,108.629813 41.7263523,108.713486 43.5849206,108.629813 C43.5849206,108.629813 45.6153257,95.6988681 45.8248828,95.2970469 C46.6380993,93.7380245 49.7695578,85.896906 50.1622407,84.8159264 C50.5549235,83.7350834 51.2379444,82.7528159 51.2379444,82.7528159 C51.2379444,82.7528159 48.5237073,80.6373416 44.5163003,82.7830995" id="Fill-171" fill="#292C47" mask="url(#mask-13)"></path>
                        <path d="M49.6819832,64.5882086 C49.6819832,64.5882086 47.2348976,66.4113747 46.5558651,67.1393424 C45.8768326,67.86731 44.440488,70.7972276 44.5569612,71.7228246 C45.0031825,75.2716753 44.8568982,78.4034605 44.7091942,80.8143193 C44.5958306,82.6665385 44.4208167,82.7746843 44.5412782,82.7984053 C45.0077792,82.890008 50.3955588,84.0221894 51.2898942,84.3089604 C51.2898942,84.3089604 51.5085772,78.7561991 51.2249991,77.8958862 C50.9414211,77.0355732 52.2124185,68.0736211 49.6819832,64.5882086" id="Fill-172" fill="#DCE6FA" mask="url(#mask-13)"></path>
                        <path d="M49.6819156,64.5881402 C49.6819156,64.5881402 45.1998281,69.3665856 45.4800938,68.8330344 C46.4791402,66.9303653 47.1588486,66.6186428 47.1513451,66.260162 C47.1456668,65.9860377 47.0538673,65.1852664 47.0404827,64.9173629 C47.0150655,64.4079427 46.9849163,63.99368 46.9849163,63.99368 C46.9849163,63.99368 49.2223097,60.9320323 49.1075941,61.9864882 C48.9930813,63.0410808 49.6819156,64.5881402 49.6819156,64.5881402" id="Fill-173" fill="#EEA886" mask="url(#mask-13)"></path>
                        <path d="M45.5941875,58.795879 C45.5941875,58.795879 44.9644347,60.2200952 44.9499685,60.5557437 C44.9355699,60.8914605 45.0152016,61.1506824 44.9568636,61.5367807 C44.8965653,61.9359358 44.5498497,62.7715708 44.5866236,63.0048841 C44.6310362,63.2868699 45.2190128,63.1511065 45.2914789,63.6154773 C45.3640127,64.0797797 45.7742038,64.9575245 45.9857212,64.9788528 C46.5292176,65.0337461 48.6290469,64.2114414 48.7693149,63.7727741 C48.9095829,63.3341751 49.7079953,60.8885894 49.9511491,60.4251074 C50.1943705,59.9616253 46.3317607,57.3287327 45.9629403,58.0623742 L45.5941875,58.795879 Z" id="Fill-174" fill="#EEA886" mask="url(#mask-13)"></path>
                        <path d="M50.8888967,59.9555344 C51.1863325,58.742688 49.8046755,58.5680277 49.8046755,58.5680277 C49.8046755,58.5680277 48.9220347,57.4910813 46.763259,57.5784456 C44.6044833,57.6657416 44.8838026,60.5179337 44.8838026,60.5179337 C44.8838026,60.5179337 46.3797696,60.3188004 47.0258137,60.4964686 C47.0258137,60.4964686 47.0836109,61.713485 47.0081027,62.0133811 L47.8228065,61.9547281 C47.8228065,61.9547281 47.7506783,60.8742269 48.142212,60.830203 C48.5336781,60.786179 48.6239905,63.1233455 49.342298,63.650881 C49.342298,63.650881 49.3523026,63.4860646 49.4462653,63.3261018 L49.4462653,63.3260334 C49.5959296,63.0713234 49.8288759,62.6450976 50.0326871,62.1452479 C50.3620297,61.4451712 50.736596,60.5766551 50.8888967,59.9555344" id="Fill-175" fill="#16202E" mask="url(#mask-13)"></path>
                        <path d="M47.5959847,61.0814745 C47.5959847,61.0814745 47.9126186,60.2635449 48.6186231,60.8104264 C49.1321055,61.2082143 48.5726557,62.5887483 48.066474,62.5729571 C47.5602924,62.5570975 47.3679731,61.7971373 47.5959847,61.0814745" id="Fill-176" fill="#EEA886" mask="url(#mask-13)"></path>
                        <path d="M48.8934335,63.3901006 C48.8934335,63.3901006 48.7794615,63.8252132 48.6611632,63.9252925 C48.5428648,64.0253034 47.9680025,64.4716271 47.0120843,64.756484 L47.1013151,65.6133106 C47.1013151,65.6133106 48.9617762,64.9255387 48.8934335,63.3901006" id="Fill-177" fill="#C48A6F" mask="url(#mask-13)"></path>
                        <path d="M44.4454633,83.1263633 C44.4454633,83.1263633 44.491363,82.3601823 44.5889761,82.1430704 C44.5889761,82.1430704 48.5668422,83.1641665 51.3150816,83.5771988 C51.3150816,83.5771988 51.3518555,84.0292647 51.2981819,84.5504427 C51.2981819,84.5504427 45.2671298,83.4419823 44.4454633,83.1263633" id="Fill-178" fill="#3D4169" mask="url(#mask-13)"></path>
                        <path d="M45.8272217,83.7522213 C45.8272217,83.7522213 45.6526133,84.418323 45.3887742,84.5588032 C45.1248676,84.699215 46.5795315,86.1563808 46.5795315,86.1563808 C46.5795315,86.1563808 47.2029976,84.840789 47.1890046,84.7067346 C47.174944,84.5726803 45.8272217,83.7522213 45.8272217,83.7522213" id="Fill-179" fill="#EEA987" mask="url(#mask-13)"></path>
                        <path d="M50.7036888,67.5010566 C50.7036888,67.5010566 52.2907793,75.8662243 52.4176627,76.7218204 C52.5379214,77.5323672 47.1892141,85.1496061 47.1892141,85.1496061 L45.4738206,84.078607 C45.4738206,84.078607 49.8160456,76.4175493 49.8160456,76.0646056 C49.8160456,75.7115936 47.9200951,68.9570603 47.9200951,68.9570603 C47.9200951,68.9570603 47.1043773,67.4790447 48.6095378,66.7951693 C50.1146982,66.1113624 50.7036888,67.5010566 50.7036888,67.5010566" id="Fill-180" fill="#DCE6FA" mask="url(#mask-13)"></path>
                        <path d="M44.8006557,84.3089809 C44.8006557,84.3089809 44.1877352,87.1330086 44.2073389,88.0015247 C44.226875,88.8699726 47.4654779,86.6933158 47.3183824,85.8269188 L44.8006557,84.3089809 Z" id="Fill-181" fill="#292C47" mask="url(#mask-13)"></path>
                        <path d="M49.6819156,64.6823337 L46.8581005,66.7677979 C46.8581005,66.7677979 46.1351962,67.7172526 45.4165507,69.4074582 L50.1622069,65.4020297 L49.6819156,64.6823337 Z" id="Fill-182" fill="#DCE6FA" mask="url(#mask-13)"></path>
                        <polygon id="Fill-183" fill="#D5DFF2" mask="url(#mask-13)" points="49.5277695 64.2028759 47.0318097 65.8643702 46.8400312 66.861882 49.7857275 64.7376576"></polygon>
                        <path d="M46.8400177,66.8619162 C46.8400177,66.8619162 44.8290811,70.6416193 44.7707432,74.2392109 C44.7164611,77.5873561 44.5838994,79.9011434 44.5838994,79.9011434 L44.2653051,80.8054803 L43.9931513,79.7242272 C43.9931513,79.7242272 44.0449998,75.8250989 44.1097596,74.0557321 C44.1745871,72.2864338 44.9983492,68.9662479 46.6759548,66.6753613 L46.8400177,66.8619162 Z" id="Fill-184" fill="#292C47" mask="url(#mask-13)"></path>
                        <path d="M46.8400177,66.8619162 C46.8400177,66.8619162 46.7390923,66.9483919 46.6030154,66.9602865 C46.4669385,66.9723179 46.2871251,66.742491 47.0317962,65.864336 L46.8400177,66.8619162 Z" id="Fill-185" fill="#292C47" mask="url(#mask-13)"></path>
                        <path d="M48.7017294,71.7719687 L49.8160321,76.0645783 L47.1030794,81.1786722 C47.1030794,81.1786722 49.1022537,76.8736211 49.0477013,75.7726119 C48.9930813,74.6717395 48.7017294,71.7719687 48.7017294,71.7719687" id="Fill-186" fill="#2E6D99" mask="url(#mask-13)"></path>
                        <path d="M47.392133,91.7223287 L47.392133,91.7227389 C47.4648019,92.2322957 47.5375385,92.7375458 47.6079091,93.2188016 C48.0025524,92.3003141 49.2852444,87.0980355 49.3077549,87.0064328 L47.392133,91.7223287 Z" id="Fill-187" fill="#1C1D30" mask="url(#mask-13)"></path>
                        <path d="M19.7691396,69.2893728 C19.7691396,69.2893728 19.4033611,74.4763387 20.4055847,75.0971176 C21.0334446,75.4859503 23.5366375,76.7976456 23.4624137,77.0436739 C23.3881224,77.2895655 22.0489852,79.2321569 22.0489852,79.2321569 C22.0489852,79.2321569 17.2407323,76.0300974 17.0857277,75.021101 C16.9342382,74.0352788 17.322392,67.426421 17.9832403,67.1220131 C18.4782005,66.8938951 18.7395385,67.0825692 19.3633425,67.5508365 C20.2388178,68.2082564 19.7691396,69.2893728 19.7691396,69.2893728" id="Fill-188" fill="#323657" mask="url(#mask-13)"></path>
                        <path d="M28.5323223,70.7703279 L28.9561007,70.611869 C28.9561007,70.611869 28.4275437,69.3572545 28.1968958,69.3877431 C27.9310963,69.423017 27.599523,69.5116118 27.599523,69.5116118 L28.5323223,70.7703279 Z" id="Fill-189" fill="#EAD8CF" mask="url(#mask-13)"></path>
                        <path d="M28.6291038,70.9867562 C28.5748894,70.9459452 27.7282789,69.3033866 27.7282789,69.3033866 L25.9193283,69.5520126 L26.8968106,71.4975436 L28.6291038,70.9867562 Z" id="Fill-190" fill="#DA9B5B" mask="url(#mask-13)"></path>
                        <path d="M19.2101225,107.036412 C19.2101225,107.036412 19.0605934,108.085946 19.0419361,108.243516 C19.0232111,108.401223 17.3785938,108.150683 17.3785938,108.150683 L17.2454913,106.901196 C17.2454913,106.901196 19.0045538,106.888344 19.2101225,107.036412" id="Fill-191" fill="#424773" mask="url(#mask-13)"></path>
                        <path d="M19.0594172,108.110077 C19.0594172,108.110077 19.5804706,108.742546 20.0844892,109.018174 C20.5884401,109.293802 21.3804306,109.403042 21.6784072,109.688377 C21.8935074,109.894346 22.4619478,110.780978 20.3688108,110.763136 C18.2756738,110.745226 17.2664875,110.88844 17.0422615,110.548417 C16.8179678,110.208393 17.3667369,108.039051 17.3667369,108.039051 C17.3667369,108.039051 17.8624408,108.219453 19.0594172,108.110077" id="Fill-192" fill="#292C47" mask="url(#mask-13)"></path>
                        <path d="M27.4408748,107.036412 C27.4408748,107.036412 27.2913457,108.085946 27.2726883,108.243516 C27.2539634,108.401223 25.6094137,108.150683 25.6094137,108.150683 L25.4762435,106.901196 C25.4762435,106.901196 27.2352384,106.888344 27.4408748,107.036412" id="Fill-193" fill="#424773" mask="url(#mask-13)"></path>
                        <path d="M27.2901627,108.110077 C27.2901627,108.110077 27.8112162,108.742546 28.3152347,109.018174 C28.8191856,109.293802 30.6737656,109.520279 30.9717422,109.805615 C31.18691,110.011447 31.5447117,110.840656 28.5995563,110.763136 C26.5071629,110.708038 25.497233,110.88844 25.273007,110.548417 C25.0487133,110.208393 25.5974148,108.039051 25.5974148,108.039051 C25.5974148,108.039051 26.0645243,108.23169 27.2901627,108.110077" id="Fill-194" fill="#292C47" mask="url(#mask-13)"></path>
                        <path d="M19.8001338,80.0687831 C19.8001338,80.0687831 18.2548195,82.5515567 18.3700758,84.7958216 C18.4853998,87.0401549 18.2323766,89.437615 18.0002414,91.7820276 C17.7414723,94.395711 17.0364818,99.8348577 16.9980179,101.233029 C16.9596217,102.631131 17.0484468,107.891721 17.0484468,107.891721 L19.7290872,107.871486 C19.7290872,107.871486 20.6804086,97.2438699 21.1415017,96.1401263 C21.6026625,95.0363143 23.4955035,87.0519129 23.572296,86.1689043 C23.6491561,85.2859642 19.8001338,80.0687831 19.8001338,80.0687831" id="Fill-195" fill="#292C47" mask="url(#mask-13)"></path>
                        <path d="M27.9348954,80.4051083 C27.9348954,80.4051083 28.5453148,86.5063917 28.699035,87.8800213 C28.8527553,89.2536509 28.747436,95.2056357 28.8242961,96.0640346 C28.9011562,96.9226385 28.3106785,106.002785 28.1650701,107.732093 L25.2191035,107.713157 C25.2191035,107.713157 25.0158332,100.367718 25.0158332,96.7989066 C25.0158332,93.2300263 24.1102763,89.0755043 23.0727661,86.720906 C22.0352558,84.3661027 19.6602308,84.3104575 19.0224337,79.9416946 C19.0224337,79.9416946 27.0713851,79.0195157 27.9348954,80.4051083" id="Fill-196" fill="#292C47" mask="url(#mask-13)"></path>
                        <path d="M21.4326441,59.1352121 C21.4326441,59.1352121 23.2737718,57.8915353 24.5668065,59.223807 C25.8598411,60.5560103 26.4952046,63.6887526 25.566664,64.3138381 C24.6381911,64.9389237 23.0629304,65.1031248 22.3153525,64.2549116 C21.5677746,63.4065617 20.7697002,62.1127768 20.5733925,61.1678339 C20.3770849,60.2229594 20.9657374,59.5327266 21.4326441,59.1352121" id="Fill-197" fill="#EEA886" mask="url(#mask-13)"></path>
                        <path d="M24.940663,64.5249822 C24.940663,64.5249822 24.9165978,65.8336013 25.0592318,66.1125108 C25.2018658,66.3914888 22.3720343,66.3986666 22.3720343,66.3986666 C22.3720343,66.3986666 22.1423327,64.8813439 21.706792,63.5992486 C21.2712513,62.3171533 24.940663,64.5249822 24.940663,64.5249822" id="Fill-198" fill="#EEA886" mask="url(#mask-13)"></path>
                        <path d="M21.7775682,63.578221 C21.7775682,63.578221 22.0415425,63.8501578 22.7889176,63.5421268 C23.5362927,63.2341642 24.2396609,61.9645104 24.5368939,61.7726234 C24.8342621,61.5808047 24.7924859,61.3875504 24.7924859,61.3875504 L25.0651129,61.6389108 L25.4143972,61.5788906 C25.4143972,61.5788906 24.8829334,60.7198081 25.2676396,60.2260425 C25.6524134,59.7322769 24.0717448,57.320256 21.7880461,58.7928712 C21.7880461,58.7928712 20.0007948,59.7812228 20.3264194,60.8639798 C20.6521116,61.9467368 21.2223096,63.1326493 21.7775682,63.578221" id="Fill-199" fill="#FCCCA2" mask="url(#mask-13)"></path>
                        <path d="M25.2272019,66.0789118 C25.2272019,66.0789118 25.2182788,65.5458391 24.9793162,65.494774 C24.7404211,65.443709 22.3422096,65.2105324 22.0489649,65.3270865 L22.0489649,65.9480021 C22.0489649,65.9480021 22.6140254,66.2996469 25.2272019,66.0789118" id="Fill-200" fill="#E2D2CA" mask="url(#mask-13)"></path>
                        <path d="M24.6478915,61.0000302 C24.5614323,60.8260535 23.974943,60.4096033 23.9288404,61.0160948 C23.8828055,61.6225864 24.5054603,62.2752211 24.7389475,62.1510107 C24.9724346,62.0268686 24.8671829,61.4412268 24.6478915,61.0000302" id="Fill-201" fill="#EEA886" mask="url(#mask-13)"></path>
                        <path d="M34.7622161,72.3938142 C34.7605311,72.3929717 34.7586356,72.3927611 34.7561081,72.3932877 C34.7818037,72.4045558 34.7853842,72.4055036 34.7622161,72.3938142" id="Fill-202" fill="#323657" mask="url(#mask-13)"></path>
                        <path d="M28.7300089,66.817653 C27.0234709,66.5143389 25.2271613,66.0788161 25.2271613,66.0788161 L22.0489243,65.947838 C22.0489243,65.947838 19.1319577,66.5972598 17.9831794,67.1219926 C17.8742098,67.1716904 17.8737366,69.7534496 17.574746,70.4305572 L18.527149,72.4624271 C18.527149,72.4624271 19.0773377,76.4874749 19.1915125,78.2776915 C19.2439017,79.0993809 18.0567948,85.9834568 18.0567948,85.9834568 C18.0567948,85.9834568 19.3288061,86.3622406 21.4979245,86.6039622 C23.6671104,86.8457522 29.0868643,86.5165979 29.1210018,86.2575812 C29.1552746,85.9983593 28.0713914,76.6103181 28.0233961,76.1241405 C27.9497807,75.3779891 28.2365359,71.9299696 28.2365359,71.9299696 C28.6452397,72.4851227 30.5883744,74.8988525 31.6743532,76.0916011 C32.3132994,76.7933867 34.6625016,78.0119071 35.2072148,78.2580037 C36.3847902,78.7901194 38.2713446,80.0113742 38.340566,79.8838141 C38.3957944,79.8071823 39.662533,77.6405062 39.5140855,77.5905349 C39.3841601,77.5466476 35.4378627,75.1060522 34.3114598,74.5016798 C33.8993759,74.280603 32.2945069,71.497523 32.2945069,71.497523 C32.2945069,71.497523 29.6714609,67.2455194 28.7300089,66.817653" id="Fill-203" fill="#323657" mask="url(#mask-13)"></path>
                        <path d="M20.9003692,59.4555822 C20.9003692,59.4555822 18.2669129,60.169741 21.6708631,63.4752295 L20.9003692,59.4555822 Z" id="Fill-204" fill="#FCCCA2" mask="url(#mask-13)"></path>
                        <path d="M41.0127024,80.3655893 C41.0127024,80.3655893 40.7809052,80.3713999 40.6783575,80.323958 C40.6783575,80.323958 40.4982736,80.2231267 40.3659147,80.1592099 C40.323868,80.139112 40.2868238,80.1225005 40.2617445,80.1143656 C40.1570336,80.0801172 39.9171246,80.0366401 39.6886398,79.882898 C39.4602902,79.7296345 38.7077099,79.1050958 38.7077099,79.1050958 L39.1203345,78.3621573 L39.2866958,77.6423929 C39.2866958,77.6423929 40.9513224,77.7000889 41.1805508,77.8180786 C41.2028585,77.8297682 41.2245578,77.8421414 41.2438911,77.8552665 C41.4284365,77.97435 41.5161801,78.1412856 41.6060192,78.2147728 C41.6388048,78.2420485 41.9469213,78.5349719 41.9389446,78.662532 C41.9280611,78.8395849 41.8494434,78.9577796 41.7452057,79.0181417 C41.7452057,79.0181417 41.7087698,79.3639075 41.5438957,79.528177 C41.5438957,79.528177 41.5204388,79.8481711 41.2578165,79.9934365 C41.2578165,79.9934365 41.198059,80.3154129 41.0127024,80.3655893" id="Fill-205" fill="#EFAA88" mask="url(#mask-13)"></path>
                        <path d="M91.5562963,107.656589 C91.5562963,107.656589 90.9942778,108.506853 90.2059377,108.690605 C89.4175976,108.874289 88.6410873,109.166461 88.6351272,109.669523 C88.6292574,110.172654 90.9143757,110.472619 91.8165527,109.965455 C93.1629906,109.208571 93.299811,109.436689 93.4490697,109.058383 C93.598396,108.68001 93.2697295,107.66821 93.2794637,107.547897 C93.2914288,107.399213 91.5562963,107.656589 91.5562963,107.656589" id="Fill-206" fill="#353A3D" mask="url(#mask-13)"></path>
                        <path d="M91.6435667,107.237152 C91.6435667,107.237152 91.5410189,107.647928 91.5562963,107.65661 C91.5715061,107.665291 93.3327318,107.877482 93.2794637,107.547917 C93.2362679,107.28056 93.17455,106.990098 93.17455,106.990098 L91.6435667,107.237152 Z" id="Fill-207" fill="#81807E" mask="url(#mask-13)"></path>
                        <path d="M97.4834893,107.600178 C97.4834893,107.600178 97.0826269,108.413528 96.3977133,108.690592 C95.665548,108.986728 95.0784502,109.327093 95.0917672,109.817304 C95.1050842,110.307515 96.8815873,110.80422 98.173946,109.863447 C98.9904749,109.269056 99.2492441,109.266185 99.380251,108.891913 C99.5111904,108.517572 99.1527126,107.544875 99.1576473,107.427432 C99.1636637,107.282098 97.4834893,107.600178 97.4834893,107.600178" id="Fill-208" fill="#353A3D" mask="url(#mask-13)"></path>
                        <path d="M97.4634867,107.17787 C97.4634867,107.17787 97.4682862,107.592269 97.483496,107.600199 C97.4987058,107.60806 99.2009175,107.749908 99.1576541,107.427384 C99.1233138,107.17117 98.992442,106.861704 98.992442,106.861704 L97.4634867,107.17787 Z" id="Fill-209" fill="#81807E" mask="url(#mask-13)"></path>
                        <path d="M91.2221948,82.3315463 C91.2221948,82.3315463 89.640715,89.3857707 89.2795333,91.5345364 C88.9720928,93.3633765 88.7270462,95.2677546 88.8743445,96.5880632 C89.0567268,98.2225553 91.3447519,106.693886 91.2491668,107.17316 C91.1535141,107.652365 93.64339,107.24986 93.64339,107.24986 C93.64339,107.24986 91.9032552,97.8003628 92.2509171,96.0417286 C92.5083343,94.7391253 94.7641146,86.0862295 95.1098838,86.5300239 C95.4555177,86.9738182 95.8842309,94.6964002 96.1402961,95.9782904 C96.3962937,97.260249 97.1823355,107.389383 97.1823355,107.389383 C97.1823355,107.389383 98.9396404,107.651613 99.4089806,107.24986 C99.4089806,107.24986 99.6227288,98.6007922 99.4595447,96.1973848 C99.3974212,95.281495 100.52085,85.2152524 99.080314,81.1626554 C98.3189459,79.0210675 91.2221948,82.3315463 91.2221948,82.3315463" id="Fill-210" fill="#2D3133" mask="url(#mask-13)"></path>
                        <path d="M84.3385767,75.9187728 C85.4656556,75.7586049 89.0118343,77.3472273 89.3340113,77.2273235 C89.5556686,77.1450179 90.0756405,75.4314331 90.4471649,74.1345036 C90.6668618,73.3673656 90.8345751,72.7459715 90.8578291,72.6947013 L90.8591811,72.6919669 C90.855666,72.7262837 90.7981392,73.3128141 90.8712813,74.0832334 C90.8759457,74.1332047 90.8999433,74.1561054 90.9057569,74.2073755 C90.9073792,74.2206374 90.9078524,74.2445635 90.9121788,74.2574836 C91.0001927,74.5175257 91.0377778,74.8064842 91.1136915,75.1039878 C91.2263116,75.5434754 91.3183815,76.1368418 91.2376006,76.7715662 L91.2376006,76.7740271 C91.237871,76.778744 91.237871,76.7832557 91.2384118,76.7881777 C91.2386822,76.8023282 91.2394934,76.816137 91.2394934,76.8302876 C91.2394934,76.8358247 91.2400342,76.8416353 91.2400342,76.847446 C91.2715353,77.9581623 91.1956892,79.1556277 91.164188,79.792813 C91.1145703,80.7799341 91.4356658,81.2243437 91.4449269,81.237127 L91.4452649,81.2374005 L91.7849501,81.1892065 L92.0304023,81.1542745 L92.0334442,81.1537276 L92.3614348,81.1071059 L93.6473716,80.9243792 L94.1131966,80.8581381 L94.2233155,80.8422786 L95.0380192,80.7264764 L97.335373,80.399578 L97.5873822,80.3638256 L97.6911468,80.3491965 L98.5574962,80.225533 L98.9490299,80.1700929 L98.9503143,80.1698878 C98.9503143,80.1698878 99.2829016,77.7847325 99.3083865,76.4955961 C99.3314377,75.3114609 99.9582837,72.9071648 100.060494,72.5225704 C100.061034,72.519836 100.061913,72.517375 100.062657,72.5145722 C100.063468,72.5109491 100.064347,72.5073944 100.065428,72.5041131 C100.067321,72.4974138 100.068673,72.4918767 100.070093,72.4872282 C100.070633,72.4844254 100.071445,72.4816226 100.072256,72.4788882 C100.072256,72.4780679 100.072594,72.4771792 100.072864,72.4766323 C100.073135,72.475812 100.073405,72.4749917 100.073405,72.474103 C100.074149,72.4713686 100.074149,72.4700014 100.074149,72.4700014 C100.074149,72.4700014 101.949279,74.4620172 102.313029,75.3310803 C102.424027,75.5949506 102.763239,76.3121857 103.194926,77.1854187 C103.490267,76.6155682 103.675285,76.2193526 103.675285,76.1201619 C103.675285,76.1080622 103.675015,76.094937 103.674744,76.0814017 C103.647029,75.2219774 102.756344,71.7371802 102.053652,69.4605809 C101.507857,68.3513001 101.037165,67.4542094 100.886216,67.3447647 C100.657461,67.1785811 99.6949854,66.7618574 98.8549996,66.4246366 C98.8273516,66.4135623 98.799974,66.4028297 98.7730696,66.3920288 C98.6947223,66.3607198 98.6174566,66.3301628 98.5424216,66.3005629 C98.5048365,66.2858654 98.4679275,66.2714414 98.4314916,66.2573592 C98.4114823,66.2496345 98.3917433,66.2420466 98.372072,66.2345953 C98.3557806,66.2282378 98.3399625,66.2220854 98.3240767,66.2160013 L98.3238063,66.2160013 C97.9038134,66.0545346 97.5846107,65.9417403 97.5189044,65.9378437 C97.5078857,65.9370234 97.4903776,65.9373533 97.4665151,65.9381855 C97.4388671,65.9387324 97.402972,65.9403731 97.3602494,65.9431075 C96.8410211,65.9738695 95.2915157,66.1207756 94.7928375,66.1686961 C94.7021871,66.1772411 94.6460123,66.1827783 94.6375625,66.183667 L94.6364133,66.183667 C94.6364133,66.183667 94.3988702,66.2930433 94.0413388,66.4584066 L94.0410684,66.4587484 L94.0079449,66.4739927 C93.7918307,66.5742771 93.5416466,66.7078529 93.2772668,66.8540753 C92.7589172,67.1414615 92.1863533,67.4772468 91.7115375,67.7057065 C91.2457801,67.9296545 90.6082534,68.2418555 90.554039,68.285606 L88.1948997,75.1653068 L84.1021828,74.4089014 L84.3385767,75.9187728 Z" id="Fill-211" fill="#DECBC4" mask="url(#mask-13)"></path>
                        <path d="M91.4450621,81.237045 C91.4450621,81.237045 91.2722113,81.4461588 91.222188,82.3315599 C91.222188,82.3315599 98.3290114,81.4931222 99.0803073,81.1626691 C99.0803073,81.1626691 99.1097129,80.1869641 98.9503143,80.1700792 C98.7753004,80.1514168 91.4450621,81.237045 91.4450621,81.237045" id="Fill-212" fill="#495055" mask="url(#mask-13)"></path>
                        <path d="M97.5055401,65.6940508 C97.4835028,66.8219255 95.3239159,67.4389446 95.3239159,67.4389446 C95.3239159,67.4389446 94.4205898,66.2937064 94.6364335,66.1840566 C94.7212028,66.1409897 94.7554755,65.9700209 94.7660885,65.7783389 C94.7758228,65.5958856 94.764331,65.3946332 94.7537855,65.2667996 C94.7473636,65.1870233 94.7412797,65.1356848 94.7412797,65.1356848 C94.7412797,65.1356848 95.0498017,64.8065305 95.4423494,64.4142797 C96.1283446,63.728422 97.0712838,62.8497885 97.0727709,63.1993141 C97.0729061,63.2177714 97.070405,63.2399201 97.0647943,63.2656235 C96.899109,64.0521758 97.5055401,65.6940508 97.5055401,65.6940508" id="Fill-213" fill="#EEA886" mask="url(#mask-13)"></path>
                        <path d="M97.3264431,80.3430236 C97.3264431,80.3430236 97.481583,81.3322639 97.4950352,81.5900501 L97.8237018,81.5236724 C97.8237018,81.5236724 97.7332542,80.4770779 97.6799186,80.3017341 L97.3264431,80.3430236 Z" id="Fill-214" fill="#353A3D" mask="url(#mask-13)"></path>
                        <path d="M92.0379396,81.1216256 C92.0379396,81.1216256 91.9133545,82.0207672 91.9103801,82.3603806 L92.2581773,82.3146476 C92.2581773,82.3146476 92.3294267,81.1917632 92.3691749,81.0745938 L92.0379396,81.1216256 Z" id="Fill-215" fill="#353A3D" mask="url(#mask-13)"></path>
                        <path d="M96.6738825,64.0413886 L96.6737473,64.0415937 C96.6694209,64.0482246 96.5778918,64.1867223 96.4215352,64.3856505 C96.0900295,64.8073645 95.4667662,65.5000583 94.7660344,65.7783526 C94.7758363,65.5958992 94.7643445,65.3946468 94.753799,65.2668133 C94.6820764,65.2648992 94.6104214,65.2564909 94.5393072,65.2406997 C94.7314913,64.9012914 95.0088502,64.5454082 95.0088502,64.5454082 L95.442363,64.4142934 L96.6738825,64.0413886 Z" id="Fill-216" fill="#A77860" mask="url(#mask-13)"></path>
                        <path d="M97.0884607,63.2145243 C96.9015493,63.6255057 96.7241694,63.9233511 96.6738757,64.0414091 L96.6737405,64.0416142 C96.6410226,64.1185194 96.5517918,64.2437552 96.4215284,64.385671 C96.0656194,64.7733416 95.4040951,65.2847442 94.7537923,65.2667654 C94.6820697,65.2649197 94.6104147,65.2565114 94.5393005,65.2407202 C94.2767458,65.1826141 93.9666689,65.0592923 93.7960489,64.7214562 C92.4487998,62.0539734 93.4242541,59.8727365 93.4242541,59.8727365 C93.4242541,59.8727365 97.1080644,58.8192377 97.6844139,59.9406866 C98.088859,60.7273072 97.5273137,62.2488683 97.0884607,63.2145243" id="Fill-217" fill="#EEA886" mask="url(#mask-13)"></path>
                        <path d="M93.4242474,59.872757 C93.4242474,59.872757 93.082061,59.8535478 92.9975622,59.1976318 C92.9139421,58.5496456 93.0829398,58.3699951 93.0829398,58.3699951 C93.0829398,58.3699951 94.6037156,57.7262472 95.1498483,57.6424376 C95.6959811,57.5586964 97.0389714,57.4783731 97.3537126,57.8423911 C97.3537126,57.8423911 98.1185283,57.6626038 98.3268685,58.9465449 C98.6574955,60.9834734 97.2004655,62.9613386 97.2004655,62.9613386 C97.2004655,62.9613386 97.2129714,61.6306392 96.9227686,61.4543383 C96.6325659,61.2780374 96.3820438,61.6972904 96.3820438,61.6972904 L95.7884566,61.8048894 C95.7884566,61.8048894 96.6900927,59.836116 95.6085755,59.7631073 C94.5269231,59.6902353 94.0433195,59.9869186 93.4242474,59.872757" id="Fill-218" fill="#3A3F47" mask="url(#mask-13)"></path>
                        <path d="M96.398342,61.166788 C96.4548548,60.5805994 97.5032485,60.3567198 97.433013,60.9712095 C97.3627776,61.5856993 96.8464561,62.1761262 96.6080342,62.1552763 C96.3694096,62.1344948 96.3552814,61.6136586 96.398342,61.166788" id="Fill-219" fill="#EEA886" mask="url(#mask-13)"></path>
                        <path d="M100.060507,72.5225909 C100.061048,72.5198565 100.061927,72.5173955 100.06267,72.5145927 C100.063481,72.5109697 100.06436,72.5073466 100.065442,72.5040653 C100.066794,72.4982547 100.068416,72.4927175 100.070106,72.4871803 C100.070579,72.4843775 100.071458,72.4815748 100.072269,72.4788404 C100.072269,72.4780884 100.072607,72.4771997 100.072878,72.4766528 C100.073148,72.4757642 100.073351,72.4750122 100.073351,72.4741235 C100.073351,72.4741235 101.179407,74.2220935 101.095786,75.7405783 C101.082943,75.9769679 100.850605,76.5742992 100.512271,77.34007 C100.512271,77.3406169 100.512001,77.3408903 100.511731,77.3414372 C100.388633,77.6204151 100.251474,77.9216101 100.105663,78.2359986 C100.100188,78.2230785 100.09505,78.2096799 100.089507,78.1966915 C99.8780572,77.6746931 99.7405607,77.1848924 99.7405607,76.7570943 C99.7405607,76.7570943 99.8338474,73.4252872 100.060507,72.5225909 M103.675299,76.1201824 C103.675299,76.1080143 103.675028,76.0949575 103.674758,76.0814222 C103.654411,75.2241855 103.237324,71.7916838 102.534632,69.5151528 C102.193527,68.4096319 102.114842,67.6375036 101.982821,67.541936 C101.753998,67.3759575 99.718591,66.7671417 98.8550132,66.4246571 C98.8273651,66.4135828 98.7999875,66.4028502 98.7730831,66.391981 C98.6947358,66.360672 98.6174701,66.3301834 98.5424351,66.300515 C98.5048501,66.2858859 98.4678734,66.2714619 98.4314375,66.2573798 C98.4114282,66.2495867 98.3916893,66.2420671 98.3720179,66.2346158 C98.3557942,66.2282583 98.339976,66.2221059 98.3240902,66.2160218 C98.3226706,66.2174574 98.3213186,66.219098 98.3193583,66.2207387 C98.242363,66.3077612 97.8429878,66.7668682 97.3660089,67.4528627 C96.4742422,68.7356416 95.3126201,70.8121506 95.4904056,72.729859 C95.5473916,73.3454425 95.6180326,74.2293397 95.7363985,75.2211776 C95.746606,75.3059443 95.7572191,75.3912578 95.7678997,75.4777334 C95.7966969,75.7059881 95.8282657,75.9390279 95.8624032,76.1750757 C95.8830209,76.3165813 95.9046526,76.4593173 95.9273659,76.6028737 C96.1636245,78.0895027 96.9038342,79.1032843 97.5610321,80.3155838 C97.566778,80.3258379 97.5722536,80.3360919 97.5779995,80.3463459 C97.5810414,80.3522249 97.5843538,80.3579672 97.5873958,80.3638461 C97.6013212,80.3896179 97.6153142,80.4156632 97.6292396,80.4417084 C97.65175,80.4840917 97.6741929,80.5270219 97.6967034,80.5699521 C97.7095472,80.5945618 97.7221883,80.6192398 97.7347617,80.6442596 C97.8604959,80.8883055 97.9834586,81.1378885 98.1029737,81.3886337 C98.1802394,81.5503739 98.2561532,81.7127293 98.3300389,81.8746063 C98.3378128,81.8915596 98.3454515,81.9081028 98.3530902,81.9249877 C98.3530902,81.9249877 98.4742277,82.2092977 98.6292323,82.5744095 C98.6862859,82.7085322 98.7479363,82.8534558 98.809857,82.9991997 C98.8522416,83.0992107 98.8950318,83.1997685 98.9360644,83.2972501 C98.9725003,83.382632 99.0076518,83.4656896 99.0410457,83.5443722 C99.1155399,83.7203313 99.1807054,83.8744152 99.2259967,83.9821508 C99.2596611,84.0625424 99.2823744,84.1170938 99.2898102,84.1356878 C99.5157939,84.7077259 99.6791132,85.149401 99.7544861,85.3557804 C99.7845677,85.4389064 99.8004535,85.4838191 99.8004535,85.4838191 L102.073877,84.2149173 C102.505362,83.9963014 102.279919,82.8196175 102.117749,82.3603054 C101.982889,81.9781719 101.793071,81.5684893 101.57912,81.1451347 C101.491444,80.9719784 101.399847,80.7965661 101.30629,80.6197867 C102.017702,79.3628479 102.738241,78.0665337 103.19494,77.1854392 C103.49028,76.6155887 103.675299,76.2193731 103.675299,76.1201824" id="Fill-220" fill="#49ACF1" mask="url(#mask-13)"></path>
                        <path d="M82.8279272,73.5873828 L87.9757301,74.7210682 L90.4296432,68.2316356 C90.4838577,68.1881585 91.1874286,67.8052048 91.653186,67.5811201 C92.1381416,67.3475333 92.7518058,67.0593951 93.296181,66.8053003 C93.5561669,66.6836875 93.8011459,66.5701413 94.0079314,66.4739585 L94.0249663,66.4875622 C94.0249663,66.4875622 93.7211086,67.5106407 93.3280201,70.0645773 C93.3280201,70.0649191 93.3280201,70.0651926 93.3276821,70.0653976 C93.3142299,70.151258 93.3011157,70.2386224 93.2877311,70.327764 C93.2862439,70.3380864 93.2846891,70.3486139 93.2830668,70.3587996 C93.2742789,70.4178628 93.2652206,70.4776779 93.2564327,70.5383818 C93.2553511,70.5455596 93.2542696,70.5527374 93.2531204,70.5597101 C93.2471041,70.6004528 93.2410877,70.6414006 93.2353418,70.6830319 C93.2205376,70.7838632 93.2057334,70.8866086 93.1909292,70.9913364 C93.0156449,72.2345347 92.769652,74.3500774 92.5331905,76.4858548 L92.5331905,76.4866751 C92.3463467,78.170113 91.9205403,79.897575 91.785207,81.1867114 C91.785207,81.1875317 91.7849366,81.1882837 91.7849366,81.1891723 C91.7580998,81.4418316 91.6942863,81.7784372 91.6079623,82.1583147 C91.5984308,82.2012449 91.5882234,82.2447903 91.5780835,82.2887459 C91.197298,83.9159235 90.457832,86.2190465 90.457832,86.2190465 L90.242529,86.0179309 L89.604732,85.422582 C89.4578393,85.2857249 89.4022052,85.0757224 89.461422,84.8831518 C89.8151003,83.7291634 91.0172818,79.6453942 91.2375871,76.7739929 C91.2378575,76.773241 91.2378575,76.7723523 91.2378575,76.771532 C91.3068761,75.869451 91.046079,75.0197338 90.8947923,74.2140407 C90.8920883,74.2210134 90.8895872,74.2278494 90.8871536,74.2350956 C90.7606082,74.5911838 90.6202725,74.9781708 90.4789229,75.3549722 L90.4789229,75.3552456 C90.0994895,76.3670448 89.7112681,77.3046047 89.5496388,77.3644199 C89.1899442,77.4982691 82.4115846,75.6241746 82.3648061,75.3551089 L82.8279272,73.5873828 Z" id="Fill-221" fill="#49ACF1" mask="url(#mask-13)"></path>
                        <path d="M97.7244461,69.0151938 L96.6738892,69.6143708 L97.1227469,70.077306 L95.9275281,76.6029694 C95.6838335,75.0734102 95.5729035,73.6207563 95.490365,72.7299547 C95.2155749,69.7652417 98.1419378,66.4207196 98.3239144,66.2159125 C98.4644529,66.2697803 98.6162803,66.3293904 98.7731777,66.3920767 L97.7244461,69.0151938 Z" id="Fill-222" fill="#439EDE" mask="url(#mask-13)"></path>
                        <path d="M94.0410887,66.4588304 C94.0410887,66.4588304 93.6486086,67.7552813 93.1910982,70.9913159 C93.0157463,72.2343775 92.7696182,74.3501936 92.5330215,76.4857659 L92.2885157,70.3742285 L92.7890191,69.8259798 L92.3440821,69.2635805 L93.2961472,66.8052798 C93.5561331,66.6837354 93.8009769,66.5700524 94.0081004,66.473938 L94.0410887,66.4588304 Z" id="Fill-223" fill="#439EDE" mask="url(#mask-13)"></path>
                        <path d="M98.3766687,66.2363248 L97.5055198,65.6940235 C97.5055198,65.6940235 97.4811841,66.1771249 95.3238956,67.4389856 L95.9365458,69.1838794 L98.3766687,66.2363248 Z" id="Fill-224" fill="#F5E2D9" mask="url(#mask-13)"></path>
                        <path d="M94.7500878,65.9374541 C94.7500878,65.9374541 94.7840226,66.4588372 95.3238686,67.4389856 L94.1283118,69.0151664 L94.041109,66.4588372 L94.7500878,65.9374541 Z" id="Fill-225" fill="#F5E2D9" mask="url(#mask-13)"></path>
                        <path d="M95.3271877,67.4389719 C95.3271877,67.4389719 95.5589172,68.3762584 95.4754324,68.6386932 C95.4754324,68.6386932 94.9659384,68.8261368 94.5996867,68.5917981 C94.5996867,68.5917981 94.8591319,67.9357454 95.3271877,67.4389719" id="Fill-226" fill="#323657" mask="url(#mask-13)"></path>
                        <path d="M94.129346,80.9567956 C93.9996235,80.2954791 94.1230593,78.313854 94.1283996,78.2297026 L94.2393973,78.2369488 C94.2380453,78.2573885 94.1115675,80.2879595 94.2384509,80.9349203 L94.129346,80.9567956 Z" id="Fill-227" fill="#AD9F99" mask="url(#mask-13)"></path>
                        <path d="M95.0365861,80.6518476 C95.0365861,80.6518476 93.9908964,80.7781089 93.6451273,80.8652681 L93.6904186,82.0505654 L95.0597726,81.902839 L95.0365861,80.6518476 Z" id="Fill-228" fill="#69737A" mask="url(#mask-13)"></path>
                        <path d="M94.8077836,68.5074348 C94.8077836,68.5074348 93.6414972,71.4858881 93.8317209,74.8196777 C94.028975,78.2762422 94.3524364,79.5295579 94.3524364,79.5295579 L95.0715551,80.4415512 L95.3887299,79.3206492 C95.3887299,79.3206492 94.4236858,74.9138097 95.0466111,70.6257119 C95.1595691,69.8486617 95.3272147,68.3762516 95.3272147,68.3762516 L94.8077836,68.5074348 Z" id="Fill-229" fill="#323657" mask="url(#mask-13)"></path>
                        <path d="M98.3123685,82.5734114 C98.3123685,82.5734114 98.0620492,83.0795503 97.8118652,83.1639067 C97.5616135,83.2482632 97.1965786,83.6595181 97.1965786,83.6595181 L98.9588183,84.5978984 C98.9588183,84.5978984 99.4280233,83.6700456 99.4488438,83.0795503 C99.4697319,82.489055 98.3123685,82.5734114 98.3123685,82.5734114" id="Fill-230" fill="#EEA886" mask="url(#mask-13)"></path>
                        <path d="M98.1450879,82.6208739 L98.0282768,82.8580838 C98.0282768,82.8580838 99.1474466,83.6858573 99.4491412,83.7386313 L99.552703,83.4222604 L98.1450879,82.6208739 Z" id="Fill-231" fill="#DECBC4" mask="url(#mask-13)"></path>
                        <path d="M98.0283106,82.6312236 C98.0283106,82.6312236 98.867012,83.3325992 99.5736249,83.6559428 L101.95061,79.3322977 L100.719023,76.9244469 C100.719023,76.9244469 98.0839446,82.2094413 98.0283106,82.6312236" id="Fill-232" fill="#49ACF1" mask="url(#mask-13)"></path>
                        <path d="M90.8871671,74.2350683 C90.7605541,74.5911565 90.6202861,74.9781435 90.4789364,75.3550132 C90.4460833,74.9183283 90.4375658,74.5113118 90.4471649,74.1345104 C90.5038805,71.8918178 91.2013675,70.7157491 91.2013675,70.7157491 C91.0414282,71.1065643 90.9647032,71.9452754 90.9279969,72.7032532 C90.8890599,73.5031357 90.8948058,74.2135348 90.8948058,74.2135348 L90.8948058,74.2140133 L90.8871671,74.2350683 Z" id="Fill-233" fill="#2E6D99" mask="url(#mask-13)"></path>
                        <path d="M101.579106,81.145121 L99.6761253,83.469299 L101.306276,80.619773 C101.399901,80.7965524 101.49143,80.9719647 101.579106,81.145121" id="Fill-234" fill="#2E6D99" mask="url(#mask-13)"></path>
                        <path d="M87.7595551,78.2311382 L83.3660224,78.2311382 C83.0648686,78.2311382 82.8029223,78.022708 82.7320109,77.7267084 L80.8236221,69.758645 C80.7241839,69.3434252 81.0352071,68.9436548 81.4576336,68.9436548 L85.8511663,68.9436548 C86.15232,68.9436548 86.414334,69.152085 86.4851778,69.4480846 L88.3935666,77.416148 C88.4930048,77.8312994 88.1819815,78.2311382 87.7595551,78.2311382" id="Fill-235" fill="#D9C9C2" mask="url(#mask-13)"></path>
                        <path d="M82.3856942,76.0159742 C82.6005916,75.8147218 83.0153793,75.6979626 83.3704771,75.4580183 C83.725575,75.2180057 83.4290179,74.9707469 83.4290179,74.9707469 C83.7939176,74.8439388 83.7546426,74.6755676 83.7079316,74.5607909 C83.6447265,74.40575 83.2462977,74.4497739 83.2462977,74.4497739 C83.2462977,74.4497739 83.6036263,74.3698609 83.7505866,74.3040984 C83.8975469,74.2383359 83.8476588,73.979114 83.6216076,73.8972869 C83.3954888,73.815323 82.4741813,74.0450133 82.4741813,74.0450133 C82.4741813,74.0450133 82.6243864,73.970569 83.0787196,73.7399901 C83.5331205,73.5094112 83.6329643,73.2996138 83.364934,73.1988509 C83.1786986,73.12885 82.8127174,73.2756194 82.1101604,73.7529785 C81.5812655,74.112348 81.6242585,74.1592431 81.6242585,74.1592431 C81.6242585,74.1592431 82.128953,76.256397 82.3856942,76.0159742" id="Fill-236" fill="#EEA886" mask="url(#mask-13)"></path>
                    </g>
                </g>
            </g>
        </g>
    </g>
</svg>