<?xml version="1.0" encoding="UTF-8"?>
<svg width="153px" height="120px" viewBox="0 0 153 120" version="1.1" xmlns="http://www.w3.org/2000/svg" xmlns:xlink="http://www.w3.org/1999/xlink">
    <!-- Generator: Sketch 59.1 (86144) - https://sketch.com -->
    <title>Business Modeling Support</title>
    <desc>Created with Sketch.</desc>
    <defs>
        <path d="M5.29,0.652 C2.861,0.652 0.891,2.617 0.891,5.04 L0.891,5.04 L0.891,58.221 C0.891,60.643 2.861,62.608 5.29,62.608 L5.29,62.608 L101.154,62.608 C103.584,62.608 105.553,60.643 105.553,58.221 L105.553,58.221 L105.553,5.04 C105.553,2.617 103.584,0.652 101.154,0.652 L101.154,0.652 L5.29,0.652 Z" id="path-1"></path>
        <polygon id="path-3" points="0.147 0.494 9.771 0.494 9.771 10.119 0.147 10.119"></polygon>
        <polygon id="path-5" points="0.308 0.465 9.933 0.465 9.933 10.089 0.308 10.089"></polygon>
        <polygon id="path-7" points="0.948 0.091 10.573 0.091 10.573 9.715 0.948 9.715"></polygon>
        <path d="M1.78,0.444 C1.78,0.444 1.771,5.747 0.32,9.467 L0.32,9.467 L7.958,9.467 L10.124,8.16 C11.141,4.62 11.147,0.444 11.147,0.444 L11.147,0.444 L1.78,0.444 Z" id="path-9"></path>
        <polygon id="path-11" points="0.079 0.606 0.079 2.351 2.405 0.606"></polygon>
        <polygon id="path-13" points="0.831 0.473 10.456 0.473 10.456 10.098 0.831 10.098"></polygon>
        <path d="M1.716,0.465 C1.716,0.465 1.707,5.767 0.256,9.487 L0.256,9.487 L7.895,9.487 L10.06,8.181 C11.077,4.641 11.083,0.465 11.083,0.465 L11.083,0.465 L1.716,0.465 Z" id="path-15"></path>
        <polygon id="path-17" points="0.076 0.682 0.076 2.487 2.482 0.682"></polygon>
        <path d="M2.011,0.102 C2.011,0.102 2.002,5.405 0.55,9.125 L0.55,9.125 L8.188,9.125 L10.355,7.819 C11.372,4.279 11.378,0.102 11.378,0.102 L11.378,0.102 L2.011,0.102 Z" id="path-19"></path>
        <polygon id="path-21" points="0.37 0.32 0.37 2.125 2.776 0.32"></polygon>
        <path d="M1.843,0.066 C1.843,0.066 1.835,5.016 0.545,8.487 L0.545,8.487 L7.334,8.487 L9.26,7.268 C10.163,3.964 10.169,0.066 10.169,0.066 L10.169,0.066 L1.843,0.066 Z" id="path-23"></path>
        <path d="M2.257,0.745 C2.257,0.745 2.249,5.695 0.959,9.166 L0.959,9.166 L7.749,9.166 L9.674,7.948 C10.576,4.643 10.583,0.745 10.583,0.745 L10.583,0.745 L2.257,0.745 Z" id="path-25"></path>
        <polygon id="path-27" points="0.288 0.454 0.288 2.35 3.266 0.454"></polygon>
        <polygon id="path-29" points="0.765 0.25 10.389 0.25 10.389 9.875 0.765 9.875"></polygon>
        <polygon id="path-31" points="0.674 0.667 10.298 0.667 10.298 10.292 0.674 10.292"></polygon>
        <polygon id="path-33" points="0.668 0.668 11.496 0.668 11.496 11.495 0.668 11.495"></polygon>
        <path d="M2.277,0.809 C2.277,0.809 2.268,6.112 0.817,9.832 L0.817,9.832 L8.454,9.832 L10.621,8.526 C11.638,4.985 11.644,0.809 11.644,0.809 L11.644,0.809 L2.277,0.809 Z" id="path-35"></path>
        <polygon id="path-37" points="0.035 0.629 0.035 1.832 2.441 0.629"></polygon>
        <path d="M1.648,0.615 C1.648,0.615 1.639,6.626 0.027,10.841 L0.027,10.841 L8.514,10.841 L10.92,9.361 C12.05,5.349 12.057,0.615 12.057,0.615 L12.057,0.615 L1.648,0.615 Z" id="path-39"></path>
        <polygon id="path-41" points="0.448 0.036 0.448 1.841 2.854 0.036"></polygon>
        <polygon id="path-43" points="0.997 0.652 2.199 0.652 2.199 62.053 0.997 62.053"></polygon>
        <polygon id="path-45" points="0.741 0.652 1.943 0.652 1.943 62.053 0.741 62.053"></polygon>
        <polygon id="path-47" points="0.943 0.729 21.997 0.729 21.997 1.932 0.943 1.932"></polygon>
        <polygon id="path-49" points="0.96 0.729 20.509 0.729 20.509 1.932 0.96 1.932"></polygon>
        <polygon id="path-51" points="0.658 0.652 1.861 0.652 1.861 62.053 0.658 62.053"></polygon>
        <polygon id="path-53" points="0.508 0.652 1.71 0.652 1.71 62.053 0.508 62.053"></polygon>
        <polygon id="path-55" points="0.403 0.019 21.456 0.019 21.456 1.222 0.403 1.222"></polygon>
        <polygon id="path-57" points="0.147 0.019 18.794 0.019 18.794 1.222 0.147 1.222"></polygon>
        <polygon id="path-59" points="0.147 0.533 18.794 0.533 18.794 1.735 0.147 1.735"></polygon>
        <polygon id="path-61" points="0.464 0.553 17.908 0.553 17.908 1.756 0.464 1.756"></polygon>
        <polygon id="path-63" points="0.5 0.018 0.5 1.222 16.672 1.222 15.538 1.222 15.538 0.018"></polygon>
        <polygon id="path-65" points="0.914 0.019 13.546 0.019 13.546 1.222 0.914 1.222"></polygon>
        <polygon id="path-67" points="0.065 0.019 16.305 0.019 16.305 1.222 0.065 1.222"></polygon>
    </defs>
    <g id="Services-Page" stroke="none" stroke-width="1" fill="none" fill-rule="evenodd">
        <g id="Services-Page-Support" transform="translate(-218.000000, -931.000000)">
            <g id="Business-Modeling-Support" transform="translate(218.000000, 931.000000)">
                <g id="Group-77" transform="translate(0.000000, 0.220000)">
                    <path d="M128.3733,44.6504 C126.8193,48.9344 123.6813,52.8934 123.6813,52.8934 C121.6893,53.6954 116.4043,55.2844 114.6303,54.8254 C114.8093,53.6044 114.7473,52.7404 114.6303,51.2194 C117.0893,51.2714 121.6573,48.8134 121.6573,48.8134 C125.4403,40.4814 127.0533,33.8544 127.0533,33.8544 C128.9553,38.4574 128.3733,44.6504 128.3733,44.6504" id="Fill-1" fill="#E22445"></path>
                    <path d="M132.9851,108.3623 L132.6031,111.7813 C132.6031,111.7813 131.4861,112.4233 129.7241,112.0713 L130.0951,108.0733 L132.9851,108.3623 Z" id="Fill-3" fill="#F9AF8B"></path>
                    <path d="M130.5569,111.6826 C130.5569,111.6826 129.9959,110.8716 129.5279,110.8896 C129.0589,110.9076 125.3549,113.6486 124.1119,113.8416 C122.8679,114.0366 123.0769,114.9536 123.2869,115.4256 C123.4969,115.8986 133.1449,115.5926 133.1449,115.5926 C133.1449,115.5926 133.5089,112.7366 133.2239,111.8496 C132.9409,110.9616 131.5159,111.9236 130.5569,111.6826" id="Fill-5" fill="#005DB1"></path>
                    <path d="M147.5486,103.8672 L149.7636,106.4992 C149.7636,106.4992 149.4596,107.7512 147.9906,108.7862 L145.3486,105.7632 L147.5486,103.8672 Z" id="Fill-7" fill="#F9AF8B"></path>
                    <path d="M148.2829,107.9141 C148.2829,107.9141 147.3089,107.7631 146.9989,108.1141 C146.6889,108.4661 146.1239,113.0391 145.4079,114.0741 C144.6919,115.1081 145.4999,115.5901 145.9879,115.7641 C146.4749,115.9361 152.8999,108.7321 152.8999,108.7321 C152.8999,108.7321 151.0799,106.5011 150.2409,106.0961 C149.4029,105.6901 149.1179,107.3861 148.2829,107.9141" id="Fill-9" fill="#005DB1"></path>
                    <path d="M135.0974,67.5459 L136.8054,86.0229 C136.8054,86.0229 139.3624,88.8859 141.2844,92.3879 C142.8984,95.3259 147.9164,103.9939 147.9164,103.9939 L145.6534,105.7449 L130.0354,90.6239 L126.5634,67.3639 L135.0974,67.5459 Z" id="Fill-11" fill="#021019"></path>
                    <path d="M144.8122,105.9854 C145.0452,106.5724 145.4822,106.9714 145.9922,107.3064 L149.0122,104.7564 C148.7592,104.2214 148.4122,103.7584 147.9832,103.3604 L144.8122,105.9854 Z" id="Fill-13" fill="#2A3554"></path>
                    <path d="M146.5998,68.3145 C146.5998,68.3145 142.5888,78.1755 137.3768,85.8655 C137.3768,85.8655 136.5978,93.3485 135.2668,97.3335 C134.6838,99.0775 133.6138,107.1625 133.6138,107.1625 L129.5998,107.1625 L130.6208,84.1825 L134.8038,67.5395 L146.5998,68.3145 Z" id="Fill-15" fill="#2A3554"></path>
                    <path d="M129.2326,107.0264 C128.9816,107.7134 129.0506,108.3954 129.2326,109.0784 L133.8096,109.2064 C134.0036,108.5474 134.0616,107.8804 133.9986,107.2054 L129.2326,107.0264 Z" id="Fill-17" fill="#4A5180"></path>
                    <path d="M146.7351,63.1035 C146.7361,63.2455 146.7351,63.3835 146.7351,63.5205 C146.7321,66.0245 146.7191,67.9645 146.7071,68.9165 C144.2891,69.5725 141.8711,69.9955 139.4521,70.1915 C139.3411,70.1995 139.2341,70.2075 139.1231,70.2155 C139.0651,70.2195 139.0061,70.2235 138.9471,70.2265 C138.8171,70.2365 138.6871,70.2445 138.5581,70.2505 C138.4141,70.2595 138.2711,70.2675 138.1251,70.2745 C136.4801,70.3505 134.8341,70.3205 133.1871,70.1855 C132.8551,70.1585 132.5241,70.1255 132.1911,70.0895 C132.1701,70.0875 132.1491,70.0855 132.1271,70.0835 C132.0431,70.0745 131.9591,70.0645 131.8731,70.0535 C131.8211,70.0475 131.7701,70.0415 131.7191,70.0355 C129.8051,69.8065 127.8901,69.4325 125.9751,68.9165 C125.9701,68.4845 125.9681,67.8425 125.9681,67.0345 C125.9681,66.8835 125.9681,66.7295 125.9691,66.5685 L125.9691,66.5675 C125.9701,65.4105 125.9771,63.9705 125.9891,62.3435 C125.9901,62.2045 125.9911,62.0645 125.9921,61.9215 C126.0021,60.8385 126.0131,59.6775 126.0271,58.4675 C126.0291,58.3285 126.0301,58.1885 126.0331,58.0465 C126.0481,56.8055 126.0671,55.5165 126.0881,54.2075 C126.1021,53.4085 126.1161,52.6025 126.1321,51.7945 C126.1491,50.9765 126.1671,50.1585 126.1861,49.3445 C126.1901,49.1665 126.1941,48.9905 126.1991,48.8135 C126.3871,41.1195 126.7111,34.0465 127.2481,33.2585 C127.6201,32.7125 128.4711,32.0705 129.4741,31.4235 C129.5971,31.3455 129.7211,31.2665 129.8481,31.1865 C130.2761,30.9205 133.7621,29.7365 134.2051,29.4755 L137.8891,29.2185 C137.9121,29.2315 141.4351,30.4195 141.4581,30.4325 C141.6091,30.5185 141.7631,30.6065 141.9141,30.6935 C143.2191,31.4465 144.5061,32.2395 145.2481,32.9225 C145.3561,33.0215 145.4531,33.1185 145.5351,33.2125 C145.6011,33.2885 145.6601,33.3615 145.7071,33.4335 C145.7511,33.4985 145.7951,33.6075 145.8361,33.7565 C146.2821,35.3765 146.5151,41.7435 146.6321,48.6695 C146.6401,49.1655 146.6471,49.6655 146.6541,50.1655 C146.6581,50.3855 146.6611,50.6065 146.6641,50.8265 C146.6671,50.9775 146.6691,51.1305 146.6701,51.2825 C146.6711,51.3585 146.6721,51.4335 146.6731,51.5095 C146.6781,51.8865 146.6821,52.2625 146.6851,52.6355 C146.6891,52.9135 146.6921,53.1895 146.6941,53.4645 C146.7281,56.9545 146.7381,60.3425 146.7351,63.1035" id="Fill-19" fill="#1C75BB"></path>
                    <path d="M146.6545,50.166 C146.2905,48.66 145.8315,46.985 145.3775,45.542 C145.3765,45.539 145.3755,45.537 145.3745,45.534 C145.2345,45.088 145.0945,44.665 144.9575,44.276 C144.9555,44.27 144.9535,44.263 144.9505,44.256 C144.9075,44.134 144.8645,44.015 144.8225,43.899 C144.8165,43.879 144.8125,43.859 144.8125,43.84 L144.8125,43.839 C144.8125,43.77 144.8555,43.705 144.9245,43.68 C145.0135,43.647 145.1125,43.692 145.1445,43.782 C145.6105,45.051 146.1605,46.878 146.6325,48.67 C146.6405,49.166 146.6475,49.666 146.6545,50.166" id="Fill-21" fill="#E22445"></path>
                    <path d="M131.2937,19.2354 C131.2937,19.2354 129.2327,18.5164 129.4387,16.9134 C129.6137,15.5494 131.1267,16.4344 130.9937,15.3684 C130.8607,14.3024 130.5647,13.3334 131.8677,13.0664 C133.0067,12.8334 133.0267,13.6604 134.5227,12.4614 C136.2897,11.0444 137.6477,14.3244 139.2257,14.4234 C141.5517,14.5684 141.8457,15.9614 142.0747,17.0764 C142.3037,18.1904 141.1777,19.4994 141.1777,19.4994 L131.2937,19.2354 Z" id="Fill-23" fill="#2A3554"></path>
                    <path d="M138.2229,26.8472 L138.2229,29.6472 C138.2229,29.6472 137.3879,31.0732 136.2589,31.1702 C135.1299,31.2692 134.1279,29.9422 134.1279,29.9422 L134.1279,27.0442 L138.2229,26.8472 Z" id="Fill-25" fill="#F9AF8B"></path>
                    <path d="M141.1745,19.6562 C141.1235,20.7442 141.0195,22.1052 140.8115,23.1922 L140.8115,23.1962 C140.8115,23.1982 140.8105,23.2022 140.8095,23.2062 C140.8095,23.2072 140.8085,23.2072 140.8085,23.2082 C140.7575,23.4732 140.6995,23.7232 140.6375,23.9482 C140.5995,24.0802 140.5585,24.2182 140.5125,24.3592 C139.8495,26.4412 138.3115,29.4552 134.4465,28.0762 C132.8195,27.4962 131.9715,25.8152 131.5395,23.9922 C131.5145,23.8832 131.4905,23.7762 131.4695,23.6722 C131.4545,23.6032 131.4415,23.5362 131.4285,23.4702 L131.4095,23.3732 C131.4065,23.3562 131.4045,23.3452 131.4035,23.3382 C131.4025,23.3332 131.4025,23.3312 131.4025,23.3312 C131.1475,21.9292 131.1095,20.5122 131.1275,19.4992 C131.1475,18.4662 131.7125,17.5212 132.6115,17.0122 C135.0455,15.6312 137.6165,16.1472 139.3085,16.7972 C140.4835,17.2472 141.2355,18.4002 141.1745,19.6562" id="Fill-27" fill="#F9AF8B"></path>
                    <path d="M141.175,19.6558 C141.123,20.7438 141.02,22.1048 140.812,23.1928 L140.217,23.1508 C140.217,23.1508 140.362,22.2318 140.428,21.6338 C140.494,21.0348 140.608,19.9158 140.096,19.7758 C139.587,19.6378 139.886,18.3618 139.177,17.8078 C138.468,17.2528 136.882,17.1008 135.837,17.7448 C134.791,18.3868 133.613,17.6968 133.131,17.8078 C132.648,17.9188 131.993,18.5838 132.171,19.2048 C132.349,19.8248 131.817,20.2018 131.688,20.8448 C131.559,21.4878 131.971,23.2168 131.971,23.2168 L131.403,23.3308 C131.148,21.9288 131.109,20.5118 131.128,19.4998 C131.148,18.4668 131.712,17.5218 132.611,17.0118 C135.047,15.6318 137.616,16.1468 139.309,16.7968 C140.483,17.2478 141.235,18.4018 141.175,19.6558" id="Fill-29" fill="#2A3554"></path>
                    <path d="M108.3127,52.8906 C108.3127,52.8906 109.4977,51.7726 110.2617,51.7556 C111.0257,51.7396 109.6657,53.4986 109.6657,53.4986 C109.6657,53.4986 111.3237,51.3856 111.9037,51.6856 C112.4837,51.9846 110.9327,54.0826 110.9327,54.0826 C110.9327,54.0826 112.2737,52.8226 112.7407,53.0076 C113.2087,53.1936 112.1377,54.7736 112.1377,54.7736 C112.1377,54.7736 113.3017,53.8816 113.6717,53.9836 C114.0417,54.0836 113.2967,55.5236 112.6717,56.0936 C112.0467,56.6636 111.4727,55.6836 111.4727,55.6836 C111.4727,55.6836 110.5137,55.3806 110.4187,54.9186 C110.4187,54.9186 109.4897,54.7526 109.2207,54.2826 C109.2207,54.2826 107.8177,53.8386 108.3127,52.8906" id="Fill-31" fill="#F9AF8B"></path>
                    <path d="M133.2805,60.5361 L132.6785,60.7481 C132.1395,60.9381 131.6185,60.7651 131.2075,60.3701 C131.0265,60.1941 130.7435,59.8561 130.5965,59.7591 C130.1825,59.4821 129.1925,59.1231 128.8975,59.2051 C128.6025,59.2881 128.8445,59.8051 129.1305,59.9681 C129.4175,60.1311 129.8425,60.3161 130.1325,60.5871 C130.4215,60.8581 129.0785,62.0881 128.4915,62.4711 C127.9055,62.8531 126.6575,62.9061 126.7355,63.4771 C126.8135,64.0481 127.6865,63.8281 127.6865,63.8281 C127.6865,63.8281 127.6075,64.3941 128.4485,64.5441 C128.4485,64.5441 128.4895,65.0571 129.0315,65.1481 C129.0315,65.1481 129.1895,65.7611 129.7715,65.7311 C130.3525,65.7021 132.1635,65.5991 134.6975,62.5071 L133.2805,60.5361 Z" id="Fill-33" fill="#F9AF8B"></path>
                    <path d="M133.1247,60.2051 C133.1247,60.2051 141.9607,54.2121 144.9117,50.8991 C144.9117,50.8991 144.8237,46.6291 144.6137,43.2011 C144.4787,40.9791 144.5667,38.7491 144.9057,36.5491 C145.0967,35.3151 145.3567,34.1281 145.7077,33.4331 C145.7077,33.4331 148.0287,34.3501 148.8657,42.4361 C149.3207,46.8381 149.3497,50.3011 149.3197,52.1011 C149.3037,53.0101 148.9497,53.8781 148.3247,54.5381 C146.3817,56.5911 141.5737,61.0301 134.9657,62.7331 C134.9657,62.7331 133.3837,61.2591 133.1247,60.2051" id="Fill-35" fill="#005DB1"></path>
                    <path d="M22.0329,44.8418 C23.9729,51.8978 30.3629,53.8668 30.3629,53.8668 C32.8969,53.3298 34.5029,52.5688 36.0969,51.6908 C35.6239,50.5598 35.4199,49.4098 35.1579,47.9178 C32.8039,48.5728 30.7719,48.9228 30.7719,48.9228 C25.8039,46.6198 22.7899,35.5978 22.7899,35.5978 C19.8369,38.4008 22.0329,44.8418 22.0329,44.8418" id="Fill-37" fill="#FD664D"></path>
                    <path d="M5.3215,101.5371 L3.2195,104.3501 C3.2195,104.3501 3.6035,105.6061 5.1595,106.5741 L7.6745,103.3401 L5.3215,101.5371 Z" id="Fill-39" fill="#F7AD89"></path>
                    <path d="M4.8112,105.7041 C4.8112,105.7041 5.7942,105.4921 6.1312,105.8321 C6.4672,106.1721 7.3112,110.7971 8.1022,111.8081 C8.8922,112.8211 8.0962,113.3581 7.6102,113.5631 C7.1242,113.7681 0.1562,106.8081 0.1562,106.8081 C0.1562,106.8081 1.8782,104.4291 2.7092,103.9661 C3.5402,103.5041 3.9292,105.2141 4.8112,105.7041" id="Fill-41" fill="#2A3554"></path>
                    <path d="M18.2146,106.3652 L18.5336,109.8612 C18.5336,109.8612 19.6596,110.5392 21.4646,110.2172 L21.1686,106.1312 L18.2146,106.3652 Z" id="Fill-43" fill="#F7AD89"></path>
                    <path d="M20.8279,109.7256 C20.8279,109.7256 21.4429,108.8746 21.9409,108.9036 C22.4399,108.9326 26.3249,111.9316 27.6439,112.1646 C28.9639,112.3976 28.7229,113.3706 28.4889,113.8696 C28.2539,114.3686 18.0379,114.0816 18.0379,114.0816 C18.0379,114.0816 17.6619,110.7846 17.9839,109.8456 C18.3059,108.9076 19.8019,109.9616 20.8279,109.7256" id="Fill-45" fill="#2A3554"></path>
                    <path d="M16.2556,68.418 L14.1326,85.989 C14.1326,85.989 12.2276,88.573 10.4126,91.881 C8.8886,94.656 4.8276,101.858 4.8276,101.858 L7.2836,103.731 L20.7346,89.791 L24.3166,68.247 L16.2556,68.418 Z" id="Fill-47" fill="#001030"></path>
                    <path d="M7.8894,103.6865 C7.6684,104.2405 7.2564,104.6175 6.7744,104.9335 L3.9224,102.5255 C4.1614,102.0195 4.4894,101.5825 4.8944,101.2065 L7.8894,103.6865 Z" id="Fill-49" fill="#2E3052"></path>
                    <path d="M5.3923,69.1445 C5.3923,69.1445 9.1803,78.4575 14.1033,85.7205 C14.1033,85.7205 14.8383,92.7885 16.0963,96.5505 C16.6463,98.1985 17.7123,106.0035 17.7123,106.0035 L21.4473,105.8345 L20.4843,84.1315 L16.5333,68.4125 L5.3923,69.1445 Z" id="Fill-51" fill="#2E3052"></path>
                    <path d="M21.7951,105.7061 C22.0321,106.3551 21.9661,106.9991 21.7951,107.6441 L17.4731,107.7661 C17.2891,107.1431 17.2341,106.5141 17.2941,105.8761 L21.7951,105.7061 Z" id="Fill-53" fill="#524E82"></path>
                    <path d="M22.7903,35.5981 C23.3533,36.3001 24.4823,43.4591 24.6603,50.7251 C24.6643,50.8931 24.6673,51.0601 24.6723,51.2271 C24.6903,51.9971 24.7073,52.7691 24.7233,53.5421 C24.7383,54.3051 24.7513,55.0651 24.7653,55.8211 C24.7853,57.0571 24.8033,58.2741 24.8173,59.4471 C24.8193,59.5801 24.8203,59.7121 24.8223,59.8451 C24.8353,60.9871 24.8473,62.0841 24.8553,63.1071 C24.8553,63.2411 24.8563,63.3741 24.8573,63.5051 C24.8693,65.0411 24.8763,66.4011 24.8773,67.4941 L24.8773,67.4951 C24.8783,67.6471 24.8783,67.7931 24.8783,67.9351 C24.8783,68.6991 24.8763,69.3051 24.8713,69.7141 C23.0623,70.2001 21.2543,70.5541 19.4453,70.7691 C19.3983,70.7751 19.3503,70.7821 19.3013,70.7871 C19.2203,70.7971 19.1413,70.8061 19.0613,70.8151 C19.0403,70.8171 19.0213,70.8191 19.0003,70.8211 C18.6863,70.8551 18.3743,70.8861 18.0603,70.9111 C16.5053,71.0391 14.9503,71.0671 13.3953,70.9951 C13.2593,70.9891 13.1243,70.9811 12.9873,70.9731 C12.8663,70.9671 12.7433,70.9601 12.6193,70.9501 C12.5643,70.9481 12.5093,70.9441 12.4533,70.9391 C12.3493,70.9321 12.2473,70.9241 12.1433,70.9171 C9.8583,70.7311 7.5743,70.3321 5.2903,69.7141 C5.2793,68.8131 5.2683,66.9801 5.2643,64.6171 C5.2643,64.4871 5.2633,64.3561 5.2643,64.2231 C5.2613,61.6151 5.2713,58.4151 5.3023,55.1191 C5.3053,54.8581 5.3083,54.5981 5.3113,54.3371 C5.3143,54.0351 5.3173,53.7301 5.3203,53.4271 C5.3213,53.3751 5.3213,53.3231 5.3223,53.2721 C5.3243,53.2011 5.3253,53.1301 5.3263,53.0571 C5.3273,52.9141 5.3293,52.7701 5.3323,52.6281 C5.3343,52.4191 5.3373,52.2111 5.3413,52.0041 C5.3423,51.8461 5.3453,51.6881 5.3473,51.5301 C5.3523,51.2171 5.3573,50.9021 5.3623,50.5911 C5.4723,44.0481 5.6933,38.0361 6.1133,36.5061 C6.1523,36.3641 6.1943,36.2611 6.2353,36.2001 C6.2793,36.1321 6.3353,36.0631 6.3973,35.9921 C6.4763,35.9031 6.5673,35.8101 6.6693,35.7181 C7.3703,35.0731 8.5853,34.3241 9.8173,33.6131 C9.9603,33.5301 10.1063,33.4481 10.2483,33.3661 C10.2703,33.3531 13.5973,32.2311 13.6183,32.2191 L17.0993,32.4621 C17.0993,32.4621 21.9623,34.5651 22.7903,35.5981" id="Fill-55" fill="#F6931D"></path>
                    <path d="M19.6745,24.542 C19.6745,24.542 20.1345,24.764 20.2425,23.869 C20.3495,22.975 19.9845,22.824 20.2425,22.395 C20.5005,21.965 20.6715,21.407 20.2425,21.021 C19.8125,20.634 20.6755,19.636 20.1775,19.142 C19.6795,18.648 18.8745,18.543 18.5515,17.985 C18.2295,17.426 17.7205,16.358 16.1975,16.38 C14.6745,16.401 14.1865,17.628 13.3815,17.306 C12.5765,16.983 11.9845,16.812 11.0505,17.478 C10.1165,18.144 11.1055,19.045 10.2355,19.496 C9.3655,19.947 10.0585,21.257 9.0665,22.03 C8.3185,22.612 9.0975,24.886 10.6115,24.542 C12.1255,24.199 19.6745,24.542 19.6745,24.542" id="Fill-57" fill="#2A3554"></path>
                    <path d="M12.9206,30.0117 L12.9206,32.7237 C12.9206,32.7237 14.1896,33.7307 15.2826,33.8247 C16.3756,33.9197 16.8866,33.0097 16.8866,33.0097 L16.8866,30.2027 L12.9206,30.0117 Z" id="Fill-59" fill="#F7AD89"></path>
                    <path d="M12.9206,30.0117 L12.9206,31.2157 C13.6546,32.0297 14.9586,32.2327 16.8866,31.9487 L16.8866,30.2027 L12.9206,30.0117 Z" id="Fill-61" fill="#FA8465"></path>
                    <path d="M10.0612,23.0469 C10.1112,24.1009 10.2122,25.4189 10.4132,26.4729 C10.4632,26.7349 10.5202,26.9829 10.5832,27.2049 C11.1542,29.2029 12.5812,32.6299 16.5782,31.2019 C18.3432,30.5719 19.1612,28.6059 19.5262,26.6069 C19.7732,25.2489 19.8112,23.8769 19.7922,22.8959 C19.7732,21.8949 19.2272,20.9799 18.3562,20.4869 C15.9972,19.1499 13.5082,19.6479 11.8692,20.2779 C10.7312,20.7149 10.0032,21.8319 10.0612,23.0469" id="Fill-63" fill="#F7AD89"></path>
                    <path d="M10.0612,23.0469 C10.1112,24.1009 10.2122,25.4189 10.4132,26.4729 L11.4082,26.4319 C11.4082,26.4319 11.4922,25.5179 11.4272,24.9379 C11.3632,24.3579 10.9112,23.4669 11.2922,23.1239 C12.2502,22.2609 11.7722,22.1869 12.1242,21.3899 C12.4152,20.7319 14.1962,20.3829 15.2212,20.8709 C16.2952,21.3809 17.3862,21.1489 17.8522,21.2569 C18.3202,21.3639 18.9542,22.0079 18.7822,22.6099 C18.6102,23.2109 19.1252,23.5759 19.2502,24.1989 C19.3752,24.8209 18.9762,26.4959 18.9762,26.4959 L19.5262,26.6069 C19.7732,25.2489 19.8112,23.8769 19.7922,22.8959 C19.7732,21.8949 19.2272,20.9799 18.3562,20.4869 C15.9972,19.1499 13.5082,19.6479 11.8692,20.2779 C10.7312,20.7149 10.0032,21.8319 10.0612,23.0469" id="Fill-65" fill="#2A3554"></path>
                    <path d="M10.8747,25.1177 C10.8747,25.1177 10.7367,27.7987 10.8127,28.4177 C10.8897,29.0367 11.2947,30.5727 12.6317,31.1477 C13.9687,31.7217 14.4607,32.4187 15.3807,32.2897 C15.9297,32.2117 16.8187,31.5457 17.6517,31.1277 C18.6947,30.6057 19.1337,28.8827 19.3457,28.3207 C19.5577,27.7597 19.5257,26.6067 19.5257,26.6067 L18.9757,26.4957 C18.9757,26.4957 18.6817,28.3307 17.8197,29.2307 C17.2607,29.8147 15.8227,30.7437 14.8507,30.4897 C13.8777,30.2337 12.2417,29.2697 11.7787,28.2437 C11.3147,27.2177 11.4087,26.4317 11.4087,26.4317 L10.8747,25.1177 Z" id="Fill-67" fill="#2A3554"></path>
                    <path d="M22.7639,60.8545 L23.3979,60.8545 C23.9659,60.8545 24.3959,60.5205 24.6509,60.0135 C24.7639,59.7905 24.9159,59.3795 25.0219,59.2395 C25.3189,58.8435 26.1279,58.1795 26.4309,58.1605 C26.7339,58.1395 26.6779,58.7035 26.4639,58.9515 C26.2499,59.1985 25.9119,59.5125 25.7299,59.8625 C25.5489,60.2115 27.2139,60.9195 27.8889,61.0845 C28.5649,61.2505 29.7519,60.8875 29.8669,61.4475 C29.9829,62.0075 29.0929,62.0905 29.0929,62.0905 C29.0929,62.0905 29.3529,62.5955 28.6149,63.0135 C28.6149,63.0135 28.7459,63.5075 28.2679,63.7715 C28.2679,63.7715 28.3229,64.3975 27.7679,64.5625 C27.2139,64.7275 25.4829,65.2295 22.0879,63.1685 L22.7639,60.8545 Z" id="Fill-69" fill="#F7AD89"></path>
                    <path d="M11.1135,46.4404 C12.3955,51.2854 13.6535,53.4264 13.6535,53.4264 C13.6535,53.4264 15.0915,55.6244 18.0465,57.7034 C20.0995,59.1474 23.3985,60.8544 23.3985,60.8544 C22.8295,61.5944 22.4275,63.0564 22.6475,63.4944 C15.7895,63.4944 9.7915,56.9974 9.7915,56.9974 C4.9935,48.6464 4.6795,41.8454 4.7585,39.3674 C4.7865,38.4954 5.0405,37.6414 5.5205,36.9124 C5.7685,36.5364 6.0795,36.1884 6.4435,36.0174 C6.4435,36.0174 8.5005,36.7834 9.2155,39.1964 C9.9305,41.6104 11.1135,46.4404 11.1135,46.4404" id="Fill-71" fill="#FD664D"></path>
                    <path d="M41.157,46.8691 C41.157,46.8691 39.631,46.3291 38.93,46.6211 C38.229,46.9131 40.172,47.9651 40.172,47.9651 C40.172,47.9651 37.817,46.7121 37.41,47.2171 C37.003,47.7221 39.257,49.0051 39.257,49.0051 C39.257,49.0051 37.532,48.3981 37.181,48.7551 C36.831,49.1111 38.439,50.1161 38.439,50.1161 C38.439,50.1161 37.023,49.7741 36.728,50.0151 C36.432,50.2561 37.687,51.2641 38.484,51.5311 C39.281,51.7981 39.409,50.6761 39.409,50.6761 C39.409,50.6761 40.158,50.0161 40.058,49.5581 C40.058,49.5581 40.836,49.0341 40.891,48.4981 C40.891,48.4981 41.988,47.5321 41.157,46.8691" id="Fill-73" fill="#F7AD89"></path>
                    <path d="M130.5534,58.2207 C130.5534,60.6437 128.5844,62.6087 126.1544,62.6087 L30.2894,62.6087 C27.8604,62.6087 25.8904,60.6437 25.8904,58.2207 L25.8904,5.0397 C25.8904,2.6167 27.8604,0.6527 30.2894,0.6527 L126.1544,0.6527 C128.5844,0.6527 130.5534,2.6167 130.5534,5.0397" id="Fill-75" fill="#FFFFFF"></path>
                </g>
                <g id="Group-80" transform="translate(25.000000, 0.220000)">
                    <mask id="mask-2" fill="white">
                        <use xlink:href="#path-1"></use>
                    </mask>
                    <g id="Clip-79"></g>
                    <path d="M5.2898,62.6084 C2.8608,62.6084 0.8908,60.6434 0.8908,58.2204 L0.8908,5.0404 C0.8908,2.6164 2.8608,0.6524 5.2898,0.6524 L101.1548,0.6524 C103.5838,0.6524 105.5538,2.6164 105.5538,5.0404 L105.5538,58.2204 C105.5538,60.6434 103.5838,62.6084 101.1548,62.6084 L5.2898,62.6084 Z" id="Stroke-78" stroke="#1C75BB" stroke-width="6" mask="url(#mask-2)"></path>
                </g>
                <g id="Group-83" transform="translate(48.000000, 17.220000)">
                    <mask id="mask-4" fill="white">
                        <use xlink:href="#path-3"></use>
                    </mask>
                    <g id="Clip-82"></g>
                    <polygon id="Fill-81" fill="#4BA2F4" mask="url(#mask-4)" points="-2.76 13.025 12.677 13.025 12.677 -2.412 -2.76 -2.412"></polygon>
                </g>
                <g id="Group-86" transform="translate(30.000000, 5.220000)">
                    <mask id="mask-6" fill="white">
                        <use xlink:href="#path-5"></use>
                    </mask>
                    <g id="Clip-85"></g>
                    <polygon id="Fill-84" fill="#1C75BB" mask="url(#mask-6)" points="-2.598 12.995 12.839 12.995 12.839 -2.442 -2.598 -2.442"></polygon>
                </g>
                <g id="Group-89" transform="translate(70.000000, 18.220000)">
                    <mask id="mask-8" fill="white">
                        <use xlink:href="#path-7"></use>
                    </mask>
                    <g id="Clip-88"></g>
                    <polygon id="Fill-87" fill="#96C4EA" mask="url(#mask-8)" points="-1.958 12.622 13.479 12.622 13.479 -2.815 -1.958 -2.815"></polygon>
                </g>
                <g id="Group-92" transform="translate(97.000000, 36.220000)">
                    <mask id="mask-10" fill="white">
                        <use xlink:href="#path-9"></use>
                    </mask>
                    <g id="Clip-91"></g>
                    <polygon id="Fill-90" fill="#FFDF69" mask="url(#mask-10)" points="-2.586 12.373 14.054 12.373 14.054 -2.462 -2.586 -2.462"></polygon>
                </g>
                <g id="Group-95" transform="translate(105.000000, 43.220000)">
                    <mask id="mask-12" fill="white">
                        <use xlink:href="#path-11"></use>
                    </mask>
                    <g id="Clip-94"></g>
                    <polygon id="Fill-93" fill="#DEBA35" mask="url(#mask-12)" points="-2.827 5.257 5.311 5.257 5.311 -2.3 -2.827 -2.3"></polygon>
                </g>
                <g id="Group-98" transform="translate(81.000000, 5.220000)">
                    <mask id="mask-14" fill="white">
                        <use xlink:href="#path-13"></use>
                    </mask>
                    <g id="Clip-97"></g>
                    <polygon id="Fill-96" fill="#308DFC" mask="url(#mask-14)" points="-2.075 13.004 13.362 13.004 13.362 -2.433 -2.075 -2.433"></polygon>
                </g>
                <g id="Group-101" transform="translate(70.000000, 5.220000)">
                    <mask id="mask-16" fill="white">
                        <use xlink:href="#path-15"></use>
                    </mask>
                    <g id="Clip-100"></g>
                    <polygon id="Fill-99" fill="#FFDF69" mask="url(#mask-16)" points="-2.65 12.393 13.99 12.393 13.99 -2.442 -2.65 -2.442"></polygon>
                </g>
                <g id="Group-104" transform="translate(78.000000, 12.220000)">
                    <mask id="mask-18" fill="white">
                        <use xlink:href="#path-17"></use>
                    </mask>
                    <g id="Clip-103"></g>
                    <polygon id="Fill-102" fill="#DEBA35" mask="url(#mask-18)" points="-2.831 5.393 5.388 5.393 5.388 -2.224 -2.831 -2.224"></polygon>
                </g>
                <g id="Group-107" transform="translate(29.000000, 18.220000)">
                    <mask id="mask-20" fill="white">
                        <use xlink:href="#path-19"></use>
                    </mask>
                    <g id="Clip-106"></g>
                    <polygon id="Fill-105" fill="#FFDF69" mask="url(#mask-20)" points="-2.356 12.031 14.284 12.031 14.284 -2.804 -2.356 -2.804"></polygon>
                </g>
                <g id="Group-110" transform="translate(37.000000, 25.220000)">
                    <mask id="mask-22" fill="white">
                        <use xlink:href="#path-21"></use>
                    </mask>
                    <g id="Clip-109"></g>
                    <polygon id="Fill-108" fill="#DEBA35" mask="url(#mask-22)" points="-2.536 5.031 5.683 5.031 5.683 -2.586 -2.536 -2.586"></polygon>
                </g>
                <g id="Group-113" transform="translate(47.000000, 6.220000)">
                    <mask id="mask-24" fill="white">
                        <use xlink:href="#path-23"></use>
                    </mask>
                    <g id="Clip-112"></g>
                    <polygon id="Fill-111" fill="#F6931D" mask="url(#mask-24)" points="-2.361 11.394 13.076 11.394 13.076 -2.84 -2.361 -2.84"></polygon>
                </g>
                <g id="Group-116" transform="translate(52.000000, 36.220000)">
                    <mask id="mask-26" fill="white">
                        <use xlink:href="#path-25"></use>
                    </mask>
                    <g id="Clip-115"></g>
                    <polygon id="Fill-114" fill="#F0F0F0" mask="url(#mask-26)" points="-1.948 12.072 13.489 12.072 13.489 -2.162 -1.948 -2.162"></polygon>
                </g>
                <g id="Group-119" transform="translate(58.000000, 43.220000)">
                    <mask id="mask-28" fill="white">
                        <use xlink:href="#path-27"></use>
                    </mask>
                    <g id="Clip-118"></g>
                    <polygon id="Fill-117" fill="#C9C9C9" mask="url(#mask-28)" points="-2.618 5.255 6.173 5.255 6.173 -2.453 -2.618 -2.453"></polygon>
                </g>
                <g id="Group-122" transform="translate(100.000000, 19.220000)">
                    <mask id="mask-30" fill="white">
                        <use xlink:href="#path-29"></use>
                    </mask>
                    <g id="Clip-121"></g>
                    <polygon id="Fill-120" fill="#FFDF69" mask="url(#mask-30)" points="-2.141 12.782 13.296 12.782 13.296 -2.655 -2.141 -2.655"></polygon>
                </g>
                <g id="Group-125" transform="translate(98.000000, 6.220000)">
                    <mask id="mask-32" fill="white">
                        <use xlink:href="#path-31"></use>
                    </mask>
                    <g id="Clip-124"></g>
                    <polygon id="Fill-123" fill="#B8E986" mask="url(#mask-32)" points="-2.233 13.198 13.204 13.198 13.204 -2.239 -2.233 -2.239"></polygon>
                </g>
                <g id="Group-128" transform="translate(116.000000, 6.220000)">
                    <mask id="mask-34" fill="white">
                        <use xlink:href="#path-33"></use>
                    </mask>
                    <g id="Clip-127"></g>
                    <polygon id="Fill-126" fill="#27A9E0" mask="url(#mask-34)" points="-2.238 14.401 14.402 14.401 14.402 -2.239 -2.238 -2.239"></polygon>
                </g>
                <g id="Group-131" transform="translate(115.000000, 20.220000)">
                    <mask id="mask-36" fill="white">
                        <use xlink:href="#path-35"></use>
                    </mask>
                    <g id="Clip-130"></g>
                    <polygon id="Fill-129" fill="#96C4EA" mask="url(#mask-36)" points="-2.09 12.738 14.55 12.738 14.55 -2.098 -2.09 -2.098"></polygon>
                </g>
                <g id="Group-134" transform="translate(123.000000, 28.220000)">
                    <mask id="mask-38" fill="white">
                        <use xlink:href="#path-37"></use>
                    </mask>
                    <g id="Clip-133"></g>
                    <polygon id="Fill-132" fill="#0280DA" mask="url(#mask-38)" points="-2.872 4.738 5.347 4.738 5.347 -2.278 -2.872 -2.278"></polygon>
                </g>
                <g id="Group-137" transform="translate(80.000000, 25.220000)">
                    <mask id="mask-40" fill="white">
                        <use xlink:href="#path-39"></use>
                    </mask>
                    <g id="Clip-136"></g>
                    <polygon id="Fill-135" fill="#FEBA40" mask="url(#mask-40)" points="-2.88 13.747 14.963 13.747 14.963 -2.292 -2.88 -2.292"></polygon>
                </g>
                <g id="Group-140" transform="translate(88.000000, 34.220000)">
                    <mask id="mask-42" fill="white">
                        <use xlink:href="#path-41"></use>
                    </mask>
                    <g id="Clip-139"></g>
                    <polygon id="Fill-138" fill="#F6931D" mask="url(#mask-42)" points="-2.459 4.747 5.76 4.747 5.76 -2.87 -2.459 -2.87"></polygon>
                </g>
                <g id="Group-143" transform="translate(67.000000, 0.220000)">
                    <mask id="mask-44" fill="white">
                        <use xlink:href="#path-43"></use>
                    </mask>
                    <g id="Clip-142"></g>
                    <polygon id="Fill-141" fill="#1C75BB" mask="url(#mask-44)" points="-1.91 64.922 5.106 64.922 5.106 -2.217 -1.91 -2.217"></polygon>
                </g>
                <g id="Group-146" transform="translate(45.000000, 0.220000)">
                    <mask id="mask-46" fill="white">
                        <use xlink:href="#path-45"></use>
                    </mask>
                    <g id="Clip-145"></g>
                    <polygon id="Fill-144" fill="#1C75BB" mask="url(#mask-46)" points="-2.166 64.852 4.85 64.852 4.85 -2.146 -2.166 -2.146"></polygon>
                </g>
                <g id="Group-149" transform="translate(46.000000, 30.220000)">
                    <mask id="mask-48" fill="white">
                        <use xlink:href="#path-47"></use>
                    </mask>
                    <g id="Clip-148"></g>
                    <polygon id="Fill-147" fill="#084E75" mask="url(#mask-48)" points="-1.963 4.837 24.903 4.837 24.903 -2.179 -1.963 -2.179"></polygon>
                </g>
                <g id="Group-152" transform="translate(92.000000, 30.220000)">
                    <mask id="mask-50" fill="white">
                        <use xlink:href="#path-49"></use>
                    </mask>
                    <g id="Clip-151"></g>
                    <polygon id="Fill-150" fill="#084E75" mask="url(#mask-50)" points="-1.74 4.837 23.207 4.837 23.207 -2.179 -1.74 -2.179"></polygon>
                </g>
                <g id="Group-155" transform="translate(92.000000, 0.220000)">
                    <mask id="mask-52" fill="white">
                        <use xlink:href="#path-51"></use>
                    </mask>
                    <g id="Clip-154"></g>
                    <polygon id="Fill-153" fill="#1C75BB" mask="url(#mask-52)" points="-2.248 64.922 4.768 64.922 4.768 -2.217 -2.248 -2.217"></polygon>
                </g>
                <g id="Group-158" transform="translate(112.000000, 0.220000)">
                    <mask id="mask-54" fill="white">
                        <use xlink:href="#path-53"></use>
                    </mask>
                    <g id="Clip-157"></g>
                    <polygon id="Fill-156" fill="#1C75BB" mask="url(#mask-54)" points="-2.398 64.922 4.618 64.922 4.618 -2.217 -2.398 -2.217"></polygon>
                </g>
                <g id="Group-161" transform="translate(70.000000, 3.220000)">
                    <mask id="mask-56" fill="white">
                        <use xlink:href="#path-55"></use>
                    </mask>
                    <g id="Clip-160"></g>
                    <polygon id="Fill-159" fill="#1C75BB" mask="url(#mask-56)" points="-2.504 4.128 24.362 4.128 24.362 -2.888 -2.504 -2.888"></polygon>
                </g>
                <g id="Group-164" transform="translate(48.000000, 3.220000)">
                    <mask id="mask-58" fill="white">
                        <use xlink:href="#path-57"></use>
                    </mask>
                    <g id="Clip-163"></g>
                    <polygon id="Fill-162" fill="#1C75BB" mask="url(#mask-58)" points="-2.76 4.128 21.699 4.128 21.699 -2.888 -2.76 -2.888"></polygon>
                </g>
                <g id="Group-167" transform="translate(48.000000, 32.220000)">
                    <mask id="mask-60" fill="white">
                        <use xlink:href="#path-59"></use>
                    </mask>
                    <g id="Clip-166"></g>
                    <polygon id="Fill-165" fill="#0280DA" mask="url(#mask-60)" points="-2.76 4.642 21.699 4.642 21.699 -2.374 -2.76 -2.374"></polygon>
                </g>
                <g id="Group-170" transform="translate(94.000000, 32.220000)">
                    <mask id="mask-62" fill="white">
                        <use xlink:href="#path-61"></use>
                    </mask>
                    <g id="Clip-169"></g>
                    <polygon id="Fill-168" fill="#0280DA" mask="url(#mask-62)" points="-2.444 4.662 20.813 4.662 20.813 -2.354 -2.444 -2.354"></polygon>
                </g>
                <g id="Group-173" transform="translate(29.000000, 3.220000)">
                    <mask id="mask-64" fill="white">
                        <use xlink:href="#path-63"></use>
                    </mask>
                    <g id="Clip-172"></g>
                    <polygon id="Fill-171" fill="#1C75BB" mask="url(#mask-64)" points="-2.407 4.128 19.578 4.128 19.578 -2.888 -2.407 -2.888"></polygon>
                </g>
                <g id="Group-176" transform="translate(114.000000, 3.220000)">
                    <mask id="mask-66" fill="white">
                        <use xlink:href="#path-65"></use>
                    </mask>
                    <g id="Clip-175"></g>
                    <polygon id="Fill-174" fill="#1C75BB" mask="url(#mask-66)" points="-1.992 4.128 16.452 4.128 16.452 -2.888 -1.992 -2.888"></polygon>
                </g>
                <g id="Group-179" transform="translate(95.000000, 3.220000)">
                    <mask id="mask-68" fill="white">
                        <use xlink:href="#path-67"></use>
                    </mask>
                    <g id="Clip-178"></g>
                    <polygon id="Fill-177" fill="#1C75BB" mask="url(#mask-68)" points="-2.842 4.128 19.212 4.128 19.212 -2.888 -2.842 -2.888"></polygon>
                </g>
                <g id="Group-213" transform="translate(22.000000, 29.220000)">
                    <path d="M111.2805,31.5361 L110.6785,31.7481 C110.1395,31.9381 109.6185,31.7651 109.2075,31.3701 C109.0265,31.1941 108.7435,30.8561 108.5965,30.7591 C108.1825,30.4821 107.1925,30.1231 106.8975,30.2051 C106.6025,30.2881 106.8445,30.8051 107.1305,30.9681 C107.4175,31.1311 107.8425,31.3161 108.1325,31.5871 C108.4215,31.8581 107.0785,33.0881 106.4915,33.4711 C105.9055,33.8531 104.6575,33.9061 104.7355,34.4771 C104.8135,35.0481 105.6865,34.8281 105.6865,34.8281 C105.6865,34.8281 105.6075,35.3941 106.4485,35.5441 C106.4485,35.5441 106.4895,36.0571 107.0315,36.1481 C107.0315,36.1481 107.1895,36.7611 107.7715,36.7311 C108.3525,36.7021 110.1635,36.5991 112.6975,33.5071 L111.2805,31.5361 Z" id="Fill-180" fill="#F9AF8B"></path>
                    <path d="M56.0681,58.9326 L24.0651,58.9326 C24.5941,55.7226 27.1401,53.3896 30.1091,53.399568 L40.0671,53.4286 L50.0241,53.399568 C52.9921,53.3896 55.5391,55.7226 56.0681,58.9326" id="Fill-182" fill="#FF5767"></path>
                    <polygon id="Fill-184" fill="#FF5767" points="26.582 88.205 28.326 88.205 28.326 58.474 26.582 58.474"></polygon>
                    <polygon id="Fill-186" fill="#FF5767" points="51.807 88.205 53.551 88.205 53.551 58.474 51.807 58.474"></polygon>
                    <polygon id="Fill-187" fill="#E22445" points="28.326 68.516 51.807 68.516 51.807 66.834 28.326 66.834"></polygon>
                    <path d="M32.2317,18.7656 C32.2317,18.7656 26.8867,25.8936 26.1757,32.1106 C25.6727,36.5006 32.2317,43.0616 32.2317,43.0616 L34.4907,41.9376 L32.2387,36.8596 C31.4377,34.3866 30.4507,33.4096 31.1797,30.9136 L32.8107,27.3976 L32.2317,18.7656 Z" id="Fill-188" fill="#308DFC"></path>
                    <path d="M49.0739,18.6582 C49.0739,18.6582 54.3489,26.2592 54.7859,32.5012 C55.1629,37.8822 48.7049,43.0612 48.7049,43.0612 L46.8399,42.1332 L49.4229,37.0032 C50.2239,34.5302 50.6049,33.0392 49.5119,30.3472 L48.1259,27.3972 L49.0739,18.6582 Z" id="Fill-189" fill="#308DFC"></path>
                    <path d="M33.32,34.999 L29.778,46.27 C29.778,46.27 45.116,48.227 49.807,46.96 L47.424,34.686 L49.074,18.658 C46.778,17.691 44.345,17.073 41.86,16.894 C38.232,16.632 35.941,17.229 32.232,18.766 L33.32,34.999 Z" id="Fill-190" fill="#308DFC"></path>
                    <polygon id="Fill-191" fill="#F7AD89" points="39.8811 82.5469 40.1571 85.0349 42.8041 85.0959 43.0261 83.0299"></polygon>
                    <path d="M39.466,43.0918 C39.466,43.0918 32.612,42.7158 30.291,44.6148 C27.969,46.5148 28.436,51.9648 30.801,53.4528 C33.166,54.9408 37.197,57.8648 37.197,57.8648 L39.761,83.3578 L43.15,83.4728 C43.15,83.4728 46.272,57.8648 44.689,52.9048 C43.107,47.9458 39.466,43.0918 39.466,43.0918" id="Fill-192" fill="#2E3052"></path>
                    <path d="M43.4626,82.208 C43.6476,82.804 43.5596,83.381 43.3756,83.954 L39.4766,83.867 C39.3386,83.3 39.3186,82.729 39.4006,82.157 L43.4626,82.208 Z" id="Fill-193" fill="#2E3052"></path>
                    <path d="M49.1648,42.8994 L31.1798,42.8994 L29.5178,33.1794 C29.3728,32.3374 30.0218,31.5694 30.8758,31.5694 L49.4688,31.5694 C50.3228,31.5694 50.9708,32.3374 50.8268,33.1794 L49.1648,42.8994 Z" id="Fill-194" fill="#C6C6C6"></path>
                    <path d="M47.0691,45.0127 L33.2931,45.0127 C32.1261,45.0127 31.1791,44.0667 31.1791,42.8997 L49.1831,42.8997 C49.1831,44.0667 48.2361,45.0127 47.0691,45.0127" id="Fill-195" fill="#4A5180"></path>
                    <path d="M41.7746,37.6348 C41.7746,38.4978 41.0756,39.1968 40.2126,39.1968 C39.3496,39.1968 38.6496,38.4978 38.6496,37.6348 C38.6496,36.7728 39.3496,36.0728 40.2126,36.0728 C41.0756,36.0728 41.7746,36.7728 41.7746,37.6348" id="Fill-196" fill="#FFF9FF"></path>
                    <polygon id="Fill-197" fill="#F7AD89" points="28.6399 75.5479 28.0529 78.0109 30.4279 78.4799 31.3959 76.2799"></polygon>
                    <path d="M42.948,42.6699 C42.948,42.6699 38.358,41.0869 35.667,44.4109 C32.976,47.7349 28.471,75.7929 28.471,75.7929 L31.56,77.0679 L41.489,52.1489 C41.489,52.1489 49.575,56.7639 50.554,50.2039 C51.329,45.0129 42.948,42.6699 42.948,42.6699" id="Fill-198" fill="#2E3052"></path>
                    <path d="M32.2595,75.7822 C32.2485,76.4262 31.9755,76.9632 31.6105,77.4672 L27.8145,76.1242 C27.8625,75.5222 28.0265,74.9572 28.2915,74.4222 L32.2595,75.7822 Z" id="Fill-199" fill="#445279"></path>
                    <path d="M29.8654,77.6055 C29.8654,77.6055 28.4264,76.8755 28.0024,76.7915 C27.5784,76.7085 24.0784,79.1905 23.0874,79.1665 C21.2894,79.1225 20.7134,81.7625 21.7354,82.1225 C24.6914,83.1615 30.1614,83.0325 30.1614,83.0325 C30.1614,83.0325 31.3764,79.7485 31.3994,78.6395 C31.4224,77.5315 30.6464,78.1025 29.8654,77.6055" id="Fill-200" fill="#005DB1"></path>
                    <path d="M41.1789,84.9307 C41.1789,84.9307 42.6519,84.4837 43.0639,84.4756835 C43.4759,84.4677 46.3499,87.3797 47.2859,87.5227 C48.9819,87.7797 49.0839,90.3547 48.0649,90.5227 C45.1169,91.0077 39.9989,89.9787 39.9989,89.9787 C39.9989,89.9787 39.4039,86.6927 39.5659,85.6477 C39.7289,84.6027 40.3629,85.2677 41.1789,84.9307" id="Fill-201" fill="#005DB1"></path>
                    <path d="M45.1799,2.6909 C45.1799,2.6909 47.3609,6.0689 47.1219,9.5879 C46.8829,13.1079 47.4439,17.1699 44.2949,16.9909 C41.1459,16.8129 35.5289,18.2539 33.7439,15.5129 C31.9589,12.7729 45.1799,2.6909 45.1799,2.6909" id="Fill-202" fill="#2E3052"></path>
                    <path d="M45.9885,8.9028 C45.9885,8.9028 46.5545,14.0038 44.1345,15.4078 C41.7135,16.8128 39.9615,15.2448 39.9615,15.2448 C39.9615,15.2448 45.0635,8.1348 45.9885,8.9028" id="Fill-203" fill="#000B29"></path>
                    <path d="M42.552,14.1768 L42.552,16.9908 C42.552,16.9908 41.713,18.4248 40.577,18.5228 C39.444,18.6208 38.436,17.2878 38.436,17.2878 L38.436,14.3748 L42.552,14.1768 Z" id="Fill-204" fill="#F7AD89"></path>
                    <path d="M45.5193,6.9482 C45.4673,8.0422 45.3633,9.4102 45.1543,10.5042 C45.1023,10.7762 45.0433,11.0332 44.9773,11.2632 C44.3853,13.3372 42.9043,16.8932 38.7563,15.4122 C36.9243,14.7592 36.0753,12.7182 35.6973,10.6422 C35.4403,9.2332 35.4013,7.8092 35.4203,6.7922 C35.4403,5.7532 36.0073,4.8032 36.9113,4.2912 C39.3593,2.9042 41.9423,3.4212 43.6433,4.0742 C44.8243,4.5282 45.5793,5.6872 45.5193,6.9482" id="Fill-205" fill="#F7AD89"></path>
                    <path d="M46.0578,6.7305 C46.0148,6.8525 45.8958,6.9305 45.7358,6.9775 C45.7478,7.2725 45.7168,7.6265 45.6878,7.9665 C45.5228,9.8985 45.0348,10.2385 44.9248,9.7605 C44.8518,9.4435 44.8568,7.6235 44.8908,7.0295 C44.5098,7.0045 44.1828,6.9405 44.1828,6.9405 L43.7348,5.0645 L43.5788,6.9175 C42.9058,7.1515 41.3368,6.7765 41.3368,6.7765 L40.8108,4.9275 L40.4858,6.7075 C39.4768,7.1985 38.2168,6.8715 38.2168,6.8715 L37.9268,4.9515 L37.2588,6.8715 C37.2588,6.8715 35.1068,7.6435 35.0838,6.8715 C35.0688,6.4215 35.3978,5.1575 35.6758,4.1775 C35.9788,3.1085 36.6808,2.2065 37.6298,1.6965 C40.2988,0.2645 43.1208,1.0265 44.0888,1.6045 C46.1418,2.8305 46.0578,6.7305 46.0578,6.7305" id="Fill-206" fill="#2E3052"></path>
                    <path d="M36.2683,2.8335 C36.2683,2.8335 34.4973,4.9395 33.9143,8.7025 C33.3313,12.4645 32.5253,15.2455 34.7923,16.4875 C37.2463,17.8325 37.0333,15.0745 36.9983,14.3245 C36.9623,13.5755 34.8753,11.5265 36.2683,5.7565 C36.7183,3.8935 36.2683,2.8335 36.2683,2.8335" id="Fill-207" fill="#2E3052"></path>
                    <path d="M62.5705,18.4941 L62.5705,24.7001 C62.5705,25.5201 61.9045,26.1861 61.0845,26.1861 L49.8155,26.1861 L46.4135,27.4071 C46.0645,27.5321 45.7295,27.1881 45.8635,26.8441 L47.1505,23.5201 L47.1505,18.4941 C47.1505,17.6741 47.8165,17.0081 48.6375,17.0081 L61.0845,17.0081 C61.9045,17.0081 62.5705,17.6741 62.5705,18.4941" id="Fill-208" fill="#1C75BB"></path>
                    <path d="M52.7805,21.7734 C52.7805,22.3674 52.2995,22.8484 51.7055,22.8484 C51.1125,22.8484 50.6305,22.3674 50.6305,21.7734 C50.6305,21.1794 51.1125,20.6984 51.7055,20.6984 C52.2995,20.6984 52.7805,21.1794 52.7805,21.7734" id="Fill-209" fill="#FFFFFF"></path>
                    <path d="M56.1833,21.7734 C56.1833,22.3674 55.7023,22.8484 55.1083,22.8484 C54.5153,22.8484 54.0333,22.3674 54.0333,21.7734 C54.0333,21.1794 54.5153,20.6984 55.1083,20.6984 C55.7023,20.6984 56.1833,21.1794 56.1833,21.7734" id="Fill-210" fill="#FFFFFF"></path>
                    <path d="M59.5862,21.7734 C59.5862,22.3674 59.1052,22.8484 58.5112,22.8484 C57.9182,22.8484 57.4362,22.3674 57.4362,21.7734 C57.4362,21.1794 57.9182,20.6984 58.5112,20.6984 C59.1052,20.6984 59.5862,21.1794 59.5862,21.7734" id="Fill-211" fill="#FFFFFF"></path>
                    <path d="M0.7639,31.8545 L1.3979,31.8545 C1.9659,31.8545 2.3959,31.5205 2.6509,31.0135 C2.7639,30.7905 2.9159,30.3795 3.0219,30.2395 C3.3189,29.8435 4.1279,29.1795 4.4309,29.1605 C4.7339,29.1395 4.6779,29.7035 4.4639,29.9515 C4.2499,30.1985 3.9119,30.5125 3.7299,30.8625 C3.5489,31.2115 5.2139,31.9195 5.8889,32.0845 C6.5649,32.2505 7.7519,31.8875 7.8669,32.4475 C7.9829,33.0075 7.0929,33.0905 7.0929,33.0905 C7.0929,33.0905 7.3529,33.5955 6.6149,34.0135 C6.6149,34.0135 6.7459,34.5075 6.2679,34.7715 C6.2679,34.7715 6.3229,35.3975 5.7679,35.5625 C5.2139,35.7275 3.4829,36.2295 0.0879,34.1685 L0.7639,31.8545 Z" id="Fill-212" fill="#F7AD89"></path>
                </g>
            </g>
        </g>
    </g>
</svg>