<?xml version="1.0" encoding="UTF-8"?>
<svg width="576px" height="318px" viewBox="0 0 576 318" version="1.1" xmlns="http://www.w3.org/2000/svg" xmlns:xlink="http://www.w3.org/1999/xlink">
    <!-- Generator: Sketch 59.1 (86144) - https://sketch.com -->
    <title>Group 18</title>
    <desc>Created with Sketch.</desc>
    <defs>
        <filter x="-2.7%" y="-5.9%" width="105.5%" height="111.7%" filterUnits="objectBoundingBox" id="filter-1">
            <feGaussianBlur stdDeviation="5" in="SourceGraphic"></feGaussianBlur>
        </filter>
        <filter x="-2.0%" y="-4.1%" width="103.9%" height="108.3%" filterUnits="objectBoundingBox" id="filter-2">
            <feGaussianBlur stdDeviation="2" in="SourceGraphic"></feGaussianBlur>
        </filter>
        <polygon id="path-3" points="0.219253341 0.203296154 25.634891 0.203296154 25.634891 17.8252962 0.219253341 17.8252962"></polygon>
    </defs>
    <g id="Services-Page" stroke="none" stroke-width="1" fill="none" fill-rule="evenodd">
        <g transform="translate(-756.000000, -168.000000)" id="Group-18">
            <g transform="translate(769.000000, 168.000000)">
                <path d="M463.915395,304.066231 C463.915395,304.066231 524.653082,309.971479 542.843536,273.694346 C569.286642,220.959411 516.770721,179.52053 477.81033,187.087541 C392.915096,203.574865 413.357847,21.6825572 277.112213,58.8043158 C238.801783,69.2428486 135.291838,7.23434643 106.422999,106.659496 C99.5581772,130.302208 75.2363575,132.905648 39.9293297,147.907667 C-29.1702973,177.267631 2.4246493,304.562011 51.7990294,305.061524 C101.173409,305.561037 463.915395,304.066231 463.915395,304.066231" id="Fill-1" fill="#ECFAFE" filter="url(#filter-1)"></path>
                <path d="M240.78482,142.790587 C236.678257,146.917206 232.15342,150.499674 227.268799,153.519251 C215.436415,144.854408 202.795709,137.434603 189.624509,131.430885 C191.435328,128.10533 193.220302,124.593734 194.963109,120.927105 C207.020613,122.527869 218.612575,123.489077 229.195579,123.737472 C231.957885,123.817544 234.639938,123.817544 237.242076,123.797441 C243.987504,123.717028 249.992282,123.316325 255.136708,122.594312 C251.533774,130.075108 246.710024,136.853653 240.78482,142.790587 M217.186023,158.734854 C208.018689,162.625685 198.310659,164.591034 188.282292,164.591034 C180.557491,164.591034 173.010542,163.423682 165.761145,161.109082 C171.255153,158.223754 176.775685,151.596835 181.026774,145.490556 C183.21982,142.34116 185.410826,138.855801 187.573947,135.093766 C200.045304,140.753344 212.036496,147.707026 223.301321,155.805911 C221.314691,156.86968 219.276372,157.848607 217.186023,158.734854 M119.827214,119.124626 C119.659905,118.72665 119.497016,118.327311 119.336848,117.92729 C125.052234,118.157966 135.647821,119.024792 149.182545,122.112175 C150.151035,122.332629 151.118846,122.564327 152.086316,122.800455 C151.389534,126.871535 150.875363,130.761685 150.558087,134.418092 C149.956861,141.343834 149.914014,149.328575 151.841133,155.032447 C145.972719,151.721884 140.589571,147.629679 135.760041,142.790587 C128.934358,135.951732 123.569913,127.98948 119.827214,119.124626 M117.205012,102.29752 C119.126351,103.019534 121.088156,103.741547 123.109472,104.443458 C132.402629,107.6702 142.820364,110.669334 153.963787,113.329778 C153.559116,115.139071 153.18539,116.921787 152.84329,118.676903 C151.932949,118.455426 151.021589,118.23872 150.109548,118.030873 C134.704155,114.517233 123.143478,113.802715 117.784474,113.681414 C116.45722,109.675415 115.480908,105.577758 114.86302,101.395259 C115.643457,101.696126 116.424235,101.996653 117.205012,102.29752 M106.436335,93.774081 C92.2442754,86.8343692 85.7593331,80.1358964 88.6617444,75.3830099 C91.0037369,71.532044 99.5303989,68.9250948 112.580878,67.9621829 C110.979536,73.3771139 109.998803,78.9726335 109.618616,84.6485661 C109.498575,86.3331507 109.438724,88.0180761 109.418661,89.722764 L109.418661,90.1640134 C109.418661,91.8687013 109.478511,93.5737299 109.578829,95.2579738 C108.497778,94.7768586 107.456855,94.2752994 106.436335,93.774081 M119.827214,61.2034004 C120.48761,59.6793011 121.16807,58.1746236 121.908721,56.710834 C121.909401,56.7094711 121.910081,56.7081081 121.910761,56.7070859 C131.084557,68.1962666 144.606359,79.9416785 160.404862,90.1278957 C158.164887,96.9595951 156.25341,103.673401 154.710899,110.107465 C143.216874,107.32129 132.565178,104.168145 123.229853,100.793524 C121.268048,100.091614 119.366773,99.3692598 117.545412,98.6472463 C116.464362,98.2261001 115.403375,97.7851915 114.362451,97.343942 C114.202623,95.7394297 114.082242,94.1148141 114.042455,92.4901985 C114.022052,91.708216 114.002328,90.9463367 114.002328,90.1640134 C114.002328,89.2614113 114.022052,88.338706 114.042455,87.4364446 C114.302601,80.6773214 115.443502,74.0790242 117.445094,67.7011813 C117.785154,66.6183314 118.145278,65.555244 118.545868,64.4924974 C118.946459,63.3895442 119.366773,62.2862503 119.827214,61.2034004 M115.725071,25.0495702 C118.139497,21.209167 123.535227,19.2271223 131.111422,19.2271223 C134.73544,19.2271223 138.860027,19.6802974 143.393365,20.602662 C145.114748,20.9515727 146.872858,21.3628376 148.661233,21.8350938 C148.662593,21.8354345 148.664294,21.836116 148.664294,21.836116 C142.782618,25.245151 137.380086,29.4160653 132.517229,34.3083117 C131.49637,35.3110893 130.515637,36.3540735 129.554628,37.4372641 C128.353876,38.7610123 127.212635,40.1443889 126.112201,41.5485501 C124.350691,43.7950037 122.729625,46.1412921 121.228261,48.5478902 C121.226901,48.5499346 121.22554,48.5523198 121.22452,48.5540234 C114.529761,38.5940531 112.517286,30.1489823 115.725071,25.0495702 M188.282292,15.7366521 C193.427398,15.7366521 198.48749,16.2555887 203.434001,17.2846027 C197.599933,19.8295385 191.642764,26.9116768 187.120988,33.4063911 C182.493452,40.0527317 177.872378,48.1877353 173.50873,57.2934877 C170.564491,55.6903383 167.778721,53.9587325 165.1623,52.099011 C152.749773,43.2750449 147.27957,33.7610943 145.291239,29.4634272 C148.335796,27.2939794 151.53712,25.3565707 154.884329,23.66449 L154.88705,23.6655122 C156.25069,22.9758683 157.640855,22.3312012 159.051423,21.7257184 C159.154121,21.6817639 159.256139,21.6364464 159.359177,21.5931732 C159.382302,21.5822698 159.407126,21.57307 159.43093,21.562848 C159.731543,21.4354138 160.033516,21.3113869 160.33617,21.188723 C160.417444,21.1563534 160.500078,21.123643 160.579993,21.0912733 C169.36714,17.5415155 178.694643,15.7366521 188.282292,15.7366521 M240.78482,37.5374397 C247.610503,44.3762944 252.975288,52.3385464 256.717987,61.2034004 C258.052722,64.3705149 259.160297,67.6067983 260.038672,70.9010062 C242.919376,72.1555856 227.232073,71.7616981 213.209703,69.727862 C215.434715,60.6180209 216.932679,52.0482418 217.590015,44.4785144 C218.315702,36.1196491 218.227287,26.2186256 214.844711,20.6469573 C215.628549,20.9488469 216.409327,21.2633436 217.186023,21.5931732 C226.033022,25.3432821 233.979542,30.6982441 240.78482,37.5374397 M200.004157,71.5112593 C202.613096,72.118105 205.293109,72.6568041 208.033311,73.1348527 C206.107892,80.3945129 203.736314,87.9550405 200.972988,95.5895071 C199.90792,98.5317378 198.804766,101.42831 197.670326,104.267639 C187.289997,100.449043 176.272737,94.9870909 165.440809,88.2405748 C166.000887,86.6013077 166.578309,84.9562481 167.175114,83.3070997 C169.742907,76.2143988 172.529017,69.3881511 175.450812,62.9956567 C182.813109,66.5706288 191.023175,69.4215429 200.004157,71.5112593 M208.955894,20.7079486 C211.233615,21.5355893 212.389819,24.8107163 212.958739,27.4128952 C213.857517,31.5248627 214.020066,37.3009709 213.428702,44.1159743 C212.780887,51.5756449 211.290405,60.0483151 209.071514,69.0702471 C206.391842,68.6082129 203.774741,68.0855283 201.226332,67.4981044 C192.419801,65.4690386 184.392007,62.6937672 177.223204,59.207045 C181.500818,50.2682518 186.024634,42.2964594 190.547091,35.8007229 C194.453359,30.190211 198.272912,25.8615372 201.593937,23.2832096 C203.326882,21.9373137 205.658673,20.4973755 207.700733,20.4973755 C208.134989,20.4973755 208.556323,20.5624555 208.955894,20.7079486 M141.880439,32.045503 C142.564639,33.4500049 143.509326,35.1904698 144.78319,37.1629739 C150.211566,45.5688604 157.380709,51.6621911 162.43944,55.2937249 C165.344232,57.378671 168.444218,59.3113093 171.729877,61.0892548 C168.730888,67.6367828 165.874725,74.6245379 163.248443,81.8801094 C162.758756,83.2331606 162.282672,84.5834861 161.81713,85.9307449 C146.130507,75.6998917 132.849808,63.9602722 124.137133,52.5985258 C124.136113,52.5971628 124.135093,52.5951184 124.133733,52.5937555 C126.314877,48.8657943 128.815337,45.3371619 131.616751,42.0296653 C132.777375,40.6660513 133.978467,39.3426438 135.239409,38.0587614 C135.419641,37.8785135 135.579809,37.7180282 135.760041,37.5374397 C137.708244,35.5850388 139.752004,33.7553018 141.880439,32.045503 M168.106198,113.107961 C164.947042,112.456479 161.833793,111.776035 158.774274,111.069354 C160.214428,105.063933 161.98376,98.8033021 164.049964,92.424437 C174.787695,99.0380672 185.707359,104.418243 196.04688,108.236158 C194.749891,111.338874 193.417537,114.364584 192.056957,117.292845 C184.203274,116.163996 176.167998,114.764264 168.106198,113.107961 M185.791353,129.73199 C176.368974,125.663636 166.681347,122.301281 156.896804,119.705917 C157.241624,117.926609 157.619431,116.116634 158.030563,114.278379 C160.751043,114.898513 163.510969,115.498204 166.304561,116.076087 C174.480281,117.751813 182.637298,119.174033 190.621224,120.325029 C189.039946,123.603563 187.425681,126.745804 185.791353,129.73199 M159.192208,158.188999 C156.914487,157.361358 155.758623,154.08555 155.189363,151.483712 C154.290245,147.371403 154.128036,141.595636 154.7194,134.780633 C155.018653,131.334117 155.499498,127.669532 156.146632,123.836625 C165.482296,126.329429 174.726824,129.535727 183.72957,133.3993 C181.701793,136.902719 179.651572,140.151268 177.601351,143.095884 C173.694743,148.706396 169.87519,153.034729 166.554165,155.613738 C164.452595,157.245509 161.469929,159.015618 159.192208,158.188999 M256.758114,119.024451 C251.413733,119.987022 244.747878,120.54855 236.961867,120.628622 C224.879879,120.776501 211.003734,119.820063 196.380819,117.889469 C197.611155,115.205514 198.817348,112.447279 199.993615,109.62669 C204.531714,111.148064 208.93549,112.352555 213.13523,113.206433 C217.947078,114.185359 222.337591,114.668518 226.256781,114.668518 C235.443499,114.668518 242.025359,112.011141 245.275991,106.840856 C245.810566,105.989023 246.246862,105.086421 246.583522,104.132368 L241.900217,104.132368 C241.823023,104.275476 241.740389,104.41654 241.654353,104.553855 C239.239248,108.394258 233.843518,110.378007 226.267323,110.376303 C222.643985,110.376303 218.518718,109.923128 213.98504,109.001104 C210.033544,108.197996 205.889914,107.069829 201.617061,105.648972 C202.7447,102.821909 203.840713,99.9413508 204.899659,97.0161568 C207.754122,89.1302291 210.198133,81.3121072 212.174561,73.804734 C221.184448,75.1356376 230.854051,75.8034746 241.129641,75.8034746 C247.526848,75.8034746 254.159716,75.5451989 261.011243,75.0272845 C262.028702,79.9692779 262.542533,85.0271206 262.542533,90.1640134 C262.542533,100.171686 260.600791,109.878833 256.758114,119.024451 M275.593012,106.088177 L269.488256,105.947794 C271.450062,108.495115 271.890439,110.841404 270.669284,112.827197 C269.448129,114.852855 266.525654,116.517336 262.162006,117.780775 C265.465008,108.976231 267.1262,99.6905712 267.1262,90.1640134 C267.1262,79.4939552 265.044694,69.1452084 260.921467,59.4182995 C256.958409,50.0120205 251.273628,41.5485501 244.027291,34.3083117 C236.781975,27.04797 228.354611,21.3522749 218.967257,17.3612677 C209.239504,13.2493002 198.910864,11.1636727 188.282292,11.1636727 C177.633997,11.1636727 167.305357,13.2493002 157.577604,17.3612677 C156.416299,17.8624861 155.255675,18.3841486 154.134837,18.9255735 C154.131437,18.9272772 154.128036,18.9289808 154.124635,18.9306845 C150.733218,17.8938336 147.430556,17.0440451 144.243515,16.3969929 C128.156641,13.1259548 116.74049,15.3867192 112.103434,22.7625694 C107.690476,29.7775832 110.092999,40.3375846 118.849542,52.6537245 C118.848522,52.6557689 118.847501,52.6578133 118.846141,52.659517 C117.665113,54.8456608 116.604466,57.0917736 115.623394,59.4182995 C114.883083,61.1631939 114.222687,62.9080883 113.621801,64.6928485 C97.1686829,65.6758636 88.3611314,68.5768655 85.1587874,73.8316519 C81.4358116,79.9488339 86.5197071,88.1584581 102.793274,96.1408133 C105.035289,97.2437665 107.436792,98.3266164 109.959356,99.4098071 C110.799644,106.81019 112.701259,114.010222 115.623394,120.909387 C119.586792,130.315666 125.271233,138.779477 132.517229,146.039478 C139.763226,153.279375 148.18991,158.975411 157.577604,162.966759 C167.305357,167.078045 177.633997,169.163673 188.282292,169.163673 C198.910864,169.163673 209.239504,167.078045 218.967257,162.966759 C228.354611,158.975411 236.781975,153.279375 244.027291,146.039478 C251.073673,138.979828 256.658136,130.757256 260.600791,121.651844 C268.627565,119.987022 273.911755,117.379732 276.013666,113.93015 C277.474903,111.543314 277.294331,108.895818 275.593012,106.088177" id="Fill-3" fill="#308DFC"></path>
                <path d="M435.840107,282.9197 C434.162113,276.385085 422.81852,281.446142 413.477257,286.929578 C413.041304,286.238102 412.590084,285.553439 412.125973,284.87661 C418.813183,280.711065 428.204657,273.783705 424.630184,269.567747 C421.099136,265.402884 414.197512,274.833181 409.881071,281.787451 C398.316957,266.718391 381.168916,255.993364 381.168916,255.993364 C381.168916,255.993364 452.732005,196.293125 399.256036,164.79794 C345.780068,133.302414 305.153001,244.123145 305.153001,244.123145 C305.153001,244.123145 268.612017,210.148526 233.720868,222.695915 C197.88996,235.581547 220.281648,259.461643 189.165477,265.919958 C185.501438,251.835994 178.729412,231.974633 169.469232,230.810024 C157.239485,229.271746 162.385424,244.639538 180.968886,267.089676 C177.366593,267.414295 173.263209,267.580521 168.573917,267.566215 C118.666316,267.41702 131.473149,303.49536 131.473149,303.49536 L420.02503,304.163673 C419.633521,300.613303 418.604876,297.122543 417.123993,293.742487 C427.007738,292.183431 437.420054,289.072812 435.840107,282.9197" id="Fill-5" fill-opacity="0.0825775787" fill="#308DFC" filter="url(#filter-2)"></path>
                <path d="M285.649477,145.578571 L273.103797,295.074064 C273.103797,295.074064 271.789394,304.135989 278.515308,304.151921 C289.574421,304.178362 333.559561,304.151921 333.559561,304.151921 C333.559561,304.151921 325.2358,302.265503 325.336595,298.021487 C325.455656,293.018157 340,144.163673 340,144.163673 L285.649477,145.578571 Z" id="Fill-7" fill="#A0A0A0"></path>
                <path d="M337.47652,300.100389 C335.302252,300.107167 293.316435,300.239326 282.553605,300.100389 C277.862636,300.042104 277.040187,295.919753 277.00165,293.251831 C276.982044,291.972936 277.143627,291.02715 277.143627,291.02715 L277.469834,287.143025 L278.300735,277.242605 L279.034956,268.495698 L279.978085,257.256064 L280.772477,247.769404 L289.681161,141.57676 L344,140.163673 C344,140.163673 337.877773,202.438453 333.547491,247.769404 C333.064095,252.820259 332.604361,257.663047 332.179108,262.183231 C332.04085,263.626816 331.909353,265.03787 331.779546,266.411987 C331.378293,270.701062 331.011183,274.639407 330.691736,278.116889 C330.52373,279.949497 330.367894,281.652995 330.227946,283.213152 C329.674914,289.326024 329.351072,293.229804 329.346678,293.972268 C329.34465,294.405005 329.381496,294.807582 329.452822,295.181694 C330.344232,299.944848 336.660493,300.100389 337.47652,300.100389" id="Fill-9" fill="#898989"></path>
                <polygon id="Fill-11" fill="#E8E8E8" points="152 63.1636727 182.714908 187.327016 186.920334 204.331724 201.225921 262.163673 467 262.163673 414.27205 63.1636727"></polygon>
                <polygon id="Fill-13" fill="#A3A3A3" points="153.218264 65.1636727 149 66.5821576 196.391707 267.163673 202 262.872866"></polygon>
                <polygon id="Fill-15" fill="#989899" points="196 264.163673 460.69035 264.163673 468 261.163673 201.670975 261.163673"></polygon>
                <polygon id="Fill-17" fill="#C1C1C1" points="289 303.163673 347 303.163673 347 301.163673 289 301.163673"></polygon>
                <polygon id="Fill-19" fill="#A3A3A3" points="332 265.163673 331.705339 267.250324 278 278.163673 278.737331 269.350293 279.088344 265.163673"></polygon>
                <path d="M338,300.103938 C335.806852,300.110335 293.456453,300.235083 282.600165,300.103938 C277.868462,300.048921 277.038871,296.157735 277,293.63942 L330.688483,284.163673 C330.130649,289.933758 329.803996,293.618629 329.799563,294.319458 C329.797517,294.727929 329.834683,295.107931 329.906629,295.461065 C330.805779,299.957119 337.176888,300.103938 338,300.103938" id="Fill-20" fill="#B5B5B5"></path>
                <polygon id="Fill-21" fill="#BABABA" points="319 220.760871 202.299782 261.163673 188 203.163673"></polygon>
                <polygon id="Fill-22" fill="#E0E0E0" points="153 62.1636727 414.561691 62.1636727 457 221.163673 192.455364 221.163673"></polygon>
                <path d="M340.870042,242.163673 C340.132311,238.29779 336.459215,235.163673 332.664652,235.163673 C328.870421,235.163673 326.392454,238.29779 327.129854,242.163673 C327.867584,246.029556 331.541012,249.163673 335.335574,249.163673 C339.129805,249.163673 341.607772,246.029556 340.870042,242.163673" id="Fill-23" fill="#6B2BA7"></path>
                <polygon id="Fill-24" fill="#FFFFFF" points="446 215.163673 200.078045 215.163673 172.227938 104.007573 170.093243 95.4832906 168.271092 88.2118968 164 71.1636727 406.377067 71.1636727 411.067608 88.2118968 413.068502 95.4832906 415.413602 104.007573"></polygon>
                <polygon id="Fill-25" fill="#178FE3" points="410 90.1636727 168.25263 90.1636727 164 74.1636727 405.329734 74.1636727"></polygon>
                <path d="M176.51639,78.1636727 C175.444709,78.1636727 174.79257,78.8354076 175.059947,79.6636727 C175.327013,80.4921778 176.412048,81.1636727 177.48373,81.1636727 C178.555101,81.1636727 179.20724,80.4921778 178.940173,79.6636727 C178.673107,78.8354076 177.587451,78.1636727 176.51639,78.1636727" id="Fill-26" fill="#E9F3FE"></path>
                <path d="M182.516469,78.1636727 C181.444866,78.1636727 180.792774,78.8354076 181.059821,79.6636727 C181.327179,80.4921778 182.412135,81.1636727 183.483738,81.1636727 C184.555032,81.1636727 185.207433,80.4921778 184.940076,79.6636727 C184.673029,78.8354076 183.587763,78.1636727 182.516469,78.1636727" id="Fill-27" fill="#E9F3FE"></path>
                <path d="M192.940159,79.6636727 C192.673107,78.8354076 191.587823,78.1636727 190.516202,78.1636727 C189.444582,78.1636727 188.79279,78.8354076 189.059841,79.6636727 C189.326893,80.4921778 190.412177,81.1636727 191.483798,81.1636727 C192.555418,81.1636727 193.20721,80.4921778 192.940159,79.6636727" id="Fill-28" fill="#E9F3FE"></path>
                <path d="M69.8265128,105.794863 C69.8265128,105.794863 70.3788845,103.282187 69.5123701,101.020562 C68.6458557,98.7585758 70.0457634,97.1912238 69.692665,96.50851 C69.3393169,95.8257962 67.0354373,95.8958737 66.248832,99.1779571 C65.4624764,102.460402 66.7912151,106.163673 66.7912151,106.163673 L69.8265128,105.794863 Z" id="Fill-29" fill="#FCA56B"></path>
                <path d="M57.4197334,122.737934 C59.5621366,123.40015 61.7690148,121.925507 62.06848,119.679126 L65.0755684,106.127262 C65.0755684,106.127262 65.7026451,105.077482 67.8702492,105.169371 C70.2306238,105.26906 70.8688282,106.481258 70.8688282,106.481258 C70.8688282,106.481258 72.328189,130.337652 65.5115111,133.704681 C58.6941786,137.07137 50.9755051,120.746539 57.4197334,122.737934" id="Fill-30" fill="#201251"></path>
                <path d="M72,304.163673 L51.9004267,304.163673 C50.4710811,302.846291 50,295.098607 50,295.098607 C50,295.098607 56.2316317,289.38193 58.2680724,293.905394 C60.2034447,298.204238 65.5528701,300.490908 68.7473137,301.057344 C71.4994549,301.544953 71.93422,303.600725 72,304.163673" id="Fill-31" fill="#6B2BA7"></path>
                <path d="M47,304.163673 L26.9023046,304.163673 C25.4730925,302.846291 25,295.098607 25,295.098607 C25,295.098607 31.2313921,289.38193 33.2672999,293.905394 C35.202834,298.204238 40.5517596,300.490908 43.7459047,301.057344 C46.4977889,301.544953 46.9342261,303.600725 47,304.163673" id="Fill-32" fill="#6B2BA7"></path>
                <path d="M64,199.747383 C64,199.747383 61.2249468,217.87394 50.8713777,250.051874 C40.5181412,282.229468 39.1070014,296.163673 39.1070014,296.163673 L28,295.845442 C28,295.845442 27.9056841,260.678794 32.6768865,244.498298 C37.4487541,228.317122 33.7065563,186.163673 33.7065563,186.163673 L64,199.747383 Z" id="Fill-33" fill="#4A4A4A"></path>
                <path d="M67.9917581,187.163673 C67.9917581,187.163673 68.3826355,214.477519 63.7807324,248.014648 C59.1788294,281.551437 60.7387012,295.787049 60.7387012,295.787049 L49.7170839,296.163673 C49.7170839,296.163673 43.130701,262.614318 45.0192803,245.828263 C46.9075288,229.042209 36,188.228338 36,188.228338 L67.9917581,187.163673 Z" id="Fill-34" fill="#4A4A4A"></path>
                <path d="M46,123.539816 L51.3166138,127.163673 L59,125.674975 C58.8934648,125.03007 58.3864925,122.357385 57.9245018,119.936812 C57.8967688,119.794261 57.8686976,119.651398 57.8426557,119.511959 C57.4469535,117.45181 57.1053645,115.682678 57.1053645,115.682678 L49.9289505,112.390922 L47.2533951,111.163673 C47.2604974,111.207247 47.4603778,113.449787 47.4884489,113.776908 C47.9910245,119.590393 46,123.539816 46,123.539816" id="Fill-35" fill="#FFB27D"></path>
                <path d="M58.696411,122.33804 C58.5365236,122.28251 48.7547602,119.898457 47.6918468,120.188062 C46.6292551,120.477931 46,122.176234 46,122.176234 L62,125.163673 C62,125.163673 60.7405248,123.049031 58.696411,122.33804" id="Fill-36" fill="#A40707"></path>
                <path d="M30.4365293,189.495767 C32.2053849,197.566681 61.6444398,198.524055 69.2326034,191.197689 C70.0957528,190.362518 70.1383096,186.477412 69.8122691,181.238802 C69.1756322,171.00427 67.1311866,155.608707 67.0515641,147.743067 C67.0124392,143.944808 66.4907744,140.059703 65.7954502,136.531939 C64.3169423,129.013 62.0614284,123.112569 62.0614284,123.112569 C62.0614284,123.112569 47.6826991,118.463349 44.9923501,119.254238 C32.0306958,123.063481 28.668017,181.424853 30.4365293,189.495767" id="Fill-37" fill="#201251"></path>
                <path d="M70,182.163673 C69.3783894,171.980878 67.3821982,156.663142 67.3041199,148.837264 C67.2662535,145.057864 66.7565663,141.19274 66.0779887,137.68281 L57.6327964,136.163673 C57.6327964,136.163673 49.3752602,170.537562 70,182.163673" id="Fill-38" fill="#201251"></path>
                <path d="M48.2030369,113.940135 C49.762436,117.249577 55.5758676,120.111748 58,121.163673 C57.9725481,120.993672 57.9447615,120.8233 57.9186488,120.657012 C57.5272925,118.200541 57.1891661,116.090382 57.1891661,116.090382 L50.0854974,112.16478 C48.5153854,112.138426 47.5595923,112.578275 48.2030369,113.940135" id="Fill-39" fill="#FCA56B"></path>
                <path d="M61.4368651,113.171271 C61.4368651,113.171271 48.933359,117.152687 46.6244516,109.166183 C44.3152176,101.179346 41.1466349,96.3140233 49.0319996,93.4342406 C56.9176909,90.554458 59.3569214,93.132492 60.7627125,95.6071645 C62.1685037,98.0818371 64.6299446,111.929934 61.4368651,113.171271" id="Fill-40" fill="#FFB27D"></path>
                <path d="M57.8158599,96.3219416 C57.8158599,96.3219416 57.0128452,105.779317 55.1163358,105.36879 C53.2201553,104.957924 51.5003025,104.653931 51.7779528,107.504545 C52.0552741,110.355159 54.6853857,113.647174 48.8409126,114.15168 C42.9964396,114.655847 34.5945573,99.1114855 36.2002577,96.1682487 C40.8328069,87.6761197 64.5117061,85.9624264 57.8158599,96.3219416" id="Fill-41" fill="#000000"></path>
                <path d="M76.7813068,94.1660953 L64,97.703995 L64.3959483,103.163673 L77.4270919,103.069762 C78.4584872,102.98942 79.150449,100.930882 78.9719449,98.4724205 C78.79413,96.0136017 77.8130467,94.0857534 76.7813068,94.1660953" id="Fill-42" fill="#ADCBF9"></path>
                <path d="M65.9853292,100.098329 C65.891072,98.9942919 65.3738433,98.1286827 64.8299381,98.1647607 C64.2857365,98.2008386 63.9205641,99.1250091 64.0148213,100.228785 C64.108782,101.332822 64.6260107,102.19817 65.1702123,102.162615 C65.714414,102.126276 66.0789935,101.202367 65.9853292,100.098329" id="Fill-43" fill="#699DEE"></path>
                <path d="M69.9428372,98.1636727 L67.0285528,98.2590183 C66.9370924,99.3484896 67.0946075,99.8170843 67.0946075,99.8170843 L70,100.163673 L69.9428372,98.1636727 Z" id="Fill-44" fill="#699DEE"></path>
                <path d="M83.6333096,93.1663782 L70,97.097219 L70.4222891,103.163673 L84.3216504,103.058965 C85.4220352,102.969809 86.1603207,100.683183 85.9701465,97.9511186 C85.7799724,95.2190546 84.7336944,93.076876 83.6333096,93.1663782" id="Fill-45" fill="#ADCBF9"></path>
                <path d="M70.985322,100.582229 C70.8910951,99.2020993 70.3737505,98.1203144 69.8295577,98.1650092 C69.285623,98.2099887 68.9205904,99.3655058 69.0148174,100.745351 C69.108528,102.125481 69.6258726,103.207835 70.1700654,103.162286 C70.7142583,103.117591 71.0790327,101.962359 70.985322,100.582229" id="Fill-46" fill="#699DEE"></path>
                <path d="M73.7213223,106.163673 C73.7213223,106.163673 72.6644493,103.906554 73.0951928,101.32572 C73.5256733,98.7448858 71.7971769,97.7618873 72.0199118,96.9459319 C72.2429097,96.1303468 74.5917503,95.2703157 76.0380807,98.1919028 C77.4844111,101.11386 76.8706411,105.304382 76.8706411,105.304382 L73.7213223,106.163673 Z" id="Fill-47" fill="#FFB27D"></path>
                <path d="M56.5755652,125.044456 C56.5755652,125.044456 64.0436631,123.695798 70.9435179,123.796007 C73.2369766,123.829299 75.019621,121.825455 74.7106472,119.619862 L73.5059853,106.239484 C73.5059853,106.239484 74.3690969,104.818916 76.5346001,104.306219 C78.8922044,103.748246 79.6491902,105.008347 79.6491902,105.008347 C79.6491902,105.008347 87.7117268,126.854873 81.8858917,131.920913 C76.0603925,136.986953 54,140.163673 54,140.163673 L56.5755652,125.044456 Z" id="Fill-48" fill="#201251"></path>
                <path d="M535.855404,32.4739884 C535.077438,50.367764 530.9019,72.2712676 517.624161,89.8928069 C517.135979,90.5395372 516.645419,91.1808499 516.15316,91.815052 C514.663474,93.7328952 513.14763,95.5975779 511.609703,97.4070685 C509.893762,99.4224292 506.894346,99.7457943 504.772775,98.1580883 L445.836586,54.042953 C445.162576,53.5384356 444.664542,52.8832402 444.36015,52.157277 C444.152918,51.6679967 444.034015,51.1465492 444.006158,50.6186682 C443.957238,49.6776925 444.199121,48.7160621 444.755587,47.8739582 C446.13894,45.7820734 447.58616,43.6979765 449.100646,41.6267464 C449.57456,40.9776458 450.055608,40.3292225 450.54379,39.6828307 C463.82017,22.0609528 483.761579,11.9573997 500.786124,6.22350887 C509.775878,3.19572737 517.953013,1.38555964 523.904283,0.331829375 C524.892878,0.157449206 525.855313,0.120880161 526.773925,0.211964171 C528.165431,0.347066477 529.457398,0.772350928 530.590374,1.439736 C533.036041,2.88116586 534.738054,5.45386591 535.08729,8.70275468 C535.731065,14.693306 536.267827,23.0242763 535.855404,32.4739884" id="Fill-49" fill="#178FE3"></path>
                <path d="M448.583648,41.1636727 C446.828263,43.5219211 445.159537,45.8974772 443.578512,48.2798207 C442.548644,49.8313982 442.928909,51.8998288 444.439913,53.0109103 L506.09817,98.3436475 C507.863608,99.6413799 510.352137,99.3709059 511.788613,97.7300753 C513.556477,95.7105133 515.295571,93.6213814 517,91.4653945 L448.583648,41.1636727 Z" id="Fill-50" fill="#00BAE4"></path>
                <path d="M502.527947,28.2301166 C501.891461,28.2301166 501.250652,28.2753425 500.608845,28.3664595 C497.057293,28.8719261 493.914768,30.7298483 491.760559,33.598371 C489.60635,36.4672263 488.697844,40.0028319 489.203309,43.5547322 C489.708108,47.1066324 491.566354,50.2488387 494.434864,52.4030574 C497.303374,54.557276 500.838964,55.4654531 504.391182,54.9606517 C507.942734,54.4555176 511.085258,52.5975955 513.239468,49.7287402 C515.393677,46.8602174 516.302182,43.3246118 515.796718,39.7723791 C515.291919,36.2208114 513.434005,33.0782725 510.565495,30.9243864 C508.215086,29.1589114 505.41641,28.2301166 502.527947,28.2301166 M502.463434,59.1636727 C498.70105,59.1636727 495.055388,57.9542109 491.993339,55.654338 C488.256228,52.8476684 485.835985,48.7543869 485.177551,44.1273726 C484.519782,39.5003582 485.702635,34.8939616 488.509625,31.1568345 C491.31595,27.4193748 495.409878,24.9991211 500.03654,24.3413495 C504.663866,23.6832453 509.26991,24.8664361 513.006688,27.6727732 C516.743799,30.4794428 519.164374,34.5730569 519.822476,39.2000712 C520.480244,43.8270855 519.297059,48.4334821 516.490401,52.1706093 C513.684077,55.9074038 509.590481,58.3279901 504.963487,58.9857617 C504.128141,59.1051449 503.292794,59.1636727 502.463434,59.1636727" id="Fill-51" fill="#008D6A"></path>
                <path d="M531.121208,5.58276662 C530.962634,4.01947418 530.507511,2.61072906 529.821229,1.40621943 C528.73083,0.730803078 527.487742,0.300400775 526.148201,0.163672655 C526.15801,0.242488363 526.167492,0.321304071 526.175339,0.400462457 C526.795902,6.46139043 527.311185,14.8939859 526.915568,24.4563873 C526.165857,42.5654957 522.147236,64.7322423 509.368472,82.5661811 C508.899617,83.2220648 508.427492,83.8693817 507.952424,84.512929 C507.636257,84.9405899 507.318456,85.364824 507,85.7876875 L512.549104,90.1636727 C512.6655,90.0077546 512.782551,89.85355 512.89862,89.6966039 C513.373361,89.0533992 513.844505,88.404369 514.314342,87.7498559 C527.093105,69.9159172 531.112053,47.7491706 531.861437,29.6400622 C532.257382,20.07629 531.740463,11.645408 531.121208,5.58276662" id="Fill-52" fill="#DEDEDE"></path>
                <path d="M535.092659,8.62131108 C534.478809,2.928126 529.653771,-0.670817416 523.977513,0.330528562 C518.062199,1.3744636 509.935268,3.16655767 501,6.1655654 L535.856764,32.1636727 C536.26566,22.8051455 535.732846,14.5539339 535.092659,8.62131108" id="Fill-53" fill="#0280DA"></path>
                <path d="M454.664989,65.7034653 C449.122417,61.8929528 440.397305,65.3981901 435.177181,73.5327558 C429.957713,81.6673215 435.762438,95.1621799 435.762438,95.1621799 C435.762438,95.1621799 450.030449,95.4677943 455.250246,87.3332286 C460.470042,79.1983237 460.208217,69.514317 454.664989,65.7034653" id="Fill-54" fill="#FF9A08"></path>
                <path d="M486.665126,87.7035883 C481.122191,83.8927958 472.397352,87.3983179 467.177195,95.5327573 C461.957694,103.667197 467.762456,117.162185 467.762456,117.162185 C467.762456,117.162185 482.030229,117.467455 487.250058,109.333016 C492.470215,101.198237 492.20806,91.5143809 486.665126,87.7035883" id="Fill-55" fill="#FF9A08"></path>
                <path d="M447.998948,75.20677 C444.161192,72.6253944 438.1209,75.0000336 434.507308,80.5106746 C430.893717,86.0209826 434.91258,95.1626609 434.91258,95.1626609 C434.91258,95.1626609 444.7903,95.3697303 448.403891,89.8590893 C452.017811,84.3484483 451.836376,77.7884785 447.998948,75.20677" id="Fill-56" fill="#FFF200"></path>
                <path d="M479.998948,98.20677 C476.161192,95.6253944 470.1209,98.0000336 466.507308,103.510675 C462.893717,109.020983 466.91258,118.162661 466.91258,118.162661 C466.91258,118.162661 476.789971,118.36973 480.403891,112.859089 C484.017811,107.348448 483.836376,100.788479 479.998948,98.20677" id="Fill-57" fill="#FFF200"></path>
                <path d="M513,47.1636727 C511.001687,50.1444419 507.145628,52.1636727 502.716737,52.1636727 C499.762163,52.1636727 497.063318,51.264607 495,49.7820994 L513,47.1636727 Z" id="Fill-58" fill="#DEDEDE"></path>
                <path d="M491.688982,45.1636727 C491.243269,43.9092597 491,42.5594682 491,41.1530563 C491,34.531158 496.373859,29.1636727 503.002868,29.1636727 C509.498601,29.1636727 514.788784,34.3161351 515,40.7533428 L491.688982,45.1636727 Z" id="Fill-59" fill="#DEDEDE"></path>
                <path d="M140.962115,211.163673 C140.962115,211.163673 144.820963,212.028082 147.274107,211.383556 C149.726917,210.739321 153.949033,211.797437 154.628535,212.577209 C155.308704,213.357272 155.058853,213.666737 153.845624,213.936066 C152.632395,214.205394 148.334223,215.803621 145.509471,214.878423 C142.684386,213.953807 139,213.920069 139,213.920069 L140.962115,211.163673 Z" id="Fill-60" fill="#FFB27D"></path>
                <path d="M107,175.603213 C107,175.603213 111.30628,207.404181 118.436911,210.252358 C121.95517,211.657853 137.504835,214.843459 142.104718,215.163673 C142.104718,215.163673 143.231078,214.214051 142.957027,210.347733 C142.957027,210.347733 126.665734,204.133529 124.350714,200.754074 C120.906684,195.724315 126.48944,180.205676 122.167253,175.481669 C117.845066,170.758006 110.565647,168.727579 107,175.603213" id="Fill-61" fill="#979797"></path>
                <path d="M112.078132,297.014021 L112.078132,290.046035 L122.940071,290.046035 C123.233341,290.046035 123.473164,289.803814 123.473164,289.50796 L123.473164,288.391324 C123.473164,288.095469 123.233341,287.852903 122.940071,287.852903 L112.078132,287.852903 L112.078132,248.187596 C112.078132,247.074421 111.176739,246.163673 110.07458,246.163673 L107.92542,246.163673 C106.823261,246.163673 105.921525,247.074421 105.921525,248.187596 L105.921525,287.852903 L95.0595862,287.852903 C94.7666592,287.852903 94.5268359,288.095469 94.5268359,288.391324 L94.5268359,289.50796 C94.5268359,289.803814 94.7666592,290.046035 95.0595862,290.046035 L105.921525,290.046035 L105.921525,297.014021 C98.0628589,297.613689 91.7664698,300.471197 90,304.163673 L128,304.163673 C126.233188,300.471197 119.937141,297.613689 112.078132,297.014021" id="Fill-62" fill="#308DFC"></path>
                <path d="M106.631377,241.737989 C107.917749,243.940311 109.406071,246.00426 110.939534,247.95895 C115.680103,253.997696 120.840523,258.976725 121.739626,263.683461 C121.918157,264.621931 122.201905,265.631985 122.572883,266.696155 C122.948272,267.774711 123.412249,268.907725 123.94818,270.080127 C125.959197,274.489567 128.967745,279.430235 131.971202,283.921533 C137.163528,291.685489 142.04631,298.163673 142.04631,298.163673 L151,297.778694 C150.641581,296.873105 146.736306,286.152968 141.512075,273.052406 C139.39075,267.734295 137.134678,262.077444 134.958368,256.621987 C134.668171,255.893474 134.378313,255.168386 134.09117,254.448778 C133.425583,252.779398 132.771197,251.136048 132.131744,249.536196 C127.226222,237.234703 123.31891,227.439336 123.31891,227.439336 C123.31891,227.439336 103.713112,219.944248 101.676979,224.801002 C99.9982473,228.805255 101.365738,232.727992 106.631377,241.737989" id="Fill-63" fill="#6B2BA7"></path>
                <path d="M144,295.568086 C144,295.568086 144.454418,303.042476 145.871865,303.149253 C146.060365,303.163673 153.062104,303.163673 153.062104,303.163673 L162,303.163673 C162,303.163673 161.941767,300.914146 159.329032,300.449957 C156.716297,299.985426 152.34345,298.112537 150.760729,294.590269 C149.095877,290.885004 144,295.568086 144,295.568086" id="Fill-64" fill="#6B2BA7"></path>
                <path d="M122.472048,275.163673 C122.472048,275.163673 116.456324,279.066617 117.039866,280.334056 C117.11789,280.502871 120.44211,286.514352 120.44211,286.514352 L124.72983,294.163673 C124.72983,294.163673 126.533564,293.081268 125.679888,290.619544 C124.827196,288.15815 124.311844,283.523342 126.496846,280.508829 C128.795607,277.337749 122.472048,275.163673 122.472048,275.163673" id="Fill-65" fill="#6B2BA7"></path>
                <path d="M129.73839,225.163673 C129.73839,225.163673 154.130433,240.529428 156.849882,250.844066 C159.569331,261.158704 124.439951,283.163673 124.439951,283.163673 C124.439951,283.163673 120.587762,279.72546 119.907648,277.204149 C119.907648,277.204149 135.786501,257.96382 139.231092,253.650846 C141.346368,251.001754 107.952892,244.481486 103.873214,238.063512 C99.793873,231.645198 101.254237,226.2454 101.254237,226.2454 L129.73839,225.163673 Z" id="Fill-66" fill="#9E69CE"></path>
                <path d="M134.169515,244.163673 L83.8304855,244.163673 C82.8239898,244.163673 82,245.003929 82,246.030293 L82,256.296706 C82,257.323417 82.8239898,258.163673 83.8304855,258.163673 L134.169515,258.163673 C135.176689,258.163673 136,257.323417 136,256.296706 L136,246.030293 C136,245.003929 135.176689,244.163673 134.169515,244.163673" id="Fill-67" fill="#DB5A28"></path>
                <path d="M123,173.892175 C117.356683,175.432259 108,169.917765 108,169.917765 C108,169.917765 111.63279,167.344335 112.979206,161.688338 C113.047112,161.403277 113.109819,161.109993 113.163104,160.81157 C113.75541,160.677948 114.870167,160.429547 116.061927,160.163673 L120.373124,164.234702 C120.373124,164.234702 120.275651,165.926224 119.735006,168.831655 C119.641107,169.340105 119.534538,169.88316 119.411073,170.463219 C121.725063,171.974179 123,173.892175 123,173.892175" id="Fill-68" fill="#FFB27D"></path>
                <path d="M130.966942,223.022787 C130.955583,223.083682 130.936539,223.145962 130.915825,223.211009 C130.356218,224.834769 125.147026,227.024232 120.367479,228.556303 C118.654245,229.106437 116.993464,229.570763 115.624347,229.896 C111.922921,230.7731 102.649477,232.338386 101.836626,229.705702 C100.894481,226.658168 101.987637,209.046967 101.155409,197.469591 C100.173841,183.315237 103.958456,170.432764 109.220101,166.227527 C109.617339,165.926165 110.40413,166.728876 112.682985,167.849211 C114.788444,168.881664 117.114406,169.17749 119.083556,168.730809 L120.84824,170.29748 C123.286123,172.569982 125.966224,175.670799 127.182326,180.424439 C127.925351,183.341187 128.487297,187.951931 128.903244,193.138412 C129.064277,195.148303 129.204262,197.245732 129.323534,199.363228 C129.512297,202.734268 129.676671,206.134372 129.756519,209.368397 C129.75819,209.431022 129.760195,209.491918 129.760195,209.554543 L129.762199,209.672182 C129.796277,209.997418 129.801956,210.353794 129.805631,210.681106 C129.888487,213.579862 129.873786,216.276901 129.968335,218.566703 C129.97034,218.631751 129.973681,218.693684 129.97769,218.754925 C130.096961,220.674166 130.77584,221.540194 130.957587,222.340829 C131.006365,222.566418 131.017724,222.78751 130.966942,223.022787" id="Fill-69" fill="#96C4EA"></path>
                <path d="M131.967511,222.76401 C131.956347,222.823433 131.937631,222.884205 131.917274,222.947679 C131.367296,224.532161 126.24774,226.668662 121.550436,228.163673 C112.009386,215.871701 113.031852,201.163673 113.031852,201.163673 L130.777916,209.439914 C130.779558,209.501024 130.781528,209.560446 130.781528,209.621557 L130.783498,209.73635 C130.81699,210.053719 130.822571,210.401474 130.826183,210.720869 C130.907613,213.549505 130.893166,216.181304 130.986087,218.415717 C130.988057,218.479191 130.991341,218.539626 130.995281,218.599386 C131.1125,220.472201 131.779697,221.31728 131.958317,222.098548 C132.006255,222.318681 132.017419,222.534424 131.967511,222.76401" id="Fill-70" fill="#979797"></path>
                <path d="M122,164.390827 C122,164.390827 121.881355,166.147072 121.223272,169.163673 C116.100584,167.675293 113.776728,163.512526 113,161.746677 C113.082656,161.450708 113.158984,161.146558 113.223843,160.836716 C113.944808,160.697625 115.301709,160.440076 116.751944,160.163673 L122,164.390827 Z" id="Fill-71" fill="#E2915A"></path>
                <path d="M123.747454,163.087462 C123.747454,163.087462 114.213879,164.167872 113.635803,158.192811 C113.057391,152.218422 111.43737,148.333522 117.499806,147.391402 C123.562242,146.448945 124.967578,148.61313 125.643117,150.560291 C126.318991,152.507451 126.21215,162.652404 123.747454,163.087462" id="Fill-72" fill="#FFB27D"></path>
                <path d="M113.188312,160.163673 C113.188312,160.163673 113.795106,152.375211 122.500548,151.568642 C128.463658,151.01584 125.139059,145.96892 124.50337,145.163673 C124.50337,145.163673 119.93461,145.779916 115.251949,146.540556 C105.422964,148.137503 112.22302,158.951341 113.188312,160.163673" id="Fill-73" fill="#A40707"></path>
                <polygon id="Fill-74" fill="#A40707" points="165.171514 195.163673 158.499045 215.719832 135.030611 215.217902 135 216.652083 158.94656 217.163673 166 195.433456"></polygon>
                <path d="M137.300272,216.163673 C137.300272,216.163673 141.02891,217.219869 143.550163,216.872384 C146.071082,216.524648 150.136198,217.776696 150.71402,218.498647 C151.291508,219.220348 151.004099,219.464413 149.763334,219.593814 C148.522569,219.723466 144.0452,220.733447 141.353037,219.710226 C138.660207,218.687503 135,218.354507 135,218.354507 L137.300272,216.163673 Z" id="Fill-75" fill="#FFB27D"></path>
                <path d="M110,176.784517 C110,176.784517 110.904228,208.172781 117.67816,211.73956 C121.021123,213.499719 136.113752,218.337799 140.644155,219.163673 C140.644155,219.163673 141.863026,218.36709 142,214.579112 C142,214.579112 126.492147,206.714623 124.553335,203.171075 C121.668276,197.896659 128.852139,183.440664 125.063514,178.365226 C121.27522,173.290124 114.266711,170.501747 110,176.784517" id="Fill-76" fill="#96C4EA"></path>
                <path d="M541.356473,202.163673 L542.477335,204.131157 C543.059334,204.856038 543.214883,205.260441 543.676299,205.506554 C544.789319,206.100057 546.844778,207.623122 547,210.822585 C547,210.822585 546.964708,212.633194 545.844498,212.046773 C544.724289,211.459999 545.213482,211.514179 543.6214,210.723786 C542.029317,209.933038 541.438168,207.418441 541.298959,206.56112 L540,204.712974 L541.356473,202.163673 Z" id="Fill-77" fill="#FFB27D"></path>
                <path d="M505.39473,302.296919 C505.332163,302.983499 504.960435,303.424871 504.371226,303.689626 C504.369553,303.691341 504.365873,303.692713 504.362527,303.69237 C503.272774,304.181755 501.445924,304.070983 499.471855,303.79834 C499.218907,303.764045 498.991387,303.735581 498.787958,303.717062 C498.734424,303.711918 498.680889,303.706773 498.628694,303.703687 C498.587205,303.700257 498.545716,303.697857 498.506235,303.694084 C496.540196,303.561707 496.694106,304.182441 492.937353,304.163236 C488.654963,304.140258 487.206866,302.661814 487.010129,302.031821 C486.845177,301.496824 488.719873,301.082544 490.816735,300.604477 C490.917781,300.581842 491.019161,300.557493 491.122549,300.534858 C491.40126,300.471756 491.682314,300.404539 491.96136,300.339722 C494.460063,299.738879 496.93501,298.979938 497.753412,296.518608 C498.621667,293.908783 498.415896,286.163673 498.415896,286.163673 L506,286.163673 C506,286.163673 504.008867,294.720195 504.21765,297.186326 C504.331076,298.502899 504.945044,298.877054 505.182267,300.018038 C505.199331,300.097944 505.215057,300.177851 505.228775,300.2581 C505.343873,300.925132 505.457298,301.608282 505.39473,302.296919" id="Fill-78" fill="#FFB27D"></path>
                <path d="M512.782885,230.921265 C511.509443,237.180985 510.548089,243.830251 511.532189,250.990818 C511.657961,251.912575 511.726199,252.929443 511.741251,254.022533 C511.932251,266.677555 506.32402,289.612211 506.32402,289.612211 C506.32402,289.612211 504.801041,290.274608 502.248135,290.147458 C500.933884,290.08169 498.917182,289.227387 498.917182,289.227387 C498.917182,289.227387 498.38633,275.007772 498.354552,255.884934 C498.331472,242.023499 495.632055,223.772503 495.08682,213.047674 C494.757002,206.557599 495.473167,197.910686 495.473167,197.910686 C495.473167,197.910686 506.6525,188.847245 510.66784,193.484362 C514.634678,198.066841 517.523422,206.113752 515.12907,219.66355 C514.489171,223.285486 513.575985,227.028839 512.782885,230.921265 Z" id="Fill-79" fill="#4C49A2"></path>
                <path d="M511.8904,253.163673 C502.972266,241.530958 501,216.163673 501,216.163673 L510.795409,220.443736 C510.795409,220.443736 511.869377,225.200504 513,231.190732 C511.643466,237.145032 510.619384,243.46953 511.667696,250.280035 C511.801675,251.156771 511.874365,252.123972 511.8904,253.163673 Z" id="Fill-80" fill="#4C49A2"></path>
                <path d="M528.982007,303.701993 C527.908494,304.181283 526.122249,304.073401 524.192412,303.807871 C523.945131,303.774471 523.722709,303.746749 523.523837,303.728713 C523.471503,303.723703 523.419168,303.718693 523.368142,303.715687 C523.327583,303.712347 523.287023,303.710009 523.248099,303.706335 C521.326112,303.577412 521.476901,304.181951 517.804649,304.163247 C513.617882,304.140869 512.202231,302.700997 512.009902,302.087439 C511.848646,301.5664 513.681337,301.162928 515.731218,300.697333 C515.829999,300.675289 515.929108,300.651575 516.029852,300.629531 C516.302646,300.568075 516.577403,300.502611 516.850197,300.439485 C519.29324,299.854318 521.712407,299.115176 522.512471,296.718061 C523.360946,294.176324 522.148746,286.749508 522.148746,286.749508 L529.017333,286.163673 C529.017333,286.163673 528.590806,294.626555 528.794584,297.027679 C528.905468,298.309903 529.543296,299.014977 529.774549,300.126193 C529.791558,300.204015 529.806931,300.281837 529.820342,300.359993 C529.932861,301.009622 530.043745,301.67495 529.982579,302.345621 C529.921413,303.014288 529.558015,303.444146 528.982007,303.701993 Z" id="Fill-81" fill="#FFB27D"></path>
                <path d="M526.457006,292.088126 C525.171426,292.353292 522.500027,291.835247 522.500027,291.835247 C522.018348,286.263359 520.898842,277.550097 518.723678,267.717816 C516.246803,256.524216 512.560769,243.296315 507.421759,230.769721 C506.324417,228.09486 501.798423,215.4321 501.02992,212.236464 C498.707209,202.581301 501.039183,203.621146 501.039183,203.621146 L521.34016,201.163673 C521.34016,201.163673 523.841185,202.489841 524.993112,216.123851 C525.337499,220.207126 525.380175,237.837729 525.899237,241.179769 C526.391503,244.345374 526.967466,246.976894 527.643007,248.686307 C531.414063,258.236018 529.528701,290.95102 529.528701,290.95102 C529.528701,290.95102 527.742916,291.822961 526.457006,292.088126 Z" id="Fill-82" fill="#4C49A2"></path>
                <path d="M529.982579,302.812791 C529.921413,303.309636 529.558015,303.629037 528.982007,303.820628 C528.980699,303.821868 528.976774,303.822861 528.973503,303.822613 C527.847982,304.127619 526.089213,304.062101 524.196991,303.890613 C523.949383,303.868277 523.726307,303.851898 523.523837,303.840481 C523.471503,303.836759 523.419168,303.833036 523.368142,303.830803 C523.327583,303.828321 523.287023,303.826584 523.248099,303.823854 C521.326112,303.728058 521.476901,304.177254 517.804649,304.163356 C513.617882,304.146729 512.202231,303.076849 512.009902,302.620953 C511.848646,302.233801 513.681337,301.934006 515.731218,301.588051 C516.269937,301.790561 518.850032,302.675551 522.055852,302.439041 C524.874724,302.234049 527.753126,301.377103 529.774549,301.163673 C529.791558,301.221497 529.806931,301.279322 529.820342,301.337395 C529.932861,301.820094 530.043745,302.314457 529.982579,302.812791" id="Fill-83" fill="#002D51"></path>
                <path d="M505.982579,302.812791 C505.921413,303.309636 505.558015,303.629037 504.982007,303.820628 C504.980372,303.821868 504.976774,303.822861 504.973503,303.822613 C503.848309,304.127619 502.089213,304.062101 500.196991,303.890613 C499.949383,303.868277 499.726634,303.851898 499.523837,303.840481 C499.471503,303.836759 499.419168,303.833036 499.368142,303.830803 C499.327583,303.828321 499.287023,303.826584 499.248427,303.823854 C497.326439,303.728058 497.476901,304.177254 493.804321,304.163356 C489.617882,304.146729 488.202231,303.076849 488.009902,302.620953 C487.848646,302.233801 489.681337,301.934006 491.731218,301.588051 C492.269937,301.790561 494.850032,302.675551 498.055852,302.439041 C500.874724,302.234049 503.753126,301.377103 505.774876,301.163673 C505.791558,301.221497 505.806931,301.279322 505.820342,301.337395 C505.932861,301.820094 506.043745,302.314457 505.982579,302.812791" id="Fill-84" fill="#002D51"></path>
                <path d="M497.095911,139.735698 C496.415437,134.013165 498.150924,124.856707 509.24104,126.319793 C520.331155,127.783217 523.826092,139.007536 521.589687,143.99785 C519.352625,148.98884 524.809218,150.19264 526.522384,155.559543 C527.993954,160.169888 528.506689,165.894787 530.887855,168.463639 C538.565425,176.746573 523.517204,189.484347 514.445532,186.798529 C497.92213,181.905912 495.793393,181.17606 496.379985,167.805115 C496.680667,160.955181 501.855945,158.300464 498.569778,156.318469 C490.632558,151.530648 498.635101,152.684079 497.095911,139.735698" id="Fill-85" fill="#404040"></path>
                <path d="M515,153.051179 L511.929497,160.846394 L505.304995,161.163673 L502,156.313418 C504.085699,154.754569 504.966943,152.416297 505.290484,150.323356 C505.554659,148.64881 505.481112,147.133389 505.407895,146.310537 C505.363701,145.891819 505.319507,145.646487 505.319507,145.646487 L513.575234,143.178256 L513.604587,143.163673 C513.707157,145.314624 513.824898,147.003107 513.95715,148.316947 C514.427125,152.950065 515,153.051179 515,153.051179" id="Fill-86" fill="#FFB27D"></path>
                <path d="M500.005155,153.526503 C500.433675,153.526503 507.710227,151.984419 520,155.25854 C520,155.25854 513.269712,187.368065 515.556259,193.420009 C517.842474,199.471952 518.711123,204.843513 518.711123,204.843513 L493.907698,205.163673 C493.907698,205.163673 494.254295,184.390964 493.111353,177.038697 C491.96808,169.686776 500.005155,153.526503 500.005155,153.526503" id="Fill-87" fill="#FFB27D"></path>
                <path d="M533.524906,186.376895 C532.246078,177.554265 527.505024,159.436534 524.320418,156.473354 C521.503582,153.853261 515.429406,153.612929 515.429406,153.612929 L515.429406,153.61327 L515.428723,153.612929 C514.16731,155.588838 509.84798,160.497885 504.488513,159.61371 C501.595527,159.136461 501.009213,153.93724 500.94365,153.24219 L500.963114,153.163673 C500.963114,153.163673 500.953552,153.16538 500.93682,153.167769 L500.93682,153.163673 C500.91599,153.168111 500.895843,153.172207 500.875354,153.176304 C500.030884,153.301249 493.310294,154.394348 491.317098,157.825561 C488.37255,162.890619 485.166772,178.091256 482.016314,177.866969 C480.570505,177.763531 466.019185,172.295644 466.019185,172.295644 C466.019185,172.295644 463.594705,174.565823 464.059112,177.351826 C464.059112,177.351826 471.243427,182.161532 477.319311,185.230882 C478.161732,185.656242 478.981958,186.047463 479.759499,186.388161 C481.949726,187.349146 483.794722,187.906279 484.802759,187.667995 C485.092331,187.599719 485.398635,187.469653 485.717573,187.283942 C487.034988,186.522665 488.573679,184.851267 490.049539,182.946024 C491.029234,181.678479 491.981269,180.309203 492.821983,179.033807 C492.839398,179.006496 492.856472,178.98021 492.874229,178.953241 C493.234827,183.785819 493.596109,189.04444 493.222193,193.165582 C492.93706,196.300135 492.729784,203.090188 493.267609,204.845224 C494.3897,208.501747 502.633615,209.468194 510.32707,209.085849 C513.954571,208.9056 516.517007,208.698723 518.381808,208.268926 C521.087664,207.647955 522.324149,206.559976 523.214377,204.412353 C524.063628,202.367827 520.137336,192.767533 519.764103,188.565825 C519.423993,184.757046 520.007234,181.657314 520.968489,178.610837 C523.685956,184.882333 526.448156,189.368751 526.810462,190.34032 C527.572295,192.386553 539.168822,205.32657 539.168822,205.32657 C539.168822,205.32657 540.106515,205.134031 540.849909,204.648247 C541.616522,204.147442 542,203.483458 542,203.483458 C539.953534,198.624935 533.524906,186.376895 533.524906,186.376895" id="Fill-88" fill="#FFFFFF"></path>
                <path d="M523.883573,204.378258 C523.019709,206.486255 521.81905,207.55416 519.192651,208.163673 C515.681835,207.481447 513.366042,200.95071 512.174002,197.736945 C510.799642,194.03329 517.957517,174.990949 519.932869,175.164856 C521.401703,175.293192 521.655294,177.81334 521.703691,179.052806 C520.753639,182.072559 520.201045,185.048082 520.534193,188.824115 C520.896512,192.948296 524.70799,202.371456 523.883573,204.378258" id="Fill-89" fill="#979797"></path>
                <path d="M467,174.156298 C467,174.156298 465.722081,171.63427 464.316616,171.531226 C462.911151,171.428182 458.439312,170.862007 458.11992,171.376943 C457.800177,171.891597 458.11992,173.744406 459.078096,174.413625 C460.036623,175.082561 465.977876,176.163673 465.977876,176.163673 L467,174.156298 Z" id="Fill-90" fill="#FFB27D"></path>
                <path d="M494,178.709243 C493.163307,180.096604 492.215826,181.587228 491.240818,182.966046 C489.841686,184.84892 488.296421,186.669019 486.929574,187.686046 C486.612501,187.888114 486.307322,188.029636 486.019476,188.103926 C485.01592,188.363197 483.179751,187.756621 481,186.711364 C482.297179,186.81537 483.571249,186.764853 484.823909,186.648961 C487.017593,186.445035 487.655478,183.848608 491.123572,179.955082 C493.197292,177.628327 493.82736,177.987147 494,178.709243" id="Fill-91" fill="#979797"></path>
                <path d="M514,143.163673 C512.643551,145.690547 509.372452,150.891255 505,152.163673 C505.287341,150.054406 505.207086,148.145575 505.127548,147.109107 C505.079896,146.581689 505.031887,146.272667 505.031887,146.272667 L514,143.163673 Z" id="Fill-92" fill="#E2915A"></path>
                <path d="M502.838264,146.871038 C502.838264,146.871038 513.434305,148.781892 514.657886,142.837787 C515.881468,136.893683 518.073,133.1368 511.359322,131.665477 C504.645996,130.194155 502.860799,132.243508 501.915032,134.137918 C500.968913,136.033278 500.113638,146.220595 502.838264,146.871038" id="Fill-93" fill="#FFB27D"></path>
                <path d="M507.001775,128.422222 C507.001775,128.422222 506.809508,130.433561 510.426767,133.847001 C514.044757,137.260757 513.339654,144.163673 513.339654,144.163673 C513.339654,144.163673 519.279109,133.454198 516.026281,130.295686 C512.773453,127.137489 507.001775,128.422222 507.001775,128.422222" id="Fill-94" fill="#404040"></path>
                <path d="M513,126.436752 C513,126.436752 507.796435,124.782901 502.632868,129.615305 C500.408632,131.697235 500.744615,135.789089 501.936208,138.163673 C501.936208,138.163673 503.766029,133.07561 507.096296,131.965445 C510.426912,130.855611 513,126.436752 513,126.436752" id="Fill-95" fill="#404040"></path>
                <path d="M505,144.392939 C505,144.392939 504.776753,145.553354 503.205427,145.02646 C503.205427,145.02646 501.886191,144.584868 502.007936,143.281936 C502.007936,143.281936 503.353519,142.62865 505,144.392939" id="Fill-96" fill="#FFB27D"></path>
                <path d="M346.516587,145.162634 C349.229849,161.179616 340.24726,174.163673 326.453875,174.163673 C325.556215,174.163673 324.636279,173.517567 323.743938,173.408556 C336.026261,171.868908 343.737497,160.136226 341.201107,145.162634 C338.664385,130.188697 326.803963,117.86701 314,116.327362 C314.855437,116.218351 315.730822,116.163673 316.629148,116.163673 C330.4222,116.163673 343.803658,129.147384 346.516587,145.162634" id="Fill-97" fill="#A5256B"></path>
                <path d="M328.00658,173.235277 C313.837357,173.235277 300.122119,160.544669 297.371647,144.889387 C294.621174,129.234106 303.876261,116.541788 318.045484,116.541788 C332.215047,116.541788 345.930626,129.234106 348.681098,144.889387 C351.431911,160.544669 342.176143,173.235277 328.00658,173.235277 M360.033097,153.464178 C364.05527,153.464178 366.66168,149.732531 365.852818,145.129323 C365.044637,140.526457 361.126678,136.794468 357.104164,136.794468 C356.902204,136.794468 356.707396,136.812241 356.512588,136.829672 C355.906367,135.128932 355.211256,133.469549 354.44156,131.855282 C356.470356,130.445404 357.531924,127.688538 356.975427,124.519133 C356.190405,120.051957 352.479515,116.406098 348.586759,116.193848 L343.849381,116.252977 C343.610298,116.252977 343.378027,116.266649 343.151205,116.292283 C342.672018,115.840097 342.188744,115.39748 341.695594,114.967169 C342.347452,113.580874 342.584491,111.873982 342.258902,110.01978 C341.45004,105.416914 337.532082,101.684925 333.509567,101.684925 C333.478235,101.684925 333.447243,101.684925 333.41591,101.686634 L333.41591,101.684925 L329.4673,101.761827 C329.35491,101.755675 329.242521,101.751915 329.130813,101.751915 C328.930556,101.751915 328.736769,101.761827 328.544005,101.7796 L328.539918,101.781309 C327.427945,101.885554 326.442325,102.286814 325.628014,102.913996 C324.813703,103.543229 324.172743,104.400434 323.750091,105.416914 C323.653709,105.395381 323.561073,105.369405 323.465372,105.348214 C323.442213,105.068973 323.403728,104.78563 323.353664,104.498528 C322.544801,99.8956616 318.628886,96.1636727 314.606372,96.1636727 L310.284834,96.2344229 C310.265421,96.2344229 310.24703,96.2327139 310.227618,96.2327139 C310.159162,96.2327139 310.091048,96.2364736 310.024636,96.2385243 L309.942898,96.2402333 L309.940855,96.2402333 C309.626165,96.2542466 309.321011,96.2915016 309.026415,96.3523399 C309.026415,96.3523399 309.024371,96.3523399 309.022668,96.3543907 C308.832628,96.4213812 302.479909,98.7352896 304.651407,106.767662 L304.206617,106.963165 C304.206617,106.963165 302.945814,104.403511 300.68679,103.015849 C297.891702,101.297336 296.069293,101.702698 295.825783,101.734142 L292.057337,101.751915 L292.058358,101.757726 C288.130183,101.85787 285.606192,105.546451 286.403815,110.086428 C286.781171,112.233886 287.838992,114.184473 289.261909,115.660999 C289.130788,115.838046 289.00171,116.017143 288.872633,116.197949 L287.562106,116.211621 C287.369341,116.193848 287.173171,116.183936 286.979385,116.183936 C286.734512,116.183936 286.493727,116.197949 286.259753,116.225292 L282.927581,116.260838 C282.907828,116.260838 282.887734,116.258788 282.870024,116.256737 C282.779431,116.254686 282.689179,116.252977 282.60063,116.252977 C282.442263,116.252977 282.288665,116.258788 282.135747,116.27075 L282.12553,116.27075 C281.996453,116.28032 281.867035,116.292283 281.740682,116.310056 C278.214383,116.801548 276.030625,120.319235 276.780568,124.587832 C277.408246,128.158497 279.911121,131.198364 282.878198,132.38437 C282.711998,133.835263 282.622767,135.325461 282.613913,136.845394 L281.156598,136.868978 C281.093252,136.867269 281.029905,136.863167 280.96758,136.863167 C280.814662,136.863167 280.666853,136.871028 280.519726,136.88094 L280.242158,136.8847 C280.242158,136.8847 280.245905,136.892903 280.247948,136.904524 C276.63923,137.321506 274.387699,140.874397 275.147178,145.198022 C275.95604,149.80123 279.871955,153.532878 283.896172,153.532878 L285.531606,153.507585 C285.915773,154.581485 286.333657,155.640687 286.785258,156.683142 C283.968714,157.715686 282.341113,160.895002 283.003188,164.664246 C283.780718,169.090408 287.431666,172.708239 291.288321,172.97962 L291.288321,172.98167 L291.298539,172.98167 C291.448732,172.99124 291.599265,172.999443 291.750139,172.999443 C291.950056,172.999443 292.145886,172.987481 292.33865,172.969708 L296.036598,172.930402 L296.033874,172.926642 C296.065887,172.928351 296.097561,172.930402 296.130256,172.930402 C296.640094,172.930402 297.125071,172.869564 297.585186,172.755406 C298.183914,173.362764 298.793882,173.956793 299.417813,174.530656 C298.617465,175.97608 298.307543,177.836093 298.663783,179.864949 C299.472985,184.470208 303.390603,188.200146 307.412777,188.200146 L311.697533,188.133498 L311.695149,188.129396 C311.726822,188.131447 311.758836,188.133498 311.792213,188.133498 C314.245023,188.133498 316.165177,186.741393 317.110269,184.614101 C317.595927,184.74569 318.083628,184.869417 318.573714,184.981524 C318.598916,185.259056 318.634676,185.541715 318.685422,185.829159 C319.493943,190.432025 323.411902,194.163673 327.434076,194.163673 L331.809084,194.094973 L331.810787,194.094973 L331.826793,194.094973 L332.106064,194.091213 C332.106064,194.091213 332.105723,194.089505 332.105383,194.087112 C335.959654,193.910407 338.419957,190.250878 337.630848,185.760118 C337.580443,185.475066 337.519481,185.191724 337.444895,184.912824 C337.585552,184.87762 337.723825,184.837973 337.863801,184.800718 C339.550321,186.858968 341.913561,188.200146 344.319373,188.200146 L348.534311,188.125295 C348.590165,188.127687 348.643976,188.133498 348.698808,188.133498 C352.720641,188.133498 355.327392,184.401509 354.51887,179.798301 C354.213716,178.062357 353.464114,176.449798 352.435922,175.114772 C352.98084,174.41479 353.493403,173.685071 353.980082,172.930402 L358.923167,172.930402 L358.922827,172.928351 C358.954159,172.928351 358.985833,172.930402 359.017506,172.930402 C363.03968,172.930402 365.64643,169.198071 364.837568,164.595547 C364.246673,161.233031 361.995141,158.342867 359.255908,157.025273 C359.363869,155.847469 359.422448,154.649842 359.4296,153.431025 C359.630198,153.448456 359.830796,153.464178 360.033097,153.464178" id="Fill-98" fill="#DB5A28"></path>
                <path d="M327.372579,172.501936 C313.305486,172.501936 299.687775,159.931292 296.956997,144.424495 C294.225881,128.918036 303.415714,116.34773 317.483144,116.34773 C331.550237,116.34773 345.168286,128.918036 347.899064,144.424495 C350.630181,159.931292 341.440347,172.501936 327.372579,172.501936 M364.853829,144.663842 C364.050759,140.104393 360.162544,136.407882 356.168494,136.407882 C355.96798,136.407882 355.774228,136.423793 355.581153,136.442074 C354.978259,134.758518 354.289478,133.113893 353.52394,131.514633 C355.538886,130.118835 356.594206,127.388515 356.040679,124.248562 C355.237946,119.688775 351.349394,115.992602 347.356019,115.992602 C345.88006,115.992602 344.598528,116.499734 343.607455,117.366395 C342.722555,116.467573 341.808915,115.606667 340.869576,114.787063 C341.517104,113.415302 341.751432,111.723959 341.427836,109.886706 C340.624766,105.326918 336.736213,101.630407 332.743177,101.630407 C329.807489,101.630407 327.638015,103.631175 327.010774,106.500296 C325.614615,105.999596 324.198844,105.58387 322.770561,105.259211 C322.746216,104.982962 322.709697,104.702652 322.659653,104.419294 C321.856921,99.8598458 317.968368,96.1636727 313.974656,96.1636727 C309.980943,96.1636727 307.394548,99.8598458 308.197281,104.419294 C308.247325,104.702652 308.309542,104.982962 308.382579,105.259211 C306.765617,105.658687 305.216283,106.194933 303.743029,106.859486 C302.146017,103.79909 299.156227,101.630407 296.099487,101.630407 C292.106112,101.630407 289.51938,105.326918 290.32245,109.886706 C290.696766,112.012056 291.747013,113.9441 293.160756,115.407606 C292.565976,116.199111 292.008391,117.027178 291.488002,117.887746 C290.028273,116.70455 288.296684,115.992602 286.545144,115.992602 C282.55177,115.992602 279.965037,119.688775 280.768108,124.248562 C281.391629,127.786976 283.874892,130.79693 286.822077,131.970984 C286.648614,133.481886 286.557317,135.031719 286.554612,136.616083 C286.017654,136.483715 285.472242,136.407882 284.923449,136.407882 C280.929736,136.407882 278.343342,140.104393 279.146074,144.663842 C279.949145,149.222952 283.837697,152.919125 287.83141,152.919125 C288.380203,152.919125 288.89924,152.843631 289.389536,152.711262 C289.788535,153.838937 290.227096,154.94833 290.700823,156.039443 C287.903433,157.061832 286.2885,160.211602 286.945496,163.94366 C287.748567,168.503109 291.636781,172.199282 295.630832,172.199282 C297.370198,172.199282 298.842438,171.497151 299.884232,170.328513 C300.957134,171.517464 302.078052,172.648862 303.242251,173.716616 C302.447633,175.148976 302.140607,176.99063 302.494972,179.001893 C303.298043,183.561341 307.186257,187.257853 311.179632,187.257853 C314.108895,187.257853 316.274988,185.265887 316.907639,182.40726 C318.663236,183.098896 320.45197,183.656471 322.262345,184.068135 C322.28669,184.344044 322.322871,184.624355 322.372915,184.908051 C323.175647,189.4675 327.0642,193.163673 331.057912,193.163673 C335.051625,193.163673 337.638019,189.4675 336.834949,184.908051 C336.785243,184.624355 336.723364,184.344044 336.649989,184.068135 C338.017407,183.730272 339.336471,183.294234 340.601434,182.765774 C342.269793,185.430756 345.018492,187.257853 347.822984,187.257853 C351.816696,187.257853 354.403091,183.561341 353.600358,179.001893 C353.297389,177.281774 352.554507,175.685222 351.533001,174.362887 C352.391188,173.264666 353.17769,172.093996 353.889126,170.858666 C355.172348,171.703999 356.612465,172.199282 358.068136,172.199282 C362.061849,172.199282 364.648243,168.503109 363.845511,163.94366 C363.258847,160.612433 361.023098,157.749744 358.304831,156.444674 C358.411681,155.27976 358.469841,154.092503 358.476603,152.885271 C358.676441,152.903214 358.876279,152.919125 359.076793,152.919125 C363.070167,152.919125 365.6569,149.222952 364.853829,144.663842 Z" id="Fill-99" fill="#FEBA40"></path>
                <path d="M394.633782,146.662795 C396.689261,159.090503 389.884339,169.163673 379.434972,169.163673 C378.754644,169.163673 378.057844,168.662841 377.38147,168.577848 C386.686636,167.383369 392.528227,158.280252 390.606508,146.662795 C388.685118,135.045337 379.700184,125.48494 370,124.290461 C370.648041,124.205818 371.311566,124.163673 371.991564,124.163673 C382.440932,124.163673 392.578634,134.237193 394.633782,146.662795" id="Fill-100" fill="#6B2BA7"></path>
                <path d="M379.191702,168.146743 C368.447806,168.146743 358.048787,158.434899 355.962971,146.454279 C353.877492,134.472974 360.894955,124.759419 371.638851,124.759419 C382.38241,124.759419 392.782104,134.472974 394.867582,146.454279 C396.953399,158.434899 389.935598,168.146743 379.191702,168.146743 M403.475332,153.015975 C406.525184,153.015975 408.501558,150.160073 407.88848,146.637669 C407.275065,143.114924 404.304254,140.25868 401.254402,140.25868 C401.101048,140.25868 400.953775,140.272366 400.806163,140.28571 C400.346101,138.984524 399.819158,137.714475 399.235467,136.47864 C400.774073,135.39985 401.578675,133.290171 401.156445,130.864349 C400.561607,127.445616 397.747867,124.655749 394.795972,124.492887 L391.204315,124.538392 C391.022925,124.538392 390.846601,124.548999 390.674669,124.568501 C390.311551,124.222248 389.945056,123.883865 389.571467,123.554035 C390.065307,122.493037 390.245346,121.187062 389.99775,119.76852 C389.384672,116.245432 386.4142,113.389531 383.364348,113.389531 C383.340365,113.389531 383.31672,113.389531 383.293075,113.391241 L383.293075,113.389531 L380.298958,113.448038 C380.213836,113.44359 380.128377,113.440511 380.043593,113.440511 C379.892266,113.440511 379.74533,113.448038 379.599069,113.461724 L379.596029,113.463092 C378.75292,113.542813 378.005404,113.850061 377.387935,114.330093 C376.770466,114.811494 376.284733,115.46739 375.963838,116.245432 C375.891214,116.229009 375.820955,116.209165 375.748332,116.192741 C375.730429,115.979242 375.701717,115.762663 375.66321,115.543004 C375.050132,112.019916 372.080673,109.163673 369.031159,109.163673 L365.754316,109.218416 C365.739453,109.218416 365.725942,109.216705 365.71108,109.216705 C365.659061,109.216705 365.60738,109.219785 365.557388,109.221153 L365.494898,109.222522 L365.493547,109.222522 C365.254733,109.233471 365.023689,109.262211 364.800076,109.308401 C364.800076,109.308401 364.798725,109.308401 364.797374,109.309769 C364.65314,109.361434 359.836002,111.132045 361.482699,117.2794 L361.145591,117.428919 C361.145591,117.428919 360.189324,115.470127 358.476759,114.40776 C356.357165,113.093231 354.97529,113.402874 354.79086,113.427167 L351.933545,113.440511 L351.934221,113.444959 C348.955641,113.521942 347.041757,116.344997 347.646728,119.8195 C347.932831,121.46249 348.735068,122.955278 349.813951,124.085389 C349.714304,124.22088 349.616347,124.358081 349.51839,124.496308 L348.524967,124.506915 C348.378706,124.492887 348.230419,124.486044 348.083145,124.486044 C347.897364,124.486044 347.714961,124.496308 347.537624,124.517179 L345.011,124.544551 C344.996137,124.544551 344.980937,124.543182 344.967426,124.541471 C344.898518,124.539761 344.829948,124.538392 344.763066,124.538392 C344.642815,124.538392 344.52628,124.543182 344.41042,124.551736 L344.402989,124.551736 C344.304693,124.559263 344.207074,124.568501 344.111481,124.581845 C341.437245,124.958207 339.781428,127.650562 340.350256,130.917039 C340.825856,133.649768 342.723864,135.976368 344.973506,136.883742 C344.847175,137.994009 344.779955,139.134727 344.772862,140.297685 L343.667971,140.315819 C343.620005,140.31445 343.572378,140.311713 343.524412,140.311713 C343.408552,140.311713 343.296746,140.317529 343.184939,140.325057 L342.974838,140.327794 C342.974838,140.327794 342.977202,140.334295 342.978891,140.34319 C340.243178,140.662071 338.53568,143.381114 339.111602,146.690018 C339.72468,150.212764 342.694139,153.069007 345.745342,153.069007 L346.985347,153.049505 C347.276855,153.871 347.593359,154.682231 347.935872,155.479775 C345.800401,156.269793 344.566138,158.702801 345.068423,161.587784 C345.658194,164.974698 348.425996,167.743694 351.350192,167.951377 L351.35053,167.953088 L351.357961,167.953088 C351.472132,167.960273 351.585966,167.966432 351.700474,167.966432 C351.852139,167.966432 352.000427,167.957536 352.147025,167.94385 L354.950632,167.913399 L354.948605,167.911004 C354.972926,167.91203 354.996909,167.913399 355.021905,167.913399 C355.408667,167.913399 355.776176,167.866867 356.124769,167.779962 C356.578751,168.244597 357.041177,168.698969 357.514413,169.138627 C356.907415,170.244789 356.672317,171.668463 356.942882,173.220784 C357.556298,176.745241 360.526771,179.599773 363.576622,179.599773 L366.826105,179.548451 L366.824078,179.545714 C366.847723,179.547083 366.871705,179.548451 366.897039,179.548451 C368.756878,179.548451 370.213065,178.483347 370.929505,176.85507 C371.297689,176.956003 371.667901,177.050436 372.039125,177.136315 C372.058379,177.348788 372.085402,177.565025 372.123909,177.785025 C372.737325,181.307771 375.708135,184.163673 378.757649,184.163673 L382.074688,184.111324 L382.077728,184.111324 L382.087862,184.111324 L382.29999,184.107903 C382.29999,184.107903 382.299652,184.106534 382.299315,184.105166 C385.221822,183.969675 387.087403,181.169544 386.489188,177.732677 C386.451018,177.514387 386.404742,177.297124 386.348332,177.083966 C386.454734,177.056936 386.559447,177.026485 386.665849,176.997745 C387.944361,178.573674 389.736643,179.599773 391.560677,179.599773 L394.756789,179.542635 C394.798674,179.544345 394.839546,179.548451 394.881094,179.548451 C397.931283,179.548451 399.90732,176.692892 399.294242,173.170146 C399.06286,171.841247 398.494707,170.607123 397.714764,169.585472 C398.128211,169.050011 398.517001,168.491627 398.885861,167.913399 L402.633912,167.913399 L402.633574,167.91203 C402.657219,167.91203 402.681202,167.913399 402.704847,167.913399 C405.755037,167.913399 407.731411,165.05784 407.118333,161.535094 C406.670431,158.961464 404.962933,156.749483 402.885899,155.741176 C402.968318,154.83996 403.012568,153.923691 403.017635,152.990656 C403.169975,153.004342 403.322316,153.015975 403.475332,153.015975" id="Fill-101" fill="#308DFC"></path>
                <path d="M379.123532,168.187795 C368.327391,168.187795 357.876458,158.468737 355.780773,146.479296 C353.685087,134.489513 360.737575,124.76977 371.533715,124.76977 C382.329516,124.76977 392.78011,134.489513 394.876135,146.479296 C396.97182,158.468737 389.919333,168.187795 379.123532,168.187795 M403.454392,153.046662 C406.519171,153.046662 408.5042,150.189082 407.887782,146.663844 C407.271703,143.138263 404.287371,140.280341 401.222253,140.280341 C401.068488,140.280341 400.919475,140.292667 400.771141,140.306705 C400.308827,139.005283 399.780324,137.73365 399.192758,136.496598 C400.739234,135.41773 401.548792,133.306901 401.124495,130.878677 C400.508416,127.353438 397.524084,124.495859 394.459306,124.495859 C393.326943,124.495859 392.343254,124.887552 391.582236,125.557265 C390.903022,124.8629 390.202423,124.197295 389.481459,123.562848 C389.978395,122.502469 390.158296,121.194885 389.909828,119.774312 C389.29341,116.249074 386.309418,113.390809 383.244639,113.390809 C380.991794,113.390809 379.327194,114.938066 378.845533,117.156062 C377.77359,116.768478 376.687391,116.447317 375.591348,116.196346 C375.572679,115.982695 375.544845,115.766647 375.506488,115.546833 C374.889731,112.021595 371.905738,109.163673 368.84096,109.163673 C365.776181,109.163673 363.791152,112.021595 364.40757,115.546833 C364.445587,115.766647 364.493108,115.982695 364.549455,116.196346 C363.308133,116.505523 362.119084,116.920156 360.988758,117.43374 C359.76305,115.067831 357.468455,113.390809 355.122943,113.390809 C352.058165,113.390809 350.072796,116.249074 350.688875,119.774312 C350.976378,121.41778 351.782202,122.911624 352.867044,124.042878 C352.411179,124.65507 351.983149,125.295337 351.583631,125.960599 C350.463489,125.045736 349.134592,124.495859 347.79042,124.495859 C344.725642,124.495859 342.740613,127.353438 343.356691,130.878677 C343.834958,133.614709 345.741238,135.941928 348.002908,136.850286 C347.869849,138.018176 347.799925,139.216538 347.797888,140.441264 C347.385811,140.338889 346.966946,140.280341 346.545704,140.280341 C343.480925,140.280341 341.495557,143.138263 342.112314,146.663844 C342.728393,150.189082 345.712386,153.046662 348.777504,153.046662 C349.198406,153.046662 349.596905,152.988114 349.973002,152.886082 C350.279174,153.757462 350.616235,154.615832 350.979433,155.459479 C348.832832,156.249713 347.593207,158.685127 348.097611,161.571125 C348.714029,165.096364 351.698022,167.953943 354.762801,167.953943 C356.098147,167.953943 357.227794,167.410914 358.027508,166.507349 C358.850304,167.427006 359.711456,168.301468 360.604176,169.127311 C359.994547,170.234597 359.758977,171.658936 360.030866,173.214068 C360.646945,176.739649 363.631277,179.596886 366.696056,179.596886 C368.944149,179.596886 370.605694,178.05682 371.092107,175.846356 C372.439334,176.38151 373.812018,176.812578 375.200995,177.131 C375.220003,177.344308 375.247837,177.56104 375.285854,177.780512 C375.902272,181.30575 378.886604,184.163673 381.951383,184.163673 C385.016501,184.163673 387.00153,181.30575 386.385112,177.780512 C386.346756,177.56104 386.299235,177.344308 386.243227,177.131 C387.292428,176.869414 388.30463,176.532503 389.27542,176.124033 C390.556117,178.184531 392.66538,179.596886 394.817751,179.596886 C397.88287,179.596886 399.867559,176.739649 399.251141,173.214068 C399.018626,171.883886 398.449051,170.649231 397.664951,169.626857 C398.323459,168.777732 398.927318,167.872455 399.472794,166.917189 C400.45784,167.57081 401.563048,167.953943 402.680136,167.953943 C405.745594,167.953943 407.730283,165.096364 407.114204,161.571125 C406.663771,158.994989 404.947916,156.781785 402.862074,155.772765 C402.943879,154.871939 402.988684,153.953994 402.993776,153.020298 C403.146862,153.034679 403.300627,153.046662 403.454392,153.046662" id="Fill-102" fill="#96C4EA"></path>
                <polygon id="Fill-103" fill="#DB5A28" points="196 156.163673 209.239845 206.163673 221 206.163673 207.760155 156.163673"></polygon>
                <polygon id="Fill-104" fill="#27A9E0" points="212 151.163673 226.397113 206.163673 238 206.163673 223.602887 151.163673"></polygon>
                <polygon id="Fill-105" fill="#F5A623" points="227 142.163673 244.108275 206.163673 256 206.163673 238.891042 142.163673"></polygon>
                <polygon id="Fill-106" fill="#0280DA" points="253.891383 136.163673 242 136.163673 259.108617 200.163673 271 200.163673"></polygon>
                <path d="M197.778572,150.926723 L210.382326,141.4109 L211.335133,144.904084 C211.492245,145.480529 211.969663,146.00819 212.564323,146.26306 C213.159997,146.522245 213.774253,146.461514 214.144902,146.111731 L227.607872,133.474078 L229.491864,135.136709 C229.719591,135.337817 230.027733,135.245891 229.998,134.986043 L229.39219,129.693501 C229.37158,129.510977 229.186425,129.345378 228.997215,129.339404 L223.407072,129.163673 C223.134406,129.15522 223.066156,129.465512 223.295911,129.667948 L224.977853,131.152368 L213.589774,141.842321 L212.717718,138.644163 C212.56635,138.089621 212.119003,137.580212 211.551711,137.313394 C210.98746,137.048236 210.38638,137.068812 209.993094,137.363837 L195.420204,148.365741 C194.823179,148.81641 194.868116,149.754585 195.518188,150.461452 C195.937829,150.916435 196.504445,151.163673 197.014637,151.163673 C197.298114,151.163673 197.565373,151.086681 197.778572,150.926723" id="Fill-107" fill="#AFCDFB"></path>
                <path d="M193,193.163673 L194,195.163673 C193.437713,194.58271 193.125255,193.905506 193,193.163673" id="Fill-108" fill="#CAE0FF"></path>
                <path d="M198.553931,216.163673 L193,194.900062 C198.11459,205.893317 239.691349,193.86393 249.010761,187.173871 C266.049374,174.861685 266.174754,162.738261 283.809517,154.50905 C307.688652,143.359179 331.567445,160.822272 350.770988,156.048201 C409.668549,141.443532 458.493739,93.671022 460,92.1636727 C443.463246,130.481737 403.173419,150.645612 434.143834,163.209478 C466.27546,176.243536 445.345986,216.163673 445.345986,216.163673 L198.553931,216.163673 Z" id="Fill-109" fill="#308DFC"></path>
                <path d="M409.934593,216.163673 L291,216.163673 C296.077846,211.894099 303.024102,204.501183 306.699876,193.890561 C312.930175,175.982775 334.206795,183.375691 352.990618,180.284612 C371.805983,177.193881 409.757893,138.011425 411.056183,142.525232 C411.750774,144.941894 403.26848,176.779655 415.728737,180.380016 C428.033321,183.917237 432.737077,203.800053 409.934593,216.163673" id="Fill-117" fill="#27A9E0"></path>
                <g id="Group-10" transform="translate(187.000000, 99.163673)">
                    <path d="M0.504454133,9.04971994 L0.488383637,9 C-1.11377491,4.12710044 1.30273854,0 6.61089314,0 C9.67965911,0 11.844285,0.845239009 14.1538947,2.36169723 L12.9521011,4.6740198 C11.2175357,3.53046114 9.64716876,2.80917671 7.40847883,2.80917671 C4.16328678,2.80917671 2.62156726,5.61869869 3.71680648,8.95028006 L3.73322634,9 C4.91021547,12.5801811 8.166587,15.215338 11.7639325,15.215338 C13.4240846,15.215338 14.7621281,14.6932786 15.5817233,13.8977595 L14.5112886,10.6407581 L10.0084056,10.6407581 L9.13361161,7.9807412 L16.6301485,7.9807412 L19.0333863,15.2902632 C17.7795383,16.7570015 15.6980598,18 12.5789861,18 C7.06960099,18 2.17194274,14.1214993 0.504454133,9.04971994" id="Fill-1" fill="#0C7DBA"></path>
                    <path d="M28.1840899,8.45323888 C30.32261,8.45323888 31.3201586,7.33238799 30.7596281,5.60290119 L30.7437672,5.55418325 C30.1518524,3.72726058 28.5154812,2.72820453 26.3047435,2.72820453 L21.9548107,2.72820453 L23.8101971,8.45323888 L28.1840899,8.45323888 Z M18.081717,0 L25.6632212,0 C27.8017413,0 29.68345,0.633333194 31.1244285,1.70512783 C32.3237815,2.63110697 33.2443879,3.89777336 33.7259515,5.38367047 L33.7418124,5.43238841 C34.6495951,8.23400816 33.5180726,9.91477702 31.3819148,10.5968282 L38.0667727,17.0526316 L34.5189959,17.0526316 L28.4132291,11.1087048 L24.6710721,11.1087048 L26.5976637,17.0526316 L23.6083926,17.0526316 L18.081717,0 Z" id="Fill-3" fill="#0C7DBA"></path>
                    <path d="M53.4534628,9.04971994 L53.4373404,9 C52.3458228,5.61869869 48.9937455,2.80917671 45.5603703,2.80917671 C42.1269952,2.80917671 40.6221279,5.56897875 41.7133024,8.95028006 L41.7294248,9 C42.8209424,12.3813013 46.1651301,15.165618 49.5985052,15.165618 C53.0318804,15.165618 54.5449804,12.4310213 53.4534628,9.04971994 M38.5591527,9.04971994 L38.5430304,9 C36.9623537,4.10224047 39.3923696,0 44.7027983,0 C50.0135701,0 55.0265928,4.05252052 56.6076125,8.95028006 L56.6237349,9 C58.2047546,13.8977595 55.7747386,18 50.4639669,18 C45.1535382,18 40.1401724,13.9474795 38.5591527,9.04971994" id="Fill-5" fill="#0C7DBA"></path>
                    <g id="Group-9" transform="translate(55.196820, 0.000000)">
                        <mask id="mask-4" fill="white">
                            <use xlink:href="#path-3"></use>
                        </mask>
                        <g id="Clip-8"></g>
                        <polygon id="Fill-7" fill="#0C7DBA" mask="url(#mask-4)" points="0.219253341 0.253142308 3.45683236 0.253142308 11.6278651 13.1892577 11.6937932 0.203296154 14.2261102 0.203296154 22.5344087 13.1892577 22.4948518 0.253142308 25.63506 0.253142308 25.2959527 17.8252962 22.6909458 17.8252962 14.5249844 5.28795 14.316381 17.8252962 11.7357168 17.8252962"></polygon>
                    </g>
                </g>
            </g>
        </g>
    </g>
</svg>