<?xml version="1.0" encoding="UTF-8"?>
<svg width="204px" height="118px" viewBox="0 0 204 118" version="1.1" xmlns="http://www.w3.org/2000/svg" xmlns:xlink="http://www.w3.org/1999/xlink">
    <!-- Generator: Sketch 59.1 (86144) - https://sketch.com -->
    <title>Product DEsign &amp; UX</title>
    <desc>Created with Sketch.</desc>
    <defs>
        <polygon id="path-1" points="0 117.79798 203.123492 117.79798 203.123492 0.0694706035 0 0.0694706035"></polygon>
        <polygon id="path-3" points="0.0595795803 0.200283745 10.6217696 0.200283745 10.6217696 46.057083 0.0595795803 46.057083"></polygon>
        <polygon id="path-5" points="0.0598417861 0.0918559019 7.9142014 0.0918559019 7.9142014 3.01308019 0.0598417861 3.01308019"></polygon>
    </defs>
    <g id="Services-Page" stroke="none" stroke-width="1" fill="none" fill-rule="evenodd">
        <g id="Services-Page-Consulting" transform="translate(-965.000000, -935.000000)">
            <g id="Product-DEsign-&amp;-UX" transform="translate(965.000000, 935.000000)">
                <line x1="165.878788" y1="80.5353535" x2="164.676768" y2="84.1414141" id="Stroke-1" stroke="#008C60"></line>
                <line x1="161.070707" y1="82.9393939" x2="164.676768" y2="85.3434343" id="Stroke-2" stroke="#008C60"></line>
                <g id="Group-73">
                    <path d="M198.653115,88.3971574 L194.949483,104.194169 C194.728435,105.135689 193.788765,105.719933 192.850386,105.498145 C191.912006,105.276357 191.330142,104.333973 191.55076,103.39202 L195.254822,87.5954408 C195.47501,86.6534884 196.41511,86.069245 197.35349,86.2910331 C198.291869,86.5128212 198.873734,87.4552051 198.653115,88.3971574" id="Fill-3" fill="#FF8847"></path>
                    <path d="M190.760921,88.5652677 L194.031488,104.458071 C194.227163,105.405201 193.619066,106.332051 192.675095,106.527518 C191.731125,106.722985 190.807367,106.113715 190.612553,105.166584 L187.341986,89.2737815 C187.147171,88.3262197 187.754408,87.3998012 188.698379,87.2043342 C189.642349,87.0084357 190.566107,87.6181374 190.760921,88.5652677" id="Fill-5" fill="#FF8847"></path>
                    <path d="M136.835229,110.239449 C131.360202,97.1500651 118.467588,87.9553503 103.432872,87.9553503 C88.3981552,87.9553503 75.5059718,97.1500651 70.0305138,110.239449 L136.835229,110.239449 Z" id="Fill-7" fill="#979797"></path>
                    <path d="M125.778563,95.6996829 C119.624049,90.849254 111.86586,87.9556523 103.432915,87.9556523 C94.9999697,87.9556523 87.2413507,90.849254 81.0872662,95.6996829 L125.778563,95.6996829 Z" id="Fill-9" fill="#707070"></path>
                    <mask id="mask-2" fill="white">
                        <use xlink:href="#path-1"></use>
                    </mask>
                    <g id="Clip-12"></g>
                    <path d="M47.3443628,93.0107822 L170.521466,93.0107822 L170.521466,93.0107822 L170.521466,0.0694706035 L36.3443628,0.0694706035 L36.3443628,82.0107822 C36.3443628,88.0859144 41.2692306,93.0107822 47.3443628,93.0107822 Z" id="Fill-11" fill="#979797" mask="url(#mask-2)"></path>
                    <polygon id="Fill-13" fill="#FFFFFF" mask="url(#mask-2)" points="41.3299884 86.8978006 165.535841 86.8978006 165.535841 9.5157467 41.3299884 9.5157467"></polygon>
                    <polygon id="Fill-14" fill="#27A9E0" mask="url(#mask-2)" points="41.3299884 86.8978006 71.8681811 86.8978006 71.8681811 9.5157467 41.3299884 9.5157467"></polygon>
                    <polygon id="Fill-15" fill="#27A9E0" mask="url(#mask-2)" points="41.3299884 16.466259 165.535841 16.466259 165.535841 9.5157467 41.3299884 9.5157467"></polygon>
                    <polygon id="Fill-16" fill="#0280DA" mask="url(#mask-2)" points="41.3299884 16.466259 71.8681811 16.466259 71.8681811 9.5157467 41.3299884 9.5157467"></polygon>
                    <path d="M104.615565,5.0677295 C104.615565,5.72316954 104.086168,6.25433919 103.432915,6.25433919 C102.779661,6.25433919 102.250264,5.72316954 102.250264,5.0677295 C102.250264,4.41228946 102.779661,3.88111981 103.432915,3.88111981 C104.086168,3.88111981 104.615565,4.41228946 104.615565,5.0677295" id="Fill-17" fill="#FFFFFF" mask="url(#mask-2)"></path>
                    <polygon id="Fill-18" fill="#FFFFFF" mask="url(#mask-2)" points="43.2798569 11.6783968 47.2221694 11.6783968 47.2221694 11.2469024 43.2798569 11.2469024"></polygon>
                    <polygon id="Fill-19" fill="#FFFFFF" mask="url(#mask-2)" points="43.2798569 12.5953225 47.2221694 12.5953225 47.2221694 12.163828 43.2798569 12.163828"></polygon>
                    <polygon id="Fill-20" fill="#FFFFFF" mask="url(#mask-2)" points="43.2798569 13.5122481 47.2221694 13.5122481 47.2221694 13.0807537 43.2798569 13.0807537"></polygon>
                    <polygon id="Fill-21" fill="#96C4EA" mask="url(#mask-2)" points="82.3365755 43.7716581 152.435511 43.7716581 152.435511 22.2689961 82.3365755 22.2689961"></polygon>
                    <polygon id="Fill-22" fill="#1C75BB" mask="url(#mask-2)" points="81.5422642 42.8521435 102.979637 42.8521435 102.979637 21.3434406 81.5422642 21.3434406"></polygon>
                    <polygon id="Stroke-23" stroke="#FFFFFF" mask="url(#mask-2)" points="83.658564 40.7287594 100.862907 40.7287594 100.862907 23.4668247 83.658564 23.4668247"></polygon>
                    <line x1="83.658779" y1="23.4669541" x2="100.863122" y2="40.7288888" id="Stroke-24" stroke="#FFFFFF" mask="url(#mask-2)"></line>
                    <line x1="83.658779" y1="40.7288457" x2="100.863122" y2="23.466911" id="Stroke-25" stroke="#FFFFFF" mask="url(#mask-2)"></line>
                    <polygon id="Fill-26" fill="#FFFFFF" mask="url(#mask-2)" points="102.979207 42.8521435 151.647221 42.8521435 151.647221 21.3434406 102.979207 21.3434406"></polygon>
                    <polygon id="Fill-27" fill="#0280DA" mask="url(#mask-2)" points="138.136188 41.2547511 148.941316 41.2547511 148.941316 39.2051526 138.136188 39.2051526"></polygon>
                    <polygon id="Fill-28" fill="#27A9E0" mask="url(#mask-2)" points="103.893073 26.4760668 119.912615 26.4760668 119.912615 22.8083642 103.893073 22.8083642"></polygon>
                    <polygon id="Fill-29" fill="#27A9E0" mask="url(#mask-2)" points="103.893073 31.1685688 125.825869 31.1685688 125.825869 27.5008661 103.893073 27.5008661"></polygon>
                    <polygon id="Fill-30" fill="#27A9E0" mask="url(#mask-2)" points="103.893073 33.3415747 148.941316 33.3415747 148.941316 32.699511 103.893073 32.699511"></polygon>
                    <polygon id="Fill-31" fill="#27A9E0" mask="url(#mask-2)" points="103.893073 34.831525 148.941316 34.831525 148.941316 34.1890298 103.893073 34.1890298"></polygon>
                    <polygon id="Fill-32" fill="#27A9E0" mask="url(#mask-2)" points="103.893073 36.3210438 116.633447 36.3210438 116.633447 35.6789801 103.893073 35.6789801"></polygon>
                    <polygon id="Fill-33" fill="#E3E3E3" mask="url(#mask-2)" points="117.896948 36.3210438 118.5373 36.3210438 118.5373 35.6789801 117.896948 35.6789801"></polygon>
                    <polygon id="Fill-34" fill="#E3E3E3" mask="url(#mask-2)" points="119.310539 36.3210438 119.95046 36.3210438 119.95046 35.6789801 119.310539 35.6789801"></polygon>
                    <polygon id="Fill-35" fill="#E3E3E3" mask="url(#mask-2)" points="120.724129 36.3210438 121.36405 36.3210438 121.36405 35.6789801 120.724129 35.6789801"></polygon>
                    <polygon id="Fill-36" fill="#E3E3E3" mask="url(#mask-2)" points="122.137719 36.3210438 122.777641 36.3210438 122.777641 35.6789801 122.137719 35.6789801"></polygon>
                    <polygon id="Fill-37" fill="#96C4EA" mask="url(#mask-2)" points="82.3365755 76.8888557 152.435511 76.8888557 152.435511 55.3861937 82.3365755 55.3861937"></polygon>
                    <polygon id="Fill-38" fill="#1C75BB" mask="url(#mask-2)" points="81.5422642 75.9693411 102.979637 75.9693411 102.979637 54.4606382 81.5422642 54.4606382"></polygon>
                    <polygon id="Stroke-39" stroke="#FFFFFF" mask="url(#mask-2)" points="83.658564 73.845957 100.862907 73.845957 100.862907 56.5840223 83.658564 56.5840223"></polygon>
                    <line x1="83.658779" y1="56.5841517" x2="100.863122" y2="73.8460865" id="Stroke-40" stroke="#FFFFFF" mask="url(#mask-2)"></line>
                    <line x1="83.658779" y1="73.8460002" x2="100.863122" y2="56.5840654" id="Stroke-41" stroke="#FFFFFF" mask="url(#mask-2)"></line>
                    <polygon id="Fill-42" fill="#FFFFFF" mask="url(#mask-2)" points="102.979207 75.9693411 151.647221 75.9693411 151.647221 54.4606382 102.979207 54.4606382"></polygon>
                    <polygon id="Fill-43" fill="#0280DA" mask="url(#mask-2)" points="138.136188 74.3719487 148.941316 74.3719487 148.941316 72.3223502 138.136188 72.3223502"></polygon>
                    <polygon id="Fill-44" fill="#27A9E0" mask="url(#mask-2)" points="103.893073 59.5932644 119.912615 59.5932644 119.912615 55.9255618 103.893073 55.9255618"></polygon>
                    <polygon id="Fill-45" fill="#27A9E0" mask="url(#mask-2)" points="103.893073 64.2857664 125.825869 64.2857664 125.825869 60.6180637 103.893073 60.6180637"></polygon>
                    <polygon id="Fill-46" fill="#27A9E0" mask="url(#mask-2)" points="103.893073 66.4587723 148.941316 66.4587723 148.941316 65.8162771 103.893073 65.8162771"></polygon>
                    <polygon id="Fill-47" fill="#27A9E0" mask="url(#mask-2)" points="103.893073 67.9482911 148.941316 67.9482911 148.941316 67.3062274 103.893073 67.3062274"></polygon>
                    <polygon id="Fill-48" fill="#27A9E0" mask="url(#mask-2)" points="103.893073 69.4382414 116.633447 69.4382414 116.633447 68.7957462 103.893073 68.7957462"></polygon>
                    <polygon id="Fill-49" fill="#E3E3E3" mask="url(#mask-2)" points="117.896948 69.4382414 118.5373 69.4382414 118.5373 68.7957462 117.896948 68.7957462"></polygon>
                    <polygon id="Fill-50" fill="#E3E3E3" mask="url(#mask-2)" points="119.310539 69.4382414 119.95046 69.4382414 119.95046 68.7957462 119.310539 68.7957462"></polygon>
                    <polygon id="Fill-51" fill="#E3E3E3" mask="url(#mask-2)" points="120.724129 69.4382414 121.36405 69.4382414 121.36405 68.7957462 120.724129 68.7957462"></polygon>
                    <polygon id="Fill-52" fill="#E3E3E3" mask="url(#mask-2)" points="122.137719 69.4382414 122.777641 69.4382414 122.777641 68.7957462 122.137719 68.7957462"></polygon>
                    <line x1="163.391115" y1="18.4800867" x2="163.391115" y2="84.821924" id="Stroke-53" stroke="#FFD7C2" mask="url(#mask-2)"></line>
                    <path d="M163.391115,43.3987175 L163.391115,43.3987175 C163.078895,43.3987175 162.826883,43.1454303 162.826883,42.8325968 L162.826883,20.772444 C162.826883,20.4596105 163.078895,20.2058918 163.391115,20.2058918 C163.702904,20.2058918 163.955346,20.4596105 163.955346,20.772444 L163.955346,42.8325968 C163.955346,43.1454303 163.702904,43.3987175 163.391115,43.3987175" id="Fill-54" fill="#FFFFFF" mask="url(#mask-2)"></path>
                    <path d="M133.357849,48.7565407 L132.18853,49.8231949 C131.525816,50.4277186 130.513467,50.4277186 129.850322,49.8231949 C129.187608,49.2178082 128.174829,49.2178082 127.511684,49.8231949 C126.84897,50.4277186 125.83662,50.4277186 125.173476,49.8231949 C124.510761,49.2178082 123.497982,49.2178082 122.834838,49.8231949 C122.172123,50.4277186 121.159774,50.4277186 120.49663,49.8231949 C119.833915,49.2178082 118.821136,49.2178082 118.157992,49.8231949 C117.495277,50.4277186 116.482928,50.4277186 115.819784,49.8231949 C115.157069,49.2178082 114.14429,49.2178082 113.481146,49.8231949 C112.818431,50.4277186 111.806082,50.4277186 111.142937,49.8231949 C110.480223,49.2178082 109.467444,49.2178082 108.804299,49.8231949 C108.141585,50.4277186 107.129236,50.4277186 106.466091,49.8231949 C105.803377,49.2178082 104.790598,49.2178082 104.127453,49.8231949 C103.464739,50.4277186 102.45239,50.4277186 101.789245,49.8231949 L100.619926,48.7565407" id="Stroke-55" stroke="#1C75BB" mask="url(#mask-2)"></path>
                    <path d="M133.357849,81.8737383 L132.18853,82.9403925 C131.525816,83.5449162 130.513467,83.5449162 129.850322,82.9403925 C129.187608,82.3350059 128.174829,82.3350059 127.511684,82.9403925 C126.84897,83.5449162 125.83662,83.5449162 125.173476,82.9403925 C124.510761,82.3350059 123.497982,82.3350059 122.834838,82.9403925 C122.172123,83.5449162 121.159774,83.5449162 120.49663,82.9403925 C119.833915,82.3350059 118.821136,82.3350059 118.157992,82.9403925 C117.495277,83.5449162 116.482928,83.5449162 115.819784,82.9403925 C115.157069,82.3350059 114.14429,82.3350059 113.481146,82.9403925 C112.818431,83.5449162 111.806082,83.5449162 111.142937,82.9403925 C110.480223,82.3350059 109.467444,82.3350059 108.804299,82.9403925 C108.141585,83.5449162 107.129236,83.5449162 106.466091,82.9403925 C105.803377,82.3350059 104.790598,82.3350059 104.127453,82.9403925 C103.464739,83.5449162 102.45239,83.5449162 101.789245,82.9403925 L100.619926,81.8737383" id="Stroke-56" stroke="#0280DA" mask="url(#mask-2)"></path>
                    <path d="M161.82464,13.1412061 C161.471995,13.4950315 160.898302,13.4950315 160.545227,13.1412061 C160.192582,12.7873806 160.192582,12.2113356 160.545227,11.8575101 C160.898302,11.5036847 161.471995,11.5036847 161.82464,11.8575101 C162.177285,12.2113356 162.177285,12.7873806 161.82464,13.1412061 M160.317728,11.6292496 C159.839937,12.1090714 159.839507,12.8896448 160.317728,13.3694666 C160.757244,13.8100224 161.446622,13.84109 161.926993,13.4721623 L163.163401,14.7127088 L163.39133,14.4844482 L162.154492,13.2439017 C162.522189,12.7619225 162.491655,12.0702369 162.052139,11.6292496 C161.573918,11.1494278 160.795949,11.1494278 160.317728,11.6292496" id="Fill-57" fill="#FFFFFF" mask="url(#mask-2)"></path>
                    <path d="M48.7813332,23.9949307 C48.7813332,24.9481019 48.011105,25.7209084 47.0611139,25.7209084 C46.1111228,25.7209084 45.3408946,24.9481019 45.3408946,23.9949307 C45.3408946,23.0417595 46.1111228,22.268953 47.0611139,22.268953 C48.011105,22.268953 48.7813332,23.0417595 48.7813332,23.9949307" id="Fill-58" fill="#FFFFFF" mask="url(#mask-2)"></path>
                    <polygon id="Fill-59" fill="#FFFFFF" mask="url(#mask-2)" points="50.7163648 24.5826693 66.1983383 24.5826693 66.1983383 23.4072784 50.7163648 23.4072784"></polygon>
                    <path d="M48.7813332,31.060652 C48.7813332,32.0138232 48.011105,32.7866297 47.0611139,32.7866297 C46.1111228,32.7866297 45.3408946,32.0138232 45.3408946,31.060652 C45.3408946,30.1074808 46.1111228,29.3346743 47.0611139,29.3346743 C48.011105,29.3346743 48.7813332,30.1074808 48.7813332,31.060652" id="Fill-60" fill="#FFFFFF" mask="url(#mask-2)"></path>
                    <polygon id="Fill-61" fill="#FFFFFF" mask="url(#mask-2)" points="50.7163648 31.6483906 66.1983383 31.6483906 66.1983383 30.4729997 50.7163648 30.4729997"></polygon>
                    <path d="M48.7813332,38.1263733 C48.7813332,39.0795445 48.011105,39.852351 47.0611139,39.852351 C46.1111228,39.852351 45.3408946,39.0795445 45.3408946,38.1263733 C45.3408946,37.1732021 46.1111228,36.4003956 47.0611139,36.4003956 C48.011105,36.4003956 48.7813332,37.1732021 48.7813332,38.1263733" id="Fill-62" fill="#FFFFFF" mask="url(#mask-2)"></path>
                    <polygon id="Fill-63" fill="#FFFFFF" mask="url(#mask-2)" points="50.7163648 38.7136804 66.1983383 38.7136804 66.1983383 37.5387211 50.7163648 37.5387211"></polygon>
                    <path d="M48.7813332,45.1920946 C48.7813332,46.1452658 48.011105,46.9180724 47.0611139,46.9180724 C46.1111228,46.9180724 45.3408946,46.1452658 45.3408946,45.1920946 C45.3408946,44.2389234 46.1111228,43.4661169 47.0611139,43.4661169 C48.011105,43.4661169 48.7813332,44.2389234 48.7813332,45.1920946" id="Fill-64" fill="#FFFFFF" mask="url(#mask-2)"></path>
                    <polygon id="Fill-65" fill="#FFFFFF" mask="url(#mask-2)" points="50.7163648 45.7794017 66.1983383 45.7794017 66.1983383 44.6040109 50.7163648 44.6040109"></polygon>
                    <path d="M48.7813332,52.257816 C48.7813332,53.2109872 48.011105,53.9837937 47.0611139,53.9837937 C46.1111228,53.9837937 45.3408946,53.2109872 45.3408946,52.257816 C45.3408946,51.3046448 46.1111228,50.5318382 47.0611139,50.5318382 C48.011105,50.5318382 48.7813332,51.3046448 48.7813332,52.257816" id="Fill-66" fill="#FFFFFF" mask="url(#mask-2)"></path>
                    <polygon id="Fill-67" fill="#FFFFFF" mask="url(#mask-2)" points="50.7163648 52.845123 66.1983383 52.845123 66.1983383 51.6697322 50.7163648 51.6697322"></polygon>
                    <path d="M48.7813332,59.3235373 C48.7813332,60.2767085 48.011105,61.049515 47.0611139,61.049515 C46.1111228,61.049515 45.3408946,60.2767085 45.3408946,59.3235373 C45.3408946,58.3703661 46.1111228,57.5975595 47.0611139,57.5975595 C48.011105,57.5975595 48.7813332,58.3703661 48.7813332,59.3235373" id="Fill-68" fill="#FFFFFF" mask="url(#mask-2)"></path>
                    <polygon id="Fill-69" fill="#FFFFFF" mask="url(#mask-2)" points="50.7163648 59.9108443 66.1983383 59.9108443 66.1983383 58.7354535 50.7163648 58.7354535"></polygon>
                    <polygon id="Fill-70" fill="#FFFFFF" mask="url(#mask-2)" points="87.5690525 14.7329459 119.296777 14.7329459 119.296777 11.2490598 87.5690525 11.2490598"></polygon>
                    <path d="M168.311395,17.4731944 L133.524918,17.4731944 C131.98786,17.4731944 130.741616,15.6207845 130.741616,13.3350921 C130.741616,11.0493997 131.98786,9.19698974 133.524918,9.19698974 L168.311395,9.19698974 C169.848453,9.19698974 171.095383,11.0493997 171.095383,13.3350921 C171.095383,15.6207845 169.848453,17.4731944 168.311395,17.4731944" id="Fill-71" fill="#DEDEDE" mask="url(#mask-2)"></path>
                    <path d="M169.134303,16.3697004 L134.349103,16.3697004 C132.811386,16.3697004 131.565162,14.3937965 131.565162,11.9557246 C131.565162,9.51765274 132.811386,7.5417488 134.349103,7.5417488 L169.134303,7.5417488 C170.67202,7.5417488 171.91893,9.51765274 171.91893,11.9557246 C171.91893,14.3937965 170.67202,16.3697004 169.134303,16.3697004" id="Fill-72" fill="#1C75BB" mask="url(#mask-2)"></path>
                </g>
                <text id="search" font-family="Gotham-Medium, Gotham" font-size="24.4946" font-weight="400" fill="#FFFFFF">
                    <tspan x="140.636364" y="28.4141414">s</tspan>
                    <tspan x="140.636364" y="58.3130713">e</tspan>
                    <tspan x="140.636364" y="88.2120013">a</tspan>
                    <tspan x="155.014694" y="88.2120013" letter-spacing="-0.44335226">r</tspan>
                    <tspan x="140.636364" y="118.110931">c</tspan>
                    <tspan x="140.636364" y="148.009861">h</tspan>
                </text>
                <path d="M180.297113,47.5280988 L178.97908,63.3365286 C178.900411,64.2791132 178.058263,64.9804636 177.097896,64.9032856 C176.137099,64.8265292 175.422198,63.9999226 175.500867,63.057338 L176.8189,47.24933 C176.897569,46.3067454 177.739717,45.605395 178.700084,45.682573 C179.66088,45.7597511 180.375782,46.585936 180.297113,47.5280988" id="Fill-74" fill="#ABBDFF"></path>
                <text id="search" transform="translate(178.188303, 79.264070) rotate(-84.000000) translate(-178.188303, -79.264070) " font-family="Gotham-Medium, Gotham" font-size="9.0023" font-weight="400" fill="#FFFFFF">
                    <tspan x="173.247025" y="59.2629112">s</tspan>
                    <tspan x="173.247025" y="70.0633748">e</tspan>
                    <tspan x="173.247025" y="80.8638385">a</tspan>
                    <tspan x="178.531375" y="80.8638385" letter-spacing="-0.012318995">r</tspan>
                    <tspan x="173.247025" y="91.6643021">c</tspan>
                    <tspan x="173.247025" y="102.464766">h</tspan>
                </text>
                <path d="M200.731456,88.3971988 L199.413424,104.205581 C199.334754,105.148163 198.492606,105.849511 197.532239,105.771912 C196.571443,105.695156 195.856541,104.868973 195.93521,103.926391 L197.252813,88.1180091 C197.331482,87.175849 198.17406,86.474079 199.134427,86.5512568 C200.095224,86.6288564 200.810125,87.4550388 200.731456,88.3971988" id="Fill-76" fill="#ABBDFF"></path>
                <path d="M193.465057,86.7057998 L197.087582,102.454262 C197.304182,103.393034 196.695049,104.324084 195.727864,104.533462 C194.760679,104.74327 193.80145,104.152033 193.585292,103.213689 L189.962767,87.464798 C189.746609,86.5260257 190.355742,85.5949765 191.322485,85.3855977 C192.290112,85.1762188 193.249341,85.7670275 193.465057,86.7057998" id="Fill-78" fill="#7391FF"></path>
                <g id="Group-210" transform="translate(0.000000, 13.222222)">
                    <polygon id="Fill-80" fill="#000000" points="90.5205617 49.2641519 93.3086071 70.5395112 72.0522876 73.3300539 69.2642422 52.0546946"></polygon>
                    <polygon id="Fill-82" fill="#FFFFFF" points="89.1121752 48.058145 91.9002206 69.3335043 70.6443311 72.124047 67.8562857 50.8486877"></polygon>
                    <polygon id="Fill-84" fill="#C7D3FF" points="88.0305443 49.4680083 90.4921781 68.2511198 71.7258759 70.7145281 69.2642422 51.931847"></polygon>
                    <path d="M87.8367186,56.5202516 C88.1029225,58.5493459 86.6747105,60.4097077 84.6478621,60.6757197 C82.6205837,60.9417316 80.7618868,59.5126707 80.4961129,57.4840069 C80.230339,55.4549126 81.657691,53.5945508 83.6849694,53.3285388 C85.7122478,53.0625269 87.5709447,54.4911573 87.8367186,56.5202516" id="Fill-86" fill="#FF9100"></path>
                    <polygon id="Fill-88" fill="#B0C1FF" points="89.7971665 62.9469795 90.5183684 68.451877 73.860195 70.6389428 83.486112 58.09549"></polygon>
                    <polygon id="Fill-90" fill="#6989FF" points="88.3463766 68.7373449 71.7522813 70.9158018 70.7635853 63.3723403 74.6985869 58.2449387 80.1534022 62.4387159"></polygon>
                    <path d="M62.7486536,51.1439266 C63.253538,51.991463 63.8448633,53.480355 63.4328708,54.7535966 C63.0204483,56.0268382 62.0528249,56.6010452 61.7840407,57.8024033 C61.5152564,59.0041919 62.4652475,63.2009822 60.2431542,63.2905137 C58.021061,63.3804757 58.6123864,58.3228053 58.6123864,58.3228053 L60.1175782,51.6867114 L62.7486536,51.1439266 Z" id="Fill-92" fill="#002D51"></path>
                    <path d="M58.5411263,74.0337803 C58.5411263,74.0337803 63.5405136,83.2344359 64.2393526,85.117611 C64.9381917,87.0007861 60.8836349,98.5150568 61.0560869,100.075402 C61.2289689,101.635747 64.6694075,102.012382 64.5618937,102.819457 C64.45438,103.626532 60.1538318,102.658042 58.9711811,102.819457 C57.7885303,102.980872 57.197205,102.389017 57.5735029,101.420527 C57.9498009,100.452037 58.7023968,98.6764719 58.9174242,97.6003718 C59.1324517,96.5242717 59.2077112,90.1752813 60.782572,86.9469811 L56.2295816,79.4142806 L58.5411263,74.0337803 Z" id="Fill-94" fill="#554326"></path>
                    <path d="M60.0009474,64.1681379 L61.8579241,66.3853345 C61.8579241,66.3853345 67.6266794,65.3574437 68.2545595,64.7298621 C68.8824395,64.1018501 70.3755898,62.6413671 71.0825999,62.6280234 C71.78918,62.6146798 69.7266371,64.09195 69.7515803,64.5520904 C69.7765235,65.0118003 69.9279028,65.8864545 69.9279028,65.8864545 L61.4996884,69.0411494 L58.5409112,65.9777077 L60.0009474,64.1681379 Z" id="Fill-100" fill="#F8D498"></path>
                    <polygon id="Fill-102" fill="#F8D498" points="61.4011628 65.8398378 60.0009044 64.1680087 58.5412983 65.9775786 60.4722444 67.9778334"></polygon>
                    <path d="M61.9454402,52.7984519 L62.375495,55.5963121 L61.676656,55.5963121 C61.676656,55.5963121 61.2109066,58.5198608 59.5444442,57.9460842 L59.3294168,59.1117158 L57.3404132,59.0041058 L58.6482099,55.1120671 L61.9454402,52.7984519 Z" id="Fill-104" fill="#F8D498"></path>
                    <path d="M57.3404132,59.0041058 L59.3294168,59.1117158 L59.5444442,57.9460842 C59.8902082,58.0648857 60.1813554,58.0278678 60.4303571,57.9034707 C58.5454268,57.549649 59.2545872,55.3897009 59.2545872,55.3897009 L58.7806668,55.019092 L58.64864,55.1120671 L57.3404132,59.0041058 Z" id="Fill-106" fill="#F8D498"></path>
                    <g id="Group-110" transform="translate(50.160874, 58.243475)">
                        <mask id="mask-4" fill="white">
                            <use xlink:href="#path-3"></use>
                        </mask>
                        <g id="Clip-110"></g>
                        <path d="M10.2103071,19.1972378 C9.46287181,17.7931425 8.82811089,16.6171803 8.54298455,16.0898913 L8.32709703,15.9142718 L6.06844912,21.1708054 L10.0825808,27.8112037 L10.2103071,19.1972378 Z" id="Fill-98"></path>
                        <path d="M7.74837226,0.200283745 L9.62986209,0.509770125 C9.62986209,0.509770125 9.42816638,1.78774657 9.62986209,2.74246255 C9.8315578,3.69760897 10.8258445,5.41936908 10.5841537,6.49546915 C10.3420329,7.57156922 8.41194684,10.9173796 8.38012279,12.1045332 C8.34399818,13.4586975 9.52664894,25.9057318 9.7059818,27.9860484 C9.88531466,30.0663651 3.93593628,41.7958558 3.82842258,42.9795659 C3.72090887,44.163276 7.91394336,44.952703 7.91394336,45.705973 C7.91394336,46.4592431 3.29085406,45.7774261 2.46686902,45.705973 C1.64245393,45.6340896 0.172956615,46.4230861 0.0654429102,45.2393761 C-0.0420707946,44.055666 1.35560737,41.8320128 2.07250875,39.8231492 C2.78941014,37.8142856 4.294602,30.5329621 5.87118297,27.9141649 C5.87118297,27.9141649 3.97206089,23.0002616 3.39836776,21.4575645 C2.82510469,19.9152979 1.47946316,18.4440539 1.42742652,15.5751711 C1.39173197,13.602034 2.46686902,12.3107139 2.64577183,10.6608373 C2.82510469,9.01096067 2.30946896,7.46697229 2.59201497,6.19502201 C2.87499105,4.92307173 3.72090887,0.200283745 3.72090887,0.200283745 L7.74837226,0.200283745 Z" id="Fill-108" fill="#554326"></path>
                    </g>
                    <path d="M59.7907366,58.7531593 L57.9092467,58.4436729 L53.8817833,58.4436729 C53.8817833,58.4436729 53.0358655,63.1664609 52.7528894,64.4384112 C52.4703434,65.7103614 52.9859792,67.2543498 52.8066463,68.9042265 C52.7197752,69.703984 52.4226073,70.4198058 52.1435018,71.1696323 C53.4654903,71.699504 55.7667136,72.3894994 58.6476509,72.3120202 C58.5754016,71.3323386 58.5341164,70.6173778 58.5409973,70.3479223 C58.5728213,69.1611991 60.5029073,65.8149584 60.7450282,64.7388583 C60.986719,63.6627582 59.9924323,61.9409981 59.7907366,60.9858517 C59.5890409,60.0311357 59.7907366,58.7531593 59.7907366,58.7531593" id="Fill-113" fill="#D86600"></path>
                    <path d="M59.1360211,68.4590654 L54.4836881,63.1310787 L58.5877012,71.4437365 C58.5537269,70.9151562 58.5360946,70.5294819 58.5412553,70.3482667 C58.5524367,69.9255745 58.805739,69.2286921 59.1360211,68.4590654" id="Fill-115" fill="#D86600"></path>
                    <path d="M54.5597648,63.312294 C54.5597648,63.312294 58.1266394,68.6648157 59.0039513,69.9100787 C59.8816932,71.1557721 61.6685709,71.4643976 63.6455329,72.0713181 C65.6224949,72.6778081 69.6727512,73.3320769 71.8406576,72.567185 C74.0081339,71.8027235 74.4334581,70.9125735 74.4334581,70.9125735 L71.7176619,71.2797389 C71.4643596,71.2823215 71.4256547,70.9074083 71.742175,70.6048089 C72.0586954,70.30264 72.2874845,69.7779336 72.0586954,69.7043284 C71.8299062,69.6302927 70.9444233,70.3633321 70.5504931,70.5135556 C70.1565629,70.6646401 69.4607342,71.0968019 68.7322213,70.9534653 C68.0037085,70.8101288 62.2715078,69.1051559 61.2522779,68.4801569 C60.2330479,67.855158 57.7494814,62.3545649 57.3792042,61.4678584 C57.008927,60.5807215 56.5457579,60.0344931 55.6843581,60.0926026 C54.8233884,60.150712 53.7177174,61.4639845 54.5597648,63.312294" id="Fill-117" fill="#F8D498"></path>
                    <path d="M62.8236122,51.2742638 C62.8236122,51.2742638 61.8740511,55.2734821 58.9174242,56.1343621 C58.9174242,56.1343621 57.4479269,62.0529125 53.792461,61.2458375 C53.792461,61.2458375 52.914289,63.0214026 52.7530185,64.4384112 C52.7530185,64.4384112 50.6027444,64.5279427 50.3163279,61.8914975 C50.0294813,59.2550523 54.1330644,55.3272871 54.6168761,54.233539 C55.1006877,53.1393604 55.0645631,51.2381068 56.3908522,49.9648652 C57.7167112,48.6916236 59.7951661,48.7746986 60.7627895,49.2654002 C62.1428354,49.9648652 62.8236122,51.2742638 62.8236122,51.2742638" id="Fill-119" fill="#000000"></path>
                    <path d="M58.9709661,102.819457 C60.1536168,102.658042 64.454165,103.626532 64.5616787,102.819457 C64.6679023,102.021421 61.3091741,101.642204 61.0683434,100.124472 L58.1521417,99.9527265 C57.9379744,100.507133 57.7250973,101.030118 57.5732879,101.420527 C57.1969899,102.389017 57.7883153,102.980872 58.9709661,102.819457" id="Fill-121" fill="#002D51"></path>
                    <g id="Group-125" transform="translate(50.160874, 101.287478)">
                        <mask id="mask-6" fill="white">
                            <use xlink:href="#path-5"></use>
                        </mask>
                        <g id="Clip-124"></g>
                        <path d="M3.84201231,0.0918559019 L0.630792976,0.0918559019 C0.271697202,0.926048676 0.0175348033,1.66554464 0.0657009431,2.19541632 C0.173214648,3.37912639 1.64271197,2.59012982 2.466697,2.66201331 C3.29111209,2.73346635 7.9142014,3.41528336 7.9142014,2.66201331 C7.9142014,1.94231758 4.09101405,1.18990841 3.84201231,0.0918559019" id="Fill-123" fill="#002D51"></path>
                    </g>
                    <path d="M52.4052761,60.2546632 C52.4052761,60.2546632 51.2733719,62.0582069 52.7531905,64.4385403 C52.914461,63.0215317 53.792633,61.2459666 53.792633,61.2459666 C52.7996364,61.0617383 52.4052761,60.2546632 52.4052761,60.2546632" id="Fill-126" fill="#000000"></path>
                    <path d="M169.319936,51.628602 L169.916852,55.5946764 L170.739117,57.3603414 C170.739117,57.3603414 166.171505,57.7950859 164.352803,57.3603414 L167.745506,55.4862056 L167.14859,51.9002097 L169.319936,51.628602 Z" id="Fill-128" fill="#5957D0"></path>
                    <path d="M164.352889,57.3605136 C166.171591,57.795258 170.739203,57.3605136 170.739203,57.3605136 L169.916938,55.5944182 L167.745592,55.4863777 L164.352889,57.3605136 Z" id="Fill-130" fill="#005E57"></path>
                    <path d="M176.462459,51.628602 L177.059805,55.5946764 L177.88164,57.3603414 C177.88164,57.3603414 173.314027,57.7950859 171.495326,57.3603414 L174.888028,55.4862056 L174.291112,51.9002097 L176.462459,51.628602 Z" id="Fill-132" fill="#5957D0"></path>
                    <path d="M171.495412,57.3605136 C173.314113,57.795258 177.881726,57.3605136 177.881726,57.3605136 L177.059461,55.5944182 L174.888114,55.4863777 L171.495412,57.3605136 Z" id="Fill-134" fill="#005E57"></path>
                    <path d="M172.662107,27.571481 L163.140264,27.2288508 C163.223264,31.6356958 163.370343,36.3249095 163.632246,38.5855805 C164.202069,43.5024969 166.5635,53.3397733 166.5635,53.3397733 L170.010819,53.3397733 L168.300491,35.868643 L174.162999,53.3397733 L177.393256,53.3397733 C177.419804,51.0851284 172.806176,30.3813935 172.697372,28.8331008 C172.669848,28.4379568 172.659527,28.0126821 172.662107,27.571481" id="Fill-136" fill="#1C75BB"></path>
                    <path d="M174.597354,14.3537439 C172.019175,11.3656292 170.200474,11.2567279 168.05622,10.767748 C165.912397,10.2787681 160.022366,11.3927469 157.145299,10.4147872 C154.268233,9.43682745 152.802606,4.76440095 152.802606,4.76440095 C152.775942,3.54152083 151.690054,1.31399369 151.282792,1.47713046 C150.87596,1.63983679 151.282792,3.2970309 151.282792,3.2970309 L148.297352,3.2970309 L150.523315,5.36185171 C153.876023,16.6936159 163.0349,15.7427739 163.0349,15.7427739 C163.0349,15.7427739 163.046082,23.7450844 163.195311,29.7828667 C166.957,32.5794355 171.292383,29.5805599 172.677159,28.4622767 C172.52664,24.968395 173.511896,19.6511693 173.511896,19.6511693 C176.225972,22.1503041 177.93587,30.4358442 177.93587,30.4358442 L177.881683,32.8945176 C177.881683,32.8945176 178.443764,32.6203274 179.253988,32.9577923 C179.58255,33.0951027 179.086266,34.1712028 179.249257,34.3067914 C179.411818,34.44238 179.836712,33.9030386 179.917132,33.0976853 C180.065931,31.6100846 179.808328,24.2202902 179.130132,22.0414028 C178.473008,19.9313858 177.175963,17.3418586 174.597354,14.3537439" id="Fill-138" fill="#FEBA40"></path>
                    <path d="M151.282835,1.47708741 C150.876003,1.63979375 151.282835,3.29741829 151.282835,3.29741829 L148.297395,3.29741829 L150.522928,5.36180867 L152.802649,4.76435791 C152.775985,3.54147779 151.690097,1.31395064 151.282835,1.47708741" id="Fill-140" fill="#F8D498"></path>
                    <path d="M167.383012,3.04061777 L165.394439,5.2905278 L166.162087,5.67318898 C166.162087,5.67318898 165.761276,6.570226 165.420672,7.44789322 C165.079639,8.32556043 166.958118,8.32469955 167.031228,8.78828346 C167.104337,9.25143693 166.831252,10.2892278 166.831252,11.1182553 C167.266038,11.5973351 169.413731,11.2641745 169.413731,11.2641745 L170.217504,8.21665911 C170.217504,8.21665911 172.38541,6.24180026 172.604738,4.82780477 C172.823636,3.41337884 170.144394,2.41389709 169.535437,2.02391843 C168.926479,1.63350932 168.975075,0.292688634 168.390201,0.170874106 C167.805326,0.0490595786 167.163684,1.675262 167.383012,3.04061777" id="Fill-142" fill="#F8D498"></path>
                    <path d="M170.313148,8.12708454 L169.634951,7.9428562 C169.634951,7.9428562 167.208582,8.56914645 165.709841,8.10427121 C166.178171,8.38104415 166.983664,8.48736284 167.03097,8.78824042 C167.104079,9.25139389 166.830994,10.2891848 166.830994,11.1182123 C167.265779,11.5977225 169.413473,11.2645619 169.413473,11.2645619 L170.217246,8.21661606 C170.217246,8.21661606 170.25208,8.1847635 170.313148,8.12708454" id="Fill-144" fill="#F8D498"></path>
                    <path d="M172.604566,4.82771868 C172.823894,3.41329275 170.144222,2.413811 169.535265,2.02383234 C168.926307,1.63385367 168.975333,0.292602546 168.390029,0.170788018 C167.805584,0.0489734906 166.714535,1.26324481 167.38284,3.04053168 C167.38284,3.04053168 168.657523,3.97028214 170.59879,4.53501946 L169.852215,6.58305311 C169.852215,6.58305311 170.809947,6.29035389 170.761351,6.81075589 C170.712755,7.33072744 169.835873,8.14339821 169.49484,7.89976916 C169.49484,7.89976916 168.993826,8.51572884 169.994563,9.06195723 L170.217332,8.21700346 C170.217332,8.21700346 172.385238,6.24171417 172.604566,4.82771868" id="Fill-146" fill="#020080"></path>
                    <path d="M171.771722,16.4216639 C171.771722,16.4216639 169.87303,23.3848922 172.938891,23.5605117 C173.187032,21.405729 173.511724,19.650825 173.511724,19.650825 C172.681718,18.6754479 171.735167,17.2369173 171.771722,16.4216639" id="Fill-148" fill="#FEBA40"></path>
                    <polygon id="Fill-150" fill="#1C75BB" points="167.909228 53.3398594 170.010475 53.3398594 168.40336 36.9194332"></polygon>
                    <path d="M179.249386,34.3067914 C179.411947,34.44238 179.836411,33.9034691 179.917261,33.0976853 C179.961987,32.6474451 179.969728,31.6531286 179.939624,30.4280963 L177.925677,30.3876349 C177.931698,30.416044 177.935569,30.4358442 177.935569,30.4358442 L177.881382,32.8945176 C177.881382,32.8945176 178.443893,32.6203274 179.254117,32.9577923 C179.582248,33.0951027 179.086395,34.1712028 179.249386,34.3067914" id="Fill-152" fill="#F8D498"></path>
                    <path d="M170.451325,91.0756758 L168.586607,91.0756758 L161.151389,91.0756758 L161.772388,83.8524616 L169.207606,83.8524616 L171.072324,83.8524616 L170.451325,91.0756758 Z M171.763422,75.8174376 L171.141993,83.0406518 L169.277705,83.0406518 L161.842057,83.0406518 L162.463486,75.8174376 L169.898274,75.8174376 L171.763422,75.8174376 Z M163.154154,67.7828441 L170.589372,67.7828441 L172.45409,67.7828441 L171.833091,75.0056278 L169.968373,75.0056278 L162.533155,75.0056278 L163.154154,67.7828441 Z M171.28047,59.7478201 L173.145188,59.7478201 L172.523759,66.9710342 L170.659041,66.9710342 L163.223823,66.9710342 L163.845252,59.7478201 L171.28047,59.7478201 Z M173.309899,57.8259054 L173.214857,58.9360102 L171.350139,58.9360102 L163.914921,58.9360102 L164.009963,57.8259054 L162.934826,57.8259054 L159.427299,98.6204286 L160.502436,98.6204286 L161.08172,91.8874856 L168.516938,91.8874856 L170.381656,91.8874856 L169.802372,98.6204286 L170.877509,98.6204286 L174.385036,57.8259054 L173.309899,57.8259054 Z" id="Fill-154" fill="#C26836"></path>
                    <polygon id="Fill-156" fill="#FF8847" points="161.464942 57.8259484 180.59335 57.8259484 180.59335 57.2814418 161.464942 57.2814418"></polygon>
                    <polygon id="Fill-159" fill="#FF8847" points="178.301115 59.7207885 168.517368 59.7207885 168.447699 58.9089786 178.231446 58.9089786"></polygon>
                    <polygon id="Fill-161" fill="#FF8847" points="178.991955 67.7558125 169.208208 67.7558125 169.138539 66.9440026 178.922286 66.9440026"></polygon>
                    <polygon id="Fill-163" fill="#FF8847" points="179.682838 75.790406 169.899091 75.790406 169.829422 74.9785961 179.613169 74.9785961"></polygon>
                    <polygon id="Fill-165" fill="#FF8847" points="180.373678 83.82543 170.589931 83.82543 170.520262 83.0136201 180.304009 83.0136201"></polygon>
                    <polygon id="Fill-167" fill="#FF8847" points="181.064518 91.860454 171.280771 91.860454 171.211102 91.0486441 180.99485 91.0486441"></polygon>
                    <polygon id="Fill-169" fill="#FF8847" points="172.12871 98.5936552 171.053573 98.5936552 167.546046 57.799132 168.621183 57.799132"></polygon>
                    <polygon id="Fill-170" fill="#FF8847" points="182.503783 98.5936552 181.428646 98.5936552 177.921119 57.799132 178.996256 57.799132"></polygon>
                    <polygon id="Fill-172" fill="#485EB0" points="6.43792065 90.4442633 40.7064089 90.4442633 40.7064089 77.5573193 6.43792065 77.5573193"></polygon>
                    <path d="M6.43792065,77.5571471 C2.8822274,77.5571471 0,80.4419562 0,84.0008343 C0,87.559282 2.8822274,90.4440911 6.43792065,90.4440911 L6.43792065,77.5571471 Z" id="Fill-173" fill="#6989FF"></path>
                    <path d="M6.43792065,77.5571471 C2.8822274,77.5571471 0,80.4419562 0,84.0008343 C0,87.559282 2.8822274,90.4440911 6.43792065,90.4440911 L6.43792065,77.5571471 Z" id="Fill-174" fill="#1C75BB"></path>
                    <path d="M40.7062369,77.5571471 C37.1505436,77.5571471 34.2683162,80.4419562 34.2683162,84.0008343 C34.2683162,87.559282 37.1505436,90.4440911 40.7062369,90.4440911 L40.7062369,77.5571471 Z" id="Fill-175" fill="#084E75"></path>
                    <polygon id="Fill-176" fill="#6989FF" points="39.9175163 77.5571471 7.22646916 77.5571471 6.43774862 77.5571471 6.43774862 78.3465741 6.43774862 90.4440911 7.22646916 90.4440911 7.22646916 78.3465741 39.9175163 78.3465741 39.9175163 90.4440911 40.7062369 90.4440911 40.7062369 78.3465741 40.7062369 77.5571471"></polygon>
                    <polygon id="Fill-177" fill="#000000" points="6.43792065 90.4442633 40.7064089 90.4442633 40.7064089 89.0965556 6.43792065 89.0965556"></polygon>
                    <polygon id="Fill-178" fill="#FFFFFF" points="45.0912048 93.9063355 32.0192585 96.1076058 29.8522123 83.2185096 42.9241586 81.0172393"></polygon>
                    <polygon id="Fill-179" fill="#FFE0CF" points="42.3640982 81.7951305 44.3075159 93.3545974 32.5825013 95.3290258 30.6390836 83.7695589"></polygon>
                    <path d="M43.3522781,87.6729182 C39.5316711,88.3663571 34.0213787,90.9799889 32.0181834,91.9725836 L32.5824153,95.329155 L44.3074299,93.3547266 L43.3522781,87.6729182 Z" id="Fill-180" fill="#FFCEB3"></path>
                    <path d="M42.6708993,84.2521252 L44.2040447,93.3718581 L38.7629911,94.2882649 C39.2489531,93.6077392 40.9966959,93.2840483 40.0346632,92.8105643 C38.9947907,92.2992015 37.7437612,93.0180364 38.3436877,91.9858412 C38.9461945,90.9532156 39.9065069,89.1526849 39.3783996,89.1754983 C38.8507223,89.1974507 37.6599005,89.7518574 38.181127,88.6451961 C38.7040736,87.5355217 40.0419742,85.7380042 39.3005597,85.8176356 C38.5612954,85.8964061 37.4465933,86.6483848 38.0779138,85.5176189 C38.706654,84.3877138 38.950065,83.1949645 38.4679735,83.3641274 C38.2469254,83.4407458 38.4365795,82.9565007 38.7092343,82.4107028 L40.5158946,82.1063817 L40.9472396,82.5368217 L42.6708993,84.2521252 Z" id="Fill-181" fill="#FFB58C"></path>
                    <path d="M42.3640982,81.7951305 L44.3075159,93.3545974 L40.9057823,93.9275131 C40.7449418,93.5104167 42.8913454,92.2840931 42.7180333,91.6483332 C42.5447212,91.0121428 40.7359106,92.3813725 40.5853914,92.0073202 C40.4348723,91.6332678 42.4062436,89.3967014 42.3172222,88.347719 C42.2312112,87.2978758 41.2558469,88.8801733 40.4120794,88.3356667 C39.5653014,87.7894383 41.539253,86.2170409 41.6373055,85.0914402 C41.7375083,83.9649787 40.7367707,84.7320228 40.2121039,84.379062 C39.9510606,84.2021511 40.4137996,83.3498799 40.9470676,82.5367787 C41.0739337,82.3422198 41.2063906,82.1493826 41.3302464,81.9690283 L42.3640982,81.7951305 Z" id="Fill-182" fill="#FF8847"></path>
                    <polygon id="Fill-183" fill="#FFFFFF" points="37.788874 93.9063355 24.7169277 96.1076058 22.5498814 83.2185096 35.6222578 81.0172393"></polygon>
                    <polygon id="Fill-184" fill="#FFB58C" points="35.0609502 81.7951305 37.004368 93.3545974 25.2793534 95.3290258 23.3359356 83.7699893"></polygon>
                    <path d="M34.1605015,87.8902474 C34.3553163,89.0489919 33.5743367,90.1470444 32.4161991,90.3420338 C31.2580615,90.5370231 30.1614217,89.7557745 29.9666069,88.5965995 C29.771792,87.436994 30.5523415,86.339372 31.7109092,86.1443826 C32.8690468,85.9493933 33.9656866,86.7310724 34.1605015,87.8902474" id="Fill-185" fill="#FFD7C2"></path>
                    <path d="M35.9678498,87.1895341 L37.004282,93.3547266 L25.2792674,95.329155 L24.4329195,90.2947284 C25.7346954,90.7966215 26.9452997,91.0393897 28.8986087,90.5641839 C31.9623193,89.8143573 33.1703432,87.5145163 35.3502911,87.2485043 C35.561448,87.2231084 35.7678744,87.2015864 35.9678498,87.1895341" id="Fill-186" fill="#FF8847"></path>
                    <polygon id="Fill-187" fill="#485EB0" points="26.8462151 84.9335118 26.4161603 85.2589244 25.9026748 85.0923441 25.5203561 85.7022777 25.9246076 85.3415689 26.4832488 85.6596641 26.9072829 85.1758495 27.4074366 85.3846129"></polygon>
                    <polygon id="Fill-188" fill="#485EB0" points="28.367577 85.9242556 27.9370922 86.2492378 27.4240368 86.083088 27.041288 86.692591 27.4459696 86.3318823 28.0046108 86.6504079 28.4282148 86.1665933 28.9283685 86.3749263"></polygon>
                    <polygon id="Fill-189" fill="#FFFFFF" points="30.2713437 93.9063355 17.1993974 96.1076058 15.0323512 83.2185096 28.1042975 81.0172393"></polygon>
                    <polygon id="Fill-190" fill="#C7D3FF" points="27.5441941 81.7951305 29.4876118 93.3545974 17.7625972 95.3290258 15.8191795 83.7695589"></polygon>
                    <path d="M28.532202,87.6729182 C24.711595,88.3663571 19.2013026,90.9799889 17.1981073,91.9725836 L17.7627692,95.329155 L29.4873538,93.3547266 L28.532202,87.6729182 Z" id="Fill-191" fill="#A6B9FF"></path>
                    <path d="M27.8509952,84.2521252 L29.3837106,93.3718581 L23.943087,94.2882649 C24.429049,93.6077392 26.1767918,93.2840483 25.2147591,92.8105643 C24.1744565,92.2992015 22.9238571,93.0180364 23.5237836,91.9858412 C24.1262904,90.9532156 25.0861728,89.1526849 24.5584955,89.1754983 C24.0308182,89.1974507 22.8399964,89.7518574 23.3612229,88.6451961 C23.8841695,87.5355217 25.2220701,85.7380042 24.4806556,85.8176356 C23.7413913,85.8964061 22.6266892,86.6483848 23.2580097,85.5176189 C23.8867499,84.3877138 24.1301609,83.1949645 23.6480694,83.3641274 C23.4270213,83.4407458 23.6166754,82.9565007 23.8893302,82.4107028 L25.6959905,82.1063817 L26.1273355,82.5368217 L27.8509952,84.2521252 Z" id="Fill-192" fill="#6989FF"></path>
                    <path d="M27.5441941,81.7951305 L29.4876118,93.3545974 L26.0854481,93.9275131 C25.9250377,93.5104167 28.0714413,92.2840931 27.8981292,91.6483332 C27.7248171,91.0121428 25.9160065,92.3813725 25.7654873,92.0073202 C25.6149682,91.6332678 27.5859094,89.3967014 27.4973181,88.347719 C27.4113071,87.2978758 26.4359428,88.8801733 25.5921753,88.3356667 C24.7453973,87.7894383 26.7193489,86.2170409 26.8174014,85.0914402 C26.9176042,83.9649787 25.9168666,84.7320228 25.3921998,84.379062 C25.1311565,84.2021511 25.5938955,83.3498799 26.1271634,82.5367787 C26.2540296,82.3422198 26.3864865,82.1493826 26.5103423,81.9690283 L27.5441941,81.7951305 Z" id="Fill-193" fill="#485EB0"></path>
                    <polygon id="Fill-194" fill="#FFFFFF" points="22.9690129 93.9063355 9.89706659 96.1076058 7.73002035 83.2185096 20.8019666 81.0172393"></polygon>
                    <polygon id="Fill-195" fill="#C7D3FF" points="20.2410461 81.7951305 22.1844639 93.3545974 10.4594493 95.3290258 8.51603154 83.7699893"></polygon>
                    <path d="M19.3405974,87.8902474 C19.5354122,89.0489919 18.7544326,90.1470444 17.596295,90.3420338 C16.4381574,90.5370231 15.3415176,89.7557745 15.1467028,88.5965995 C14.9514579,87.436994 15.7324374,86.339372 16.8905751,86.1443826 C18.0491427,85.9493933 19.1457825,86.7310724 19.3405974,87.8902474" id="Fill-196" fill="#FF9100"></path>
                    <path d="M21.1477737,87.1895341 L22.1842058,93.3547266 L10.4591912,95.329155 L9.61284336,90.2947284 C10.9146193,90.7966215 12.1252236,91.0393897 14.0785326,90.5641839 C17.1422431,89.8143573 18.3502671,87.5145163 20.530215,87.2485043 C20.7413719,87.2231084 20.9477982,87.2015864 21.1477737,87.1895341" id="Fill-197" fill="#6989FF"></path>
                    <polygon id="Fill-198" fill="#485EB0" points="12.026311 84.9335118 11.5958261 85.2589244 11.0827707 85.0923441 10.700452 85.7022777 11.1047035 85.3415689 11.6633447 85.6596641 12.0869487 85.1758495 12.5871025 85.3846129"></polygon>
                    <polygon id="Fill-199" fill="#485EB0" points="13.5476729 85.9242556 13.1171881 86.2492378 12.6041327 86.083088 12.2218139 86.692591 12.6260655 86.3318823 13.1847067 86.6504079 13.6083107 86.1665933 14.1084644 86.3749263"></polygon>
                    <polygon id="Fill-200" fill="#084E75" points="45.1821184 94.7655368 9.61271434 94.7655368 8.73798284 89.0966416 44.3073869 89.0966416"></polygon>
                    <polygon id="Fill-201" fill="#6989FF" points="6.43792065 103.721616 47.4647204 103.721616 47.4647204 90.4442633 6.43792065 90.4442633"></polygon>
                    <polygon id="Fill-202" fill="#1C75BB" points="6.43792065 103.721616 18.1779872 103.721616 18.1779872 90.4442633 6.43792065 90.4442633"></polygon>
                    <path d="M29.4739791,90.4443063 L29.4739791,90.8515026 C29.4739791,91.6800996 30.1452946,92.352447 30.9731502,92.352447 L34.3206969,92.352447 C35.1485524,92.352447 35.819868,91.6800996 35.819868,90.8515026 L35.819868,90.4443063 L29.4739791,90.4443063 Z" id="Fill-203" fill="#084E75"></path>
                    <path d="M44.8629317,95.8138735 L21.3191506,95.8138735 C21.1088538,95.8138735 20.9385521,95.6434192 20.9385521,95.4325036 C20.9385521,95.2220185 21.1088538,95.0515642 21.3191506,95.0515642 L44.8629317,95.0515642 C45.0732285,95.0515642 45.2439603,95.2220185 45.2439603,95.4325036 C45.2439603,95.6434192 45.0732285,95.8138735 44.8629317,95.8138735" id="Fill-204" fill="#084E75"></path>
                    <path d="M44.8629317,97.9576801 L21.3191506,97.9576801 C21.1088538,97.9576801 20.9385521,97.7872258 20.9385521,97.5763102 C20.9385521,97.365825 21.1088538,97.1953708 21.3191506,97.1953708 L44.8629317,97.1953708 C45.0732285,97.1953708 45.2439603,97.365825 45.2439603,97.5763102 C45.2439603,97.7872258 45.0732285,97.9576801 44.8629317,97.9576801" id="Fill-205" fill="#084E75"></path>
                    <path d="M44.8629317,100.101056 L21.3191506,100.101056 C21.1088538,100.101056 20.9385521,99.9306019 20.9385521,99.7201167 C20.9385521,99.5096316 21.1088538,99.3387469 21.3191506,99.3387469 L44.8629317,99.3387469 C45.0732285,99.3387469 45.2439603,99.5096316 45.2439603,99.7201167 C45.2439603,99.9306019 45.0732285,100.101056 44.8629317,100.101056" id="Fill-206" fill="#084E75"></path>
                    <polygon id="Fill-207" fill="#5957D0" points="200.878993 100.550823 189.32471 100.550823 188.514917 85.7712342 201.688786 85.7712342"></polygon>
                    <line x1="189.899565" y1="87.7452321" x2="201.545019" y2="87.7452321" id="Stroke-208" stroke="#414099"></line>
                    <path d="M188.891215,87.7452321 C188.891215,87.7452321 192.492924,98.2910128 200.610209,98.2910128 C205.179541,98.2910128 201.524505,88.7675272 201.524505,88.7675272" id="Stroke-209" stroke="#6E8DFF"></path>
                </g>
            </g>
        </g>
    </g>
</svg>