<?xml version="1.0" encoding="UTF-8"?>
<svg width="192px" height="121px" viewBox="0 0 192 121" version="1.1" xmlns="http://www.w3.org/2000/svg" xmlns:xlink="http://www.w3.org/1999/xlink">
    <!-- Generator: Sketch 59.1 (86144) - https://sketch.com -->
    <title>Deployment &amp; Integration Support</title>
    <desc>Created with Sketch.</desc>
    <defs>
        <path d="M31.312,35.406 L2.381,14.93 C0.055,13.282 -0.496,10.061 1.15,7.735 L4.892,2.448 C6.539,0.121 9.76,-0.429 12.087,1.218 L41.018,21.695 C43.345,23.342 43.896,26.563 42.249,28.89 L38.508,34.176" id="path-1"></path>
        <linearGradient x1="6.55760625%" y1="24.1926627%" x2="93.4418313%" y2="75.807296%" id="linearGradient-3">
            <stop stop-color="#343D4F" offset="0%"></stop>
            <stop stop-color="#212A3F" offset="100%"></stop>
        </linearGradient>
    </defs>
    <g id="Services-Page" stroke="none" stroke-width="1" fill="none" fill-rule="evenodd">
        <g id="Services-Page-Support" transform="translate(-978.000000, -932.000000)">
            <g id="Deployment-&amp;-Integration-Support" transform="translate(978.000000, 932.000000)">
                <polygon id="Fill-1" fill="#979797" points="87.166 110.542 106.849 110.542 106.849 87.446 87.166 87.446"></polygon>
                <g id="Group-157">
                    <path d="M118.3614,116.5732 L75.6534,116.5732 C75.6534,113.2512 78.3464,110.5572 81.6684,110.5572 L112.3464,110.5572 C115.6684,110.5572 118.3614,113.2512 118.3614,116.5732" id="Fill-2" fill="#979797"></path>
                    <path d="M162.215,2.5331 L162.215,86.1601 C162.215,87.5581 161.081,88.6921 159.682,88.6921 L32.735,88.6921 C31.335,88.6921 30.201,87.5581 30.201,86.1601 L30.201,2.5331 C30.201,1.1341 31.335,0.0001 32.735,0.0001 L159.682,0.0001 C161.081,0.0001 162.215,1.1341 162.215,2.5331" id="Fill-4" fill="#979797"></path>
                    <path d="M158.714,6.1171 L158.714,82.5761 C158.714,83.9981 157.563,85.1481 156.142,85.1481 L36.272,85.1481 C35.958,85.1481 35.659,85.0931 35.38,84.9851 C34.401,84.6271 33.704,83.6821 33.704,82.5761 L33.704,6.1171 C33.704,4.6951 34.855,3.5441 36.272,3.5441 L156.142,3.5441 C156.484,3.5441 156.815,3.6121 157.113,3.7351 C158.053,4.1171 158.714,5.0421 158.714,6.1171" id="Fill-6" fill="#FFF9FF"></path>
                    <path d="M158.7145,6.1156 L158.7145,9.9216 L33.7025,9.9216 L33.7025,6.1156 C33.7025,4.6956 34.8535,3.5446 36.2735,3.5446 L156.1435,3.5446 C157.5635,3.5446 158.7145,4.6956 158.7145,6.1156" id="Fill-8" fill="#DEDEDE"></path>
                    <path d="M50.649,6.7826 L50.649,6.7826 C50.649,7.2486 51.027,7.6266 51.493,7.6266 L135.929,7.6266 C136.395,7.6266 136.773,7.2486 136.773,6.7826 C136.773,6.3176 136.395,5.9396 135.929,5.9396 L51.493,5.9396 C51.027,5.9396 50.649,6.3176 50.649,6.7826" id="Fill-10" fill="#FFF9FF"></path>
                    <path d="M41.0216,6.7826 L41.0216,7.4076 C41.0216,7.5866 40.8276,7.6996 40.6726,7.6096 L40.1316,7.2966 L39.5906,6.9846 C39.4356,6.8946 39.4356,6.6706 39.5906,6.5806 L40.1316,6.2686 L40.6726,5.9566 C40.8276,5.8666 41.0216,5.9786 41.0216,6.1576 L41.0216,6.7826 Z" id="Fill-12" fill="#2A3554"></path>
                    <path d="M43.8375,6.7826 L43.8375,7.4076 C43.8375,7.5866 44.0315,7.6996 44.1875,7.6096 L44.7285,7.2966 L45.2695,6.9846 C45.4245,6.8946 45.4245,6.6706 45.2695,6.5806 L44.7285,6.2686 L44.1875,5.9566 C44.0315,5.8666 43.8375,5.9786 43.8375,6.1576 L43.8375,6.7826 Z" id="Fill-14" fill="#2A3554"></path>
                    <path d="M148.9064,6.7333 C148.9064,7.4223 148.3464,7.9823 147.6574,7.9823 C146.9674,7.9823 146.4084,7.4223 146.4084,6.7333 C146.4084,6.0433 146.9674,5.4843 147.6574,5.4843 C148.3464,5.4843 148.9064,6.0433 148.9064,6.7333" id="Fill-16" fill="#2BD184"></path>
                    <path d="M144.2853,6.7333 C144.2853,7.4223 143.7263,7.9823 143.0363,7.9823 C142.3473,7.9823 141.7873,7.4223 141.7873,6.7333 C141.7873,6.0433 142.3473,5.4843 143.0363,5.4843 C143.7263,5.4843 144.2853,6.0433 144.2853,6.7333" id="Fill-18" fill="#005DB1"></path>
                    <path d="M153.527,6.7333 C153.527,7.4223 152.968,7.9823 152.278,7.9823 C151.589,7.9823 151.029,7.4223 151.029,6.7333 C151.029,6.0433 151.589,5.4843 152.278,5.4843 C152.968,5.4843 153.527,6.0433 153.527,6.7333" id="Fill-20" fill="#FF5767"></path>
                    <path d="M146.6988,60.4901 L123.2018,60.4901 C122.6098,60.4901 122.1288,59.9561 122.1288,59.2981 C122.1288,58.6401 122.6098,58.1061 123.2018,58.1061 L146.6988,58.1061 C147.2918,58.1061 147.7718,58.6401 147.7718,59.2981 C147.7718,59.9561 147.2918,60.4901 146.6988,60.4901" id="Fill-22" fill="#D4E1F7"></path>
                    <polygon id="Fill-24" fill-opacity="0.79916958" fill="#002D51" points="33.541 85.348 158.841 85.348 158.841 10.148 33.541 10.148"></polygon>
                    <polygon id="Fill-26" fill="#E0E0E0" points="40.791 17.814 54.918 17.814 54.918 16.354 40.791 16.354"></polygon>
                    <polygon id="Fill-27" fill="#E0E0E0" points="58.872 28.809 69.072 28.809 69.072 27.349 58.872 27.349"></polygon>
                    <polygon id="Fill-28" fill="#1487E3" points="70.662 28.809 77.43 28.809 77.43 27.349 70.662 27.349"></polygon>
                    <polygon id="Fill-29" fill="#1487E3" points="84.491 72.952 91.259 72.952 91.259 71.492 84.491 71.492"></polygon>
                    <polygon id="Fill-30" fill="#1487E3" points="40.951 56.459 47.72 56.459 47.72 54.999 40.951 54.999"></polygon>
                    <polygon id="Fill-31" fill="#E0E0E0" points="78.768 28.809 95.11 28.809 95.11 27.349 78.768 27.349"></polygon>
                    <polygon id="Fill-32" fill="#E0E0E0" points="40.952 50.922 51.453 50.922 51.453 49.462 40.952 49.462"></polygon>
                    <polygon id="Fill-33" fill="#E0E0E0" points="69.168 61.957 79.67 61.957 79.67 60.497 69.168 60.497"></polygon>
                    <polygon id="Fill-34" fill="#E0E0E0" points="108.395 72.952 118.896 72.952 118.896 71.492 108.395 71.492"></polygon>
                    <polygon id="Fill-35" fill="#E0E0E0" points="55.59 61.957 62.001 61.957 62.001 60.497 55.59 60.497"></polygon>
                    <polygon id="Fill-36" fill="#1487E3" points="40.952 61.957 53.653 61.957 53.653 60.497 40.952 60.497"></polygon>
                    <polygon id="Fill-37" fill="#E0E0E0" points="40.952 67.455 47.957 67.455 47.957 65.995 40.952 65.995"></polygon>
                    <polygon id="Fill-38" fill="#78C2FF" points="57.667 17.814 67.696 17.814 67.696 16.354 57.667 16.354"></polygon>
                    <polygon id="Fill-39" fill="#1487E3" points="57.667 34.307 67.696 34.307 67.696 32.847 57.667 32.847"></polygon>
                    <polygon id="Fill-40" fill="#E0E0E0" points="52.653 39.805 56.938 39.805 56.938 38.345 52.653 38.345"></polygon>
                    <polygon id="Fill-41" fill="#78C2FF" points="48.368 45.384 57.993 45.384 57.993 43.923 48.368 43.923"></polygon>
                    <polygon id="Fill-42" fill="#1487E3" points="59.448 45.384 72.735 45.384 72.735 43.923 59.448 43.923"></polygon>
                    <polygon id="Fill-43" fill="#1487E3" points="101.527 67.455 114.814 67.455 114.814 65.995 101.527 65.995"></polygon>
                    <polygon id="Fill-44" fill="#1487E3" points="40.952 39.845 50.981 39.845 50.981 38.385 40.952 38.385"></polygon>
                    <polygon id="Fill-45" fill="#1487E3" points="40.952 45.384 46.903 45.384 46.903 43.923 40.952 43.923"></polygon>
                    <polygon id="Fill-46" fill="#FF8761" points="58.958 39.845 64.572 39.845 64.572 38.385 58.958 38.385"></polygon>
                    <polygon id="Fill-47" fill="#FF8761" points="41.119 72.952 46.734 72.952 46.734 71.492 41.119 71.492"></polygon>
                    <polygon id="Fill-48" fill="#78C2FF" points="40.912 28.809 50.941 28.809 50.941 27.349 40.912 27.349"></polygon>
                    <polygon id="Fill-49" fill="#78C2FF" points="49.781 56.459 59.81 56.459 59.81 54.999 49.781 54.999"></polygon>
                    <polygon id="Fill-50" fill="#78C2FF" points="49.904 67.455 59.934 67.455 59.934 65.995 49.904 65.995"></polygon>
                    <polygon id="Fill-51" fill="#78C2FF" points="67.721 67.455 77.75 67.455 77.75 65.995 67.721 65.995"></polygon>
                    <polygon id="Fill-52" fill="#78C2FF" points="40.912 34.307 55.208 34.307 55.208 32.847 40.912 32.847"></polygon>
                    <polygon id="Fill-53" fill="#78C2FF" points="107.905 17.814 117.934 17.814 117.934 16.354 107.905 16.354"></polygon>
                    <polygon id="Fill-54" fill="#78C2FF" points="72.178 72.952 82.207 72.952 82.207 71.492 72.178 71.492"></polygon>
                    <polygon id="Fill-55" fill="#78C2FF" points="121.055 17.814 127.768 17.814 127.768 16.354 121.055 16.354"></polygon>
                    <polygon id="Fill-56" fill="#1487E3" points="70.396 17.814 83.174 17.814 83.174 16.354 70.396 16.354"></polygon>
                    <polygon id="Fill-57" fill="#1487E3" points="121.054 72.952 133.832 72.952 133.832 71.492 121.054 71.492"></polygon>
                    <polygon id="Fill-58" fill="#1487E3" points="48.854 72.952 61.631 72.952 61.631 71.492 48.854 71.492"></polygon>
                    <polygon id="Fill-59" fill="#1487E3" points="120.182 23.311 132.959 23.311 132.959 21.851 120.182 21.851"></polygon>
                    <polygon id="Fill-60" fill="#1487E3" points="104.51 28.809 117.288 28.809 117.288 27.349 104.51 27.349"></polygon>
                    <polygon id="Fill-61" fill="#1487E3" points="93.408 72.952 106.185 72.952 106.185 71.492 93.408 71.492"></polygon>
                    <polygon id="Fill-62" fill="#1487E3" points="91.441 61.957 104.218 61.957 104.218 60.497 91.441 60.497"></polygon>
                    <polygon id="Fill-63" fill="#1487E3" points="87.875 34.307 100.652 34.307 100.652 32.847 87.875 32.847"></polygon>
                    <polygon id="Fill-64" fill="#FF8761" points="64.007 61.957 66.762 61.957 66.762 60.497 64.007 60.497"></polygon>
                    <polygon id="Fill-65" fill="#78C2FF" points="118.896 28.809 127.979 28.809 127.979 27.349 118.896 27.349"></polygon>
                    <polygon id="Fill-66" fill="#FF8761" points="92.624 17.814 105.401 17.814 105.401 16.354 92.624 16.354"></polygon>
                    <polygon id="Fill-67" fill="#FF8761" points="78.044 34.307 85.536 34.307 85.536 32.847 78.044 32.847"></polygon>
                    <polygon id="Fill-68" fill="#FF8761" points="72.178 56.541 79.67 56.541 79.67 55.081 72.178 55.081"></polygon>
                    <polygon id="Fill-69" fill="#E0E0E0" points="85.536 17.814 90.213 17.814 90.213 16.354 85.536 16.354"></polygon>
                    <polygon id="Fill-70" fill="#E0E0E0" points="70.396 34.307 75.073 34.307 75.073 32.847 70.396 32.847"></polygon>
                    <polygon id="Fill-71" fill="#1487E3" points="40.791 23.311 48.108 23.311 48.108 21.851 40.791 21.851"></polygon>
                    <polygon id="Fill-72" fill="#1487E3" points="60.314 50.962 66.091 50.962 66.091 49.502 60.314 49.502"></polygon>
                    <polygon id="Fill-73" fill="#1487E3" points="49.904 23.311 52.267 23.311 52.267 21.851 49.904 21.851"></polygon>
                    <polygon id="Fill-74" fill="#E0E0E0" points="98.407 23.311 117.934 23.311 117.934 21.851 98.407 21.851"></polygon>
                    <polygon id="Fill-75" fill="#E0E0E0" points="79.67 67.455 99.197 67.455 99.197 65.995 79.67 65.995"></polygon>
                    <polygon id="Fill-76" fill="#FF8761" points="54.003 23.311 56.414 23.311 56.414 21.851 54.003 21.851"></polygon>
                    <polygon id="Fill-77" fill="#1487E3" points="90.214 23.311 96.602 23.311 96.602 21.851 90.214 21.851"></polygon>
                    <polygon id="Fill-78" fill="#FF8761" points="96.601 28.809 102.991 28.809 102.991 27.349 96.601 27.349"></polygon>
                    <polygon id="Fill-79" fill="#FF8761" points="82.342 61.957 88.731 61.957 88.731 60.497 82.342 60.497"></polygon>
                    <polygon id="Fill-80" fill="#FF8761" points="63.75 72.952 70.139 72.952 70.139 71.492 63.75 71.492"></polygon>
                    <polygon id="Fill-81" fill="#1487E3" points="74.929 23.311 88.523 23.311 88.523 21.851 74.929 21.851"></polygon>
                    <polygon id="Fill-82" fill="#1487E3" points="106.557 61.957 120.151 61.957 120.151 60.497 106.557 60.497"></polygon>
                    <polygon id="Fill-83" fill="#1487E3" points="62.276 56.541 70.217 56.541 70.217 55.081 62.276 55.081"></polygon>
                    <polygon id="Fill-84" fill="#1487E3" points="61.765 67.455 65.736 67.455 65.736 65.995 61.765 65.995"></polygon>
                    <polygon id="Fill-85" fill="#78C2FF" points="68.322 23.311 73 23.311 73 21.851 68.322 21.851"></polygon>
                    <polygon id="Fill-86" fill="#FF8761" points="116.557 67.455 121.234 67.455 121.234 65.995 116.557 65.995"></polygon>
                    <polygon id="Fill-87" fill="#FF8761" points="52.58 28.809 57.257 28.809 57.257 27.349 52.58 27.349"></polygon>
                    <polygon id="Fill-88" fill="#FF8761" points="53.513 50.962 58.19 50.962 58.19 49.502 53.513 49.502"></polygon>
                    <polygon id="Fill-89" fill="#1487E3" points="58.391 23.311 66.539 23.311 66.539 21.851 58.391 21.851"></polygon>
                    <g id="Group-25" transform="translate(0.000000, 18.000000)">
                        <path d="M16.1700727,61.0167 C16.1690727,61.0167 16.1660727,61.0157 16.1640727,61.0167 C16.1900727,61.0287 16.1940727,61.0297 16.1700727,61.0167" id="Fill-90" fill="#323657"></path>
                        <polygon id="Fill-91" fill="#F9AF8B" points="21.4254727 95.2911 21.4254727 98.7041 23.9724727 98.7041 24.1764727 95.0811"></polygon>
                        <path d="M27.3755727,48.5655 C27.3755727,48.5655 27.2415727,50.8565 27.0395727,54.1975 C26.5765727,61.8315 25.7565727,74.9485 25.3625727,78.7655 C24.6635727,85.5275 24.6285727,95.7735 24.6285727,95.7735 L20.9085727,95.7735 C20.4935727,87.1765 19.7215727,60.2625 19.5095727,52.7775 C19.4745727,51.5355 19.4545727,50.8285 19.4545727,50.8285 L25.7175727,49.0405 L26.2095727,48.8995 L27.3755727,48.5655 Z" id="Fill-92" fill="#2A3554"></path>
                        <polygon id="Fill-93" fill="#4A5180" points="20.4976727 94.4307 20.6646727 96.1327 25.1266727 96.1327 25.2606727 94.4307"></polygon>
                        <path d="M22.1402727,98.3526 C22.1402727,98.3526 21.5792727,97.6176 21.1412727,97.6546 C20.7032727,97.6916 17.3512727,100.4186 16.1952727,100.6546 C15.0382727,100.8896 15.2732727,101.7406 15.4912727,102.1736 C15.7082727,102.6076 24.7332727,101.9046 24.7332727,101.9046 C24.7332727,101.9046 24.9512727,99.2126 24.6462727,98.3936 C24.3422727,97.5756 23.0482727,98.5376 22.1402727,98.3526" id="Fill-94" fill="#FF5767"></path>
                        <polygon id="Fill-95" fill="#F9AF8B" points="31.5709727 95.7042 31.6779727 98.5572 34.2839727 98.4172 34.3419727 95.3892"></polygon>
                        <path d="M32.8233727,97.7511 C32.8233727,97.7511 34.0373727,97.4841 34.3693727,97.5061 C34.7003727,97.5271 36.8133727,100.1121 37.5553727,100.2921 C38.9013727,100.6181 38.8083727,102.7371 37.9773727,102.8061 C35.5743727,103.0041 31.5313727,101.8131 31.5313727,101.8131 C31.5313727,101.8131 31.2763727,99.0751 31.4783727,98.2301 C31.6793727,97.3831 32.1443727,97.9721 32.8233727,97.7511" id="Fill-96" fill="#FF5767"></path>
                        <path d="M36.2076727,50.8731 C36.2076727,50.8731 36.1746727,52.0621 36.1176727,54.0671 C35.8666727,62.9181 35.1486727,87.6441 34.7526727,95.8181 L31.3806727,95.8181 C31.1666727,95.7691 30.8126727,85.0541 30.8556727,79.7711 C30.8836727,76.5491 29.6096727,62.5431 28.8466727,54.4471 C28.5196727,50.9891 28.2866727,48.6091 28.2866727,48.6091 L29.2636727,48.8891 L29.7626727,49.0321 L36.2076727,50.8731 Z" id="Fill-97" fill="#2A3554"></path>
                        <polygon id="Fill-98" fill="#4A5180" points="30.5748727 94.4747 30.7428727 96.1777 35.2038727 96.1777 35.3388727 94.4747"></polygon>
                        <path d="M33.3707727,26.4054 L36.3657727,36.5264 L36.4217727,36.7164 C36.4217727,36.7624 36.4237727,36.8104 36.4247727,36.8634 C36.5287727,39.3754 38.8377727,47.1564 38.6387727,48.4594 C38.4337727,49.7884 38.4087727,51.6504 38.8567727,52.5044 C39.2887727,53.3254 39.7247727,54.6804 40.0607727,53.9834 C40.3967727,53.2854 39.7047727,51.3504 40.0837727,51.2984 C40.4627727,51.2444 41.3397727,52.8934 41.0297727,54.7154 C40.7217727,56.5354 41.8157727,57.0234 41.7327727,56.1254 C41.6507727,55.2244 42.3717727,54.1324 42.3367727,52.7594 C42.3037727,51.4694 40.9097727,48.5754 40.9097727,48.5754 C40.9097727,48.5754 40.8487727,40.6934 40.0577727,36.9014 C39.2677727,33.1094 36.5447727,22.3994 36.5447727,22.3994 C34.8457727,22.0304 33.3707727,26.4054 33.3707727,26.4054" id="Fill-99" fill="#F9AF8B"></path>
                        <path d="M36.6163727,50.8966 C32.4103727,53.6426 23.8973727,53.5856 19.0443727,51.0556 C19.5083727,48.1686 20.7263727,40.7546 20.5953727,36.9126 C20.5803727,36.4916 20.5633727,36.0726 20.5413727,35.6576 C20.5233727,35.2966 20.5013727,34.9386 20.4793727,34.5846 C20.0603727,28.1906 18.9693727,22.9636 19.5053727,22.2886 C19.7393727,21.9926 20.1293727,21.6736 20.6113727,21.3466 C20.8003727,21.2176 21.0023727,21.0876 21.2153727,20.9576 C21.7193727,20.6496 22.2793727,20.3406 22.8413727,20.0396 C24.1743727,19.3276 25.5283727,18.6666 26.2073727,18.2146 C26.8803727,18.5086 27.4163727,18.6686 27.9933727,18.6656 C28.0093727,18.6656 28.0263727,18.6656 28.0433727,18.6636 C28.0583727,18.6656 28.0753727,18.6656 28.0913727,18.6656 C28.6693727,18.6686 29.2053727,18.5086 29.8793727,18.2146 C30.5083727,18.6336 31.6943727,19.2176 32.9043727,19.8546 C33.7923727,20.3236 34.6943727,20.8206 35.3963727,21.3026 C35.8563727,21.6176 36.2323727,21.9276 36.4613727,22.2176 C36.7273727,22.5526 36.6163727,24.0206 36.3883727,26.1956 C36.1633727,28.3356 35.8263727,31.1626 35.6233727,34.2686 C35.5673727,35.1306 35.5203727,36.0146 35.4903727,36.9126 C35.3593727,40.7546 36.1523727,48.0096 36.6163727,50.8966" id="Fill-100" fill="#005DB1"></path>
                        <path d="M33.4810727,43.1983 C33.5710727,43.1993 33.6440727,43.2723 33.6430727,43.3623 C33.6430727,43.4523 33.5700727,43.5243 33.4810727,43.5243 L33.4800727,43.5243" id="Fill-101" fill="#004386"></path>
                        <path d="M32.9034727,19.8551 C32.0844727,21.7241 30.1584727,24.2601 27.5394727,23.8071 C25.0024727,23.3681 23.7094727,21.4271 22.8404727,20.0391 C24.1744727,19.3271 25.5284727,18.6671 26.2074727,18.2151 C26.8804727,18.5081 27.4164727,18.6681 27.9934727,18.6661 C28.0084727,18.6661 28.0264727,18.6661 28.0434727,18.6641 C28.0584727,18.6661 28.0764727,18.6661 28.0914727,18.6661 C28.6694727,18.6681 29.2054727,18.5081 29.8794727,18.2151 C30.5084727,18.6331 31.6944727,19.2181 32.9034727,19.8551" id="Fill-102" fill="#F9AF8B"></path>
                        <path d="M28.0919727,18.731 L28.0919727,18.733 C28.0759727,18.733 28.0589727,18.733 28.0429727,18.732 C28.0589727,18.732 28.0759727,18.731 28.0919727,18.731" id="Fill-103" fill="#2A3554"></path>
                        <path d="M31.3887727,3.127 C31.3887727,3.36 31.3627727,3.588 31.3147727,3.806 C31.2247727,4.212 31.0567727,4.588 30.8267727,4.918 C30.2607727,5.726 29.3237727,6.255 28.2617727,6.255 C27.2697727,6.255 26.3867727,5.794 25.8127727,5.074 C25.5257727,4.713 25.3157727,4.287 25.2107727,3.82 C25.1597727,3.597 25.1337727,3.365 25.1337727,3.127 C25.1337727,1.4 26.5337727,5.68434189e-14 28.2617727,5.68434189e-14 C29.9887727,5.68434189e-14 31.3887727,1.4 31.3887727,3.127" id="Fill-104" fill="#2A3554"></path>
                        <path d="M31.3150727,3.8057 C31.2250727,4.2117 31.0570727,4.5877 30.8270727,4.9177 L30.6700727,5.0747 L25.8130727,5.0747 C25.5250727,4.7127 25.3160727,4.2867 25.2110727,3.8207 C25.7360727,3.5547 26.8060727,3.1267 28.2610727,3.1267 C29.6910727,3.1267 30.7680727,3.5397 31.3150727,3.8057" id="Fill-105" fill="#FF5767"></path>
                        <path d="M29.8931727,15.6573 L29.8931727,18.2153 C29.8931727,18.2153 29.1301727,19.5173 28.0991727,19.6063 C27.0681727,19.6963 26.1521727,18.4853 26.1521727,18.4853 L26.1521727,15.8373 L29.8931727,15.6573 Z" id="Fill-106" fill="#F9AF8B"></path>
                        <path d="M32.5899727,9.088 C32.5429727,10.082 32.4469727,11.325 32.2579727,12.319 C32.2109727,12.567 32.1569727,12.8 32.0979727,13.009 C31.5589727,14.894 30.2129727,18.127 26.4439727,16.78 C24.7779727,16.186 24.0069727,14.332 23.6629727,12.446 C23.4299727,11.165 23.3949727,9.871 23.4119727,8.946 C23.4299727,8.002 23.9449727,7.139 24.7669727,6.673 C26.9909727,5.412 29.3389727,5.882 30.8849727,6.477 C31.9579727,6.889 32.6449727,7.942 32.5899727,9.088" id="Fill-107" fill="#F9AF8B"></path>
                        <path d="M33.0787727,8.8902 C33.0397727,9.0012 32.9317727,9.0722 32.7867727,9.1142 C32.7967727,9.3822 32.7687727,9.7042 32.7427727,10.0132 C32.5927727,11.7692 32.1497727,12.0782 32.0497727,11.6442 C31.9837727,11.3552 31.9867727,9.7022 32.0187727,9.1612 C31.6717727,9.1392 31.3757727,9.0812 31.3757727,9.0812 L30.9687727,7.3762 L30.8257727,9.0602 C30.2147727,9.2722 28.7887727,8.9322 28.7887727,8.9322 L28.3107727,7.2522 L28.0147727,8.8682 C27.0987727,9.3152 25.9527727,9.0172 25.9527727,9.0172 L25.6897727,7.2742 L25.0817727,9.0172 C25.0817727,9.0172 24.5157727,9.2202 23.9897727,9.2982 C23.9877727,9.8432 23.9537727,11.3232 23.6807727,11.2382 C23.3907727,11.1472 23.2357727,9.9702 23.2737727,9.2682 C23.1717727,9.2202 23.1087727,9.1402 23.1047727,9.0172 C23.0927727,8.6092 23.0517727,7.3442 23.4077727,6.4892 C23.8927727,5.3272 24.4887727,4.6232 25.3787727,4.2152 C27.4687727,3.2552 30.4357727,3.6642 31.2897727,4.2312 C33.5857727,5.7562 33.0787727,8.8902 33.0787727,8.8902" id="Fill-108" fill="#2A3554"></path>
                        <path d="M20.4791727,34.5841 C20.0601727,28.1901 18.9691727,22.9641 19.5051727,22.2891 C19.7391727,21.9931 20.1291727,21.6731 20.6111727,21.3471 C21.1011727,23.6461 22.3401727,30.5681 20.4791727,34.5841" id="Fill-109" fill="#F9AF8B"></path>
                        <path d="M36.3882727,26.1954 C36.1632727,28.3364 35.8262727,31.1624 35.6232727,34.2684 C33.9742727,30.2624 34.9072727,23.6284 35.3962727,21.3024 C35.8562727,21.6174 36.2322727,21.9274 36.4612727,22.2174 C36.7272727,22.5524 36.6162727,24.0204 36.3882727,26.1954" id="Fill-110" fill="#F9AF8B"></path>
                        <path d="M21.3912727,29.0977 L19.5362727,35.0557 L17.5052727,40.7197 C17.1782727,41.9057 15.8702727,42.5157 14.7512727,42.0047 L14.6932727,41.9787 C12.7612727,41.0657 13.8262727,37.2767 13.8262727,37.2767 L14.1912727,37.2477 C14.3402727,36.8317 14.7412727,35.7737 15.2512727,34.4447 C15.3132727,34.2817 15.3772727,34.1127 15.4432727,33.9427 C15.5522727,33.6597 15.6642727,33.3687 15.7792727,33.0697 C15.9422727,32.6467 16.1102727,32.2097 16.2802727,31.7707 C17.5332727,28.5237 18.5702727,24.9987 18.5702727,24.9987 L19.4342727,22.4317 L21.3912727,29.0977 Z" id="Fill-111" fill="#F9AF8B"></path>
                        <path d="M15.9044727,38.5772 C15.9044727,38.5772 15.6384727,34.2612 14.7174727,33.3432 C13.7964727,32.4252 12.9554727,32.0752 12.0914727,32.1062 C11.2284727,32.1382 10.4164727,32.2442 10.4694727,32.5992 C10.4694727,32.5992 8.48547267,32.3002 7.59947267,32.8142 C6.71347267,33.3282 10.2224727,33.7782 11.2644727,33.8062 C12.3064727,33.8332 12.8574727,34.4152 12.8994727,35.0362 C12.9414727,35.6572 13.5424727,39.7702 13.5424727,39.7702 L15.9044727,38.5772 Z" id="Fill-112" fill="#F9AF8B"></path>
                        <path d="M16.9556727,32.879 L3.80467267,32.967 C3.31067267,32.971 2.90667267,32.572 2.90364286,32.078 L2.90364286,32.07 C2.89967267,31.575 3.29867267,31.172 3.79267267,31.168 L16.9436727,31.0799832 C17.4376727,31.077 17.8416727,31.476 17.8447025,31.97 L17.8447025,31.978 C17.8486727,32.473 17.4496727,32.876 16.9556727,32.879" id="Fill-113" fill="#5B5B5B"></path>
                        <path d="M2.91277267,32.9727 L0.0337726698,22.4737 C-0.12822733,21.8847 0.31277267,21.3017 0.92477267,21.2977 L7.10477267,21.2566757 C7.52177267,21.2537 7.88977267,21.5287 8.00477267,21.9297 L11.1717727,32.9177 L2.91277267,32.9727 Z" id="Fill-114" fill="#BCBCBC"></path>
                        <path d="M8.00547267,21.9293 L11.1454727,32.8273 L11.8514727,32.8223 L8.71147267,21.9243 C8.59547267,21.5233 8.22847267,21.2483 7.81147267,21.2512757 L7.10447267,21.2563 C7.52247267,21.2533 7.88947267,21.5283 8.00547267,21.9293" id="Fill-115" fill="#5B5B5B"></path>
                        <path d="M6.45427267,27.5763 C6.61927267,28.2683 6.19127267,28.8343 5.49727267,28.8393214 C4.80327267,28.8433 4.10727267,28.2853 3.94227267,27.5933 C3.77727267,26.9003 4.20527267,26.3353 4.89927267,26.3303 C5.59327267,26.3253 6.28927267,26.8843 6.45427267,27.5763" id="Fill-116" fill="#FFF9FF"></path>
                    </g>
                    <g id="Group-24" transform="translate(143.000000, 19.000000)">
                        <path d="M24.777,31.4763248 C23.274,35.6203248 20.239,39.4493248 20.239,39.4493248 C18.313,40.2243248 13.201,41.7613248 11.485,41.3173248 C11.658,40.1363248 11.598,39.3003248 11.485,37.8303248 C13.863,37.8793248 18.281,35.5023248 18.281,35.5023248 C21.941,27.4443248 23.5,21.0333248 23.5,21.0333248 C25.339,25.4863248 24.777,31.4763248 24.777,31.4763248" id="Fill-117" fill="#E22445"></path>
                        <g id="Group-23" transform="translate(19.703353, 0.000000)">
                            <path d="M7.18594686,96.3093248 C7.18594686,96.3093248 6.64394686,95.5253248 6.18994686,95.5413248 C5.73694686,95.5593248 2.15394686,98.2093248 0.95194686,98.3973248 C-0.25105314,98.5843248 -0.0490531404,99.4723248 0.15394686,99.9293248 C0.35694686,100.386325 9.68894686,100.090325 9.68894686,100.090325 C9.68894686,100.090325 10.0399469,97.3283248 9.76594686,96.4703248 C9.49094686,95.6123248 8.11294686,96.5413248 7.18594686,96.3093248" id="Fill-119" fill="#005DB1"></path>
                            <path d="M23.6199469,88.7497248 L25.7629469,91.2957248 C25.7629469,91.2957248 25.4679469,92.5057248 24.0479469,93.5077248 L21.4919469,90.5837248 L23.6199469,88.7497248 Z" id="Fill-120" fill="#F9AF8B"></path>
                            <path d="M24.3304469,92.6648248 C24.3304469,92.6648248 23.3884469,92.5178248 23.0884469,92.8568248 C22.7884469,93.1978248 22.2414469,97.6208248 21.5494469,98.6218248 C20.8564469,99.6228248 21.6384469,100.087825 22.1104469,100.255825 C22.5814469,100.423825 28.7954469,93.4558248 28.7954469,93.4558248 C28.7954469,93.4558248 27.0364469,91.2978248 26.2244469,90.9048248 C25.4134469,90.5138248 25.1384469,92.1528248 24.3304469,92.6648248" id="Fill-121" fill="#005DB1"></path>
                            <path d="M11.5775469,53.6199248 L13.2295469,71.4909248 C13.2295469,71.4909248 15.7025469,74.2609248 17.5615469,77.6469248 C19.1215469,80.4889248 23.9755469,88.8729248 23.9755469,88.8729248 L21.7865469,90.5659248 L6.68154686,75.9409248 L3.32354686,53.4449248 L11.5775469,53.6199248 Z" id="Fill-122" fill="#021019"></path>
                            <path d="M20.9730469,90.7986248 C21.1990469,91.3656248 21.6210469,91.7526248 22.1150469,92.0766248 L25.0350469,89.6106248 C24.7900469,89.0926248 24.4550469,88.6446248 24.0400469,88.2596248 L20.9730469,90.7986248 Z" id="Fill-123" fill="#2A3554"></path>
                            <path d="M22.7025469,54.3640248 C22.7025469,54.3640248 18.8235469,63.9010248 13.7815469,71.3390248 C13.7815469,71.3390248 13.0285469,78.5770248 11.7415469,82.4290248 C11.1775469,84.1170248 10.1425469,91.9360248 10.1425469,91.9360248 L6.26054686,91.9360248 L7.24754686,69.7120248 L11.2935469,53.6140248 L22.7025469,54.3640248 Z" id="Fill-124" fill="#021019"></path>
                            <path d="M5.90514686,91.8054248 C5.66214686,92.4694248 5.72914686,93.1294248 5.90514686,93.7894248 L10.3311469,93.9134248 C10.5191469,93.2774248 10.5751469,92.6314248 10.5141469,91.9784248 L5.90514686,91.8054248 Z" id="Fill-125" fill="#021019"></path>
                            <path d="M22.8328469,49.3240248 C22.8338469,49.4600248 22.8328469,49.5950248 22.8328469,49.7270248 C22.8298469,52.1480248 22.8178469,54.0250248 22.8058469,54.9460248 C20.4668469,55.5800248 18.1278469,55.9890248 15.7888469,56.1780248 C15.6818469,56.1860248 15.5778469,56.1940248 15.4708469,56.2030248 C15.4148469,56.2070248 15.3568469,56.2110248 15.3008469,56.2140248 C15.1748469,56.2220248 15.0488469,56.2300248 14.9238469,56.2360248 C14.7848469,56.2450248 14.6458469,56.2530248 14.5058469,56.2600248 C12.9138469,56.3330248 11.3218469,56.3040248 9.72984686,56.1740248 C9.40784686,56.1470248 9.08784686,56.1160248 8.76684686,56.0810248 C8.74584686,56.0790248 8.72584686,56.0770248 8.70484686,56.0750248 C8.62284686,56.0660248 8.54084686,56.0560248 8.45884686,56.0460248 C8.40884686,56.0400248 8.35884686,56.0340248 8.31084686,56.0280248 C6.45784686,55.8070248 4.60684686,55.4450248 2.75384686,54.9460248 C2.74984686,54.5280248 2.74684686,53.9080248 2.74684686,53.1260248 C2.74684686,52.9800248 2.74684686,52.8310248 2.74884686,52.6750248 L2.74884686,52.6740248 C2.74984686,51.5540248 2.75584686,50.1630248 2.76784686,48.5890248 C2.76884686,48.4540248 2.76984686,48.3190248 2.77084686,48.1810248 C2.77984686,47.1340248 2.79084686,46.0110248 2.80484686,44.8410248 C2.80684686,44.7050248 2.80784686,44.5690248 2.80984686,44.4330248 C2.82484686,43.2330248 2.84284686,41.9850248 2.86384686,40.7200248 C2.87684686,39.9470248 2.89084686,39.1670248 2.90684686,38.3860248 C2.92284686,37.5950248 2.93884686,36.8030248 2.95784686,36.0160248 C2.96184686,35.8450248 2.96584686,35.6740248 2.97184686,35.5020248 C3.15284686,28.0600248 3.46584686,21.2200248 3.98484686,20.4580248 C4.34484686,19.9290248 5.16884686,19.3090248 6.13884686,18.6830248 C6.25684686,18.6080248 6.37784686,18.5310248 6.49984686,18.4540248 C6.91384686,18.1970248 10.2858469,17.0510248 10.7138469,16.7990248 L14.2778469,16.5500248 C14.2998469,16.5630248 17.7078469,17.7120248 17.7288469,17.7240248 C17.8748469,17.8080248 18.0238469,17.8930248 18.1698469,17.9770248 C19.4328469,18.7050248 20.6778469,19.4720248 21.3948469,20.1330248 C21.4998469,20.2280248 21.5928469,20.3220248 21.6728469,20.4140248 C21.7358469,20.4870248 21.7928469,20.5570248 21.8388469,20.6270248 C21.8818469,20.6900248 21.9238469,20.7950248 21.9628469,20.9400248 C22.3948469,22.5070248 22.6208469,28.6640248 22.7328469,35.3640248 C22.7408469,35.8440248 22.7488469,36.3270248 22.7548469,36.8110248 C22.7578469,37.0230248 22.7608469,37.2360248 22.7638469,37.4500248 C22.7668469,37.5950248 22.7698469,37.7430248 22.7708469,37.8890248 C22.7708469,37.9640248 22.7718469,38.0360248 22.7728469,38.1100248 C22.7778469,38.4740248 22.7818469,38.8380248 22.7848469,39.2000248 C22.7878469,39.4680248 22.7908469,39.7340248 22.7938469,40.0020248 C22.8258469,43.3760248 22.8358469,46.6530248 22.8328469,49.3240248" id="Fill-126" fill="#FF5767"></path>
                            <path d="M22.7552469,36.8113248 C22.4022469,35.3543248 21.9592469,33.7343248 21.5202469,32.3383248 C21.5192469,32.3353248 21.5182469,32.3333248 21.5172469,32.3313248 C21.3812469,31.8993248 21.2462469,31.4903248 21.1132469,31.1143248 C21.1112469,31.1073248 21.1092469,31.1003248 21.1072469,31.0943248 C21.0662469,30.9763248 21.0242469,30.8613248 20.9832469,30.7493248 C20.9772469,30.7303248 20.9732469,30.7103248 20.9732469,30.6923248 L20.9732469,30.6913248 C20.9732469,30.6243248 21.0152469,30.5613248 21.0822469,30.5373248 C21.1682469,30.5053248 21.2642469,30.5493248 21.2952469,30.6363248 C21.7452469,31.8643248 22.2772469,33.6303248 22.7332469,35.3643248 C22.7412469,35.8433248 22.7482469,36.3273248 22.7552469,36.8113248" id="Fill-127" fill="#E22445"></path>
                            <path d="M7.89834686,6.89482478 C7.89834686,6.89482478 5.90534686,6.19882478 6.10434686,4.64882478 C6.27334686,3.33082478 7.73734686,4.18582478 7.60834686,3.15482478 C7.48034686,2.12382478 7.19334686,1.18682478 8.45334686,0.92882478 C9.55534686,0.70282478 9.57434686,1.50282478 11.0213469,0.34282478 C12.7303469,-1.02717522 14.0443469,2.14482478 15.5693469,2.24082478 C17.8203469,2.38082478 18.1043469,3.72782478 18.3253469,4.80682478 C18.5463469,5.88382478 17.4583469,7.14982478 17.4583469,7.14982478 L7.89834686,6.89482478 Z" id="Fill-128" fill="#2A3554"></path>
                            <path d="M14.5999469,14.2566248 L14.5999469,16.9646248 C14.5999469,16.9646248 13.7919469,18.3446248 12.6999469,18.4386248 C11.6089469,18.5336248 10.6399469,17.2506248 10.6399469,17.2506248 L10.6399469,14.4466248 L14.5999469,14.2566248 Z" id="Fill-129" fill="#F9AF8B"></path>
                            <path d="M17.4549469,7.30152478 C17.4059469,8.35452478 17.3059469,9.67052478 17.1039469,10.7215248 L17.1039469,10.7255248 C17.1039469,10.7285248 17.1029469,10.7315248 17.1019469,10.7355248 C17.1019469,10.7365248 17.1009469,10.7365248 17.1009469,10.7375248 C17.0519469,10.9935248 16.9959469,11.2355248 16.9349469,11.4525248 C16.8989469,11.5805248 16.8599469,11.7145248 16.8149469,11.8505248 C16.1729469,13.8645248 14.6859469,16.7795248 10.9479469,15.4455248 C9.37394686,14.8845248 8.55394686,13.2595248 8.13594686,11.4955248 C8.11194686,11.3905248 8.08894686,11.2865248 8.06794686,11.1865248 C8.05394686,11.1195248 8.04094686,11.0545248 8.02894686,10.9905248 L8.01094686,10.8975248 C8.00794686,10.8805248 8.00594686,10.8695248 8.00494686,10.8625248 C8.00394686,10.8585248 8.00394686,10.8565248 8.00394686,10.8565248 C7.75694686,9.50052478 7.71994686,8.12952478 7.73794686,7.15052478 C7.75694686,6.15152478 8.30294686,5.23752478 9.17294686,4.74452478 C11.5269469,3.40852478 14.0139469,3.90752478 15.6499469,4.53652478 C16.7869469,4.97252478 17.5139469,6.08752478 17.4549469,7.30152478" id="Fill-130" fill="#F9AF8B"></path>
                            <path d="M10.9588469,13.9685248 C10.7768469,13.8665248 10.5058469,13.6695248 10.2098469,13.3995248 C10.2098469,13.3995248 9.79084686,11.9625248 12.4588469,12.3225248 C15.1338469,11.8625248 14.6818469,13.2045248 14.6368469,13.4855248 L14.6368469,13.4865248 L14.6358469,13.4865248 C14.4558469,13.6595248 14.2708469,13.8045248 14.0868469,13.9035248 L10.9588469,13.9685248 Z M17.1048469,10.7215248 L16.5298469,10.6815248 C16.5298469,10.6815248 16.2028469,11.3605248 15.7188469,12.1085248 C15.2358469,11.0455248 12.9038469,11.8185248 12.9038469,11.8185248 C12.7568469,11.8655248 12.6048469,11.8895248 12.4528469,11.8895248 C12.3038469,11.8895248 12.1558469,11.8665248 12.0128469,11.8225248 L12.0008469,11.8185248 C12.0008469,11.8185248 9.64184686,11.0775248 9.17684686,12.1925248 C8.89184686,11.7565248 8.65884686,11.2655248 8.55384686,10.7455248 L8.00384686,10.8565248 C8.00384686,10.8565248 8.00384686,10.8585248 8.00484686,10.8625248 C8.00584686,10.8695248 8.00784686,10.8805248 8.01084686,10.8975248 L8.02884686,10.9905248 C8.04184686,11.0545248 8.05384686,11.1195248 8.06784686,11.1865248 C8.08884686,11.2865248 8.11184686,11.3905248 8.13584686,11.4955248 C8.55384686,13.2595248 9.37384686,14.8845248 10.9478469,15.4455248 C14.6858469,16.7795248 16.1728469,13.8645248 16.8148469,11.8505248 C16.9458469,11.3075248 17.0768469,10.8255248 17.1018469,10.7375248 C17.1018469,10.7365248 17.1028469,10.7365248 17.1028469,10.7355248 C17.1038469,10.7315248 17.1048469,10.7285248 17.1048469,10.7255248 C17.1048469,10.7225248 17.1048469,10.7215248 17.1048469,10.7215248 Z" id="Fill-131" fill="#2A3554"></path>
                            <path d="M17.4554469,7.30102478 C17.4054469,8.35402478 17.3054469,9.67002478 17.1044469,10.7220248 L16.5294469,10.6820248 C16.5294469,10.6820248 16.6684469,9.79302478 16.7324469,9.21402478 C16.7974469,8.63502478 16.9064469,7.55302478 16.4124469,7.41802478 C15.9194469,7.28402478 16.2084469,6.04902478 15.5224469,5.51402478 C14.8374469,4.97802478 13.3034469,4.83002478 12.2914469,5.45302478 C11.2804469,6.07402478 10.1414469,5.40602478 9.67544686,5.51402478 C9.20844686,5.62102478 8.57544686,6.26402478 8.74644686,6.86502478 C8.91844686,7.46502478 8.40444686,7.83002478 8.27944686,8.45102478 C8.15444686,9.07302478 8.55344686,10.7450248 8.55344686,10.7450248 L8.00444686,10.8560248 C7.75644686,9.50002478 7.71944686,8.13002478 7.73744686,7.15102478 C7.75644686,6.15102478 8.30244686,5.23802478 9.17244686,4.74502478 C11.5284469,3.40902478 14.0144469,3.90702478 15.6504469,4.53602478 C16.7864469,4.97202478 17.5134469,6.08802478 17.4554469,7.30102478" id="Fill-132" fill="#2A3554"></path>
                        </g>
                        <g id="Group-135" transform="translate(0.000000, 21.276225)">
                            <mask id="mask-2" fill="white">
                                <use xlink:href="#path-1"></use>
                            </mask>
                            <g id="Clip-134"></g>
                            <path d="M31.312,35.406 L2.381,14.93 C0.055,13.282 -0.496,10.061 1.15,7.735 L4.892,2.448 C6.539,0.121 9.76,-0.429 12.087,1.218 L41.018,21.695 C43.345,23.342 43.896,26.563 42.249,28.89 L38.508,34.176 C36.861,36.503 33.639,37.054 31.312,35.406" id="Fill-133" fill="url(#linearGradient-3)" mask="url(#mask-2)"></path>
                        </g>
                        <g id="Group-22" transform="translate(3.355400, 20.626225)">
                            <polygon id="Fill-136" fill="#E0E0E0" points="8.8449 9.8374 2.7959 5.5554 3.5379 4.5064 9.5869 8.7884"></polygon>
                            <polygon id="Fill-137" fill="#E0E0E0" points="14.3161 13.7095 10.0221 10.6705 10.7641 9.6215 15.0581 12.6605"></polygon>
                            <polygon id="Fill-138" fill="#E0E0E0" points="11.2355 17.4585 7.2255 14.6205 7.9685 13.5715 11.9785 16.4095"></polygon>
                            <polygon id="Fill-139" fill="#78C2FF" points="35.8273 28.9351 31.5333 25.8961 32.2753 24.8471 36.5693 27.8861"></polygon>
                            <polygon id="Fill-140" fill="#1487E3" points="20.9435 18.3999 15.4725 14.5279 16.2145 13.4789 21.6855 17.3509"></polygon>
                            <polygon id="Fill-141" fill="#FFC055" points="30.4611 25.1372 24.9901 21.2642 25.7321 20.2152 31.2031 24.0882"></polygon>
                            <polygon id="Fill-142" fill="#E0E0E0" points="23.9577 20.5337 21.9557 19.1167 22.6977 18.0677 24.7007 19.4847"></polygon>
                            <polygon id="Fill-143" fill="#78C2FF" points="3.133 11.7232 0 9.5062 0.742 8.4562 3.875 10.6742"></polygon>
                            <polygon id="Fill-144" fill="#1487E3" points="4.9133 12.9839 3.9023 12.2679 4.6443 11.2179 5.6563 11.9349"></polygon>
                            <polygon id="Fill-145" fill="#E0E0E0" points="33.0309 32.8853 24.6699 26.9673 25.4119 25.9183 33.7739 31.8363"></polygon>
                            <polygon id="Fill-146" fill="#FFC455" points="6.6891 14.2407 5.6571 13.5107 6.3991 12.4607 7.4321 13.1917"></polygon>
                            <polygon id="Fill-147" fill="#1487E3" points="23.8971 26.4204 21.1621 24.4844 21.9041 23.4354 24.6401 25.3714"></polygon>
                            <polygon id="Fill-148" fill="#78C2FF" points="20.4372 23.9712 14.6172 19.8522 15.3592 18.8032 21.1802 22.9222"></polygon>
                            <polygon id="Fill-149" fill="#E0E0E0" points="13.7907 19.2671 11.7887 17.8501 12.5307 16.8011 14.5337 18.2181"></polygon>
                            <path d="M2.0197,18.8189 C2.0197,18.8189 3.1657,17.7379 3.9047,17.7219 C4.6437,17.7059 3.3287,19.4079 3.3287,19.4079 C3.3287,19.4079 4.9317,17.3639 5.4927,17.6539 C6.0537,17.9429 4.5527,19.9729 4.5527,19.9729 C4.5527,19.9729 5.8507,18.7539 6.3027,18.9329 C6.7547,19.1119 5.7187,20.6399 5.7187,20.6399 C5.7187,20.6399 6.8447,19.7789 7.2027,19.8769 C7.5607,19.9739 6.8397,21.3659 6.2357,21.9179 C5.6317,22.4689 5.0757,21.5209 5.0757,21.5209 C5.0757,21.5209 4.1477,21.2279 4.0567,20.7819 C4.0567,20.7819 3.1577,20.6209 2.8977,20.1659 C2.8977,20.1659 1.5407,19.7369 2.0197,18.8189" id="Fill-150" fill="#F9AF8B"></path>
                            <path d="M26.1681,26.2144 L25.5851,26.4194 C25.0641,26.6034 24.5611,26.4364 24.1631,26.0534 C23.9871,25.8844 23.7141,25.5574 23.5721,25.4624 C23.1711,25.1944 22.2131,24.8474 21.9281,24.9274 C21.6431,25.0074 21.8771,25.5064 22.1541,25.6644 C22.4311,25.8214 22.8431,26.0014 23.1231,26.2634 C23.4021,26.5264 22.1041,27.7154 21.5361,28.0854 C20.9691,28.4554 19.7621,28.5074 19.8381,29.0594 C19.9131,29.6104 20.7571,29.3984 20.7571,29.3984 C20.7571,29.3984 20.6811,29.9454 21.4951,30.0914 C21.4951,30.0914 21.5341,30.5874 22.0581,30.6754 C22.0581,30.6754 22.2111,31.2684 22.7731,31.2394 C23.3361,31.2114 25.0871,31.1114 27.5381,28.1204 L26.1681,26.2144 Z" id="Fill-151" fill="#F9AF8B"></path>
                            <path d="M26.0173,25.894 C26.0173,25.894 34.5633,20.098 37.4173,16.893 C37.4173,16.893 37.3323,12.763 37.1293,9.448 C36.9983,7.299 37.0833,5.142 37.4123,3.014 C37.5963,1.821 37.8483,0.672 38.1863,-3.19744231e-14 C38.1863,-3.19744231e-14 40.4333,0.887 41.2423,8.708 C41.6823,12.965 41.7103,16.315 41.6813,18.057 C41.6653,18.935 41.3233,19.775 40.7193,20.413 C38.8393,22.398 34.1883,26.692 27.7983,28.339 C27.7983,28.339 26.2673,26.914 26.0173,25.894" id="Fill-152" fill="#E22445"></path>
                        </g>
                        <path d="M29.2374,93.0974248 L28.8684,96.4044248 C28.8684,96.4044248 27.7874,97.0244248 26.0834,96.6854248 L26.4424,92.8184248 L29.2374,93.0974248 Z" id="Fill-118" fill="#F9AF8B"></path>
                    </g>
                    <g id="Group-14" transform="translate(7.000100, 12.352200)">
                        <g id="Group-8">
                            <path d="M1.52411417e-12,1.283 L1.52411417e-12,6.641 C1.52411417e-12,7.349 0.575,7.924 1.283,7.924 L11.012,7.924 L13.95,8.978 C14.251,9.087 14.54,8.79 14.424,8.491 L13.313,5.622 L13.313,1.283 C13.313,0.575 12.738,-2.84217094e-14 12.029,-2.84217094e-14 L1.283,-2.84217094e-14 C0.575,-2.84217094e-14 1.52411417e-12,0.575 1.52411417e-12,1.283" id="Fill-153" fill="#005DB1"></path>
                            <path d="M8.4522,4.1145 C8.4522,4.6265 8.8682,5.0425 9.3802,5.0425 C9.8932,5.0425 10.3082,4.6265 10.3082,4.1145 C10.3082,3.6015 9.8932,3.1865 9.3802,3.1865 C8.8682,3.1865 8.4522,3.6015 8.4522,4.1145" id="Fill-154" fill="#FFF9FF"></path>
                            <path d="M5.5142,4.1145 C5.5142,4.6265 5.9302,5.0425 6.4422,5.0425 C6.9552,5.0425 7.3702,4.6265 7.3702,4.1145 C7.3702,3.6015 6.9552,3.1865 6.4422,3.1865 C5.9302,3.1865 5.5142,3.6015 5.5142,4.1145" id="Fill-155" fill="#FFF9FF"></path>
                        </g>
                        <path d="M2.5762,4.1145 C2.5762,4.6265 2.9922,5.0425 3.5042,5.0425 C4.0172,5.0425 4.4322,4.6265 4.4322,4.1145 C4.4322,3.6015 4.0172,3.1865 3.5042,3.1865 C2.9922,3.1865 2.5762,3.6015 2.5762,4.1145" id="Fill-156" fill="#FFF9FF"></path>
                    </g>
                </g>
            </g>
        </g>
    </g>
</svg>