<?xml version="1.0" encoding="UTF-8"?>
<svg width="134px" height="119px" viewBox="0 0 134 119" version="1.1" xmlns="http://www.w3.org/2000/svg" xmlns:xlink="http://www.w3.org/1999/xlink">
    <!-- Generator: Sketch 59.1 (86144) - https://sketch.com -->
    <title>Group 14</title>
    <desc>Created with Sketch.</desc>
    <g id="Services-Page" stroke="none" stroke-width="1" fill="none" fill-rule="evenodd">
        <g transform="translate(-227.000000, -935.000000)" id="Group-14">
            <g transform="translate(227.000000, 935.000000)">
                <path d="M76.2320835,11.1787773 C78.9433433,9.69541661 82.5532272,8.9572545 85.851846,8.95792465 C87.10482,8.95792465 88.3129507,9.06414225 89.4076542,9.27423197 C89.5254778,9.29668174 89.6450598,9.24240019 89.6745157,9.15260108 C89.7039716,9.06280197 89.6327499,8.97166257 89.5149264,8.94921279 C88.379776,8.73175151 87.1373534,8.62318841 85.851846,8.62318841 C82.4688163,8.62385855 78.782435,9.37341308 75.9757734,10.9063643 C75.877294,10.9603108 75.8544327,11.0651881 75.9252148,11.1402441 C75.9959968,11.2153001 76.1331645,11.2327238 76.2320835,11.1787773" id="Fill-49" fill="#13A391"></path>
                <path d="M129.322981,73.0069943 C129.483207,73.9457628 128.851664,74.8369987 127.91335,74.996881 C126.974317,75.1571234 126.083891,74.5258764 125.923305,73.5867478 C125.763439,72.6483394 126.394622,71.7571035 127.333296,71.5972212 C128.272329,71.4373389 129.162754,72.068586 129.322981,73.0069943" id="Fill-79" fill="#1E3F86"></path>
                <path d="M130.589596,105.805564 L3.25645146,106.065217 C1.55776775,106.068556 0.177745942,104.71053 0.174360424,103.032231 L0,19.6888188 C-0.00337927555,18.0105194 1.37071788,16.6466398 3.06982477,16.6432949 L130.402969,16.384058 C132.101653,16.3803028 133.481674,17.7383288 133.485483,19.4166282 L133.65942,102.76004 C133.6628,104.43834 132.288702,105.801801 130.589596,105.805564" id="Fill-96" fill="#FFFFFE"></path>
                <path d="M130.29337,14.6594203 L3.34571922,14.9703262 C1.4940524,14.9748538 -0.00380623582,16.7607523 0,18.9591682 L0.00593937905,22.4202899 L133.65942,22.0927913 L133.653064,18.6316697 C133.649251,16.4332537 132.145036,14.6549013 130.29337,14.6594203" id="Fill-97" fill="#27A9E0"></path>
                <path d="M3.48200393,106.065217 L22.4202899,106.025734 L22.2483442,22.4202899 L0,22.4664858 L0.165251899,102.75296 C0.169017132,104.58568 1.65377406,106.06899 3.48200393,106.065217" id="Fill-98" fill="#1C75BB"></path>
                <path d="M130.409305,14.6594203 L130.402957,14.6594203 L3.06941288,14.9265574 C1.37072384,14.9299988 -0.00380082362,16.3327911 2.05953859e-15,18.0595032 L0.173939434,103.807065 C0.177324963,105.532057 1.55396558,106.927536 3.24969228,106.927536 L3.25604015,106.927536 L130.589584,106.660399 C132.288696,106.656958 133.663221,105.254165 133.65942,103.527453 L133.485481,17.779461 C133.481672,16.0548997 132.105455,14.6594203 130.409305,14.6594203 M130.394375,15.5217391 C131.620909,15.5217391 132.620669,16.5364717 132.623207,17.783057 L132.797101,103.526881 C132.799635,104.776907 131.801992,105.795511 130.572495,105.798092 L3.2650459,106.065217 C2.03851119,106.065217 1.03875212,105.050485 1.03621359,103.803469 L0.862318841,18.0596458 C0.862318841,17.4544196 1.09163824,16.8848961 1.51176551,16.4556028 C1.93189279,16.0267396 2.49121631,15.790155 3.08692548,15.7888646 L130.387605,15.5217391 L130.394375,15.5217391" id="Fill-99" fill="#178FE3"></path>
                <path d="M18.6479077,99.9978931 L3.77792173,100.028986 C3.12191174,100.030279 2.58866386,99.4926797 2.58738509,98.8281297 L2.58695652,98.6791565 C2.58568006,98.0146065 3.1163704,97.4744168 3.77280664,97.4731214 L18.6427926,97.442029 C19.2988026,97.4407359 19.8316242,97.9783348 19.8333333,98.6428848 L19.8333333,98.7922898 C19.8350343,99.4568398 19.3043439,99.9965977 18.6479077,99.9978931" id="Fill-100" fill="#FFFFFE"></path>
                <path d="M17.7451052,42.228617 L5.57152165,42.2536232 C4.41572387,42.2560775 3.4771505,41.3211928 3.47469136,40.1649852 L3.44927536,27.9922214 C3.44682106,26.8360137 4.38211557,25.8974404 5.53791335,25.8949812 L17.711087,25.8695652 C18.8668848,25.8671109 19.8058681,26.8024054 19.8083272,27.9586131 L19.8333333,40.1313769 C19.8357876,41.2875845 18.9004931,42.2261579 17.7451052,42.228617" id="Fill-101" fill="#FFFFFE"></path>
                <path d="M70.8795398,80.125961 L26.5697687,80.1956522 C25.7086489,80.1969524 25.0093906,79.6674482 25.0072464,79.0125694 L25.0072464,78.865702 C25.0055367,78.2111488 25.7017976,77.6793651 26.5624892,77.6780625 L70.8722603,77.6086957 C71.7333801,77.6070712 72.4326384,78.136901 72.4347826,78.7911285 L72.4347826,78.9383216 C72.4364923,79.5928747 71.7402314,80.1246584 70.8795398,80.125961" id="Fill-102" fill="#C8D7E5"></path>
                <path d="M68.335173,30.1261351 L34.2874309,30.1811594 C33.4501231,30.1827932 32.7706172,29.6499452 32.7685354,28.9916635 L32.7681159,28.8439595 C32.7664536,28.1853502 33.4434613,27.6508647 34.2807691,27.6492272 L68.3289275,27.5942029 C69.1658189,27.5925691 69.8457412,28.1254171 69.8474067,28.7836988 L69.8478261,28.9314029 C69.8494885,29.5896846 69.1724808,30.1244976 68.335173,30.1261351" id="Fill-103" fill="#C8D7E5"></path>
                <path d="M122.665966,64.6010754 L77.3990611,64.673913 C76.5645447,64.6752113 75.8865521,64.1465052 75.884058,63.4929387 L75.884058,63.3459676 C75.8824003,62.6927262 76.5574866,62.1617441 77.3924181,62.1601183 L122.659323,62.0869565 C123.49384,62.0859824 124.171832,62.6143633 124.173913,63.2682549 L124.173913,63.414901 C124.175984,64.0684675 123.500483,64.5994496 122.665966,64.6010754" id="Fill-104" fill="#C8D7E5"></path>
                <path d="M70.8791116,86.1625273 L26.5693405,86.2318841 C25.7086489,86.2331841 25.0093906,85.7034207 25.0072464,85.0492752 L25.0072464,84.9021006 C25.0055367,84.2476294 25.7017976,83.7159124 26.5624892,83.7146099 L70.8726885,83.6449275 C71.7333801,83.6436275 72.4326384,84.1730653 72.4347826,84.827862 L72.4347826,84.974711 C72.4364923,85.6291821 71.7402314,86.1612248 70.8791116,86.1625273" id="Fill-105" fill="#C8D7E5"></path>
                <path d="M70.8791116,92.1984335 L26.5693405,92.2681159 C25.7086489,92.269416 25.0093906,91.7399779 25.0072464,91.0855066 L25.0072464,90.9386575 C25.0055367,90.2838605 25.7017976,89.7521432 26.5624892,89.7508408 L70.8726885,89.6811594 C71.7333801,89.6801839 72.4326384,90.209622 72.4347826,90.8640934 L72.4347826,91.0109424 C72.4364923,91.6654138 71.7402314,92.1971311 70.8791116,92.1984335" id="Fill-106" fill="#C8D7E5"></path>
                <path d="M121.685155,98.2100642 L78.4213547,98.3043478 C77.0440156,98.3069745 75.92472,97.1295804 75.9222309,95.6737337 L75.884058,76.0333975 C75.8811596,74.5771124 76.9954768,73.3944562 78.372816,73.3913867 L121.636616,73.2971014 C123.013955,73.2940379 124.133251,74.4718705 124.13574,75.9277171 L124.173913,95.5680533 C124.176811,97.0243385 123.062909,98.2069946 121.685155,98.2100642" id="Fill-107" fill="#FEBA40"></path>
                <path d="M7.76086957,18.5373179 C7.7623889,19.2512918 7.18440996,19.8323154 6.46992853,19.8333333 C5.75544709,19.8348527 5.17543838,19.2568737 5.17391304,18.5428997 C5.17239371,17.8284183 5.75037265,17.2479021 6.46434664,17.2463768 C7.17933551,17.2448575 7.75934423,17.8228364 7.76086957,18.5373179" id="Fill-108" fill="#C8D7E5"></path>
                <path d="M11.2101449,18.5373179 C11.2116643,19.2517993 10.6336853,19.831808 9.91920389,19.8333333 C9.20472246,19.8348527 8.62471374,19.2568737 8.62318841,18.5423923 C8.62166907,17.8279109 9.19964801,17.2479021 9.91412945,17.2463768 C10.6286109,17.2448575 11.2086196,17.8228364 11.2101449,18.5373179" id="Fill-109" fill="#C8D7E5"></path>
                <path d="M16.384058,18.5370655 C16.385577,19.2514073 15.8072037,19.83181 15.0933693,19.8333333 C14.3790275,19.8343467 13.7986248,19.2569881 13.7971014,18.5426463 C13.7960881,17.8283045 14.3734467,17.2479018 15.0877885,17.2463768 C15.8021303,17.2448578 16.3825329,17.8232311 16.384058,18.5370655" id="Fill-110" fill="#C8D7E5"></path>
                <path d="M31.0434783,28.019424 C31.0467482,29.6860279 29.6983141,31.0401948 28.0313006,31.0434783 C26.3646967,31.0471561 25.0105298,29.698722 25.0072464,28.0317085 C25.0035685,26.3646951 26.3520027,25.0105282 28.0190161,25.0072464 C29.68562,25.0039765 31.0397869,26.3524106 31.0434783,28.019424" id="Fill-111" fill="#C8D7E5"></path>
                <path d="M18.4031905,44.8209353 L4.88148905,44.8405797 C4.567551,44.8408682 4.31201039,44.6634938 4.3115942,44.4445202 L4.3115942,44.39541 C4.31076789,44.1761474 4.565066,43.9981952 4.87900405,43.9979064 L18.4007055,43.9782609 C18.7150577,43.9776845 18.9701841,44.1550589 18.9710145,44.3743215 L18.9710145,44.4234317 C18.9718408,44.6426942 18.7175427,44.8206464 18.4031905,44.8209353" id="Fill-112" fill="#FFFFFE"></path>
                <path d="M18.4031919,48.2702106 L4.88148911,48.2898551 C4.56713686,48.2901436 4.31242455,48.1127692 4.3115942,47.8937955 L4.3115942,47.8446853 C4.31076789,47.6254228 4.56506602,47.4474706 4.87900411,47.4468928 L18.4007069,47.4275362 C18.7150592,47.4269599 18.9701857,47.6043343 18.9705998,47.823308 L18.9710145,47.872707 C18.9714282,48.0916807 18.71713,48.2696329 18.4031919,48.2702106" id="Fill-113" fill="#FFFFFE"></path>
                <path d="M35.3550725,54.3551361 L31.0858277,54.3947713 L31.1172702,70.7033935 L27.4338733,70.7101449 C26.1340957,70.7126698 25.0779974,69.7538352 25.0752231,68.5685739 L25.0072464,38.4095555 C25.0044775,37.2116447 26.0670492,36.2384739 27.3806985,36.235944 L35.3083711,36.2173913 L35.3550725,54.3551361" id="Fill-114" fill="#DB5A28"></path>
                <path d="M59.5058515,36.2173913 L59.5004,36.2173913 L27.5229364,36.2834992 C26.1302781,36.2864467 25.0039065,37.4220713 25.0072538,38.8200221 L25.0672282,68.1841487 C25.0701637,69.5804153 26.1982127,70.7101449 27.5879355,70.7101449 L27.593387,70.7101449 L59.57127,70.644037 C60.9635089,70.6410895 62.0898805,69.505886 62.0869508,68.1075141 L62.0265588,38.7433875 C62.0240427,37.3471209 60.8959937,36.2173913 59.5058515,36.2173913 Z M59.5062709,36.2173913 L59.5062709,36.6384608 C60.6624163,36.6384608 61.6046937,37.5829198 61.6072098,38.7442296 L61.6676011,68.1083562 C61.6701121,69.2721924 60.7290928,70.2204411 59.5704313,70.2229675 L27.5879355,70.2890754 C26.4317901,70.2890754 25.4890934,69.3446164 25.4865773,68.1833066 L25.4266053,38.81918 C25.4240943,37.6557649 26.3646942,36.7070952 27.5237751,36.7045688 L59.5016581,36.6384608 L59.5062709,36.2173913 L59.5062709,36.2173913 Z" id="Fill-115" fill="#C8D7E5"></path>
                <path d="M112.704346,60.2992134 L69.2626323,50.5771794 C67.8797884,50.2680534 67.0119876,48.9067995 67.3246009,47.5370879 L72.2115321,26.1274691 C72.5237183,24.7581804 73.898448,23.8984634 75.281292,24.2080123 L118.723006,33.9300463 C120.10585,34.2391723 120.973224,35.6004262 120.661038,36.9697148 L115.774106,58.3797565 C115.46192,59.7494681 114.08719,60.6087623 112.704346,60.2992134" id="Fill-116" fill="#308DFC"></path>
                <polyline id="Fill-117" fill="#3A5796" points="29.6522727 117.26298 23.8421117 117.275362 22.4202899 109.533279 31.0434783 109.514493 29.6522727 117.26298"></polyline>
                <path d="M23.2970415,110.385608 C23.2987043,110.906356 23.1810599,111.780369 23.5905291,111.793035 C24.0004141,111.806406 23.8308065,110.963709 24.2976431,110.986228 C24.5957035,111.000654 24.1587977,113.758508 25.2853578,113.825009 C26.0594003,113.870398 25.9180606,112.472471 25.9974603,111.597403 C26.0515019,111.005228 26.9473459,111.121341 26.9544128,111.513309 C26.9627269,111.951371 26.9298863,112.24482 26.9548285,112.743401 C26.9968147,113.575894 28.509149,113.354928 28.4551074,112.242357 C28.4014814,111.129433 28.4517817,110.376812 28.4517817,110.376812 L23.2970415,110.385608" id="Fill-118" fill="#C8D7E5"></path>
                <path d="M22.12518,114.688406 C22.0012363,114.688716 21.8819778,114.679793 21.7669784,114.660671 C21.3206107,114.586733 21.0071311,114.41113 20.835484,114.138325 C20.2174691,113.15801 21.8444965,111.320717 21.9079591,111.23913 L21.9931438,111.56962 C21.9778105,111.589061 20.5637448,113.16789 21.1191489,114.04909 C21.2511852,114.258474 21.4862949,114.388503 21.8376817,114.446825 C21.9347923,114.462759 22.036588,114.470408 22.142217,114.47009 C24.3255003,114.467221 28.0578671,111.422063 28.0987557,111.387006 C28.2512363,111.249966 28.536605,111.379358 28.4352352,111.494726 C28.2644399,111.641327 24.472018,114.684573 22.12518,114.688406" id="Fill-119" fill="#121C2C"></path>
                <path d="M94.8550725,14.6594203 C95.4180451,14.405129 95.9600519,14.1236912 96.4383846,13.7971014 C96.8029579,14.0705061 97.1364707,14.357761 97.442029,14.6555422 L94.8550725,14.6594203" id="Fill-120" fill="#C9D5E2"></path>
                <path d="M70.7101449,16.384058 C71.4822699,15.4324617 72.3585739,14.5987623 73.3047593,13.8803004 C73.4299456,14.9072444 73.4753899,15.7910278 73.5088301,16.3782961 L70.7101449,16.384058 M73.9829946,16.3769664 C74.2162183,15.1651992 74.5557647,13.9631828 74.9583329,12.7780089 C77.793888,11.1261228 81.0358698,10.3478261 83.969173,10.3478261 C84.1848193,10.3478261 84.3991793,10.3518151 84.6118245,10.3602363 C89.8323498,10.5667774 93.3572869,12.3875308 95.7173913,14.954669 C95.1892081,15.477227 94.5907147,15.92754 93.9690705,16.3344172 L73.9829946,16.3769664 M73.8488051,15.002537 C73.8140788,14.5743851 73.7669196,14.0974789 73.700468,13.5895472 C73.9268322,13.4282146 74.1570549,13.2735304 74.3902787,13.124608 C74.1896377,13.7451179 74.0070029,14.3713897 73.8488051,15.002537" id="Fill-121" fill="#71C2B3"></path>
                <path d="M75.0913777,16.384058 C75.0753842,16.0455439 75.0563918,15.5948998 75.0217391,15.0665291 C75.1446895,14.461706 75.2866323,13.861555 75.4425694,13.2669256 C75.5885105,13.1522471 75.7354512,13.0418159 75.884058,12.9347826 C75.5711842,14.0705248 75.3072906,15.2224069 75.1260304,16.3836332 L75.0913777,16.384058" id="Fill-122" fill="#169186"></path>
                <path d="M74.437136,16.384058 C74.3916279,15.8392841 74.3297837,15.0194507 74.1594203,14.0668159 C74.3367849,13.9751294 74.5164833,13.8850876 74.697932,13.7971014 C74.7883646,14.2682795 74.8525426,14.710677 74.8998009,15.107848 C74.9604783,15.6193188 74.9937342,16.055549 75.0217391,16.3832357 L74.437136,16.384058" id="Fill-123" fill="#169186"></path>
                <path d="M70.2607535,33.6304348 C69.5336868,33.6304348 68.9188375,32.7079103 69.0003338,31.4694652 C68.888543,31.0318632 68.787846,30.601472 68.6982427,30.1773902 C69.0856703,29.8781443 69.3369862,29.3945739 69.3357061,28.8488107 L69.3352795,28.6455579 C69.3335727,27.9024007 68.8642221,27.2755167 68.2220651,27.0754186 C68.0296314,24.9919645 68.1243549,23.0982431 68.4516203,21.3897477 L72.5601449,21.3811849 C71.759262,23.5173675 71.1273454,26.5102766 70.6392208,30.6717767 C70.6392208,30.6717767 70.808187,31.2743245 70.8930968,31.9332061 L70.5398038,33.5853676 C70.5398038,33.5858183 70.5398038,33.5858183 70.5398038,33.5858183 C70.445507,33.6160133 70.3524903,33.6304348 70.2607535,33.6304348 M100.875214,29.0133058 L98.210156,28.493231 C97.9814542,25.382246 97.3414306,23.061288 96.4901993,21.328907 L100.221963,21.3207949 C100.827852,24.0752988 100.939643,26.8171839 100.875214,29.0133058 M71.4627178,14.7171062 C71.4631445,14.7162049 71.4631445,14.7166556 71.4635712,14.7162049 L74.2489537,14.7103462 L74.6764895,14.7094448 L74.7208644,14.7089941 L94.6119435,14.6657297 L97.4549282,14.6594203 C97.4553548,14.6603216 97.4549282,14.659871 97.4553548,14.6603216 L71.4627178,14.7171062" id="Fill-124" fill="#D9E1E5"></path>
                <path d="M68.9855072,21.557971 C69.4032615,19.5776043 70.2083349,17.8756329 71.2806542,16.4368571 L97.8893499,16.384058 C98.9287325,17.9780312 99.6037267,19.7400016 100.028986,21.496772 L96.3825994,21.5039719 C94.5902585,18.1924276 91.8385837,17.3040425 90.0733426,17.0544467 L79.612809,17.0752464 C79.5681985,17.0748464 79.5240049,17.0744464 79.4793945,17.0744464 C76.6030604,17.0744464 74.498863,17.9180322 73.0000341,21.5503711 L68.9855072,21.557971" id="Fill-125" fill="#335091"></path>
                <path d="M70.7101449,16.384058 C70.9237317,16.103774 71.1481276,15.8332108 71.3811706,15.5727735 L97.7197945,15.5217391 C97.9255988,15.7854167 98.120594,16.0559799 98.3043478,16.3305934 L70.7101449,16.384058" id="Fill-126" fill="#335091"></path>
                <path d="M69.3542213,30.1811594 C69.178124,29.2821328 69.0565409,28.4203151 68.9855072,27.5942029 C69.4827426,27.7610791 69.8461704,28.2838826 69.8474919,28.9036547 L69.8478261,29.0731618 C69.8488135,29.5283128 69.6542144,29.9315969 69.3542213,30.1811594" id="Fill-127" fill="#A9BCD6"></path>
                <path d="M71.5983977,32.7678808 L72.3123977,31.9057971 C72.5003832,32.2820475 72.4857238,32.6938065 71.5983977,32.7681159" id="Fill-128" fill="#A9BCD6"></path>
                <path d="M85.2988428,8.63527079 C76.6679652,8.30676655 64.7853614,14.6565753 69.0005305,30.1811594 L70.6394073,29.4299288 C72.0764646,17.8872914 74.7645469,15.8903761 79.3278866,15.9319696 L90.0332811,15.9098996 C92.6786954,16.2978232 97.6175133,18.6334289 98.338602,27.8735657 L100.875213,27.8680482 C101.083006,21.193555 99.4586363,9.17386495 85.2988428,8.63527079" id="Fill-129" fill="#E27B33"></path>
                <path d="M83.9845137,9.48550725 L82.7826087,11.7084618 C82.7826087,11.7084618 82.925845,12.9603044 84.3862157,12.9343856 C85.8461862,12.9081302 86.0414357,12.340947 86.0414357,12.340947 L86.2318841,9.78879042 L83.9845137,9.48550725" id="Fill-130" fill="#F1B29C"></path>
                <path d="M90.1693586,6.27674804 C88.7180795,8.99969341 88.0752793,9.8469319 86.1773875,10.2561607 C83.7197469,10.7863593 80.9642233,9.02757493 82.2451625,4.69199833 C83.2896598,1.15689122 84.8706007,1.7014803 86.419338,1.83504178 C87.9676516,1.96860326 91.7371639,3.33479782 90.1693586,6.27674804" id="Fill-131" fill="#F1B29C"></path>
                <path d="M84.6655428,4.73655892 C84.294827,4.51150055 83.8177849,4.70244481 83.5301745,5.05543109 C83.2340092,5.41789351 83.0910188,5.96087644 83.2168992,6.43847398 C82.6457524,6.44842393 82.1442675,7.09943487 82.1988564,7.76086957 C81.8085863,6.70191072 82.0200165,5.60078305 81.9426143,4.51766004 C81.8656195,3.43406323 81.9674645,2.25617881 82.5712018,1.42606879 C82.8188889,1.0858753 83.1378675,0.823859979 83.4764004,0.614911052 C84.7612772,-0.179189628 86.3757245,-0.206196632 87.6797481,0.545735218 C87.9498411,0.701143943 88.6269068,1.19721996 89.5712139,0.931414188 C91.3710191,0.425388217 92.424504,1.8411238 91.3425025,3.16730984 C91.6899977,3.31324242 92.0708981,3.49328912 92.2281468,3.88181093 C92.2684774,3.98083661 92.2896612,4.10544788 92.235887,4.19594503 C92.1980007,4.25896137 92.1332273,4.29023264 92.0708981,4.31487061 C91.7673999,4.43379619 91.4390516,4.46411984 91.123332,4.40252492 C91.2447313,4.52239811 91.9128346,4.56930502 92.1140804,5.02131698 C92.6506,6.22383937 90.5244833,5.61641868 90.2006161,5.49607168 C90.5705172,5.57661889 91.5417114,6.47779997 91.2308804,7.09611822 C91.1697733,7.21836045 89.8584168,8.10722255 88.48025,6.24516069 C88.1596419,5.81210101 87.760002,5.41220783 87.2854042,5.26532763 C86.9126514,5.1497187 86.5227887,5.30939169 86.1622573,5.46764326 C85.8990898,5.58277838 85.2269126,6.0584807 85.0342218,5.77514406 C84.8223842,5.46432661 85.0953288,4.98483383 84.6655428,4.73655892" id="Fill-132" fill="#121C2C"></path>
                <path d="M98.7240877,29.3565854 C98.4138926,29.997057 98.1002392,30.0610004 98.4761391,30.162936 C98.8523848,30.2648717 99.1563553,29.905917 99.1563553,29.905917 L100.891304,30.1131101 C100.891304,30.1131101 100.499843,29.436307 100.226304,29.3547169 C99.952765,29.2729193 98.7240877,29.3565854 98.7240877,29.3565854" id="Fill-133" fill="#F1B29C"></path>
                <path d="M71.5008937,30.1811594 C71.7827888,30.7619243 71.8606866,30.7658484 72.2536183,31.4639792 C73.0050518,32.7985256 71.2452514,34.9082575 70.1525311,32.6048184 C69.853421,31.9733971 69.8478261,30.8125807 69.8478261,30.8125807 L71.5008937,30.1811594" id="Fill-134" fill="#F1B29C"></path>
                <path d="M88.9034273,0.517524909 C89.9597518,0.583286148 91.2610524,-0.272670621 92.0887326,0.82653202 C92.1648447,0.927648764 92.3189177,0.793651401 92.2514337,0.682635116 C91.4601147,-0.620568787 89.9905664,0.348879152 88.9034273,0.315998532 C88.7900296,0.312462982 88.7912621,0.510453808 88.9034273,0.517524909" id="Fill-135" fill="#121C2C"></path>
                <path d="M88.6268819,0.104310752 C87.6648723,0.20888882 86.7373373,-0.0747824005 85.7732756,0.0195177243 C84.9889751,0.096602295 84.2908614,0.347897996 83.6990449,0.670625398 C83.5471918,0.753105889 83.745832,0.914983487 83.914512,0.845350425 C84.7435477,0.503865777 85.5401606,0.20888882 86.5744031,0.256167356 C87.3250497,0.290598465 87.9636534,0.429350692 88.7089647,0.290084567 C88.9018591,0.254111768 88.8193659,0.083497918 88.6268819,0.104310752" id="Fill-136" fill="#121C2C"></path>
                <path d="M81.829027,2.6005867 C81.3844852,2.95696529 81.1282675,3.43317878 81.0757308,4.11919019 C81.0377427,4.61103432 81.0261577,5.74269264 81.411966,6.02022333 C81.5041074,6.08691406 81.6010983,5.92991297 81.5256609,5.83091892 C81.2783341,5.507191 81.2562417,4.635696 81.2740233,4.22478385 C81.3012347,3.59504274 81.505185,3.11605047 81.8928793,2.74091511 C81.9559234,2.67978195 81.8998842,2.54362171 81.829027,2.6005867" id="Fill-137" fill="#121C2C"></path>
                <path d="M94.8344314,3.31918159 C94.3842931,2.81878806 93.2308135,2.37652449 92.3443381,2.69402962 C92.2052623,2.74366105 92.2710845,2.87997749 92.4244925,2.88201714 C92.8119937,2.88677632 93.166053,2.8544819 93.5466535,2.92926897 C93.9755589,3.0135744 94.3343956,3.17368673 94.5939684,3.40892608 C94.6958865,3.50105016 94.9246714,3.42014414 94.8344314,3.31918159" id="Fill-138" fill="#121C2C"></path>
                <path d="M45.7028986,68.9855072 C50.273852,70.6136328 54.2435911,75.6985998 53.3325035,79.3944782 C52.3037588,83.5688483 49.3334579,85.3695652 49.3334579,85.3695652 L48.3978045,83.6933816 C48.3978045,83.6933816 50.7720627,80.0936194 50.5656242,78.3940335 C50.235495,75.6714365 46.6902693,73.853168 46.6902693,73.853168 L45.7028986,68.9855072" id="Fill-139" fill="#1E3F86"></path>
                <path d="M35.1708723,116.415134 C35.1708723,116.415134 32.5586517,116.965137 31.9057971,117.275362 L37.0797101,117.269927 L37.076101,116.413043 L35.1708723,116.415134" id="Fill-140" fill="#121C2C"></path>
                <path d="M47.4318459,116.413043 C47.4318459,116.413043 48.1562564,116.842101 48.2898551,117.271959 L44.8405797,117.275362 C44.900131,116.978046 45.148131,116.693542 45.4838907,116.414845 L47.4318459,116.413043" id="Fill-141" fill="#121C2C"></path>
                <path d="M47.5747256,116.408818 L44.6381025,116.413043 C44.6967373,113.421105 43.9833479,103.224002 43.2943898,95.6004747 C42.8888328,91.12947 42.4881621,87.5374531 42.2536232,86.8105979 L43.8269886,86.5105588 L49.7637558,85.3695652 C50.7800913,89.3841724 48.4347018,107.817558 47.5747256,116.408818" id="Fill-142" fill="#19766B"></path>
                <path d="M37.8580658,86.4447487 C35.8513775,89.5638063 35.3325835,112.099579 34.4927536,116.276624 L36.9326263,116.413043 C36.9326263,116.413043 39.7346275,102.204754 45.7028986,86.2318841 L37.8580658,86.4447487" id="Fill-143" fill="#188E84"></path>
                <path d="M44.9997013,94.8550725 L44.9997013,94.8550725 C44.9462233,94.0305223 44.8930734,93.2373798 44.8405797,92.4903549 C45.3901234,90.4683384 45.9865834,88.3807238 46.6316001,86.2593161 L47.4275362,86.2318841 C46.5253003,89.2016958 45.7149284,92.1078972 44.9997013,94.8550725" id="Fill-144" fill="#156862"></path>
                <path d="M44.5772957,93.9927536 C44.3395025,90.1774343 44.1188247,87.3232486 43.9782609,86.6384223 L45.1508397,86.2868484 L46.5652174,86.2318841 C45.8492888,88.8741351 45.1872552,91.4742962 44.5772957,93.9927536" id="Fill-145" fill="#147E78"></path>
                <path d="M37.8580658,86.4447487 C35.8513775,89.5638063 35.3325835,112.099579 34.4927536,116.276624 L36.9326263,116.413043 C36.9326263,116.413043 39.7346275,102.204754 45.7028986,86.2318841 L37.8580658,86.4447487" id="Fill-146" fill="#188E84"></path>
                <path d="M39.9635061,61.3031488 C39.9635061,61.3031488 38.4618548,67.1735227 42.2135132,67.1659235 L41.9912293,68.6659191 L44.8405797,68.9855072 L44.224771,66.8953079 C44.224771,66.8953079 44.7883018,63.2042127 44.8257608,62.5380171 C44.8965623,61.2930165 41.4960302,59.099806 39.9635061,61.3031488" id="Fill-147" fill="#F1B29C"></path>
                <polyline id="Fill-148" fill="#121C2C" points="31.0434783 58.636466 30.1887962 58.6376812 30.1811594 55.1899248 31.0358415 55.1884058 31.0434783 58.636466"></polyline>
                <path d="M32.760576,55.1822485 L25.8811199,55.1884058 C25.3997989,55.1888023 25.0085861,55.0154253 25.007694,54.8011368 L25.0072464,54.7209027 C25.0063557,54.5066143 25.3957842,54.3324428 25.8771052,54.3320456 L32.7565612,54.326087 C33.2378823,54.3256904 33.629095,54.4990675 33.6299872,54.713356 L33.6304348,54.7933914 C33.6313254,55.0076799 33.241897,55.1818513 32.760576,55.1822485" id="Fill-149" fill="#3A5796"></path>
                <path d="M29.0677717,60.1104597 C29.0358014,59.2652377 28.0931199,59.4865584 28.6121942,58.1077366 C28.9336739,57.2546337 31.3145774,58.2443381 31.0179635,58.8360593 C30.7217937,59.4271236 30.3798885,60.3623188 30.3798885,60.3623188 L29.0677717,60.1104597" id="Fill-150" fill="#F1B29C"></path>
                <path d="M41.808636,68.8493448 C36.0784089,69.2105025 35.7013263,71.0478873 33.1369961,70.760321 C29.3417873,70.3351708 30.0059909,63.6295561 30.4751372,61.2246377 L28.2084375,61.2290372 C28.2084375,61.2290372 24.1223244,76.5044483 37.0280519,73.6799791 C36.5324215,76.3556658 39.7416177,80.7251541 36.6299501,86.028933 C41.529082,87.2947847 46.1003159,87.6051484 50.0144928,86.0037359 C49.3292701,85.1254388 51.4194094,76.2500781 47.3265702,69.8608263 C46.5278444,68.6137724 42.2277569,68.8229479 41.808636,68.8493448" id="Fill-151" fill="#3A5796"></path>
                <path d="M41.808636,68.8493448 C36.0784089,69.2105025 35.7013263,71.0478873 33.1369961,70.760321 C29.3417873,70.3351708 30.0059909,63.6295561 30.4751372,61.2246377 L28.2084375,61.2290372 C28.2084375,61.2290372 24.1223244,76.5044483 37.0280519,73.6799791 C36.5324215,76.3556658 39.7416177,80.7251541 36.6299501,86.028933 C41.529082,87.2947847 46.1003159,87.6051484 50.0144928,86.0037359 C49.3292701,85.1254388 51.4194094,76.2500781 47.3265702,69.8608263 C46.5278444,68.6137724 42.2277569,68.8229479 41.808636,68.8493448" id="Fill-152" fill="#3A5796"></path>
                <path d="M41.6543743,62.4017842 C42.045186,62.5055696 42.5006928,62.5840974 42.7097419,62.9308142 C42.8452937,63.1558356 42.8360515,63.4359643 42.8228484,63.6981832 C42.8945852,63.4235652 43.1859336,63.2260974 43.4671595,63.259621 C43.7488256,63.2936038 43.9847209,63.5553635 43.9895621,63.8387068 C43.9922027,63.9718827 43.9499528,64.1013849 43.9028617,64.2262947 C43.7857943,64.535814 43.6357191,64.8338526 43.456597,65.1121444 C43.946872,65.2999685 44.3570483,66.7956722 44.6021858,67.2608696 C45.4264991,67.0454919 47.2595291,66.306595 47.4192865,63.2609987 C47.493664,61.8424452 47.0790867,60.1442221 45.6047409,59.1991321 C44.5630166,58.5323339 42.8342911,58.5231493 41.6420514,58.8409347 C40.6751446,59.0985613 39.1325828,60.1061063 39.8517115,61.2840246 C40.2147966,61.8787241 41.0083028,62.2295739 41.6543743,62.4017842" id="Fill-153" fill="#414040"></path>
                <path d="M46.369207,61.30491 C46.8971745,61.1360158 47.5665991,61.2256658 47.8836293,61.6499024 C48.1311791,61.980887 48.1087124,62.4151292 48.1890101,62.8101495 C48.2272867,63.0006557 48.2975991,63.1951642 48.4511216,63.3264374 C48.6350158,63.4837252 48.9012878,63.5209459 49.1513339,63.5341533 C49.7616794,63.5653707 50.3799298,63.4909292 50.9815383,63.5889839 C51.5835628,63.6874388 52.1989008,64.0144211 52.3703135,64.5555229 C52.4651729,64.8544896 52.4135827,65.1838733 52.5271644,65.4772369 C52.6977449,65.9178827 53.1853556,66.1684224 53.6101427,66.424165 C54.5138035,66.9688688 55.2809999,67.7036786 55.8372589,68.5565543 C56.1896533,69.0968556 56.4605019,69.6967902 56.5033551,70.3255408 C56.5457922,70.9546917 57.0171769,71.7851549 56.8919459,72.4047004 C56.7563135,73.0726729 56.0735753,73.9755765 54.7243249,74.3934095 C52.3931962,75.1150119 51.6547073,75.4275862 49.4213504,74.1508742 C49.15175,73.9967883 48.6254466,73.4728961 48.3820573,73.2855917 C48.1910903,73.1387097 48.0696037,72.925791 48.0030357,72.7048678 C47.8170613,72.0881238 48.0321592,71.4233531 48.3666635,70.8626404 C48.7015838,70.3019277 49.1525821,69.8056509 49.4933271,69.24814 C49.6980237,68.9123527 49.8652759,68.5401451 49.8461376,68.1559308 C49.8386487,68.0122507 49.8007881,67.8617668 49.692199,67.7585092 C49.5981717,67.6692594 49.4633715,67.6268358 49.3310676,67.6020219 C48.8405445,67.5095704 48.3013436,67.6072248 47.856586,67.3955068 C47.42431,67.1889916 47.1875775,66.6867115 47.3186333,66.2548706 C47.4060038,65.9663097 47.6335832,65.722974 47.698071,65.4292102 C47.7916822,65.0069747 47.515841,64.5723323 47.133491,64.3249943 C46.7511409,64.0776564 46.2793401,63.982003 45.8187727,63.9087622 C45.5920254,63.8727421 45.3544608,63.8371222 45.1697346,63.7098513 C44.9421552,63.5525635 44.8377266,63.2780104 44.8405797,63.0158642 C44.8506241,62.1862015 45.5533327,61.566656 46.369207,61.30491" id="Fill-154" fill="#414040"></path>
                <path d="M44.8897922,62.2335968 C47.4491271,62.8455503 44.2187402,65.5238946 45.5714718,66.8052246 C45.957099,67.1707202 46.4068709,67.0554549 46.8589201,67.1246141 C48.5965198,67.3899336 47.6464953,68.6930592 47.5280744,69.7145186 C47.5102353,69.8683453 47.7413839,69.9002004 47.7725073,69.7509843 C47.920154,69.0451421 48.506945,68.1833774 48.2044402,67.4326865 C47.9376135,66.7712738 47.2775685,66.8488159 46.736324,66.8307926 C46.0580604,66.8081587 45.3095793,66.83205 45.5635012,65.3407277 C45.6204343,65.0091831 45.8603126,64.6726087 45.9772154,64.3607639 C46.1115776,64.0011364 46.201532,63.6440238 46.1278984,63.2508647 C46.0037842,62.5856796 45.5012543,62.1946162 44.9262295,62.088153 C44.8412093,62.0726446 44.8028743,62.2126395 44.8897922,62.2335968" id="Fill-155" fill="#414040"></path>
                <path d="M38.9071959,59.1319927 C41.5101522,58.6052129 44.1050978,58.7103693 46.3035169,59.4829797 C46.452715,59.5354582 46.6544829,59.455244 46.5223074,59.3957817 C44.593246,58.5305857 41.1626908,58.3777397 38.8361015,59.083505 C38.7650071,59.1048556 38.8240855,59.1487539 38.9071959,59.1319927" id="Fill-156" fill="#414040"></path>
                <polyline id="Fill-157" fill="#F1B29C" points="113.057978 66.3985507 112.101449 68.1266209 114.438877 68.9855072 114.688406 66.9958047 113.057978 66.3985507"></polyline>
                <path d="M115.026471,58.6376812 C110.186997,61.0918539 112.16974,67.0406387 115.115575,66.3418968 C116.549364,66.002005 117.275362,60.6228663 117.275362,60.6228663 L115.026471,58.6376812" id="Fill-158" fill="#F1B29C"></path>
                <path d="M115.839734,58.9815587 C115.638248,58.6291398 115.448037,58.2541476 115.116148,58.0035386 C114.78426,57.7529296 114.258729,57.6736929 113.94694,57.9459538 C113.535144,58.3057436 113.775849,58.979716 114.193528,59.3339777 C113.834677,59.374978 113.407683,59.1418748 113.142956,59.373596 C112.942451,59.5495751 113.012554,59.8609937 113.127269,60.0950183 C113.397388,60.6455289 113.838599,61.1204883 114.382268,61.4466485 C114.07146,61.6129534 113.711628,61.9331249 113.897427,62.2196668 C113.949391,62.2989035 114.036163,62.3537242 114.086657,62.4334215 C114.205294,62.6195356 114.090579,62.8558636 113.971452,63.0410563 C113.77781,63.3409579 113.56995,63.6316459 113.346894,63.9126597 C113.557204,63.6413202 114.070479,63.7528043 114.224413,64.05547 C114.378836,64.3585963 114.244512,64.7326671 114.006259,64.9823548 C113.874386,65.1214797 113.705745,65.2371099 113.512103,65.2790316 C113.343952,65.3158859 112.602228,67.4713999 113.181195,67.8938419 C113.896446,68.4157905 116.329968,67.9629437 116.681956,67.3732754 C117.033944,67.7321438 117.54967,68.003944 118.059514,67.9085836 C118.568867,67.8136839 118.957622,67.2226336 118.682601,66.8089444 C119.233134,66.9996652 119.902794,66.8315177 120.278803,66.4081543 C120.654813,65.9843302 120.709719,65.3347737 120.410676,64.8598144 C120.710699,64.7750495 120.770998,64.3936079 120.694522,64.1079873 C120.539117,63.529836 120.038098,63.0456631 119.427267,62.883965 C119.737585,62.8890324 119.983682,62.5955803 119.998389,62.3048923 C120.012606,62.0137436 119.851809,61.7391793 119.656696,61.5129862 C119.081161,60.8468453 118.400717,60.6685628 117.551631,60.5676743 C116.692741,60.4658644 116.219665,59.6444749 115.839734,58.9815587" id="Fill-159" fill="#000000"></path>
                <path d="M111.016698,116.417803 C111.016698,116.417803 107.411922,118.274204 106.927536,118.852808 C106.927536,118.852808 114.021171,119.195 114.576586,118.835884 C115.131509,118.476768 113.440598,116.413043 113.440598,116.413043 L111.016698,116.417803" id="Fill-160" fill="#121C2C"></path>
                <path d="M123.573765,114.193051 C123.573765,114.193051 121.016039,115.958622 120.724638,116.413043 C120.724638,116.413043 126.76087,115.609506 126.76087,115.256106 C126.76087,114.902706 125.486187,113.826087 125.486187,113.826087 L123.573765,114.193051" id="Fill-161" fill="#121C2C"></path>
                <path d="M114.633609,86.3423443 C114.519049,86.9936353 110.288777,104.308072 122.392418,114.688406 L125.898551,113.854788 C125.898551,113.854788 121.818349,109.886559 119.895344,102.746025 C118.076755,95.9938112 119.520805,95.331563 120.611451,91.6122793 C121.818772,87.4959096 120.92089,84.5072464 120.92089,84.5072464 L114.633609,86.3423443" id="Fill-162" fill="#C96E30"></path>
                <path d="M108.562519,86.6135448 C106.603664,91.3232993 103.24051,107.375195 110.570572,116.413043 L114.23064,116.405662 C114.23064,116.405662 111.347382,113.226458 111.025006,105.849855 C110.703061,98.4741196 112.566541,95.2358648 113.881507,92.8021805 C115.196042,90.3680619 116.413043,86.2318841 116.413043,86.2318841 L108.562519,86.6135448" id="Fill-163" fill="#E27B33"></path>
                <path d="M106.678832,58.6376812 C105.662628,61.9988297 105.328404,68.2087463 110.418895,70.7101449 L113.826087,69.9312081 C113.826087,69.9312081 107.68376,66.9102362 108.999457,59.2753009 L106.678832,58.6376812" id="Fill-164" fill="#1E3F86"></path>
                <path d="M97.4868073,56.3523362 L100.054516,56.0507246 C100.054516,56.0507246 99.7453747,66.3226223 112.197271,67.187409 C121.702258,67.847784 122.449275,84.8410729 122.449275,84.8410729 C119.384577,86.8067628 114.241279,87.4020598 107.651236,86.9519368 C107.651236,86.9519368 108.072912,74.8282358 107.025949,71.5096741 C107.025949,71.5096741 96.6806765,68.4088734 97.4868073,56.3523362" id="Fill-165" fill="#3A5796"></path>
                <path d="M94.9167233,53.6716956 C94.5058044,54.283887 96.2223851,55.0605716 97.8867724,56.0507246 L100.018414,55.7126885 C100.018414,55.7126885 100.043268,55.1654426 100.016757,54.5953061 C99.9898323,54.0251696 99.7673893,53.6993773 99.5147073,54.1891305 C99.2620253,54.6783512 98.1841916,54.8444414 97.6763422,54.3978079 C97.1684928,53.950642 95.3280565,53.0595043 94.9167233,53.6716956" id="Fill-166" fill="#F1B29C"></path>
                <path d="M106.652874,57.8315742 C105.886316,56.839319 106.089647,56.8997637 106.089647,56.8997637 L108.42836,57.5951446 C108.42836,57.5951446 108.942787,56.0941916 109.378322,56.0519338 C109.813857,56.0096761 109.049739,57.0864467 109.225011,57.4854884 C109.400282,57.8839952 108.74515,58.6376812 108.74515,58.6376812 L106.652874,57.8315742" id="Fill-167" fill="#F1B29C"></path>
                <path d="M117.364501,60.6157314 C117.906247,60.7510027 118.460869,60.8055621 118.909258,61.1680894 C119.354428,61.5279112 119.555858,62.1447485 119.234398,62.6470562 C119.084015,62.8828792 119.441806,63.0663974 119.603686,62.8589813 C120.015744,62.3318739 119.903992,61.609074 119.490094,61.1112754 C119.013193,60.537274 118.126072,60.2996473 117.397153,60.3763011 C117.267005,60.39073 117.219177,60.5792081 117.364501,60.6157314" id="Fill-168" fill="#494D8F"></path>
                <path d="M121.019816,64.0950227 C121.251236,64.3182798 121.446117,64.6814383 121.347785,65.1508633 C121.256287,65.585191 120.986841,65.8445203 120.770571,66.0936129 C120.666595,66.2135283 120.756014,66.4762698 120.871279,66.3763403 C121.191822,66.0984875 121.531674,65.7070563 121.581582,65.0675074 C121.625252,64.5079022 121.396802,64.0823487 121.113691,63.8317937 C121.008527,63.7382012 120.916434,63.9946057 121.019816,64.0950227" id="Fill-169" fill="#494D8F"></path>
                <path d="M114.73017,66.9154003 C115.770614,67.4562462 117.241207,67.3682397 118.100721,66.6077059 C118.207081,66.5141168 118.063436,66.3364619 117.928426,66.4205278 C116.98767,67.0030784 115.920538,67.1918983 114.815336,66.793242 C114.718003,66.7584334 114.635584,66.8661429 114.73017,66.9154003" id="Fill-170" fill="#494D8F"></path>
                <path d="M120.250089,61.3180173 C120.813415,62.0189579 120.248978,62.9797216 119.887501,63.5812895 C119.807872,63.7141095 119.933797,63.8924955 120.033055,63.7713094 C120.354902,63.3776968 120.67638,62.94482 120.720083,62.3393741 C120.752675,61.8851684 120.610084,61.4518068 120.300829,61.2312481 C120.259719,61.2026482 120.214164,61.2734209 120.250089,61.3180173" id="Fill-171" fill="#494D8F"></path>
            </g>
        </g>
    </g>
</svg>