<?xml version="1.0" encoding="UTF-8"?>
<svg width="150px" height="119px" viewBox="0 0 150 119" version="1.1" xmlns="http://www.w3.org/2000/svg" xmlns:xlink="http://www.w3.org/1999/xlink">
    <!-- Generator: Sketch 59.1 (86144) - https://sketch.com -->
    <title>Service Design &amp; Innovation</title>
    <desc>Created with Sketch.</desc>
    <defs>
        <path d="M0.3116,0.300021186 L0.308766854,0.852881356 C0.302,2.39224576 1.342,3.80483051 2.9524,4.32167373 L2.9524,4.32167373 C3.7536,4.57883475 4.7928,4.75135593 6.1396,4.75135593 L6.1396,4.75135593 C7.3364,4.75135593 8.2768,4.59972458 9.0156,4.36561441 L9.0156,4.36561441 C10.6568,3.84552966 11.722,2.41349576 11.6984,0.847118644 L11.6984,0.847118644 L11.686,0.0543855932 L0.3116,0.300021186 Z" id="path-1"></path>
        <path d="M0.0208888889,0.167223421 L0.0208888889,1.69753775 C0.0208888889,2.09799384 0.116444444,2.49514946 0.301777778,2.86553467 L0.301777778,2.86553467 L0.373777778,3.00892142 C0.973777778,4.20625578 3.02933333,4.20625578 3.62977778,3.00892142 L3.62977778,3.00892142 L3.70133333,2.86553467 C3.88666667,2.49514946 3.98222222,2.09799384 3.98222222,1.69753775 L3.98222222,1.69753775 L3.98222222,0.167223421 L0.0208888889,0.167223421 Z" id="path-3"></path>
        <path d="M0.235,0.230940678 L0.235,0.660954237 C0.235,0.778945763 0.393,0.874347458 0.587666667,0.874347458 L0.587666667,0.874347458 L0.671666667,0.874347458 L0.671666667,0.230940678 C0.671666667,0.158128814 0.573666667,0.0988305085 0.453333333,0.0988305085 L0.453333333,0.0988305085 C0.332666667,0.0988305085 0.235,0.158128814 0.235,0.230940678" id="path-5"></path>
        <path d="M0.331,0.230940678 L0.331,0.874347458 L0.414333333,0.874347458 C0.609333333,0.874347458 0.767,0.778945763 0.767,0.660954237 L0.767,0.660954237 L0.767,0.230940678 C0.767,0.158128814 0.669666667,0.0988305085 0.549,0.0988305085 L0.549,0.0988305085 C0.428333333,0.0988305085 0.331,0.158128814 0.331,0.230940678" id="path-7"></path>
        <path d="M0.388818182,0.261531073 C0.388818182,0.663912429 0.770939394,0.990322034 1.24248485,0.990322034 L1.24248485,0.990322034 L11.8441818,0.990322034 C12.3161212,0.990322034 12.6982424,0.663912429 12.6982424,0.261531073 L12.6982424,0.261531073 L0.388818182,0.261531073 Z" id="path-9"></path>
        <linearGradient x1="49.9985483%" y1="97.8012315%" x2="49.9985483%" y2="-11.5345065%" id="linearGradient-11">
            <stop stop-color="#B5B8BA" offset="0%"></stop>
            <stop stop-color="#DBDDDF" offset="100%"></stop>
        </linearGradient>
    </defs>
    <g id="Services-Page" stroke="none" stroke-width="1" fill="none" fill-rule="evenodd">
        <g id="Services-Page-Consulting" transform="translate(-601.000000, -935.000000)">
            <g id="Service-Design-&amp;-Innovation" transform="translate(601.000000, 935.000000)">
                <g id="Group-13" transform="translate(43.000000, 26.220339)">
                    <path d="M14.6573336,53.1386862 C15.6014361,53.1386862 16.3069402,52.2435115 16.0763459,51.3163112 C16.0576697,51.2414561 16.0435672,51.1650576 16.0271779,51.0890449 C16.0126943,51.0234502 15.9970672,50.9586272 15.9841082,50.8922608 C15.9669566,50.7988849 15.9532352,50.7039655 15.9391328,50.609432 C15.9296041,50.5465382 15.9181697,50.4844162 15.9101656,50.4211366 C15.8968254,50.3157992 15.8884402,50.2085326 15.8796738,50.1020377 C15.8751,50.0480185 15.8682393,49.9955428 15.864809,49.9411378 C15.8548992,49.779852 15.849182,49.6170228 15.849182,49.4530361 C15.849182,45.0786417 19.4868541,41.5650812 23.8666205,41.842894 C24.3426738,41.8729904 24.8065303,41.9486172 25.255141,42.0663018 C25.4796369,42.1249512 25.699559,42.1940185 25.9156697,42.2727322 C26.0235344,42.3117031 26.1302557,42.3541468 26.2358336,42.3981338 C27.2919934,42.8407051 28.2296164,43.5213465 28.9831451,44.3713765 C29.2095467,44.6264241 29.4187967,44.8972916 29.6097516,45.1808922 C29.7374361,45.3699593 29.8567352,45.5652 29.967268,45.7658426 C30.519932,46.7686697 30.8553418,47.9069306 30.9071779,49.1119437 C30.915182,49.2990815 30.9163254,49.48429 30.9113705,49.668341 C30.9098459,49.7300772 30.9033664,49.7906558 30.9003172,49.852392 C30.8938377,49.9735493 30.8885016,50.0947065 30.8766861,50.2143204 C30.8698254,50.2868604 30.8576287,50.357857 30.8484811,50.4296253 C30.835141,50.5368919 30.8229443,50.6437727 30.8050303,50.7494959 C30.7920713,50.8251227 30.7749197,50.8988203 30.7600549,50.9740613 C30.7398541,51.0736109 30.7207967,51.1739322 30.6971656,51.2723242 C30.6937352,51.2854432 30.6918295,51.2989479 30.6887803,51.3124527 C30.4581861,52.2411964 31.1594975,53.1386862 32.1055057,53.1386862 L39.0332434,53.1386862 L46.482391,53.1386862 L46.482391,44.1583867 C46.482391,43.16482 47.4325918,42.4482944 48.3686902,42.7461715 C48.3808869,42.75003 48.3934648,42.7531168 48.4052803,42.7573612 C48.4266246,42.7635348 48.44835,42.7693226 48.4693131,42.7758821 C48.6175795,42.8206408 48.7677516,42.8611552 48.9194484,42.8970393 C48.9358377,42.9008978 48.952227,42.905528 48.9686164,42.9090007 C49.1264115,42.9448849 49.2864934,42.9745954 49.4481,43.0008333 C49.4793541,43.0054635 49.5106082,43.0104796 49.5422434,43.0151098 C49.7019443,43.0382608 49.8631697,43.0571675 50.0255385,43.0699006 C50.0537434,43.0722157 50.0815672,43.0737591 50.109391,43.0756884 C50.2755713,43.0868781 50.4421328,43.0942093 50.6109811,43.0945951 C50.6174607,43.0945951 50.6239402,43.094981 50.6304197,43.094981 C50.7451451,43.094981 50.8606328,43.09228 50.9768828,43.0868781 C50.9860303,43.0864922 50.9947967,43.0853347 51.0047066,43.0849488 C51.0481574,43.0826337 51.0908459,43.0787752 51.1346779,43.0760743 C51.2158623,43.0702865 51.2974279,43.0648846 51.3782311,43.0563958 C51.4361656,43.0502222 51.4933377,43.0428911 51.5505098,43.0355599 C51.6122557,43.0282287 51.6740016,43.0205117 51.7353664,43.0112513 C51.8100713,43.0000616 51.8843951,42.9869426 51.9587189,42.9734378 C51.9960713,42.9668784 52.0334238,42.9599331 52.0707762,42.9526019 C52.1660631,42.9336952 52.2609689,42.9132451 52.3551123,42.8904799 C52.3631164,42.8885506 52.3715016,42.8866213 52.3795057,42.8846921 C55.2358254,42.185144 57.4880262,39.8110019 58.0303992,36.8607841 C58.0445016,36.7855431 58.0586041,36.7099163 58.0700385,36.6335177 C58.0761369,36.5922317 58.0807107,36.5509456 58.0864279,36.5096595 C58.0982434,36.4236147 58.1092967,36.3375699 58.1180631,36.2503675 C58.1226369,36.2059947 58.1253049,36.1612359 58.1291164,36.1168631 C58.1340713,36.0616863 58.1397885,36.0068955 58.1432189,35.9513329 C58.1447434,35.9266384 58.1443623,35.9023298 58.1458869,35.8780212 C58.1493172,35.8093397 58.151223,35.741044 58.1531287,35.6731342 C58.1550344,35.6052244 58.1561779,35.5373146 58.1561779,35.4694048 C58.1561779,35.4011092 58.1550344,35.3331994 58.1531287,35.2660613 C58.151223,35.1973798 58.1493172,35.1290841 58.1458869,35.0611743 C58.1416943,34.9809173 58.135977,34.901432 58.1291164,34.8219466 C58.1253049,34.7775737 58.1226369,34.732815 58.1180631,34.6884421 C58.1089156,34.6012398 58.0978623,34.515195 58.0864279,34.4291502 C58.0807107,34.3878641 58.0761369,34.346578 58.0700385,34.3052919 C58.0586041,34.2285076 58.0441205,34.1528807 58.030018,34.0768681 C57.4891697,31.1112162 55.2548828,28.7490355 52.3795057,28.0541176 C52.3715016,28.0521883 52.3631164,28.0502591 52.3551123,28.0483298 C52.26135,28.0259504 52.1668254,28.0051145 52.0715385,27.9862078 C52.0338049,27.9788766 51.9956902,27.9719313 51.9579566,27.9653718 C51.8840139,27.951867 51.8100713,27.9387481 51.7353664,27.9279443 C51.6740016,27.9186838 51.6122557,27.910581 51.5501287,27.9028639 C51.4929566,27.8959186 51.4361656,27.8882016 51.3782311,27.8824138 C51.2974279,27.874311 51.2158623,27.8685232 51.1346779,27.8631213 C51.0908459,27.8600345 51.0481574,27.8561759 51.0047066,27.8538608 C50.9761205,27.8523174 50.9467721,27.8527033 50.9185672,27.8515457 C50.8209934,27.8476872 50.7234197,27.8438287 50.6254648,27.8438287 C50.5778213,27.8438287 50.5313213,27.8484589 50.4836779,27.8492306 C50.3929648,27.850774 50.3033951,27.8546325 50.2138254,27.8592628 C50.1051984,27.8654364 49.9980959,27.8735392 49.8909934,27.8839572 C49.8025672,27.8928318 49.7149033,27.9024781 49.6276205,27.9144395 C49.5208992,27.928716 49.4160836,27.9456934 49.311268,27.9642143 C49.2255098,27.9796483 49.1397516,27.9954682 49.0551369,28.0136032 C48.9507025,28.0359826 48.8481738,28.0618346 48.7456451,28.0884583 C48.6629361,28.110066 48.5798459,28.1312878 48.4986615,28.1555964 C48.4670262,28.1652427 48.4342475,28.172188 48.4026123,28.1818343 C47.451268,28.4797114 46.482391,27.7878803 46.482391,26.7796513 L46.482391,17.8001235 L7.7376,17.8001235 C3.61968197,17.8001235 0.281591803,21.1794078 0.281591803,25.3481435 L0.281591803,53.1386862 L7.64688689,53.1386862 L14.6573336,53.1386862 Z" id="Fill-3" fill="#D86600"></path>
                    <path d="M44.5587775,77.4171732 C44.5534414,77.4187166 44.5484865,77.4198741 44.5431504,77.4214175 C44.4429086,77.4530573 44.3396176,77.4781377 44.2374701,77.5055331 C44.1604783,77.5259832 44.0846299,77.549906 44.0064947,77.5684268 C43.8978676,77.5935071 43.7865725,77.612028 43.6764209,77.6324781 C43.6020971,77.6463688 43.529298,77.6637321 43.454593,77.6749217 C43.3303389,77.6942143 43.2041791,77.7057898 43.0784004,77.7185229 C43.0151299,77.7254682 42.9530029,77.7355004 42.8889701,77.7405164 C42.6983963,77.7551788 42.5059168,77.7628958 42.3115316,77.7628958 C41.3666668,77.7628958 40.462966,77.5865618 39.6297775,77.2651478 C39.429675,77.1879776 39.2349086,77.1007752 39.0435725,77.0073993 C38.8930193,76.9337017 38.7447529,76.8573032 38.5999168,76.7743452 C38.2713676,76.585664 37.9580643,76.3722883 37.662675,76.1376908 C37.5125029,76.0180769 37.3688102,75.8915178 37.228548,75.7614859 C37.1378348,75.6777562 37.0494086,75.5920973 36.9632693,75.5037374 C36.8405398,75.3783357 36.7208594,75.2494615 36.6068963,75.1155711 C36.407175,74.8813595 36.2223184,74.633643 36.0515643,74.3758945 C35.9353143,74.2007181 35.8247816,74.0216831 35.7233963,73.8368604 C35.172257,72.8332616 34.8383717,71.6907564 34.7861545,70.4745536 C34.7747201,70.2040719 34.7766258,69.9301176 34.7933963,69.6530765 C35.0289455,65.7984236 38.1669332,62.6849907 41.9784086,62.5186889 C42.1735561,62.5102001 42.366798,62.510586 42.558134,62.5171455 C42.5783348,62.5175313 42.5981545,62.5175313 42.6183553,62.518303 C42.7997816,62.5256342 42.9796832,62.5406824 43.1576791,62.5607466 C43.1855029,62.5642193 43.2137078,62.5669203 43.2411504,62.5700071 C43.4153348,62.5920006 43.5872324,62.6197819 43.756843,62.6533509 C43.7861914,62.6591387 43.8151586,62.6653123 43.8441258,62.6711001 C44.0137365,62.7069842 44.1814414,62.7474986 44.3464783,62.7949583 C44.371634,62.8015178 44.3967898,62.8096206 44.4219455,62.8169518 C44.4783553,62.8335434 44.5351463,62.8493633 44.591175,62.8674983 C45.5284168,63.1684622 46.482048,62.4523225 46.482048,61.4568265 L46.482048,53.1386476 L39.0332816,53.1386476 L32.1055439,53.1386476 C31.1595357,53.1386476 30.4582242,52.2411578 30.6884373,51.3124141 C30.6918676,51.2992952 30.6937734,51.2854046 30.6968225,51.2722856 C30.7208348,51.1738936 30.7398922,51.0739581 30.7597119,50.9740227 C30.7749578,50.8987817 30.7921094,50.8250842 30.8050684,50.7494573 C30.8226012,50.6437341 30.8351791,50.5368534 30.8485193,50.4299726 C30.8576668,50.3578184 30.8694824,50.2868218 30.8767242,50.2142818 C30.8885398,50.0946679 30.8938758,49.9735107 30.9003553,49.8527393 C30.9034045,49.7906172 30.9095029,49.7300386 30.9114086,49.6683024 C30.9163635,49.4842514 30.9152201,49.2990429 30.907216,49.1122909 C30.8553799,47.9072778 30.5199701,46.7686311 29.9673061,45.765804 C29.8567734,45.5651614 29.7374742,45.3699207 29.6097898,45.1808536 C29.4188348,44.8972531 29.2095848,44.6267714 28.9831832,44.371338 C28.2296545,43.5213079 27.2920316,42.8406665 26.2358717,42.3980952 C26.1302939,42.3541082 26.0235725,42.3120504 25.9153266,42.2726936 C25.6995971,42.19398 25.4792939,42.1249126 25.2551791,42.0662632 C24.8065684,41.9485786 24.3423307,41.8729518 23.8666586,41.8428554 C19.4868922,41.5650426 15.8492201,45.0786031 15.8492201,49.4529975 C15.8492201,49.6169842 15.8545561,49.7798134 15.8648471,49.9410992 C15.8682775,49.9955042 15.8751381,50.04798 15.8793307,50.1019991 C15.8884783,50.208494 15.8968635,50.3157606 15.9098225,50.421098 C15.9178266,50.4843776 15.9296422,50.5464996 15.9391709,50.6093934 C15.9532734,50.7043127 15.9666135,50.7988463 15.9841463,50.8922223 C15.9967242,50.9585887 16.0127324,51.0234116 16.027216,51.0890063 C16.0436053,51.165019 16.0577078,51.2414175 16.076384,51.3162727 C16.3065971,52.243473 15.6014742,53.1386476 14.6573717,53.1386476 L7.646925,53.1386476 L0.281629918,53.1386476 L0.281629918,80.9295761 C0.281629918,85.097926 3.61972008,88.4772103 7.73763811,88.4772103 L46.482048,88.4772103 L46.482048,78.8181987 C46.482048,77.8084262 45.510884,77.1158234 44.5587775,77.4171732" id="Fill-5" fill="#308DFC"></path>
                    <path d="M82.2624258,53.1386862 L76.9271225,53.1386862 C75.9814955,53.1386862 75.280184,54.0354042 75.5096348,54.9637621 C75.6822947,55.6636961 75.7596676,56.4014434 75.7268889,57.1631136 C75.5580406,61.0173807 72.4909463,64.1863761 68.687475,64.4279189 C64.3073275,64.7061176 60.668893,61.1917854 60.668893,56.817391 C60.668893,56.1768781 60.7470283,55.5545002 60.8941512,54.9602894 C61.1239832,54.0330891 60.4188602,53.1386862 59.4751389,53.1386862 L56.8604668,53.1386862 L56.1492455,53.1386862 L46.4822004,53.1386862 L46.4822004,61.4568651 C46.4822004,62.4523611 45.5285693,63.1685008 44.5913275,62.8675369 C44.5352988,62.8494019 44.4781266,62.833582 44.4217168,62.8169904 C44.3965611,62.8092734 44.3717865,62.8015563 44.3466307,62.794611 C44.1812127,62.7475372 44.0135078,62.7070228 43.8438971,62.6711387 C43.8149299,62.664965 43.7859627,62.6591773 43.7569955,62.6533895 C43.5870037,62.6198205 43.4151061,62.5920392 43.2413029,62.5700457 C43.2134791,62.5669589 43.1856553,62.5642579 43.1578316,62.5607852 C42.9798357,62.540721 42.799934,62.5256728 42.6181266,62.5183416 C42.598307,62.5175699 42.5781061,62.5175699 42.5582865,62.5171841 C42.3665693,62.5106246 42.1737086,62.5102387 41.9785611,62.5187275 C38.1670857,62.6850293 35.0287168,65.7984622 34.7935488,69.6531151 C34.7767783,69.9301562 34.7744914,70.2041105 34.7859258,70.4745922 C34.8385242,71.690795 35.1724094,72.8333002 35.7231676,73.836899 C35.824934,74.0217217 35.9354668,74.2007566 36.0513357,74.3759331 C36.2224709,74.6336816 36.4069463,74.8813981 36.6066676,75.1156097 C36.7210119,75.2495 36.8406922,75.3783743 36.9634217,75.5037759 C37.0495611,75.59175 37.1379873,75.6777948 37.2283193,75.7615245 C37.3685816,75.8915563 37.5126553,76.0181155 37.6624463,76.1373435 C37.9578357,76.3723269 38.2715201,76.5857025 38.5996881,76.7743838 C38.7445242,76.8573418 38.8931717,76.9337403 39.043725,77.007052 C39.2350611,77.1008138 39.4298275,77.1880162 39.6295488,77.2651864 C40.4631184,77.5866004 41.3668193,77.7625485 42.311684,77.7625485 C42.5056881,77.7625485 42.6985488,77.7552174 42.8891225,77.740555 C42.9527742,77.735539 43.0149012,77.7255068 43.0781717,77.7185615 C43.2043316,77.7058284 43.3304914,77.6942529 43.4543643,77.6749603 C43.5290693,77.6637706 43.6018684,77.6464073 43.6761922,77.6321308 C43.786725,77.6120666 43.8976389,77.5935457 44.006266,77.5680796 C44.0844012,77.5499446 44.1602496,77.5260218 44.2376225,77.5051858 C44.3397701,77.4781762 44.4426799,77.4530959 44.5433029,77.4214561 C44.5482578,77.4199127 44.5535939,77.4187552 44.5589299,77.4172118 C45.5106553,77.115862 46.4822004,77.8084648 46.4822004,78.8182373 L46.4822004,88.4772489 L85.2269914,88.4772489 C89.3445283,88.4772489 92.6829996,85.0979646 92.6829996,80.9292289 L92.6829996,53.1386862 L85.652352,53.1386862 L82.2624258,53.1386862 Z" id="Fill-7" fill="#FEBA40"></path>
                    <path d="M9.5570459,0.0992409138 C8.89956639,0.437246514 5.91746803,6.3959457 6.67366475,9.10269147 C7.18097213,10.9169635 9.43012377,9.92108174 9.43012377,9.92108174 L9.95077131,5.28778122 L9.5570459,0.0992409138 Z" id="Fill-9" fill="#D14369"></path>
                    <path d="M20.6819803,0.462674105 C21.3394598,0.800293854 23.595091,6.39590712 22.8385131,9.10265288 C22.3315869,10.916925 20.768882,9.92104315 20.768882,9.92104315 L19.658218,4.37134618 L20.6819803,0.462674105 Z" id="Fill-11" fill="#D14369"></path>
                </g>
                <g id="Group-16" transform="translate(52.000000, 39.330508)">
                    <mask id="mask-2" fill="white">
                        <use xlink:href="#path-1"></use>
                    </mask>
                    <g id="Clip-15"></g>
                    <path d="M0.3116,0.300021186 L0.308766854,0.852881356 C0.302,2.39224576 1.342,3.80483051 2.9524,4.32167373 L2.9524,4.32167373 C3.7536,4.57883475 4.7928,4.75135593 6.1396,4.75135593 L6.1396,4.75135593 C7.3364,4.75135593 8.2768,4.59972458 9.0156,4.36561441 L9.0156,4.36561441 C10.6568,3.84552966 11.722,2.41349576 11.6984,0.847118644 L11.6984,0.847118644 L11.686,0.0543855932 L0.3116,0.300021186 Z" id="Fill-14" fill="#002D51"></path>
                </g>
                <path d="M58.1888467,25.2125233 C56.6067952,25.1926822 53.7991822,25.6202792 52.1354265,26.5831824 C52.2354226,31.0603988 51.9203943,35.4250471 52.0195774,40.4274466 C52.1931478,41.781099 63.5487983,41.4389403 63.5849757,40.6898357 C63.7914716,36.4320867 63.6126169,29.5378942 64,26.9646184 C62.5378625,25.8539189 59.5554596,25.22953 58.1888467,25.2125233" id="Fill-17" fill="#D14369"></path>
                <g id="Group-21" transform="translate(56.000000, 24.203390)">
                    <mask id="mask-4" fill="white">
                        <use xlink:href="#path-3"></use>
                    </mask>
                    <g id="Clip-20"></g>
                    <path d="M0.0208888889,0.167223421 L0.0208888889,1.69753775 C0.0208888889,2.09799384 0.116444444,2.49514946 0.301777778,2.86553467 L0.301777778,2.86553467 L0.373777778,3.00892142 C0.973777778,4.20625578 3.02933333,4.20625578 3.62977778,3.00892142 L3.62977778,3.00892142 L3.70133333,2.86553467 C3.88666667,2.49514946 3.98222222,2.09799384 3.98222222,1.69753775 L3.98222222,1.69753775 L3.98222222,0.167223421 L0.0208888889,0.167223421 Z" id="Fill-19"></path>
                </g>
                <g id="Group-24" transform="translate(55.000000, 21.177966)">
                    <mask id="mask-6" fill="white">
                        <use xlink:href="#path-5"></use>
                    </mask>
                    <g id="Clip-23"></g>
                    <path d="M0.235,0.230940678 L0.235,0.660954237 C0.235,0.778945763 0.393,0.874347458 0.587666667,0.874347458 L0.587666667,0.874347458 L0.671666667,0.874347458 L0.671666667,0.230940678 C0.671666667,0.158128814 0.573666667,0.0988305085 0.453333333,0.0988305085 L0.453333333,0.0988305085 C0.332666667,0.0988305085 0.235,0.158128814 0.235,0.230940678" id="Fill-22"></path>
                </g>
                <path d="M59.7588997,17.1440678 L59.2411003,17.1440678 L58.1126522,17.1440678 C57.4981507,17.1440678 57,17.6958616 57,18.3765352 L57,21.298951 C57,22.2002569 57.2346278,23.0827855 57.6753737,23.8398482 L58.0614116,24.5030249 C58.3187702,24.944716 58.7606719,25.2118644 59.2353213,25.2118644 L59.2411003,25.2118644 L59.7588997,25.2118644 L59.7646787,25.2118644 C60.2393281,25.2118644 60.6812298,24.944716 60.9385884,24.5030249 L61.324241,23.8398482 C61.7653722,23.0827855 62,22.2002569 62,21.298951 L62,18.51267 C62,17.7568875 61.446756,17.1440678 60.7644475,17.1440678 L59.7588997,17.1440678 Z" id="Fill-25" fill="#F4CB9F"></path>
                <g id="Group-29" transform="translate(60.000000, 21.177966)">
                    <mask id="mask-8" fill="white">
                        <use xlink:href="#path-7"></use>
                    </mask>
                    <g id="Clip-28"></g>
                    <path d="M0.331,0.230940678 L0.331,0.874347458 L0.414333333,0.874347458 C0.609333333,0.874347458 0.767,0.778945763 0.767,0.660954237 L0.767,0.660954237 L0.767,0.230940678 C0.767,0.158128814 0.669666667,0.0988305085 0.549,0.0988305085 L0.549,0.0988305085 C0.428333333,0.0988305085 0.331,0.158128814 0.331,0.230940678" id="Fill-27"></path>
                </g>
                <g id="Group-34" transform="translate(52.000000, 16.135593)">
                    <path d="M4.32225172,1.42350481 C4.00401034,1.95502621 4.28166552,4.38655276 4.28166552,4.38655276 C4.28166552,4.38655276 4.4129069,3.56507539 4.83887241,3.27047394 C5.53073448,2.79237566 5.28721724,2.04561325 5.28721724,2.04561325 C5.28721724,2.04561325 5.73214828,2.79237566 7.63287241,2.59726511 C9.09473448,2.44706096 9.20397586,4.38655276 9.20397586,4.38655276 C9.20397586,4.38655276 9.7004931,1.57487033 8.66080345,0.719326047 C7.61618276,-0.140476605 4.95835517,0.36084912 4.32225172,1.42350481" id="Fill-30" fill="#4B2A12"></path>
                    <polygon id="Fill-32" fill="#DEDEDE" points="0.477827586 21.3298912 12.3301379 21.3298912 12.3301379 13.5363086 0.477827586 13.5363086"></polygon>
                </g>
                <g id="Group-37" transform="translate(51.000000, 37.313559)">
                    <mask id="mask-10" fill="white">
                        <use xlink:href="#path-9"></use>
                    </mask>
                    <g id="Clip-36"></g>
                    <path d="M0.388818182,0.261531073 C0.388818182,0.663912429 0.770939394,0.990322034 1.24248485,0.990322034 L1.24248485,0.990322034 L11.8441818,0.990322034 C12.3161212,0.990322034 12.6982424,0.663912429 12.6982424,0.261531073 L12.6982424,0.261531073 L0.388818182,0.261531073 Z" id="Fill-35" fill="url(#linearGradient-11)"></path>
                </g>
                <g id="Group-165">
                    <path d="M51.2147089,35.1727414 C51.2162278,35.1700456 51.2181266,35.1673498 51.2196456,35.164654 C51.3593924,34.9301201 51.6028101,34.7791557 51.8724304,34.7595149 C52.2267342,34.7337123 52.7074937,34.6990521 52.9436962,34.6821071 C53.0773671,34.6720942 53.2072405,34.6162528 53.294962,34.5134275 C53.4893924,34.2858256 53.3261013,34.0401233 53.1217975,34.0547576 L51.4478734,34.1760683 L51.4478734,34.1537317 C51.4490127,34.0370424 51.5382532,33.9407641 51.6533165,33.9322916 L53.2858481,33.8140618 C53.4198987,33.804434 53.5497722,33.7485926 53.6374937,33.6457673 C53.8319241,33.4177803 53.6686329,33.172078 53.4647089,33.1870974 L51.5386329,33.3265084 L51.5393924,33.2217576 C51.5405316,33.1050683 51.6297722,33.00879 51.7448354,33.0003175 L53.3511646,32.8840133 C53.4848354,32.8743854 53.6150886,32.818544 53.7028101,32.7157188 C53.8972405,32.4877317 53.7339494,32.2420294 53.5296456,32.2566638 L51.6817975,32.3906832 C51.682557,32.2739939 51.7721772,32.1773304 51.8872405,32.169243 L53.0101519,32.087599 C53.1438228,32.0779712 53.2740759,32.0221298 53.3617975,31.9193045 C53.5562278,31.6913175 53.3929367,31.4456152 53.1886329,31.4606346 L51.8059747,31.5607641 C51.592557,31.5761686 51.3969873,31.686311 51.2712911,31.8615375 C51.2712911,31.8615375 50.5026835,32.7854243 50.3226835,33.141654 C50.0492658,33.6823531 50.0648354,34.4633628 50.0663544,34.9100942 C50.0674937,35.2513045 50.3823038,35.5058644 50.7176203,35.4816023 C50.9226835,35.4665828 51.1083797,35.351434 51.2147089,35.1727414" id="Fill-38" fill="#FCD39E"></path>
                    <path d="M64.0133924,35.1727414 C64.0118734,35.1700456 64.0099747,35.1673498 64.0084557,35.164654 C63.8687089,34.9301201 63.6252911,34.7791557 63.3556709,34.7595149 C63.0013671,34.7337123 62.5206076,34.6990521 62.2844051,34.6821071 C62.1507342,34.6720942 62.0208608,34.6162528 61.9331392,34.5134275 C61.7387089,34.2858256 61.902,34.0401233 62.1063038,34.0547576 L63.7802278,34.1760683 L63.7802278,34.1537317 C63.7790886,34.0370424 63.6898481,33.9407641 63.5747848,33.9322916 L61.9418734,33.8140618 C61.8082025,33.804434 61.6783291,33.7485926 61.5906076,33.6457673 C61.3957975,33.4177803 61.5590886,33.172078 61.7633924,33.1870974 L63.6890886,33.3265084 L63.6887089,33.2217576 C63.6875696,33.1050683 63.5983291,33.00879 63.4832658,33.0003175 L61.8769367,32.8840133 C61.7432658,32.8743854 61.6130127,32.818544 61.5252911,32.7157188 C61.3308608,32.4877317 61.4941519,32.2420294 61.6980759,32.2566638 L63.5463038,32.3906832 C63.5455443,32.2739939 63.4559241,32.1773304 63.3408608,32.169243 L62.2179494,32.087599 C62.0842785,32.0779712 61.9540253,32.0221298 61.8663038,31.9193045 C61.6718734,31.6913175 61.8351646,31.4456152 62.0394684,31.4606346 L63.4221266,31.5607641 C63.6355443,31.5761686 63.8311139,31.686311 63.9568101,31.8615375 C63.9568101,31.8615375 64.7254177,32.7854243 64.9054177,33.141654 C65.1788354,33.6823531 65.1632658,34.4633628 65.1617468,34.9100942 C65.1606076,35.2513045 64.8457975,35.5058644 64.510481,35.4816023 C64.3054177,35.4665828 64.1197215,35.351434 64.0133924,35.1727414" id="Fill-40" fill="#FCD39E"></path>
                    <path d="M54.1377342,56.509865 C51.8239367,56.509865 53.2016582,49.7245544 53.2016582,49.7245544 C53.5308987,49.5843731 55.9612785,48.9878327 57.0340633,49.9151854 C57.2922911,51.5873472 56.4515316,56.509865 54.1377342,56.509865" id="Fill-42" fill="#9A134E"></path>
                    <path d="M61.3529241,56.509865 C63.6667215,56.509865 62.2893797,49.7245544 62.2893797,49.7245544 C61.9597595,49.5843731 59.5297595,48.9878327 58.4565949,49.9151854 C58.1987468,51.5873472 59.0391266,56.509865 61.3529241,56.509865" id="Fill-44" fill="#9A134E"></path>
                    <path d="M52.5067595,50.3049971 C52.5067595,50.3049971 55.4008101,51.0629 57.4981519,50.5002495 C57.6154937,47.6823757 57.5646076,41.7909129 57.5486582,39.6053951 C57.5441013,38.9480068 57.2904304,38.3033272 56.8001772,37.8727706 C56.4868861,37.5977997 56.0524557,37.3748191 55.4566329,37.3401589 C52.5067595,37.167243 52.6548608,38.6722657 52.5067595,45.0497414 C52.4623291,46.9668353 52.5067595,50.3049971 52.5067595,50.3049971" id="Fill-46" fill="#3352A0"></path>
                    <path d="M58.0106582,50.4512631 C58.0106582,50.4512631 60.2261013,51.2026191 63.0263544,50.3330333 C63.1436962,47.5151595 63.0882532,41.7346094 63.0723038,39.5490916 C63.0673671,38.8913181 62.8140759,38.2470236 62.3238228,37.816467 C62.0109114,37.5414961 61.5761013,37.3185155 60.9802785,37.2838553 C58.0304051,37.1105544 58.1785063,38.6159621 58.0304051,44.9930528 C57.9859747,46.9105317 58.0106582,50.4512631 58.0106582,50.4512631" id="Fill-48" fill="#3352A0"></path>
                    <path d="M135.393911,55.5927563 C135.712899,55.6328081 136.133278,55.9944294 136.552139,56.4658081 L136.702899,55.6705492 C137.230367,56.3791576 137.635177,58.0767369 137.635177,58.0767369 C137.635177,58.0763518 137.634797,58.0759667 137.634418,58.0755816 C137.866063,58.777643 137.543658,59.2401641 136.814924,59.4273291 C136.456823,59.5189861 135.984038,59.4523615 135.463405,58.5184618 C135.148595,57.9542709 134.858848,57.4902094 134.652646,57.165944 C134.171886,56.4095816 134.948089,55.5365298 135.393911,55.5927563" id="Fill-50" fill="#FCCE9A"></path>
                    <path d="M143.087127,66.2956317 C142.401684,65.3859942 138.617506,58.8259748 137.935101,58.4477935 C137.252316,58.0699974 135.880671,59.0142951 136.163582,59.8226479 C136.774975,61.5722175 139.458646,66.5629003 140.068519,67.4374926 C141.170544,69.0183825 145.823582,74.7280718 147.435608,72.984279 C148.81181,71.495046 143.77257,67.2056544 143.087127,66.2956317" id="Fill-52" fill="#1C75BB"></path>
                    <path d="M135.111684,24.5452712 L97.2209241,17.0625204 L95.5318101,25.8596628 C95.3419367,26.8474783 96.1595316,27.7120576 97.1457342,27.6042259 C97.1783924,27.6007599 97.2118101,27.6003748 97.2448481,27.5972939 C97.3291519,27.5892065 97.4138354,27.5842 97.4992785,27.5791935 C97.6040886,27.5726466 97.7096582,27.5676401 97.8156076,27.5657146 C97.9021899,27.5641741 97.9887722,27.5649443 98.0757342,27.5668699 C98.1816835,27.5687955 98.2872532,27.5722615 98.3943418,27.5788084 C98.4816835,27.5842 98.5694051,27.5915172 98.6578861,27.5999896 C98.7642152,27.6103877 98.8705443,27.6230964 98.9780127,27.6381159 C99.0664937,27.6508246 99.1545949,27.6646887 99.2438354,27.6804783 C99.2901646,27.6885657 99.3364937,27.6931871 99.3832025,27.7024298 C99.4796582,27.7213003 99.5738354,27.744022 99.6687722,27.7667437 C99.6877595,27.7709799 99.7067468,27.7732906 99.7253544,27.7782971 C99.7344684,27.7802227 99.7432025,27.7833036 99.7523165,27.7856142 C99.7944684,27.7960123 99.835481,27.8083359 99.8776329,27.8195042 C99.9566203,27.8406854 100.034848,27.8618667 100.112696,27.8857437 C100.167759,27.9026887 100.222063,27.9211741 100.277127,27.9392744 C100.335987,27.9585301 100.394848,27.9781709 100.452949,27.998967 C100.523962,28.0243845 100.594215,28.0513424 100.663709,28.0786854 C100.699405,28.0925495 100.735481,28.1067987 100.770418,28.121433 C100.860418,28.1580188 100.948899,28.1965301 101.03662,28.2365819 C101.044215,28.240433 101.05181,28.243899 101.059405,28.247365 C103.740797,29.4831935 105.481557,32.2290511 105.452316,35.2387113 C105.451937,35.315734 105.451557,35.3927566 105.448519,35.4705495 C105.447,35.5121417 105.443582,35.5533489 105.441304,35.5949411 C105.436367,35.6815916 105.431051,35.7682421 105.423076,35.8548926 C105.419278,35.8991806 105.413962,35.9438537 105.409025,35.9881417 C105.403329,36.0428278 105.398772,36.097899 105.391557,36.1529702 C105.388519,36.1776175 105.383962,36.2011094 105.380544,36.2257566 C105.37143,36.2927663 105.360038,36.3601612 105.349025,36.427556 C105.338013,36.4941806 105.32662,36.5611903 105.313709,36.6278149 C105.301177,36.6936693 105.286747,36.7599087 105.272316,36.8265333 C105.257886,36.8931579 105.243076,36.9597825 105.226747,37.0256369 C105.221051,37.0495139 105.216494,37.0733909 105.210418,37.0968828 C105.196747,37.1507987 105.180418,37.2035592 105.165608,37.2567049 C105.153456,37.2994524 105.142063,37.3425851 105.129532,37.3853327 C105.104468,37.4689023 105.077506,37.5509314 105.049785,37.6333456 C105.036873,37.6726272 105.024342,37.7122939 105.010291,37.7511903 C104.984848,37.8239767 104.956747,37.8952227 104.929025,37.9668537 C103.84219,40.7677825 101.212443,42.6509864 98.2694051,42.7765333 C98.2610506,42.7769184 98.2526962,42.7769184 98.2443418,42.7773036 C98.1482658,42.7815398 98.0514304,42.7830803 97.9545949,42.7830803 C97.917,42.7834654 97.8790253,42.7826951 97.8410506,42.78231 C97.7658608,42.7811547 97.6910506,42.7796142 97.615481,42.7757631 C97.553962,42.7734524 97.492443,42.7688311 97.4301646,42.7645948 C97.3728228,42.7603586 97.3158608,42.7568926 97.2577595,42.7511159 C97.1772532,42.7437987 97.0967468,42.7337858 97.0158608,42.7233877 C96.9729494,42.7179961 96.930038,42.7133748 96.8871266,42.7072129 C96.8776329,42.7056725 96.868519,42.7049023 96.8594051,42.7037469 C96.7451013,42.6864168 96.631557,42.6667761 96.5191519,42.6448246 C96.5176329,42.6444395 96.5157342,42.6440544 96.5142152,42.6440544 C96.5096582,42.642899 96.5051013,42.6413586 96.5001646,42.6405883 C96.3357342,42.6074686 96.1735823,42.5681871 96.0137089,42.5254395 C95.9867468,42.5177372 95.9594051,42.5111903 95.9328228,42.503488 C95.7759873,42.4595851 95.6218101,42.4099055 95.4699114,42.3563748 C95.4399114,42.3455916 95.4102911,42.3348084 95.3806709,42.3240252 C95.2280127,42.2674136 95.0768734,42.2073359 94.9295316,42.1414816 C94.913962,42.1349346 94.8987722,42.1272324 94.8832025,42.1203003 C94.741557,42.0559864 94.6025696,41.9874362 94.4658608,41.9146498 C94.4464937,41.9042518 94.4263671,41.8946239 94.4073797,41.8838408 C94.3959873,41.8780641 94.3842152,41.8722874 94.3732025,41.8665107 C93.5134557,41.3935916 92.4494051,41.911954 92.2625696,42.8855204 L90.5734557,51.683433 L100.026873,53.550077 L100.72257,53.6875625 L103.279785,54.192446 C104.20257,54.3749896 104.723962,55.3874524 104.325228,56.2508764 C104.069278,56.8050544 103.875608,57.3996693 103.755228,58.0274039 C102.932316,62.3125592 105.829405,66.4583036 110.165354,67.0313521 C113.930544,67.5293036 117.525987,65.0172097 118.415734,61.2739087 C118.591557,60.5344913 118.654975,59.7962291 118.61738,59.0772227 C118.567633,58.1232971 119.422443,57.3804136 120.346747,57.5629573 L125.564848,58.5935204 L128.880038,59.2482129 L135.755354,60.6057372 L140.983329,33.3797696 C141.767127,29.2960285 139.138519,25.3405301 135.111684,24.5452712" id="Fill-54" fill="#1C75BB"></path>
                    <path d="M146.785215,115.496856 C145.208506,115.107891 143.13319,114.243697 143.14838,113.67527 C143.183696,112.375898 149.119139,112.987458 149.119139,112.987458 C149.119139,112.987458 149.332937,114.37425 149.261544,115.17182 C149.218633,115.64782 147.823063,115.752956 146.785215,115.496856" id="Fill-59" fill="#151912"></path>
                    <path d="M140.552013,118.604874 C139.021633,118.376887 136.251759,117.677136 135.996949,116.745932 C135.837456,116.163641 136.432899,115.674547 138.078342,115.553621 C139.255937,115.467741 143.198848,115.586741 143.198848,115.586741 C143.198848,115.586741 143.594544,117.770718 143.449861,118.269825 C143.305177,118.768547 141.750114,118.783181 140.552013,118.604874" id="Fill-61" fill="#151912"></path>
                    <path d="M149.148228,87.4979272 C149.148228,87.4979272 148.382658,96.7595162 148.332152,100.225921 C148.280886,103.692325 149.454304,111.97072 149.403418,113.005134 C149.352152,114.040319 145.678861,114.091924 145.577089,112.953914 C145.474937,111.815519 144.82481,104.975138 144.778101,103.318765 C144.698354,100.465076 144.046329,94.9999337 144.046329,94.9999337 C144.046329,94.9999337 142.815949,101.869969 142.897595,104.262678 C142.943924,105.622898 143.388987,114.537115 143.487342,115.542261 C143.563671,116.320189 139.495823,116.567432 139.346203,115.710555 C139.099747,114.303351 138.983165,105.026358 138.932658,103.732377 C138.881392,102.439167 139.947342,90.5626586 139.874051,89.6526359 C139.80038,88.7426133 148.877089,86.5440016 149.148228,87.4979272" id="Fill-63" fill="#002D51"></path>
                    <path d="M139.984975,72.918155 C139.688772,74.6854398 140.270165,78.0251421 140.189658,81.6282618 C140.091304,86.0085401 139.568392,89.7110191 139.762443,89.8781583 C142.537253,92.2693265 149.417506,89.261977 149.556494,88.170566 C150.436747,81.2458443 148.236114,72.278867 147.054722,70.7642165 C145.171557,68.3495563 140.268266,71.231744 139.984975,72.918155" id="Fill-65" fill="#1C75BB"></path>
                    <path d="M142.959532,62.1598233 C145.121051,61.5655935 146.005101,62.7417294 146.005101,64.7859107 C146.005101,66.7191793 146.165354,67.5564155 145.568772,68.1491049 C145.51143,68.8114997 145.464722,69.5690175 145.467759,69.9872505 C145.472316,70.5749333 142.948139,71.342079 142.488266,71.0000984 C142.319278,70.8745515 142.392949,70.3989366 142.407,69.7369269 C141.795608,69.825888 141.43143,69.9445029 141.249532,69.7253735 C141.034215,69.4650369 140.824994,66.9991566 141.049785,66.2216129 C141.100291,66.0475417 140.832949,65.6077424 140.827253,65.3300757 C140.804848,64.2760207 140.910418,62.7228589 142.959532,62.1598233" id="Fill-67" fill="#FCCE9A"></path>
                    <path d="M143.386025,69.4491317 C143.40843,69.3185783 142.853241,69.6497757 142.407038,69.7368113 C142.398304,70.1296269 142.369063,70.4569731 142.381975,70.68419 C142.378937,70.1126819 143.302861,69.9301382 143.386025,69.4491317" id="Fill-69" fill="#E66B81"></path>
                    <path d="M143.139418,66.1478252 C142.729291,66.0738835 142.534481,66.786343 142.447519,66.7551489 C142.272076,66.6923754 142.643468,65.3306149 142.086,64.7232913 C141.74157,64.3478058 141.105114,64.4822104 140.946,64.0347087 C140.722709,63.2567799 141.574861,62.301699 142.88119,62.0001553 C145.153595,61.4760162 146.692329,62.6787249 146.692329,64.7232913 C146.692329,66.3072621 145.510177,67.9540065 145.502582,69.0431068 C145.499165,69.4894531 144.03638,69.4513269 143.639924,69.1128123 C143.243468,68.7742977 143.134101,67.9027864 143.292456,67.6320518 C143.626253,67.0609288 143.668785,66.2429482 143.139418,66.1478252" id="Fill-71" fill="#4B2A12"></path>
                    <path d="M133.660937,58.5625573 C133.154734,57.6405961 132.512582,56.7097773 132.016253,56.5799942 C131.561316,56.4606091 130.640051,57.2604893 131.038405,58.1104343 C131.208911,58.4751366 131.448152,58.9961948 131.699544,59.6243146 C132.116127,60.6641204 132.597646,60.7977547 132.98157,60.7515411 C134.03081,60.6244537 134.386253,59.8823405 133.660937,58.5625573" id="Fill-73" fill="#FCCE9A"></path>
                    <path d="M137.708354,67.3720233 C137.118228,66.3345282 134.931266,60.373745 134.273165,59.8881172 C133.615443,59.4032595 132.067215,60.1958227 132.252911,61.0731107 C132.655063,62.971334 134.777089,68.5150395 135.293544,69.5051657 C136.226962,71.2959424 140.516962,77.8116738 141.898861,75.5387353 C143.111392,73.5457741 138.298481,68.4095184 137.708354,67.3720233" id="Fill-75" fill="#1C75BB"></path>
                    <path d="M134.011747,59.4625285 C134.011747,59.4625285 134.021241,58.0210495 133.568203,57.2138521 C133.254152,56.6535123 132.965544,57.2446612 133.114405,57.7056417 C133.263266,58.1673926 133.630481,58.9083505 134.011747,59.4625285" id="Fill-77" fill="#FCCE9A"></path>
                    <path d="M73.2971392,40.4863032 C73.2971392,40.4863032 73.1148608,40.9900314 72.9751139,41.4217434 C72.9382785,41.5357369 72.9048608,41.6427984 72.876,41.7421576 C72.8368861,41.8781026 73.4832152,42.1931252 74.0889114,42.2089149 C74.5628354,42.2212385 75.0466329,41.9928663 74.9258734,41.7329149 C74.8020759,41.4664165 74.826,40.6673065 74.826,40.6673065 L73.2971392,40.4863032 Z" id="Fill-79" fill="#EBBEAF"></path>
                    <path d="M73.0269873,41.4216278 C73.0269873,41.4216278 73.9133165,42.1818414 74.9777468,41.7327994 C75.4452152,41.8502589 78.4239494,43.4773625 77.8296456,43.9529773 C77.4271139,44.2753172 72.7030633,44.0454045 72.3571139,43.5686343 C72.2242025,43.3857055 72.6233165,41.8440971 73.0269873,41.4216278" id="Fill-81" fill="#242025"></path>
                    <path d="M85.4382911,40.4863032 C85.4382911,40.4863032 85.2560127,40.9900314 85.1158861,41.4217434 C85.0794304,41.5357369 85.0460127,41.6427984 85.0171519,41.7421576 C84.978038,41.8781026 85.6243671,42.1931252 86.2300633,42.2089149 C86.7039873,42.2212385 87.1877848,41.9928663 87.0670253,41.7329149 C86.9432278,41.4664165 86.9671519,40.6673065 86.9671519,40.6673065 L85.4382911,40.4863032 Z" id="Fill-83" fill="#EBBEAF"></path>
                    <path d="M85.116038,41.4216278 C85.116038,41.4216278 86.0023671,42.1818414 87.0667975,41.7327994 C87.5342658,41.8502589 90.513,43.4773625 89.9186962,43.9529773 C89.5161646,44.2753172 84.7921139,44.0454045 84.4461646,43.5686343 C84.3136329,43.3857055 84.7123671,41.8440971 85.116038,41.4216278" id="Fill-85" fill="#242025"></path>
                    <path d="M86.8899873,19.5404932 C86.8899873,19.5404932 87.0335316,40.0235126 87.0859367,41.0825741 C87.0859367,41.0825741 85.9261899,41.3733346 85.1234051,41.1203152 C85.1234051,41.1203152 84.0988481,36.4589042 84.4034051,32.5157294 C84.5006203,31.2514026 82.7313797,24.5165417 82.5251772,22.752723 C82.3189747,20.9892893 82.8866962,18.5669269 82.8866962,18.5669269 L86.8899873,19.5404932 Z" id="Fill-87" fill="#0B73AB"></path>
                    <path d="M84.9562025,19.514344 C84.9562025,19.514344 82.771519,25.2802599 81.0953165,28.3561595 C79.4525316,31.3708262 75.0531646,41.4677259 75.0531646,41.4677259 C75.0531646,41.4677259 73.8265823,41.7557906 72.9265823,40.9077712 C72.9265823,40.9077712 75.0064557,32.6805964 75.6801266,31.5583764 C76.4232911,30.3198521 76.7456962,29.4756838 77.3624051,28.1485835 C77.9787342,26.8214832 78.7481013,21.8989654 79.3036709,20.6123019 C79.9568354,19.1003472 80.8803797,18.1344832 80.8803797,18.1344832 L84.9562025,19.514344 Z" id="Fill-89" fill="#0B73AB"></path>
                    <path d="M94.0467342,1.08024272 C92.9785063,-0.192171521 90.4615443,-0.245702265 89.2539494,1.17228479 C88.2012911,2.40926861 87.763443,1.5847411 86.359519,2.42852427 C84.7136962,3.41865049 85.0585063,5.48093204 83.9382532,5.72047249 C82.818,5.96039806 79.5290127,6.36284142 78.9658481,9.55504531 C78.4915443,12.2466019 81.013443,14.521466 83.2687595,14.5511197 C86.2140759,14.589246 85.7978734,12.4318414 87.9472405,12.668301 C92.1426835,13.1300518 92.5528101,10.3799579 92.5938228,9.20844337 C92.6682532,7.05566019 94.1481266,6.40481877 94.6220506,5.01417476 C95.1161013,3.5642233 94.8829367,2.07614563 94.0467342,1.08024272" id="Fill-91" fill="#1E284B"></path>
                    <path d="M91.9017722,9.47074401 C91.9017722,9.47074401 93.544557,12.4157052 95.1262025,13.4774625 C96.7078481,14.5392197 99.6907595,16.0280676 100.501139,16.3311518 C101.311519,16.6338508 102.877595,17.5257731 103.760886,18.3541518 L100.939747,17.7968929 C100.198861,17.7791777 100.84519,19.068922 100.324177,19.1956243 C99.8373418,19.3142392 100.041646,17.6301388 99.3326582,17.3020223 C98.8313924,17.0701841 95.3517722,15.8555369 94.4020253,14.9639997 C93.6827848,14.2888961 90.8183544,11.7513848 90.8183544,11.7513848 L91.9017722,9.47074401 Z" id="Fill-93" fill="#FACCB3"></path>
                    <path d="M91.9841013,9.61423722 C92.1849873,10.0987097 91.8895443,10.8543019 91.4562532,11.364577 C90.7681519,12.1748553 91.3062532,13.9328974 90.4157468,14.5567809 C89.5252405,15.1810495 89.1458734,15.2426676 88.5694177,16.2458877 C88.0624557,17.1277971 87.4278987,19.5397615 87.4256203,20.1212825 C87.4256203,20.1212825 82.4418228,20.2606935 80.3251139,18.4726126 C80.3251139,18.4726126 83.3699241,15.3504994 83.9110633,12.9273667 C84.4100506,10.6917841 84.8767595,7.68404951 86.3570127,7.42756408 C87.3310633,7.25888447 89.4268861,7.80921133 90.1119494,8.15735372 C90.932962,8.57443139 91.897519,9.40512071 91.9841013,9.61423722" id="Fill-95" fill="#FEBA40"></path>
                    <path d="M86.0123544,7.92016246 C87.3050127,7.29319806 89.4646329,12.3593631 90.1933671,12.889279 C91.2448861,13.6541139 94.2205823,16.2748097 94.9956456,16.9776414 C95.6947595,17.6111528 96.4045063,17.4832951 97.1112152,17.6358 L96.9912152,18.2585282 C97.2680506,18.5184796 97.6929873,18.7010233 98.0727342,18.9559683 C98.4521013,19.2105282 98.6564051,19.8193922 98.2705823,19.9992401 C97.6356456,20.2950071 96.4253924,19.9992401 95.7953924,19.5821625 C95.5291899,19.4057806 95.2477975,18.6424861 94.6333671,18.3856155 C94.018557,18.1291301 90.3312152,15.7106188 89.5132405,15.0447579 C88.6948861,14.3788971 87.6266582,13.0375476 86.8014684,12.1333016 C85.5536203,10.7673049 84.8879241,8.46586796 86.0123544,7.92016246" id="Fill-97" fill="#FACCB3"></path>
                    <path d="M91.4730759,7.22098932 C91.4730759,7.22098932 90.9505443,8.36246505 90.9440886,8.99212524 C90.9376329,9.62178544 90.2130759,10.8179472 89.7125696,10.7979214 C89.212443,10.7775104 88.3914304,8.93512848 88.793962,8.14680162 C89.1968734,7.35808964 89.6278861,6.37643592 89.6852278,5.43598932 C89.6852278,5.43598932 89.9780127,7.01533883 91.4730759,7.22098932" id="Fill-99" fill="#FACCB3"></path>
                    <path d="M93.763443,4.63730291 C93.948,3.49775275 93.3996456,2.93779806 93.3996456,2.93779806 C92.7498987,3.7892835 91.8335696,2.86847767 91.4640759,3.52047443 C90.9992658,4.34269126 90.4961013,3.9344712 89.9405316,4.24872362 C89.6602785,4.40662006 89.6321772,4.79789515 89.6424304,5.03242913 C89.6602785,5.22575599 89.6830633,5.41908285 89.7058481,5.61587573 C89.8007848,6.43539676 90.9035696,7.73399871 91.8616709,7.77790162 C92.4723038,7.80601489 93.4391392,6.14194045 93.763443,4.63730291" id="Fill-101" fill="#FACCB3"></path>
                    <path d="M17.8847089,111.469341 C17.8847089,111.469341 17.6488861,113.150746 17.778,113.450749 C17.778,113.450749 23.2812911,114.583752 25.4317975,113.918276 C26.4939494,113.212749 21.2253418,110.965228 21.2253418,110.965228 L17.8847089,111.469341 Z" id="Fill-105" fill="#151912"></path>
                    <path d="M17.0096962,89.6051515 C18.529443,95.081077 22.8426076,99.711679 22.8190633,101.930702 C20.6833671,105.622012 19.0983038,108.139113 17.7391899,111.572397 C18.5123544,112.007575 21.1246329,111.621692 21.6619747,111.12374 C22.7264051,109.037582 27.4603291,102.810685 27.6543797,101.104249 C27.8028608,99.796789 25.1328608,93.6861968 23.3142532,89.7118278 C21.2127342,89.6633036 19.1115949,89.6140091 17.0096962,89.6051515" id="Fill-107" fill="#084E75"></path>
                    <path d="M40.1134177,80.5820631 C40.1134177,80.5820631 41.34,80.7503576 41.5853165,80.6128722 C41.9418987,80.4137686 42.5263291,78.9457168 43.1920253,78.9253058 L43.1920253,80.2173608 C43.1920253,80.2173608 45.1849367,80.1877071 45.5517722,80.4653738 C46.0541772,80.8466359 45.7594937,82.4417751 44.9540506,82.9971084 C44.5583544,83.2697686 42.8783544,83.1107168 42.5608861,83.063733 C42.1078481,82.9971084 42.0060759,82.7479401 41.5089873,82.7298398 C41.2207595,82.7198269 39.8703797,82.5403641 39.8703797,82.5403641 C39.4059494,82.101335 39.6474684,80.5643479 40.1134177,80.5820631" id="Fill-109" fill="#FCD39E"></path>
                    <path d="M33.5464937,71.9598777 C33.6786456,71.702622 33.3721899,71.396457 33.2119367,71.0567871 C33.1188987,70.8588388 33.0456076,70.6682078 33.178519,70.3836091 C33.6607975,69.3549715 33.3159873,68.4561172 33.3159873,68.4561172 C33.1876329,68.129156 30.5237089,66.1816382 29.0901646,66.4015379 C28.4199114,66.5043631 27.8502911,66.9537903 27.5962405,67.5911528 L27.4538354,67.9485379 C27.323962,68.2751139 27.2472532,68.6151689 27.2180127,68.9602304 C27.1845949,69.3580524 27.2632025,69.754334 27.3813038,70.1355961 C27.511557,70.5553696 27.5711772,70.9982498 27.5202911,71.4754052 C27.4625696,72.0184149 27.2894051,72.5467903 26.9977595,72.9738809 L28.8171266,76.4306576 L29.572443,75.4054861 C29.9966203,74.8293566 30.5909241,74.405732 31.2691519,74.1962304 L32.0856076,74.3398777 C32.1847215,74.3572078 32.515481,74.4111236 32.6586456,74.2208777 C32.813962,74.014457 32.9362405,72.413156 33.0756076,72.260266 C33.2149747,72.1077612 33.4842152,72.0811883 33.5464937,71.9598777" id="Fill-111" fill="#FCD39E"></path>
                    <path d="M29.9852278,65.7608634 C28.7673797,65.7273586 27.6729494,66.4244136 27.3038354,67.4230123 C26.9351013,68.4219961 27.1462405,69.7976207 27.2567468,70.1603974 C27.3828228,70.5740091 27.570038,71.0061061 27.5202911,71.4755592 C27.5028228,71.641543 27.473962,71.8059864 27.4344684,71.9665786 C28.4009241,72.2777502 28.6010506,71.899954 28.8680127,71.8121482 C29.3210506,71.6623392 29.8481392,71.8884006 29.8481392,71.8884006 L29.5948481,71.6561773 C29.3928228,71.4709379 29.2842152,71.202899 29.2997848,70.9267728 L29.3221899,70.5339573 C29.3423165,70.1788828 29.6423165,69.907378 29.992443,69.9274039 L30.0926962,69.9335657 C30.4056076,69.951666 30.6452278,70.2239411 30.6273797,70.5416595 L30.6216835,70.6429443 C30.6095316,70.855912 30.7971266,71.0292129 30.9619367,71.0869799 C31.0534557,70.4130317 31.5163671,70.4330576 31.7905443,69.5137922 C32.092443,68.5009443 32.7942152,68.2367566 33.3159873,68.4562712 C33.2666203,66.4436693 31.7430759,65.8090026 29.9852278,65.7608634" id="Fill-113" fill="#874A54"></path>
                    <path d="M30.0193671,73.084755 C29.9513924,73.4463764 30.3949367,74.5786094 30.176962,74.7757874 C30.1773418,74.7761725 30.178481,74.7765576 30.1792405,74.7769427 C30.5020253,74.5181466 30.8707595,74.3194282 31.2691139,74.1961919 C31.2691139,74.1961919 30.5016456,74.0852793 30.0193671,73.084755" id="Fill-115" fill="#F6AA8B"></path>
                    <path d="M0.616405063,112.883439 C0.616405063,112.883439 0.278050633,114.522866 0.40678481,114.822099 C0.40678481,114.822099 5.9104557,115.955872 8.06096203,115.290011 C8.74032911,114.378833 3.85450633,112.337348 3.85450633,112.337348 L0.616405063,112.883439 Z" id="Fill-117" fill="#151912"></path>
                    <path d="M16.275038,88.4400298 C14.0538987,92.9358421 12.8098481,100.274946 10.095038,102.483955 C7.15048101,104.87936 2.5563038,109.440256 0.428202532,112.989845 C1.43187342,113.443894 3.7855443,113.574832 4.59972152,112.670972 C9.83605063,107.274764 13.9452911,106.159091 15.6795949,103.927745 C16.8921266,102.368036 22.4387089,90.7041107 22.4387089,90.7041107 C22.4387089,90.7041107 16.538962,87.9054926 16.275038,88.4400298" id="Fill-119" fill="#084E75"></path>
                    <path d="M26.7616709,72.3333605 C26.7616709,72.3333605 26.9431899,72.1943346 27.3419241,72.0760763 C27.6958481,72.0672472 29.4852152,74.1210563 29.2623038,76.4567683 C29.0709114,78.4624382 27.2196456,81.71549 27.2196456,81.71549 L26.7616709,72.3333605 Z" id="Fill-121" fill="#FFFFFF"></path>
                    <path d="M28.1289873,78.0070032 C28.1289873,78.0070032 26.2944304,88.1751489 26.2689873,88.3869612 C26.013038,90.4973819 26.5822785,91.6712071 26.821519,91.8941877 C26.9658228,92.0282071 27.2525316,89.2087929 27.4579747,86.9474078 C27.5935443,85.4577896 28.8068354,77.3981392 28.8068354,77.3981392 L28.1289873,78.0070032 Z" id="Fill-123" fill="#D86600"></path>
                    <path d="M26.8792025,72.0516502 C26.1698354,72.0077472 22.4388228,74.1663071 20.1576835,80.663168 C19.0700886,83.7614042 14.5146456,87.7092003 14.5146456,87.7092003 C14.5146456,87.7092003 17.7311013,92.2789544 24.1340127,91.2206631 C24.574519,86.0281809 25.9818608,85.1177731 27.4488228,82.1027214 C28.8041392,79.3156566 28.8933797,76.8155013 28.9059114,76.6733945 C29.0817342,74.6993039 27.1955316,72.0716761 26.8792025,72.0516502" id="Fill-125" fill="#0B73AB"></path>
                    <path d="M32.3673797,81.6035375 C35.6229494,82.3868579 40.2691519,83.1366735 40.8748481,82.9745408 C41.2196582,82.8663239 41.7907975,80.8575731 41.5151013,80.3245764 C40.0188987,80.1967188 35.4349747,79.3124987 33.958519,78.8426605 C32.6073797,78.4128741 29.5033291,76.0213207 28.7392785,75.5614955 C27.9756076,75.1012851 26.0218101,74.4916508 25.3523165,75.7490456 C24.7037089,76.9663887 26.2906709,78.8141621 27.3307975,79.3248223 C27.3307975,79.3248223 31.4032025,81.3713142 32.3673797,81.6035375" id="Fill-127" fill="#0B73AB"></path>
                    <path d="M121.825747,30.1170129 C118.411063,28.71289 114.506506,30.3877476 113.12157,33.8506861 C112.277772,35.9603366 112.531823,38.3441877 113.801316,40.2273916 L113.849544,40.2986375 L113.853342,40.3849029 C113.904228,41.6076375 113.882203,43.4080421 113.488025,45.0409223 L113.48157,45.0632589 C113.291696,45.6513269 113.382076,46.2967767 113.73562,46.8806084 C114.099038,47.4802298 114.694101,47.9419806 115.409924,48.1788252 C116.87119,48.664068 118.384101,48.0552039 118.781696,46.8220712 L118.785494,46.811288 L118.790051,46.8005049 C119.277646,45.6058835 120.048152,44.3242265 121.080684,42.9917346 L121.138785,42.9162524 L121.229544,42.8889094 C123.183342,42.2946796 124.742582,40.8570518 125.507013,38.9441942 C126.891949,35.4812557 125.24043,31.5211359 121.825747,30.1170129 M114.96562,48.6567508 C114.23081,48.3544369 113.620557,47.8433916 113.228278,47.1967864 C112.783595,46.4631456 112.671949,45.6432395 112.911949,44.8864919 C113.278405,43.3622136 113.306127,41.6734919 113.261696,40.4954304 C111.92157,38.4566408 111.661443,35.8944822 112.569797,33.6238544 C114.077772,29.8524401 118.330557,28.0281586 122.049418,29.5574434 C125.768658,31.0871133 127.567139,35.3996117 126.058785,39.1710259 C125.237772,41.2244498 123.57638,42.775301 121.49157,43.4388511 C120.524734,44.6974013 119.802456,45.9024207 119.344101,47.0215599 C118.838658,48.5635534 116.993848,49.3403269 115.224987,48.7530291 C115.136886,48.7237605 115.050304,48.691411 114.96562,48.6567508" id="Fill-129" fill="#FFDC7D"></path>
                    <polygon id="Fill-131" fill="#FFDC7D" points="114.436633 45.8425356 115.945367 37.8868657 117.103215 39.7192346 118.427013 38.9366845 118.945747 40.2418333 120.816759 39.4542767 117.50119 46.8372832 116.959671 46.5873447 119.647899 40.5999887 118.618785 41.0332411 118.131949 39.8097362 116.910304 40.5322087 116.248405 39.4850858 115.021443 45.9565291"></polygon>
                    <polygon id="Fill-133" fill="#FFDC7D" points="117.252114 50.8708055 112.345785 49.2425466 112.992873 47.2372618 117.899203 48.8659058"></polygon>
                    <polygon id="Fill-135" fill="#FFDC7D" points="118.307544 50.3070382 111.823367 48.1550252 112.865013 44.9273909 119.34919 47.0794039"></polygon>
                    <path d="M59.6051392,97.4548382 C56.5793165,97.4548382 54.1265316,94.9673916 54.1265316,91.8988091 C54.1265316,88.8298414 56.5793165,86.3427799 59.6051392,86.3427799 C62.630962,86.3427799 65.0837468,88.8298414 65.0837468,91.8988091 C65.0837468,94.9673916 62.630962,97.4548382 59.6051392,97.4548382 L59.6051392,97.4548382 Z M66.7348861,90.025233 C66.5617215,89.3447379 66.2958987,88.7019838 65.9522278,88.1112201 L66.7493165,86.8961877 L65.6434937,85.7747379 L64.5380506,84.6536731 L63.3395696,85.4616408 C62.757038,85.1134984 62.1232405,84.843534 61.4522278,84.6679223 L61.168557,83.2383819 L59.6051392,83.2383819 L58.0417215,83.2383819 L57.7576709,84.6679223 C57.087038,84.843534 56.4532405,85.1134984 55.8707089,85.4616408 L54.6722278,84.6536731 L53.5664051,85.7747379 L52.460962,86.8961877 L53.2580506,88.1112201 C52.9143797,88.7019838 52.648557,89.3447379 52.4750127,90.025233 L51.0653924,90.3132977 L51.0653924,91.8988091 L51.0653924,93.4843204 L52.4750127,93.772 C52.648557,94.4524951 52.9143797,95.0952492 53.2580506,95.6860129 L52.460962,96.9014304 L53.5664051,98.0228803 L54.6722278,99.143945 L55.8707089,98.3355922 C56.4532405,98.6837346 57.087038,98.9540841 57.7576709,99.1296958 L58.0417215,100.559236 L59.6051392,100.559236 L61.168557,100.559236 L61.4522278,99.1296958 C62.1232405,98.9540841 62.757038,98.6837346 63.3395696,98.3355922 L64.5380506,99.143945 L65.6434937,98.0228803 L66.7493165,96.9014304 L65.9522278,95.6860129 C66.2958987,95.0952492 66.5617215,94.4524951 66.7348861,93.772 L68.1448861,93.4843204 L68.1448861,91.8988091 L68.1448861,90.3132977 L66.7348861,90.025233 Z" id="Fill-137" fill="#FFFFFF"></path>
                    <path d="M70.0564937,107.318475 C68.2606709,107.318475 66.8051013,105.842336 66.8051013,104.02075 C66.8051013,102.199934 68.2606709,100.723795 70.0564937,100.723795 C71.8523165,100.723795 73.3082658,102.199934 73.3082658,104.02075 C73.3082658,105.842336 71.8523165,107.318475 70.0564937,107.318475 L70.0564937,107.318475 Z M74.2880127,102.909313 C74.185481,102.505329 74.0275063,102.124067 73.8235823,101.773614 L74.2967468,101.052297 L73.6405443,100.386821 L72.983962,99.7209602 L72.2730759,100.201196 C71.9271266,99.9940055 71.5511772,99.8337984 71.1528228,99.7298178 L70.9845949,98.8814133 L70.0564937,98.8814133 L69.1287722,98.8814133 L68.9601646,99.7298178 C68.5618101,99.8337984 68.1858608,99.9940055 67.8402911,100.201196 L67.1290253,99.7209602 L66.4728228,100.386821 L65.8166203,101.052297 L66.2897848,101.773614 C66.085481,102.124067 65.9278861,102.505329 65.8249747,102.909313 L64.9883924,103.079918 L64.9883924,104.02075 L64.9883924,104.962352 L65.8249747,105.132957 C65.9278861,105.536941 66.085481,105.918203 66.2897848,106.268656 L65.8166203,106.989973 L66.4728228,107.655449 L67.1290253,108.320925 L67.8402911,107.841073 C68.1858608,108.048264 68.5618101,108.208472 68.9601646,108.312452 L69.1287722,109.160857 L70.0564937,109.160857 L70.9845949,109.160857 L71.1528228,108.312452 C71.5511772,108.208472 71.9271266,108.048264 72.2730759,107.841073 L72.983962,108.320925 L73.6405443,107.655449 L74.2967468,106.989973 L73.8235823,106.268656 C74.0275063,105.918203 74.185481,105.536941 74.2880127,105.132957 L75.1249747,104.962352 L75.1249747,104.02075 L75.1249747,103.079918 L74.2880127,102.909313 Z" id="Fill-139" fill="#FFFFFF"></path>
                    <polygon id="Fill-141" fill="#FFFFFF" points="91.3447595 109.062768 90.9927342 108.684587 100.099823 99.970244 109.317038 101.99517 118.121089 91.813545 125.79957 92.2529592 131.779823 83.8875288 132.194886 84.1929236 126.050582 92.7882667 118.342101 92.347312 109.503494 102.568988 100.255519 100.536361"></polygon>
                    <path d="M110.74743,101.988584 C110.907304,102.737244 110.438696,103.475892 109.699709,103.638409 C108.961481,103.800542 108.233127,103.324927 108.072873,102.575882 C107.913,101.826837 108.381987,101.088189 109.120975,100.926057 C109.859203,100.763924 110.587557,101.239539 110.74743,101.988584" id="Fill-143" fill="#FFFFFF"></path>
                    <path d="M109.175051,101.180347 C108.57581,101.312056 108.194165,101.913217 108.324038,102.520541 C108.453532,103.12825 109.046316,103.515289 109.645557,103.383965 C110.244418,103.252641 110.626443,102.651094 110.49657,102.043386 C110.367076,101.436062 109.773911,101.048638 109.175051,101.180347 M109.753785,103.8927 C108.878468,104.084871 108.011886,103.518755 107.822013,102.631069 C107.632519,101.742997 108.190747,100.864169 109.066443,100.671997 C109.942139,100.479441 110.808722,101.045172 110.998215,101.933628 C111.188089,102.8217 110.629861,103.700528 109.753785,103.8927" id="Fill-145" fill="#4AAFFF"></path>
                    <path d="M119.566177,91.8744699 C119.726051,92.6231301 119.257063,93.3617773 118.518456,93.5242951 C117.779848,93.6864278 117.051494,93.2108129 116.89162,92.4613825 C116.731747,91.7127223 117.200734,90.9740751 117.939342,90.8119424 C118.677949,90.6498097 119.406304,91.1258097 119.566177,91.8744699" id="Fill-147" fill="#FFFFFF"></path>
                    <path d="M117.993418,91.0662327 C117.394557,91.1979414 117.012532,91.7991032 117.142405,92.4064269 C117.272278,93.0145207 117.865063,93.4011744 118.463924,93.2702359 C119.063165,93.1385272 119.44481,92.5369803 119.315316,91.9292715 C119.185823,91.3219479 118.592658,90.9345239 117.993418,91.0662327 M118.572532,93.7785854 C117.697215,93.970757 116.830253,93.4046405 116.640759,92.5169544 C116.451266,91.6288832 117.009494,90.7500547 117.88519,90.5578832 C118.760886,90.3653265 119.627468,90.9310579 119.816962,91.8195142 C120.006456,92.7075854 119.448228,93.5860288 118.572532,93.7785854" id="Fill-149" fill="#4AAFFF"></path>
                    <path d="M127.18819,92.1839854 C127.348443,92.9326456 126.879456,93.6712929 126.140468,93.8338107 C125.402241,93.9959434 124.673886,93.5203285 124.514013,92.7712832 C124.353759,92.0222379 124.822747,91.2835906 125.561734,91.1214579 C126.299962,90.9593252 127.028316,91.4349401 127.18819,92.1839854" id="Fill-151" fill="#FFFFFF"></path>
                    <path d="M125.61581,91.3757867 C125.016949,91.5074955 124.634924,92.1086573 124.764797,92.7159809 C124.894291,93.3240748 125.487076,93.7107285 126.086316,93.5794049 C126.685177,93.4480812 127.067203,92.8465343 126.937329,92.2388256 C126.807835,91.6315019 126.215051,91.244078 125.61581,91.3757867 M126.194924,94.0881395 C125.319608,94.280311 124.452646,93.7141945 124.262772,92.8265084 C124.073278,91.9384372 124.631506,91.0596087 125.507203,90.8674372 C126.382899,90.6748806 127.249481,91.240612 127.438975,92.1290683 C127.628848,93.0171395 127.07062,93.8955828 126.194924,94.0881395" id="Fill-153" fill="#4AAFFF"></path>
                    <path d="M101.50743,100.087819 C101.667304,100.836864 101.198316,101.575512 100.459709,101.737644 C99.7211013,101.899777 98.9927468,101.424162 98.8328734,100.675117 C98.673,99.9260715 99.1419873,99.1874243 99.8805949,99.0252916 C100.619203,98.8631589 101.347557,99.3391589 101.50743,100.087819" id="Fill-155" fill="#FFFFFF"></path>
                    <path d="M99.9350506,99.2796204 C99.3358101,99.4113291 98.9541646,100.012491 99.0836582,100.6202 C99.2135316,101.227908 99.8063165,101.614947 100.405557,101.483624 C101.004418,101.351915 101.386443,100.750368 101.25657,100.143044 C101.127076,99.5353356 100.533911,99.1482968 99.9350506,99.2796204 M100.513785,101.991973 C99.6384684,102.184145 98.7718861,101.618413 98.5820127,100.730342 C98.392519,99.8422709 98.9507468,98.9634424 99.826443,98.7712709 C100.702139,98.5790994 101.568722,99.1448307 101.758215,100.032902 C101.947709,100.920973 101.389481,101.799802 100.513785,101.991973" id="Fill-157" fill="#4AAFFF"></path>
                    <polygon id="Fill-159" fill="#308DFC" points="98.8017722 106.633243 104.403038 106.633243 104.403038 105.539521 98.8017722 105.539521"></polygon>
                    <polygon id="Fill-161" fill="#308DFC" points="102.697215 95.4083463 108.298481 95.4083463 108.298481 94.3142395 102.697215 94.3142395"></polygon>
                    <polygon id="Fill-162" fill="#308DFC" points="114.316329 103.230382 119.917595 103.230382 119.917595 102.13666 114.316329 102.13666"></polygon>
                    <polygon id="Fill-163" fill="#308DFC" points="119.340759 87.8682136 124.942025 87.8682136 124.942025 86.7741068 119.340759 86.7741068"></polygon>
                    <polygon id="Fill-164" fill="#308DFC" points="127.476076 97.0219709 133.077342 97.0219709 133.077342 95.9282492 127.476076 95.9282492"></polygon>
                </g>
            </g>
        </g>
    </g>
</svg>