<?xml version="1.0" encoding="UTF-8"?>
<svg width="150px" height="119px" viewBox="0 0 150 119" version="1.1" xmlns="http://www.w3.org/2000/svg" xmlns:xlink="http://www.w3.org/1999/xlink">
    <!-- Generator: Sketch 59.1 (86144) - https://sketch.com -->
    <title>Group 306</title>
    <desc>Created with Sketch.</desc>
    <defs>
        <path d="M2.91019661,0.130882489 C1.32463495,0.130882489 0.039396601,1.40428505 0.039396601,2.97457473 L0.039396601,2.97457473 L0.039396601,60.2617801 L81.9925091,60.2617801 L81.9925091,2.97457473 C81.9925091,1.40428505 80.7075738,0.130882489 79.1217091,0.130882489 L79.1217091,0.130882489 L2.91019661,0.130882489 Z" id="path-1"></path>
        <linearGradient x1="-3.01664568%" y1="50.0000246%" x2="108.077644%" y2="50.0000246%" id="linearGradient-3">
            <stop stop-color="#DADADA" offset="0%"></stop>
            <stop stop-color="#A3A3A3" offset="100%"></stop>
        </linearGradient>
        <polygon id="path-4" points="30.6998366 66.8659539 38.3013858 66.8659539 38.3013858 66.0069213 30.6998366 66.0069213"></polygon>
        <filter x="-92.1%" y="-582.1%" width="284.2%" height="1729.7%" filterUnits="objectBoundingBox" id="filter-5">
            <feOffset dx="0" dy="2" in="SourceAlpha" result="shadowOffsetOuter1"></feOffset>
            <feGaussianBlur stdDeviation="2" in="shadowOffsetOuter1" result="shadowBlurOuter1"></feGaussianBlur>
            <feColorMatrix values="0 0 0 0 0   0 0 0 0 0   0 0 0 0 0  0 0 0 0.5 0" type="matrix" in="shadowBlurOuter1"></feColorMatrix>
        </filter>
        <polygon id="path-6" points="49.8280283 0.246619718 9.1060394 0.246619718 0.193425003 33.3388556 50.0949668 33.3388556 99.4626315 33.3388556 90.5503184 0.246619718"></polygon>
        <linearGradient x1="50.0000771%" y1="-9.66685304%" x2="50.0000771%" y2="140.989686%" id="linearGradient-8">
            <stop stop-color="#D0D0D0" offset="0%"></stop>
            <stop stop-color="#E1E1E1" offset="100%"></stop>
        </linearGradient>
        <path d="M0.193425003,0.109223005 C0.193425003,1.43721831 1.35457759,2.51408451 2.78688673,2.51408451 L2.78688673,2.51408451 L96.8688685,2.51408451 C98.3011777,2.51408451 99.4626315,1.43721831 99.4626315,0.109223005 L99.4626315,0.109223005 L0.193425003,0.109223005 Z" id="path-9"></path>
        <linearGradient x1="-46.3482192%" y1="50.0034882%" x2="53.6515655%" y2="50.0034882%" id="linearGradient-11">
            <stop stop-color="#3FD4E6" offset="0%"></stop>
            <stop stop-color="#5477FF" offset="100%"></stop>
        </linearGradient>
    </defs>
    <g id="Services-Page" stroke="none" stroke-width="1" fill="none" fill-rule="evenodd">
        <g transform="translate(-608.000000, -935.000000)" id="Group-306">
            <g transform="translate(608.000000, 935.000000)">
                <g id="Group-3" transform="translate(30.169014, 31.845070)">
                    <mask id="mask-2" fill="white">
                        <use xlink:href="#path-1"></use>
                    </mask>
                    <g id="Clip-2"></g>
                    <path d="M2.91019661,0.130882489 C1.32463495,0.130882489 0.039396601,1.40428505 0.039396601,2.97457473 L0.039396601,2.97457473 L0.039396601,60.2617801 L81.9925091,60.2617801 L81.9925091,2.97457473 C81.9925091,1.40428505 80.7075738,0.130882489 79.1217091,0.130882489 L79.1217091,0.130882489 L2.91019661,0.130882489 Z" id="Fill-1" fill="url(#linearGradient-3)"></path>
                </g>
                <polygon id="Fill-4" fill="#0B73AB" points="33.5211268 80.4507042 108.943662 80.4507042 108.943662 34.3591549 33.5211268 34.3591549"></polygon>
                <g id="Group-10" transform="translate(7.028169, 0.000000)" fill="#1C75BB">
                    <path d="M0.518059031,34.9031535 L19.0984571,34.9031535 C18.7362266,33.1270268 17.1069449,31.8075761 15.2408085,31.8075761 C14.8172496,31.8075761 14.4003372,31.873238 14.0018535,32.0027873 L13.9000422,32.0359141 L13.8387138,31.9501394 C12.8079129,30.5179986 11.1266681,29.6632099 9.34119526,29.6632099 C7.24968449,29.6632099 5.36723416,30.8001676 4.42797271,32.6304211 L4.37631182,32.7309845 L4.26483306,32.704069 C4.02465524,32.6460972 3.77692465,32.6168155 3.52768352,32.6168155 C2.10353477,32.6168155 0.864881849,33.5683225 0.518059031,34.9031535 L0.518059031,34.9031535 Z M19.4383313,35.1853225 L0.16277712,35.1853225 L0.196613493,35.0173225 C0.505974613,33.462731 1.90716297,32.3343507 3.52768352,32.3343507 C3.76151702,32.3343507 3.9947463,32.3583085 4.2225376,32.4053366 C5.22675279,30.5369282 7.1777822,29.3810408 9.34119526,29.3810408 C11.1849755,29.3810408 12.923017,30.247069 14.0124273,31.7034634 C14.4090984,31.5851535 14.8223855,31.525407 15.2408085,31.525407 C17.3383615,31.525407 19.092717,32.9962944 19.4126519,35.0226465 L19.4383313,35.1853225 Z" id="Fill-6"></path>
                    <path d="M82.5224729,1.97784507 C82.4357672,2.8746338 82.147856,8.55883099 88.2278291,11.6396197 C94.3084065,8.55883099 94.0201931,2.8746338 93.9334874,1.97784507 C90.1574087,1.95477465 88.6208749,0.924887324 88.2278291,0.598352113 C87.8353876,0.924887324 86.2982496,1.95477465 82.5224729,1.97784507 L82.5224729,1.97784507 Z M88.2278291,11.9563944 L88.1625733,11.9235634 C81.322188,8.50470423 82.240906,1.88290141 82.2508756,1.81664789 L82.2690023,1.69597183 L82.3931697,1.69597183 C86.742352,1.69597183 88.1090997,0.323873239 88.1223926,0.309971831 L88.2284334,0.199943662 L88.3338699,0.31056338 C88.3468607,0.323873239 89.7136084,1.69597183 94.0624886,1.69597183 L94.186656,1.69597183 L94.2050847,1.81664789 C94.2150544,1.88290141 95.1337723,8.50470423 88.2933871,11.9235634 L88.2278291,11.9563944 Z" id="Fill-8"></path>
                </g>
                <g id="Group-92" transform="translate(0.000000, 6.704225)">
                    <g id="Fill-45">
                        <use fill="black" fill-opacity="1" filter="url(#filter-5)" xlink:href="#path-4"></use>
                        <use fill="#FFFFFF" fill-rule="evenodd" xlink:href="#path-4"></use>
                    </g>
                    <polygon id="Fill-47" fill="#1C75BB" points="29.1129019 42.3014033 16.9805622 42.3014033 16.9805622 26.8135941 17.2672145 26.8135941 17.2672145 42.0152593 29.1129019 42.0152593"></polygon>
                    <polygon id="Fill-48" fill="#1C75BB" points="80.465951 32.0963597 80.1792987 32.0963597 80.1792987 16.1257387 95.6188177 16.1257387 95.6188177 2.69468361 95.9057708 2.69468361 95.9057708 16.412183 80.465951 16.412183"></polygon>
                    <polygon id="Fill-49" fill="#1C75BB" points="130.343809 49.8863824 114.27955 49.8863824 114.27955 49.5999381 130.056856 49.5999381 130.056856 40.2886967 130.343809 40.2886967"></polygon>
                    <path d="M10.2430605,62.8266989 C10.2430605,62.8266989 9.89895746,67.644608 10.8419322,68.2213999 C11.4326825,68.582608 13.7881642,69.8010472 13.718381,70.0295421 C13.6482971,70.2580369 12.3882904,72.0622757 12.3882904,72.0622757 C12.3882904,72.0622757 7.86381651,69.0882392 7.71763287,68.1508398 C7.57535949,67.235359 7.9405178,61.0963231 8.56255024,60.8134819 C9.02847299,60.6015011 9.27391713,60.7768506 9.86135879,61.2119217 C10.6852209,61.8223423 10.2430605,62.8266989 10.2430605,62.8266989" id="Fill-50" fill="#E52998"></path>
                    <path d="M9.71697989,97.8889528 C9.71697989,97.8889528 9.57621046,98.8638843 9.55906546,99.010109 C9.54131889,99.1566339 7.99375752,98.9239355 7.99375752,98.9239355 L7.86832835,97.7634457 C7.86832835,97.7634457 9.52357232,97.7514355 9.71697989,97.8889528" id="Fill-51" fill="#424773"></path>
                    <path d="M9.57539833,98.8861633 C9.57539833,98.8861633 10.0653842,99.4737644 10.5397291,99.7298828 C11.0140739,99.985701 11.7591292,100.087188 12.0397657,100.352614 C12.2418962,100.543877 12.7773013,101.367179 10.8074316,101.350665 C8.83756197,101.333851 7.88827069,101.467165 7.67711654,101.151295 C7.4659624,100.835426 7.98241776,98.8201069 7.98241776,98.8201069 C7.98241776,98.8201069 8.44894209,98.9876498 9.57539833,98.8861633" id="Fill-52" fill="#292C47"></path>
                    <path d="M17.4623065,97.8889528 C17.4623065,97.8889528 17.3212362,98.8638843 17.3037905,99.010109 C17.2860439,99.1566339 15.7387833,98.9239355 15.7387833,98.9239355 L15.6136549,97.7634457 C15.6136549,97.7634457 17.2688989,97.7514355 17.4623065,97.8889528" id="Fill-53" fill="#424773"></path>
                    <path d="M17.3204241,98.8861633 C17.3204241,98.8861633 17.8107108,99.4737644 18.2847549,99.7298828 C18.7590997,99.985701 20.5042797,100.19588 20.7849162,100.461307 C20.9870467,100.65257 21.3239308,101.422727 18.5527582,101.350665 C16.5834901,101.299321 15.6335973,101.467165 15.4218415,101.151295 C15.2109882,100.835426 15.7274435,98.8201069 15.7274435,98.8201069 C15.7274435,98.8201069 16.1668968,98.9990595 17.3204241,98.8861633" id="Fill-54" fill="#292C47"></path>
                    <path d="M10.2721468,72.8392484 C10.2721468,72.8392484 8.81813098,75.1458156 8.92641516,77.2301933 C9.03500012,79.3148713 8.79707572,81.5418707 8.57840184,83.7193278 C8.33536402,86.1471985 7.67152186,91.1996076 7.63542713,92.4982151 C7.59903162,93.7971229 7.68295186,98.6834904 7.68295186,98.6834904 L10.2050708,98.6648745 C10.2050708,98.6648745 11.1005208,88.7930551 11.5345599,87.7676805 C11.9682982,86.742306 13.7495729,79.3259808 13.8217623,78.5056812 C13.8939518,77.6856818 10.2721468,72.8392484 10.2721468,72.8392484" id="Fill-55" fill="#292C47"></path>
                    <path d="M17.926996,73.151815 C17.926996,73.151815 18.5015037,78.8191485 18.6461834,80.0952369 C18.7905623,81.371025 18.6919034,86.8996402 18.763792,87.6971204 C18.8362823,88.4946005 18.2807243,96.9287939 18.1438651,98.5351639 L15.3714894,98.5174488 C15.3714894,98.5174488 15.1801873,91.6947298 15.1801873,88.3799027 C15.1801873,85.0647753 14.328051,81.2055839 13.3516887,79.0185186 C12.3753264,76.831153 10.1404613,76.779509 9.54038644,72.7212478 C9.54038644,72.7212478 17.1145639,71.8649174 17.926996,73.151815" id="Fill-56" fill="#292C47"></path>
                    <path d="M11.8083985,53.3947546 C11.8083985,53.3947546 13.5409454,52.2393692 14.7576384,53.4770248 C15.9743315,54.7146803 16.5723008,57.624462 15.6988084,58.2051573 C14.8247144,58.7858526 13.3427252,58.9383827 12.6391788,58.1502104 C11.9356324,57.3626387 11.1845614,56.1604134 10.9998767,55.2830651 C10.8148912,54.4051163 11.3689452,53.7640696 11.8083985,53.3947546" id="Fill-57" fill="#EEA886"></path>
                    <path d="M15.1094718,58.4011645 C15.1094718,58.4011645 15.0869126,59.6169013 15.2210646,59.8757221 C15.3555175,60.1348431 12.6926291,60.141749 12.6926291,60.141749 C12.6926291,60.141749 12.4763615,58.7323469 12.0663856,57.5415313 C11.6567104,56.3504154 15.1094718,58.4011645 15.1094718,58.4011645" id="Fill-58" fill="#EEA886"></path>
                    <path d="M12.1332811,57.5218045 C12.1332811,57.5218045 12.3814324,57.7743198 13.084678,57.4884761 C13.7882243,57.202332 14.4496602,56.0226259 14.7293943,55.8448743 C15.00973,55.6665222 14.9700258,55.4872693 14.9700258,55.4872693 L15.2265991,55.7205682 L15.5553619,55.6644204 C15.5553619,55.6644204 15.0551492,54.8666399 15.4172996,54.4081489 C15.7791492,53.9496579 14.2920465,51.7088467 12.1426056,53.0768134 C12.1426056,53.0768134 10.4608922,53.9949965 10.7673966,55.0008544 C11.0742017,56.006412 11.6105092,57.1080516 12.1332811,57.5218045" id="Fill-59" fill="#754836"></path>
                    <path d="M15.3790994,59.8446756 C15.3790994,59.8446756 15.370978,59.3498536 15.1459876,59.3021129 C14.9212979,59.2546724 12.6644752,59.0378875 12.3883505,59.1465802 L12.3883505,59.7230719 C12.3883505,59.7230719 12.9201462,60.0497505 15.3790994,59.8446756" id="Fill-60" fill="#E2D2CA"></path>
                    <path d="M14.8339186,55.1270821 C14.7527055,54.965244 14.200757,54.5785142 14.1571425,55.1417946 C14.1138288,55.7053753 14.7000673,56.3112921 14.9196436,56.196294 C15.1395206,56.0809956 15.0405609,55.5366314 14.8339186,55.1270821" id="Fill-61" fill="#EEA886"></path>
                    <path d="M11.3075842,53.6923684 C11.3075842,53.6923684 8.82968129,54.3556341 12.0327874,57.4263531 L11.3075842,53.6923684 Z" id="Fill-62" fill="#754836"></path>
                    <path d="M33.4458631,66.8432245 L30.9207363,66.8201048 C31.1388086,66.6933967 31.491033,66.4658026 31.4131285,66.361914 C31.3018364,66.214188 30.5868601,66.5387649 30.2962975,66.5684902 C30.0300989,66.5958135 29.5831259,66.5615843 29.2441363,66.6849896 L28.4467436,67.0242789 L29.1779626,67.6995549 C29.1779626,67.6995549 30.498428,67.8884159 30.8849424,67.915439 C31.5135922,67.9598769 33.4371403,67.2122392 33.4687231,67.0990427 C33.5264747,66.8945683 33.4458631,66.8432245 33.4458631,66.8432245" id="Fill-63" fill="#EEA886"></path>
                    <path d="M18.6754502,60.5308208 C17.0692349,60.2491806 15.3790994,59.8447357 15.3790994,59.8447357 L12.3883505,59.7228317 C12.3883505,59.7228317 9.64364744,60.3257459 8.5626104,60.8133618 C8.45974043,60.8599015 8.45974043,63.2580468 8.17820157,63.886783 L9.07425314,65.7741928 C9.07425314,65.7741928 9.59221245,69.5129815 9.69929347,71.1754994 C9.74862293,71.9390506 8.63179196,78.3336044 8.63179196,78.3336044 C8.63179196,78.3336044 9.82863291,78.6852043 11.8700904,78.9097958 C13.9109464,79.1343874 19.0111311,78.8284264 19.0433156,78.5882216 C19.0755001,78.3474162 18.0555233,69.6270788 18.0104049,69.1754937 C17.9412233,68.4822024 18.2107306,65.279671 18.2107306,65.279671 C18.5954402,65.7952107 20.8191761,67.7297606 21.9044242,68.3440846 C22.6768513,68.7815577 24.5709221,68.5143298 25.1285856,68.4575814 C26.3362549,68.3341761 29.6720092,68.096073 29.7369797,67.9777722 C29.7890162,67.9066115 29.5453768,66.6923759 29.4058106,66.6461364 C29.2836901,66.6053016 24.9772885,66.3930206 23.8971538,66.4488682 C23.4589037,66.4719879 22.0292518,64.8782286 22.0292518,64.8782286 C22.0292518,64.8782286 19.5612749,60.9280596 18.6754502,60.5308208" id="Fill-64" fill="#E52998"></path>
                    <polygon id="Fill-65" fill="#F6931D" points="0.282660789 48.4628083 8.18800731 48.4628083 8.18800731 54.1823864 8.18800731 55.3870138 6.98124031 54.1823864 0.282660789 54.1823864"></polygon>
                    <path d="M120.161817,30.0044155 L127.33023,30.0044155 L127.33023,22.8484123 L120.161817,22.8484123 L120.161817,30.0044155 Z M119.905846,30.2599334 L127.586503,30.2599334 L127.586503,22.5928944 L119.905846,22.5928944 L119.905846,30.2599334 Z" id="Fill-66" fill="#1C75BB"></path>
                    <path d="M129.378305,25.1486741 L146.446298,25.1486741 L146.446298,23.7855115 L129.378305,23.7855115 L129.378305,25.1486741 Z M129.122935,25.4041921 L146.70257,25.4041921 L146.70257,23.5299936 L129.122935,23.5299936 L129.122935,25.4041921 Z" id="Fill-67" fill="#1C75BB"></path>
                    <path d="M120.161817,33.8645077 L146.446298,33.8645077 L146.446298,32.5013451 L120.161817,32.5013451 L120.161817,33.8645077 Z M119.905846,34.1200256 L146.70257,34.1200256 L146.70257,32.2458271 L119.905846,32.2458271 L119.905846,34.1200256 Z" id="Fill-68" fill="#1C75BB"></path>
                    <path d="M120.161817,37.4636773 L136.717566,37.4636773 L136.717566,36.1005147 L120.161817,36.1005147 L120.161817,37.4636773 Z M119.905846,37.7191953 L136.973838,37.7191953 L136.973838,35.8449968 L119.905846,35.8449968 L119.905846,37.7191953 Z" id="Fill-69" fill="#1C75BB"></path>
                    <path d="M129.378305,28.7238233 L140.771304,28.7238233 L140.771304,27.3606607 L129.378305,27.3606607 L129.378305,28.7238233 Z M129.122634,28.9793412 L141.027276,28.9793412 L141.027276,27.1051428 L129.122634,27.1051428 L129.122634,28.9793412 Z" id="Fill-70" fill="#1C75BB"></path>
                    <path d="M117.111212,41.5393534 L149.497505,41.5393534 L149.497505,18.7727362 L117.111212,18.7727362 L117.111212,41.5393534 Z M116.854939,41.7948713 L149.753477,41.7948713 L149.753477,18.5169181 L116.854939,18.5169181 L116.854939,41.7948713 Z" id="Fill-71" fill="#1C75BB"></path>
                    <path d="M17.1242192,25.1397265 C16.7013093,25.1397265 16.3572063,25.4832195 16.3572063,25.9050793 C16.3572063,26.3269391 16.7013093,26.670432 17.1242192,26.670432 C17.5468283,26.670432 17.8906305,26.3269391 17.8906305,25.9050793 C17.8906305,25.4832195 17.5468283,25.1397265 17.1242192,25.1397265 M17.1242192,26.9568763 C16.5427933,26.9568763 16.070554,26.4848738 16.070554,25.9050793 C16.070554,25.3252848 16.5427933,24.8532822 17.1242192,24.8532822 C17.7050435,24.8532822 18.1775836,25.3252848 18.1775836,25.9050793 C18.1775836,26.4848738 17.7050435,26.9568763 17.1242192,26.9568763" id="Fill-78" fill="#1C75BB"></path>
                    <path d="M95.7621438,1.02087606 C95.3398355,1.02087606 94.9954317,1.36436901 94.9954317,1.78622881 C94.9954317,2.20838886 95.3398355,2.55158156 95.7621438,2.55158156 C96.1850537,2.55158156 96.528856,2.20838886 96.528856,1.78622881 C96.528856,1.36436901 96.1850537,1.02087606 95.7621438,1.02087606 M95.7621438,2.83802586 C95.1813195,2.83802586 94.7087794,2.3660233 94.7087794,1.78622881 C94.7087794,1.20643431 95.1813195,0.73473201 95.7621438,0.73473201 C96.3432689,0.73473201 96.815809,1.20643431 96.815809,1.78622881 C96.815809,2.3660233 96.3432689,2.83802586 95.7621438,2.83802586" id="Fill-79" fill="#1C75BB"></path>
                    <path d="M130.200453,38.6643113 C129.777843,38.6643113 129.43344,39.0078043 129.43344,39.4296641 C129.43344,39.8515239 129.777843,40.1950168 130.200453,40.1950168 C130.623062,40.1950168 130.967165,39.8515239 130.967165,39.4296641 C130.967165,39.0078043 130.623062,38.6643113 130.200453,38.6643113 M130.200453,40.4814611 C129.619628,40.4814611 129.146787,40.0094586 129.146787,39.4296641 C129.146787,38.8498696 129.619628,38.377867 130.200453,38.377867 C130.781277,38.377867 131.253817,38.8498696 131.253817,39.4296641 C131.253817,40.0094586 130.781277,40.4814611 130.200453,40.4814611" id="Fill-80" fill="#1C75BB"></path>
                </g>
                <g id="Group-95" transform="translate(20.950704, 82.964789)">
                    <mask id="mask-7" fill="white">
                        <use xlink:href="#path-6"></use>
                    </mask>
                    <g id="Clip-94"></g>
                    <polygon id="Fill-93" fill="url(#linearGradient-8)" mask="url(#mask-7)" points="49.8280283 0.246619718 9.1060394 0.246619718 0.193425003 33.3388556 50.0949668 33.3388556 99.4626315 33.3388556 90.5503184 0.246619718"></polygon>
                </g>
                <g id="Group-190" transform="translate(29.330986, 84.640845)" fill="#FFFFFF">
                    <path d="M3.73200186,4.18208401 L8.70996258,4.18208401 C8.91827681,4.18208401 9.07503702,4.3408683 9.03607176,4.51200247 L8.55410158,6.63647739 C8.52412831,6.7673274 8.38715046,6.86200988 8.2279924,6.86200988 L3.16460785,6.86200988 C2.95209736,6.86200988 2.79413823,6.6973447 2.8405968,6.52356412 L3.4079908,4.39938325 C3.44156087,4.27264986 3.57614085,4.18208401 3.73200186,4.18208401" id="Fill-96"></path>
                    <polygon id="Fill-98" points="10.9929367 4.18208401 14.7560807 4.18208401 14.2555271 6.86200988 10.4204472 6.86200988"></polygon>
                    <polygon id="Fill-100" points="16.6380724 4.18208401 20.4012165 4.18208401 20.0076675 6.86200988 16.1719881 6.86583247"></polygon>
                    <polygon id="Fill-102" points="22.2829384 4.18208401 26.0463822 4.18208401 25.7601375 6.86200988 21.9250576 6.86200988"></polygon>
                    <polygon id="Fill-104" points="27.9281041 4.18208401 31.6915479 4.18208401 31.5123078 6.86200988 27.6775276 6.86200988"></polygon>
                    <polygon id="Fill-106" points="33.5729701 4.18208401 37.3367137 4.18208401 37.2650776 6.86200988 33.4296979 6.86583247"></polygon>
                    <polygon id="Fill-108" points="78.746555 4.18208401 73.1013893 4.18208401 73.7095469 6.86200988 79.4620169 6.86200988"></polygon>
                    <polygon id="Fill-110" points="71.2195774 4.18208401 67.4561336 4.18208401 67.9572867 6.86200988 71.7920669 6.86200988"></polygon>
                    <polygon id="Fill-112" points="65.5747114 4.18208401 61.8109679 4.18208401 62.2045169 6.86200988 66.0401963 6.86583247"></polygon>
                    <polygon id="Fill-114" points="59.9295457 4.18208401 56.1658022 4.18208401 56.4520469 6.86200988 60.2871268 6.86200988"></polygon>
                    <polygon id="Fill-116" points="54.28438 4.18208401 50.5206364 4.18208401 50.6998766 6.86200988 54.5346568 6.86200988"></polygon>
                    <polygon id="Fill-118" points="48.6392442 4.18208401 44.8755007 4.18208401 44.9477363 6.86200988 48.7828162 6.86583247"></polygon>
                    <polygon id="Fill-120" points="39.2181358 4.18208401 42.9818794 4.18208401 43.0439241 6.86200988 39.2181358 6.86200988"></polygon>
                    <polygon id="Fill-122" points="2.07615851 8.8589575 9.94024544 8.8589575 9.49214504 11.6235683 1.47909097 11.6235683"></polygon>
                    <polygon id="Fill-124" points="79.9741702 8.8589575 70.2532392 8.8589575 70.8071452 11.6235683 80.7124119 11.6235683"></polygon>
                    <polygon id="Fill-126" points="68.3092029 8.8589575 64.4210702 8.8589575 64.8640752 11.6235683 68.8262418 11.6235683"></polygon>
                    <polygon id="Fill-128" points="62.4770039 8.8589575 58.5885716 8.8589575 58.9209751 11.6235683 62.882842 11.6235683"></polygon>
                    <polygon id="Fill-130" points="56.644775 8.8589575 52.7563427 8.8589575 52.9778451 11.6235683 56.939712 11.6235683"></polygon>
                    <polygon id="Fill-132" points="50.8123063 8.8589575 46.923874 8.8589575 47.0344753 11.6235683 50.9966419 11.6235683"></polygon>
                    <polygon id="Fill-134" points="0.901536023 13.7870924 8.94096658 13.7870924 8.35438968 16.5331784 0.1680901 16.5331784"></polygon>
                    <polygon id="Fill-136" points="10.951064 13.7870924 14.9707793 13.7870924 14.4942043 16.5331784 10.4010545 16.5331784"></polygon>
                    <polygon id="Fill-138" points="16.9808467 13.7870924 21.000562 13.7870924 47.1273625 13.7870924 47.2394625 16.5331784 16.5408391 16.5331784"></polygon>
                    <polygon id="Fill-140" points="49.1397679 13.7870924 53.1591834 13.7870924 53.379487 16.5331784 49.2860374 16.5331784"></polygon>
                    <polygon id="Fill-142" points="55.1695506 13.7870924 59.1892659 13.7870924 59.5192716 16.5331784 55.4258221 16.5331784"></polygon>
                    <polygon id="Fill-144" points="61.1993333 13.7870924 65.2187489 13.7870924 65.6590562 16.5331784 61.5659064 16.5331784"></polygon>
                    <polygon id="Fill-146" points="67.2290861 13.7870924 71.2488014 13.7870924 71.7988109 16.5331784 67.7056611 16.5331784"></polygon>
                    <polygon id="Fill-148" points="73.2588688 13.7870924 81.2982994 13.7870924 82.0317453 16.5331784 73.8454457 16.5331784"></polygon>
                    <polygon id="Fill-150" points="44.9879904 8.8589575 41.1313297 8.8589575 41.1313297 11.6235683 45.0620243 11.6235683"></polygon>
                    <polygon id="Fill-152" points="39.1557914 8.8589575 35.2673591 8.8589575 35.156458 11.6235683 39.1186246 11.6235683"></polygon>
                    <polygon id="Fill-154" points="33.3232928 8.8589575 29.4351602 8.8589575 29.2136577 11.6235683 33.1758243 11.6235683"></polygon>
                    <polygon id="Fill-156" points="27.4910938 8.8589575 23.6026615 8.8589575 23.2702579 11.6235683 27.2327243 11.6235683"></polygon>
                    <polygon id="Fill-158" points="21.6585952 8.8589575 17.7701628 8.8589575 17.3271579 11.6235683 21.2893245 11.6235683"></polygon>
                    <polygon id="Fill-160" points="15.8261265 8.8589575 11.9376941 8.8589575 11.3843876 11.6235683 15.3462544 11.6235683"></polygon>
                    <polygon id="Fill-162" points="3.91582792 2.49794144 4.55455831 0.105003459 6.3820286 0.105003459 5.78556052 2.49794144"></polygon>
                    <polygon id="Fill-164" points="8.2092591 0.105091673 11.8633005 0.105091673 11.3522562 2.49802965 7.63407205 2.49802965"></polygon>
                    <polygon id="Fill-166" points="13.6911005 0.105091673 17.3451419 0.105091673 16.9303118 2.49802965 13.2115282 2.49802965"></polygon>
                    <polygon id="Fill-168" points="19.1729419 0.105091673 22.8269832 0.105091673 22.5077679 2.49802965 18.7895837 2.49802965"></polygon>
                    <polygon id="Fill-170" points="24.6544835 0.105091673 28.3088246 0.105091673 28.085224 2.49802965 24.3670398 2.49802965"></polygon>
                    <polygon id="Fill-172" points="30.1362949 0.105091673 33.790636 0.105091673 33.6632496 2.49802965 29.944466 2.49802965"></polygon>
                    <polygon id="Fill-174" points="35.6181363 0.105091673 39.2724774 0.105091673 39.2407057 2.49802965 35.5225215 2.49802965"></polygon>
                    <polygon id="Fill-176" points="41.0996779 0.105091673 44.7543188 0.105091673 44.8181618 2.49802965 41.0996779 2.49802965"></polygon>
                    <polygon id="Fill-178" points="46.5814893 0.105091673 50.2361302 0.105091673 50.3961874 2.49802965 46.6774038 2.49802965"></polygon>
                    <polygon id="Fill-180" points="52.0633307 0.105091673 55.7179715 0.105091673 55.9736435 2.49802965 52.2554594 2.49802965"></polygon>
                    <polygon id="Fill-182" points="57.5451721 0.105091673 61.1998129 0.105091673 61.5510996 2.49802965 57.8326157 2.49802965"></polygon>
                    <polygon id="Fill-184" points="63.0269835 0.105091673 66.6816243 0.105091673 67.1291252 2.49802965 63.4103416 2.49802965"></polygon>
                    <polygon id="Fill-186" points="68.5088248 0.105091673 72.163166 0.105091673 72.7065813 2.49802965 68.9883972 2.49802965"></polygon>
                    <polygon id="Fill-188" points="73.9906362 0.105091673 77.6449774 0.105091673 78.2840075 2.49802965 74.5655236 2.49802965"></polygon>
                </g>
                <g id="Group-193" transform="translate(20.950704, 116.485915)">
                    <mask id="mask-10" fill="white">
                        <use xlink:href="#path-9"></use>
                    </mask>
                    <g id="Clip-192"></g>
                    <path d="M0.193425003,0.109223005 C0.193425003,1.43721831 1.35457759,2.51408451 2.78688673,2.51408451 L2.78688673,2.51408451 L96.8688685,2.51408451 C98.3011777,2.51408451 99.4626315,1.43721831 99.4626315,0.109223005 L99.4626315,0.109223005 L0.193425003,0.109223005 Z" id="Fill-191" fill="url(#linearGradient-11)" mask="url(#mask-10)"></path>
                </g>
                <g id="Group-305" transform="translate(38.549296, 3.352113)">
                    <path d="M44.2447287,102.11344 C44.1482244,101.527034 43.6438246,101.097244 43.0522112,101.097244 L32.7652121,101.097244 L22.4782129,101.097244 C21.8868993,101.097244 21.3827992,101.527034 21.2862949,102.11344 L20.0008695,109.929775 C19.8791902,110.669483 20.447127,111.342028 21.1927876,111.342028 L32.7652121,111.342028 L44.3379363,111.342028 C45.0838966,111.342028 45.6515337,110.669483 45.530154,109.929775 L44.2447287,102.11344 Z" id="Fill-194" fill-opacity="0.70826049" fill="#BDBDBD"></path>
                    <polygon id="Fill-196" fill="#E0E0E0" points="0.169684677 35.7082966 8.54428021 35.7082966 8.54428021 34.8466083 0.169684677 34.8466083"></polygon>
                    <polygon id="Fill-198" fill="#E0E0E0" points="10.8879562 42.1967098 16.9344603 42.1967098 16.9344603 41.3350215 10.8879562 41.3350215"></polygon>
                    <polygon id="Fill-199" fill="#FEBA40" points="17.8764262 42.1967098 21.8888474 42.1967098 21.8888474 41.3350215 17.8764262 41.3350215"></polygon>
                    <polygon id="Fill-200" fill="#FFFFFF" points="0.264690467 58.5142725 4.27711164 58.5142725 4.27711164 57.6525843 0.264690467 57.6525843"></polygon>
                    <polygon id="Fill-201" fill="#E0E0E0" points="22.681861 42.1967098 32.3694545 42.1967098 32.3694545 41.3350215 22.681861 41.3350215"></polygon>
                    <polygon id="Fill-202" fill="#E0E0E0" points="0.264690467 55.2461218 6.48981747 55.2461218 6.48981747 54.3844335 0.264690467 54.3844335"></polygon>
                    <polygon id="Fill-203" fill="#E0E0E0" points="8.94228553 61.7586298 12.7425171 61.7586298 12.7425171 60.8972427 8.94228553 60.8972427"></polygon>
                    <polygon id="Fill-204" fill="#FFFFFF" points="0.264690467 61.7586298 7.79382438 61.7586298 7.79382438 60.8972427 0.264690467 60.8972427"></polygon>
                    <polygon id="Fill-205" fill="#E0E0E0" points="0.26499017 65.002987 4.41767226 65.002987 4.41767226 64.1412987 0.26499017 64.1412987"></polygon>
                    <polygon id="Fill-206" fill="#78C2FF" points="10.1734647 35.7082966 16.1186692 35.7082966 16.1186692 34.8466083 10.1734647 34.8466083"></polygon>
                    <polygon id="Fill-207" fill="#FFFFFF" points="10.1734647 45.4413682 16.1186692 45.4413682 16.1186692 44.57968 10.1734647 44.57968"></polygon>
                    <polygon id="Fill-208" fill="#E0E0E0" points="7.20071252 48.6857254 9.74099351 48.6857254 9.74099351 47.8240372 7.20071252 47.8240372"></polygon>
                    <polygon id="Fill-209" fill="#78C2FF" points="4.66073124 51.9776698 10.3664733 51.9776698 10.3664733 51.1159815 4.66073124 51.1159815"></polygon>
                    <polygon id="Fill-210" fill="#FFFFFF" points="11.2290179 51.9776698 19.1055074 51.9776698 19.1055074 51.1159815 11.2290179 51.1159815"></polygon>
                    <polygon id="Fill-211" fill="#FFFFFF" points="0.264690467 48.709519 6.20989504 48.709519 6.20989504 47.8478307 0.264690467 47.8478307"></polygon>
                    <polygon id="Fill-212" fill="#FEBA40" points="0.264690467 51.9776698 3.79249221 51.9776698 3.79249221 51.1159815 0.264690467 51.1159815"></polygon>
                    <polygon id="Fill-213" fill="#FF8761" points="10.9389056 48.709519 14.2668056 48.709519 14.2668056 47.8478307 10.9389056 47.8478307"></polygon>
                    <polygon id="Fill-214" fill="#FF8761" points="0.364491502 68.2473442 3.69239147 68.2473442 3.69239147 67.3859571 0.364491502 67.3859571"></polygon>
                    <polygon id="Fill-215" fill="#78C2FF" points="0.241013945 42.1967098 6.18591882 42.1967098 6.18591882 41.3350215 0.241013945 41.3350215"></polygon>
                    <polygon id="Fill-216" fill="#78C2FF" points="5.49840058 58.5142725 11.4436052 58.5142725 11.4436052 57.6525843 5.49840058 57.6525843"></polygon>
                    <polygon id="Fill-217" fill="#78C2FF" points="5.57182777 65.002987 11.5167326 65.002987 11.5167326 64.1412987 5.57182777 64.1412987"></polygon>
                    <polygon id="Fill-218" fill="#78C2FF" points="16.133055 65.002987 22.0779598 65.002987 22.0779598 64.1412987 16.133055 64.1412987"></polygon>
                    <polygon id="Fill-219" fill="#78C2FF" points="0.241313648 45.4413682 8.71600991 45.4413682 8.71600991 44.57968 0.241313648 44.57968"></polygon>
                    <polygon id="Fill-220" fill="#78C2FF" points="39.9540335 35.7082966 45.8989383 35.7082966 45.8989383 34.8466083 39.9540335 34.8466083"></polygon>
                    <polygon id="Fill-221" fill="#78C2FF" points="18.7752349 68.2473442 24.7204395 68.2473442 24.7204395 67.3859571 18.7752349 67.3859571"></polygon>
                    <polygon id="Fill-222" fill="#78C2FF" points="47.7487041 35.7082966 51.7284576 35.7082966 51.7284576 34.8466083 47.7487041 34.8466083"></polygon>
                    <polygon id="Fill-223" fill="#78C2FF" points="61.2131524 38.9523526 65.1926062 38.9523526 65.1926062 38.0906643 61.2131524 38.0906643"></polygon>
                    <polygon id="Fill-224" fill="#FEBA40" points="17.7193819 35.7082966 25.293771 35.7082966 25.293771 34.8466083 17.7193819 34.8466083"></polygon>
                    <polygon id="Fill-225" fill="#FFFFFF" points="47.231417 38.9523526 54.8055063 38.9523526 54.8055063 38.0906643 47.231417 38.0906643"></polygon>
                    <polygon id="Fill-226" fill="#FFFFFF" points="37.9418288 42.1967098 45.5162178 42.1967098 45.5162178 41.3350215 37.9418288 41.3350215"></polygon>
                    <polygon id="Fill-227" fill="#FFFFFF" points="28.0804077 45.4413682 35.654497 45.4413682 35.654497 44.57968 28.0804077 44.57968"></polygon>
                    <polygon id="Fill-228" fill="#78C2FF" points="46.4689731 42.1967098 51.8534337 42.1967098 51.8534337 41.3350215 46.4689731 41.3350215"></polygon>
                    <polygon id="Fill-229" fill="#FF8761" points="30.8958158 35.7082966 38.4699052 35.7082966 38.4699052 34.8466083 30.8958158 34.8466083"></polygon>
                    <polygon id="Fill-230" fill="#FF8761" points="22.2529863 45.4413682 26.6939825 45.4413682 26.6939825 44.57968 22.2529863 44.57968"></polygon>
                    <polygon id="Fill-231" fill="#FF8761" points="18.7752349 58.5621608 23.2162311 58.5621608 23.2162311 57.7004726 18.7752349 57.7004726"></polygon>
                    <polygon id="Fill-232" fill="#E0E0E0" points="26.6939825 35.7082966 29.4668328 35.7082966 29.4668328 34.8466083 26.6939825 34.8466083"></polygon>
                    <polygon id="Fill-233" fill="#E0E0E0" points="17.7193819 45.4413682 20.4916329 45.4413682 20.4916329 44.57968 17.7193819 44.57968"></polygon>
                    <polygon id="Fill-234" fill="#E0E0E0" points="56.6318952 38.9523526 59.4047456 38.9523526 59.4047456 38.0906643 56.6318952 38.0906643"></polygon>
                    <polygon id="Fill-235" fill="#FFFFFF" points="0.169684677 38.9523526 4.5072834 38.9523526 4.5072834 38.0906643 0.169684677 38.0906643"></polygon>
                    <polygon id="Fill-236" fill="#FEBA40" points="11.7427086 55.2699153 15.1671128 55.2699153 15.1671128 54.408227 11.7427086 54.408227"></polygon>
                    <polygon id="Fill-237" fill="#1487E3" points="5.57182777 38.9523526 6.97203928 38.9523526 6.97203928 38.0906643 5.57182777 38.0906643"></polygon>
                    <polygon id="Fill-238" fill="#E0E0E0" points="34.3232171 38.9523526 45.8989383 38.9523526 45.8989383 38.0906643 34.3232171 38.0906643"></polygon>
                    <polygon id="Fill-239" fill="#E0E0E0" points="23.2162311 65.002987 34.792252 65.002987 34.792252 64.1412987 23.2162311 64.1412987"></polygon>
                    <polygon id="Fill-240" fill="#FF8761" points="8.00121872 38.9523526 9.4302017 38.9523526 9.4302017 38.0906643 8.00121872 38.0906643"></polygon>
                    <polygon id="Fill-241" fill="#FFFFFF" points="29.4668328 38.9523526 33.2538775 38.9523526 33.2538775 38.0906643 29.4668328 38.0906643"></polygon>
                    <polygon id="Fill-242" fill="#FF8761" points="33.2535778 42.1967098 37.0409222 42.1967098 37.0409222 41.3350215 33.2535778 41.3350215"></polygon>
                    <polygon id="Fill-243" fill="#FF8761" points="13.7797885 68.2473442 17.5671329 68.2473442 17.5671329 67.3859571 13.7797885 67.3859571"></polygon>
                    <polygon id="Fill-244" fill="#FFFFFF" points="20.4059179 38.9523526 28.4640273 38.9523526 28.4640273 38.0906643 20.4059179 38.0906643"></polygon>
                    <polygon id="Fill-245" fill="#FFFFFF" points="12.9055554 58.5621608 17.6132871 58.5621608 17.6132871 57.7004726 12.9055554 57.7004726"></polygon>
                    <polygon id="Fill-246" fill="#FFFFFF" points="12.6028556 65.002987 14.9570212 65.002987 14.9570212 64.1412987 12.6028556 64.1412987"></polygon>
                    <polygon id="Fill-247" fill="#78C2FF" points="16.490001 38.9523526 19.2628514 38.9523526 19.2628514 38.0906643 16.490001 38.0906643"></polygon>
                    <polygon id="Fill-248" fill="#FF8761" points="7.15815472 42.1967098 9.93040569 42.1967098 9.93040569 41.3350215 7.15815472 41.3350215"></polygon>
                    <polygon id="Fill-249" fill="#FF8761" points="7.7108067 55.2699153 10.4830577 55.2699153 10.4830577 54.408227 7.7108067 54.408227"></polygon>
                    <polygon id="Fill-250" fill="#FFFFFF" points="10.6023394 38.9523526 15.4329492 38.9523526 15.4329492 38.0906643 10.6023394 38.0906643"></polygon>
                    <path d="M81.3323516,72.4797365 L46.3018888,72.4797365 C45.6374476,72.4797365 45.0991814,71.9382071 45.0991814,71.2704816 L45.0991814,46.8667229 C45.0991814,46.1989973 45.6374476,45.6577691 46.3018888,45.6577691 L81.3323516,45.6577691 C81.9967927,45.6577691 82.5356584,46.1989973 82.5356584,46.8667229 L82.5356584,71.2704816 C82.5356584,71.9382071 81.9967927,72.4797365 81.3323516,72.4797365" id="Fill-251" stroke="#178FE3" fill="#FFFFFF"></path>
                    <path d="M78.4927874,61.3253159 L72.4612684,61.3253159 C72.2059216,61.3253159 71.9994264,61.1177999 71.9994264,60.8617933 L71.9994264,59.9257125 C71.9994264,59.6694047 72.2059216,59.4618887 72.4612684,59.4618887 L78.4927874,59.4618887 C78.7481342,59.4618887 78.9546294,59.6694047 78.9546294,59.9257125 L78.9546294,60.8617933 C78.9546294,61.1177999 78.7481342,61.3253159 78.4927874,61.3253159" id="Fill-252" fill="#4AAFFF"></path>
                    <path d="M78.4927874,64.814807 L72.4612684,64.814807 C72.2059216,64.814807 71.9994264,64.6075922 71.9994264,64.3512844 L71.9994264,63.4152036 C71.9994264,63.1588958 72.2059216,62.9513798 72.4612684,62.9513798 L78.4927874,62.9513798 C78.7481342,62.9513798 78.9546294,63.1588958 78.9546294,63.4152036 L78.9546294,64.3512844 C78.9546294,64.6075922 78.7481342,64.814807 78.4927874,64.814807" id="Fill-253" fill="#4AAFFF"></path>
                    <path d="M78.4927874,68.3046295 L72.4612684,68.3046295 C72.2059216,68.3046295 71.9994264,68.0971135 71.9994264,67.8408056 L71.9994264,66.905026 C71.9994264,66.648417 72.2059216,66.440901 72.4612684,66.440901 L78.4927874,66.440901 C78.7481342,66.440901 78.9546294,66.648417 78.9546294,66.905026 L78.9546294,67.8408056 C78.9546294,68.0971135 78.7481342,68.3046295 78.4927874,68.3046295" id="Fill-254" fill="#4AAFFF"></path>
                    <path d="M61.5162718,66.1322173 C58.3954664,67.2541288 55.0316021,66.2415472 53.0044124,63.8465296 C52.5209917,63.2760866 52.1136956,62.6264321 51.8038029,61.9084087 C51.735171,61.7499858 51.6713343,61.5876474 51.6125925,61.4228996 C51.0227774,59.7654825 51.0260741,58.0399976 51.5118924,56.4810677 C52.2128972,54.2303175 53.9188056,52.325628 56.2984459,51.4705658 C57.083967,51.1880549 57.8847729,51.0413782 58.6753889,51.0169822 C61.9421495,50.9178926 65.0419756,52.9201658 66.2021252,56.1792811 C67.6430962,60.2281015 65.5448769,64.6841232 61.5162718,66.1322173 M68.6369108,55.3046419 C67.0898449,50.9573478 62.9557444,48.287349 58.5983652,48.4189665 C57.5434114,48.450892 56.47587,48.646963 55.428109,49.0234434 C52.2542562,50.1643295 49.9783131,52.704819 49.0432404,55.7064217 C48.3952829,57.7864004 48.3910871,60.0877496 49.1778069,62.2984424 C49.2560294,62.5183069 49.3408452,62.734256 49.4322546,62.9456874 C49.8461442,63.9031523 50.3892057,64.7693583 51.0338664,65.530451 C53.7380848,68.7251129 58.2249355,70.075322 62.3872081,68.5796408 C67.7608795,66.6478448 70.5589049,60.7045751 68.6369108,55.3046419" id="Fill-255" fill="#4AAFFF"></path>
                    <path d="M51.5119223,56.4810677 L49.0432703,55.7064217 C49.9783431,52.704819 52.2542862,50.1643295 55.4278392,49.0234434 C56.4756002,48.646963 57.5434413,48.450892 58.5983952,48.4189665 L58.6754188,51.0169822 C57.8848028,51.0413782 57.0839969,51.1880549 56.2984759,51.4705658 C53.9188356,52.325628 52.2129272,54.2303175 51.5119223,56.4810677" id="Fill-256" fill="#1A598C"></path>
                    <path d="M51.803713,61.9082882 L49.4321647,62.9455669 C49.3407553,62.7341356 49.2559394,62.5181864 49.177717,62.2983219 C48.3909971,60.0876292 48.395193,57.78628 49.0431504,55.7063012 L51.5118025,56.4809472 C51.0259842,58.0398772 51.0229872,59.7656632 51.6125026,61.4230803 C51.6715441,61.5878281 51.7350811,61.7501665 51.803713,61.9082882" id="Fill-257" fill="#2273B5"></path>
                    <path d="M51.0339863,65.5304209 C50.3893255,64.7693282 49.8459644,63.9031222 49.4320748,62.9456573 L51.8036231,61.9083786 C52.1138155,62.6264019 52.5211116,63.2760565 53.0042325,63.8464995 L51.0339863,65.5304209 Z" id="Fill-258" fill="#3788CC"></path>
                    <path d="M62.3568482,64.9603995 C62.3568482,64.9603995 61.8563445,64.0800378 62.6502573,61.7208612 C63.4174965,59.4393902 66.075261,59.6460026 66.9198235,61.1079512 C67.764386,62.5695986 67.4793686,63.4776692 66.235602,65.127858 C64.992135,66.7783479 62.8729365,65.7148662 62.3568482,64.9603995" id="Fill-259" fill="#EEA886"></path>
                    <path d="M68.5294373,105.548808 C68.5294373,105.548808 68.6607072,106.517718 68.6774905,106.663491 C68.6936745,106.808963 70.1403399,106.577654 70.1403399,106.577654 L70.2575237,105.424118 C70.2575237,105.424118 68.7104578,105.412372 68.5294373,105.548808" id="Fill-260" fill="#EEA886"></path>
                    <path d="M68.6617261,106.540307 C68.6617261,106.540307 68.2034806,107.124002 67.7602201,107.378202 C67.3172594,107.633004 66.6204503,107.733599 66.3582104,107.997135 C66.1693976,108.187183 65.6694933,109.006103 67.510268,108.989236 C69.3513423,108.972973 70.2387623,109.105192 70.4359668,108.791358 C70.6331712,108.477223 70.1509494,106.474649 70.1509494,106.474649 C70.1509494,106.474649 69.7001964,106.602351 68.6617261,106.540307" id="Fill-261" fill="#414773"></path>
                    <path d="M58.5139689,105.548808 C58.5139689,105.548808 58.6455385,106.517718 58.6620221,106.663491 C58.6785058,106.808963 60.1248715,106.577654 60.1248715,106.577654 L60.2420553,105.424118 C60.2420553,105.424118 58.6949894,105.412372 58.5139689,105.548808" id="Fill-262" fill="#EEA886"></path>
                    <path d="M58.6468572,106.540307 C58.6468572,106.540307 58.1886116,107.124002 57.7450514,107.378202 C57.3020907,107.633004 55.6705086,107.841724 55.4085683,108.105261 C55.2191562,108.295609 54.9047679,109.060918 57.4947996,108.989236 C59.3352745,108.938336 60.2235936,109.105192 60.4207981,108.791358 C60.6180025,108.477223 60.135481,106.474649 60.135481,106.474649 C60.135481,106.474649 59.563648,106.57675 58.6468572,106.540307" id="Fill-263" fill="#414773"></path>
                    <path d="M68.0424203,81.4246691 C68.0424203,81.4246691 68.7841847,83.7404752 68.6861819,85.7364235 C68.5884788,87.7323718 69.0698015,89.9165603 69.2664065,92.0016592 C69.485789,94.3258984 70.3833989,99.8285354 70.4154671,101.072125 C70.4481347,102.315113 70.276405,106.285927 70.276405,106.285927 L68.4799864,106.328996 C68.4799864,106.328996 66.9715821,96.7091697 66.5807697,95.7276101 C66.1899572,94.7460505 64.2523786,87.7480334 64.1873431,86.9628459 C64.1223076,86.1773573 68.0424203,81.4246691 68.0424203,81.4246691" id="Fill-264" fill="#2D314F"></path>
                    <path d="M60.5949254,81.1834807 C60.5949254,81.1834807 59.5043069,87.3071598 59.3739362,88.5290645 C59.2438651,89.7503668 59.1566516,94.4407098 59.0916161,95.204212 C59.0268803,95.967413 58.6576465,105.195097 58.3102909,106.329056 L60.3135045,106.329056 C60.3135045,106.329056 62.3697654,99.6213809 62.3697654,96.4475008 C62.3697654,93.2736207 63.7313153,89.5476698 64.6103436,87.4535354 C65.4896716,85.359401 67.5018763,85.3100068 68.0425401,81.4247293 C68.0425401,81.4247293 61.3262002,79.9513358 60.5949254,81.1834807" id="Fill-265" fill="#2D314F"></path>
                    <path d="M63.0832679,65.5830679 C63.0832679,65.5830679 63.3092438,66.2438663 63.0832679,66.7158221 C62.857292,67.1868743 65.9697056,66.9043634 65.9697056,66.9043634 C65.9697056,66.9043634 65.8288453,65.9294299 66.2358417,65.1276773 C66.6422387,64.3262259 63.0832679,65.5830679 63.0832679,65.5830679" id="Fill-266" fill="#EEA886"></path>
                    <path d="M68.1866972,81.9293636 C68.1866972,81.9293636 67.0673072,83.0850078 60.494525,81.7492554 L60.5949254,81.1833301 L68.0668161,81.4664434 L68.1866972,81.9293636 Z" id="Fill-267" fill="#2B3B57"></path>
                    <path d="M62.6120452,66.8687032 C62.6120452,66.8687032 61.4623852,66.9864663 61.1339109,67.049715 C60.8057364,67.1123613 58.5948288,66.6518505 58.1410787,66.6048658 C57.6873287,66.557881 55.7533464,65.2263453 55.6907086,65.0688259 C55.6283704,64.9119089 54.5140753,62.0771623 54.4514374,61.4642522 C54.3890993,60.8507398 53.3662136,61.1672845 53.4540265,61.5898461 C53.6179639,62.3801537 53.828655,64.2980953 53.9443403,64.8543827 C54.0690167,65.4546429 54.4028856,66.8138877 54.5907993,66.9813461 C54.7784132,67.1488046 56.5199862,68.479738 58.2246958,69.0456633 C59.9300048,69.6112874 61.2130325,70.4446643 61.2130325,70.4446643 L69.6152007,70.4446643 C69.6152007,70.4446643 72.8831601,65.7501047 72.9535902,65.042924 C73.0237207,64.3354421 70.6710536,59.6342565 70.201719,59.0445376 C69.7323845,58.4551199 69.0538573,59.2369944 69.0538573,59.2369944 C69.0538573,59.2369944 70.4600629,63.3830974 70.6473771,63.972515 C70.8349911,64.5619327 69.0118989,67.1515153 68.5113952,67.1596472 C68.0108915,67.167478 66.7260656,67.0021279 66.1548321,66.9786355 C65.5838982,66.9548419 64.9814956,66.703353 64.9814956,66.703353 L62.6120452,66.8687032 Z" id="Fill-268" fill="#EEA886"></path>
                    <path d="M58.9910359,70.004363 C58.9910359,70.004363 60.0199156,70.6916656 60.1137226,71.8701997 C60.2075296,73.0493362 60.5830572,74.9118599 60.7703714,75.5482623 C60.9582851,76.1849659 60.606434,80.8060366 60.5590809,81.1361346 C60.5123273,81.4665337 67.0611333,82.2505164 68.0666363,81.4665337 C68.0666363,81.4665337 68.3483569,77.1514663 68.4655407,75.9256463 C68.5830242,74.6998262 69.1458661,71.7292455 69.3337797,71.3283692 C69.5213937,70.9271917 71.7970371,67.719579 71.8908441,67.2967162 C71.8908441,67.2967162 70.7133117,65.410399 69.8690489,65.3869066 C69.8690489,65.3869066 68.5275792,66.9666182 68.0903128,67.0370954 C67.6527467,67.1078737 64.9722048,66.6142326 64.9716054,66.610016 C64.9716054,66.610016 64.6790954,67.0108923 63.1236379,66.5389365 C63.1236379,66.5389365 61.2708751,66.748862 60.9699735,66.7874136 C60.6049355,66.8346995 58.0685506,66.467857 58.0685506,66.467857 C58.0685506,66.467857 57.0507599,68.1948478 57.2290831,69.0664751 L58.9910359,70.004363 Z" id="Fill-269" fill="#FFC655"></path>
                    <path d="M54.510419,61.8323898 C54.510419,61.8323898 54.2805469,60.7396932 54.5574723,60.4258591 C54.715116,60.2472568 55.0930412,59.7743975 55.1278067,59.7051251 C55.1622726,59.6355515 55.5683699,59.400929 55.5683699,59.2879849 C55.5683699,59.1750408 55.1709639,59.0361948 54.8254066,59.3575584 C54.4795496,59.6789221 54.2637635,59.7484957 54.1256006,59.7135583 C53.9868382,59.6789221 53.7884349,58.5238803 53.7710521,58.2371529 C53.7539691,57.9504254 53.6436784,57.1950552 53.4653553,57.2471601 C53.2870321,57.299265 53.2957235,57.629363 53.2957235,57.629363 C53.2957235,57.629363 53.0883291,57.0559081 52.9501661,57.1691534 C52.8117035,57.2817963 52.8290862,57.5597894 52.8290862,57.5597894 C52.8290862,57.5597894 52.5695436,57.2384257 52.5006119,57.4727471 C52.4313806,57.7076709 52.5006119,57.9157892 52.5006119,57.9157892 C52.5006119,57.9157892 52.2323779,57.7682089 52.2155946,58.1329431 C52.1979121,58.4976773 52.2935173,59.565978 52.4832292,59.9481808 C52.6732408,60.3303837 53.3850349,61.3297132 53.4698508,61.720048 C53.5549664,62.1106841 54.510419,61.8323898 54.510419,61.8323898" id="Fill-270" fill="#EEA886"></path>
                    <path d="M69.2827703,59.9135145 C69.2827703,59.9135145 68.5011454,58.5928214 68.2350093,58.4750583 C67.9691729,58.3569941 67.593945,58.2901312 67.2654707,58.0543039 C66.9369964,57.8187778 66.5030268,57.6224056 66.5264036,57.5437965 C66.5497804,57.4651874 66.9369964,57.4965106 67.3514854,57.6772211 C67.7659744,57.8579317 67.9475943,57.7705883 67.9868554,57.6763176 C68.0261164,57.5820469 67.7659744,56.9161284 67.6406986,56.7589102 C67.5157226,56.601692 66.6241067,55.7005486 66.7727593,55.5668228 C66.9214119,55.4333981 67.500138,55.9288463 67.593945,56.0303454 C67.593945,56.0303454 67.1324027,55.0563154 67.3125241,55.0090295 C67.492046,54.9617435 67.8283126,55.3075031 67.8283126,55.3075031 C67.8283126,55.3075031 67.7896509,54.4744274 68.6809671,55.8264437 C68.6809671,55.8264437 68.4930534,55.3782814 68.7669818,55.5276688 C69.0406104,55.6770562 69.3067465,56.518264 69.3927612,56.9426326 C69.4784762,57.3667001 69.868989,58.7187164 70.2016591,59.0445978 C70.5343292,59.3707804 69.2827703,59.9135145 69.2827703,59.9135145" id="Fill-271" fill="#EEA886"></path>
                    <path d="M66.2356919,65.1277676 C66.2356919,65.1277676 65.8239002,65.1645121 64.9478689,64.8606172 C64.0718376,64.5567222 64.0068021,63.0176705 63.8173899,63.199887 C63.4307733,63.5718496 63.0657353,63.3149394 62.91978,63.0947736 C62.91978,63.0947736 63.3471562,62.5291495 63.1490527,62.2565778 C62.9509491,61.984006 62.6284689,61.7852243 62.6284689,61.7852243 C62.6284689,61.7852243 63.2446579,58.8013915 66.0480779,60.1609374 C69.332521,61.7539012 66.2356919,65.1277676 66.2356919,65.1277676" id="Fill-272" fill="#353A3D"></path>
                    <path d="M63.0832679,66.7157618 L63.1818701,66.2841647 C63.1818701,66.2841647 64.9713956,66.2477214 65.9475276,66.3898804 L66.0503257,66.9055079 C66.0503257,66.9055079 64.8002653,67.4750474 63.0832679,66.7157618" id="Fill-273" fill="#D4D8E8"></path>
                    <path d="M63.5246102,62.8224127 C63.6870492,62.5513468 64.2879533,62.3679256 64.3586832,63.1368491 C64.4135288,63.7328928 63.2845483,64.3840533 63.2740587,63.8286694 C63.2638688,63.2729844 63.4164175,63.0031233 63.5246102,62.8224127" id="Fill-274" fill="#EEA886"></path>
                    <path d="M54.467981,61.5844549 C54.467981,61.5844549 53.8224212,61.6001165 53.5092318,61.8844344 C53.5092318,61.8844344 53.4885523,62.065145 53.5613801,62.2070028 C53.5613801,62.2070028 54.1209252,61.9446713 54.5500996,61.8955783 C54.5500996,61.8955783 54.5429067,61.659751 54.467981,61.5844549" id="Fill-275" fill="#E55353"></path>
                    <path d="M53.7067359,61.7459198 C53.6473948,61.8877776 53.7133294,62.0516218 53.8544894,62.1115575 C53.9956494,62.171192 54.1586877,62.1046303 54.2183286,61.9630737 C54.2776698,61.8209147 54.2120348,61.6573716 54.0705751,61.5974359 C53.9294151,61.5375002 53.7663768,61.604062 53.7067359,61.7459198" id="Fill-276" fill="#353A3D"></path>
                    <path d="M37.8485313,38.687973 C37.8485313,38.687973 38.7713163,40.260155 39.1609299,40.5167641 C39.6902051,40.8652343 39.3584341,41.2179211 39.1072831,41.2182223 C38.8561322,41.2185235 37.5734042,41.3106859 37.2907844,40.9884187 C37.007865,40.6658503 36.8682035,39.6999522 36.6050644,39.4472586 C36.342225,39.194565 36.0706943,38.1901154 36.7327378,37.9461561 C37.3186568,37.730207 37.8485313,38.687973 37.8485313,38.687973" id="Fill-277" fill="#6069A8"></path>
                    <path d="M37.4490275,37.996484 C37.4490275,37.996484 38.5057796,39.8376236 38.6879989,40.109593 C38.8699185,40.3815624 38.3448392,40.3809601 38.0193619,40.2520532 C37.6938847,40.1228451 36.875696,38.8024532 36.7579128,38.5618069 C36.6179516,38.2747783 36.7327378,37.9461862 36.7327378,37.9461862 L37.4490275,37.996484 Z" id="Fill-278" fill="#202338"></path>
                    <polygon id="Fill-279" fill="#6069A8" points="36.3780995 38.9870791 36.6220575 40.8746011 36.7515291 40.8803236 36.7110693 39.5222836"></polygon>
                    <path d="M28.6970462,38.687973 C28.6970462,38.687973 29.6201308,40.260155 30.0094448,40.5167641 C30.5387199,40.8652343 30.2072486,41.2179211 29.9560977,41.2182223 C29.7049467,41.2185235 28.421919,41.3106859 28.139599,40.9884187 C27.8566795,40.6658503 27.7167183,39.6999522 27.4538789,39.4472586 C27.1910396,39.194565 26.9105178,38.1642135 27.5815523,37.9461561 C28.1704684,37.7546029 28.6970462,38.687973 28.6970462,38.687973" id="Fill-280" fill="#6069A8"></path>
                    <path d="M28.3528675,38.000309 C28.3528675,38.000309 29.3544743,39.8375332 29.5366936,40.1095027 C29.7189129,40.3814721 29.1935339,40.3811709 28.8683563,40.2519628 C28.5428791,40.1227548 27.724091,38.8023628 27.6069072,38.5617166 C27.4666463,38.2749891 27.5817322,37.9460959 27.5817322,37.9460959 L28.3528675,38.000309 Z" id="Fill-281" fill="#202338"></path>
                    <polygon id="Fill-282" fill="#6069A8" points="27.2266443 38.9870791 27.4706024 40.8746011 27.600074 40.8803236 27.5599138 39.5222836"></polygon>
                    <path d="M24.6027762,24.3803938 L32.9536952,28.2042296 C32.9536952,28.2042296 33.8857709,28.5090281 33.9903672,29.5490175 C34.3164438,32.795483 36.7329476,37.9463368 36.7329476,37.9463368 C37.5085784,38.3270338 37.4489376,37.9963334 37.4489376,37.9963334 C36.960422,36.420236 36.3655119,29.9236908 36.1533223,27.3118205 C36.1083669,26.758545 36.0804946,26.3796552 36.0742008,26.2585791 C36.0703047,26.1760546 35.9806935,26.0682306 35.8260469,25.9426367 C34.6799833,25.0086642 29.9650588,23.0753623 29.9650588,23.0753623 C26.4246695,22.985007 24.6027762,24.3803938 24.6027762,24.3803938" id="Fill-283" fill="#202338"></path>
                    <path d="M23.028737,26.0223301 C23.2870809,28.2908502 26.5094854,28.0309282 26.5094854,28.0309282 L30.4149127,28.0309282 C30.4149127,28.0309282 29.38903,30.3250489 28.9925232,32.2595557 C28.5723398,34.3130302 27.5815224,37.9462163 27.5815224,37.9462163 C27.5815224,37.9462163 27.6462582,38.0694007 28.3529574,38.0004295 C28.3529574,38.0004295 31.4183177,31.8604865 32.5919539,30.316917 C32.8443037,29.9847107 33.5677862,28.1815203 33.6924626,27.1062924 C33.7347207,26.7442689 33.7086466,26.4647698 33.5743797,26.3515245 C33.4383146,26.2373757 33.1272231,26.0223301 32.7121347,25.759095 C31.4887479,24.9841478 29.3644544,23.7905545 28.1806283,23.523404 C26.5955001,23.1652959 24.0884862,22.4942573 24.0884862,22.4942573 C24.0884862,22.4942573 22.7703932,23.7541112 23.028737,26.0223301" id="Fill-284" fill="#202338"></path>
                    <path d="M25.6865615,8.54981597 C25.6865615,8.54981597 25.102141,7.43453053 25.3868587,6.24696085 C25.671876,5.05939118 26.7681889,3.87603809 28.3739965,4.41967574 C29.9795045,4.9630122 31.2772176,6.21624006 30.3148719,7.66553888 C29.3522265,9.11483771 31.186108,9.76931118 30.7185716,10.4590232 C30.2513349,11.1487353 30.4284593,11.8688669 30.6262631,12.0293981 C30.8243667,12.1896282 31.4621343,12.7615771 31.3920038,13.4389406 C31.3218733,14.1157017 28.2771925,11.4652799 28.2771925,11.4652799 C28.2771925,11.4652799 26.6186372,8.11701414 25.6865615,8.54981597" id="Fill-285" fill="#464240"></path>
                    <path d="M30.5801389,22.8032724 C30.5801389,22.8032724 30.3382787,23.9839148 24.1014633,22.4933537 C24.1014633,22.4933537 26.1918904,21.7952085 30.5801389,22.8032724" id="Fill-286" fill="#EB4747"></path>
                    <path d="M24.0305836,22.8244757 C23.9337796,23.0100053 23.8369756,23.1955348 23.7404713,23.3810643 C26.0206102,23.447626 28.3004495,23.514489 30.5802887,23.5813519 C30.2197462,22.3675792 30.3366303,20.7243177 30.3998676,19.4768123 C30.4771909,17.953121 31.3142609,16.8938558 31.2252492,15.3526958 C31.6763019,15.4261847 31.7542246,15.4400392 32.2058767,15.5093116 C31.5150618,13.5314343 31.2785963,12.5513806 29.1324245,11.7899867 C28.4335175,11.5421121 27.9746725,11.493019 27.2185223,11.5556654 C24.733087,11.7613742 23.9832305,11.7908903 22.7628407,14.0542903 C24.6737458,14.3599923 24.3590579,15.0497044 24.9383834,16.9601163 C25.2213028,17.8916794 25.5162104,18.9313675 25.3645608,19.9138307 C25.2153088,20.8812347 24.0305836,21.9423069 24.0305836,22.8244757" id="Fill-287" fill="#FFFFFF"></path>
                    <path d="M27.9969704,12.2694721 C26.9794794,12.0761118 27.1961645,11.507777 27.1961645,11.507777 C27.1961645,11.507777 27.2432178,11.1870158 27.2617994,10.7813205 C27.266295,10.6774119 27.2689923,10.568082 27.2683929,10.456945 C27.2680932,10.288583 27.2600012,10.1163056 27.2408202,9.95426846 C27.1572031,9.26817063 29.0869895,9.67748009 29.0869895,9.67748009 C29.0869895,9.67748009 28.9757998,11.0656385 29.2419359,11.4818752 C29.5077722,11.8981119 29.0144614,12.4625313 27.9969704,12.2694721" id="Fill-288" fill="#EEA886"></path>
                    <path d="M26.0565146,11.5041628 C26.0565146,11.5041628 28.10828,13.8850247 28.8668278,14.4367943 C28.8668278,14.4367943 29.7380639,13.645282 29.2009965,11.5556654 C29.2009965,11.5556654 28.2104787,11.0572053 26.0565146,11.5041628" id="Fill-289" fill="#EEA886"></path>
                    <path d="M26.1124092,5.77386056 C26.1124092,5.77386056 25.046666,7.83727417 26.1034181,9.79135787 C27.1604699,11.7457428 29.2368109,8.94051224 29.3707781,8.6113178 C29.5053447,8.28212337 30.2171388,6.42020206 28.8013428,5.85457795 C27.3849473,5.28895385 26.4142099,5.21395896 26.1124092,5.77386056" id="Fill-290" fill="#EEA886"></path>
                    <path d="M26.466538,6.50594923 C26.466538,6.50594923 25.7331653,7.47425674 25.6462514,8.18956944 C25.6462514,8.18956944 25.3540412,6.83695077 26.1797224,5.53764172 C27.0054037,4.23803149 29.1048218,5.47589894 29.3859431,5.99483948 C29.6670643,6.5140812 30.491247,6.97158015 29.1069197,9.2027534 C29.1069197,9.2027534 26.6172885,7.46461884 26.466538,6.50594923" id="Fill-291" fill="#464240"></path>
                    <path d="M28.1693595,9.99736793 C28.1693595,9.99736793 27.9844428,10.4036655 27.2618594,10.7813506 C27.2663549,10.6774421 27.2690522,10.5681122 27.2684528,10.4569752 C27.2684528,10.4569752 27.7578675,10.3976419 28.1693595,9.99736793" id="Fill-292" fill="#A77860"></path>
                    <path d="M17.4002584,20.9680962 C17.4002584,20.9680962 16.8940603,21.1942856 16.653399,21.091883 C16.413337,20.9891791 16.0420053,20.969301 15.9248215,20.9689998 C15.7683766,20.9686986 15.2777631,20.792807 15.2858551,20.9852637 C15.2948462,21.1780217 16.0824651,21.3123499 16.2437053,21.3722855 C16.4049454,21.4325224 15.7611837,21.7885222 15.7015429,21.946644 C15.641902,22.1047657 16.3683816,23.1423456 16.7777757,22.8468839 C17.1874694,22.5511209 17.4092495,21.9607997 17.4928665,21.9231516 C17.5761839,21.8858048 17.8003616,21.7201534 17.8003616,21.7201534 L17.4002584,20.9680962 Z" id="Fill-293" fill="#EEA886"></path>
                    <path d="M15.779106,21.854572 C15.779106,21.854572 14.591084,22.8445647 14.5728022,22.9779894 C14.5539209,23.1117152 14.6165588,23.1743615 14.7319444,23.0864157 C14.8470302,22.9984699 15.9100761,22.1638882 15.9100761,22.1638882 C15.9100761,22.1638882 14.7196565,23.5764426 14.6794964,23.6812547 C14.6561195,23.7429975 14.7703063,23.8703984 14.8365406,23.8291362 C14.9030747,23.7878739 16.1690193,22.4578441 16.1690193,22.4578441 C16.1690193,22.4578441 15.0601189,23.7791396 15.0541249,23.877928 C15.0487302,23.9643679 15.1823977,24.0577351 15.2720088,23.9655727 C15.3613202,23.8734103 16.464826,22.7078271 16.464826,22.7078271 C16.464826,22.7078271 15.7230615,23.7222158 15.7689161,23.8116675 C15.7970881,23.8661819 15.8905954,23.9809331 16.0731144,23.7125779 C16.2559331,23.4445238 16.7576356,22.8602263 16.7576356,22.8602263 L15.779106,21.854572 Z" id="Fill-294" fill="#EEA886"></path>
                    <path d="M30.0070771,28.0312294 L26.5095454,28.0312294 C26.5095454,28.0312294 23.2871408,28.2908502 23.0290967,26.0226313 C22.7704532,23.7541112 24.0885461,22.4945585 24.0885461,22.4945585 C24.0885461,22.4945585 25.790858,22.9499491 27.2770843,23.3107679 C28.0209466,23.1520438 28.9176574,23.0487376 29.964819,23.0752418 C29.964819,23.0752418 36.264572,25.1672679 36.0748602,26.2683977 C36.0748602,26.2683977 33.4395734,24.8525303 30.0070771,28.0312294" id="Fill-295" fill="#FF7E55"></path>
                    <polygon id="Fill-296" fill="#5E5853" points="27.7306245 24.1031838 34.399012 24.0043953 31.0321506 25.7226517"></polygon>
                    <path d="M29.8022003,23.2469771 C29.8022003,23.2469771 28.301888,23.8306722 26.4629116,23.3029973 L26.3768969,22.6129841 L30.1633422,22.8244155 L29.8022003,23.2469771 Z" id="Fill-297" fill="#325BB3"></path>
                    <polygon id="Fill-298" fill="#91887F" points="31.0320308 25.7226216 27.7305046 24.437167 27.7305046 24.1031537 31.2930719 25.3946319"></polygon>
                    <path d="M29.7787935,23.5662625 C29.761111,23.813836 30.0101641,23.9924383 30.2376385,23.8948546 L30.6245548,23.7289021 C30.7411392,23.6792066 30.808872,23.5557211 30.7884923,23.4298261 C30.6275518,22.4163409 30.2816948,18.4705255 30.7872934,17.7934632 C30.9740083,17.543179 31.0905927,17.3236157 31.1562276,17.1320624 C31.4900965,17.9967626 31.9054846,19.1108433 32.0703212,19.7098988 L35.2207971,23.9219612 L36.2775492,24.19122 C34.9588568,20.9992688 33.9003065,19.308119 33.9003065,19.308119 C33.6938113,18.7518316 33.1027973,17.0673078 32.5792165,15.56741 C32.2483446,14.6201854 31.9450454,13.746751 31.7820071,13.2775058 C31.6989894,13.0395703 31.5359511,12.8386803 31.3207644,12.7097735 C30.8328483,12.4164199 30.0197546,11.9544032 29.2821859,11.5947892 C29.2791889,11.5932833 29.2761919,11.5920785 29.2731949,11.5905726 C29.2495183,11.5791276 29.2261415,11.5676826 29.2027647,11.5562376 C29.2018656,11.5562376 29.2015659,11.5559364 29.2012662,11.5559364 L29.2009665,11.5556352 C30.6029762,13.6874177 30.0563183,19.7077905 29.7796926,23.5578294 C29.7793929,23.56054 29.7790932,23.5635519 29.7787935,23.5662625" id="Fill-299" fill="#0280DA"></path>
                    <path d="M24.5743943,11.7375505 C24.1251398,11.8071241 23.0114442,12.8937971 22.4204302,13.9904091 C21.7454995,15.242131 21.058281,16.6670339 20.5433916,17.1356767 C19.5966304,17.9979673 16.9460588,21.0450488 16.8201836,20.9712587 C16.7716317,20.9426461 17.5469629,21.8811364 17.6455651,21.9248081 C17.6947164,21.9464934 22.0017454,18.1961466 22.4153353,17.6248 C22.8076463,17.0829694 23.8563064,14.8093292 24.1700952,14.8593258 C24.1700952,14.8593258 24.1703949,14.8599281 24.1709943,14.8611329 C24.1709943,14.8614341 24.171294,14.8617352 24.1715937,14.8620364 C24.1952703,14.9135389 24.5767919,15.7448076 24.9385332,16.9600862 C24.9442276,16.9802656 24.9502216,17.0004449 24.9562157,17.0206243 C25.2052687,17.8678557 25.1824913,18.7882749 25.047625,19.8222406 C24.9457261,20.6026091 24.3661009,21.8784258 24.0166474,22.4994678 C23.9743893,22.5741615 23.9851786,22.7163205 24.0307334,22.8244456 L24.0307334,22.8244456 C24.0577067,22.8888991 24.0972674,22.9413051 24.1452199,22.959075 L25.409666,23.4298261 L25.7069712,23.5403607 C25.920959,23.6201745 26.1454364,23.5786111 26.3129703,23.4563303 C26.4505339,23.3560359 26.5497355,23.2015284 26.5740114,23.0144929 C26.854833,20.841147 27.2108799,18.6205152 27.4943988,17.7841264 C28.7384651,14.1135934 27.0082808,11.3556489 27.0082808,11.3556489 C27.0082808,11.3556489 24.9682038,11.5896691 24.5743943,11.7375505" id="Fill-300" fill="#0280DA"></path>
                    <polygon id="Fill-301" fill="#6E6760" points="31.0320308 25.7226216 33.0157636 20.2802214 39.4102227 20.3850335 37.5193977 25.4003544"></polygon>
                    <path d="M35.0616249,22.687708 C34.8668181,23.0798499 34.9255598,23.506628 35.1931944,23.6415586 C35.4614284,23.7758868 35.8366564,23.5671661 36.0314632,23.1753253 C36.2268694,22.7834846 36.167828,22.3564052 35.8998937,22.2217758 C35.632259,22.0871465 35.2567314,22.2958672 35.0616249,22.687708" id="Fill-302" fill="#807066"></path>
                    <path d="M28.3209491,7.82847959 C28.3209491,7.82847959 28.7303432,8.4687974 28.3521182,9.02177176 C27.9735936,9.57444494 28.4477234,10.1174802 28.5295423,10.7017778 C28.6119606,11.2860753 26.9501085,12.8410898 28.7983757,13.6232654 C30.6463432,14.405441 31.2346598,13.1124569 30.7626279,12.4007584 C30.2914951,11.6890599 29.9567271,11.1116896 29.9168666,10.0973009 C29.8770061,9.08261099 29.5449354,7.50109226 28.3209491,7.82847959" id="Fill-303" fill="#464240"></path>
                    <polygon id="Fill-304" fill="#1C75BB" points="14.9344236 0.14328041 22.810913 0.14328041 22.810913 5.88054004 22.810913 7.08919262 21.6088051 5.88054004 14.9344236 5.88054004"></polygon>
                </g>
            </g>
        </g>
    </g>
</svg>