<?xml version="1.0" encoding="UTF-8"?>
<svg width="34px" height="32px" viewBox="0 0 34 32" version="1.1" xmlns="http://www.w3.org/2000/svg" xmlns:xlink="http://www.w3.org/1999/xlink">
    <!-- Generator: Sketch 59.1 (86144) - https://sketch.com -->
    <title>Fill 179 Copy</title>
    <desc>Created with Sketch.</desc>
    <g id="Services-Page" stroke="none" stroke-width="1" fill="none" fill-rule="evenodd">
        <g id="Service-Page-Small-Business-Mobile-Icon-Design" transform="translate(-218.000000, -107.000000)" stroke="#979797">
            <path d="M237,128 L240,128 L240,114 L237,114 L237,128 Z M249,108 L242,112.667 L242,129.333 L249,134 C250.104,134 251,133.104 251,132 L251,110 C251,108.896 250.104,108 249,108 L249,108 Z M219,121 C219,124.733 221.561,127.148 225.019,127.81 L225,128 L225,136 C225,137.104 225.896,138 227,138 L230,138 C231.104,138 232,137.104 232,136 L232,128 L235,128 L235,114 L227,114 C222.582,114 219,116.582 219,121 L219,121 Z" id="Fill-179-Copy"></path>
        </g>
    </g>
</svg>