<?xml version="1.0" encoding="UTF-8"?>
<svg width="150px" height="119px" viewBox="0 0 150 119" version="1.1" xmlns="http://www.w3.org/2000/svg" xmlns:xlink="http://www.w3.org/1999/xlink">
    <!-- Generator: Sketch 59.1 (86144) - https://sketch.com -->
    <title>Design &amp; Development Support</title>
    <desc>Created with Sketch.</desc>
    <defs>
        <polygon id="path-1" points="0.1759 0 92.0789 0 92.0789 118.9999 0.1759 118.9999"></polygon>
    </defs>
    <g id="Services-Page" stroke="none" stroke-width="1" fill="none" fill-rule="evenodd">
        <g id="Services-Page-Support" transform="translate(-608.000000, -932.000000)">
            <g id="Design-&amp;-Development-Support" transform="translate(608.000000, 932.000000)">
                <g id="Group-185">
                    <g id="Group-3" transform="translate(30.000000, 0.000000)">
                        <mask id="mask-2" fill="white">
                            <use xlink:href="#path-1"></use>
                        </mask>
                        <g id="Clip-2"></g>
                        <path d="M92.0789,4.7169 L92.0789,114.2829 C92.0789,116.8889 89.9669,118.9999 87.3609,118.9999 L4.8919,118.9999 C3.7609,118.9999 2.7229,118.6019 1.9099,117.9369 C0.8509,117.0719 0.1759,115.7569 0.1759,114.2829 L0.1759,4.7169 C0.1759,2.1119 2.2869,-0.0001 4.8919,-0.0001 L87.3609,-0.0001 C88.8859,-0.0001 90.2419,0.7229 91.1029,1.8449 C91.7159,2.6409 92.0789,3.6369 92.0789,4.7169" id="Fill-1" fill="#AFAFAF" mask="url(#mask-2)"></path>
                    </g>
                    <path d="M122.0789,4.7169 L122.0789,114.2829 C122.0789,116.8889 119.9669,118.9999 117.3609,118.9999 L34.8919,118.9999 C33.7609,118.9999 32.7229,118.6019 31.9099,117.9369 L121.1029,1.8449 C121.7159,2.6409 122.0789,3.6369 122.0789,4.7169" id="Fill-4" fill="#AFAFAF"></path>
                    <path d="M91.7674,6.5201 L54.7824,6.5201 C54.2484,6.5201 53.8114,6.0831 53.8114,5.5491 C53.8114,5.0151 54.2484,4.5781 54.7824,4.5781 L91.7674,4.5781 C92.3014,4.5781 92.7384,5.0151 92.7384,5.5491 C92.7384,6.0831 92.3014,6.5201 91.7674,6.5201" id="Fill-6" fill="#FFF9FF"></path>
                    <path d="M98.429,5.3849 C98.538,6.0489 97.972,6.6149 97.307,6.5069 C96.905,6.4409 96.58,6.1159 96.514,5.7139 C96.406,5.0489 96.972,4.4829 97.636,4.5919 C98.038,4.6579 98.363,4.9829 98.429,5.3849" id="Fill-8" fill="#FFF9FF"></path>
                    <path d="M115.2664,13.1637 L115.2664,110.8307 C115.2664,111.8707 114.4224,112.7117 113.3824,112.7117 L39.0054,112.7117 C37.9664,112.7117 37.1224,111.8707 37.1224,110.8307 L37.1224,13.1637 C37.1224,12.1237 37.9664,11.2807 39.0054,11.2807 L113.3824,11.2807 C114.4224,11.2807 115.2664,12.1237 115.2664,13.1637" id="Fill-10" fill="#FFFFFF"></path>
                    <path d="M115.2664,13.1637 L115.2664,21.1857 L37.1224,21.1857 L37.1224,13.1637 C37.1224,12.1237 37.9664,11.2807 39.0054,11.2807 L113.3824,11.2807 C114.4224,11.2807 115.2664,12.1237 115.2664,13.1637" id="Fill-12" fill="#D4E1F7"></path>
                    <path d="M109.597,15.4522 L53.582,15.4522 C52.841,15.4522 52.201,15.9052 52.168,16.4942 C52.134,17.1192 52.761,17.6352 53.539,17.6352 L109.597,17.6352 C110.354,17.6352 110.969,17.1462 110.969,16.5432 C110.969,15.9412 110.354,15.4522 109.597,15.4522" id="Fill-14" fill="#FFFFFF"></path>
                    <path d="M43.6033,16.5435 L43.6033,17.3525 C43.6033,17.5845 43.3523,17.7295 43.1513,17.6135 L42.4513,17.2095 L41.7503,16.8045 C41.5493,16.6885 41.5493,16.3985 41.7503,16.2825 L42.4513,15.8785 L43.1513,15.4745 C43.3523,15.3575 43.6033,15.5025 43.6033,15.7345 L43.6033,16.5435 Z" id="Fill-16" fill="#2A3554"></path>
                    <path d="M47.2474,16.5435 L47.2474,17.3525 C47.2474,17.5845 47.4984,17.7295 47.6994,17.6135 L48.3994,17.2095 L49.0994,16.8045 C49.3004,16.6885 49.3004,16.3985 49.0994,16.2825 L48.3994,15.8785 L47.6994,15.4745 C47.4984,15.3575 47.2474,15.5025 47.2474,15.7345 L47.2474,16.5435 Z" id="Fill-18" fill="#2A3554"></path>
                    <path d="M143.9388,89.1173 L114.7138,89.1173 C115.1968,86.1843 117.5218,84.0543 120.2328,84.0632716 L129.3258,84.0903 L138.4198,84.0632716 C141.1298,84.0543 143.4558,86.1843 143.9388,89.1173" id="Fill-124" fill="#FF5767"></path>
                    <polygon id="Fill-126" fill="#FF5767" points="117.012 115.847 118.605 115.847 118.605 88.697 117.012 88.697"></polygon>
                    <polygon id="Fill-128" fill="#FF5767" points="140.047 115.847 141.64 115.847 141.64 88.697 140.047 88.697"></polygon>
                    <polygon id="Fill-129" fill="#E22445" points="118.605 97.868 140.048 97.868 140.048 96.332 118.605 96.332"></polygon>
                    <path d="M122.1712,52.4366 C122.1712,52.4366 117.2902,58.9456 116.6412,64.6226 C116.1822,68.6316 122.1712,74.6236 122.1712,74.6236 L124.2342,73.5966 L122.1772,68.9586 C121.4452,66.7016 120.5452,65.8086 121.2102,63.5296 L122.7002,60.3186 L122.1712,52.4366 Z" id="Fill-130" fill="#004386"></path>
                    <path d="M137.5516,52.338 C137.5516,52.338 142.3696,59.279 142.7686,64.979 C143.1126,69.893 137.2146,74.623 137.2146,74.623 L135.5116,73.775 L137.8706,69.091 C138.6026,66.832 138.9496,65.47 137.9526,63.013 L136.6866,60.318 L137.5516,52.338 Z" id="Fill-131" fill="#004386"></path>
                    <path d="M123.1653,67.2608 L119.9303,77.5528 C119.9303,77.5528 133.9373,79.3388 138.2213,78.1838 L136.0453,66.9738 L137.5513,52.3378 C135.4553,51.4538 133.2333,50.8908 130.9633,50.7268 C127.6513,50.4878 125.5593,51.0328 122.1713,52.4368 L123.1653,67.2608 Z" id="Fill-132" fill="#005DB1"></path>
                    <polygon id="Fill-133" fill="#F7AD89" points="129.157 110.6808 129.409 112.9528 131.826 113.0088 132.029 111.1228"></polygon>
                    <path d="M128.7776,74.6505 C128.7776,74.6505 122.5186,74.3065 120.3996,76.0425 C118.2786,77.7765 118.7056,82.7535 120.8646,84.1125 C123.0246,85.4705 126.7056,88.1415 126.7056,88.1415 L129.0476,111.4215 L132.1416,111.5265 C132.1416,111.5265 134.9926,88.1415 133.5476,83.6125 C132.1026,79.0835 128.7776,74.6505 128.7776,74.6505" id="Fill-134" fill="#001030"></path>
                    <path d="M132.4275,110.3722 C132.5955,110.9152 132.5155,111.4422 132.3475,111.9662 L128.7875,111.8872 C128.6615,111.3682 128.6425,110.8482 128.7185,110.3252 L132.4275,110.3722 Z" id="Fill-135" fill="#2E3052"></path>
                    <path d="M137.6346,74.4747 L121.2106,74.4747 L119.6926,65.5987 C119.5616,64.8297 120.1536,64.1277 120.9336,64.1277 L137.9116,64.1277 C138.6916,64.1277 139.2836,64.8297 139.1526,65.5987 L137.6346,74.4747 Z" id="Fill-136" fill="#D3D3D3"></path>
                    <path d="M135.721,76.4054 L123.14,76.4054 C122.075,76.4054 121.21,75.5414 121.21,74.4744 L137.651,74.4744 C137.651,75.5414 136.787,76.4054 135.721,76.4054" id="Fill-137" fill="#909091"></path>
                    <path d="M130.886,69.6681 C130.886,70.4551 130.247,71.0941 129.459,71.0941 C128.672,71.0941 128.033,70.4551 128.033,69.6681 C128.033,68.8801 128.672,68.2411 129.459,68.2411 C130.247,68.2411 130.886,68.8801 130.886,69.6681" id="Fill-138" fill="#FFF9FF"></path>
                    <polygon id="Fill-139" fill="#F7AD89" points="118.8909 104.2892 118.3549 106.5382 120.5239 106.9672 121.4079 104.9592"></polygon>
                    <path d="M131.9578,74.2657 C131.9578,74.2657 127.7658,72.8207 125.3088,75.8557 C122.8518,78.8907 118.7368,104.5137 118.7368,104.5137 L121.5578,105.6777 L130.6248,82.9217 C130.6248,82.9217 138.0088,87.1357 138.9038,81.1457 C139.6118,76.4057 131.9578,74.2657 131.9578,74.2657" id="Fill-140" fill="#001030"></path>
                    <path d="M122.1966,104.503 C122.1866,105.091 121.9376,105.582 121.6046,106.042 L118.1366,104.815 C118.1816,104.267 118.3306,103.75 118.5726,103.262 L122.1966,104.503 Z" id="Fill-141" fill="#445279"></path>
                    <path d="M120.0105,106.1681 C120.0105,106.1681 118.6965,105.5011 118.3085,105.4251 C117.9225,105.3491 114.7265,107.6161 113.8215,107.5941 C112.1785,107.5541 111.6535,109.9651 112.5865,110.2931 C115.2855,111.2421 120.2815,111.1241 120.2815,111.1241 C120.2815,111.1241 121.3905,108.1251 121.4115,107.1121 C121.4325,106.1011 120.7235,106.6221 120.0105,106.1681" id="Fill-142" fill="#005DB1"></path>
                    <path d="M130.3421,112.8585 C130.3421,112.8585 131.6871,112.4495 132.0631,112.442482 C132.4391,112.4345 135.0651,115.0945 135.9191,115.2245 C137.4671,115.4595 137.5611,117.8105 136.6301,117.9635 C133.9371,118.4075 129.2651,117.4675 129.2651,117.4675 C129.2651,117.4675 128.7201,114.4665 128.8691,113.5125 C129.0171,112.5585 129.5961,113.1665 130.3421,112.8585" id="Fill-143" fill="#005DB1"></path>
                    <path d="M133.9959,37.7564 C133.9959,37.7564 135.9879,40.8414 135.7689,44.0544 C135.5509,47.2684 136.0629,50.9784 133.1869,50.8154 C130.3119,50.6524 125.1829,51.9684 123.5529,49.4654 C121.9219,46.9634 133.9959,37.7564 133.9959,37.7564" id="Fill-144" fill="#2E3052"></path>
                    <path d="M134.7342,43.4288 C134.7342,43.4288 135.2512,48.0868 133.0402,49.3698 C130.8302,50.6528 129.2312,49.2208 129.2312,49.2208 C129.2312,49.2208 133.8892,42.7278 134.7342,43.4288" id="Fill-145" fill="#2E3052"></path>
                    <path d="M125.5525,43.4073 C125.5525,43.4073 124.7585,42.3493 124.1685,43.2243 C123.5785,44.0993 124.4125,46.6833 125.8575,46.0533 L125.5525,43.4073 Z" id="Fill-146" fill="#FA8465"></path>
                    <path d="M125.5423,45.254 C125.4893,45.254 125.4393,45.219 125.4243,45.165 C125.2013,44.367 124.3743,44.044 124.3663,44.041 C124.3033,44.017 124.2713,43.946 124.2953,43.883 C124.3193,43.82 124.3893,43.788 124.4523,43.813 C124.4913,43.827 125.4023,44.181 125.6603,45.1 C125.6783,45.164 125.6403,45.232 125.5753,45.25 C125.5643,45.253 125.5533,45.254 125.5423,45.254" id="Fill-147" fill="#FA664D"></path>
                    <path d="M124.7078,44.8526 C124.6858,44.8526 124.6628,44.8456 124.6418,44.8326 C124.5848,44.7966 124.5688,44.7206 124.6048,44.6646 C124.6108,44.6546 124.7578,44.4316 125.0638,44.2946 C125.1248,44.2676 125.1968,44.2946 125.2248,44.3566 C125.2518,44.4176 125.2248,44.4906 125.1638,44.5176 C124.9268,44.6236 124.8118,44.7946 124.8108,44.7966 C124.7878,44.8326 124.7478,44.8526 124.7078,44.8526" id="Fill-148" fill="#FA664D"></path>
                    <path d="M131.596,48.2452 L131.596,50.8152 C131.596,50.8152 130.829,52.1242 129.793,52.2142 C128.757,52.3042 127.837,51.0872 127.837,51.0872 L127.837,48.4262 L131.596,48.2452 Z" id="Fill-149" fill="#F7AD89"></path>
                    <path d="M133.9725,44.8907 C133.9245,45.1397 133.8705,45.3747 133.8115,45.5847 C133.2705,47.4787 131.9175,50.7267 128.1295,49.3727 C126.4565,48.7767 125.6815,46.9127 125.3355,45.0177 C125.1015,43.7317 125.0665,42.4307 125.0835,41.5017 C125.1015,40.5527 125.6195,39.6857 126.4445,39.2187 C128.6805,37.9507 131.0395,38.4237 132.5925,39.0207 C133.6705,39.4337 134.3605,40.4927 134.3055,41.6437" id="Fill-150" fill="#F7AD89"></path>
                    <path d="M134.7972,41.4454 C134.7582,41.5564 134.6492,41.6284 134.5042,41.6704 C134.5142,41.9404 134.4852,42.2634 134.4592,42.5744 C134.3082,44.3394 133.8632,44.6484 133.7622,44.2134 C133.6962,43.9234 133.7002,42.2604 133.7322,41.7184 C133.3832,41.6954 133.0862,41.6374 133.0862,41.6374 L132.6762,39.9244 L132.5332,41.6164 C131.9192,41.8304 130.4862,41.4874 130.4862,41.4874 L130.0052,39.7994 L129.7092,41.4244 C128.7882,41.8724 127.6362,41.5734 127.6362,41.5734 L127.3722,39.8214 L126.7612,41.5734 C126.7612,41.5734 124.7972,42.2784 124.7762,41.5734 C124.7622,41.1634 125.0632,40.0084 125.3172,39.1134 C125.5932,38.1384 126.2342,37.3134 127.1012,36.8484 C129.5382,35.5404 132.1152,36.2364 133.0002,36.7644 C134.8742,37.8834 134.7972,41.4454 134.7972,41.4454" id="Fill-151" fill="#2E3052"></path>
                    <path d="M125.8577,37.8868 C125.8577,37.8868 124.2397,39.8098 123.7087,43.2458 C123.1757,46.6818 122.4397,49.2208 124.5097,50.3558 C126.7507,51.5828 126.5567,49.0648 126.5247,48.3798 C126.4917,47.6958 124.5857,45.8248 125.8577,40.5558 C126.2687,38.8548 125.8577,37.8868 125.8577,37.8868" id="Fill-152" fill="#2E3052"></path>
                    <path d="M21.2688,50.3233 C23.1548,57.1823 29.3678,59.0973 29.3678,59.0973 C31.8308,58.5753 33.3928,57.8353 34.9418,56.9813 C34.4828,55.8823 34.2838,54.7643 34.0288,53.3143 C31.7408,53.9513 29.7648,54.2913 29.7648,54.2913 C24.9348,52.0523 22.0048,41.3363 22.0048,41.3363 C19.1338,44.0613 21.2688,50.3233 21.2688,50.3233" id="Fill-153" fill="#FD664D"></path>
                    <path d="M5.0218,105.4444 L2.9788,108.1774 C2.9788,108.1774 3.3518,109.3994 4.8648,110.3414 L7.3088,107.1964 L5.0218,105.4444 Z" id="Fill-154" fill="#F7AD89"></path>
                    <path d="M4.5257,109.4952 C4.5257,109.4952 5.4817,109.2892 5.8087,109.6192 C6.1357,109.9502 6.9567,114.4462 7.7247,115.4312 C8.4927,116.4142 7.7197,116.9372 7.2467,117.1372 C6.7747,117.3362 -0.0003,110.5682 -0.0003,110.5682 C-0.0003,110.5682 1.6747,108.2552 2.4827,107.8062 C3.2897,107.3562 3.6687,109.0182 4.5257,109.4952" id="Fill-155" fill="#FF5767"></path>
                    <path d="M17.5569,110.1378 L17.8669,113.5368 C17.8669,113.5368 18.9619,114.1958 20.7169,113.8828 L20.4289,109.9098 L17.5569,110.1378 Z" id="Fill-156" fill="#F7AD89"></path>
                    <path d="M20.097,113.4054 C20.097,113.4054 20.695,112.5784 21.18,112.6054 C21.664,112.6344 25.442,115.5504 26.724,115.7764 C28.008,116.0034 27.773,116.9484 27.545,117.4334 C27.318,117.9184 17.386,117.6404 17.386,117.6404 C17.386,117.6404 17.019,114.4344 17.332,113.5214 C17.645,112.6094 19.099,113.6344 20.097,113.4054" id="Fill-157" fill="#FF5767"></path>
                    <path d="M15.6521,73.2452 L13.5881,90.3272 C13.5881,90.3272 11.7361,92.8412 9.9711,96.0562 C8.4891,98.7542 4.5411,105.7572 4.5411,105.7572 L6.9291,107.5772 L20.0071,94.0242 L23.4891,73.0782 L15.6521,73.2452 Z" id="Fill-158" fill="#2E3052"></path>
                    <path d="M7.5179,107.5333 C7.3039,108.0723 6.9029,108.4383 6.4349,108.7463 L3.6619,106.4043 C3.8939,105.9133 4.2119,105.4883 4.6059,105.1223 L7.5179,107.5333 Z" id="Fill-159" fill="#2E3052"></path>
                    <path d="M5.0901,73.9513 C5.0901,73.9513 8.7731,83.0063 13.5591,90.0663 C13.5591,90.0663 14.2741,96.9383 15.4971,100.5973 C16.0321,102.1983 17.0691,109.7873 17.0691,109.7873 L20.7001,109.6223 L19.7631,88.5213 L15.9221,73.2393 L5.0901,73.9513 Z" id="Fill-160" fill="#2E3052"></path>
                    <path d="M21.0374,109.4972 C21.2674,110.1282 21.2044,110.7542 21.0374,111.3822 L16.8354,111.4992 C16.6574,110.8942 16.6034,110.2822 16.6614,109.6622 L21.0374,109.4972 Z" id="Fill-161" fill="#524E82"></path>
                    <path d="M22.0052,41.336 C22.5532,42.019 23.6512,48.979 23.8232,56.044 C23.8272,56.207 23.8312,56.369 23.8352,56.531 C23.8532,57.279 23.8692,58.03 23.8842,58.782 C23.8992,59.523 23.9122,60.263 23.9252,60.997 C23.9442,62.199 23.9622,63.383 23.9762,64.523 C23.9782,64.652 23.9792,64.78 23.9812,64.909 C23.9942,66.021 24.0052,67.086 24.0122,68.081 C24.0132,68.212 24.0142,68.34 24.0152,68.468 C24.0262,69.962 24.0342,71.284 24.0352,72.346 L24.0352,72.347 C24.0362,72.496 24.0362,72.637 24.0362,72.775 C24.0362,73.518 24.0342,74.107 24.0282,74.504 C22.2702,74.978 20.5112,75.321 18.7542,75.531 C18.7072,75.536 18.6602,75.543 18.6132,75.548 C18.5342,75.558 18.4572,75.566 18.3792,75.575 C18.3592,75.577 18.3412,75.579 18.3202,75.581 C18.0152,75.614 17.7122,75.644 17.4062,75.669 C15.8952,75.793 14.3832,75.82 12.8722,75.75 C12.7382,75.744 12.6082,75.737 12.4742,75.729 C12.3562,75.723 12.2362,75.716 12.1172,75.707 C12.0642,75.704 12.0092,75.7 11.9552,75.696 C11.8542,75.69 11.7552,75.681 11.6542,75.674 C9.4332,75.494 7.2122,75.106 4.9912,74.504 C4.9802,73.63 4.9692,71.848 4.9652,69.549 C4.9652,69.423 4.9652,69.296 4.9652,69.166 C4.9632,66.631 4.9732,63.52 5.0032,60.315 C5.0052,60.062 5.0082,59.809 5.0122,59.555 C5.0142,59.261 5.0172,58.966 5.0212,58.669 C5.0222,58.619 5.0222,58.569 5.0232,58.52 C5.0242,58.45 5.0252,58.381 5.0262,58.311 C5.0272,58.172 5.0292,58.031 5.0312,57.893 C5.0342,57.69 5.0372,57.487 5.0402,57.286 C5.0422,57.133 5.0452,56.98 5.0472,56.826 C5.0512,56.521 5.0562,56.216 5.0612,55.912 C5.1682,49.552 5.3822,43.706 5.7922,42.219 C5.8302,42.081 5.8702,41.981 5.9092,41.921 C5.9532,41.855 6.0072,41.789 6.0672,41.719 C6.1442,41.632 6.2332,41.543 6.3322,41.452 C7.0132,40.825 8.1942,40.097 9.3932,39.406 C9.5322,39.325 9.6732,39.245 9.8122,39.166 C9.8332,39.154 13.0672,38.063 13.0882,38.051 L16.4722,38.288 C16.4722,38.288 21.2002,40.332 22.0052,41.336" id="Fill-162" fill="#F6931D"></path>
                    <path d="M18.9764,30.5875 C18.9764,30.5875 19.4234,30.8035 19.5284,29.9335 C19.6324,29.0635 19.2774,28.9175 19.5284,28.4995 C19.7784,28.0825 19.9454,27.5395 19.5284,27.1635 C19.1104,26.7875 19.9504,25.8165 19.4654,25.3365 C18.9814,24.8565 18.1974,24.7545 17.8844,24.2125 C17.5714,23.6695 17.0764,22.6305 15.5954,22.6515 C14.1154,22.6725 13.6414,23.8645 12.8574,23.5515 C12.0754,23.2385 11.4994,23.0715 10.5914,23.7185 C9.6834,24.3665 10.6444,25.2425 9.7994,25.6815 C8.9544,26.1195 9.6264,27.3935 8.6624,28.1445 C7.9354,28.7115 8.6934,30.9215 10.1644,30.5875 C11.6364,30.2535 18.9764,30.5875 18.9764,30.5875" id="Fill-163" fill="#2A3554"></path>
                    <path d="M19.1697,33.4991 C19.1697,33.6421 19.0547,33.7571 18.9127,33.7571 C18.7707,33.7571 18.6547,33.6421 18.6547,33.4991 C18.6547,33.3571 18.7707,33.2421 18.9127,33.2421 C19.0547,33.2421 19.1697,33.3571 19.1697,33.4991" id="Fill-164" fill="#FFFFFF"></path>
                    <path d="M12.41,35.9049 L12.41,38.5419 C12.41,38.5419 13.643,39.5209 14.706,39.6119 C15.769,39.7049 16.266,38.8199 16.266,38.8199 L16.266,36.0909 L12.41,35.9049 Z" id="Fill-165" fill="#F7AD89"></path>
                    <path d="M9.6297,29.1334 C9.6787,30.1584 9.7767,31.4394 9.9717,32.4644 C10.0207,32.7194 10.0757,32.9604 10.1367,33.1754 C10.6917,35.1184 12.0797,38.4504 15.9657,37.0624 C17.6817,36.4494 18.4777,34.5384 18.8317,32.5944 C19.0717,31.2744 19.1087,29.9404 19.0907,28.9874 C19.0717,28.0134 18.5407,27.1244 17.6937,26.6444 C15.4007,25.3444 12.9807,25.8294 11.3877,26.4414 C10.2807,26.8664 9.5737,27.9524 9.6297,29.1334" id="Fill-166" fill="#F7AD89"></path>
                    <path d="M9.6297,29.1334 C9.6787,30.1584 9.7767,31.4394 9.9717,32.4644 L10.9397,32.4244 C10.9397,32.4244 11.0207,31.5354 10.9587,30.9714 C10.8957,30.4074 10.4557,29.5414 10.8267,29.2084 C11.7577,28.3694 11.2937,28.2974 11.6357,27.5224 C11.9177,26.8834 13.6497,26.5444 14.6467,27.0174 C15.6907,27.5134 16.7517,27.2884 17.2047,27.3934 C17.6587,27.4974 18.2757,28.1234 18.1087,28.7084 C17.9417,29.2924 18.4427,29.6484 18.5637,30.2534 C18.6847,30.8584 18.2967,32.4874 18.2967,32.4874 L18.8317,32.5944 C19.0717,31.2744 19.1087,29.9404 19.0907,28.9874 C19.0717,28.0134 18.5407,27.1244 17.6937,26.6444 C15.4007,25.3444 12.9807,25.8294 11.3877,26.4414 C10.2807,26.8664 9.5737,27.9524 9.6297,29.1334" id="Fill-167" fill="#2A3554"></path>
                    <path d="M10.075,33.6798 C10.075,33.8218 9.96,33.9368 9.818,33.9368 C9.676,33.9368 9.56,33.8218 9.56,33.6798 C9.56,33.5378 9.676,33.4218 9.818,33.4218 C9.96,33.4218 10.075,33.5378 10.075,33.6798" id="Fill-168" fill="#FFFFFF"></path>
                    <path d="M9.972,32.464 C10.046,33.067 10.829,36.45 12.129,37.009 C13.429,37.568 13.908,38.245 14.802,38.119 C15.335,38.044 16.2,37.396 17.01,36.99 C18.024,36.482 18.45,34.807 18.656,34.261 C18.862,33.715 18.832,32.594 18.832,32.594 L18.297,32.487 C18.297,32.487 18.011,34.271 17.173,35.146 C16.629,35.714 15.231,36.617 14.286,36.369 C13.341,36.121 11.749,35.183 11.299,34.186 C10.849,33.189 10.939,32.424 10.939,32.424" id="Fill-169" fill="#2A3554"></path>
                    <path d="M43.2713,46.5587 L25.9973,71.2417 C23.9773,74.1287 19.9993,74.8307 17.1123,72.8107 L14.9983,71.3307 C12.1113,69.3117 11.4093,65.3327 13.4293,62.4467 L30.7033,37.7637 C32.7243,34.8767 36.7023,34.1737 39.5893,36.1947 L41.7023,37.6737 C44.5893,39.6937 45.2923,43.6717 43.2713,46.5587" id="Fill-170" fill="#27A9E0"></path>
                    <path d="M24.2796,60.1427 C25.5586,61.0377 26.4126,62.3117 26.7976,63.7067 C26.8876,64.0337 26.9516,64.3657 26.9896,64.7007 C27.1616,66.2077 26.8046,67.7837 25.8656,69.1247 C24.9266,70.4657 23.5706,71.3407 22.0936,71.6967 C21.7656,71.7757 21.4316,71.8297 21.0956,71.8557 C19.6526,71.9717 18.1626,71.6057 16.8836,70.7107 C13.9656,68.6687 13.2556,64.6477 15.2976,61.7287 C17.3406,58.8107 21.3616,58.1007 24.2796,60.1427" id="Fill-171" fill="#FFF9FF"></path>
                    <path d="M20.7039,62.4933 C21.8239,63.2763 22.0959,64.8193 21.3119,65.9383 C20.5289,67.0573 18.9869,67.3293 17.8679,66.5463 C16.7489,65.7633 16.4759,64.2213 17.2599,63.1013 C18.0429,61.9823 19.5849,61.7103 20.7039,62.4933" id="Fill-172" fill="#0078CC"></path>
                    <path d="M26.99,64.7003 C27.162,66.2083 26.804,67.7833 25.865,69.1253 C24.927,70.4663 23.57,71.3413 22.094,71.6963 C21.381,70.8873 21.156,69.9603 21.1589705,69.1083 C21.168,67.1493 22.401,65.3873 24.239,64.7093 C25.037,64.4133 25.985,64.3073 26.99,64.7003" id="Fill-173" fill="#0078CC"></path>
                    <path d="M38.7078,39.9996 L25.8828,58.3246 C25.7198,58.5576 25.7768,58.8776 26.0098,59.0416 C26.2428,59.2046 26.5628,59.1476 26.7258,58.9146 L39.5508,40.5896 C39.7128,40.3566 39.6568,40.0366 39.4238,39.8736 C39.1908,39.7096 38.8708,39.7666 38.7078,39.9996" id="Fill-174" fill="#FFF9FF"></path>
                    <path d="M35.1448,38.5641 L23.1108,55.7601 C22.9578,55.9791 23.0108,56.2791 23.2288,56.4331 C23.4478,56.5851 23.7488,56.5321 23.9018,56.3141 L35.9358,39.1181 C36.0888,38.8991 36.0358,38.5981 35.8168,38.4451 C35.5988,38.2931 35.2978,38.3461 35.1448,38.5641" id="Fill-175" fill="#FFF9FF"></path>
                    <path d="M35.1448,38.5641 L23.1108,55.7601 C22.9578,55.9791 23.0108,56.2791 23.2288,56.4331 C23.4478,56.5851 23.7488,56.5321 23.9018,56.3141 L35.9358,39.1181 C36.0888,38.8991 36.0358,38.5981 35.8168,38.4451 C35.5988,38.2931 35.2978,38.3461 35.1448,38.5641 Z" id="Stroke-176" stroke="#FFF9FF" stroke-width="0.75"></path>
                    <path d="M27.689,59.5888 C27.527,59.8218 27.583,60.1418 27.816,60.3048 C28.049,60.4678 28.369,60.4108 28.533,60.1788 L41.357,41.8538 C41.52,41.6208 41.463,41.2998 41.23,41.1378 C40.997,40.9738 40.677,41.0308 40.514,41.2638 L27.689,59.5888 Z" id="Fill-177" fill="#FFF9FF"></path>
                    <path d="M21.9798,65.8907 L22.5968,65.8907 C23.1478,65.8907 23.5668,65.5667 23.8138,65.0737 C23.9238,64.8567 24.0718,64.4577 24.1748,64.3207 C24.4628,63.9367 25.2498,63.2907 25.5448,63.2717 C25.8398,63.2517 25.7848,63.7997 25.5768,64.0397 C25.3688,64.2807 25.0398,64.5867 24.8638,64.9267 C24.6878,65.2657 26.3058,65.9547 26.9628,66.1157 C27.6198,66.2757 28.7728,65.9227 28.8858,66.4677 C28.9978,67.0127 28.1328,67.0927 28.1328,67.0927 C28.1328,67.0927 28.3858,67.5827 27.6678,67.9907 C27.6678,67.9907 27.7958,68.4707 27.3318,68.7277 C27.3318,68.7277 27.3838,69.3357 26.8448,69.4957 C26.3058,69.6567 24.6238,70.1447 21.3228,68.1417 L21.9798,65.8907 Z" id="Fill-178" fill="#F7AD89"></path>
                    <path d="M10.6531,51.878 C11.8991,56.587 13.1211,58.669 13.1211,58.669 C13.1211,58.669 14.5201,60.806 17.3931,62.827 C19.3891,64.232 22.5961,65.891 22.5961,65.891 C22.0431,66.61 21.6531,68.032 21.8661,68.457 C15.1991,68.457 9.3671,62.141 9.3671,62.141 C4.7021,54.022 4.3981,47.41 4.4741,45.001 C4.5011,44.153 4.7481,43.322 5.2151,42.614 C5.4571,42.248 5.7581,41.91 6.1121,41.743 C6.1121,41.743 8.1121,42.488 8.8071,44.835 C9.5021,47.182 10.6531,51.878 10.6531,51.878" id="Fill-179" fill="#FD664D"></path>
                    <path d="M39.8616,52.294 C39.8616,52.294 38.3786,51.77 37.6966,52.053 C37.0156,52.337 38.9036,53.359 38.9036,53.359 C38.9036,53.359 36.6146,52.141 36.2186,52.632 C35.8236,53.123 38.0136,54.371 38.0136,54.371 C38.0136,54.371 36.3376,53.781 35.9966,54.128 C35.6556,54.474 37.2196,55.451 37.2196,55.451 C37.2196,55.451 35.8426,55.119 35.5556,55.353 C35.2686,55.587 36.4886,56.566 37.2626,56.826 C38.0376,57.086 38.1626,55.995 38.1626,55.995 C38.1626,55.995 38.8906,55.354 38.7936,54.908 C38.7936,54.908 39.5496,54.398 39.6036,53.878 C39.6036,53.878 40.6696,52.939 39.8616,52.294" id="Fill-180" fill="#F7AD89"></path>
                    <path d="M149.8768,52.1876 L149.8768,57.8556 C149.8768,58.6046 149.2688,59.2126 148.5198,59.2126 L138.2288,59.2126 L135.1228,60.3276 C134.8028,60.4416 134.4978,60.1276 134.6208,59.8126 L135.7948,56.7776 L135.7948,52.1876 C135.7948,51.4386 136.4028,50.8316 137.1528,50.8316 L148.5198,50.8316 C149.2688,50.8316 149.8768,51.4386 149.8768,52.1876" id="Fill-181" fill="#F6931D"></path>
                    <path d="M140.9368,55.1827 C140.9368,55.7247 140.4978,56.1637 139.9548,56.1637 C139.4128,56.1637 138.9738,55.7247 138.9738,55.1827 C138.9738,54.6407 139.4128,54.2017 139.9548,54.2017 C140.4978,54.2017 140.9368,54.6407 140.9368,55.1827" id="Fill-182" fill="#FFF9FF"></path>
                    <path d="M144.0442,55.1827 C144.0442,55.7247 143.6052,56.1637 143.0622,56.1637 C142.5202,56.1637 142.0812,55.7247 142.0812,55.1827 C142.0812,54.6407 142.5202,54.2017 143.0622,54.2017 C143.6052,54.2017 144.0442,54.6407 144.0442,55.1827" id="Fill-183" fill="#FFF9FF"></path>
                    <path d="M147.1517,55.1827 C147.1517,55.7247 146.7127,56.1637 146.1697,56.1637 C145.6277,56.1637 145.1887,55.7247 145.1887,55.1827 C145.1887,54.6407 145.6277,54.2017 146.1697,54.2017 C146.7127,54.2017 147.1517,54.6407 147.1517,55.1827" id="Fill-184" fill="#FFF9FF"></path>
                </g>
                <path d="M105.872293,29.5172654 L61.5625223,29.5869565 C60.7014025,29.5882567 60.0021442,29.0587525 60,28.4038737 L60,28.2570063 C59.9982903,27.6024532 60.6945513,27.0706694 61.5552428,27.0693668 L105.865014,27 C106.726134,26.9983755 107.425392,27.5282053 107.427536,28.1824329 L107.427536,28.3296259 C107.429246,28.9841791 106.732985,29.5159628 105.872293,29.5172654" id="Fill-102" fill="#C8D7E5"></path>
                <path d="M105.871865,35.5538316 L61.5620941,35.6231884 C60.7014025,35.6244884 60.0021442,35.094725 60,34.4405795 L60,34.2934049 C59.9982903,33.6389338 60.6945513,33.1072167 61.5552428,33.1059143 L105.865442,33.0362319 C106.726134,33.0349319 107.425392,33.5643697 107.427536,34.2191664 L107.427536,34.3660154 C107.429246,35.0204865 106.732985,35.5525292 105.871865,35.5538316" id="Fill-105" fill="#C8D7E5"></path>
                <path d="M105.871865,41.5897379 L61.5620941,41.6594203 C60.7014025,41.6607203 60.0021442,41.1312823 60,40.4768109 L60,40.3299619 C59.9982903,39.6751649 60.6945513,39.1434476 61.5552428,39.1421452 L105.865442,39.0724638 C106.726134,39.0714883 107.425392,39.6009263 107.427536,40.2553977 L107.427536,40.4022468 C107.429246,41.0567181 106.732985,41.5884354 105.871865,41.5897379" id="Fill-106" fill="#C8D7E5"></path>
                <path d="M97.8010971,109.912963 L54.5372968,110.007246 C53.1599576,110.009873 52.0406621,108.832479 52.0381729,107.376632 L52,87.7362961 C51.9971016,86.2800109 53.1114188,85.0973548 54.488758,85.0942852 L97.7525583,85 C99.1298975,84.9969364 100.249193,86.174769 100.251682,87.6306157 L100.289855,107.270952 C100.292753,108.727237 99.1788511,109.909893 97.8010971,109.912963" id="Fill-107" fill="#FEBA40"></path>
                <path d="M54.3478261,45.1377448 L50.0785813,45.17738 L50.1100238,61.4860022 L46.4266269,61.4927536 C45.1268493,61.4952785 44.0707511,60.5364439 44.0679767,59.3511826 L44,29.1921642 C43.9972311,27.9942534 45.0598028,27.0210826 46.3734521,27.0185526 L54.3011247,27 L54.3478261,45.1377448" id="Fill-114" fill="#DB5A28"></path>
                <path d="M97.4434769,83.1542858 L54.0017628,73.4322518 C52.6189188,73.1231258 51.751118,71.7618719 52.0637313,70.3921604 L56.9506626,48.9825415 C57.2628488,47.6132529 58.6375784,46.7535358 60.0204224,47.0630847 L103.462137,56.7851187 C104.84498,57.0942447 105.712354,58.4554986 105.400168,59.8247873 L100.513237,81.234829 C100.201051,82.6045405 98.8263209,83.4638347 97.4434769,83.1542858" id="Fill-116" fill="#308DFC"></path>
                <path d="M96.9380432,89.5422751 L56.3581375,89.586957 C55.6100282,89.5877534 55.0022359,89.263421 55,88.8624936 L55,88.7723347 C54.998514,88.3716067 55.6037009,88.0458781 56.3521824,88.0448808 L96.9320881,88 C97.6801975,87.9994024 98.2879898,88.3235353 98.289855,88.7246623 L98.289855,88.8146216 C98.2917117,89.2155491 97.6861526,89.5412777 96.9380432,89.5422751" id="Fill-104" fill="#FFFFFF"></path>
            </g>
        </g>
    </g>
</svg>