<?xml version="1.0" encoding="UTF-8"?>
<svg width="232px" height="119px" viewBox="0 0 232 119" version="1.1" xmlns="http://www.w3.org/2000/svg" xmlns:xlink="http://www.w3.org/1999/xlink">
    <!-- Generator: Sketch 59.1 (86144) - https://sketch.com -->
    <title>Social Media</title>
    <desc>Created with Sketch.</desc>
    <defs>
        <polygon id="path-1" points="0.3311 0 62.8981 0 62.8981 118.7188 0.3311 118.7188"></polygon>
        <polygon id="path-3" points="0.3956 0 62.9636 0 62.9636 118.7188 0.3956 118.7188"></polygon>
        <polygon id="path-5" points="0.604 0.414 52.623 0.414 52.623 96.439 0.604 96.439"></polygon>
    </defs>
    <g id="Services-Page" stroke="none" stroke-width="1" fill="none" fill-rule="evenodd">
        <g id="Services-Page-Digital-Marketing" transform="translate(-958.000000, -936.000000)">
            <g id="Social-Media" transform="translate(958.000000, 936.000000)">
                <g id="Group-62">
                    <path d="M18.7948,117.9906 C18.8648,118.8576 20.0878,118.8576 21.4758,118.6866 C22.8618,118.5146 22.4958,118.8696 24.4398,118.8826 C26.3838,118.8946 27.0488,118.2476 27.1408,117.9696 C27.2228,117.7216 26.2848,117.5206 25.2818,117.2846 C25.1558,117.2556 25.0288,117.2246 24.9028,117.1936 C23.7718,116.9146 22.7938,116.3036 22.0458,115.3446 C21.2028,114.2636 20.4318,109.3446 20.4318,109.3446 L17.3938,109.9116 C17.3938,109.9116 19.1628,114.1286 19.3438,115.5116 C19.4248,116.1316 18.9838,116.5456 18.8798,117.0886 C18.8248,117.3836 18.7698,117.6856 18.7948,117.9906" id="Fill-1" fill="#E3B465"></path>
                    <path d="M21.3753,118.8167 C22.7623,118.6447 22.4963,118.8697 24.4393,118.8817 C26.3833,118.8947 27.0483,118.2477 27.1413,117.9687 C27.2233,117.7217 26.2853,117.5207 25.2823,117.2847 L25.2703,117.3027 C25.2703,117.3027 24.0233,117.9837 22.4213,117.8357 C21.1163,117.7137 19.7813,117.1787 18.8803,117.0877 C18.8253,117.3827 18.7703,117.6857 18.7943,117.9907 C18.8653,118.8577 19.9883,118.9877 21.3753,118.8167" id="Fill-3" fill="#095DA8"></path>
                    <path d="M21.5111,112.8402 C21.5111,112.8402 20.7151,113.3662 19.9671,113.5022 C18.8451,113.7062 18.3241,113.4812 18.3241,113.4812 C18.3241,113.4812 12.9271,99.9302 13.2351,95.3512 C13.2431,95.2402 13.2471,95.1232 13.2481,95.0002 C13.2571,94.2052 13.1431,93.1472 12.9461,91.9282 C12.8731,91.4812 12.7891,91.0132 12.6961,90.5292 C12.4801,89.4012 12.2121,88.1822 11.9171,86.9412 C11.7881,86.3942 11.6531,85.8422 11.5151,85.2912 C10.1591,79.8732 8.5011,74.5342 8.5011,74.5342 C8.5011,74.5342 18.2401,71.3532 18.7911,74.3262 C19.0021,75.4672 19.7061,80.0332 19.3891,87.0152 C19.1341,92.6352 19.2991,97.0182 19.7841,102.1062 C20.2111,106.5732 20.9421,110.4162 21.5111,112.8402" id="Fill-5" fill="#095DA8"></path>
                    <path d="M13.2484,95.0003 C13.2574,94.2053 13.1434,93.1463 12.9454,91.9283 C12.8734,91.4803 12.7894,91.0133 12.6964,90.5293 C12.4794,89.4003 12.2114,88.1823 11.9174,86.9403 C11.7884,86.3943 11.6524,85.8423 11.5154,85.2913 C11.7074,83.6383 11.8634,82.5043 11.8634,82.5043 C11.8634,82.5043 15.9064,87.9963 13.2484,95.0003" id="Fill-7" fill="#005396"></path>
                    <path d="M6.5086,117.9906 C6.5786,118.8576 7.8016,118.8576 9.1896,118.6866 C10.5756,118.5146 10.2096,118.8696 12.1536,118.8826 C14.0976,118.8946 14.7626,118.2476 14.8546,117.9696 C14.9366,117.7216 13.9986,117.5206 12.9956,117.2846 C12.8696,117.2556 12.7426,117.2246 12.6156,117.1936 C11.4846,116.9146 10.7306,116.0756 9.7586,115.3446 C8.8386,114.6516 9.4826,111.2946 9.4826,111.2946 L6.6266,110.2736 C6.6266,110.2736 7.0576,113.6516 7.0576,115.5116 C7.0576,116.1366 6.6976,116.5456 6.5936,117.0886 C6.5386,117.3836 6.4836,117.6856 6.5086,117.9906" id="Fill-9" fill="#E3B465"></path>
                    <path d="M9.0374,118.8255 C10.4244,118.6545 10.2094,118.8695 12.1534,118.8825 C14.0974,118.8945 14.7624,118.2475 14.8544,117.9695 C14.9364,117.7215 13.9984,117.5205 12.9954,117.2845 L12.9834,117.3035 C12.9834,117.3035 11.7374,117.9835 10.1354,117.8355 C8.8294,117.7145 7.4954,117.1795 6.5944,117.0885 C6.5384,117.3835 6.4834,117.6855 6.5084,117.9905 C6.5794,118.8575 7.6504,118.9975 9.0374,118.8255" id="Fill-11" fill="#095DA8"></path>
                    <path d="M14.3675,73.474 C14.3675,73.474 11.1995,89.266 10.6635,97.861 C10.1285,106.455 9.4605,113.571 9.4605,113.571 C9.4605,113.571 8.7685,113.821 7.9755,113.775 C7.1375,113.727 6.4735,113.469 6.4735,113.469 C6.4735,113.469 3.3335,100.537 4.3735,95.362 C5.4135,90.185 4.5475,85.411 4.0475,81.118 C3.3315,74.961 6.0865,72.1 8.0095,70.15 C9.9555,68.175 14.3675,73.474 14.3675,73.474" id="Fill-13" fill="#095DA8"></path>
                    <g id="Group-17" transform="translate(0.000000, 38.000000)" fill="#414040">
                        <path d="M16.6131,6.5501 C16.9281,3.9791 16.1251,-0.1349 10.9931,0.5231 C5.8621,1.1801 4.2451,6.2231 5.2801,8.4661 C6.3151,10.7081 3.7901,11.2481 2.9971,13.6601 C2.3161,15.7321 2.0791,18.3031 0.9771,19.4571 C-2.5749,23.1791 4.3871,28.9021 8.5851,27.6961 C16.2311,25.4971 17.2161,25.1691 16.9441,19.1611 C16.8051,16.0841 14.4101,14.8911 15.9311,14.0011 C19.6041,11.8491 15.9011,12.3681 16.6131,6.5501" id="Fill-15"></path>
                    </g>
                    <path d="M15.0594,52.8065 L13.5414,55.0835 L10.4834,54.9325 L9.0714,51.2815 C9.0714,51.2815 9.5064,51.1985 9.7094,46.6455 L13.5264,47.8095 C13.5264,47.8095 13.3244,48.9965 13.5944,50.2895 C13.7824,51.1915 14.1954,52.1535 15.0594,52.8065" id="Fill-18" fill="#E3B465"></path>
                    <path d="M15.4852,51.2005 C15.2892,51.2005 11.6932,49.9975 6.5582,52.0885 C6.5582,52.0885 8.9962,66.0335 7.9492,68.6955 C6.9022,71.3565 6.5042,73.7195 6.5042,73.7195 L17.8622,73.8595 C17.8622,73.8595 17.7042,64.7245 18.2272,61.4915 C18.7512,58.2585 15.4852,51.2005 15.4852,51.2005" id="Fill-20" fill="#E3B465"></path>
                    <path d="M34.3504,60.5833 C34.3164,60.1873 34.1914,60.0963 34.1914,60.0963 C30.5594,60.6293 28.1534,60.5993 26.9744,60.8293 C26.0474,61.0093 25.6684,61.0343 25.5094,60.8103 C20.4934,53.7563 16.9424,51.5403 16.9424,51.5403 C16.9424,51.5403 16.5634,51.3153 15.0824,51.1113 C15.0824,51.1113 14.8694,53.7933 13.4914,54.0213 C11.1064,54.4143 9.3244,52.2293 8.7634,51.3493 C8.7634,51.3493 5.8864,52.0423 5.0824,52.9583 C4.5054,53.6163 4.5804,55.1913 4.7524,56.1823 C4.8074,56.4963 4.8714,56.7513 4.9264,56.8993 C5.0964,57.3483 5.7374,60.6373 6.0294,61.9453 C6.0364,61.9793 6.0434,62.0103 6.0494,62.0383 C6.0694,62.1263 6.0874,62.2023 6.1034,62.2673 C6.1044,62.2693 6.1044,62.2703 6.1044,62.2713 C6.1214,62.3423 6.1364,62.3963 6.1474,62.4323 L6.1684,62.4963 C6.1684,62.4973 6.1684,62.4983 6.1694,62.5003 C6.5924,63.8473 6.8464,65.2193 6.6964,66.9013 C6.6794,67.1003 6.6334,67.3383 6.5664,67.6073 C6.1844,69.5623 4.5994,73.4193 4.2704,75.1883 C4.4594,75.5893 4.8904,75.9053 5.4134,76.1573 C6.0954,76.4863 6.9334,76.7063 7.6004,76.8593 C8.1184,76.9793 8.9134,77.1113 9.8294,77.2143 C10.3154,77.2693 10.8364,77.3143 11.3674,77.3463 C11.4424,77.3513 11.5164,77.3543 11.5914,77.3573 C15.0134,77.5273 18.8444,77.4433 19.3434,75.8163 C19.5824,75.0363 18.6284,70.3433 18.5014,68.9483 C18.2794,66.4983 18.6424,63.1453 18.8054,60.5473 C21.6134,63.6423 24.5124,64.7543 24.5124,64.7543 C25.2054,64.7223 26.0044,64.5923 26.8404,64.4043 C27.7384,64.2043 28.6784,63.9373 29.5784,63.6513 C32.1214,62.8473 34.5134,61.7203 34.5134,61.7203 C34.5134,61.7203 34.4254,61.4603 34.3504,60.5833" id="Fill-22" fill="#308DFC"></path>
                    <path d="M14.0204,72.1136 C13.3724,74.3126 12.9954,76.1226 11.3674,77.3456 C10.8364,77.3146 10.3154,77.2686 9.8304,77.2146 C8.9134,77.1116 8.1184,76.9786 7.6014,76.8596 C6.9334,76.7066 6.0954,76.4866 5.4134,76.1576 C4.8904,75.9056 4.4594,75.5896 4.2704,75.1886 C4.5994,73.4196 6.1844,69.5626 6.5664,67.6076 C6.6034,67.4176 6.6294,67.2446 6.6414,67.0946 C6.7834,65.3426 6.5564,63.9036 6.1694,62.5006 C6.1684,62.4986 6.1684,62.4976 6.1684,62.4966 C6.1474,62.4216 6.1264,62.3466 6.1044,62.2716 C6.1044,62.2696 6.1044,62.2686 6.1034,62.2666 C6.0904,62.2186 6.0714,62.1396 6.0494,62.0386 C6.0434,62.0096 6.0364,61.9786 6.0294,61.9456 C5.7684,60.7056 5.0844,56.8126 4.9114,56.3046 C4.8554,56.1446 4.7934,55.8686 4.7404,55.5296 L6.1074,54.2136 C6.1074,54.2136 13.9544,57.5646 15.6834,62.1856 C17.4114,66.8076 14.9514,68.9606 14.0204,72.1136" id="Fill-24" fill="#308DFC"></path>
                    <path d="M29.5785,63.6517 C27.8415,64.2037 25.9515,64.6857 24.5125,64.7547 C24.5125,64.7547 21.6315,63.6887 18.8055,60.5477 C18.6865,60.0127 18.5155,59.0557 19.1615,59.3137 C20.0695,59.6757 23.4235,63.9837 24.6935,64.0747 C25.6015,64.1387 28.1845,63.8327 29.5785,63.6517" id="Fill-26" fill="#308DFC"></path>
                    <path d="M23.3812676,62.4251 C23.3812676,62.4251 19.5132,64.3681 16.1602,65.1721 C15.1952,65.4041 14.2652,65.5671 13.4722,65.6051 C13.4722,65.6051 9.8662,64.4951 7.1142,60.6401 C1.7982,53.1941 5.9022,52.3901 5.9022,52.3901 C5.9022,52.3901 9.4532,54.6061 14.4692,61.6601 C14.6452,61.9071 15.0862,61.8511 16.2272,61.6201 C17.4452,61.3741 19.8712,61.4041 23.2202,60.9121 C23.2202,60.9121 23.2762,61.0361 23.3102,61.4341 C23.3862,62.3111 23.3812676,62.4251 23.3812676,62.4251" id="Fill-28" fill="#308DFC"></path>
                    <path d="M34.513,61.72 C34.513,61.72 32.122,62.847 29.578,63.652 C28.679,63.938 27.738,64.204 26.841,64.405 C26.48,62.802 26.729,61.553 26.974,60.829 C28.153,60.599 30.673,60.584 34.305,60.051 L34.513,61.72 Z" id="Fill-30" fill="#BD6331"></path>
                    <path d="M33.3983,60.2767 C33.3983,60.2767 34.3163,60.0977 35.0823,59.7147 C35.8473,59.3327 37.8883,59.0777 38.3223,59.4857 C38.7563,59.8937 37.8633,61.5517 36.0003,61.6037 C34.1383,61.6547 33.6023,61.9607 33.6023,61.9607 L33.3983,60.2767 Z" id="Fill-32" fill="#E3B465"></path>
                    <path d="M36.7098,54.6263 L26.3248,56.6453 C25.8698,56.7333 25.4978,57.1783 25.4978,57.6323 L25.4978,64.8093 C25.4978,65.2643 25.8698,65.5643 26.3248,65.4753 L36.7098,63.4563 C37.1648,63.3683 37.5368,62.9243 37.5368,62.4693 L37.5368,55.2923 C37.5368,54.8373 37.1648,54.5383 36.7098,54.6263" id="Fill-34" fill="#00A600"></path>
                    <path d="M37.1234,54.6263 L26.7384,56.6453 C26.2844,56.7333 25.9124,57.1783 25.9124,57.6323 L25.9124,64.8093 C25.9124,65.2643 26.2844,65.5643 26.7384,65.4753 L37.1234,63.4563 C37.5784,63.3683 37.9504,62.9243 37.9504,62.4693 L37.9504,55.2923 C37.9504,54.8373 37.5784,54.5383 37.1234,54.6263" id="Fill-36" fill="#979797"></path>
                    <path d="M26.911,57.2054 C26.724,57.2424 26.572,57.4244 26.572,57.6114 C26.572,57.7994 26.724,57.9214 26.911,57.8854 C27.098,57.8484 27.25,57.6664 27.25,57.4784 C27.25,57.2914 27.098,57.1694 26.911,57.2054" id="Fill-38" fill="#00A600"></path>
                    <path d="M28.0692,60.0384 C27.6062,59.6014 25.4262,59.8744 24.6102,60.2834 C24.1312,60.5214 23.5982,60.6864 23.2372,60.7814 C23.2372,60.7784 23.2362,60.7764 23.2362,60.7764 C19.8882,61.2674 17.4452,61.3744 16.2272,61.6204 C16.6082,62.4434 16.8962,63.7164 16.1602,65.1724 C19.3622,64.4044 23.1162,62.6904 23.4462,62.5384 C23.8222,62.4424 24.4882,62.3294 25.5902,62.2994 C27.5792,62.2444 28.5322,60.4744 28.0692,60.0384" id="Fill-40" fill="#E3B465"></path>
                    <path d="M13.5946,50.2894 C12.0166,50.1624 9.7096,46.6454 9.7096,46.6454 L13.5266,47.8104 C13.5266,47.8104 13.3236,48.9974 13.5946,50.2894" id="Fill-42" fill="#E3B465"></path>
                    <path d="M14.5267,48.0677 C14.5267,48.0677 9.9557,48.9857 9.4277,46.1307 C8.9007,43.2757 7.9547,41.4707 10.8507,40.7647 C13.7467,40.0577 14.5167,41.0417 14.9247,41.9517 C15.3327,42.8617 15.7017,47.7557 14.5267,48.0677" id="Fill-44" fill="#E3B465"></path>
                    <path d="M14.9823,40.2528 C12.7273,38.0308 10.6493,39.1428 10.9813,39.5898 C10.1993,39.6138 9.2243,39.8288 8.5273,40.6128 C7.1763,42.1338 9.6983,46.8858 9.6983,46.8858 C9.6983,46.8858 9.3513,43.9658 10.8543,42.3228 C11.4503,41.6708 11.7963,41.1268 11.9983,40.7058 C12.3133,40.9748 12.6623,41.2038 13.0333,41.3338 C14.4873,41.8438 15.2863,44.1838 15.2863,44.1838 C15.8073,43.0918 15.9533,41.2108 14.9823,40.2528" id="Fill-46" fill="#414040"></path>
                    <g id="Group-50" transform="translate(44.000000, 0.000000)">
                        <mask id="mask-2" fill="white">
                            <use xlink:href="#path-1"></use>
                        </mask>
                        <g id="Clip-49"></g>
                        <path d="M59.6971,-0.0002 L3.5321,-0.0002 C1.7721,-0.0002 0.3311,1.4408 0.3311,3.2018 L0.3311,115.5168 C0.3311,117.2788 1.7721,118.7188 3.5321,118.7188 L59.6971,118.7188 C61.4581,118.7188 62.8981,117.2788 62.8981,115.5168 L62.8981,3.2018 C62.8981,1.4408 61.4581,-0.0002 59.6971,-0.0002" id="Fill-48" fill="#CDCDCD" mask="url(#mask-2)"></path>
                    </g>
                    <g id="Group-53" transform="translate(50.000000, 0.000000)">
                        <mask id="mask-4" fill="white">
                            <use xlink:href="#path-3"></use>
                        </mask>
                        <g id="Clip-52"></g>
                        <path d="M59.7616,-0.0002 L3.5976,-0.0002 C1.8366,-0.0002 0.3956,1.4408 0.3956,3.2018 L0.3956,115.5168 C0.3956,117.2788 1.8366,118.7188 3.5976,118.7188 L59.7616,118.7188 C61.5226,118.7188 62.9636,117.2788 62.9636,115.5168 L62.9636,3.2018 C62.9636,1.4408 61.5226,-0.0002 59.7616,-0.0002" id="Fill-51" fill="#979797" mask="url(#mask-4)"></path>
                    </g>
                    <path d="M90.8495,4.494 L74.5845,4.494 C74.2365,4.494 73.9525,4.779 73.9525,5.127 C73.9525,5.474 74.2365,5.76 74.5845,5.76 L90.8495,5.76 C91.1975,5.76 91.4815,5.474 91.4815,5.127 C91.4815,4.779 91.1975,4.494 90.8495,4.494" id="Fill-54" fill="#FFFFFF"></path>
                    <path d="M71.6962,4.494 C71.3472,4.494 71.0632,4.779 71.0632,5.127 C71.0632,5.474 71.3472,5.76 71.6962,5.76 C72.0442,5.76 72.3292,5.474 72.3292,5.127 C72.3292,4.779 72.0442,4.494 71.6962,4.494" id="Fill-56" fill="#FFFFFF"></path>
                    <path d="M82.454,108.0784 C80.2,108.0784 78.373,109.9054 78.373,112.1594 C78.373,114.4134 80.2,116.2404 82.454,116.2404 C84.709,116.2404 86.536,114.4134 86.536,112.1594 C86.536,109.9054 84.709,108.0784 82.454,108.0784" id="Fill-58" fill="#FFFFFF"></path>
                    <polygon id="Fill-60" fill="#8DDAF2" points="55.604 105.439 107.623 105.439 107.623 9.414 55.604 9.414"></polygon>
                </g>
                <g id="Group-83" transform="translate(55.000000, 9.000000)">
                    <mask id="mask-6" fill="white">
                        <use xlink:href="#path-5"></use>
                    </mask>
                    <g id="Clip-64"></g>
                    <polygon id="Fill-63" fill="#CEE8F8" mask="url(#mask-6)" points="0.604 13.613 52.623 13.613 52.623 0.414 0.604 0.414"></polygon>
                    <path d="M3.2538,6.8841 C3.2538,4.5691 5.1298,2.6931 7.4448,2.6931 C9.7598,2.6931 11.6358,4.5691 11.6358,6.8841 C11.6358,9.1981 9.7598,11.0751 7.4448,11.0751 C5.1298,11.0751 3.2538,9.1981 3.2538,6.8841" id="Fill-65" fill="#0280DA" mask="url(#mask-6)"></path>
                    <path d="M39.6581,6.7323 L15.2931,6.7323 C14.4831,6.7323 13.8201,6.0693 13.8201,5.2593 C13.8201,4.4493 14.4831,3.7863 15.2931,3.7863 L39.6581,3.7863 C40.4681,3.7863 41.1311,4.4493 41.1311,5.2593 C41.1311,6.0693 40.4681,6.7323 39.6581,6.7323" id="Fill-66" fill="#0280DA" mask="url(#mask-6)"></path>
                    <path d="M29.2899,10.283 L14.6309,10.283 C14.1439,10.283 13.7449,9.884 13.7449,9.397 C13.7449,8.909 14.1439,8.511 14.6309,8.511 L29.2899,8.511 C29.7769,8.511 30.1769,8.909 30.1769,9.397 C30.1769,9.884 29.7769,10.283 29.2899,10.283" id="Fill-67" fill="#0280DA" mask="url(#mask-6)"></path>
                    <path d="M45.4364,49.2991 C45.4364,49.2991 44.9824,47.1041 45.7074,46.5131 C46.4344,45.9231 48.6354,43.8831 49.0474,44.1161 C49.4594,44.3501 50.1344,45.7341 49.9144,46.5451 C49.6944,47.3571 46.9194,50.2921 46.9194,50.2921 L45.4364,49.2991 Z" id="Fill-68" fill="#EF9458" mask="url(#mask-6)"></path>
                    <path d="M30.9813,79.1243 C30.7493,83.6343 29.9623,90.0683 29.3783,96.5743 L19.5153,96.5743 C19.3033,94.8303 18.9953,93.1303 18.6553,91.4713 C18.1023,88.7823 17.4663,86.1963 17.0213,83.6943 C16.1243,78.6583 16.2923,74.7223 17.0693,71.6673 C17.7353,69.0453 18.8523,67.0723 20.1273,65.6103 C22.9243,62.4063 30.7113,68.6683 30.7113,68.6683 C30.7113,68.6683 31.2103,74.6413 30.9813,79.1243" id="Fill-69" fill="#084E75" mask="url(#mask-6)"></path>
                    <path d="M26.5008,80.5579 C26.5008,80.5579 26.4988,80.5899 26.4938,80.6519 C26.4238,81.5779 25.8028,89.1539 23.8538,96.5749 L19.5158,96.5749 C19.3038,94.8299 18.9948,93.1299 18.6548,91.4709 C19.3948,87.1209 20.0968,83.6659 20.0968,83.6659 L26.5008,80.5579 Z" id="Fill-70" fill="#084E75" mask="url(#mask-6)"></path>
                    <path d="M27.079,78.724 C26.973,79.151 26.766,79.828 26.494,80.652 C25.382,84.033 23.2,89.908 22.578,91.376 C21.851,93.094 21.165,94.832 20.518,96.575 L9.725,96.575 C9.947,92.387 10.002,83.693 10.204,81.377 C11.015,72.07 12.776,71.164 12.776,71.164 L17.069,71.667 L27.073,72.842 C27.073,72.842 28.715,72.132 27.079,78.724" id="Fill-71" fill="#084E75" mask="url(#mask-6)"></path>
                    <path d="M28.8856,28.3543 C29.3676,24.4103 28.1366,18.1003 20.2656,19.1083 C12.3936,20.1163 9.9126,27.8523 11.5006,31.2923 C13.0886,34.7313 9.2156,35.5613 7.9996,39.2603 C6.9546,42.4373 6.5916,46.3833 4.9006,48.1533 C-0.5484,53.8623 10.1326,62.6413 16.5716,60.7903 C28.2996,57.4183 29.8096,56.9153 29.3936,47.6993 C29.1806,42.9793 25.5066,41.1493 27.8386,39.7833 C33.4736,36.4833 27.7926,37.2783 28.8856,28.3543" id="Fill-72" fill="#003261" mask="url(#mask-6)"></path>
                    <path d="M26.5038,41.015 L24.1688,44.514 L19.4848,44.286 L17.3178,38.68 C17.3178,38.68 17.7218,38.606 18.0518,35.275 C18.1328,34.4 18.2128,33.304 18.2868,31.924 C18.2868,31.924 18.2798,31.917 18.2868,31.911 C18.2868,31.796 18.2938,31.682 18.3008,31.567 L18.9058,31.749 L24.1548,33.35 C24.1548,33.35 24.1278,33.525 24.0948,33.828 C24.0338,34.494 23.9738,35.773 24.2488,37.139 C24.5318,38.525 25.1648,40.006 26.5038,41.015" id="Fill-73" fill="#EF9458" mask="url(#mask-6)"></path>
                    <path d="M26.5194,38.4803 C26.2174,38.4803 21.1064,37.4403 12.4734,39.6483 C12.4734,39.6483 17.2014,61.3093 15.5954,65.3923 C13.9894,69.4753 13.3784,73.0983 13.3784,73.0983 L30.8024,73.3133 C30.8024,73.3133 30.5584,59.3013 31.3624,54.3413 C32.1654,49.3823 26.5194,38.4803 26.5194,38.4803" id="Fill-74" fill="#EF9458" mask="url(#mask-6)"></path>
                    <path d="M45.3456,47.1116 C45.3456,47.1116 39.7816,54.6626 38.7976,54.5886 C37.7416,54.5016 35.0906,45.1206 33.0846,41.6606 C31.6796,39.2466 26.8366,38.5256 26.5206,38.4806 L26.5196,38.4806 C26.5086,38.4786 26.5036,38.4786 26.5036,38.4786 L26.5156,38.5256 C26.4736,38.9726 26.0786,42.5546 24.0966,42.8826 C20.4396,43.4856 17.4916,40.1356 16.6316,38.7866 C16.6316,38.7866 12.4316,39.8466 11.1986,41.2526 C10.0316,42.5826 11.6286,52.4396 11.9836,53.3846 C12.2906,54.1966 12.5796,54.9886 12.8326,55.7846 C13.4996,57.8826 13.9086,60.0156 13.6736,62.6416 C13.4186,65.5086 10.7406,72.0606 11.3196,73.4566 C11.9266,74.9226 12.7706,75.6646 14.6166,76.0886 C15.8896,76.3816 17.6376,76.5226 20.1126,76.6456 C25.3616,76.9066 30.9866,76.2476 31.7516,73.7516 C32.1186,72.5536 31.9776,67.9196 31.7826,65.7806 C31.5276,62.9676 31.7746,59.3796 32.0206,56.0816 C32.0326,56.0996 32.0436,56.1176 32.0556,56.1356 C32.0556,56.1356 32.0556,56.1426 32.0626,56.1426 C32.6276,57.0106 33.2806,57.9396 33.9466,58.8076 C34.9556,60.1066 36.0056,61.2436 36.9006,61.7686 C37.1226,61.8966 37.3306,61.9836 37.5266,62.0316 C38.1176,62.1726 39.2836,62.1726 40.4126,61.5266 C40.5946,61.4246 40.7836,61.2976 40.9646,61.1566 C44.2626,58.5386 47.1966,50.3626 47.1966,50.3626 C47.5126,48.4586 45.3456,47.1116 45.3456,47.1116" id="Fill-75" fill="#FCBB4D" mask="url(#mask-6)"></path>
                    <path d="M11.3197,73.4564 C11.9267,74.9224 12.7707,75.6644 14.6167,76.0884 C17.0837,75.6134 18.7117,71.0734 19.5497,68.8384 C20.5157,66.2634 16.5407,54.1864 15.1527,54.3074 C14.1207,54.3964 13.1357,55.8294 13.1017,56.6914 C13.7697,58.7904 13.9077,60.0164 13.6737,62.6424 C13.4187,65.5094 10.7397,72.0604 11.3197,73.4564" id="Fill-76" fill="#FEBA40" mask="url(#mask-6)"></path>
                    <path d="M40.4129,61.5267 C39.2829,62.1727 38.1179,62.1727 37.5259,62.0307 C37.3309,61.9837 37.1229,61.8967 36.8999,61.7687 C36.0059,61.2437 34.9559,60.1067 33.9459,58.8077 C33.2799,57.9397 32.6279,57.0107 32.0619,56.1427 C32.1899,55.6727 32.6539,55.4497 34.1549,56.9907 C36.6789,59.5817 37.1419,61.3177 38.7439,61.4527 C39.2959,61.4997 39.8539,61.5267 40.4129,61.5267" id="Fill-77" fill="#FEBA40" mask="url(#mask-6)"></path>
                    <path d="M24.2489,37.139 C22.5869,37.597 18.5289,32.247 18.2869,31.924 C18.2799,31.917 18.2729,31.91 18.2729,31.91 L18.2869,31.91 L18.9059,31.749 L24.1549,33.35 C24.1549,33.35 24.1279,33.525 24.0949,33.828 C24.0339,34.494 23.9739,35.773 24.2489,37.139" id="Fill-78" fill="#EF9458" mask="url(#mask-6)"></path>
                    <path d="M25.6844,33.7503 C25.6844,33.7503 18.6734,35.1583 17.8644,30.7783 C17.0544,26.3993 15.6044,23.6313 20.0464,22.5463 C24.4894,21.4623 25.6694,22.9723 26.2954,24.3693 C26.9214,25.7653 27.4884,33.2713 25.6844,33.7503" id="Fill-79" fill="#EF9458" mask="url(#mask-6)"></path>
                    <path d="M26.3837,21.7625 C22.9257,18.3545 19.8997,20.3515 20.6517,21.2635 C19.4047,21.2425 17.6927,21.5035 16.5067,22.8375 C14.4337,25.1695 18.2197,33.0775 18.2197,33.0775 C18.2197,33.0775 17.7697,27.9805 20.0757,25.4595 C21.1747,24.2585 21.7217,23.2925 21.9927,22.6105 C22.4257,22.9555 22.8977,23.2465 23.3947,23.4205 C25.6247,24.2035 26.8507,27.7925 26.8507,27.7925 C27.6497,26.1175 27.8737,23.2305 26.3837,21.7625" id="Fill-80" fill="#003261" mask="url(#mask-6)"></path>
                    <path d="M18.1542,66.4818 L19.7162,67.2358 C20.4082,67.4388 20.6782,67.6268 21.0932,67.5798 C22.0952,67.4678 24.1192,67.5308 25.5172,69.4848 C25.5172,69.4848 26.2242,70.6448 25.2202,70.7648 C24.2162,70.8838 24.5732,70.7048 23.1632,70.9018 C21.7542,71.0988 20.3332,69.7678 19.8912,69.2878 L18.2552,68.6878 L18.1542,66.4818 Z" id="Fill-81" fill="#EF9458" mask="url(#mask-6)"></path>
                    <path d="M16.6307,38.7869 C16.6307,38.7869 12.4867,38.9509 10.5647,40.7389 C8.3917,42.7609 4.49569147,55.0259 4.49569147,62.7269 C4.49569147,62.7269 4.4177,66.9689 19.1767,69.8279 C19.1767,69.8279 19.8837,69.2419 20.1497,68.6749 C20.6197,67.6739 20.6187,66.9849 20.6187,66.9849 C20.6187,66.9849 11.9637,62.0769 11.6527,60.5309 C11.2377,58.4689 17.1617,50.4389 16.6307,38.7869" id="Fill-82" fill="#FCBB4D" mask="url(#mask-6)"></path>
                </g>
                <g id="Group-169" transform="translate(14.000000, 0.000000)">
                    <path d="M104.1327,47.8787 C104.1327,47.8787 91.9107,45.4397 77.2957,45.6367 L76.4497,41.6537 L75.5227,37.2907 C75.5227,37.2907 90.7917,33.5867 100.7947,26.5127 L104.1327,47.8787 Z" id="Fill-84" fill="#0062BC"></path>
                    <path d="M104.1327,47.8787 C105.2137,47.7547 105.9627,46.7627 105.7717,45.7057 L102.4797,27.4617 C102.3207,26.5787 101.6787,26.2977 100.7947,26.5127 L104.1327,47.8787 Z" id="Fill-86" fill="#27A9E0"></path>
                    <path d="M89.9432,46.0653 C98.3322,46.7213 104.1322,47.8783 104.1322,47.8783 C104.1322,47.8783 90.2282,41.2013 76.4502,41.6543 L77.2962,45.6373 C79.8852,45.6023 82.4002,45.6493 84.7862,45.7523 C84.7822,45.8263 84.7802,45.8993 84.7822,45.9753 L85.1422,58.5343 C85.1832,59.9523 86.3772,61.0783 87.7942,61.0383 C89.2122,60.9973 90.3382,59.8043 90.2972,58.3873 L89.9432,46.0653 Z" id="Fill-88" fill="#0053A1"></path>
                    <path d="M81.3212,45.6483 L77.3682,45.6793 C77.4252,45.6913 73.6812,45.7863 73.0482,42.3393 C72.9762,42.1003 72.9442,41.8683 72.9392,41.6013 C72.7062,37.3993 75.0312,37.0283 75.0312,37.0283 L80.3012,35.9213 L80.9132,41.7993 L80.9092,41.8183 L81.3212,45.6483 Z" id="Fill-90" fill="#27A9E0"></path>
                    <path d="M81.3212,45.6483 L77.3682,45.6793 C77.4252,45.6913 73.6812,45.7863 73.0482,42.3393 C75.4902,41.1123 80.9132,41.7993 80.9132,41.7993 L80.9092,41.8183 L81.3212,45.6483 Z" id="Fill-92" fill="#308DFC"></path>
                    <polygon id="Fill-94" fill="#CEE8F8" points="41.604 105.446 93.623 105.446 93.623 90.294 41.604 90.294"></polygon>
                    <path d="M45.3838,94.7142 C44.8908,94.7142 44.4878,94.3112 44.4878,93.8182 C44.4878,93.3242 44.8908,92.9212 45.3838,92.9212 L89.6698,92.9212 C90.1618,92.9212 90.5658,93.3242 90.5658,93.8182 C90.5658,94.3112 90.1618,94.7142 89.6698,94.7142 L45.3838,94.7142 Z" id="Fill-96" fill="#0280DA"></path>
                    <path d="M45.3838,97.9993 C44.8908,97.9993 44.4878,97.5963 44.4878,97.1033 C44.4878,96.6103 44.8908,96.2073 45.3838,96.2073 L89.6698,96.2073 C90.1618,96.2073 90.5658,96.6103 90.5658,97.1033 C90.5658,97.5963 90.1618,97.9993 89.6698,97.9993 L45.3838,97.9993 Z" id="Fill-97" fill="#0280DA"></path>
                    <path d="M45.3838,101.4339 C44.8908,101.4339 44.4878,101.0319 44.4878,100.5379 C44.4878,100.0449 44.8908,99.6419 45.3838,99.6419 L89.6698,99.6419 C90.1618,99.6419 90.5658,100.0449 90.5658,100.5379 C90.5658,101.0319 90.1618,101.4339 89.6698,101.4339 L45.3838,101.4339 Z" id="Fill-98" fill="#0280DA"></path>
                    <path d="M213.1248,119.0003 L149.1478,119.0003 C146.9478,119.0003 145.1478,117.1993 145.1478,115.0003 L145.1478,82.1563 C145.1478,79.9563 146.9478,78.1563 149.1478,78.1563 L213.1248,78.1563 C215.3248,78.1563 217.1248,79.9563 217.1248,82.1563 L217.1248,115.0003 C217.1248,117.1993 215.3248,119.0003 213.1248,119.0003 L213.7518,103.1556" id="Fill-99" fill="#CDCDCD"></path>
                    <path d="M209.7518,119.0003 L145.7748,119.0003 C143.5748,119.0003 141.7748,117.1993 141.7748,115.0003 L141.7748,82.1563 C141.7748,79.9563 143.5748,78.1563 145.7748,78.1563 L209.7518,78.1563 C211.9518,78.1563 213.7518,79.9563 213.7518,82.1563 L213.7518,115.0003 C213.7518,117.1993 211.9518,119.0003 209.7518,119.0003" id="Fill-100" fill="#979797"></path>
                    <polygon id="Fill-101" fill="#8DDAF2" points="144.839 117.099 206.791 117.099 206.791 80.055 144.839 80.055"></polygon>
                    <path d="M210.0477,103.1556 L209.9397,103.1556 C209.0677,103.1556 208.3547,102.4416 208.3547,101.5696 L208.3547,95.5876 C208.3547,94.7156 209.0677,94.0016 209.9397,94.0016 L210.0477,94.0016 C210.9197,94.0016 211.6327,94.7156 211.6327,95.5876 L211.6327,101.5696 C211.6327,102.4416 210.9197,103.1556 210.0477,103.1556" id="Fill-102" fill="#FFFFFF"></path>
                    <polygon id="Fill-103" fill="#C1F1FF" points="205.7909 80.055 205.7909 117.099 162.9219 117.099 190.9999 80.055"></polygon>
                    <polygon id="Fill-104" fill="#C1F1FF" points="183.4149 80.055 152.7639 117.099 148.6449 117.099 180.0119 80.055"></polygon>
                    <polygon id="Fill-105" fill="#C1F1FF" points="154.1864 80.055 144.8384 90.371 144.8384 80.055"></polygon>
                    <path d="M175.716609,97.973 C175.7156,98.278 175.5666,98.487 175.3116,98.627 C175.3106,98.628 175.3086,98.628 175.3076,98.628 C174.8356,98.888 174.0086,98.914 173.1086,98.875 C172.9916,98.87 172.8886,98.868 172.7966,98.868 L172.7246,98.868 C172.7056,98.868 172.6866,98.869 172.6686,98.869 C171.7776,98.891 171.8716,99.158 170.1786,99.302 C168.2476,99.467 167.5366,98.876 167.4226,98.608 C167.3266,98.379 168.1546,98.12 169.0806,97.825 C169.1256,97.811 169.1706,97.795 169.2156,97.782 C169.3386,97.743 169.4626,97.702 169.5856,97.661 C170.6886,97.295 171.7726,96.861 172.0436,95.745 C172.3306,94.563 171.4676,91.261 171.4676,91.261 L174.5266,90.931 C174.5266,90.931 174.8206,94.382 175.0136,95.457 C175.1166,96.032 175.3776,96.489 175.5296,96.98 C175.5406,97.014 175.5506,97.049 175.5606,97.083 C175.6386,97.372 175.7176,97.667 175.716609,97.973" id="Fill-106" fill="#D4A75F"></path>
                    <path d="M175.716609,97.973 C175.7156,98.278 175.5666,98.487 175.3116,98.627 C175.3106,98.628 175.3086,98.628 175.3076,98.628 C174.8056,98.861 173.9906,98.895 173.1096,98.869 C172.9936,98.867 172.8906,98.866 172.7966,98.868 L172.7246,98.868 C172.7056,98.868 172.6866,98.869 172.6686,98.869 C171.7776,98.891 171.8716,99.158 170.1786,99.302 C168.2476,99.467 167.5366,98.876 167.4226,98.608 C167.3266,98.379 168.1546,98.12 169.0806,97.825 C169.3406,97.925 170.5776,98.355 172.0426,98.077 C173.3306,97.835 174.6106,97.194 175.5296,96.98 C175.5406,97.014 175.5506,97.049 175.5606,97.083 C175.6386,97.372 175.7176,97.667 175.716609,97.973" id="Fill-107" fill="#0053A1"></path>
                    <path d="M155.867,94.0687 C155.697,94.9187 154.486,94.7757 153.134,94.4457 C151.78,94.1147 152.102,94.5077 150.177,94.2957 C148.251,94.0817 147.668,93.3637 147.609,93.0777 C147.556,92.8237 148.508,92.7337 149.528,92.6167 C149.656,92.6017 149.786,92.5867 149.914,92.5697 C151.066,92.4247 151.91,91.6817 152.957,91.0717 C153.948,90.4927 155.428,88.1367 155.428,88.1367 L158.068,88.3457 C158.068,88.3457 156.682,90.4507 156.146,91.3657 C155.832,91.9037 155.848,92.6157 155.888,93.1657 C155.908,93.4647 155.928,93.7687 155.867,94.0687" id="Fill-108" fill="#D4A75F"></path>
                    <path d="M153.1336,94.4456 C151.7796,94.1146 152.1026,94.5076 150.1766,94.2956 C148.2506,94.0816 147.6676,93.3636 147.6096,93.0776 C147.5566,92.8236 148.5076,92.7336 149.5286,92.6166 L149.5376,92.6356 C149.5376,92.6356 150.6926,93.4546 152.2956,93.4926 C153.6016,93.5246 154.9856,93.1506 155.8876,93.1656 C155.9076,93.4646 155.9276,93.7686 155.8666,94.0686 C155.6966,94.9186 154.4866,94.7756 153.1336,94.4456" id="Fill-109" fill="#0053A1"></path>
                    <path d="M161.743,55.2835 C161.743,55.2835 161.114,53.7415 160.422,53.6795 C159.729,53.6165 157.527,53.2705 157.37,53.5845 C157.213,53.8995 157.37,55.0315 157.842,55.4405 C158.314,55.8495 161.239,56.5105 161.239,56.5105 L161.743,55.2835 Z" id="Fill-110" fill="#D4A75F"></path>
                    <path d="M165.9872,77.1829 L171.6772,92.4989 C171.6772,92.4989 172.5522,92.5829 173.3902,92.3419 C174.1622,92.1209 175.0462,91.5369 175.0462,91.5369 C175.0462,91.5369 173.6332,76.8299 171.0462,73.7719 C168.4572,70.7119 165.9872,77.1829 165.9872,77.1829" id="Fill-111" fill="#0053A1"></path>
                    <path d="M188.4969,70.9876 C188.4969,70.9876 172.1429,65.4576 168.4969,66.6336 C164.8499,67.8106 153.8989,89.5966 153.8989,89.5966 C153.8989,89.5966 154.1459,89.9256 154.8209,90.1786 C155.4479,90.4146 156.9669,90.3988281 156.9669,90.3988281 C156.9669,90.3988281 166.8499,81.9276 168.0259,79.4576 C169.2029,76.9876 169.6729,74.6336 170.8499,74.8696 C172.0259,75.1046 186.0259,80.6336 189.2029,77.3406 C192.3789,74.0466 191.5489,69.7656 191.5489,69.7656 L188.4969,70.9876 Z" id="Fill-112" fill="#0062BC"></path>
                    <path d="M178.5038,45.2635 C178.2418,44.7245 177.9498,43.7665 177.8078,42.0595 C177.8288,42.2295 178.1238,44.3825 178.9508,45.6005 C182.3528,47.8335 188.8708,55.2895 188.7418,56.7025 C188.7418,56.7025 191.0378,52.8075 191.0778,52.7845 C191.0778,52.7845 195.3138,47.3985 190.2928,44.3135 C187.7418,42.7455 187.7548,40.7335 187.8608,38.9855 C187.9688,37.2365 187.1658,29.7115 182.0548,31.6805 C182.0548,31.6805 181.2348,31.3165 180.8668,31.3705 C180.8668,31.3705 181.1678,31.4285 181.3198,31.5855 C180.7278,31.5515 179.8808,31.5955 179.1738,31.9965 C177.2998,33.0615 175.6238,42.6135 178.5038,45.2635" id="Fill-113" fill="#003261"></path>
                    <path d="M179.1532,45.7122 C179.1352,45.7202 180.7952,46.5812 182.0432,46.2402 C183.2162,45.9202 183.9832,44.3982 183.9672,44.3942 C183.4702,44.2952 183.3272,43.6122 183.3382,40.6772 L183.1132,40.7212 L179.3342,41.4692 C179.3342,41.4692 179.4202,42.6582 179.4232,43.7792 C179.4252,44.7192 179.3682,45.6112 179.1532,45.7122" id="Fill-114" fill="#D4A75F"></path>
                    <path d="M179.3338,41.4696 C179.3338,41.4696 179.4198,42.6586 179.4228,43.7796 C181.5368,43.7196 182.6548,41.7906 183.1128,40.7206 L179.3338,41.4696 Z" id="Fill-115" fill="#D4A75F"></path>
                    <path d="M183.5028,40.3099 C183.5028,40.3099 184.6108,38.5589 184.8768,37.0619 C185.0668,35.9929 184.5228,32.0309 180.5408,32.6019 C180.5408,32.6019 179.3848,32.7159 178.2978,33.4499 C177.4338,34.0339 176.1868,35.2939 177.5808,38.7509 L177.9428,39.9189 L183.5028,40.3099 Z" id="Fill-116" fill="#003261"></path>
                    <path d="M178.6278,42.5301 C178.6278,42.5301 183.6308,42.6131 183.6348,39.4961 C183.6378,36.3801 184.2858,34.2921 181.0918,34.1071 C177.8978,33.9231 177.2748,35.1121 177.0218,36.1511 C176.7678,37.1911 177.3268,42.4281 178.6278,42.5301" id="Fill-117" fill="#D4A75F"></path>
                    <path d="M178.8133,34.0311 C178.8133,34.0311 180.1823,37.6871 182.2853,38.2281 C184.3873,38.7681 185.2983,38.2051 185.2983,38.2051 C185.2983,38.2051 183.6863,36.9241 183.3523,34.6881 C183.3523,34.6881 179.8463,32.2911 178.8133,34.0311" id="Fill-118" fill="#003261"></path>
                    <path d="M179.1522,34.328 C179.1522,34.328 178.1302,35.144 177.8802,35.938 C177.6312,36.731 177.5182,38.365 177.0432,38.309 C177.0432,38.309 176.0102,35.825 177.1702,34.419 C178.4002,32.928 179.1522,34.328 179.1522,34.328" id="Fill-119" fill="#003261"></path>
                    <path d="M190.2928,59.1712 C190.7868,57.1032 189.1078,53.0872 187.3558,49.7632 C185.7668,46.7502 184.1158,44.3062 183.9678,44.3942 C179.7738,46.8832 179.3958,44.8142 179.3958,44.8142 C179.3958,44.8142 175.5868,45.3202 174.5088,47.1762 C173.0168,49.7432 171.3918,57.4472 169.7958,57.3342 C169.0638,57.2812 161.6898,54.5102 161.6898,54.5102 C161.6898,54.5102 160.4618,55.6602 160.6968,57.0722 C160.6968,57.0722 164.3378,59.5102 167.4158,61.0662 C169.0448,61.8892 170.5158,62.4642 171.2078,62.3012 C172.6098,61.9712 174.8008,58.7202 175.9838,56.8062 C175.9868,56.8022 175.9888,56.7972 175.9918,56.7932 C177.5028,65.3452 175.4488,67.2922 176.4888,68.1932 C177.5868,69.1462 179.1548,67.7402 182.6058,69.2362 C184.8698,70.2182 188.0118,71.6382 190.1258,71.8852 C191.2348,72.0152 192.0628,71.8222 192.3328,71.0732 C193.1168,68.8972 189.3528,63.1162 190.2928,59.1712" id="Fill-120" fill="#E52998"></path>
                    <path d="M192.3329,71.0736 C192.0619,71.8226 191.2349,72.0146 190.1259,71.8856 C188.6629,71.2476 182.3399,68.7986 182.4109,67.1376 C182.5159,64.6806 183.6259,64.6026 182.8419,61.5696 C182.2119,59.1346 188.0549,54.6056 188.9859,53.6216 C190.7379,56.9456 190.7869,57.1026 190.2929,59.1716 C189.3529,63.1166 193.1169,68.8966 192.3329,71.0736" id="Fill-121" fill="#E52998"></path>
                    <path d="M175.9842,56.806 C174.8002,58.72 172.6102,61.971 171.2082,62.301 C170.5152,62.464 169.0452,61.889 167.4162,61.066 C168.6042,61.372 169.7582,61.364 170.8802,61.255 C172.0962,61.138 172.4492,59.648 174.3712,57.412 C175.6172,55.963 175.9222,56.327 175.9842,56.806" id="Fill-122" fill="#E52998"></path>
                    <path d="M179.8817,61.8324 C179.7977,62.0504 179.4187,62.1674 179.2327,62.2134 C179.3077,62.0414 179.3537,61.8544 179.3667,61.6594 C179.4827,61.5014 179.6637,61.4094 179.7977,61.4334 C179.9167,61.4554 179.9887,61.5574 179.8817,61.8324 M180.0587,61.2274 C179.9007,61.1294 179.5937,61.1674 179.3707,61.2144 L179.3707,60.8924 C179.3707,60.8204 179.3657,60.7504 179.3577,60.6824 L176.0197,60.6824 C176.0107,60.7504 176.0057,60.8204 176.0057,60.8924 L176.0057,61.5474 C176.0057,62.4734 176.7627,63.2294 177.6887,63.2294 C178.1897,63.2294 178.6407,63.0074 178.9497,62.6564 L178.9497,62.6574 C178.9497,62.6574 179.7437,62.4614 179.9927,62.1654 C180.2417,61.8694 180.3227,61.3914 180.0587,61.2274" id="Fill-123" fill="#FEBA40"></path>
                    <path d="M176.2791,60.8919 L176.2791,61.5469 C176.2791,62.4719 177.0361,63.2299 177.9611,63.2299 C178.0381,63.2299 178.1131,63.2249 178.1871,63.2129 C177.3681,63.1029 176.7311,62.3959 176.7311,61.5469 L176.7311,60.8919 C176.7311,60.8209 176.7361,60.7499 176.7451,60.6809 L176.2931,60.6809 C176.2841,60.7499 176.2791,60.8209 176.2791,60.8919" id="Fill-124" fill="#D0021B"></path>
                    <polygon id="Fill-125" fill="#E15344" points="177 63.288 178.374 63.288 178.374 63.083 177 63.083"></polygon>
                    <path d="M181.8416,61.5111 C181.8416,61.5111 180.7826,60.6871 179.7826,60.8831 C178.7826,61.0791 178.2926,61.7661 178.3316,62.0791 C178.3706,62.3931 178.9006,63.2761 179.6646,63.3541 C180.4306,63.4321 182.6066,62.8831 182.6066,62.8831 L181.8416,61.5111 Z" id="Fill-126" fill="#D4A75F"></path>
                    <path d="M183.9676,44.3944 C183.9676,44.3944 188.0446,44.6454 189.4566,46.6144 C191.4436,49.3854 196.2126,61.7134 193.9536,63.2884 C191.4086,65.0624 181.5476,63.2354 181.5476,63.2354 C181.5476,63.2354 181.2466,61.8304 181.6656,61.1504 C182.0836,60.4714 188.8816,59.3734 189.1956,59.0604 C189.5086,58.7454 185.2736,52.9414 185.2736,52.0004 C185.2736,51.0594 183.9676,44.3944 183.9676,44.3944" id="Fill-127" fill="#E52998"></path>
                    <path d="M164.4178,31.3426 L161.8968,31.3426 C156.8108,31.3426 152.6488,27.1806 152.6488,22.0946 L152.6488,21.4676 C152.6488,16.3816 156.8108,12.2196 161.8968,12.2196 L164.4178,12.2196 C169.5038,12.2196 173.6648,16.3816 173.6648,21.4676 L173.6648,22.0946 C173.6648,27.1806 169.5038,31.3426 164.4178,31.3426" id="Fill-128" fill="#308DFC"></path>
                    <polygon id="Fill-129" fill="#FFFFFF" points="154.6844 17.7616 169.2154 16.5076 161.6254 21.4376"></polygon>
                    <polygon id="Fill-130" fill="#DEDEDE" points="162.1239 29.2523 169.2159 16.5073 161.6109 21.4143"></polygon>
                    <path d="M161.0096,51.9681 L158.4996,51.2961 C158.4126,51.2731 158.3376,51.2931 158.2846,51.3391 L158.2816,51.3381 L157.9306,51.5501 L158.2106,57.0851 L160.6216,57.7311 L160.7986,57.7171 L161.2046,57.4681 L161.2046,57.4661 C161.2616,57.4291 161.2986,57.3641 161.2986,57.2811 L161.2986,52.3351 C161.2986,52.1761 161.1676,52.0111 161.0096,51.9681" id="Fill-131" fill="#8B572A"></path>
                    <path d="M160.6219,57.7308 L158.1119,57.0588 C157.9529,57.0158 157.8229,56.8508 157.8229,56.6918 L157.8229,51.7458 C157.8229,51.5858 157.9529,51.4908 158.1119,51.5338 L160.6219,52.2068 C160.7799,52.2488 160.9099,52.4138 160.9099,52.5728 L160.9099,57.5198 C160.9099,57.6778 160.7799,57.7738 160.6219,57.7308" id="Fill-132" fill="#D0021B"></path>
                    <path d="M158.7704,52.304 L158.1864,52.129 C158.0984,52.103 158.0294,52.009 158.0314,51.921 C158.0344,51.833 158.1074,51.782 158.1954,51.808 L158.7804,51.983 C158.8674,52.01 158.9364,52.103 158.9344,52.191 C158.9314,52.279 158.8584,52.33 158.7704,52.304" id="Fill-133" fill="#FFFFFF"></path>
                    <path d="M171.3954,41.4617 C171.3954,41.2387 171.5754,41.0587 171.7974,41.0587 C172.0204,41.0587 172.2014,41.2387 172.2014,41.4617 C172.2014,41.6847 172.0204,41.8647 171.7974,41.8647 C171.5754,41.8647 171.3954,41.6847 171.3954,41.4617" id="Fill-134" fill="#308DFC"></path>
                    <path d="M167.0565,39.8924 C167.0565,39.4714 167.3985,39.1294 167.8205,39.1294 C168.2415,39.1294 168.5825,39.4714 168.5825,39.8924 C168.5825,40.3144 168.2415,40.6564 167.8205,40.6564 C167.3985,40.6564 167.0565,40.3144 167.0565,39.8924" id="Fill-135" fill="#308DFC"></path>
                    <path d="M162.8182,35.9647 C162.8182,35.2957 163.3602,34.7527 164.0302,34.7527 C164.6992,34.7527 165.2422,35.2957 165.2422,35.9647 C165.2422,36.6337 164.6992,37.1767 164.0302,37.1767 C163.3602,37.1767 162.8182,36.6337 162.8182,35.9647" id="Fill-136" fill="#308DFC"></path>
                    <path d="M126.3045,18.9129 L128.7845,18.9129 C133.7885,18.9129 137.8825,14.8179 137.8825,9.8139 L137.8825,9.1969 C137.8825,4.1929 133.7885,0.0989 128.7845,0.0989 L126.3045,0.0989 C121.3005,0.0989 117.2055,4.1929 117.2055,9.1969 L117.2055,9.8139 C117.2055,14.8189 121.3005,18.9129 126.3045,18.9129" id="Fill-137" fill="#27A9E0"></path>
                    <path d="M132.4881,4.411 L122.6001,4.411 C121.0571,4.411 119.7951,5.674 119.7951,7.217 L119.7951,9.64 C119.7951,11.094 120.9201,12.285 122.3411,12.419 L121.1441,15.897 L127.3941,12.446 L132.4881,12.446 C134.0321,12.446 135.2951,11.183 135.2951,9.64 L135.2951,7.217 C135.2951,5.674 134.0321,4.411 132.4881,4.411" id="Fill-138" fill="#FFFFFF"></path>
                    <path d="M132.8504,8.0511 L121.9484,8.0511 C121.6294,8.0511 121.3694,7.7911 121.3694,7.4721 L121.3694,7.4331 C121.3694,7.1141 121.6294,6.8541 121.9484,6.8541 L132.8504,6.8541 C133.1684,6.8541 133.4284,7.1141 133.4284,7.4331 L133.4284,7.4721 C133.4284,7.7911 133.1684,8.0511 132.8504,8.0511" id="Fill-139" fill="#308DFC"></path>
                    <path d="M132.8504,9.9886 L121.9484,9.9886 C121.6294,9.9886 121.3694,9.7286 121.3694,9.4096 L121.3694,9.3706 C121.3694,9.0526 121.6294,8.7916 121.9484,8.7916 L132.8504,8.7916 C133.1684,8.7916 133.4284,9.0526 133.4284,9.3706 L133.4284,9.4096 C133.4284,9.7286 133.1684,9.9886 132.8504,9.9886" id="Fill-140" fill="#308DFC"></path>
                    <path d="M134.7469,30.3128 C134.5849,30.1418 134.3139,30.1338 134.1429,30.2968 C133.9719,30.4588 133.9639,30.7298 134.1259,30.9008 C134.2889,31.0728 134.5599,31.0798 134.7299,30.9168 C134.9019,30.7548 134.9089,30.4838 134.7469,30.3128" id="Fill-141" fill="#27A9E0"></path>
                    <path d="M136.9452,25.9359 C136.6372,25.6109 136.1242,25.5979 135.7992,25.9049 C135.4742,26.2129 135.4612,26.7259 135.7682,27.0509 C136.0762,27.3759 136.5892,27.3899 136.9142,27.0819 C137.2392,26.7739 137.2532,26.2609 136.9452,25.9359" id="Fill-142" fill="#27A9E0"></path>
                    <path d="M137.3436,19.8148 C136.8556,19.2988 136.0406,19.2768 135.5256,19.7658 C135.0096,20.2538 134.9876,21.0688 135.4756,21.5848 C135.9646,22.1008 136.7796,22.1228 137.2946,21.6338 C137.8106,21.1448 137.8316,20.3308 137.3436,19.8148" id="Fill-143" fill="#27A9E0"></path>
                    <path d="M19.4828,6.5931 L6.4078,6.5931 C2.9678,6.5931 0.1528,9.4071 0.1528,12.8471 L0.1528,23.6171 C0.1528,27.0571 2.9678,29.8721 6.4078,29.8721 L19.4828,29.8721 C22.9228,29.8721 25.7368,27.0571 25.7368,23.6171 L25.7368,12.8471 C25.7368,9.4071 22.9228,6.5931 19.4828,6.5931" id="Fill-144" fill="#E52998"></path>
                    <path d="M19.744,18.0413 C19.034,19.9143 12.941,24.8333 12.941,24.8333 C12.941,24.8333 10.956,23.2193 9.117,21.4823 C7.741,20.1963 6.454,18.8423 6.15,18.0413 C5.428,16.1803 6.195,13.5173 8.857,13.0663 C11.509,12.6153 12.941,15.3903 12.941,15.3903 C12.941,15.3903 14.374,12.6153 17.036,13.0663 C17.499,13.1453 17.905,13.2923 18.255,13.4953 C19.913,14.4203 20.331,16.5073 19.744,18.0413" id="Fill-145" fill="#FFFFFF"></path>
                    <path d="M19.744,18.0413 C19.034,19.9143 12.941,24.8333 12.941,24.8333 C12.941,24.8333 10.956,23.2193 9.117,21.4823 C16.371,19.4513 17.928,15.2553 18.255,13.4953 C19.913,14.4203 20.331,16.5073 19.744,18.0413" id="Fill-146" fill="#FFFFFF"></path>
                    <path d="M11.7547,41.3675 C11.5547,41.4525 11.4617,41.6825 11.5467,41.8825 C11.6317,42.0825 11.8617,42.1755 12.0617,42.0915 C12.2617,42.0065 12.3547,41.7755 12.2697,41.5755 C12.1857,41.3755 11.9547,41.2835 11.7547,41.3675" id="Fill-147" fill="#E52998"></path>
                    <path d="M14.5902,38.119 C14.2122,38.28 14.0352,38.717 14.1962,39.096 C14.3572,39.474 14.7942,39.65 15.1722,39.49 C15.5502,39.329 15.7272,38.892 15.5672,38.514 C15.4062,38.135 14.9682,37.958 14.5902,38.119" id="Fill-148" fill="#E52998"></path>
                    <path d="M17.8739,33.3714 C17.6189,32.7704 16.9249,32.4904 16.3239,32.7464 C15.7239,33.0004 15.4429,33.6944 15.6979,34.2954 C15.9539,34.8964 16.6469,35.1764 17.2489,34.9214 C17.8489,34.6664 18.1289,33.9724 17.8739,33.3714" id="Fill-149" fill="#E52998"></path>
                    <path d="M142.8788,68.0911 L143.4578,69.0281 C143.7578,69.3731 143.8388,69.5671 144.0758,69.6841 C144.6508,69.9661 145.7128,70.6921 145.7928,72.2161 C145.7928,72.2161 145.7748,73.0781 145.1958,72.7991 C144.6168,72.5201 144.8698,72.5451 144.0478,72.1691 C143.2268,71.7921 142.9218,70.5941 142.8498,70.1861 L142.1788,69.3051 L142.8788,68.0911 Z" id="Fill-150" fill="#E3B465"></path>
                    <path d="M106.2469,54.3616 C106.2469,54.3616 105.6339,52.8586 104.9589,52.7976 C104.2839,52.7366 102.1369,52.3986 101.9829,52.7056 C101.8299,53.0126 101.9829,54.1166 102.4429,54.5146 C102.9029,54.9146 105.7559,55.5576 105.7559,55.5576 L106.2469,54.3616 Z" id="Fill-151" fill="#E3B465"></path>
                    <path d="M125.7909,117.055 C125.8499,117.383 125.9059,117.719 125.8749,118.056 C125.8429,118.394 125.3459,118.719 125.3449,118.719 C125.0219,118.861 124.5839,118.879 124.0659,118.86 C123.9149,118.855 123.7539,118.849 123.5919,118.835 C123.3639,118.816 123.1299,118.826 122.8889,118.793 C122.7609,118.777 122.6459,118.763 122.5439,118.754 C122.5169,118.751 122.4889,118.748 122.4629,118.747 C122.4419,118.745 122.4209,118.744 122.4009,118.742 C121.8149,118.704 121.6039,118.795 121.1359,118.873 L118.3659,118.873 C117.1429,118.661 116.6829,118.168 116.6049,117.926 C116.5219,117.663 117.4679,117.46 118.5239,117.226 C118.5749,117.214 118.6269,117.202 118.6789,117.192 C118.8189,117.16 118.9609,117.128 119.1019,117.096 C120.3609,116.801 121.6089,116.428 122.0209,115.22 C122.4589,113.939 122.3559,110.136 122.3559,110.136 L126.1799,110.136 C126.1799,110.136 125.1759,114.337 125.2809,115.547 C125.3389,116.194 125.6479,116.378 125.7679,116.938 C125.7759,116.978 125.7839,117.016 125.7909,117.055" id="Fill-152" fill="#E3B465"></path>
                    <path d="M130.3241,76.8929 C130.0021,78.7049 129.5411,80.5769 129.1411,82.5239 C128.4991,85.6559 128.0131,88.9819 128.5111,92.5629 C128.5741,93.0239 128.6081,93.5329 128.6161,94.0799 C128.7121,100.4099 125.8841,111.8809 125.8841,111.8809 C125.8841,111.8809 125.1151,112.2129 123.8281,112.1489 C123.1651,112.1169 122.1481,111.6889 122.1481,111.6889 C122.1481,111.6889 121.8811,104.5769 121.8641,95.0109 C121.8521,88.0779 120.4911,78.9489 120.2161,73.5829 C120.0501,70.3369 120.4111,66.0119 120.4111,66.0119 C120.4111,66.0119 126.0491,61.4789 128.0741,63.7979 C130.0751,66.0899 131.5321,70.1159 130.3241,76.8929" id="Fill-153" fill="#F6931D"></path>
                    <path d="M128.5106,92.5628 C128.5736,93.0238 128.6086,93.5328 128.6156,94.0798 C124.3936,87.9618 123.4596,74.6218 123.4596,74.6218 L128.0976,76.8728 C128.0976,76.8728 128.6066,79.3748 129.1416,82.5238 C128.4986,85.6558 128.0136,88.9818 128.5106,92.5628" id="Fill-154" fill="#F6931D"></path>
                    <path d="M138.0731,118.0306 C138.0421,118.3676 137.8541,118.5836 137.5571,118.7126 C137.5561,118.7136 137.5541,118.7146 137.5521,118.7146 C137.3681,118.7946 137.1421,118.8426 136.8861,118.8646 C136.6311,118.8856 136.3451,118.8836 136.0411,118.8646 C135.7381,118.8446 135.4171,118.8096 135.0871,118.7656 C134.9601,118.7496 134.8441,118.7346 134.7421,118.7256 C134.7151,118.7236 134.6881,118.7206 134.6621,118.7186 C134.6401,118.7176 134.6201,118.7176 134.5991,118.7156 C133.9671,118.6736 133.7691,118.7816 133.2171,118.8646 L130.6791,118.8646 C129.3711,118.6656 128.8841,118.1496 128.8031,117.9006 C128.7191,117.6386 129.6651,117.4356 130.7221,117.2026 C130.7731,117.1916 130.8251,117.1796 130.8771,117.1686 C131.0171,117.1376 131.1591,117.1046 131.3001,117.0736 C132.5601,116.7796 133.8071,116.4076 134.2191,115.2036 C134.6581,113.9266 134.0331,110.1936 134.0331,110.1936 L137.5751,109.8996 C137.5751,109.8996 137.3551,114.1516 137.4611,115.3586 C137.5171,116.0036 137.8461,116.3576 137.9661,116.9156 C137.9741,116.9556 137.9821,116.9946 137.9891,117.0326 C138.0481,117.3596 138.1041,117.6946 138.0731,118.0306" id="Fill-155" fill="#E3B465"></path>
                    <path d="M137.5741,112.2054 C137.5741,112.2054 136.6631,112.6364 136.0081,112.7674 C135.3511,112.8984 133.9891,112.6424 133.9891,112.6424 C133.7441,109.8884 133.1731,105.5804 132.0631,100.7204 C130.8011,95.1864 128.9211,88.6474 126.3011,82.4554 C125.7411,81.1334 123.4321,74.8734 123.0411,73.2934 C121.8561,68.5204 123.0461,69.0344 123.0461,69.0344 L133.3981,67.8194 C133.3981,67.8194 134.6741,68.4754 135.2611,75.2154 C135.4361,77.2334 135.4581,85.9494 135.7231,87.6014 C135.9731,89.1664 136.2671,90.4674 136.6121,91.3114 C138.5351,96.0324 137.5741,112.2054 137.5741,112.2054" id="Fill-156" fill="#F6931D"></path>
                    <path d="M138.0731,118.0579 C138.0421,118.3959 137.8541,118.6129 137.5571,118.7419 C137.5561,118.7429 137.5541,118.7439 137.5521,118.7439 C137.2611,118.8469 136.8891,118.8879 136.4671,118.8879 C136.0461,118.8879 135.5761,118.8469 135.0891,118.7889 C134.9621,118.7739 134.8461,118.7629 134.7421,118.7549 C134.7151,118.7529 134.6881,118.7499 134.6621,118.7479 C134.6401,118.7469 134.6201,118.7459 134.5991,118.7449 C133.9811,118.7039 133.7781,118.8069 133.2531,118.8879 L130.6411,118.8879 C129.3611,118.6839 128.8831,118.1739 128.8031,117.9279 C128.7191,117.6649 129.6651,117.4609 130.7221,117.2269 C131.0011,117.3639 132.3321,117.9649 133.9841,117.8039 C135.4381,117.6649 136.9231,117.0839 137.9661,116.9389 C137.9741,116.9789 137.9821,117.0179 137.9891,117.0569 C138.0481,117.3839 138.1041,117.7199 138.0731,118.0579" id="Fill-157" fill="#D44B3F"></path>
                    <path d="M125.8748,118.056 C125.8428,118.394 125.6548,118.611 125.3578,118.741 C125.3578,118.741 125.3548,118.742 125.3538,118.742 C125.0628,118.845 124.6898,118.886 124.2678,118.886 C123.8478,118.886 123.3768,118.846 122.8908,118.787 C122.7628,118.773 122.6478,118.761 122.5438,118.754 C122.5168,118.751 122.4888,118.748 122.4628,118.747 C122.4418,118.745 122.4208,118.744 122.4008,118.743 C121.7828,118.702 121.5808,118.805 121.0548,118.886 L118.4428,118.886 C117.1628,118.683 116.6838,118.173 116.6048,117.926 C116.5218,117.663 117.4678,117.46 118.5238,117.226 C118.8018,117.363 120.1328,117.963 121.7858,117.803 C123.2398,117.664 124.7248,117.083 125.7678,116.938 C125.7758,116.978 125.7838,117.016 125.7908,117.055 C125.8498,117.383 125.9058,117.719 125.8748,118.056" id="Fill-158" fill="#D44B3F"></path>
                    <path d="M121.7332,36.8216 C121.3832,33.9656 122.2752,29.3966 127.9752,30.1266 C133.6742,30.8566 135.4702,36.4576 134.3212,38.9486 C133.1712,41.4396 135.9762,42.0396 136.8562,44.7176 C137.6132,47.0186 137.8772,49.8756 139.1002,51.1576 C143.0452,55.2916 135.3122,61.6476 130.6502,60.3076 C122.1582,57.8666 121.0642,57.5026 121.3652,50.8296 C121.5202,47.4106 124.1792,46.0866 122.4912,45.0966 C118.4112,42.7076 122.5242,43.2836 121.7332,36.8216" id="Fill-159" fill="#002D51"></path>
                    <path d="M130.1112,44.2962 L128.5412,48.3542 L125.1522,48.5192 L123.4622,45.9942 C124.5282,45.1832 124.9792,43.9652 125.1442,42.8762 C125.2802,42.0042 125.2422,41.2152 125.2052,40.7872 C125.1822,40.5692 125.1592,40.4422 125.1592,40.4422 L129.3822,39.1572 L129.3972,39.1492 C129.4502,40.2692 129.5092,41.1482 129.5782,41.8322 C129.8182,44.2432 130.1112,44.2962 130.1112,44.2962" id="Fill-160" fill="#E3B465"></path>
                    <path d="M123.4471,44.1536 C123.6651,44.1536 127.3661,43.4006 133.6171,44.9996 C133.6171,44.9996 130.1931,60.6836 131.3561,63.6396 C132.5191,66.5956 132.9621,69.2196 132.9621,69.2196 L120.3451,69.3766 C120.3451,69.3766 120.5211,59.2296 119.9401,55.6376 C119.3581,52.0476 123.4471,44.1536 123.4471,44.1536" id="Fill-161" fill="#E3B465"></path>
                    <path d="M133.3573,56.6829 C133.5403,56.1069 133.7503,55.5339 133.9713,54.9469 C134.2283,54.2619 135.3853,47.1239 134.5403,46.1609 C133.6473,45.1429 130.6063,44.3759 130.6063,44.3759 C129.9833,45.3519 127.8493,47.7779 125.2013,47.3409 C123.7733,47.1049 123.4833,44.5379 123.4503,44.1919 L123.4603,44.1539 C123.4603,44.1539 123.4553,44.1539 123.4473,44.1559 L123.4473,44.1539 C123.4363,44.1559 123.4263,44.1579 123.4163,44.1599 C122.9993,44.2219 119.6793,44.7619 118.6943,46.4569 C117.2393,48.9599 115.6563,56.4719 114.0993,56.3619 C113.3843,56.3099 106.1963,53.6079 106.1963,53.6079 C106.1963,53.6079 104.9983,54.7299 105.2273,56.1069 C105.2273,56.1069 108.7773,58.4839 111.7793,59.9999 C112.1953,60.2099 112.6003,60.4039 112.9843,60.5729 C114.0663,61.0469 114.9783,61.3229 115.4753,61.2039 C115.6193,61.1709 115.7703,61.1069 115.9273,61.0149 C116.5793,60.6389 117.3383,59.8129 118.0683,58.8709 C118.5513,58.2449 119.0223,57.5679 119.4373,56.9379 C119.4463,56.9239 119.4553,56.9119 119.4633,56.8979 C119.6413,59.2869 119.8203,61.8849 119.6353,63.9209 C119.4953,65.4699 119.3923,68.8269 119.6583,69.6939 C120.2113,71.4999 124.2853,71.9779 128.0863,71.7889 C129.8783,71.6999 131.1433,71.5979 132.0653,71.3849 C133.4023,71.0789 134.0123,70.5399 134.4533,69.4799 C134.8723,68.4689 132.9323,63.7249 132.7483,61.6489 C132.5783,59.7469 132.8743,58.2039 133.3573,56.6829" id="Fill-162" fill="#27A9E0"></path>
                    <path d="M130.6063,44.3753 C130.6063,44.3753 133.6073,44.4943 134.9993,45.7893 C136.5723,47.2533 138.9153,56.2063 139.5463,60.5663 C139.5463,60.5663 142.7223,66.6193 143.7333,69.0213 C143.7333,69.0213 143.5443,69.3483 143.1653,69.5963 C142.7973,69.8363 142.3353,69.9313 142.3353,69.9313 C142.3353,69.9313 136.6053,63.5363 136.2293,62.5253 C135.8523,61.5143 130.2213,52.8123 130.6063,44.3753" id="Fill-163" fill="#27A9E0"></path>
                    <path d="M134.453,69.4798 C134.013,70.5408 133.402,71.0788 132.065,71.3848 C130.278,71.0418 129.1,67.7538 128.493,66.1358 C127.794,64.2708 131.436,54.6838 132.442,54.7718 C133.189,54.8358 133.333,56.0588 133.357,56.6828 C132.874,58.2038 132.578,59.7478 132.748,61.6488 C132.932,63.7248 134.872,68.4688 134.453,69.4798" id="Fill-164" fill="#27A9E0"></path>
                    <path d="M119.4373,56.9378 C119.0223,57.5678 118.5513,58.2458 118.0683,58.8718 C117.3733,59.7258 116.6063,60.5528 115.9273,61.0148 C115.7703,61.1068 115.6193,61.1708 115.4753,61.2048 C114.9783,61.3228 114.0663,61.0468 112.9843,60.5728 C113.6273,60.6198 114.2603,60.5968 114.8823,60.5438 C115.9713,60.4518 116.2883,59.2718 118.0093,57.5038 C119.0393,56.4468 119.3513,56.6098 119.4373,56.9378" id="Fill-165" fill="#27A9E0"></path>
                    <path d="M129.3827,39.1571 C128.7437,40.2011 127.2027,42.3501 125.1447,42.8761 C125.2797,42.0041 125.2417,41.2161 125.2047,40.7871 C125.1827,40.5691 125.1587,40.4421 125.1587,40.4421 L129.3827,39.1571 Z" id="Fill-166" fill="#E3B465"></path>
                    <path d="M124.0506,40.7288 C124.0506,40.7288 129.1276,41.7488 129.7136,38.5768 C130.2996,35.4058 131.3506,33.4008 128.1336,32.6168 C124.9166,31.8318 124.0616,32.9248 123.6086,33.9358 C123.1546,34.9468 122.7446,40.3818 124.0506,40.7288" id="Fill-167" fill="#E3B465"></path>
                    <path d="M130.6971,32.8265 C129.8381,31.8605 128.5981,31.6725 127.6951,31.6875 C128.2391,31.0275 126.0491,29.5805 123.5451,32.0485 C122.4661,33.1115 122.6291,35.2015 123.2071,36.4145 C123.2071,36.4145 124.0941,33.8155 125.7101,33.2485 C126.0691,33.1225 126.4101,32.9125 126.7241,32.6615 C126.9211,33.1565 127.3161,33.8555 128.1121,34.7255 C129.7821,36.5505 129.4571,40.2415 129.4571,40.2415 C129.4571,40.2415 132.1981,34.5155 130.6971,32.8265" id="Fill-168" fill="#002D51"></path>
                </g>
            </g>
        </g>
    </g>
</svg>