<?xml version="1.0" encoding="UTF-8"?>
<svg width="169px" height="119px" viewBox="0 0 169 119" version="1.1" xmlns="http://www.w3.org/2000/svg" xmlns:xlink="http://www.w3.org/1999/xlink">
    <!-- Generator: Sketch 59.1 (86144) - https://sketch.com -->
    <title>Digital Strategy</title>
    <desc>Created with Sketch.</desc>
    <defs>
        <path d="M51.5019797,0.300985859 C48.0831472,0.334161616 45.6529848,2.99110707 43.3029848,5.56006465 L43.3029848,5.56006465 C42.9446396,5.95240404 42.588203,6.34185859 42.233198,6.71640808 L42.233198,6.71640808 C39.7510254,9.33056162 37.105665,11.1081091 34.3701218,11.9995273 L34.3701218,11.9995273 C31.156467,13.0472081 27.830203,12.8130545 25.243533,11.3586101 L25.243533,11.3586101 C23.7595736,10.5229657 22.4287817,9.25267071 21.1414112,8.02468687 L21.1414112,8.02468687 C18.9722538,5.95480808 16.7296142,3.81425051 13.6925076,3.72145455 L13.6925076,3.72145455 C10.2918071,3.61375354 7.55149239,6.16588283 5.32269036,8.67281616 L5.32269036,8.67281616 C3.50806091,10.7148081 1.75450761,12.8601737 0.11022335,15.0488121 L0.11022335,15.0488121 C-0.0295837563,15.2339232 0.00668020305,15.4969253 0.190385787,15.637802 L0.190385787,15.637802 C0.26577665,15.6950182 0.354050761,15.7224242 0.441847716,15.7224242 L0.441847716,15.7224242 C0.567817259,15.7224242 0.692832487,15.6652081 0.774903553,15.5560646 L0.774903553,15.5560646 C2.40582741,13.385697 4.14458883,11.2590828 5.94490355,9.23391919 L5.94490355,9.23391919 C8.0448731,6.87074747 10.6162741,4.4623798 13.6672183,4.56190707 L13.6672183,4.56190707 C16.3865381,4.64508687 18.4173198,6.58370505 20.5673909,8.63531313 L20.5673909,8.63531313 C21.8919797,9.89935758 23.2614213,11.2061939 24.8374721,12.092804 L24.8374721,12.092804 C27.6255025,13.6607192 31.192731,13.9179515 34.6268325,12.7995919 L34.6268325,12.7995919 C37.4955025,11.864901 40.2572893,10.0137899 42.8363249,7.29722424 L42.8363249,7.29722424 C43.1946701,6.91930909 43.5544467,6.52648889 43.9166091,6.12982222 L43.9166091,6.12982222 C46.1463655,3.69212525 48.4519898,1.17172929 51.5100914,1.14191919 L51.5100914,1.14191919 C53.3180406,1.13422626 55.1818173,2.00929697 57.2574518,3.84742626 L57.2574518,3.84742626 C58.5920609,5.02925253 59.8250355,6.38032323 61.0169746,7.6876404 L61.0169746,7.6876404 C62.382599,9.18439596 63.7954619,10.732598 65.3863046,12.0581859 L65.3863046,12.0581859 C67.1083655,13.4929172 71.6270457,16.6648081 76.3938477,15.139204 L76.3938477,15.139204 C79.8227005,14.042 81.9761117,10.9744444 84.0593807,8.00785859 L84.0593807,8.00785859 C84.2550152,7.72850909 84.4501726,7.4496404 84.6462843,7.17509899 L84.6462843,7.17509899 C87.5822335,3.04255354 90.4256142,1.11739798 93.3563147,1.29337374 L93.3563147,1.29337374 C93.5853503,1.30779798 93.7838477,1.1303798 93.7980228,0.898630303 L93.7980228,0.898630303 C93.8115228,0.666880808 93.6354518,0.468307071 93.4059391,0.454363636 L93.4059391,0.454363636 C90.1689036,0.258674747 87.0840812,2.29874343 83.9672893,6.68563636 L83.9672893,6.68563636 C83.7711777,6.9616202 83.5745888,7.2409697 83.3775228,7.52224242 L83.3775228,7.52224242 C81.3744162,10.3748768 79.3030761,13.325596 76.1414315,14.3372162 L76.1414315,14.3372162 C73.1043249,15.3094101 69.2837259,14.2155717 65.918335,11.4105374 L65.918335,11.4105374 C64.3713909,10.1219717 62.9780914,8.59492525 61.6315533,7.11788283 L61.6315533,7.11788283 C60.4248223,5.7951798 59.1765787,4.42728081 57.8080914,3.21516364 L57.8080914,3.21516364 C55.5931269,1.25490909 53.5499391,0.300505051 51.5630558,0.300505051 L51.5630558,0.300505051 C51.5425381,0.300505051 51.5224975,0.300505051 51.5019797,0.300985859" id="path-1"></path>
        <linearGradient x1="-8.63926442e-05%" y1="50.0023501%" x2="100.000252%" y2="50.0023501%" id="linearGradient-3">
            <stop stop-color="#025BDB" offset="0%"></stop>
            <stop stop-color="#5293ED" offset="100%"></stop>
        </linearGradient>
        <path d="M0.016,2.5391625 C0.016,3.787175 1.037,4.79917083 2.2955,4.79917083 L2.2955,4.79917083 C3.554,4.79917083 4.574,3.787175 4.574,2.5391625 L4.574,2.5391625 C4.574,1.29115 3.554,0.279154167 2.2955,0.279154167 L2.2955,0.279154167 C1.037,0.279154167 0.016,1.29115 0.016,2.5391625" id="path-4"></path>
        <linearGradient x1="0.00541465555%" y1="50.0000241%" x2="100.0098%" y2="50.0000241%" id="linearGradient-6">
            <stop stop-color="#025BDB" offset="0%"></stop>
            <stop stop-color="#5293ED" offset="100%"></stop>
        </linearGradient>
        <path d="M0.129,2.58130833 C0.129,3.82932083 1.149,4.84131667 2.4085,4.84131667 L2.4085,4.84131667 C3.667,4.84131667 4.687,3.82932083 4.687,2.58130833 L4.687,2.58130833 C4.687,1.33329583 3.667,0.3213 2.4085,0.3213 L2.4085,0.3213 C1.149,0.3213 0.129,1.33329583 0.129,2.58130833" id="path-7"></path>
        <linearGradient x1="-4.82667839e-05%" y1="50.0006%" x2="100.004337%" y2="50.0006%" id="linearGradient-9">
            <stop stop-color="#025BDB" offset="0%"></stop>
            <stop stop-color="#5293ED" offset="100%"></stop>
        </linearGradient>
        <path d="M0.1855,2.53122917 C0.1855,3.7797375 1.206,4.7912375 2.4645,4.7912375 L2.4645,4.7912375 C3.724,4.7912375 4.7435,3.7797375 4.7435,2.53122917 L4.7435,2.53122917 C4.7435,1.28272083 3.724,0.271220833 2.4645,0.271220833 L2.4645,0.271220833 C1.206,0.271220833 0.1855,1.28272083 0.1855,2.53122917" id="path-10"></path>
        <linearGradient x1="0.00220052655%" y1="50.0006231%" x2="100.00758%" y2="50.0006231%" id="linearGradient-12">
            <stop stop-color="#025BDB" offset="0%"></stop>
            <stop stop-color="#5293ED" offset="100%"></stop>
        </linearGradient>
        <path d="M0.410909091,2.63932083 C0.410909091,3.88733333 1.33772727,4.89883333 2.48227273,4.89883333 L2.48227273,4.89883333 C3.62681818,4.89883333 4.55454545,3.88733333 4.55454545,2.63932083 L4.55454545,2.63932083 C4.55454545,1.3908125 3.62681818,0.378816667 2.48227273,0.378816667 L2.48227273,0.378816667 C1.33772727,0.378816667 0.410909091,1.3908125 0.410909091,2.63932083" id="path-13"></path>
        <linearGradient x1="-0.00996709083%" y1="50.0055079%" x2="99.9955167%" y2="50.0055079%" id="linearGradient-15">
            <stop stop-color="#025BDB" offset="0%"></stop>
            <stop stop-color="#5293ED" offset="100%"></stop>
        </linearGradient>
        <linearGradient x1="-2.81192976e-05%" y1="50.0011538%" x2="100.000568%" y2="50.0011538%" id="linearGradient-16">
            <stop stop-color="#F0F4FD" offset="0%"></stop>
            <stop stop-color="#FFFFFF" offset="100%"></stop>
        </linearGradient>
        <path d="M0.00232142857,6.77027931 C0.00232142857,10.4302132 2.89017857,13.4079489 6.44010714,13.4079489 L6.44010714,13.4079489 C9.98957143,13.4079489 12.8769643,10.4302132 12.8769643,6.77027931 L12.8769643,6.77027931 L11.4553214,6.77027931 C11.4553214,9.62162874 9.20539286,11.9425391 6.44010714,11.9425391 L6.44010714,11.9425391 C3.67389286,11.9425391 1.42396429,9.62162874 1.42396429,6.77027931 L1.42396429,6.77027931 C1.42396429,3.91845115 3.67389286,1.59801954 6.44010714,1.59801954 L6.44010714,1.59801954 L6.44010714,0.13260977 C2.89017857,0.13260977 0.00232142857,3.1103454 0.00232142857,6.77027931" id="path-17"></path>
        <linearGradient x1="-0.000422646953%" y1="49.9998287%" x2="100.000697%" y2="49.9998287%" id="linearGradient-19">
            <stop stop-color="#025BDB" offset="0%"></stop>
            <stop stop-color="#5293ED" offset="100%"></stop>
        </linearGradient>
        <linearGradient x1="-0.000722447475%" y1="49.9906081%" x2="100.001855%" y2="49.9906081%" id="linearGradient-20">
            <stop stop-color="#025BDB" offset="0%"></stop>
            <stop stop-color="#5293ED" offset="100%"></stop>
        </linearGradient>
        <linearGradient x1="-0.000722447475%" y1="50.0325162%" x2="100.001855%" y2="50.0325162%" id="linearGradient-21">
            <stop stop-color="#025BDB" offset="0%"></stop>
            <stop stop-color="#5293ED" offset="100%"></stop>
        </linearGradient>
        <linearGradient x1="-0.000722447475%" y1="49.9811331%" x2="100.001855%" y2="49.9811331%" id="linearGradient-22">
            <stop stop-color="#F7933D" offset="0%"></stop>
            <stop stop-color="#FFBC5B" offset="100%"></stop>
        </linearGradient>
        <linearGradient x1="-0.000990249078%" y1="50.0057811%" x2="99.999517%" y2="50.0057811%" id="linearGradient-23">
            <stop stop-color="#F7933D" offset="0%"></stop>
            <stop stop-color="#FFBC5B" offset="100%"></stop>
        </linearGradient>
        <polygon id="path-24" points="0.136273589 0.241774545 7.25072238 0.241774545 7.25072238 6.1228356 0.136273589 6.1228356"></polygon>
        <path d="M42.5915217,3.79504435 C42.5915217,3.79504435 44.451,4.358375 46.0861739,5.964875 L46.0861739,5.964875 L23.6614783,24.0979798 L16.5392174,15.8236411 L0.100434783,27.997629 L1.12821739,29.3953992 L16.2771304,18.1767702 L23.4453043,26.5038911 L47.19,7.30314516 C47.9595217,8.46675403 48.5143043,9.97392742 48.5143043,11.9067177 L48.5143043,11.9067177 L54.9067391,0.399225806 L42.5915217,3.79504435 Z" id="path-26"></path>
        <linearGradient x1="-0.000260482569%" y1="49.9998378%" x2="100.000433%" y2="49.9998378%" id="linearGradient-28">
            <stop stop-color="#025BDB" offset="0%"></stop>
            <stop stop-color="#5293ED" offset="100%"></stop>
        </linearGradient>
        <path d="M0.442472727,12.8293179 C0.442472727,19.8278521 6.16341818,25.5015918 13.2212364,25.5015918 L13.2212364,25.5015918 C20.2785818,25.5015918 25.9995273,19.8278521 25.9995273,12.8293179 L25.9995273,12.8293179 C25.9995273,5.83078364 20.2785818,0.157512727 13.2212364,0.157512727 L13.2212364,0.157512727 C6.16341818,0.157512727 0.442472727,5.83078364 0.442472727,12.8293179" id="path-29"></path>
        <linearGradient x1="-0.000739322642%" y1="49.9997253%" x2="100.000925%" y2="49.9997253%" id="linearGradient-31">
            <stop stop-color="#025BDB" offset="0%"></stop>
            <stop stop-color="#5293ED" offset="100%"></stop>
        </linearGradient>
        <path d="M0.465953846,15.3079312 C0.465953846,23.6507465 7.3098,30.4380336 15.7232,30.4380336 L15.7232,30.4380336 C24.1356462,30.4380336 30.9799692,23.6507465 30.9799692,15.3079312 L30.9799692,15.3079312 C30.9799692,6.96511577 24.1356462,0.178301667 15.7232,0.178301667 L15.7232,0.178301667 C7.3098,0.178301667 0.465953846,6.96511577 0.465953846,15.3079312 M1.65969231,15.3079312 C1.65969231,7.61825795 7.96843077,1.36209231 15.7232,1.36209231 L15.7232,1.36209231 C23.4779692,1.36209231 29.7862308,7.61825795 29.7862308,15.3079312 L29.7862308,15.3079312 C29.7862308,22.9985503 23.4779692,29.2542429 15.7232,29.2542429 L15.7232,29.2542429 C7.96843077,29.2542429 1.65969231,22.9985503 1.65969231,15.3079312" id="path-32"></path>
        <linearGradient x1="-0.000624247824%" y1="49.9997679%" x2="100.000626%" y2="49.9997679%" id="linearGradient-34">
            <stop stop-color="#025BDB" offset="0%"></stop>
            <stop stop-color="#5293ED" offset="100%"></stop>
        </linearGradient>
    </defs>
    <g id="Services-Page" stroke="none" stroke-width="1" fill="none" fill-rule="evenodd">
        <g id="Services-Page-Digital-Marketing" transform="translate(-209.000000, -937.000000)">
            <g id="Digital-Strategy" transform="translate(209.000000, 937.000000)">
                <polygon id="Fill-1" fill="#5AA9FF" points="33 87.2666667 140 87.2666667 140 19.8333333 33 19.8333333"></polygon>
                <polygon id="Fill-2" fill="#ECECEC" points="36 85.2833333 138 85.2833333 138 21.8166667 36 21.8166667"></polygon>
                <polygon id="Fill-3" fill="#0F7EA8" points="58 48.5916667 62 48.5916667 62 32.725 58 32.725"></polygon>
                <polygon id="Fill-4" fill="#0F7EA8" points="71 48.5916667 75 48.5916667 75 26.775 71 26.775"></polygon>
                <polygon id="Fill-5" fill="#0F7EA8" points="64 48.5916667 68 48.5916667 68 39.6666667 64 39.6666667"></polygon>
                <polygon id="Fill-6" fill="#0F7EA8" points="98 48.5916667 102 48.5916667 102 41.65 98 41.65"></polygon>
                <polygon id="Fill-7" fill="#0F7EA8" points="112 48.5916667 116 48.5916667 116 36.6916667 112 36.6916667"></polygon>
                <polygon id="Fill-8" fill="#0F7EA8" points="105 48.5916667 109 48.5916667 109 33.7166667 105 33.7166667"></polygon>
                <polygon id="Fill-9" fill="#0F7EA8" points="78 48.5916667 82 48.5916667 82 35.7 78 35.7"></polygon>
                <polygon id="Fill-10" fill="#0F7EA8" points="91 48.5916667 95 48.5916667 95 31.7333333 91 31.7333333"></polygon>
                <polygon id="Fill-11" fill="#0F7EA8" points="85 48.5916667 89 48.5916667 89 41.65 85 41.65"></polygon>
                <g id="Group-22" transform="translate(41.000000, 53.550000)" fill="#D8D8D8">
                    <path d="M0.4418,15.5536606 C0.354003046,15.5536606 0.265728934,15.5257737 0.190815228,15.4685576 C0.00663248731,15.3281616 -0.0296314721,15.064198 0.110175635,14.8795677 C1.7544599,12.6909293 3.5080132,10.5455636 5.32264264,8.50357172 C7.55144467,5.99663838 10.2922365,3.44450909 13.6929371,3.5522101 C16.7295665,3.64500606 18.9722061,5.78556364 21.1413635,7.85544242 C22.428734,9.08390707 23.7595259,10.354202 25.2439624,11.1893657 C27.8301553,12.6438101 31.1564193,12.8779636 34.3700741,11.829802 C37.1056173,10.9388646 39.7509777,9.16131717 42.2331503,6.54668283 C42.5881553,6.17213333 42.9441147,5.7836404 43.3029371,5.39033939 C45.6529371,2.82186263 48.0830995,0.16539798 51.501932,0.131741414 L51.5630081,0.131741414 C53.5498914,0.131741414 55.5930792,1.08518384 57.8085208,3.04591919 C59.176531,4.25803636 60.4247746,5.62641616 61.6315056,6.94911919 C62.9785208,8.42568081 64.3713431,9.95224646 65.9182873,11.2412929 C69.2836782,14.0463273 73.1042772,15.1406465 76.1413838,14.1684525 C79.3030284,13.1563515 81.3743685,10.2061131 83.3774751,7.35299798 C83.5750183,7.07172525 83.7716071,6.79189495 83.9672416,6.51591111 C87.0840335,2.12901818 90.1688558,0.0889494949 93.4058914,0.284638384 C93.6358812,0.29810101 93.8114751,0.497636364 93.7979771,0.729385859 C93.7838,0.961135354 93.5853025,1.13855354 93.356267,1.12412929 C90.4255665,0.948153535 87.5821858,2.87282828 84.6462365,7.00585455 C84.450602,7.28039596 84.2549675,7.55878384 84.0588558,7.83861414 C81.9765411,10.8047192 79.8226528,13.8722747 76.3942772,14.9699596 C71.6274751,16.4955636 67.1083178,13.3236727 65.3857797,11.8889414 C63.7954142,10.5633535 62.3825513,9.01515152 61.0169269,7.51791515 C59.8249878,6.21107879 58.5920132,4.86000808 57.2574041,3.67770101 C55.1817695,1.84005253 53.3179929,0.965462626 51.5100437,0.972674747 C48.4519421,1.00248485 46.1463178,3.52336162 43.9165614,5.96105859 C43.554399,6.35724444 43.1950995,6.74958384 42.8362772,7.1279798 C40.2572416,9.84454545 37.4954548,11.6956566 34.6272619,12.6303475 C31.1926832,13.7491879 27.6254548,13.4914747 24.8374244,11.9230788 C23.2613736,11.0364687 21.891932,9.73011313 20.5678203,8.46606869 C18.4172721,6.4139798 16.3864904,4.47584242 13.6671706,4.39266263 C10.6157492,4.29313535 8.04530254,6.70150303 5.94485584,9.06467475 C4.14501827,11.0893576 2.4057797,13.2169333 0.774855838,15.3868202 C0.692784772,15.4959636 0.568246701,15.5536606 0.4418,15.5536606" id="Fill-12"></path>
                    <path d="M15.3398934,11.4283273 C15.3398934,12.639002 14.3664924,13.6203313 13.1650102,13.6203313 C11.9640051,13.6203313 10.9901269,12.639002 10.9901269,11.4283273 C10.9901269,10.2176525 11.9640051,9.23632323 13.1650102,9.23632323 C14.3664924,9.23632323 15.3398934,10.2176525 15.3398934,11.4283273" id="Fill-14"></path>
                    <path d="M33.1023624,5.21864283 C33.1023624,6.42931758 32.1289614,7.41064687 30.9274792,7.41064687 C29.7264741,7.41064687 28.7525959,6.42931758 28.7525959,5.21864283 C28.7525959,4.00796808 29.7264741,3.02663879 30.9274792,3.02663879 C32.1289614,3.02663879 33.1023624,4.00796808 33.1023624,5.21864283" id="Fill-16"></path>
                    <path d="M53.6741909,5.65108162 C53.6741909,6.86127556 52.7007898,7.84260485 51.4993076,7.84260485 C50.2983025,7.84260485 49.3244244,6.86127556 49.3244244,5.65108162 C49.3244244,4.44040687 50.2983025,3.45907758 51.4993076,3.45907758 C52.7007898,3.45907758 53.6741909,4.44040687 53.6741909,5.65108162" id="Fill-18"></path>
                    <path d="M75.8773726,9.60178545 C75.8773726,10.8124602 74.9034944,11.7937895 73.7020122,11.7937895 C72.5010071,11.7937895 71.5276061,10.8124602 71.5276061,9.60178545 C71.5276061,8.39111071 72.5010071,7.41026222 73.7020122,7.41026222 C74.9034944,7.41026222 75.8773726,8.39111071 75.8773726,9.60178545" id="Fill-20"></path>
                </g>
                <g id="Group-25" transform="translate(41.000000, 51.566667)">
                    <mask id="mask-2" fill="white">
                        <use xlink:href="#path-1"></use>
                    </mask>
                    <g id="Clip-24"></g>
                    <path d="M51.5019797,0.300985859 C48.0831472,0.334161616 45.6529848,2.99110707 43.3029848,5.56006465 L43.3029848,5.56006465 C42.9446396,5.95240404 42.588203,6.34185859 42.233198,6.71640808 L42.233198,6.71640808 C39.7510254,9.33056162 37.105665,11.1081091 34.3701218,11.9995273 L34.3701218,11.9995273 C31.156467,13.0472081 27.830203,12.8130545 25.243533,11.3586101 L25.243533,11.3586101 C23.7595736,10.5229657 22.4287817,9.25267071 21.1414112,8.02468687 L21.1414112,8.02468687 C18.9722538,5.95480808 16.7296142,3.81425051 13.6925076,3.72145455 L13.6925076,3.72145455 C10.2918071,3.61375354 7.55149239,6.16588283 5.32269036,8.67281616 L5.32269036,8.67281616 C3.50806091,10.7148081 1.75450761,12.8601737 0.11022335,15.0488121 L0.11022335,15.0488121 C-0.0295837563,15.2339232 0.00668020305,15.4969253 0.190385787,15.637802 L0.190385787,15.637802 C0.26577665,15.6950182 0.354050761,15.7224242 0.441847716,15.7224242 L0.441847716,15.7224242 C0.567817259,15.7224242 0.692832487,15.6652081 0.774903553,15.5560646 L0.774903553,15.5560646 C2.40582741,13.385697 4.14458883,11.2590828 5.94490355,9.23391919 L5.94490355,9.23391919 C8.0448731,6.87074747 10.6162741,4.4623798 13.6672183,4.56190707 L13.6672183,4.56190707 C16.3865381,4.64508687 18.4173198,6.58370505 20.5673909,8.63531313 L20.5673909,8.63531313 C21.8919797,9.89935758 23.2614213,11.2061939 24.8374721,12.092804 L24.8374721,12.092804 C27.6255025,13.6607192 31.192731,13.9179515 34.6268325,12.7995919 L34.6268325,12.7995919 C37.4955025,11.864901 40.2572893,10.0137899 42.8363249,7.29722424 L42.8363249,7.29722424 C43.1946701,6.91930909 43.5544467,6.52648889 43.9166091,6.12982222 L43.9166091,6.12982222 C46.1463655,3.69212525 48.4519898,1.17172929 51.5100914,1.14191919 L51.5100914,1.14191919 C53.3180406,1.13422626 55.1818173,2.00929697 57.2574518,3.84742626 L57.2574518,3.84742626 C58.5920609,5.02925253 59.8250355,6.38032323 61.0169746,7.6876404 L61.0169746,7.6876404 C62.382599,9.18439596 63.7954619,10.732598 65.3863046,12.0581859 L65.3863046,12.0581859 C67.1083655,13.4929172 71.6270457,16.6648081 76.3938477,15.139204 L76.3938477,15.139204 C79.8227005,14.042 81.9761117,10.9744444 84.0593807,8.00785859 L84.0593807,8.00785859 C84.2550152,7.72850909 84.4501726,7.4496404 84.6462843,7.17509899 L84.6462843,7.17509899 C87.5822335,3.04255354 90.4256142,1.11739798 93.3563147,1.29337374 L93.3563147,1.29337374 C93.5853503,1.30779798 93.7838477,1.1303798 93.7980228,0.898630303 L93.7980228,0.898630303 C93.8115228,0.666880808 93.6354518,0.468307071 93.4059391,0.454363636 L93.4059391,0.454363636 C90.1689036,0.258674747 87.0840812,2.29874343 83.9672893,6.68563636 L83.9672893,6.68563636 C83.7711777,6.9616202 83.5745888,7.2409697 83.3775228,7.52224242 L83.3775228,7.52224242 C81.3744162,10.3748768 79.3030761,13.325596 76.1414315,14.3372162 L76.1414315,14.3372162 C73.1043249,15.3094101 69.2837259,14.2155717 65.918335,11.4105374 L65.918335,11.4105374 C64.3713909,10.1219717 62.9780914,8.59492525 61.6315533,7.11788283 L61.6315533,7.11788283 C60.4248223,5.7951798 59.1765787,4.42728081 57.8080914,3.21516364 L57.8080914,3.21516364 C55.5931269,1.25490909 53.5499391,0.300505051 51.5630558,0.300505051 L51.5630558,0.300505051 C51.5425381,0.300505051 51.5224975,0.300505051 51.5019797,0.300985859" id="Fill-23" fill="url(#linearGradient-3)" mask="url(#mask-2)"></path>
                </g>
                <g id="Group-28" transform="translate(52.000000, 60.491667)">
                    <mask id="mask-5" fill="white">
                        <use xlink:href="#path-4"></use>
                    </mask>
                    <g id="Clip-27"></g>
                    <path d="M0.016,2.5391625 C0.016,3.787175 1.037,4.79917083 2.2955,4.79917083 L2.2955,4.79917083 C3.554,4.79917083 4.574,3.787175 4.574,2.5391625 L4.574,2.5391625 C4.574,1.29115 3.554,0.279154167 2.2955,0.279154167 L2.2955,0.279154167 C1.037,0.279154167 0.016,1.29115 0.016,2.5391625" id="Fill-26" fill="url(#linearGradient-6)" mask="url(#mask-5)"></path>
                </g>
                <g id="Group-31" transform="translate(69.000000, 54.541667)">
                    <mask id="mask-8" fill="white">
                        <use xlink:href="#path-7"></use>
                    </mask>
                    <g id="Clip-30"></g>
                    <path d="M0.129,2.58130833 C0.129,3.82932083 1.149,4.84131667 2.4085,4.84131667 L2.4085,4.84131667 C3.667,4.84131667 4.687,3.82932083 4.687,2.58130833 L4.687,2.58130833 C4.687,1.33329583 3.667,0.3213 2.4085,0.3213 L2.4085,0.3213 C1.149,0.3213 0.129,1.33329583 0.129,2.58130833" id="Fill-29" fill="url(#linearGradient-9)" mask="url(#mask-8)"></path>
                </g>
                <g id="Group-34" transform="translate(90.000000, 54.541667)">
                    <mask id="mask-11" fill="white">
                        <use xlink:href="#path-10"></use>
                    </mask>
                    <g id="Clip-33"></g>
                    <path d="M0.1855,2.53122917 C0.1855,3.7797375 1.206,4.7912375 2.4645,4.7912375 L2.4645,4.7912375 C3.724,4.7912375 4.7435,3.7797375 4.7435,2.53122917 L4.7435,2.53122917 C4.7435,1.28272083 3.724,0.271220833 2.4645,0.271220833 L2.4645,0.271220833 C1.206,0.271220833 0.1855,1.28272083 0.1855,2.53122917" id="Fill-32" fill="url(#linearGradient-12)" mask="url(#mask-11)"></path>
                </g>
                <g id="Group-37" transform="translate(112.000000, 58.508333)">
                    <mask id="mask-14" fill="white">
                        <use xlink:href="#path-13"></use>
                    </mask>
                    <g id="Clip-36"></g>
                    <path d="M0.410909091,2.63932083 C0.410909091,3.88733333 1.33772727,4.89883333 2.48227273,4.89883333 L2.48227273,4.89883333 C3.62681818,4.89883333 4.55454545,3.88733333 4.55454545,2.63932083 L4.55454545,2.63932083 C4.55454545,1.3908125 3.62681818,0.378816667 2.48227273,0.378816667 L2.48227273,0.378816667 C1.33772727,0.378816667 0.410909091,1.3908125 0.410909091,2.63932083" id="Fill-35" fill="url(#linearGradient-15)" mask="url(#mask-14)"></path>
                </g>
                <g id="Group-67" transform="translate(37.000000, 25.783333)">
                    <polygon id="Fill-38" fill="#D8D8D8" points="43.8312331 55.8542367 55.4579398 55.8542367 55.4579398 43.7993383 43.8312331 43.7993383"></polygon>
                    <path d="M43.4255015,43.7992441 C43.4255015,43.7992441 44.9800579,53.8394972 41.0225278,55.0943522 L53.1787195,55.0943522 C53.1787195,55.0943522 55.4398925,54.8159666 55.5812158,50.7720739 C55.7225391,46.7277102 55.5812158,43.7992441 55.5812158,43.7992441 L43.4255015,43.7992441 Z" id="Fill-40" fill="#19B0BC"></path>
                    <polygon id="Fill-41" fill="#FFFFFF" points="44.8276579 45.3132662 54.7685113 45.3132662 54.7685113 44.7056225 44.8276579 44.7056225"></polygon>
                    <polygon id="Fill-42" fill="#FFFFFF" points="44.8276579 46.9082133 54.7685113 46.9082133 54.7685113 46.3005696 44.8276579 46.3005696"></polygon>
                    <polygon id="Fill-43" fill="#FFFFFF" points="44.8276579 48.5031604 54.7685113 48.5031604 54.7685113 47.8955167 44.8276579 47.8955167"></polygon>
                    <polygon id="Fill-44" fill="#FFFFFF" points="44.8276579 50.0985785 52.7756617 50.0985785 52.7756617 49.4904637 44.8276579 49.4904637"></polygon>
                    <polygon id="Fill-45" fill="#FFFFFF" points="44.8271805 51.6935256 50.563188 51.6935256 50.563188 51.0858819 44.8271805 51.0858819"></polygon>
                    <polygon id="Fill-46" fill="#D8D8D8" points="18.9215199 54.168143 9.69826429 55.4823493 8.29792218 45.9192614 17.5211778 44.6050551"></polygon>
                    <path d="M7.97579098,45.9653763 C7.97579098,45.9653763 10.3754226,53.7545213 7.38137368,55.197793 L17.0247797,53.8237645 C17.0247797,53.8237645 18.7870241,53.3465992 18.4294188,50.122319 C18.0718135,46.8980388 17.619197,44.5908767 17.619197,44.5908767 L7.97579098,45.9653763 Z" id="Fill-47" fill="#F4A210"></path>
                    <polygon id="Fill-48" fill="#FFFFFF" points="17.1507293 45.8839803 9.26383835 47.0078857 9.19365414 46.5255391 17.0800677 45.4021047"></polygon>
                    <polygon id="Fill-49" fill="#FFFFFF" points="17.3357865 47.1494338 9.44937293 48.2733392 9.37871128 47.7909925 17.2651248 46.6675581"></polygon>
                    <polygon id="Fill-50" fill="#FFFFFF" points="17.5208914 48.4148872 9.63447782 49.5387926 9.56381617 49.056446 17.4507071 47.9330116"></polygon>
                    <polygon id="Fill-51" fill="#FFFFFF" points="16.1249417 49.9053101 9.81982143 50.8035866 9.74915977 50.321711 16.0547575 49.4234345"></polygon>
                    <polygon id="Fill-52" fill="#FFFFFF" points="14.5555368 51.421028 10.0050218 52.0691814 9.93436015 51.5873057 14.4848752 50.9386814"></polygon>
                    <polygon id="Fill-53" fill="#D8D8D8" points="80.5518508 56.0734595 71.5295989 53.7337955 74.0213771 44.378908 83.0441064 46.718572"></polygon>
                    <path d="M73.7967876,43.5798329 C73.7967876,43.5798329 72.6781372,51.6549002 69.3436711,51.7326221 L78.6972688,54.4604244 C78.6972688,54.4604244 80.5020056,54.7529412 81.5428327,51.6727998 C82.5836598,48.5926583 83.1503853,46.3076352 83.1503853,46.3076352 L73.7967876,43.5798329 Z" id="Fill-54" fill="#F4A210"></path>
                    <polygon id="Fill-55" fill="#FFFFFF" points="81.9650838 47.9944354 74.3154823 45.7640531 74.4553733 45.2958377 82.1049748 47.5271621"></polygon>
                    <polygon id="Fill-56" fill="#FFFFFF" points="81.5972135 49.2217345 73.9480895 46.9913522 74.087503 46.5231368 81.7371045 48.7544611"></polygon>
                    <polygon id="Fill-57" fill="#FFFFFF" points="81.2717402 50.3082863 73.6226162 48.077904 73.7620297 47.6096886 81.4116312 49.8405419"></polygon>
                    <polygon id="Fill-58" fill="#D8D8D8" points="15.8675996 25.8605643 3.53761842 25.6928735 3.71618233 12.9083316 16.046641 13.0760225"></polygon>
                    <path d="M3.17008233,11.9540012 C3.17008233,11.9540012 4.34077406,22.6645466 0.087706391,23.8115331 L12.9677026,24.3734858 C12.9677026,24.3734858 15.3773605,24.1827139 15.7192102,19.9037714 C16.0610598,15.6253 16.0505912,12.5159539 16.0505912,12.5159539 L3.17008233,11.9540012 Z" id="Fill-59" fill="#F4A210"></path>
                    <polygon id="Fill-60" fill="#FFFFFF" points="15.0739929 15.0526075 4.54063195 14.5928708 4.56927857 13.9489569 15.1031169 14.4086935"></polygon>
                    <polygon id="Fill-61" fill="#FFFFFF" points="14.9980316 16.7424224 4.46467068 16.2831567 4.49331729 15.6392428 15.0271556 16.0985084"></polygon>
                    <polygon id="Fill-62" fill="#FFFFFF" points="14.9308553 18.2385449 4.39749436 17.7788082 4.42661842 17.1348943 14.9599793 17.594631"></polygon>
                    <polygon id="Fill-63" fill="#D8D8D8" points="85.5827218 19.0753033 102.865226 19.0753033 102.865226 0.371180833 85.5827218 0.371180833"></polygon>
                    <path d="M126.002238,35.6944541 C124.781892,37.0868533 123.339535,36.1556039 121.973569,34.9266562 C120.755611,33.8305422 117.793073,30.5469108 117.16428,29.8478849 C117.088366,29.7616843 117.045874,29.7159933 117.045874,29.7159933 L112.180246,18.3869701 L113.116513,17.8000522 L119.479404,27.2274801 L119.966396,27.6622516 L126.161705,33.1743812 C126.161705,33.1743812 127.138554,34.4000316 126.002238,35.6944541" id="Fill-64" fill="#FFAD95"></path>
                    <path d="M126.002238,35.6944541 C124.781892,37.0868533 123.339535,36.1556039 121.973569,34.9266562 C120.755611,33.8305422 117.793073,30.5469108 117.16428,29.8478849 L119.966396,27.6622516 L126.161705,33.1743812 C126.161705,33.1743812 127.138554,34.4000316 126.002238,35.6944541" id="Fill-65" fill="#EF5E43"></path>
                    <path d="M109.966388,15.4414995 C110.112485,15.3397545 110.384628,15.808441 110.571309,16.0208807 C110.757512,16.2333205 110.820534,16.2512201 110.824831,16.2069422 C110.829128,16.1626643 110.526906,15.6577076 110.374124,15.4405574 C110.221342,15.2234072 109.970207,14.8847282 110.130628,14.7820412 C110.291049,14.678883 110.51688,15.0382878 110.732207,15.3260943 C110.947057,15.6143718 111.078354,15.9346801 111.1557,15.8918153 C111.233523,15.8489505 110.58038,14.701022 110.53741,14.6129372 C110.49444,14.5243814 110.336406,14.2464668 110.47773,14.1616793 C110.618576,14.0764207 110.780906,14.3095864 110.862549,14.4325282 C110.94467,14.5554701 111.157609,14.9082803 111.316598,15.2130443 C111.475587,15.5182793 111.525241,15.617198 111.581102,15.6002405 C111.636963,15.583283 111.375324,14.8296164 111.272196,14.5582964 C111.169545,14.2869764 111.143286,14.0104749 111.332831,13.9968147 C111.523331,13.9822124 111.672294,14.5177868 111.778286,14.8168982 C111.884279,15.1164807 112.066185,15.6332135 112.1865,15.8192749 C112.306816,16.0053364 112.377,16.1979924 112.46867,16.1202705 C112.490632,16.1037841 112.508297,16.091537 112.519756,16.0840003 C112.588508,16.0392514 112.668718,15.8334062 112.695933,15.6774914 C112.72267,15.5225187 112.885,15.3552989 113.013433,15.2855847 C113.14091,15.2158705 113.260271,15.2455462 113.119425,15.5620862 C112.979534,15.8790972 112.921286,16.3670964 112.962824,16.6318218 C113.003884,16.8970182 113.054493,17.0618828 112.848715,17.2776199 C112.781395,17.3487472 113.907685,19.1062037 114.082906,19.3567978 C114.258128,19.607392 113.069294,20.1768814 112.946113,19.9611443 C112.822933,19.7449362 111.947301,17.7698585 111.782583,17.7491326 C111.617388,17.7279357 111.504233,17.6577505 111.206309,17.3383843 C111.056869,17.1787012 110.79332,16.8541535 110.577993,16.5804782 C110.577993,16.5804782 110.168824,16.0665718 110.03323,15.853661 C109.897158,15.6412212 109.819812,15.5437155 109.966388,15.4414995" id="Fill-66" fill="#FFAD95"></path>
                </g>
                <polygon id="Fill-68" fill="url(#linearGradient-16)" points="124 43.6333333 156 43.6333333 156 24.7916667 124 24.7916667"></polygon>
                <polygon id="Stroke-70" stroke="#4F5DE0" points="124 43.6333333 156 43.6333333 156 24.7916667 124 24.7916667"></polygon>
                <g id="Group-74" transform="translate(126.000000, 27.766667)">
                    <mask id="mask-18" fill="white">
                        <use xlink:href="#path-17"></use>
                    </mask>
                    <g id="Clip-73"></g>
                    <path d="M0.00232142857,6.77027931 C0.00232142857,10.4302132 2.89017857,13.4079489 6.44010714,13.4079489 L6.44010714,13.4079489 C9.98957143,13.4079489 12.8769643,10.4302132 12.8769643,6.77027931 L12.8769643,6.77027931 L11.4553214,6.77027931 C11.4553214,9.62162874 9.20539286,11.9425391 6.44010714,11.9425391 L6.44010714,11.9425391 C3.67389286,11.9425391 1.42396429,9.62162874 1.42396429,6.77027931 L1.42396429,6.77027931 C1.42396429,3.91845115 3.67389286,1.59801954 6.44010714,1.59801954 L6.44010714,1.59801954 L6.44010714,0.13260977 C2.89017857,0.13260977 0.00232142857,3.1103454 0.00232142857,6.77027931" id="Fill-72" fill="url(#linearGradient-19)" mask="url(#mask-18)"></path>
                </g>
                <path d="M139,34.7083333 L137.453588,34.7083333 C137.453588,31.7258949 135.007501,29.2996911 132,29.2996911 L132,27.7666667 C135.859719,27.7666667 139,30.8802783 139,34.7083333" id="Fill-75" fill="#3D28E0"></path>
                <polygon id="Fill-77" fill="url(#linearGradient-20)" points="141 30.7416667 154 30.7416667 154 29.75 141 29.75"></polygon>
                <polygon id="Fill-79" fill="url(#linearGradient-21)" points="141 33.7166667 154 33.7166667 154 32.725 141 32.725"></polygon>
                <polygon id="Fill-81" fill="url(#linearGradient-22)" points="141 35.7 154 35.7 154 34.7083333 141 34.7083333"></polygon>
                <polygon id="Fill-83" fill="url(#linearGradient-23)" points="142 38.675 151 38.675 151 37.6833333 142 37.6833333"></polygon>
                <g id="Group-170" transform="translate(0.000000, 2.000000)">
                    <path d="M164.909578,88.1031824 C164.909578,88.1031824 164.430345,92.9555264 164.081813,94.5177584 C164.010478,94.8381064 164.030107,95.1713064 164.132561,95.4835624 C164.92777,97.9044984 168.096161,107.977134 167.249725,112.305878 L166.499039,113.237886 L160.663034,97.7655064 L160.97183,86.6542384 L164.909578,88.1031824 Z" id="Fill-85" fill="#FFAD95"></path>
                    <path d="M156.35047,86.8602036 L158.971645,113.814656 L160.282473,113.266304 C160.282473,113.266304 161.938002,99.1371956 161.248118,96.5306196 C160.558235,93.9245196 163.31777,85.4883716 163.31777,85.4883716 L156.35047,86.8602036 Z" id="Fill-87" fill="#FFAD95"></path>
                    <path d="M165.249493,79.5914456 C164.412153,81.0161136 165.155657,88.3379456 165.155657,88.3379456 L164.70132,88.3303296 L161.30217,88.2674976 L156.17041,88.1713456 L155.729,88.1642056 C154.488549,79.1092576 156.282439,67.8604256 156.282439,67.8604256 L164.145487,67.8604256 C164.145487,67.8604256 164.325977,69.2703376 164.932558,70.9172976 C165.025915,71.1748136 165.132677,71.4370896 165.249493,71.7022216 C166.398501,74.3097496 166.307059,77.7826456 165.249493,79.5914456" id="Fill-89" fill="#0280DA"></path>
                    <path d="M155.73283,114.204595 C155.73283,114.204595 153.402736,114.527799 153.456835,115.982455 L157.159515,115.982455 C157.505175,115.982455 157.826898,115.818235 158.033719,115.543107 C158.401402,115.051399 159.08219,114.311219 159.905167,114.204595 L159.905167,115.982455 L160.71809,115.982455 L160.71809,114.204595 C160.71809,114.204595 161.557345,112.142087 160.831555,111.674179 C160.771711,111.635147 160.693674,111.637527 160.637181,111.681795 C160.139756,112.069735 157.448204,114.107015 155.73283,114.204595" id="Fill-91" fill="#222953"></path>
                    <g id="Group-95" transform="translate(161.339943, 109.860000)">
                        <mask id="mask-25" fill="white">
                            <use xlink:href="#path-24"></use>
                        </mask>
                        <g id="Clip-94"></g>
                        <path d="M1.98893371,3.8742116 C1.98893371,3.8742116 -0.205193768,4.7186356 0.182117847,6.1228356 L3.78713201,5.2807916 C4.123217,5.2022516 4.39897904,4.9694876 4.5363813,4.6543756 C4.78150312,4.0926956 5.27414051,3.2168556 6.05067875,2.9260196 L6.45953428,4.6572316 L7.25091388,4.4720676 L6.84205836,2.7413316 C6.84205836,2.7413316 7.18532465,0.5426876 6.37096487,0.2518516 C6.30393938,0.2275756 6.22829632,0.2480436 6.18377224,0.3037356 C5.78880057,0.7940156 3.63632465,3.3891676 1.98893371,3.8742116" id="Fill-93" fill="#222953" mask="url(#mask-25)"></path>
                    </g>
                    <polygon id="Fill-96" fill="#FFBF31" points="156.512241 88.5262036 164.840637 88.7799116 164.886597 88.3319956 156.478728 88.1772956"></polygon>
                    <path d="M156.234516,68.1799644 C156.234516,68.1799644 161.735873,69.4780164 164.203847,68.1823444 L164.157408,67.8619964 L156.281433,67.8619964 L156.234516,68.1799644 Z" id="Fill-98" fill="#EFA91B"></path>
                    <path d="M157.959704,47.7845068 L158.175622,52.9719548 C158.207698,53.7364108 158.856409,54.3299828 159.625288,54.2985668 C160.393687,54.2666748 160.990693,53.6216948 160.959095,52.8572388 L160.743177,47.6702668" id="Fill-100" fill="#FFAD95"></path>
                    <path d="M158.113527,51.4804564 C158.113527,51.4804564 160.635601,50.7735964 160.856785,50.4066004 L160.84338,50.0776844 C160.84338,50.0776844 159.289346,50.9901764 158.069961,50.4270684 L158.113527,51.4804564 Z" id="Fill-102" fill="#F29E8B"></path>
                    <path d="M159.006977,50.6539776 C160.663465,50.6863456 162.046105,49.3659216 162.07866,47.7189616 L162.13228,45.0505056 C162.165314,43.4035456 160.836773,42.0288576 159.180286,41.9964896 C157.523799,41.9636456 156.141637,43.2840696 156.108603,44.9315056 L156.054983,47.5994856 C156.022428,49.2464456 157.35049,50.6211336 159.006977,50.6539776" id="Fill-104" fill="#FFAD95"></path>
                    <path d="M158.454831,52.2391052 C158.454831,52.2391052 154.926417,52.9545332 155.603375,60.4020292 L156.28129,67.8619012 C159.030771,68.5468652 161.667267,68.6096972 164.157264,67.8619012 C164.157264,67.8619012 165.997114,49.8353052 158.454831,52.2391052" id="Fill-106" fill="#EF5E43"></path>
                    <path d="M155.670209,42.86062 C155.626163,43.811192 157.965832,44.320036 158.433574,45.178264 C158.663855,45.599524 158.651886,46.087424 158.629384,46.553904 C158.571934,47.752948 158.477141,48.950088 158.345484,50.144372 C158.167866,51.753252 157.950033,53.483512 158.856792,54.890092 C159.617532,56.06962 161.069591,56.806944 162.570005,57.12872 C164.070897,57.450972 165.6369,57.409084 167.18088,57.365292 C165.476039,56.061052 164.261441,54.271292 163.766889,52.334448 C163.216801,50.178168 163.545705,47.936208 163.583526,45.726616 C163.600282,44.762716 163.543311,43.745504 162.957316,42.930116 C162.264081,41.966692 160.805798,41.38978 159.519387,41.452612 C158.514962,41.50164 155.722393,41.72774 155.670209,42.86062" id="Fill-108" fill="#222B54"></path>
                    <path d="M155.517343,58.4758952 C155.517343,58.4758952 157.710513,60.0819192 159.056768,59.9295992 L155.517343,57.5857752 L155.517343,58.4758952 Z" id="Fill-110" fill="#EF5E43"></path>
                    <path d="M160.714883,59.1085468 C159.626676,60.6212748 158.098495,59.8158828 156.620104,58.7044228 C155.301616,57.7133908 152.036996,54.6807948 151.34424,54.0348628 C151.260458,53.9548948 151.21354,53.9125308 151.21354,53.9125308 L145.297104,42.9588188 L146.177531,42.2824228 L153.411019,51.1860028 L153.938126,51.5787028 L160.638761,56.5581388 C160.638761,56.5581388 161.728404,57.7019668 160.714883,59.1085468" id="Fill-112" fill="#FFAD95"></path>
                    <path d="M160.714883,59.1085468 C159.626676,60.6212748 158.098495,59.8158828 156.620104,58.7044228 C155.301616,57.7133908 152.036996,54.6807948 151.34424,54.0348628 L153.938126,51.5787028 L160.638761,56.5581388 C160.638761,56.5581388 161.728404,57.7019668 160.714883,59.1085468" id="Fill-114" fill="#EF5E43"></path>
                    <path d="M142.811655,40.1975428 C142.948099,40.0813988 143.263598,40.5283628 143.469941,40.7249508 C143.676284,40.9215388 143.740437,40.9339148 143.739958,40.8891708 C143.739958,40.8439508 143.391425,40.3636668 143.218595,40.1589868 C143.045765,39.9543068 142.763301,39.6368148 142.914108,39.5187668 C143.064437,39.4007188 143.323921,39.7415348 143.565213,40.0114268 C143.806983,40.2817948 143.967844,40.5921468 144.041573,40.5416908 C144.115301,40.4912348 143.355997,39.3959588 143.304292,39.3112308 C143.253544,39.2260268 143.069703,38.9613708 143.202318,38.8623628 C143.33589,38.7638308 143.519252,38.9837428 143.612609,39.1003628 C143.705966,39.2165068 143.951567,39.5516108 144.138281,39.8438748 C144.325952,40.1366148 144.38436,40.2318148 144.438459,40.2094428 C144.493037,40.1875468 144.161261,39.4526028 144.033434,39.1888988 C143.904649,38.9256708 143.852944,38.6500668 144.041573,38.6181748 C144.230201,38.5867588 144.428884,39.1117868 144.562456,39.4030988 C144.696507,39.6948868 144.926309,40.1980188 145.06419,40.3741388 C145.201592,40.5502588 145.289683,40.7382788 145.373944,40.6516468 C145.394051,40.6326068 145.410808,40.6188028 145.42134,40.6102348 C145.485972,40.5583508 145.546774,40.3441508 145.558742,40.1851668 C145.571669,40.0266588 145.718167,39.8433988 145.839292,39.7610508 C145.960895,39.6796548 146.082499,39.6986948 145.971907,40.0299908 C145.860836,40.3617628 145.848867,40.8582308 145.914456,41.1209828 C145.980524,41.3837348 146.046114,41.5450988 145.861315,41.7811948 C145.800513,41.8587828 147.089318,43.5243068 147.288,43.7599268 C147.486204,43.9960228 146.352037,44.6786068 146.20889,44.4720228 C146.066221,44.2659148 145.007218,42.3590588 144.840612,42.3533468 C144.674006,42.3471588 144.554318,42.2862308 144.226371,41.9925388 C144.062638,41.8454548 143.769641,41.5431948 143.528827,41.2875828 C143.528827,41.2875828 143.072097,40.8077748 142.91698,40.6059508 C142.761864,40.4046028 142.67521,40.3136868 142.811655,40.1975428" id="Fill-116" fill="#FEAC95"></path>
                    <polygon id="Fill-118" fill="#FFAD95" points="19.8318867 114.388664 21.9336147 114.388664 21.9336147 111.416996 19.8318867 111.416996"></polygon>
                    <path d="M18.8451278,116.129063 C18.8480003,116.374203 18.8594904,116.532711 18.8594904,116.532711 L27.0792099,116.532711 C27.0792099,116.439415 27.0734649,116.354687 27.0591023,116.274719 C27.051921,116.222835 27.0404309,116.174759 27.0275045,116.129063 C26.814938,115.369367 25.9536603,115.237039 24.8970513,115.179919 C24.8357708,115.175635 24.7740116,115.172779 24.7122524,115.169923 C23.4047765,115.108519 22.2840144,113.436807 22.2840144,113.436807 C20.9133431,114.488767 19.6063459,113.436807 19.6063459,113.436807 C18.8968331,113.719075 18.8336377,115.356515 18.8451278,116.129063" id="Fill-120" fill="#EF5E43"></path>
                    <path d="M27.0274088,116.129063 L18.845032,116.129063 C18.8479045,116.374203 18.8593946,116.532711 18.8593946,116.532711 L27.0791142,116.532711 C27.0791142,116.381343 27.061879,116.247111 27.0274088,116.129063" id="Fill-121" fill="#E5E5E5"></path>
                    <path d="M24.8970992,115.179871 C24.912898,115.252223 24.9373144,115.322671 24.9689122,115.390739 C25.1178045,115.721559 25.4074504,115.956703 25.7100227,116.144723 C26.0125949,116.332743 26.3022408,116.520763 26.6646572,116.408427 C26.7977507,116.367015 26.9298867,116.324175 27.0591501,116.274671 C27.0514901,116.222787 27.0404788,116.174711 27.0275524,116.129015 C26.8149858,115.369319 25.9537082,115.236991 24.8970992,115.179871" id="Fill-122" fill="#E5E5E5"></path>
                    <polygon id="Fill-123" fill="#FFAD95" points="1.60272323 112.693866 3.59721048 113.35265 4.53939745 110.53235 2.5449102 109.873566"></polygon>
                    <path d="M0.114326346,114.036329 C0.0391620397,114.269569 -9.57507082e-05,114.423317 -9.57507082e-05,114.423317 L7.80023569,117.000381 C7.82943966,116.911845 7.85146232,116.829021 7.86295241,116.748577 C7.87252748,116.698121 7.87683626,116.648141 7.87923003,116.601017 C7.91896657,115.813713 7.14338584,115.417681 6.1585898,115.032597 C6.10161813,115.009273 6.04416771,114.986901 5.98623853,114.965005 C4.76493824,114.497097 4.2316068,112.558825 4.2316068,112.558825 C2.59762096,113.128121 1.690383,111.720113 1.690383,111.720113 C0.927728612,111.765333 0.348436827,113.299481 0.114326346,114.036329" id="Fill-124" fill="#EF5E43"></path>
                    <path d="M7.87913428,116.600874 L0.114230595,114.036186 C0.0395450425,114.269902 -0.000191501416,114.42365 -0.000191501416,114.42365 L7.80013994,117.000238 C7.84849405,116.856486 7.87434674,116.724158 7.87913428,116.600874" id="Fill-125" fill="#E5E5E5"></path>
                    <path d="M6.1585898,115.032502 C6.15045099,115.106282 6.1514085,115.180538 6.15954731,115.25527 C6.19641133,115.616078 6.39700907,115.929762 6.62393824,116.202986 C6.85134618,116.47621 7.06630652,116.745626 7.44643683,116.75229 C7.58575411,116.755146 7.72459263,116.755622 7.86295241,116.748482 C7.87252748,116.698026 7.87683626,116.648522 7.87923003,116.600922 C7.91896657,115.814094 7.14338584,115.418062 6.1585898,115.032502" id="Fill-126" fill="#E5E5E5"></path>
                    <path d="M24.5679561,71.7174536 C24.5679561,71.7174536 9.76681161,102.34377 4.33104391,111.351118 L2.24798725,110.660442 C2.24798725,110.660442 5.08795326,97.2819856 9.40822521,91.8779576 C9.40822521,91.8779576 11.9173725,75.3869376 15.2624235,71.9230856 L24.5679561,71.7174536 Z" id="Fill-127" fill="#221ABA"></path>
                    <path d="M25.9944023,73.1008048 L21.9522861,112.386989 L19.7921501,112.386989 C19.7921501,112.386989 18.049966,94.4413128 18.2587025,89.5913488 C18.2587025,89.5913488 15.8893513,76.2876248 17.1436856,71.3681648 L25.9944023,73.1008048 Z" id="Fill-128" fill="#221ABA"></path>
                    <path d="M25.92077,73.8157568 C25.92077,73.8157568 18.253532,75.1790208 15.2622799,71.9227048 L26.0438096,72.7571328 L25.92077,73.8157568 Z" id="Fill-129" fill="#1616A5"></path>
                    <path d="M7.05816771,75.5612488 C7.3281847,75.6497848 7.52303739,74.7858448 7.70687875,74.3631568 C7.89167762,73.9414208 7.97881076,73.8828728 8.00562096,73.9499888 C8.03243116,74.0175808 7.80933201,74.9524448 7.67863229,75.3656128 C7.54745382,75.7787808 7.32435467,76.4285208 7.61639433,76.5118208 C7.90747649,76.5946448 8.08413654,75.9244368 8.27611671,75.3703728 C8.46809688,74.8163088 8.51836601,74.2522488 8.65624703,74.2817608 C8.79412805,74.3112728 8.33787592,76.4199528 8.31393824,76.5789368 C8.28952181,76.7379208 8.17892975,77.2477168 8.43362663,77.3129288 C8.68784476,77.3771888 8.82476827,76.9345088 8.89227252,76.7022208 C8.95929802,76.4708848 9.11872295,75.8173368 9.21782493,75.2637488 C9.31692691,74.7106368 9.34517337,74.5316608 9.43853031,74.5311848 C9.5314085,74.5307088 9.48640567,75.8344728 9.45624419,76.3076168 C9.42560397,76.7812368 9.51513088,77.2258208 9.81100057,77.1563248 C10.1068703,77.0858768 10.0829326,76.1776688 10.1039977,75.6588288 C10.1255416,75.1399888 10.1609694,74.2446328 10.2571989,73.8957248 C10.3529496,73.5472928 10.3692272,73.2117128 10.5449297,73.2893008 C10.5861025,73.3045328 10.6186578,73.3145288 10.6397229,73.3207168 C10.7656351,73.3583208 10.9829892,73.6410648 11.0969326,73.8704968 C11.2108759,74.0999288 11.5359496,74.2822368 11.7628788,74.3293608 C11.9902867,74.3764848 12.1573717,74.2717648 11.795434,73.8457448 C11.4339751,73.4192488 11.1179977,72.6843048 11.057196,72.2506688 C10.9963943,71.8170328 10.9954368,71.5352408 10.5822725,71.2972408 C10.4467853,71.2191768 11.3372669,67.9290648 11.4871167,67.4530648 C11.6364878,66.9770648 9.56252748,66.6629048 9.47683059,67.0603648 C9.39065496,67.4573488 8.98227819,70.9654688 8.7409864,71.0778048 C8.50017337,71.1901408 8.36133484,71.3553128 8.05636884,71.9988648 C7.90460397,72.3196888 7.65613088,72.9541968 7.4560119,73.4863648 C7.4560119,73.4863648 7.07396657,74.4869168 6.96720453,74.8848528 C6.86044249,75.2827888 6.78862946,75.4722368 7.05816771,75.5612488" id="Fill-130" fill="#E89D88"></path>
                    <path d="M19.5111218,52.598866 C21.7406771,53.598466 20.9435524,55.645742 18.8648045,57.49881 C16.7865354,59.351402 14.9189178,61.048818 13.4429207,63.548294 C11.9669235,66.04777 11.4283258,67.650938 10.8294051,70.267034 C10.237187,70.020942 8.81193768,70.30321 8.87896317,69.645854 C9.29787252,65.51941 10.6991841,62.548218 12.3240737,58.95775 C14.0533314,55.136898 17.2916204,51.604026 19.5111218,52.598866" id="Fill-131" fill="#1C75BB"></path>
                    <path d="M21.6818861,45.6250376 L21.7680618,51.8534976 C21.7809881,52.7712256 21.0432289,53.5252096 20.1201921,53.5385376 C19.1971552,53.5509136 18.4388096,52.8173976 18.426362,51.8996696 L18.3401864,45.6707336" id="Fill-132" fill="#FFAD95"></path>
                    <path d="M21.7433581,50.0626904 C21.7433581,50.0626904 18.6750266,49.3810584 18.3853807,48.9569424 L18.3801144,48.5618624 C18.3801144,48.5618624 20.3018312,49.5524184 21.7256442,48.7984344 L21.7433581,50.0626904 Z" id="Fill-133" fill="#FFAD95"></path>
                    <path d="M20.6182394,49.1311584 C18.635721,49.2796704 16.8921006,47.7878864 16.7432082,45.8172464 L16.5014377,42.6237624 C16.3525453,40.6526464 17.8524802,38.9190544 19.8349986,38.7705424 C21.8170382,38.6225064 23.5611374,40.1142904 23.7100297,42.0849304 L23.9513215,45.2784144 C24.1006926,47.2490544 22.6007578,48.9831224 20.6182394,49.1311584" id="Fill-134" fill="#FFAD95"></path>
                    <path d="M21.3859207,50.9975068 C21.3859207,50.9975068 29.106779,51.8752508 25.9944023,73.1010428 C21.9647337,73.8169468 18.3884448,73.4213908 15.2621841,71.9229428 C15.2621841,71.9229428 9.4836289,49.2420188 21.3859207,50.9975068" id="Fill-135" fill="#1C75BB"></path>
                    <path d="M23.8512142,38.2466092 C24.6971717,38.5983732 25.5225428,39.3842492 25.3564153,40.2805572 C25.1677864,41.2953892 23.9043558,41.6733332 22.8673756,41.6976092 C21.8299167,41.7228372 20.6397354,41.6585772 19.9330952,42.4139892 C19.5539224,42.8190652 19.4040725,43.3845532 19.3236419,43.9319532 C19.2178374,44.6535692 19.2082623,45.3885132 19.061285,46.1025132 C18.9138289,46.8169892 18.6064691,47.5324172 18.0305286,47.9836652 C17.4545881,48.4344372 16.5665003,48.5410612 15.9963048,48.0831492 C15.5328714,47.7109172 15.3791915,47.0859292 15.2528006,46.5075892 C14.9784748,45.2504732 14.7027127,43.9771732 14.7510669,42.6914972 C14.7998997,41.4062972 15.209234,40.0858732 16.1298771,39.1819492 C17.9342992,37.4098012 21.6149564,37.3165052 23.8512142,38.2466092" id="Fill-136" fill="#222B54"></path>
                    <path d="M20.0536932,44.1061692 C20.0704496,44.7121172 19.589781,45.2171532 18.9803278,45.2338132 C18.3708745,45.2504732 17.862917,44.7730452 17.8461606,44.1666212 C17.8294042,43.5606732 18.3095941,43.0556372 18.9195261,43.0389772 C19.5289793,43.0223172 20.0369368,43.5002212 20.0536932,44.1061692" id="Fill-137" fill="#FFAD95"></path>
                    <path d="M26.6935739,65.6865336 C26.6935739,65.6865336 17.9271178,65.4095016 18.1526108,57.0947336 L26.7337892,64.7602376 L26.6935739,65.6865336 Z" id="Fill-138" fill="#1C75BB"></path>
                    <path d="M43.6208629,57.8441956 C43.5318147,57.5757316 42.7169762,57.9327316 42.2659904,58.0355476 C41.8150045,58.1388396 41.7159025,58.1036156 41.7546816,58.0422116 C41.7929819,57.9808076 42.6820272,57.6042916 43.0937552,57.4638716 C43.5064408,57.3229756 44.1652057,57.1159156 44.0589224,56.8331716 C43.9526391,56.5509036 43.3058431,56.8074676 42.7433076,56.9826356 C42.1807722,57.1582796 41.6948374,57.4529236 41.6364295,57.3244036 C41.5785003,57.1968356 43.5562312,56.3100476 43.6993785,56.2353156 C43.8425258,56.1601076 44.3208006,55.9459076 44.2221773,55.7040996 C44.1235541,55.4618156 43.6835796,55.6146116 43.4561717,55.6988636 C43.2287637,55.7826396 42.6054266,56.0434876 42.0984266,56.2924356 C41.5914266,56.5418596 41.4300867,56.6246836 41.3745513,56.5509036 C41.3185371,56.4766476 42.4005201,55.7388476 42.8017156,55.4818076 C43.2033898,55.2252436 43.5102708,54.8896636 43.2775966,54.6949796 C43.0454011,54.4998196 42.3243983,55.0576916 41.8920839,55.3490036 C41.4592907,55.6393636 40.7133926,56.1429716 40.3739564,56.2729196 C40.0345201,56.4033436 39.7539705,56.5889836 39.7118402,56.4028676 C39.7003501,56.3605036 39.6888601,56.3281356 39.6812,56.3076676 C39.6371547,56.1853356 39.7367354,55.8435676 39.8549875,55.6155636 C39.9732397,55.3885116 39.9277581,55.0200876 39.8310499,54.8106476 C39.7343416,54.6012076 39.5505003,54.5293316 39.4202793,55.0719716 C39.2895796,55.6141356 38.8826391,56.3033836 38.5676193,56.6089756 C38.2525994,56.9155196 38.0251915,57.0830716 38.0778544,57.5552636 C38.0950895,57.7099636 34.9032397,58.9499436 34.4292737,59.1132116 C33.9553076,59.2760036 34.9314861,61.1219316 35.3039564,60.9548556 C35.6764266,60.7882556 38.7586419,59.0322916 38.9927524,59.1589076 C39.2268629,59.2845716 39.4432595,59.2978996 40.1441547,59.1598596 C40.495081,59.0903636 41.1557609,58.9128156 41.7048912,58.7576396 C41.7048912,58.7576396 42.7418714,58.4687076 43.127268,58.3182916 C43.5126646,58.1673996 43.7094323,58.1121836 43.6208629,57.8441956" id="Fill-139" fill="#FEAC95"></path>
                    <path d="M18.9764977,54.2532516 C18.9764977,54.2532516 21.6350161,51.8504036 23.5682229,55.8549916 C25.5014297,59.8591036 25.4205204,61.4613196 29.6096139,60.4198316 C33.7982286,59.3792956 36.4562683,58.2573636 36.4562683,58.2573636 L37.1011493,60.0195156 C37.1011493,60.0195156 29.0456422,66.1061276 24.2930558,64.9851476 C19.5404694,63.8636916 16.6406592,57.2168276 18.9764977,54.2532516" id="Fill-140" fill="#1C75BB"></path>
                    <path d="M123.916306,74.257818 C123.916306,74.257818 134.32728,88.344086 135.583529,95.75493 C135.583529,95.75493 140.111102,79.329598 123.916306,74.257818" id="Fill-141" fill="#316CBC"></path>
                    <path d="M134.793012,102.17398 C134.828918,102.164936 134.860037,102.137328 134.869612,102.098772 C137.021609,93.9453684 134.412881,87.1495164 131.845326,82.8845564 C129.065204,78.2654524 125.730686,75.5365444 125.697652,75.5089364 C125.652649,75.4722844 125.586581,75.4794244 125.549238,75.5246444 C125.512853,75.5689124 125.519556,75.6350764 125.565037,75.6712524 C125.597592,75.6983844 128.907694,78.4087284 131.668666,82.9978444 C134.213241,87.2275804 136.79851,93.9653604 134.666142,102.04546 C134.651301,102.101628 134.684813,102.158748 134.741306,102.173504 C134.75902,102.177788 134.776255,102.177788 134.793012,102.17398" id="Fill-142" fill="#164A87"></path>
                    <path d="M146.736141,69.8906132 C146.736141,69.8906132 137.158676,86.2416892 136.662688,94.3617732 C136.662688,94.3617732 129.891198,77.2000692 146.736141,69.8906132" id="Fill-143" fill="#4292FF"></path>
                    <path d="M138.256027,101.18014 C138.216291,101.174904 138.179906,101.148724 138.165064,101.10874 C134.90571,92.578344 136.928923,84.966152 139.199172,80.08144 C141.657093,74.79308 144.930809,71.474408 144.963843,71.441088 C145.007889,71.39682 145.079702,71.39682 145.125183,71.440136 C145.169229,71.484404 145.169707,71.55628 145.125662,71.600548 C145.092628,71.633392 141.843807,74.929216 139.402642,80.18378 C137.152022,85.026604 135.148438,92.574536 138.377631,101.02782 C138.400132,101.086368 138.369971,101.15158 138.311563,101.173952 C138.292892,101.180616 138.27422,101.182996 138.256027,101.18014" id="Fill-144" fill="#226FCA"></path>
                    <path d="M122.602079,86.5320016 C122.602079,86.5320016 132.609943,93.3111936 135.133932,97.8398576 C135.133932,97.8398576 134.290847,86.1388256 122.602079,86.5320016" id="Fill-145" fill="#377AD5"></path>
                    <path d="M136.099291,102.189355 C136.120356,102.175551 136.133761,102.150323 136.131367,102.123191 C135.651177,96.3364592 132.390866,92.5165592 129.740486,90.3302912 C126.870359,87.9631432 124.075395,86.9492632 124.047628,86.9397432 C124.009806,86.9259392 123.968633,86.9454552 123.95475,86.9830592 C123.941344,87.0206632 123.960973,87.0615992 123.998795,87.0749272 C124.026084,87.0853992 126.800939,88.0921392 129.651438,90.4440552 C132.279316,92.6122352 135.510903,96.4002432 135.987262,102.135091 C135.990135,102.175075 136.025563,102.204111 136.065299,102.200779 C136.077747,102.199827 136.089237,102.196019 136.099291,102.189355" id="Fill-146" fill="#1B58A0"></path>
                    <path d="M150.815792,88.4922648 C150.815792,88.4922648 139.878188,93.6616248 136.684902,97.7504648 C136.684902,97.7504648 139.326664,86.3178968 150.815792,88.4922648" id="Fill-147" fill="#2D64AE"></path>
                    <path d="M135.059007,101.901613 C135.039857,101.884477 135.030282,101.857345 135.036984,101.831165 C136.405741,96.1862812 140.218055,92.9094972 143.175316,91.1544852 C146.37722,89.2542932 149.295222,88.6797612 149.324426,88.6740492 C149.363684,88.6664332 149.401506,88.6921372 149.409644,88.7311692 C149.416826,88.7702012 149.391452,88.8078052 149.351715,88.8158972 C149.32299,88.8216092 146.425574,89.3923332 143.245214,91.2811012 C140.313806,93.0218332 136.534525,96.2710092 135.177738,101.864961 C135.168642,101.903517 135.128905,101.927317 135.090126,101.917797 C135.078157,101.914941 135.067625,101.909705 135.059007,101.901613" id="Fill-148" fill="#144279"></path>
                    <path d="M118.617318,81.6688048 C118.617318,81.6688048 130.744145,84.8365848 135.200862,97.2682768 C135.200862,97.2682768 138.845612,78.7685368 118.617318,81.6688048" id="Fill-149" fill="#3E88EE"></path>
                    <path d="M134.963161,100.693954 C134.953586,100.694906 134.943532,100.694906 134.933478,100.693002 C134.871719,100.683482 134.82911,100.62541 134.838685,100.564006 C136.094455,92.5900536 132.395127,87.9699976 129.070662,85.4976536 C125.461818,82.8144416 121.508271,82.0095256 121.468535,82.0014336 C121.406775,81.9895336 121.367039,81.9300336 121.379008,81.8686296 C121.390976,81.8072256 121.451778,81.7672416 121.51258,81.7796176 C121.552795,81.7872336 125.557569,82.6026216 129.207107,85.3162976 C132.581362,87.8257696 136.336705,92.5134176 135.063699,100.598754 C135.05556,100.650638 135.01343,100.688242 134.963161,100.693954" id="Fill-150" fill="#2370CC"></path>
                    <path d="M152.400753,84.9557276 C152.400753,84.9557276 141.419104,86.4199036 136.148507,96.8385916 C136.148507,96.8385916 134.97939,80.2204796 152.400753,84.9557276" id="Fill-151" fill="#387BD8"></path>
                    <path d="M135.980991,99.8679032 C135.989129,99.8702832 135.997747,99.8712352 136.007322,99.8708782 C136.062379,99.8688552 136.106424,99.8226832 136.104509,99.7674672 C135.877101,92.6388912 139.627656,88.9884472 142.813761,87.1810752 C146.272756,85.2190032 149.828458,84.9414952 149.863886,84.9391152 C149.919421,84.9348312 149.961073,84.8867552 149.956764,84.8315392 C149.953413,84.7767992 149.904101,84.7349112 149.849523,84.7391952 C149.813617,84.7420512 146.211954,85.0228912 142.71418,87.0068592 C139.4802,88.8413632 135.672673,92.5455952 135.902954,99.7741312 C135.904869,99.8198272 135.937424,99.8579072 135.980991,99.8679032" id="Fill-152" fill="#1F64B6"></path>
                    <polygon id="Fill-153" fill="#FFBF31" points="130.69062 98.9953 141.320864 98.9953 141.320864 97.49828 130.69062 97.49828"></polygon>
                    <polygon id="Fill-154" fill="#FFBF31" points="140.609101 98.4552304 140.518138 98.9954904 140.423345 99.5528864 139.149382 107.07797 133.085968 107.07797 131.420384 99.5528864 131.296387 98.9954904 131.177178 98.4552304"></polygon>
                    <polygon id="Fill-155" fill="#F4AD21" points="140.517946 98.9953952 140.423632 99.5527912 131.420193 99.5527912 131.296196 98.9953952"></polygon>
                    <path d="M55.8328125,18.6083248 C55.8328125,27.7013528 48.4150051,35.0769728 39.2693762,35.0769728 C37.1867983,35.0769728 35.1937473,34.6918888 33.3534187,33.9940728 L33.3534187,18.0052328 L55.8218011,18.0052328 C55.8299399,18.2061048 55.8328125,18.4074528 55.8328125,18.6083248" id="Fill-156" fill="#D8D8D8"></path>
                    <path d="M55.1848195,17.0313368 C55.1848195,26.1243648 47.7665334,33.4995088 38.6209045,33.4995088 C33.5978224,33.4995088 29.0941878,31.2737328 26.0584116,27.7613288 C25.807066,27.4714448 25.564338,27.1725168 25.3359725,26.8654968 C23.2768535,24.1194528 22.0574683,20.7189088 22.0574683,17.0313368 C22.0574683,7.9354528 29.4728819,0.5626888 38.6209045,0.5626888 C47.7665334,0.5626888 55.1848195,7.9354528 55.1848195,17.0313368" id="Fill-157" fill="#EF5E43"></path>
                    <path d="M52.1079663,17.0301944 C52.1079663,24.4367544 46.0694479,30.4405424 38.6200428,30.4405424 C31.1711164,30.4405424 25.1321193,24.4367544 25.1321193,17.0301944 C25.1321193,9.6236344 31.1711164,3.6198464 38.6200428,3.6198464 C46.0694479,3.6198464 52.1079663,9.6236344 52.1079663,17.0301944" id="Fill-158" fill="#FFFFFF"></path>
                    <path d="M48.5710788,17.0301944 C48.5710788,22.4941984 44.1157983,26.9238544 38.6201864,26.9238544 C33.1245745,26.9238544 28.6692941,22.4941984 28.6692941,17.0301944 C28.6692941,11.5661904 33.1245745,7.1365344 38.6201864,7.1365344 C44.1157983,7.1365344 48.5710788,11.5661904 48.5710788,17.0301944" id="Fill-159" fill="#0280DA"></path>
                    <path d="M42.8970833,17.0301944 C42.8970833,19.3787784 40.9820691,21.2827784 38.6198992,21.2827784 C36.2582079,21.2827784 34.3436725,19.3787784 34.3436725,17.0301944 C34.3436725,14.6816104 36.2582079,12.7780864 38.6198992,12.7780864 C40.9820691,12.7780864 42.8970833,14.6816104 42.8970833,17.0301944" id="Fill-160" fill="#FFFFFF"></path>
                    <path d="M40.7319683,17.0634192 C40.7319683,18.2377112 39.7744612,19.1897112 38.5933762,19.1897112 C37.4122912,19.1897112 36.4547841,18.2377112 36.4547841,17.0634192 C36.4547841,15.8891272 37.4122912,14.9371272 38.5933762,14.9371272 C39.7744612,14.9371272 40.7319683,15.8891272 40.7319683,17.0634192" id="Fill-161" fill="#EF5E43"></path>
                    <path d="M38.9964867,16.5602396 L36.0272572,22.7468116 L34.481362,21.0232156 L26.0581722,27.7614716 C25.8068266,27.4711116 25.5640986,27.1726596 25.3362119,26.8651636 L33.7134414,20.1645116 L32.1622799,18.4356796 L38.9964867,16.5602396 Z" id="Fill-162" fill="#000000"></path>
                    <polygon id="Fill-163" fill="#E0E0E0" points="31.9063382 16.5595256 38.9961994 16.5595256 34.478681 21.7369776"></polygon>
                    <polygon id="Fill-164" fill="#E0E0E0" points="12.1844212 28.8141932 11.7257754 27.7593772 35.2215629 17.6538972 35.6802088 18.7087132"></polygon>
                    <polygon id="Fill-165" fill="#221ABA" points="8.31604476 26.509068 11.9550504 28.286928 17.9150533 25.604668 14.9036935 24.045292"></polygon>
                    <polygon id="Fill-166" fill="#12129B" points="11.9548589 28.2868328 11.0768249 31.5464808 18.417553 28.8142408 17.9153405 25.6045728"></polygon>
                    <g id="Group-169" transform="translate(79.473088, 17.992000)" fill="#D8D8D8">
                        <polygon id="Fill-167" points="12.2199448 0.0131852 15.1374688 0.0131852 1.13009773 10.2952612 0.0993413598 8.9081972"></polygon>
                        <polygon id="Fill-168" points="32.7179691 0.0131852 23.4684507 7.4259332 17.0292156 0.0131852 19.32053 0.0131852 23.6848473 5.0392692 29.9560399 0.0131852"></polygon>
                    </g>
                </g>
                <g id="Group-173" transform="translate(80.000000, 0.000000)">
                    <mask id="mask-27" fill="white">
                        <use xlink:href="#path-26"></use>
                    </mask>
                    <g id="Clip-172"></g>
                    <path d="M42.5915217,3.79504435 C42.5915217,3.79504435 44.451,4.358375 46.0861739,5.964875 L46.0861739,5.964875 L23.6614783,24.0979798 L16.5392174,15.8236411 L0.100434783,27.997629 L1.12821739,29.3953992 L16.2771304,18.1767702 L23.4453043,26.5038911 L47.19,7.30314516 C47.9595217,8.46675403 48.5143043,9.97392742 48.5143043,11.9067177 L48.5143043,11.9067177 L54.9067391,0.399225806 L42.5915217,3.79504435 Z" id="Fill-171" fill="url(#linearGradient-28)" mask="url(#mask-27)"></path>
                </g>
                <g id="Group-176" transform="translate(52.000000, 84.291667)">
                    <mask id="mask-30" fill="white">
                        <use xlink:href="#path-29"></use>
                    </mask>
                    <g id="Clip-175"></g>
                    <path d="M0.442472727,12.8293179 C0.442472727,19.8278521 6.16341818,25.5015918 13.2212364,25.5015918 L13.2212364,25.5015918 C20.2785818,25.5015918 25.9995273,19.8278521 25.9995273,12.8293179 L25.9995273,12.8293179 C25.9995273,5.83078364 20.2785818,0.157512727 13.2212364,0.157512727 L13.2212364,0.157512727 C6.16341818,0.157512727 0.442472727,5.83078364 0.442472727,12.8293179" id="Fill-174" fill="url(#linearGradient-31)" mask="url(#mask-30)"></path>
                </g>
                <g id="Group-179" transform="translate(50.000000, 82.308333)">
                    <mask id="mask-33" fill="white">
                        <use xlink:href="#path-32"></use>
                    </mask>
                    <g id="Clip-178"></g>
                    <path d="M0.465953846,15.3079312 C0.465953846,23.6507465 7.3098,30.4380336 15.7232,30.4380336 L15.7232,30.4380336 C24.1356462,30.4380336 30.9799692,23.6507465 30.9799692,15.3079312 L30.9799692,15.3079312 C30.9799692,6.96511577 24.1356462,0.178301667 15.7232,0.178301667 L15.7232,0.178301667 C7.3098,0.178301667 0.465953846,6.96511577 0.465953846,15.3079312 M1.65969231,15.3079312 C1.65969231,7.61825795 7.96843077,1.36209231 15.7232,1.36209231 L15.7232,1.36209231 C23.4779692,1.36209231 29.7862308,7.61825795 29.7862308,15.3079312 L29.7862308,15.3079312 C29.7862308,22.9985503 23.4779692,29.2542429 15.7232,29.2542429 L15.7232,29.2542429 C7.96843077,29.2542429 1.65969231,22.9985503 1.65969231,15.3079312" id="Fill-177" fill="url(#linearGradient-34)" mask="url(#mask-33)"></path>
                </g>
                <path d="M64.172337,88.2583333 L68.728803,88.2583333 L68.2367296,100.53749 L64.6648557,100.53749 L64.172337,88.2583333 Z M66.5124688,107.1 C65.0099751,107.1 64,106.049275 64,104.741316 C64,103.383299 65.0099751,102.331647 66.5124688,102.331647 C67.9900249,102.331647 69,103.383299 69,104.741316 C69,106.049275 67.9900249,107.1 66.5124688,107.1 L66.5124688,107.1 Z" id="Fill-180" fill="#FFFFFF"></path>
            </g>
        </g>
    </g>
</svg>