<?xml version="1.0" encoding="UTF-8"?>
<svg width="231px" height="119px" viewBox="0 0 231 119" version="1.1" xmlns="http://www.w3.org/2000/svg" xmlns:xlink="http://www.w3.org/1999/xlink">
    <!-- Generator: Sketch 59.1 (86144) - https://sketch.com -->
    <title>Business Design &amp; Strategy</title>
    <desc>Created with Sketch.</desc>
    <defs>
        <polygon id="path-1" points="0.0816748485 0.0617570262 5.41858504 0.0617570262 5.41858504 6.84859132 0.0816748485 6.84859132"></polygon>
    </defs>
    <g id="Services-Page" stroke="none" stroke-width="1" fill="none" fill-rule="evenodd">
        <g id="Services-Page-Consulting" transform="translate(-178.000000, -935.000000)">
            <g id="Business-Design-&amp;-Strategy" transform="translate(178.000000, 935.000000)">
                <path d="M22.0544364,105.082609 L186.971651,105.082609 C190.323481,105.082609 193.03913,102.374148 193.03913,99.0351605 L193.03913,7.54744824 C193.03913,4.20840479 190.323515,1.5 186.971651,1.5 L22.0544364,1.5 C18.702572,1.5 15.9869565,4.20840479 15.9869565,7.54744824 L15.9869565,99.0351605 C15.9869565,102.374148 18.702606,105.082609 22.0544364,105.082609 Z" id="Fill-1" stroke="#1C75BB" stroke-width="3"></path>
                <g id="Group-37" transform="translate(19.730435, 7.243478)">
                    <polygon id="Fill-9" fill="#4BA2F4" points="33.0434783 38.2869565 49.6 38.2869565 49.6 21.7304348 33.0434783 21.7304348"></polygon>
                    <polygon id="Fill-11" fill="#1C75BB" points="2.35537087 17.5913043 18.9118926 17.5913043 18.9118926 1.03478261 2.35537087 1.03478261"></polygon>
                    <polygon id="Fill-12" fill="#96C4EA" points="73.2695652 41.3130435 89.826087 41.3130435 89.826087 24.7565217 73.2695652 24.7565217"></polygon>
                    <polygon id="Fill-14" fill="#50E3C2" points="32.8190107 69.0439194 48.3407498 69.0439194 48.3407498 53.5221803 32.8190107 53.5221803"></polygon>
                    <polygon id="Fill-15" fill="#FFDF69" points="26.189779 94.0774599 48.3407498 94.0774599 48.3407498 72.0504106 26.189779 72.0504106"></polygon>
                    <polygon id="Fill-16" fill="#F8E71C" points="71.3304348 88.6069324 87.8869565 88.6069324 87.8869565 72.0504106 71.3304348 72.0504106"></polygon>
                    <polygon id="Fill-17" fill="#50E3C2" points="2.35537087 64.9576226 18.9118926 64.9576226 18.9118926 48.4011008 2.35537087 48.4011008"></polygon>
                    <g id="Group-23" transform="translate(88.173364, 72.050411)">
                        <path d="M19.3744624,0.38437199 C19.3744624,0.38437199 19.3631287,7.56902667 17.6147343,13.6594315 L13.887997,15.9061111 L0.748375413,15.9061111 C3.24472467,9.50720114 3.25979252,0.38437199 3.25979252,0.38437199 L19.3744624,0.38437199 Z" id="Fill-18" fill="#FFDF69"></path>
                        <polygon id="Fill-19" fill="#DEBA35" points="14.0962015 15.7061111 14.0962015 12.7061111 18.0962015 12.7061111"></polygon>
                    </g>
                    <polygon id="Fill-22" fill="#308DFC" points="90.9913043 17.607244 107.547826 17.607244 107.547826 1.05072224 90.9913043 1.05072224"></polygon>
                    <g id="Group-8" transform="translate(70.295652, 0.015958)">
                        <path d="M19.4089426,1.01882507 C19.4089426,1.01882507 19.3976744,8.20347975 17.64928,14.2938846 L13.9225428,16.5405642 L0.782855614,16.5405642 C3.27927039,10.1416542 3.29433823,1.01882507 3.29433823,1.01882507 L19.4089426,1.01882507 Z" id="Fill-23" fill="#FFDF69"></path>
                        <polygon id="Fill-24" fill="#DEBA35" points="14.2350295 16.5405642 14.2350295 13.4362164 18.37416 13.4362164"></polygon>
                    </g>
                    <g id="Group-8-Copy" transform="translate(0.269565, 21.756522)">
                        <path d="M19.4089426,1.01882507 C19.4089426,1.01882507 19.3976744,8.20347975 17.64928,14.2938846 L13.9225428,16.5405642 L0.782855614,16.5405642 C3.27927039,10.1416542 3.29433823,1.01882507 3.29433823,1.01882507 L19.4089426,1.01882507 Z" id="Fill-23" fill="#FFDF69"></path>
                        <polygon id="Fill-24" fill="#DEBA35" points="14.2350295 16.5405642 14.2350295 13.4362164 18.37416 13.4362164"></polygon>
                    </g>
                    <path d="M24.5054141,72.0504106 C24.5054141,72.0504106 24.4953397,78.7560883 22.9412114,84.4404662 L19.628556,86.5373671 L7.94889236,86.5373671 C10.1678695,80.5650512 10.1812631,72.0504106 10.1812631,72.0504106 L24.5054141,72.0504106 Z" id="Fill-25" fill="#F0F0F0"></path>
                    <path d="M48.5652174,2.06956522 C48.5652174,2.06956522 48.555143,8.77524292 47.0010147,14.4596208 L43.6883593,16.5565217 L32.0086957,16.5565217 C34.2276728,10.5842058 34.2410664,2.06956522 34.2410664,2.06956522 L48.5652174,2.06956522 Z" id="Fill-25-Copy" fill="#F6931D"></path>
                    <polygon id="Fill-26" fill="#C9C9C9" points="16.9638055 94.0774151 16.9638055 90.8153425 22.0865197 90.8153425"></polygon>
                    <polygon id="Fill-27" fill="#FFDF69" points="123.563404 41.3083128 140.119925 41.3083128 140.119925 24.7517911 123.563404 24.7517911"></polygon>
                    <polygon id="Fill-28" fill="#B8E986" points="119.965217 19.6608696 136.521739 19.6608696 136.521739 3.10434783 119.965217 3.10434783"></polygon>
                    <polygon id="Fill-29" fill="#27A9E0" points="150.922696 21.7304348 169.548783 21.7304348 169.548783 3.10434783 150.922696 3.10434783"></polygon>
                    <polygon id="Fill-30" fill="#F8E71C" points="147.397812 64.904789 163.954334 64.904789 163.954334 48.3482672 147.397812 48.3482672"></polygon>
                    <polygon id="Fill-31" fill="#FFDF69" points="147.397812 88.6069324 163.954334 88.6069324 163.954334 72.0504106 147.397812 72.0504106"></polygon>
                    <polygon id="Fill-32" fill="#F0F0F0" points="123.563404 75.3054487 140.119925 75.3054487 140.119925 58.7489269 123.563404 58.7489269"></polygon>
                    <g id="Group-24" transform="translate(119.075422, 79.293889)">
                        <path d="M19.5158821,0.38437199 C19.5158821,0.38437199 19.504614,7.56902667 17.7562196,13.6594315 L14.0294823,15.9061111 L0.889795157,15.9061111 C3.38620993,9.50720114 3.40121226,0.38437199 3.40121226,0.38437199 L19.5158821,0.38437199 Z" id="Fill-33" fill="#96C4EA"></path>
                        <polygon id="Fill-34" fill="#0280DA" points="13.3071865 15.9061111 13.3071865 13.8365459 17.4463169 13.8365459"></polygon>
                    </g>
                    <g id="Group-14" transform="translate(85.817391, 52.348303)">
                        <path d="M21.4440276,0.286479565 C21.4440276,0.286479565 21.4314347,8.4290882 19.4887742,15.331547 L15.347955,17.8777839 L0.748375413,17.8777839 C3.52209681,10.6256859 3.53883887,0.286479565 3.53883887,0.286479565 L21.4440276,0.286479565 Z" id="Fill-35" fill="#FEBA40"></path>
                        <polygon id="Fill-36" fill="#F6931D" points="15.2353319 17.8777839 15.2353319 14.7734361 19.3744624 14.7734361"></polygon>
                    </g>
                </g>
                <polygon id="Fill-38" fill="#1C75BB" points="86.9217391 107 88.9913043 107 88.9913043 0 86.9217391 0"></polygon>
                <polygon id="Fill-38-Copy" fill="#1C75BB" points="48.6347826 109.686957 50.7043478 109.686957 50.7043478 0 48.6347826 0"></polygon>
                <polygon id="Fill-38-Copy-2" fill="#084E75" transform="translate(68.813043, 52.773913) rotate(90.000000) translate(-68.813043, -52.773913) " points="67.7782609 70.8826087 69.8478261 70.8826087 69.8478261 34.6652174 67.7782609 34.6652174"></polygon>
                <polygon id="Fill-38-Copy-3" fill="#084E75" transform="translate(147.973913, 52.773913) rotate(90.000000) translate(-147.973913, -52.773913) " points="146.93913 70.8826087 149.008696 70.8826087 149.008696 34.6652174 146.93913 34.6652174"></polygon>
                <polygon id="Fill-40" fill="#1C75BB" points="129.347826 107 131.417391 107 131.417391 0 129.347826 0"></polygon>
                <polygon id="Fill-40-Copy" fill="#1C75BB" points="163.495652 107 165.565217 107 165.565217 0 163.495652 0"></polygon>
                <polygon id="Fill-42" fill="#1C75BB" points="91.0608696 6.13913043 127.278261 6.13913043 127.278261 4.06956522 91.0608696 4.06956522"></polygon>
                <polygon id="Fill-42-Copy" fill="#1C75BB" points="52.773913 6.13913043 84.8521739 6.13913043 84.8521739 4.06956522 52.773913 4.06956522"></polygon>
                <polygon id="Fill-42-Copy-5" fill="#0280DA" points="52.773913 56.9130435 84.8521739 56.9130435 84.8521739 54.8434783 52.773913 54.8434783"></polygon>
                <polygon id="Fill-42-Copy-6" fill="#0280DA" points="132.452174 56.9482609 162.46087 56.9482609 162.46087 54.8782609 132.452174 54.8782609"></polygon>
                <polygon id="Fill-42-Copy-2" fill="#1C75BB" points="20.6956522 6.13913043 48.5159682 6.13913043 46.5652174 6.13913043 46.5652174 4.06956522 20.6956522 4.06956522"></polygon>
                <polygon id="Fill-42-Copy-4" fill="#1C75BB" points="167.634783 6.13913043 189.365217 6.13913043 189.365217 4.06956522 167.634783 4.06956522"></polygon>
                <polygon id="Fill-42-Copy-3" fill="#1C75BB" points="133.486957 6.13913043 161.426087 6.13913043 161.426087 4.06956522 133.486957 4.06956522"></polygon>
                <g id="Group-213" transform="translate(0.000000, 23.800000)">
                    <path d="M221.608512,83.3296152 C221.608512,83.3296152 222.086953,82.6063829 222.165087,82.1818086 C222.24313,81.7569647 222.483117,81.5150185 222.483117,81.5150185 C222.483117,81.5150185 224.296221,81.2519514 224.993111,80.6068214 C225.689821,79.9617812 227.16588,78.2047951 227.86286,78.7311989 C228.559841,79.2576926 227.357833,81.4734958 226.646524,82.1429822 C225.935305,82.8123787 224.972384,83.9857101 224.097508,83.8987101 C223.222633,83.8118 222.03144,83.3975614 221.608512,83.3296152" id="Fill-44" fill="#CFBFB8"></path>
                    <path d="M221.608512,83.2186722 L222.483117,81.5149825 C222.483117,81.5149825 218.296638,80.749868 217.072011,80.0145025 C216.765066,79.8299871 216.459743,79.645202 216.175508,79.4702134 C215.528814,79.0720626 214.992696,78.7276578 214.803446,78.5674088 C214.199018,78.0547561 211.775718,76.3425281 211.120823,75.7136657 C210.466649,75.0850728 209.693518,75.4683042 208.673101,75.4784602 C207.652413,75.4895149 203.955912,76.5104165 202.850332,76.6568246 C201.744121,76.8022439 197.750949,77.5429122 197.750949,77.5429122 C198.453877,79.4587991 221.608512,83.2186722 221.608512,83.2186722" id="Fill-46" fill="#25354D"></path>
                    <path d="M197.517703,77.4807359 C197.517703,77.4807359 199.770678,77.8045592 200.349963,77.8485985 C200.942946,77.8936263 204.297806,78.1627151 205.915802,78.3177512 C207.533799,78.4726975 210.711665,78.3801252 211.342227,78.6565838 C211.97288,78.9329525 215.616842,80.1644337 216.809657,80.5487435 C218.002472,80.9329635 225.752255,82.3477916 225.752255,82.3477916 C225.752255,82.3477916 225.88491,83.3951168 225.198925,84.198878 C225.198925,84.198878 221.783054,83.8946477 219.980404,84.1588832 C218.177663,84.4232085 215.028906,84.0206539 213.117752,83.1560466 C211.206688,82.2914394 208.177338,83.0802811 206.484363,83.6735527 C204.791387,84.2668243 198.318861,84.7433469 197.511034,84.5624265 C196.703207,84.3815061 195.09242,83.6062356 193.925379,82.3404218 C192.758248,81.0746979 197.517703,77.4807359 197.517703,77.4807359" id="Fill-48" fill="#2F4563"></path>
                    <g id="Group-52" transform="translate(225.117259, 78.128391)">
                        <mask id="mask-2" fill="white">
                            <use xlink:href="#path-1"></use>
                        </mask>
                        <g id="Clip-51"></g>
                        <path d="M0.0816748485,6.07049552 C0.0816748485,6.07049552 0.370506239,5.25325293 0.343290302,4.82238733 C0.316164483,4.39143185 0.448369054,4.18525628 0.448369054,4.18525628 C0.448369054,4.18525628 2.18577323,3.40603125 2.70539938,2.61215643 C3.22502552,1.81819173 4.23120414,-0.242844986 5.03515573,0.09985225 C5.83919744,0.442729238 5.21007671,2.88250347 4.68233985,3.7037006 C4.15451288,4.52489773 3.82819198,6.71005322 2.95827329,6.83668852 C2.08835459,6.96350358 0.508568545,6.03436536 0.0816748485,6.07049552" id="Fill-50" fill="#EDDAD3" mask="url(#mask-2)"></path>
                    </g>
                    <path d="M192.452727,76.0423692 C192.452727,76.0423692 189.605146,82.4868388 194.025393,84.0493333 C197.550848,85.295644 204.050231,84.1482868 204.050231,84.1482868 L200.05156,77.8645155 L192.452727,76.0423692 Z" id="Fill-53" fill="#2F4563"></path>
                    <path d="M199.782114,51.7234481 C198.697892,51.9640462 199.344225,54.6789309 198.617596,58.4746645 C197.890876,62.2705779 195.597078,62.8638495 195.597078,62.8638495 C195.597078,62.8638495 196.615693,61.1806515 196.504215,59.4208792 C196.41707,58.0457762 194.746895,54.2942616 196.397875,51.8419946 C197.673509,49.9474082 199.921167,51.6674554 199.921167,51.6674554 L199.782114,51.7234481 Z" id="Fill-55" fill="#323657"></path>
                    <path d="M198.150735,59.6262189 L200.258978,61.7900738 C200.278354,61.3928218 200.424707,60.9095585 200.574845,60.5064646 C200.648563,60.3092766 200.723632,60.130693 200.784012,59.9927333 C200.863947,59.8112736 200.920272,59.6983894 200.920272,59.6983894 L199.039668,57.7149156 L198.150735,59.6262189 Z" id="Fill-57" fill="#EEA886"></path>
                    <path d="M200.660513,61.5775979 C200.660513,61.5775979 200.74207,62.6182723 201.31009,63.578238 C201.87811,64.5382037 202.81724,66.1317054 202.684135,67.1677062 C202.551119,68.2037968 202.109176,68.5801077 201.710038,68.9530931 C201.310721,69.3261685 200.214784,72.0184044 200.081678,73.0544052 C199.948663,74.0904959 199.864672,76.243296 200.117365,77.8261924 C200.117365,77.8261924 192.724363,78.6817221 191.980701,77.3936191 C191.980701,77.3936191 192.898113,73.2512337 193.331044,72.2131658 C193.763886,71.1750978 194.669762,64.9648451 195.058355,63.9088918 C195.446948,62.8529385 196.363188,61.8320369 196.923548,61.0997272 C197.424069,60.4454298 198.335803,59.228239 198.335803,59.228239 L200.660513,61.5775979 Z" id="Fill-59" fill="#308DFC"></path>
                    <path d="M201.584494,51.9441027 C202.560122,52.0089932 204.655839,52.7436397 204.690445,55.3463592 C204.690445,55.3463592 204.532737,56.0288776 204.301491,56.552675 C204.070426,57.0763825 204.372866,58.7343253 204.236425,58.7986766 C204.099895,58.8629379 203.561975,58.9032922 203.561975,58.9032922 C203.561975,58.9032922 202.79326,60.5878383 202.179099,60.501827 C201.564848,60.4159055 199.288892,59.6672383 198.442855,57.3638959 C197.596908,55.0605534 197.644491,51.6817546 201.584494,51.9441027" id="Fill-61" fill="#EEA886"></path>
                    <path d="M204.690436,55.3464041 C204.690436,55.3464041 202.991332,56.2358171 201.402985,56.2720372 C199.814728,56.3081673 198.512959,58.8475242 198.512959,58.8475242 C198.512959,58.8475242 196.589819,54.5447101 198.792238,52.3615318 C200.987897,50.1850045 205.376512,52.3985608 204.690436,55.3464041" id="Fill-63" fill="#323657"></path>
                    <path d="M201.031641,56.2566594 C201.058046,55.9537772 200.77381,55.4620655 200.230122,55.8173454 C199.686524,56.1726253 200.187226,57.6846095 200.609794,57.5907789 C201.032542,57.4969483 201.004335,56.5695178 201.031641,56.2566594" id="Fill-65" fill="#EEA886"></path>
                    <path d="M199.276429,58.789689 C199.305988,58.8386714 200.079479,60.1022382 200.574864,60.5065005 C200.648581,60.3092227 200.72365,60.1307289 200.78403,59.9927693 C200.78403,59.9927693 199.679261,59.3360452 199.276429,58.789689" id="Fill-67" fill="#A77860"></path>
                    <polygon id="Fill-69" fill="#C4C4C4" points="215.021732 79.9346926 204.6904 77.9895061 204.860184 77.0928131 215.191516 79.0379996"></polygon>
                    <polygon id="Fill-71" fill="#C4C4C4" points="220.971343 71.2877214 215.025562 79.9354116 214.270815 79.4194334 220.216597 70.7716534"></polygon>
                    <path d="M213.046855,78.6342047 C213.098043,78.4052006 213.046855,78.0230478 212.323831,77.6367607 C211.600806,77.2504736 210.039044,76.3717558 209.489949,76.3509046 C208.940853,76.3300533 207.859245,76.4163343 207.637282,76.4152558 C207.415319,76.4141773 207.985232,77.7183681 207.985232,77.7183681 L213.046855,78.6342047 Z" id="Fill-73" fill="#EEA886"></path>
                    <path d="M207.891066,76.5150991 C207.891066,76.5150991 204.877036,75.3320611 204.38751,75.0963163 C203.898074,74.8607513 201.61563,74.0951874 201.413042,73.9941668 C201.210545,73.893236 200.256545,68.2101061 200.172194,66.7794598 C200.087752,65.3488134 200.003401,62.3191829 198.383151,62.4538172 C196.763082,62.5884514 196.37485,63.6488985 196.577437,65.7359094 C196.779934,67.8230101 197.978157,75.2961107 198.484445,75.5484826 C198.990734,75.8009443 204.802868,77.0974058 207.867545,77.7071246 C210.800288,78.2905997 207.891066,76.5150991 207.891066,76.5150991" id="Fill-75" fill="#EEA886"></path>
                    <path d="M200.337787,67.2244269 C200.337787,67.2244269 198.003075,67.6588876 196.657057,67.7937915 C196.657057,67.7937915 194.982105,63.0352161 197.262116,62.2751347 C199.965145,61.373858 200.569033,65.0617404 200.337787,67.2244269" id="Fill-77" fill="#308DFC"></path>
                    <path d="M161.071777,46.3832042 C161.071777,46.3832042 160.381646,46.1096216 160.332171,45.6752508 C160.290085,45.3059503 159.982689,44.848032 159.888244,44.7068368 C159.762078,44.5180073 159.573639,43.7970219 159.352487,43.9507099 C159.131335,44.1043979 159.609236,45.1524421 159.668534,45.3911528 C159.727742,45.6298634 158.785729,45.1210753 158.550157,45.1670919 C158.314406,45.2130185 157.672669,46.8606256 158.354329,47.1331296 C159.035809,47.4056337 159.914199,47.2324426 160.026126,47.3049726 C160.138054,47.3774126 160.515473,47.5233713 160.515473,47.5233713 L161.071777,46.3832042 Z" id="Fill-79" fill="#EEA886"></path>
                    <path d="M178.995428,90.3797053 C178.995428,90.3797053 179.475131,91.264265 179.788565,91.6153207 C180.101909,91.9663764 181.302023,92.5939806 181.30853,93.6365424 C181.315541,94.7672725 179.285521,94.4535153 178.491572,94.4121724 C177.697624,94.3708294 177.637605,93.7668626 177.303263,93.1265859 C176.969012,92.486399 176.632057,92.5947895 176.569424,92.0785417 C176.506792,91.562204 176.893132,90.3797053 176.893132,90.3797053 L178.995428,90.3797053 Z" id="Fill-81" fill="#202338"></path>
                    <path d="M166.909803,90.2766625 C166.909803,90.2766625 165.931561,91.356343 164.93827,91.582471 C163.945158,91.808689 163.250431,92.0972808 163.242937,92.7167063 C163.235471,93.3363116 166.101165,93.7446183 167.237746,93.11998 C168.934056,92.1878759 169.106454,92.4689182 169.294622,92.002911 C169.4827,91.5369039 169.068604,90.2909527 169.08095,90.1428371 C169.09609,89.9597596 166.909803,90.2766625 166.909803,90.2766625" id="Fill-83" fill="#202338"></path>
                    <path d="M167.019811,89.760136 C167.019811,89.760136 166.890581,90.2660481 166.909776,90.2766535 C166.929061,90.2873487 169.147971,90.5486183 169.080923,90.1428281 C169.026491,89.8137021 168.948718,89.4559057 168.948718,89.4559057 L167.019811,89.760136 Z" id="Fill-85" fill="#81807E"></path>
                    <path d="M176.920582,90.0382753 C176.920582,90.0382753 176.827759,90.5208196 176.845693,90.5325035 C176.863717,90.5440975 179.095874,90.938114 179.083168,90.5374467 C179.073254,90.2191957 178.877336,89.8482774 178.877336,89.8482774 L176.920582,90.0382753 Z" id="Fill-87" fill="#81807E"></path>
                    <path d="M169.037459,59.4821027 C169.037459,59.4821027 168.230353,67.2284264 167.810669,69.8802181 C167.319971,72.9808507 167.153611,75.5426766 167.01672,77.1475026 C166.844683,79.166028 166.811429,89.0949906 166.69094,89.6852064 C166.570451,90.2754222 169.36396,89.8482415 169.36396,89.8482415 C169.36396,89.8482415 170.738184,76.8747289 171.250871,74.7250745 C171.728141,72.7234458 173.499881,64.1057742 173.935426,64.6524001 C174.371061,65.1989362 174.911054,74.7089867 175.23368,76.2876588 C175.556216,77.866331 176.537342,90.2252714 176.537342,90.2252714 C176.537342,90.2252714 178.760578,90.6629675 179.351938,90.1681102 C179.351938,90.1681102 179.621124,79.5171736 179.415562,76.5574666 C179.337249,75.4294328 180.752658,63.0332838 178.937752,58.0427384 C177.978615,55.4054167 169.037459,59.4821027 169.037459,59.4821027" id="Fill-89" fill="#292C47"></path>
                    <path d="M183.982253,50.9975106 C184.450691,52.2748285 180.149311,55.4761222 180.683987,55.5738174 C181.217942,55.6716025 181.195593,56.6836963 181.195593,56.6836963 C181.195593,56.6836963 185.247073,53.1650504 185.163623,52.1283306 C185.117482,51.5530342 181.945834,43.1851281 181.461264,42.8392852 C181.130707,42.6025517 179.056618,41.7734455 177.980598,41.3662173 C177.483141,41.1771182 177.10401,41.0454498 177.026147,41.0405965 C176.779852,41.0252277 173.745545,41.3152576 173.745545,41.3152576 C173.745545,41.3152576 173.310541,41.4640024 172.865714,41.6675716 C172.106551,42.0151221 170.923649,42.5580631 170.074548,42.9612469 C169.799775,43.0913874 169.457053,43.2675444 169.171916,43.417817 C169.206792,44.446448 169.267532,45.5485976 169.354948,46.7275911 C169.354948,46.7275911 169.513017,49.3028085 169.527526,51.9030114 C169.663695,52.4920588 169.640174,53.8601514 169.640174,53.8601514 C169.677484,55.1577813 169.532392,56.4901932 169.495173,57.2345463 C169.435244,58.4053612 169.274021,60.0720219 169.274021,60.0720219 L170.749449,60.6727532 L177.213685,60.6125363 L179.237577,60.0720219 C179.237577,60.0720219 179.117449,54.8878836 179.147368,53.3809325 C179.175666,51.9288058 179.48189,48.1579678 179.541909,47.9398387 C179.541909,47.9398387 181.709181,44.8004696 183.982253,50.9975106" id="Fill-91" fill="#DBD8E3"></path>
                    <path d="M169.468777,59.521774 C169.468777,59.521774 173.909211,59.8988039 177.798386,59.521774 L177.798386,60.7944184 C177.798386,60.7944184 172.006798,61.3459874 169.27403,60.5516632 L169.468777,59.521774 Z" id="Fill-93" fill="#1D2033"></path>
                    <path d="M169.100992,43.3987723 C169.135057,44.4443899 169.185885,45.5659526 169.275102,46.766786 C169.275102,46.766786 169.359093,49.6991707 169.528337,52.4807434 C169.585923,52.8790739 169.615121,53.286392 169.582769,53.7033268 C169.540503,54.2470767 169.481385,54.8410672 169.410101,55.4608522 C169.40929,55.4689411 169.408478,55.4770299 169.407577,55.48422 C169.390635,55.6312571 169.372881,55.7791931 169.354948,55.9286569 C169.354948,55.9310835 169.354227,55.9327013 169.354227,55.9351279 C168.976628,59.033963 168.337324,62.5892783 168.003523,63.6648245 C167.93305,63.8893348 168.176101,64.0971281 168.34949,64.2571074 L169.564114,65.020694 C169.564114,65.020694 170.064725,60.4238056 170.230814,58.8633783 C170.391226,57.3572361 170.896073,55.3379917 171.117225,53.370426 L171.117225,53.3696172 C171.397585,50.8735805 171.783565,48.4279644 171.99174,46.9751186 C172.533805,43.1926866 173.255929,41.5002314 173.255929,41.5002314 C172.910863,41.6029597 169.100992,43.3987723 169.100992,43.3987723" id="Fill-95" fill="#323657"></path>
                    <path d="M183.559288,50.6661826 C184.085944,51.8175842 180.221551,55.3355111 180.26679,55.4547766 C180.529758,56.1470915 181.535486,57.4141635 181.535486,57.4141635 C181.535486,57.4141635 187.519658,51.003757 187.440803,50.2142861 C187.383488,49.6396188 182.366563,43.2505129 181.882264,42.9044003 C181.602624,42.7041566 179.529978,41.9715772 178.513075,41.5718087 C178.327069,41.4984699 177.721379,41.2709937 177.554839,41.2080805 C177.339095,41.4474203 175.823293,43.073547 175.29826,49.256747 C175.209853,50.2987695 175.489222,52.505675 175.675858,54.3068802 C175.875021,56.2285192 176.095633,57.7282802 176.257216,59.3352633 C176.575697,62.5015054 176.798471,65.02073 176.798471,65.02073 L179.957953,63.6177654 C180.469198,63.3626973 181.353445,62.6968958 181.161312,62.1600664 C180.430807,60.119791 179.33478,56.2528756 179.333788,54.4625454 C179.333788,54.4625454 180.168741,48.4816563 180.44811,47.5180956 C180.44811,47.5180956 182.97027,49.3782594 183.559288,50.6661826" id="Fill-97" fill="#323657"></path>
                    <path d="M176.745976,41.3624335 C176.745976,41.3624335 176.766704,40.3234668 177.168274,38.221896 C177.275606,37.6592722 173.893259,39.702154 173.893259,39.702154 C173.893259,39.702154 173.903623,39.899252 173.910472,40.1654648 C173.914077,40.3058511 173.91642,40.4654709 173.915429,40.6254502 C173.914978,40.6818924 173.914528,40.737975 173.913176,40.7935184 C173.910022,40.9421733 173.903173,41.0845369 173.890466,41.2055999 C173.877849,41.3303478 173.803952,41.5504541 173.777637,41.6110306 C173.638133,41.9317981 175.606782,42.1753621 176.745976,41.3624335" id="Fill-99" fill="#EEA987"></path>
                    <path d="M174.634777,42.450859 L174.074056,43.2020427 C174.074056,43.2020427 174.40254,43.6408174 174.98588,43.3169941 L174.634777,42.450859 Z" id="Fill-101" fill="#D44040"></path>
                    <path d="M174.22405,43.2326275 C174.22405,43.2326275 172.097602,51.3976835 172.535941,57.7531759 L173.251396,59.010721 L173.92107,57.6934083 C173.92107,57.6934083 174.104552,46.3249016 174.687532,43.2125852 L174.22405,43.2326275 Z" id="Fill-103" fill="#D44040"></path>
                    <path d="M174.034485,41.7504642 L174.634768,42.450868 C174.634768,42.450868 175.59823,42.2647348 175.881113,41.7628671 C176.163997,41.2609995 174.034485,41.7504642 174.034485,41.7504642" id="Fill-105" fill="#EEA987"></path>
                    <path d="M173.896756,41.1374829 C173.896756,41.1374829 173.966418,41.6713464 174.634741,42.450841 L173.905317,43.4282427 L173.510506,41.4007297 L173.896756,41.1374829 Z" id="Fill-107" fill="#C4C1CC"></path>
                    <path d="M176.801418,40.6294677 C176.801418,40.6294677 175.608963,42.0667649 174.634777,42.450895 L175.087895,43.5684133 L177.355199,41.1374469 L176.801418,40.6294677 Z" id="Fill-109" fill="#C4C1CC"></path>
                    <path d="M159.279608,47.5493095 C159.279608,47.5493095 164.418914,53.1176677 165.631735,52.8200883 C166.192366,52.682578 167.041647,51.7173096 167.743314,50.8099214 C167.974649,50.5110836 168.201569,50.1975062 168.417314,49.8870745 C168.417945,49.8864453 168.417945,49.8857263 168.417945,49.8857263 C169.278941,48.6460665 169.953572,47.4577258 169.953572,47.4577258 C169.953572,47.4577258 172.498443,44.4835488 170.456256,43.1576979 C170.456256,43.1576979 169.59571,43.0711473 169.106093,43.4312805 C168.654146,43.7638217 167.554514,45.8575733 167.375989,46.2456579 C167.197553,46.6332932 165.808819,49.369838 165.679318,49.4508163 C165.549727,49.5318845 164.185866,48.7154508 163.456894,48.225986 C162.278768,47.435167 160.798654,46.0570082 160.798654,46.0570082 L159.279608,47.5493095 Z" id="Fill-111" fill="#323657"></path>
                    <polygon id="Fill-113" fill="#3A4066" points="172.743071 61.1606991 174.819863 61.1606991 174.819863 59.5895765 172.743071 59.5895765"></polygon>
                    <path d="M173.915411,40.6254323 C173.91496,40.6818744 173.91451,40.737957 173.913248,40.7935004 C175.847923,40.1459437 176.222637,39.1712384 176.222637,39.1712384 C175.61911,39.596981 173.910454,40.1654468 173.910454,40.1654468 C173.914059,40.3058332 173.916402,40.465453 173.915411,40.6254323" id="Fill-115" fill="#A77860"></path>
                    <path d="M180.965195,55.433467 C180.965195,55.433467 180.782073,55.5865258 180.588047,55.5849081 C180.253164,55.582032 179.871781,55.2188431 179.521669,55.548688 C179.171646,55.8784431 179.908549,57.2812279 180.17413,57.4456112 C180.439531,57.6099944 181.042877,57.3145719 181.68858,56.5363355 C182.334283,55.7579194 180.965195,55.433467 180.965195,55.433467" id="Fill-116" fill="#EEA886"></path>
                    <path d="M179.655657,55.4547946 C179.655657,55.4547946 178.978143,55.6869443 178.256109,56.0382696 C177.622483,56.3466342 176.879271,56.8173149 176.955061,56.9772942 C177.070234,57.2202291 177.63528,56.7646476 178.283956,56.5014906 C178.881175,56.2592748 178.804484,56.4080196 178.804484,56.4080196 C178.804484,56.4080196 178.823949,56.3644297 178.224838,56.7561094 C177.580848,57.1772684 176.906577,57.6564873 176.966146,57.7886949 C177.040134,57.9525388 177.063114,57.9667392 177.322026,57.8525068 C177.187478,57.9503818 177.195319,58.0015213 177.231096,58.0620977 C177.41602,58.3754954 178.459508,57.9056236 178.873785,57.7187713 C178.556476,57.8642806 178.339289,58.0052961 178.576663,58.1240223 C178.848281,58.2600047 180.293249,57.5283241 180.836216,57.3164863 C181.428388,57.0854151 179.655657,55.4547946 179.655657,55.4547946" id="Fill-117" fill="#EEA886"></path>
                    <path d="M180.266772,55.4547946 C180.266772,55.4547946 180.414117,56.3145485 181.535468,57.4141815 C181.535468,57.4141815 184.105842,54.5862328 184.564367,54.0567732 L182.553182,52.8930586 L180.266772,55.4547946 Z" id="Fill-118" fill="#323657"></path>
                    <path d="M173.077142,34.3241891 C173.077142,34.3241891 172.034375,35.4883531 172.342852,35.7815286 C172.597709,36.0236546 171.640825,37.1820665 171.505466,37.3762886 C171.370018,37.5705106 171.952907,37.8739321 172.051678,38.0431686 C172.150358,38.212495 172.134587,40.0024657 172.633035,40.1752972 C173.131574,40.3480389 175.624626,40.0980039 176.406949,39.5973945 C177.189362,39.096875 178.406689,36.2838456 178.284848,34.9459513 C178.163098,33.6079671 174.911784,32.2935304 173.077142,34.3241891" id="Fill-119" fill="#EEA886"></path>
                    <path d="M172.863551,34.5794279 C172.863551,34.5794279 172.471353,32.9604015 174.067901,32.209038 C175.664359,31.4576745 177.685548,33.9252205 177.946803,34.0631801 C178.208148,34.2012297 179.762521,34.6858411 178.301962,37.2628561 C177.047776,39.4757832 176.928098,39.5528969 176.928098,39.5528969 C176.928098,39.5528969 176.746418,38.0545739 176.506972,37.7757785 C176.132798,37.3404191 175.121933,37.1826867 175.121933,37.1826867 C175.121933,37.1826867 175.894433,36.0435981 175.197993,35.6903853 C174.501734,35.3372625 173.677325,34.4806542 172.863551,34.5794279" id="Fill-120" fill="#323657"></path>
                    <path d="M176.080556,36.6534248 C176.186806,36.4973102 176.574228,35.809489 177.105389,36.3941325 C177.63655,36.9786861 176.27296,38.1239761 176.157878,38.1156176 C176.042976,38.1072592 175.186215,37.9676817 176.080556,36.6534248" id="Fill-121" fill="#EEA886"></path>
                    <path d="M156.289405,52.1608926 C156.289405,52.1608926 155.978675,53.3779037 155.936409,53.5611609 C155.894233,53.744508 153.980737,53.239944 153.980737,53.239944 L153.982449,51.7513276 C153.982449,51.7513276 156.065099,51.9602894 156.289405,52.1608926" id="Fill-122" fill="#666FB3"></path>
                    <path d="M155.97416,53.4062596 C155.97416,53.4062596 156.509827,54.2174805 157.070908,54.6064639 C157.631989,54.9953574 159.797008,55.4982137 160.113145,55.8722776 C160.341327,56.1422652 160.658816,57.1644251 157.184728,56.6978787 C154.716549,56.366416 153.498861,56.4500905 153.276898,56.0211123 C153.054935,55.5920442 153.980908,53.1068826 153.980908,53.1068826 C153.980908,53.1068826 154.508735,53.3933175 155.97416,53.4062596" id="Fill-123" fill="#2D314F"></path>
                    <g id="Group-25" transform="translate(140.531711, 14.889059)" fill="#979797">
                        <polygon id="Fill-124" points="14.5591426 79.2761588 22.9639414 1.74655065 22.0556967 1.66746316 13.6508979 79.1970713"></polygon>
                        <polygon id="Fill-125" points="1.10705317 78.2413762 9.51176747 0.71185209 8.60343828 0.632680555 0.198723987 78.1623728"></polygon>
                        <polygon id="Fill-126" points="22.8775538 3.73702838 22.9639414 2.93165767 8.56337248 1.66746316 8.47698486 2.47283387"></polygon>
                        <polygon id="Fill-127" points="21.8427706 8.91094142 21.9291588 8.10560303 7.52849861 6.84137621 7.44220225 7.6467146"></polygon>
                        <polygon id="Fill-128" points="20.807988 15.1196371 20.8943762 14.3142987 6.49380781 13.0500719 6.40741964 13.8554103"></polygon>
                        <polygon id="Fill-129" points="20.8079885 21.3283327 20.8943762 20.5229943 6.49380726 19.2587675 6.40741964 20.0641059"></polygon>
                        <polygon id="Fill-130" points="19.7732972 27.5370284 19.8595936 26.7316577 5.4589334 25.4674632 5.37263703 26.2727508"></polygon>
                        <polygon id="Fill-131" points="19.7732054 33.745724 19.8595936 32.9404041 5.4590252 31.6761588 5.37263703 32.4814788"></polygon>
                        <polygon id="Fill-132" points="18.7384233 42.0239849 18.8248109 41.2186972 4.42424205 39.9544197 4.33785442 40.7597904"></polygon>
                        <polygon id="Fill-133" points="17.7036407 49.2674632 17.7900283 48.4621755 3.38945944 47.1978979 3.30307181 48.0032687"></polygon>
                        <polygon id="Fill-134" points="17.7036402 53.4065936 17.7900283 52.6012552 3.38936818 51.3370284 3.30307181 52.1423668"></polygon>
                        <polygon id="Fill-135" points="16.6688581 58.5805066 16.7552457 57.7751682 2.35467683 56.5109414 2.2682892 57.3162798"></polygon>
                        <polygon id="Fill-136" points="16.6688581 64.7892023 16.7552457 63.9838316 2.35467683 62.7196371 2.2682892 63.5250078"></polygon>
                        <polygon id="Fill-137" points="15.6340749 70.9978979 15.7204631 70.1925272 1.31980296 68.9283327 1.2335066 69.7336204"></polygon>
                        <polygon id="Fill-138" points="14.5993841 77.2065936 14.6856805 76.4013059 0.285020353 75.1370284 0.198723987 75.9423991"></polygon>
                    </g>
                    <path d="M174.99464,4.76086781 C174.99464,4.76086781 174.813861,4.98394007 174.687154,5.04307849 C174.687154,5.04307849 174.448338,5.13304437 174.282339,5.20719208 C174.2298,5.23091935 174.18447,5.25275922 174.156713,5.27001542 C174.04064,5.34155672 173.807322,5.53326226 173.4801,5.62709282 C173.153328,5.72092337 171.675377,6.0565204 171.675377,6.0565204 L171.331663,5.18193693 L171.085188,4.47542159 C171.085188,4.47542159 172.453374,2.70756042 172.747793,2.58505942 C172.776721,2.57319578 172.805559,2.56259042 172.833496,2.55468133 C173.092859,2.4749613 173.319418,2.52448299 173.460364,2.49805944 C173.512092,2.48871233 174.033431,2.43011317 174.14626,2.5386834 C174.302976,2.68913584 174.350469,2.85684448 174.323163,3.00298288 C174.323163,3.00298288 174.617131,3.31116772 174.638219,3.59670382 C174.638219,3.59670382 174.918579,3.87226367 174.84351,4.23491338 C174.84351,4.23491338 175.096564,4.54624389 174.99464,4.76086781" id="Fill-139" fill="#EEA886"></path>
                    <path d="M159.152089,16.2292717 C159.49355,16.0100641 159.935223,15.7132036 161.464272,14.9504259 C164.310771,13.5301153 167.825142,10.9552574 168.493644,10.5834403 C169.521001,10.0115593 172.766997,6.05647547 172.766997,6.05647547 C172.599556,5.46077725 171.060594,4.26524654 171.060594,4.26524654 C171.060594,4.26524654 166.139736,8.91363391 165.064346,9.4857846 C164.139545,9.97758614 159.571773,10.4747802 158.313442,10.6037523 C158.109232,10.6247833 157.992078,10.6361976 157.992078,10.6361976 C156.677962,12.4234719 158.41816,16.7004916 159.152089,16.2292717 L151.498346,16.1178794" id="Fill-140" fill="#D86600"></path>
                    <path d="M158.650009,26.5342935 C158.650009,26.5342935 160.042438,31.6911095 160.409583,33.5343766 C160.729415,35.140461 161.372865,39.4182896 161.464336,40.4353265 C161.555716,41.4523635 157.353828,51.2964831 156.916751,53.07468 L153.088315,52.4616358 C153.088315,52.4616358 157.127449,42.2158602 156.073778,39.9390312 C154.506788,36.5530423 154.302669,36.6551414 153.068219,33.8656596 C151.833679,31.0761778 149.007817,31.0102088 148.248925,25.8346088 C148.248925,25.8346088 157.622472,24.8927082 158.650009,26.5342935" id="Fill-141" fill="#2D314F"></path>
                    <path d="M151.84242,1.47925192 C151.84242,1.47925192 154.384497,0.532318254 155.556585,2.462136 C156.728762,4.39195374 156.615843,8.25545389 155.334441,8.73053849 C154.053039,9.20562309 152.128278,8.9572058 151.472301,7.74972157 C150.816235,6.54214746 150.223973,4.79630592 150.252361,3.62971528 C150.280928,2.46303476 151.175089,1.81601734 151.84242,1.47925192" id="Fill-142" fill="#EEA886"></path>
                    <path d="M154.907692,8.61192912 C154.907692,8.61192912 154.804956,9.27656223 154.97465,9.60380079 C155.144434,9.93121911 151.777408,9.93966745 151.777408,9.93966745 C151.777408,9.93966745 151.503987,8.15913377 150.985803,6.65478907 C150.467619,5.15035449 154.907692,8.61192912 154.907692,8.61192912" id="Fill-143" fill="#EEA886"></path>
                    <path d="M150.985848,6.65475312 C150.985848,6.65475312 151.218175,7.03708568 152.166767,6.88879026 C153.11545,6.74040496 154.272758,5.4816914 154.668741,5.34355197 C155.064904,5.20532266 155.068689,4.9732628 155.068689,4.9732628 L155.316607,5.33456437 L155.737372,5.36107779 C155.737372,5.36107779 155.353555,4.23520098 155.93239,3.77593456 C156.511314,3.31675801 155.331657,0.131642003 152.289419,1.19208907 C152.289419,1.19208907 149.952814,1.83443294 150.037706,3.15974462 C150.122688,4.4850563 150.462978,5.99470368 150.985848,6.65475312" id="Fill-144" fill="#D88A51"></path>
                    <path d="M155.005822,4.49132066 C154.952562,4.2689674 154.385804,3.63372375 154.168707,4.31390541 C153.9517,4.99408707 154.49665,5.908935 154.800621,5.830653 C155.104593,5.75237099 155.14064,5.05484326 155.005822,4.49132066" id="Fill-145" fill="#EEA886"></path>
                    <path d="M145.31037,18.3048504 C145.338126,18.6374815 145.718879,18.9971653 145.978512,19.1750299 C146.144872,19.2888129 146.344035,19.3577478 146.558248,19.3651177 L146.709107,19.3702406 L146.709197,19.3700609 L149.350765,19.4597571 C149.350765,19.4597571 151.314548,13.1298794 147.631114,10.7158996 C147.517024,10.7271341 145.054612,15.2539192 145.31037,18.3048504" id="Fill-146" fill="#D86600"></path>
                    <path d="M153.276835,56.0211752 C153.498979,56.4501534 154.716666,56.3664789 157.184846,56.6977619 C157.859206,56.788267 158.390728,56.823049 158.807799,56.8173868 L158.951899,55.3366795 C158.229775,55.0861951 157.390317,54.8278914 157.071025,54.606347 C156.509854,54.2175434 155.974277,53.4062326 155.974277,53.4062326 C154.508762,53.3934703 153.980755,53.1067658 153.980755,53.1067658 C153.980755,53.1067658 153.054962,55.5921071 153.276835,56.0211752" id="Fill-147" fill="#2D314F"></path>
                    <path d="M154.909719,9.41072016 C154.909719,9.41072016 152.836982,8.92988349 151.66859,9.32318092 L151.492137,9.48612613 C151.492137,9.48612613 151.137068,10.1650495 152.473713,10.2233791 C153.810358,10.2817985 155.911572,10.3787747 154.909719,9.41072016" id="Fill-148" fill="#4BA2F4"></path>
                    <path d="M146.80913,57.8529293 C146.80913,57.8529293 146.4984,59.0700302 146.456224,59.2533773 C146.413958,59.4366345 144.500461,58.9319807 144.500461,58.9319807 L144.502264,57.4433643 C144.502264,57.4433643 146.584914,57.652326 146.80913,57.8529293" id="Fill-149" fill="#666FB3"></path>
                    <path d="M148.248925,25.8345998 C148.248925,25.8345998 147.551224,28.70497 147.344671,31.5785757 C147.153709,34.2340524 146.80603,37.1467542 146.529905,39.9242825 C146.221969,43.020601 145.343398,48.025886 145.297708,49.6822111 C145.251928,51.3385361 143.853912,58.5770603 143.853912,58.5770603 L147.429653,58.9867152 C147.429653,58.9867152 149.752741,46.1952015 150.301475,44.8875954 C150.85012,43.5799893 153.571173,34.2580493 153.662554,33.2119824 C153.754024,32.1658256 148.248925,25.8345998 148.248925,25.8345998" id="Fill-150" fill="#2D314F"></path>
                    <path d="M146.493975,59.0983771 C146.493975,59.0983771 147.029642,59.909598 147.590723,60.2985814 C148.151804,60.687385 150.316823,61.1903312 150.63296,61.5643053 C150.861141,61.8342928 151.178541,62.8565426 147.704543,62.3899063 C145.236274,62.0585335 144.018586,62.142208 143.796713,61.7132298 C143.57475,61.2841617 144.500633,58.7990001 144.500633,58.7990001 C144.500633,58.7990001 145.02846,59.0853451 146.493975,59.0983771" id="Fill-151" fill="#2D314F"></path>
                    <path d="M159.37334,32.9753478 C159.677943,32.9320276 158.617152,23.8780978 158.698259,23.3103511 C158.752511,22.9315237 158.744039,19.9893425 158.72178,18.1549731 L159.053598,16.298674 C159.238432,16.1645789 159.486079,16.0096327 159.782481,15.8393177 C160.243439,15.5740037 160.821823,15.2706721 161.464281,14.9504439 C161.389663,14.5120287 161.337574,14.1667251 161.317658,13.9649534 C161.157246,12.3344228 160.059056,11.4704447 159.436514,11.1067165 C159.182468,10.958421 159.007728,10.8933508 159.007728,10.8933508 C158.771255,10.7932289 158.538839,10.6962527 158.313451,10.6037703 C156.814051,9.98838924 154.909746,9.41075611 154.909746,9.41075611 L151.850026,9.41075611 C151.850026,9.41075611 149.52072,9.87487583 148.132527,10.4414542 C147.954542,10.5141639 147.787642,10.6070058 147.631105,10.7158457 L148.046734,19.4153943 C148.047004,19.4171918 148.047275,19.4188995 148.047635,19.4209666 C148.047906,19.4239325 148.048536,19.4277073 148.049077,19.432291 C148.236344,20.6563124 148.433615,22.0999908 148.499222,23.1123542 C148.526167,23.525694 148.052231,25.7450024 147.804945,27.782222 L146.939532,32.6569171 C146.939532,32.6569171 147.439693,34.6768805 159.37334,32.9753478" id="Fill-152" fill="#D86600"></path>
                    <path d="M3.15364227,89.4521579 C3.15364227,89.4521579 3.12940025,89.0253367 3.994813,88.5299401 L2.87436349,87.3460933 C2.87436349,87.3460933 2.20144492,87.7009238 1.53546552,88.3124402 C0.869486123,88.9238667 3.15364227,89.4521579 3.15364227,89.4521579" id="Fill-153" fill="#EEA987"></path>
                    <path d="M30.0490536,89.9735916 C30.0490536,89.9735916 29.9638011,88.9235701 30.2912935,88.4137934 L28.8896727,88.1278079 C28.8896727,88.1278079 28.0861717,89.269413 28.1284375,89.9532796 C28.1706132,90.6373259 30.0490536,89.9735916 30.0490536,89.9735916" id="Fill-154" fill="#EEA987"></path>
                    <path d="M5.67821598,93.6111165 C5.66360958,94.0062114 5.68532826,94.2246101 4.47304749,94.1994448 C3.26076672,94.1743694 2.14211959,92.6963584 1.36123846,91.6559537 C0.579726507,90.6159085 -0.464752688,90.0978631 0.225018128,89.433949 C0.309910225,89.3523416 0.399218152,89.2696557 0.49122965,89.1874191 C1.14432203,88.5999895 1.91501971,88.0274793 2.0183862,87.9089328 C2.13536066,87.7743884 3.1743426,89.2763964 3.1743426,89.2763964 C3.1743426,89.2763964 3.05826933,90.0087061 3.23877768,90.444425 C3.41883544,90.8792452 3.67576471,92.448031 4.24117131,92.725658 C4.2416219,92.7260175 4.24198238,92.7260175 4.24198238,92.7260175 C4.80747909,93.0023862 5.68109267,93.5242063 5.67821598,93.6111165" id="Fill-155" fill="#EEA987"></path>
                    <path d="M33.5730219,93.4079248 C32.7675383,93.3658628 30.4864462,93.17218 29.2128845,93.2632244 C27.9393228,93.3547182 27.4531308,93.1446779 27.5728088,92.239267 C27.5790271,92.1900149 27.5865971,92.1404034 27.5951584,92.0897133 C27.7390784,91.2052434 28.1324478,90.1006673 28.1693966,89.7299287 C28.208328,89.3381592 29.8076699,89.6096746 29.8076699,89.6096746 C29.8076699,89.6096746 30.6081068,90.8789036 31.0627572,91.1478127 C31.5168668,91.4162723 32.9010946,91.9787164 33.4306339,92.234863 C33.4693851,92.2538269 33.5114706,92.2713527 33.5558993,92.2879798 L33.5562598,92.2880696 C34.1177912,92.4988289 35.0772882,92.5577876 35.2057979,92.8656129 C35.3441306,93.198244 34.3789561,93.4494475 33.5730219,93.4079248" id="Fill-156" fill="#EEA987"></path>
                    <path d="M33.5730219,93.4079248 C32.7675383,93.3658628 30.4864462,93.17218 29.2128845,93.2632244 C27.9393228,93.3547182 27.4531308,93.1446779 27.5728088,92.239267 C27.5790271,92.1900149 27.5865971,92.1404034 27.5951584,92.0897133 C27.9079614,91.8885708 30.1048824,92.089174 31.4005232,92.3011915 C32.6960739,92.5131192 33.5558993,92.2879798 33.5558993,92.2879798 L33.5562598,92.2880696 C34.1177912,92.4988289 35.0772882,92.5577876 35.2057979,92.8656129 C35.3441306,93.198244 34.3789561,93.4494475 33.5730219,93.4079248" id="Fill-157" fill="#004E8C"></path>
                    <path d="M5.71657977,93.5983001 C5.70206336,93.9933951 5.68530122,94.2246461 4.47302045,94.1993909 C3.26073968,94.1743155 2.14209255,92.6963943 1.36121143,91.6559896 C0.579699471,90.6158545 -0.464779724,90.0978991 0.224991092,89.433985 C0.309883189,89.3523775 0.399191117,89.2696916 0.491292733,89.1874551 C0.52761069,89.218642 2.05098224,90.5830498 2.52023187,91.515064 C3.3002118,93.064167 4.20221286,92.7179646 4.24114427,92.7256939 C4.24159487,92.7260534 4.24204546,92.7260534 4.24204546,92.7260534 C4.80745206,93.0023323 5.71954644,93.51139 5.71657977,93.5983001" id="Fill-158" fill="#004E8C"></path>
                    <path d="M35.6718123,77.9203734 C34.3442693,79.9290124 30.2915278,89.5932003 30.2915278,89.5932003 L27.1017659,89.2645237 C27.1017659,89.2645237 29.3623108,82.4882319 30.4701437,79.9879711 C31.2898661,78.1380531 32.4164437,77.2271598 31.3508766,76.705789 C30.450678,76.265037 25.0246131,74.0965985 22.7277501,72.8590957 C22.4341424,72.7007341 22.1917223,72.5579211 22.0167112,72.4360493 C21.9397496,72.3823034 21.8761256,72.333321 21.8263799,72.2882032 C20.7724382,71.3339896 23.1492367,64.6008383 26.8401504,66.7520206 C26.8401504,66.7520206 34.8724568,73.1512826 35.4791379,74.2363557 C36.0859992,75.3217883 36.9998058,75.9112851 35.6718123,77.9203734" id="Fill-159" fill="#CCCCCC"></path>
                    <path d="M26.6707357,66.5444789 C26.6707357,66.5444789 21.2127687,74.1761208 16.2622617,78.2981043 C14.8610014,79.464695 13.7203652,80.4324799 11.7199938,81.9265787 C10.6566797,82.7207232 8.77481481,84.388822 7.24522504,85.7765975 L7.18169115,85.8347473 C6.09089079,86.82581 5.18997116,87.6639937 4.91231453,87.923286 C4.90240144,87.9319141 4.89375001,87.940003 4.8860899,87.9475526 L4.85517908,87.9763129 L3.85693093,88.9840027 L2.42917563,87.5952386 C2.42917563,87.5952386 4.13431721,85.5412122 5.10895418,83.9533727 C6.47678034,81.724897 8.47246557,79.2531269 9.50486882,78.5402303 C11.2734542,77.3189052 12.9950875,76.5920779 13.6462874,75.4357331 C14.2979379,74.2793883 16.5387468,69.6212045 16.5387468,69.6212045 C16.5387468,69.6212045 17.056931,64.7715847 20.0407711,63.7013411 C22.852574,62.6928424 26.6707357,66.5444789 26.6707357,66.5444789" id="Fill-160" fill="#CCCCCC"></path>
                    <path d="M29.8097697,46.2473296 C29.6690939,46.4491912 29.5578871,46.7127975 29.4704716,46.9945588 C29.3875622,47.2605019 29.3258306,47.5426227 29.2800502,47.8042518 C29.1807391,48.3721783 29.1565872,48.8437578 29.1565872,48.8437578 C29.1565872,48.8437578 26.0134167,47.9209109 26.5910795,47.2160133 C27.1684719,46.5108461 27.0230199,44.2379716 27.0230199,44.2379716 C27.0230199,44.2379716 30.2734319,45.5826066 29.8097697,46.2473296" id="Fill-161" fill="#EEA987"></path>
                    <path d="M32.0495422,40.242138 C32.0495422,40.242138 32.8156438,41.0088703 32.3030469,43.0222727 C32.3030469,43.0222727 32.3664006,44.6598137 32.5953029,44.9609882 C32.8242051,45.2620728 31.8976917,45.3008094 31.7863046,45.4979974 C31.6748274,45.6950955 31.4230349,46.6369062 30.7409242,47.1663658 C30.0586333,47.6959152 27.0122507,45.7329333 26.9286202,44.7416008 C26.8449898,43.7503583 24.9507786,39.3909223 28.4432502,39.4486227 C31.9356318,39.5062332 32.0495422,40.242138 32.0495422,40.242138" id="Fill-162" fill="#EEA886"></path>
                    <path d="M31.0746889,58.0565523 C30.944467,58.2816019 30.8001865,58.5160884 30.6421178,58.762079 C30.2155845,59.4273413 29.6901908,60.1748401 29.0644946,61.0436715 C28.9265224,61.2350175 28.7567382,61.4480237 28.6092134,61.7083046 C27.8007558,63.133828 27.1403638,65.5620982 26.9179501,66.4380298 C26.8653206,66.645194 26.8401774,66.7520566 26.8401774,66.7520566 C22.6199948,66.8434605 18.188303,64.1061068 18.188303,64.1061068 C20.9639681,61.1794742 22.0500823,58.9199912 22.0500823,58.9199912 C22.3413469,58.124948 22.5171691,57.2340071 22.5722318,56.0560921 C22.7313819,52.6527571 23.6790733,50.7754269 24.5992784,49.2897765 C25.5189428,47.8042158 26.5910885,47.2157976 26.5910885,47.2157976 L29.1713757,48.7773933 C29.4721929,49.7437402 30.5250532,50.8208143 31.5595292,53.1829357 C32.3225667,54.9263506 32.1718878,56.1652914 31.0746889,58.0565523" id="Fill-163" fill="#F6931D"></path>
                    <path d="M32.4429297,42.2952477 C32.4429297,42.2952477 33.1400001,38.0882414 28.9679411,38.5484965 C24.7959721,39.0090212 26.583843,43.7900655 27.0296616,45.3386292 C27.0296616,45.3386292 27.1315862,42.9906184 29.1195212,43.0567671 C31.1074562,43.1229159 31.5502109,42.6947466 32.4429297,42.2952477" id="Fill-164" fill="#464240"></path>
                    <path d="M28.8403686,42.4390133 C28.6236324,41.9911612 27.756958,42.1594091 27.8067037,42.8214358 C27.8565395,43.4834625 28.4905267,44.1861132 28.7392551,43.8854779 C28.9879835,43.5847528 29.1586689,43.0970855 28.8403686,42.4390133" id="Fill-165" fill="#EEA987"></path>
                    <path d="M27.3733845,39.8087379 C27.3733845,39.8087379 26.2570805,38.5750099 25.3106508,39.8135013 C24.3641309,41.0519029 26.0985612,42.9987072 26.9325224,41.9769967 C27.7664836,40.9551963 27.3733845,39.8087379 27.3733845,39.8087379" id="Fill-166" fill="#464240"></path>
                    <path d="M29.4704987,46.9946037 C29.3875892,47.2605469 29.3258577,47.5426677 29.2800772,47.8042967 C28.2540724,47.2458072 27.5671854,45.7156681 27.5671854,45.7156681 C28.2876868,46.4312609 29.4702283,46.9943341 29.4702283,46.9943341 L29.4704987,46.9946037 Z" id="Fill-167" fill="#A77860"></path>
                    <path d="M26.7881427,39.3856016 C26.7881427,39.3856016 26.2793309,38.5561359 25.1046297,38.5451213 C23.9301088,38.5342961 22.4877542,40.306651 22.8531868,42.8850141 C23.2185292,45.4632872 22.383847,48.4755717 19.9299968,50.9553407 C19.9299968,50.9553407 24.2125417,48.6528072 24.6083444,45.2581902 C25.004147,41.8633934 26.2075961,41.855035 26.2075961,41.855035 L26.7881427,39.3856016 Z" id="Fill-168" fill="#464240"></path>
                    <path d="M36.9881354,64.3515581 C36.9881354,64.3515581 38.1130008,64.3727689 38.3777704,64.4136625 C38.6424499,64.4545561 39.2085774,64.6080643 39.2851786,64.5556666 C39.36196,64.503179 39.6087959,63.4507309 39.8015605,63.2226256 C39.994325,62.9946101 40.6784183,60.6647542 40.554775,60.6816509 C40.4312219,60.6985476 40.0062207,61.3001776 39.1304443,62.3223375 C38.254758,63.3444075 37.2565098,62.9678271 36.9036939,63.2087846 C36.5506978,63.4497422 36.9881354,64.3515581 36.9881354,64.3515581" id="Fill-169" fill="#EEA886"></path>
                    <path d="M22.0166752,72.4360133 C22.0166752,72.4360133 24.3514782,69.7029737 24.5297336,69.376544 C24.434658,69.5857753 23.2103914,72.2755846 22.7278042,72.8590597 C22.4341965,72.7006982 22.1916863,72.5578852 22.0166752,72.4360133" id="Fill-170" fill="#919191"></path>
                    <path d="M31.0746889,58.0565523 C30.944467,58.2816019 30.8001865,58.5160884 30.6421178,58.762079 C30.6421178,58.762079 29.315476,54.7342855 29.1864256,53.742324 C29.1864256,53.742324 30.4406117,56.560656 31.0746889,58.0565523" id="Fill-171" fill="#BD8D3F"></path>
                    <path d="M37.4690014,63.0918919 C37.4690014,63.0918919 33.2855874,62.1398353 31.2387145,60.2044452 C30.7030472,59.697904 28.5958848,51.5112778 28.5958848,51.5112778 C28.5958848,51.5112778 28.0168702,49.4426915 26.1834893,50.0394682 C24.3500183,50.6365146 25.0834067,52.7205596 25.0834067,52.7205596 C25.0834067,52.7205596 27.6180936,59.1975643 28.9596952,61.7172383 C30.0760893,63.8139558 37.5004529,64.5098658 37.5004529,64.5098658 L37.4690014,63.0918919 Z" id="Fill-172" fill="#F6931D"></path>
                    <polygon id="Fill-173" fill="#E0E0E0" points="26.2463653 47.4477586 26.8370052 46.7071802 29.3704305 48.2435208 29.385931 49.5247932"></polygon>
                    <path d="M42.38137,58.7225426 C40.6734347,61.1753488 39.5246879,63.8506881 38.9076431,66.5964902 L38.9052099,66.6000852 C38.4911131,68.4500931 38.3155612,70.3323664 38.3770224,72.2034052 C38.5876305,79.0573499 41.9445632,85.7248019 48.0247118,89.9359425 C58.2290663,97.0033427 72.2420299,94.4833991 79.326014,84.3101535 C86.4125215,74.1334926 83.885765,60.1583119 73.6815006,53.0909116 C70.2045294,50.6827738 66.2838123,49.386492 62.3470539,49.1315138 C55.8474915,48.7068496 49.2962909,51.1113026 44.61542,55.9964234 C43.8102067,56.8313715 43.0630301,57.7435232 42.38137,58.7225426" id="Fill-174" fill="#F6931D"></path>
                    <path d="M41.2838287,52.8124937 L60.8406428,71.5048169 L62.6414907,44.5437208 C54.8127632,44.0321466 46.9220338,46.9284011 41.2838287,52.8124937" id="Fill-175" fill="#27A9E0"></path>
                    <path d="M41.7625859,58.2914253 C39.9984164,60.8247605 38.8119097,63.5881783 38.1746782,66.4243956 L60.8405977,71.5048169 L44.0699928,55.4756099 C43.2383746,56.3379702 42.4665955,57.2803202 41.7625859,58.2914253" id="Fill-176" fill="#50E3C2"></path>
                    <path d="M36.7860706,66.113092 L36.783367,66.1171365 C36.3294376,68.1449191 36.1369435,70.2082027 36.2044426,72.2592632 L60.8406337,71.504754 L36.7860706,66.113092 Z" id="Fill-177" fill="#308DFC"></path>
                    <path d="M107.424307,87.2954841 C107.424307,87.2954841 108.109121,88.3172845 109.069699,88.53802 C110.030278,88.7587555 110.976437,89.1098112 110.983751,89.7144071 C110.990946,90.319003 108.20645,90.6795856 107.107178,90.0700465 C105.466562,89.1605012 105.299841,89.434713 105.117891,88.9799403 C104.936031,88.5253475 105.33643,87.3094149 105.324534,87.1648943 C105.309935,86.9861309 107.424307,87.2954841 107.424307,87.2954841" id="Fill-178" fill="#353A3D"></path>
                    <path d="M107.317912,86.7914235 C107.317912,86.7914235 107.442907,87.2850225 107.424343,87.2954482 C107.405778,87.3059637 105.259684,87.5609419 105.32457,87.1648583 C105.3772,86.8436414 105.452359,86.494563 105.452359,86.494563 L107.317912,86.7914235 Z" id="Fill-179" fill="#81807E"></path>
                    <path d="M100.201945,87.2277266 C100.201945,87.2277266 100.69039,88.2051282 101.524982,88.538029 C102.41707,88.8938481 103.132615,89.3028738 103.116303,89.8920111 C103.099992,90.4810585 100.935423,91.078015 99.360684,89.9474646 C98.3656802,89.2331301 98.0504439,89.2296249 97.890753,88.7799752 C97.7311523,88.3301458 98.1679591,87.1613082 98.1619211,87.0199332 C98.1546215,86.8454839 100.201945,87.2277266 100.201945,87.2277266" id="Fill-180" fill="#353A3D"></path>
                    <path d="M100.226322,86.7201518 C100.226322,86.7201518 100.220464,87.2182447 100.2019,87.2276816 C100.183425,87.2371186 98.1092465,87.4076134 98.1619662,87.0199782 C98.2038715,86.712063 98.363292,86.3402459 98.363292,86.3402459 L100.226322,86.7201518 Z" id="Fill-181" fill="#81807E"></path>
                    <path d="M107.831338,56.8625315 C107.831338,56.8625315 109.758443,65.3395472 110.198584,67.9217749 C110.573119,70.1194232 110.871683,72.4079361 110.692256,73.9944274 C110.470022,75.9587576 107.682011,86.1385641 107.798535,86.7144896 C107.915059,87.2904151 104.881113,86.8067024 104.881113,86.8067024 C104.881113,86.8067024 107.001522,75.4513176 106.577963,73.3378832 C106.264169,71.7726025 103.515449,61.3744871 103.094323,61.9079013 C102.673017,62.4411356 102.150687,71.7212833 101.838695,73.2617582 C101.526703,74.802233 100.568918,86.9743212 100.568918,86.9743212 C100.568918,86.9743212 98.4276009,87.2894265 97.8557057,86.8067024 C97.8557057,86.8067024 97.5952618,76.4131707 97.7940644,73.5250949 C97.8698544,72.4243834 96.5008567,60.327881 98.2561946,55.4580391 C99.1838796,52.8843496 107.831338,56.8625315 107.831338,56.8625315" id="Fill-182" fill="#2D3133"></path>
                    <path d="M116.219101,49.1563645 C114.845777,48.96394 110.524662,50.8729963 110.132103,50.7288352 C109.862107,50.6299716 109.22848,48.5707324 108.775722,47.0123722 C108.508069,46.0904241 108.303769,45.3436443 108.275382,45.2820792 L108.273669,45.2786639 C108.278085,45.3200069 108.348108,46.0248146 108.25898,46.9507173 C108.253212,47.0106646 108.225996,47.0266625 108.218967,47.0882276 C108.216894,47.1042255 108.207973,47.1540168 108.201304,47.169116 C108.100731,47.3974011 108.063422,47.8271882 107.97096,48.1847149 C107.833708,48.7127365 107.758189,49.4319244 107.812711,50.1811308 L107.812711,50.1841866 C107.81235,50.1897589 107.81235,50.1951515 107.811629,50.2011731 C107.811269,50.2180698 107.810277,50.2347868 107.810277,50.2517733 C107.810277,50.2584242 107.809647,50.2654345 107.809647,50.2724448 C107.771256,51.6071935 107.863718,53.0460186 107.902109,53.8118521 C107.962578,54.9980357 107.571282,55.532079 107.559927,55.5473579 L107.559566,55.5477174 L107.14556,55.4898372 L106.846545,55.4478651 L106.84285,55.4471461 L106.443262,55.3912432 L104.876273,55.1715863 L104.308704,55.0919561 L104.174607,55.0729923 L103.181675,54.9337743 L100.382579,54.5409263 L100.075364,54.4980554 L99.9488366,54.4803499 L98.8932728,54.3318747 L98.4161828,54.2652766 L98.4145607,54.2649171 C98.4145607,54.2649171 98.0092956,51.3986811 97.9782946,49.8495782 C97.9501775,48.4266612 97.186419,45.537417 97.0618745,45.0752745 C97.0611536,45.0719491 97.0601623,45.0688933 97.0592611,45.0655679 C97.0582698,45.0613437 97.0571883,45.0570297 97.0558366,45.0529853 C97.0534935,45.0449863 97.0518713,45.0384254 97.0501591,45.0326733 C97.0495282,45.0293479 97.0484468,45.0260225 97.0475456,45.0226971 C97.0475456,45.0217084 97.0471851,45.0206299 97.0468247,45.0200907 C97.0464642,45.019102 97.0461938,45.0180235 97.0461938,45.016945 C97.0451124,45.0137095 97.0451124,45.0120917 97.0451124,45.0120917 C97.0451124,45.0120917 94.7604155,47.4057595 94.3171202,48.4502985 C94.1818516,48.7672014 93.7685658,49.6292022 93.2424511,50.6785945 C92.882606,49.9936494 92.6573085,49.5176661 92.6573085,49.3984006 C92.6573085,49.3837508 92.6575788,49.3681124 92.6579393,49.3518448 C92.6916438,48.3190796 93.7769469,44.1313966 94.6332576,41.3956607 C95.2982457,40.0626197 95.871763,38.9845569 96.0556959,38.8530683 C96.3345241,38.6533638 97.5071525,38.1525747 98.5307241,37.7474136 C98.5644286,37.7341119 98.5978627,37.7211698 98.6305759,37.7081378 C98.7261021,37.6704797 98.8201863,37.6339002 98.9116571,37.5982194 C98.9573474,37.5806037 99.0024069,37.5633475 99.0468356,37.5462711 C99.0712578,37.5370138 99.0952295,37.5280262 99.1192913,37.5190386 C99.1390273,37.5113992 99.1584029,37.5041192 99.1776884,37.4967494 L99.1779587,37.4967494 C99.6898346,37.3026172 100.078698,37.1671741 100.158814,37.1625005 C100.172242,37.161422 100.1936,37.1618493 100.222618,37.16286 C100.256323,37.1634891 100.30003,37.1654664 100.352209,37.1687918 C100.984755,37.2057309 102.872838,37.3822474 103.48042,37.4398579 C103.590996,37.4501037 103.659486,37.4567546 103.66976,37.4577432 L103.671112,37.4577432 C103.671112,37.4577432 103.960574,37.5893217 104.396209,37.7881274 L104.39657,37.7883971 L104.436943,37.8067318 C104.700361,37.9272555 105.005053,38.0876842 105.327229,38.2634817 C105.958873,38.6087853 106.656574,39.0122387 107.235138,39.2868099 C107.802617,39.5559886 108.579533,39.9310412 108.64559,39.9837085 L111.520206,48.2509536 L116.507121,47.3420374 L116.219101,49.1563645 Z" id="Fill-183" fill="#DECBC4"></path>
                    <path d="M107.559846,55.547304 C107.559846,55.547304 107.770454,55.7985973 107.831374,56.8625495 C107.831374,56.8625495 99.1716594,55.8551293 98.2562306,55.4580571 C98.2562306,55.4580571 98.2204534,54.2854447 98.4146598,54.2650429 C98.6279715,54.2427536 107.559846,55.547304 107.559846,55.547304" id="Fill-184" fill="#495055"></path>
                    <path d="M100.175098,36.8694238 C100.201954,38.224844 102.833429,38.9663211 102.833429,38.9663211 C102.833429,38.9663211 103.934142,37.5901396 103.671175,37.4582914 C103.567898,37.4065229 103.525993,37.2010663 103.513106,36.970804 C103.50121,36.7515065 103.515179,36.5096501 103.528066,36.356052 C103.535906,36.2602442 103.543296,36.1984994 103.543296,36.1984994 C103.543296,36.1984994 103.16732,35.802955 102.689058,35.3316452 C101.853204,34.5073923 100.704187,33.4515289 100.702385,33.8716094 C100.702295,33.8938088 100.705359,33.9203222 100.712118,33.9511497 C100.913984,34.8964656 100.175098,36.8694238 100.175098,36.8694238" id="Fill-185" fill="#EEA886"></path>
                    <path d="M100.393268,54.4729171 C100.393268,54.4729171 100.204288,55.6617071 100.187886,55.9715097 L99.7873074,55.8917897 C99.7873074,55.8917897 99.897613,54.6340648 99.9624987,54.4233056 L100.393268,54.4729171 Z" id="Fill-186" fill="#353A3D"></path>
                    <path d="M106.837389,55.4086343 C106.837389,55.4086343 106.989239,56.4891237 106.992844,56.8971608 L106.568924,56.8422465 C106.568924,56.8422465 106.48214,55.492938 106.433746,55.3521022 L106.837389,55.4086343 Z" id="Fill-187" fill="#353A3D"></path>
                    <path d="M101.188496,34.8834605 L101.188676,34.8837302 C101.193903,34.8916392 101.30547,35.0580896 101.495982,35.2971598 C101.899985,35.8038808 102.659328,36.6364023 103.513115,36.9708309 C103.501219,36.7515334 103.515188,36.5096771 103.528075,36.356079 C103.61549,36.3538321 103.702816,36.343766 103.78942,36.3246224 C103.555381,35.9168549 103.217345,35.489135 103.217345,35.489135 L102.689067,35.3315823 L101.188496,34.8834605 Z" id="Fill-188" fill="#A77860"></path>
                    <path d="M100.683343,33.8899082 C100.910983,34.383687 101.127179,34.741753 101.18846,34.8834875 L101.18864,34.8837571 C101.228562,34.9761497 101.337246,35.126692 101.496036,35.2970969 C101.929598,35.763104 102.735713,36.3776762 103.528039,36.3560161 C103.615454,36.3538591 103.70287,36.3437929 103.789474,36.3246493 C104.109397,36.2549056 104.487265,36.1066101 104.69517,35.7007301 C106.336778,32.4952122 105.148198,29.8739783 105.148198,29.8739783 C105.148198,29.8739783 100.659371,28.6079848 99.9570735,29.9557655 C99.4643028,30.9009915 100.148486,32.7294291 100.683343,33.8899082" id="Fill-189" fill="#EEA886"></path>
                    <path d="M105.148189,29.8740142 C105.148189,29.8740142 105.56508,29.851006 105.668176,29.0627934 C105.77001,28.2840177 105.563998,28.0681355 105.563998,28.0681355 C105.563998,28.0681355 103.710971,27.2945727 103.045443,27.1939116 C102.380004,27.0933403 100.743623,26.9966337 100.360077,27.4341501 C100.360077,27.4341501 99.4281561,27.2180882 99.1742909,28.7610796 C98.771459,31.2088528 100.546803,33.5855341 100.546803,33.5855341 C100.546803,33.5855341 100.531573,31.9865499 100.8852,31.7745324 C101.238827,31.5626946 101.54406,32.0666295 101.54406,32.0666295 L102.267355,32.1957813 C102.267355,32.1957813 101.168805,29.8300649 102.486615,29.7423459 C103.804515,29.6548067 104.393803,30.011165 105.148189,29.8740142" id="Fill-190" fill="#002D51"></path>
                    <path d="M101.524153,31.4291119 C101.455392,30.7246637 100.177955,30.4556648 100.263478,31.1940862 C100.349091,31.9325075 100.978122,32.6418988 101.268756,32.6169133 C101.559389,32.5919278 101.576602,31.9661211 101.524153,31.4291119" id="Fill-191" fill="#EEA886"></path>
                    <path d="M97.4518194,50.1638746 C97.4518194,50.6779654 97.2841981,51.2665634 97.0264578,51.8937182 C97.019789,51.9094465 97.0134806,51.9254444 97.0068118,51.940993 C96.8291873,51.5631542 96.6619264,51.2013134 96.5120585,50.865986 C96.511698,50.8653569 96.5113376,50.8650873 96.5113376,50.8643682 C96.0990431,49.9441278 95.8160695,49.226288 95.8002987,48.9423697 C95.6984642,47.1174373 97.0461938,45.016945 97.0461938,45.016945 C97.0461938,45.0180235 97.0464642,45.019102 97.0468247,45.0200907 C97.0471851,45.0206299 97.0475456,45.0217084 97.0475456,45.0226971 C97.0484468,45.0260225 97.0495282,45.0293479 97.0501591,45.0326733 C97.0521417,45.0393241 97.0542144,45.0460648 97.0558366,45.0529853 C97.0571883,45.0570297 97.0582698,45.0613437 97.0592611,45.0655679 C97.0601623,45.0689832 97.0611536,45.0719491 97.0618745,45.0752745 C97.337909,46.1599881 97.4518194,50.1638746 97.4518194,50.1638746 M93.2424511,50.6785945 C93.7990261,51.737334 94.6769653,53.295065 95.5439101,54.8056111 C95.4298195,55.018078 95.3182521,55.2287474 95.2114611,55.4369003 C94.9506567,55.9455985 94.7194114,56.4380292 94.5550343,56.8971158 C94.3574935,57.4491343 94.0827207,58.8630637 94.6084749,59.1257713 L97.3786428,60.6506976 C97.3786428,60.6506976 97.3980184,60.5966821 97.4347869,60.4968299 C97.5265281,60.2487721 97.7255108,59.7180542 98.0010046,59.0305027 C98.0099264,59.0082135 98.037683,58.9426939 98.0786872,58.846167 C98.1337499,58.7165658 98.2132349,58.5315111 98.3040748,58.3200329 C98.3447185,58.2254833 98.387525,58.1256311 98.4318635,58.0230825 C98.4820598,57.9059741 98.5341486,57.7850908 98.5857868,57.6648367 C98.6612164,57.4897583 98.7363756,57.3155786 98.8057673,57.1544309 C98.9947468,56.7156562 99.1423617,56.3741273 99.1423617,56.3741273 C99.151644,56.3538153 99.1610164,56.333773 99.1702986,56.313461 C99.2605077,56.1190592 99.3529698,55.9239384 99.4471442,55.7295366 C99.5926864,55.4281823 99.7425543,55.1281762 99.8957566,54.8349107 C99.9111669,54.804982 99.9264871,54.7754128 99.942258,54.7456638 C99.9694739,54.694075 99.9969602,54.6424862 100.024266,54.5916164 C100.041299,54.5602496 100.058331,54.5288829 100.075364,54.4980554 C100.079059,54.4910451 100.083024,54.4839449 100.086719,54.4770244 C100.093748,54.4647114 100.100417,54.4523984 100.107446,54.4400854 C100.908244,52.9831054 101.810245,51.7649259 102.098085,49.9784604 C102.125751,49.8059883 102.152156,49.6345049 102.177209,49.4643696 C102.218934,49.1807209 102.257325,48.9006672 102.292381,48.6264555 C102.305358,48.522469 102.318426,48.4200103 102.330772,48.3180909 C102.474962,47.1261553 102.561026,46.0640904 102.630598,45.324321 C102.847154,43.0198101 101.431745,40.5244026 100.34509,38.9829391 C99.7639125,38.1585963 99.2771798,37.6069374 99.1833659,37.5023217 C99.1810228,37.5004343 99.1794006,37.4983672 99.1776884,37.4967494 C99.1584029,37.5041192 99.1390273,37.5113992 99.1192913,37.5190386 C99.0952295,37.5280262 99.0712578,37.5370138 99.0468356,37.5462711 C99.0024069,37.5633475 98.9573474,37.5806037 98.9116571,37.5982194 C98.8201863,37.6339002 98.7261021,37.6704797 98.6305759,37.7081378 C98.5978627,37.7211698 98.5644286,37.7341119 98.5307241,37.7474136 C97.4784947,38.1589559 94.9983297,38.8905466 94.7195916,39.0899815 C94.5586391,39.204843 94.4627525,40.1328128 94.0471237,41.4611803 C93.1909031,44.1968264 92.6826319,48.3217758 92.6579393,49.3518448 C92.6575788,49.3681124 92.6573085,49.3837508 92.6573085,49.3984006 C92.6573085,49.5176661 92.882606,49.9936494 93.2424511,50.6785945" id="Fill-192" fill="#3C4145"></path>
                    <path d="M118.059845,46.3547674 L111.787202,47.717108 L108.797144,39.918836 C108.730996,39.8666181 107.873784,39.406363 107.306215,39.1370945 C106.715305,38.8564117 105.967497,38.5102093 105.304221,38.2048106 C104.987363,38.0586722 104.688979,37.9222404 104.436916,37.8067497 L104.416189,37.8230173 C104.416189,37.8230173 104.786488,39.0525211 105.26547,42.1214275 C105.26547,42.121787 105.26547,42.1221465 105.26574,42.122506 C105.282232,42.2257735 105.298273,42.3306588 105.314495,42.437791 C105.316297,42.450104 105.31819,42.4627766 105.320262,42.4750896 C105.330896,42.5460018 105.341981,42.6179026 105.352615,42.690792 C105.353967,42.69951 105.355229,42.7081381 105.35658,42.7164965 C105.36397,42.7653891 105.37127,42.8146412 105.378299,42.8646122 C105.396323,42.985855 105.414437,43.1093446 105.432461,43.235171 C105.646043,44.7290002 105.945869,47.271323 106.233889,49.8379123 L106.233889,49.8389009 C106.46162,51.8617403 106.980435,53.9376965 107.145352,55.4867994 C107.145352,55.4877881 107.145623,55.4887767 107.145623,55.4898552 C107.178336,55.7934564 107.256109,56.1979883 107.361277,56.6543787 C107.372993,56.7060574 107.385339,56.7582754 107.397595,56.8112123 C107.861708,58.7665549 108.762718,61.5342867 108.762718,61.5342867 L109.025145,61.2925202 L109.802331,60.5770173 C109.981217,60.412634 110.048987,60.1601723 109.976891,59.9288315 C109.545852,58.5421345 108.081058,53.6347244 107.812684,50.1841147 C107.812323,50.1832159 107.812323,50.1822273 107.812323,50.1811488 C107.728152,49.0971542 108.046002,48.0759829 108.230295,47.1078385 C108.233629,47.116197 108.236603,47.1244656 108.239577,47.1331836 C108.393861,47.5609934 108.564817,48.0261017 108.737034,48.4788971 L108.737034,48.4792566 C109.199435,49.6950993 109.672469,50.8216951 109.869379,50.8936858 C110.307718,51.054474 118.567124,48.802271 118.62417,48.4790768 L118.059845,46.3547674 Z" id="Fill-193" fill="#3C4145"></path>
                    <path d="M99.9083552,40.8603861 L101.188496,41.5804727 L100.641563,42.1367154 L102.097886,49.9785772 C102.394828,48.1405229 102.530007,46.394951 102.63049,45.3244378 C102.965462,41.7616628 99.3996334,37.7426771 99.1779407,37.4965067 C99.0066245,37.5613073 98.8215201,37.6329385 98.6303777,37.7082546 L99.9083552,40.8603861 Z" id="Fill-194" fill="#51565C"></path>
                    <path d="M104.396525,37.78846 C104.396525,37.78846 104.874786,39.3463708 105.432262,43.2351261 C105.645934,44.7289553 105.94576,47.2715477 106.234141,49.8377775 L106.532075,42.493649 L105.922239,41.8347679 L106.464305,41.1589003 L105.304203,38.2049454 C104.987435,38.058807 104.689141,37.9221056 104.436808,37.8066149 L104.396525,37.78846 Z" id="Fill-195" fill="#51565C"></path>
                    <path d="M99.1136498,37.5123339 L100.175071,36.8694508 C100.175071,36.8694508 100.204721,37.4499599 102.833402,38.966348 L102.086856,41.0631554 L99.1136498,37.5123339 Z" id="Fill-196" fill="#F5E2D9"></path>
                    <path d="M103.532563,37.1619612 C103.532563,37.1619612 103.491288,37.7884869 102.83342,38.9663121 L104.290283,40.8603592 L104.396534,37.7884869 L103.532563,37.1619612 Z" id="Fill-197" fill="#F5E2D9"></path>
                    <path d="M102.829382,38.9663211 C102.829382,38.9663211 102.547039,40.0925574 102.648694,40.4080222 C102.648694,40.4080222 103.269614,40.6332515 103.715793,40.3516699 C103.715793,40.3516699 103.399745,39.5632775 102.829382,38.9663211" id="Fill-198" fill="#0064B5"></path>
                    <path d="M104.288977,55.2105385 C104.446955,54.4158548 104.296637,52.0345 104.290148,51.9335692 L104.15488,51.9421973 C104.156412,51.9667335 104.310605,54.4067774 104.155961,55.1842947 L104.288977,55.2105385 Z" id="Fill-199" fill="#AD9F99"></path>
                    <path d="M103.183523,54.8440961 C103.183523,54.8440961 104.457715,54.9958068 104.879022,55.1006022 L104.823779,56.5249572 L103.155316,56.3474521 L103.183523,54.8440961 Z" id="Fill-200" fill="#69737A"></path>
                    <path d="M103.462333,40.2503078 C103.462333,40.2503078 104.88351,43.8294402 104.651634,47.8355736 C104.411286,51.9893733 104.017106,53.4954256 104.017106,53.4954256 L103.140879,54.5913737 L102.754448,53.2444019 C102.754448,53.2444019 103.930231,47.9487275 103.171249,42.7957762 C103.033637,41.8620543 102.829427,40.0925753 102.829427,40.0925753 L103.462333,40.2503078 Z" id="Fill-201" fill="#0064B5"></path>
                    <path d="M99.1919722,57.1532265 C99.1919722,57.1532265 99.4969349,57.7615074 99.8018976,57.8627976 C100.10677,57.9641778 100.551507,58.4583161 100.551507,58.4583161 L98.4042421,59.5860803 C98.4042421,59.5860803 97.8325271,58.4709886 97.8071136,57.7615074 C97.7817,57.0518464 99.1919722,57.1532265 99.1919722,57.1532265" id="Fill-202" fill="#EEA886"></path>
                    <path d="M99.3958034,57.2102798 L99.5381013,57.4953665 C99.5381013,57.4953665 98.1743305,58.4900244 97.8067351,58.5533869 L97.6806586,58.1733013 L99.3958034,57.2102798 Z" id="Fill-203" fill="#DECBC4"></path>
                    <path d="M99.5381103,57.2227366 C99.5381103,57.2227366 98.5160707,58.065504 97.6550738,58.4541279 L94.7586492,53.2584855 L96.259491,50.3648374 C96.259491,50.3648374 99.4703408,56.7158359 99.5381103,57.2227366" id="Fill-204" fill="#3C4145"></path>
                    <path d="M108.239604,47.1331925 C108.393888,47.5610024 108.564754,48.0261107 108.737061,48.4789061 C108.777074,47.9542099 108.787438,47.4651047 108.775722,47.0123093 C108.706691,44.3171973 107.856689,42.903897 107.856689,42.903897 C108.051706,43.3736789 108.14516,44.3814587 108.189859,45.2924419 C108.237351,46.253576 108.230232,47.1072184 108.230232,47.1072184 L108.230232,47.1078475 L108.239604,47.1331925 Z" id="Fill-205" fill="#2D3133"></path>
                    <path d="M95.2114251,55.4368913 L97.5301869,58.2297884 L95.5438741,54.805692 C95.4297834,55.0180691 95.3183062,55.2288283 95.2114251,55.4368913" id="Fill-206" fill="#2D3133"></path>
                    <path d="M112.050656,51.9351511 L117.404175,51.9351511 C117.771139,51.9351511 118.090431,51.6846666 118.176765,51.3290272 L120.502105,41.7538166 C120.623225,41.2549149 120.244275,40.7744377 119.729515,40.7744377 L114.376086,40.7744377 C114.009032,40.7744377 113.68974,41.0248323 113.603406,41.3805615 L111.278065,50.955862 C111.156946,51.4546739 111.535896,51.9351511 112.050656,51.9351511" id="Fill-207" fill="#FFFFFF"></path>
                    <path d="M118.598711,49.2732752 C118.336825,49.0314189 117.831438,48.8910325 117.398777,48.6027103 C116.966025,48.3142982 117.327493,48.0170782 117.327493,48.0170782 C116.882755,47.8648282 116.930608,47.6625173 116.987564,47.5245576 C117.064525,47.3382447 117.549996,47.3910918 117.549996,47.3910918 C117.549996,47.3910918 117.114631,47.2950143 116.935655,47.2160133 C116.756499,47.1369224 116.817239,46.8255919 117.092733,46.7271777 C117.368316,46.6286735 118.491019,46.9046828 118.491019,46.9046828 C118.491019,46.9046828 118.307897,46.815346 117.754206,46.5381684 C117.200515,46.2609908 117.078944,46.0089784 117.405445,45.8879155 C117.632365,45.8037016 118.078454,45.9801282 118.934494,46.5538068 C119.578935,46.9856611 119.526576,47.0420133 119.526576,47.0420133 C119.526576,47.0420133 118.911604,49.5621367 118.598711,49.2732752" id="Fill-208" fill="#EEA886"></path>
                </g>
            </g>
        </g>
    </g>
</svg>