<?xml version="1.0" encoding="UTF-8"?>
<svg width="20px" height="20px" viewBox="0 0 20 20" version="1.1" xmlns="http://www.w3.org/2000/svg" xmlns:xlink="http://www.w3.org/1999/xlink">
    <!-- Generator: Sketch 59.1 (86144) - https://sketch.com -->
    <title>Instagram-black</title>
    <desc>Created with Sketch.</desc>
    <g id="Home-Page" stroke="none" stroke-width="1" fill="none" fill-rule="evenodd">
        <g transform="translate(-797.000000, -2511.000000)" fill="#FFFFFF" id="Instagram">
            <path d="M808.027558,2511.00078 C809.827953,2511.00405 810.208753,2511.01846 811.122987,2511.06018 C812.187371,2511.10872 812.914306,2511.27779 813.55038,2511.52501 C814.207968,2511.78052 814.765644,2512.12246 815.321613,2512.67839 C815.877543,2513.23436 816.219476,2513.79203 816.475033,2514.44962 C816.722214,2515.08569 816.891275,2515.81263 816.939822,2516.87701 C816.988488,2517.94362 817,2518.28416 817,2521.00002 C817,2523.71584 816.988488,2524.05638 816.939822,2525.12299 C816.891275,2526.18737 816.722214,2526.91431 816.475033,2527.55038 C816.219476,2528.20797 815.877543,2528.76564 815.321613,2529.32161 C814.765644,2529.87754 814.207968,2530.21948 813.55038,2530.47503 C812.914306,2530.72221 812.187371,2530.89128 811.122987,2530.93982 C810.056381,2530.98849 809.715837,2531 807.00002,2531 C804.284163,2531 803.943619,2530.98849 802.877013,2530.93982 C801.812629,2530.89128 801.085694,2530.72221 800.44962,2530.47503 C799.792032,2530.21948 799.234356,2529.87754 798.678387,2529.32161 C798.122457,2528.76564 797.780524,2528.20797 797.525007,2527.55038 C797.277786,2526.91431 797.108725,2526.18737 797.060178,2525.12299 C797.018464,2524.20875 797.004047,2523.82795 797.00078,2522.02756 L797.00078,2519.97247 C797.004047,2518.17205 797.018464,2517.79125 797.060178,2516.87701 C797.108725,2515.81263 797.277786,2515.08569 797.525007,2514.44962 C797.780524,2513.79203 798.122457,2513.23436 798.678387,2512.67839 C799.234356,2512.12246 799.792032,2511.78052 800.44962,2511.52501 C801.085694,2511.27779 801.812629,2511.10872 802.877013,2511.06018 C803.791247,2511.01846 804.172047,2511.00405 805.972467,2511.00078 Z M807.555884,2512.80198 L806.444148,2512.80198 C804.278984,2512.80352 803.935493,2512.81556 802.959142,2512.86011 C801.984152,2512.90457 801.454659,2513.06748 801.102286,2513.20443 C800.635512,2513.38583 800.302391,2513.60253 799.952479,2513.95248 C799.602527,2514.30239 799.385832,2514.63551 799.204426,2515.10229 C799.067478,2515.45466 798.904569,2515.98415 798.860111,2516.95914 C798.815564,2517.93549 798.803518,2518.27898 798.801978,2520.44415 L798.801978,2521.55588 C798.803518,2523.72102 798.815564,2524.06451 798.860111,2525.04086 C798.904569,2526.01585 799.067478,2526.54534 799.204426,2526.89771 C799.385832,2527.36449 799.602567,2527.69761 799.952479,2528.04752 C800.302391,2528.39747 800.635512,2528.61417 801.102286,2528.79557 C801.454659,2528.93252 801.984152,2529.09543 802.959142,2529.13989 C803.935383,2529.18444 804.278797,2529.19648 806.444108,2529.19802 L807.555924,2529.19802 C809.721208,2529.19648 810.064654,2529.18444 811.040858,2529.13989 C812.015848,2529.09543 812.545341,2528.93252 812.897714,2528.79557 C813.364488,2528.61417 813.697609,2528.39747 814.047521,2528.04752 C814.397473,2527.69761 814.614168,2527.36449 814.795574,2526.89771 C814.932522,2526.54534 815.095431,2526.01585 815.139889,2525.04086 C815.184436,2524.06451 815.196482,2523.72102 815.198022,2521.55588 L815.198022,2520.44415 C815.196482,2518.27898 815.184436,2517.93549 815.139889,2516.95914 C815.095431,2515.98415 814.932522,2515.45466 814.795574,2515.10229 C814.614168,2514.63551 814.397473,2514.30239 814.047521,2513.95248 C813.697609,2513.60253 813.364488,2513.38583 812.897714,2513.20443 C812.545341,2513.06748 812.015848,2512.90457 811.040858,2512.86011 C810.064507,2512.81556 809.721016,2512.80352 807.555884,2512.80198 Z M807.00002,2515.86487 C809.836073,2515.86487 812.135132,2518.16393 812.135132,2521.00002 C812.135132,2523.83607 809.836073,2526.13513 807.00002,2526.13513 C804.163927,2526.13513 801.864868,2523.83607 801.864868,2521.00002 C801.864868,2518.16393 804.163927,2515.86487 807.00002,2515.86487 Z M807.00002,2517.66667 C805.159042,2517.66667 803.666667,2519.15904 803.666667,2521.00002 C803.666667,2522.84096 805.159042,2524.33333 807.00002,2524.33333 C808.840958,2524.33333 810.333333,2522.84096 810.333333,2521.00002 C810.333333,2519.15904 808.840958,2517.66667 807.00002,2517.66667 Z M812.338013,2514.46197 C813.000762,2514.46197 813.538035,2514.99924 813.538035,2515.66199 C813.538035,2516.32474 813.000762,2516.86197 812.338013,2516.86197 C811.675304,2516.86197 811.138032,2516.32474 811.138032,2515.66199 C811.138032,2514.99924 811.675304,2514.46197 812.338013,2514.46197 Z"></path>
        </g>
    </g>
</svg>