<?xml version="1.0" encoding="UTF-8"?>
<svg width="20px" height="20px" viewBox="0 0 20 20" version="1.1" xmlns="http://www.w3.org/2000/svg" xmlns:xlink="http://www.w3.org/1999/xlink">
    <!-- Generator: Sketch 59.1 (86144) - https://sketch.com -->
    <title>Instagram-black</title>
    <desc>Created with Sketch.</desc>
    <g id="Our-Location-(Contact-Us)" stroke="none" stroke-width="1" fill="none" fill-rule="evenodd">
        <g id="Form-Validation-Pop_up" transform="translate(-544.000000, -678.000000)" fill="#0C7DBA">
            <path d="M554.546755,678.000186 C556.76819,678.001834 557.132567,678.014988 558.122987,678.060178 C559.187371,678.108725 559.914306,678.277786 560.55038,678.525007 C561.207968,678.780524 561.765644,679.122457 562.321613,679.678387 C562.877543,680.234356 563.219476,680.792032 563.475033,681.44962 C563.722214,682.085694 563.891275,682.812629 563.939822,683.877013 C563.983274,684.82934 563.997107,685.202854 563.999572,687.205054 L563.999572,688.794974 C563.997107,690.797146 563.983274,691.17066 563.939822,692.122987 C563.891275,693.187371 563.722214,693.914306 563.475033,694.55038 C563.219476,695.207968 562.877543,695.765644 562.321613,696.321613 C561.765644,696.877543 561.207968,697.219476 560.55038,697.475033 C559.914306,697.722214 559.187371,697.891275 558.122987,697.939822 C557.17066,697.983274 556.797146,697.997107 554.794974,697.999572 L553.205054,697.999572 C551.202854,697.997107 550.82934,697.983274 549.877013,697.939822 C548.812629,697.891275 548.085694,697.722214 547.44962,697.475033 C546.792032,697.219476 546.234356,696.877543 545.678387,696.321613 C545.122457,695.765644 544.780524,695.207968 544.525007,694.55038 C544.277786,693.914306 544.108725,693.187371 544.060178,692.122987 C544.014988,691.132567 544.001834,690.76819 544.000186,688.546755 L544.000186,687.453277 C544.001834,685.23181 544.014988,684.867433 544.060178,683.877013 C544.108725,682.812629 544.277786,682.085694 544.525007,681.44962 C544.780524,680.792032 545.122457,680.234356 545.678387,679.678387 C546.234356,679.122457 546.792032,678.780524 547.44962,678.525007 C548.085694,678.277786 548.812629,678.108725 549.877013,678.060178 C550.867433,678.014988 551.23181,678.001834 553.453277,678.000186 Z M554.807113,679.802214 L553.192915,679.802214 C551.250492,679.804534 550.896439,679.817346 549.959142,679.860111 C548.984152,679.904569 548.454659,680.067478 548.102286,680.204426 C547.635512,680.385832 547.302391,680.602527 546.952479,680.952479 C546.602527,681.302391 546.385832,681.635512 546.204426,682.102286 C546.067478,682.454659 545.904569,682.984152 545.860111,683.959142 C545.817346,684.896439 545.804534,685.250492 545.802214,687.192915 L545.802214,688.807113 C545.804534,690.749508 545.817346,691.103561 545.860111,692.040858 C545.904569,693.015848 546.067478,693.545341 546.204426,693.897714 C546.385832,694.364488 546.602567,694.697609 546.952479,695.047521 C547.302391,695.397473 547.635512,695.614168 548.102286,695.795574 C548.454659,695.932522 548.984152,696.095431 549.959142,696.139889 C550.857284,696.180872 551.219801,696.194347 552.958157,696.19744 L555.04187,696.19744 C556.780209,696.194347 557.14275,696.180872 558.040858,696.139889 C559.015848,696.095431 559.545341,695.932522 559.897714,695.795574 C560.364488,695.614168 560.697609,695.397473 561.047521,695.047521 C561.397473,694.697609 561.614168,694.364488 561.795574,693.897714 C561.932522,693.545341 562.095431,693.015848 562.139889,692.040858 C562.180872,691.142615 562.194347,690.780025 562.19744,689.041797 L562.19744,686.958228 C562.194347,685.219975 562.180872,684.857385 562.139889,683.959142 C562.095431,682.984152 561.932522,682.454659 561.795574,682.102286 C561.614168,681.635512 561.397473,681.302391 561.047521,680.952479 C560.697609,680.602527 560.364488,680.385832 559.897714,680.204426 C559.545341,680.067478 559.015848,679.904569 558.040858,679.860111 C557.103561,679.817346 556.749508,679.804534 554.807113,679.802214 Z M554.00002,682.864868 C556.836073,682.864868 559.135132,685.163927 559.135132,688.00002 C559.135132,690.836073 556.836073,693.135132 554.00002,693.135132 C551.163927,693.135132 548.864868,690.836073 548.864868,688.00002 C548.864868,685.163927 551.163927,682.864868 554.00002,682.864868 Z M554.00002,684.666667 C552.159042,684.666667 550.666667,686.159042 550.666667,688.00002 C550.666667,689.840958 552.159042,691.333333 554.00002,691.333333 C555.840958,691.333333 557.333333,689.840958 557.333333,688.00002 C557.333333,686.159042 555.840958,684.666667 554.00002,684.666667 Z M559.338013,681.461965 C560.000762,681.461965 560.538035,681.999238 560.538035,682.661987 C560.538035,683.324735 560.000762,683.861968 559.338013,683.861968 C558.675304,683.861968 558.138032,683.324735 558.138032,682.661987 C558.138032,681.999238 558.675304,681.461965 559.338013,681.461965 Z" id="Instagram"></path>
        </g>
    </g>
</svg>