<?xml version="1.0" encoding="UTF-8"?>
<svg width="170px" height="70px" viewBox="0 0 170 70" version="1.1" xmlns="http://www.w3.org/2000/svg" xmlns:xlink="http://www.w3.org/1999/xlink">
    <!-- Generator: Sketch 59.1 (86144) - https://sketch.com -->
    <title>Group 10</title>
    <desc>Created with Sketch.</desc>
    <defs>
        <polygon id="path-1" points="3.03165403e-05 0.0649845238 169.991436 0.0649845238 169.991436 18.9419369 3.03165403e-05 18.9419369"></polygon>
    </defs>
    <g id="Home-Page-V2" stroke="none" stroke-width="1" fill="none" fill-rule="evenodd" opacity="0.752441406">
        <g id="Home-Page" transform="translate(-131.000000, -2450.000000)">
            <g id="Group-10" transform="translate(131.000000, 2450.000000)">
                <path d="M65.1006489,36 C57.454157,38.479761 50.054644,41.6840067 43,45.5703302 C45.2428324,46.4411073 47.4856648,47.3108765 49.6631609,48.2479387 C56.4678456,44.1595038 63.6485773,40.752604 71.1037981,38.0753831 C69.1245272,37.3383391 67.1463261,36.6023805 65.1006489,36 M73.9413059,39.1451706 C76.3160336,40.0823103 78.6907614,41.0868205 81,42.224056 C73.6042315,45.2338654 66.4568939,48.8372948 59.6257689,53 C57.3165304,51.7943862 54.9418026,50.590788 52.5670748,49.5189849 C59.4275438,45.5040451 66.5526441,42.0239602 73.9413059,39.1451706" id="Fill-1" fill="#636466"></path>
                <path d="M104.511795,36.9162799 C88.5393631,41.0926091 73.5503515,47.8794842 60,56.8840043 C63.0112229,58.3848584 66.02237,59.9514732 68.9676272,61.6474172 C82.2563904,52.5116026 96.9847993,45.3335651 112.693672,40.6347791 C110.010913,39.3309045 107.326258,38.0261228 104.511795,36.9162799 L104.511795,36.9162799 Z M115.115828,41.8758409 C99.7324625,47.0314744 85.331456,54.4046773 72.3063284,63.6062526 C75.5790638,65.6286565 78.7210051,67.7167455 81.7971323,70 C94.1905051,60.2098293 107.866798,52.1524135 122.44705,46.0511875 C120.054464,44.5719512 117.609106,43.179262 115.115828,41.8758409 L115.115828,41.8758409 Z M99.4069556,36.6555806 C93.3186957,33.9801811 86.9688474,31.7617046 80.4882049,30 C78.3936027,30.3911624 76.3648145,30.8480098 74.3360264,31.369484 C80.7507789,33.2625588 87.0337516,35.6114983 93.0571073,38.4829703 C95.1507239,37.8299748 97.3112919,37.1780375 99.4069556,36.6555806 L99.4069556,36.6555806 Z M89.6535019,39.526977 C83.6423536,36.6634416 77.4289862,34.2423922 71.063291,32.2831789 C68.7719288,32.9351162 66.5465324,33.6527385 64.3859644,34.3713435 C70.9386384,36.3341094 77.3291277,38.7991504 83.5004135,41.7445464 C85.5301115,40.961239 87.5578381,40.2445993 89.6535019,39.526977 L89.6535019,39.526977 Z M122.708638,51.9253503 L122.448111,51.9253503 L122.448111,49.3157115 L122.904336,49.3157115 L123.757948,51.4028179 L124.475838,49.3157115 L125,49.3157115 L125,51.9253503 L124.673507,51.9253503 L124.673507,49.6411888 L123.820881,51.9253503 L123.559293,51.9253503 L122.708638,49.6411888 L122.708638,51.9253503 Z M120.155687,51.1421186 C120.286557,51.5332809 120.614945,51.6635928 120.941514,51.6635928 C121.137212,51.6635928 121.334806,51.6635928 121.465676,51.5332809 C121.547413,51.443786 121.593892,51.3277601 121.596395,51.206821 C121.596395,50.9459705 121.400696,50.8156586 121.137212,50.8156586 L120.67985,50.6852711 C120.549131,50.6195861 120.351386,50.6195861 120.220667,50.489123 C120.089873,50.3588112 120.024969,50.1637213 120.024969,49.9676488 C120.024969,49.446099 120.484151,49.2510091 120.941514,49.2510091 C121.334806,49.2510091 121.727189,49.446099 121.857983,49.9029464 L121.531566,49.9676488 C121.531566,49.7058912 121.203102,49.5108014 120.87661,49.5108014 C120.680911,49.5108014 120.352447,49.6411888 120.352447,49.9019637 C120.352447,50.2284237 120.550041,50.2931261 120.811705,50.3588112 L121.203102,50.4235136 C121.400696,50.488216 121.596395,50.553901 121.727189,50.6186035 C121.857983,50.814676 121.922887,50.9459705 121.922887,51.206821 C121.922887,51.4019108 121.857983,51.6635928 121.661375,51.7939803 C121.465676,51.9253503 121.202041,51.9901283 120.941514,51.9901283 C120.417276,51.9901283 120.090859,51.7283708 119.895161,51.206821 L120.155687,51.142043 L120.155687,51.1421186 Z" id="Fill-3" fill="#636466"></path>
                <g id="Group-7">
                    <mask id="mask-2" fill="white">
                        <use xlink:href="#path-1"></use>
                    </mask>
                    <g id="Clip-6"></g>
                    <path d="M166.720084,17.1836829 C166.720084,17.9640401 167.37477,18.549798 168.224997,18.549798 C169.010498,18.549798 169.665108,17.9640401 169.665108,17.1836829 C169.665108,16.4023456 169.010498,15.7511433 168.224997,15.7511433 C167.37477,15.7511433 166.720084,16.4023456 166.720084,17.1836829 L166.720084,17.1836829 Z M166.39365,17.1836829 C166.39365,16.2067663 167.177106,15.4263955 168.224997,15.4263955 C169.196794,15.4226393 169.987676,16.203298 169.99148,17.1699607 L169.99148,17.1836829 C169.995255,18.150421 169.210588,18.9371115 168.238791,18.9409577 C168.234243,18.9409577 168.22962,18.9409577 168.224997,18.9409577 C167.177106,18.9419369 166.39365,18.1596194 166.39365,17.1836829 L166.39365,17.1836829 Z M104.886695,9.50248056 L104.886695,18.6808377 L100.764934,18.6808377 L100.764934,9.89363929 C100.764934,9.17774643 100.569317,8.72212341 99.783967,8.72212341 C99.3906857,8.72212341 98.7380464,9.0477623 98.4097182,9.50248056 L98.4097182,18.6808377 L94.2879572,18.6808377 L94.2879572,5.85787341 L98.3448408,5.85787341 L98.4097182,7.16042897 C99.3258841,6.31455198 100.63518,5.53329008 102.140169,5.53329008 C103.447569,5.53329008 104.297797,6.24903214 104.692063,7.22496865 L104.756865,7.22496865 C105.476428,6.44363135 106.718951,5.53329008 108.422438,5.53329008 C110.188907,5.53329008 111.365568,6.63921071 111.365568,8.46200437 L111.365568,18.6818179 L107.243882,18.6818179 L107.243882,9.89461944 C107.243882,9.17880198 107.048265,8.72310357 106.262839,8.72310357 C105.737908,8.72212341 105.150146,9.17774643 104.88662,9.50248056 L104.886695,9.50248056 Z M126.021114,5.85787341 L130.077922,5.85787341 L130.077922,7.55060754 L130.142723,7.55060754 C130.993026,6.1835123 132.563878,5.53329008 134.199607,5.53329008 L134.199607,9.69896468 C133.675661,9.50346071 133.218488,9.37340119 132.499,9.37340119 C131.387217,9.37340119 130.667654,9.76350437 130.208662,10.3503179 L130.208662,18.6818179 L126.021114,18.6818179 L126.021114,5.85787341 Z M84.0805296,11.7808972 L87.0895221,11.7808972 L85.7821213,4.36079405 L85.6494106,4.36079405 L84.0805296,11.7808972 Z M82.9678368,0.455087698 L89.0535791,0.455087698 L92.9147695,18.6808377 L88.4647561,18.6808377 L87.745193,14.9707107 L83.4917066,14.9707107 L82.6414793,18.6808377 L78.6504583,18.6808377 L82.9678368,0.455087698 Z M148.921925,10.6093813 C148.921925,10.0892187 148.921925,9.43794087 148.726308,8.98224246 C148.53069,8.46102421 148.202362,8.07084563 147.549647,8.07084563 C146.175474,8.07084563 145.978795,9.7625996 145.978795,12.3666552 C145.978795,15.2309052 146.435893,16.2067663 147.549647,16.2067663 C148.987788,16.2067663 149.118528,14.7096869 149.118528,13.7337504 L152.38991,14.1894488 C152.063552,17.3137425 150.232206,18.9409567 147.221319,18.9409567 C143.492839,18.9409567 141.528782,15.6866036 141.528782,12.4967147 C141.528782,8.98224246 143.492839,5.46769484 147.416936,5.46769484 C151.802072,5.46769484 152.521635,9.30788135 152.521635,10.6094567 L148.921925,10.6094567 L148.921925,10.6093813 Z M135.509963,4.16611944 L139.697511,4.16611944 L139.697511,0.455087698 L135.509963,0.455087698 L135.509963,4.16611944 Z M135.509963,18.6808377 L139.697511,18.6808377 L139.697511,5.85787341 L135.509963,5.85787341 L135.509963,18.6808377 Z M120.459317,10.6739964 C120.459317,9.50248056 120.328501,8.07084563 118.88839,8.07084563 C117.711805,8.07084563 117.252737,9.50248056 117.319584,10.6739964 L120.459317,10.6739964 Z M117.32057,13.1479925 C117.253722,14.2539885 117.58205,16.2067663 119.28258,16.2067663 C120.2637,16.2067663 121.113927,15.4255044 121.30962,14.4495679 L124.123829,15.4264091 C123.928211,16.0121671 122.683793,18.9419369 118.953343,18.9419369 C114.961412,18.9419369 113.130066,15.7521234 113.130066,12.172056 C113.130066,8.52654405 115.094123,5.46769484 118.88748,5.46769484 C122.879411,5.46769484 124.318537,8.91770278 124.318537,12.3021155 L124.318537,13.1479925 L117.32057,13.1479925 Z M160.177244,12.4967147 C158.737208,12.6267742 157.625425,13.2125321 157.625425,14.8397464 C157.625425,15.7511433 158.082447,16.2067663 158.80201,16.2067663 C159.325955,16.2067663 159.783129,15.8812028 160.176259,15.4255044 L160.176259,12.4967147 L160.177244,12.4967147 Z M160.177244,9.43794087 C160.177244,8.65660357 159.784038,8.13636548 159.065461,8.13636548 C158.082447,8.13636548 157.756165,9.0477623 157.691288,9.82804405 L154.093472,9.04678214 C154.55057,6.57369087 156.905862,5.53223452 159.262139,5.53223452 C161.74802,5.53223452 164.364792,6.57271071 164.364792,9.43688532 L164.364792,16.5969448 C164.364792,18.0285798 164.560409,18.4842782 164.69312,18.6798575 L160.438724,18.6798575 C160.373847,18.289679 160.307984,17.7029409 160.307984,17.5083417 C159.588421,18.2241591 158.345973,18.9409567 157.101479,18.9409567 C155.074515,18.9409567 153.437801,17.5083417 153.503664,15.1653099 C153.63448,11.8454369 157.429807,10.8039806 160.177244,10.4793218 L160.177244,9.43794087 Z M4.45102898,7.6796869 L6.02081944,7.6796869 C7.65654837,7.6796869 8.31123406,6.76829008 8.31123406,5.72683373 C8.31123406,3.96963532 7.13358805,3.70951627 6.08668212,3.70951627 L4.45102898,3.70951627 L4.45102898,7.6796869 Z M4.45102898,15.2963496 L6.15155952,15.2963496 C7.19846545,15.2963496 8.50685154,14.8406512 8.50685154,13.0179329 C8.50685154,11.6518179 7.65654837,10.740421 6.15155952,10.740421 L4.45102898,10.740421 L4.45102898,15.2963496 Z M9.61962015,9.17782183 C11.5826919,9.8290996 13.0217423,11.4562385 13.0217423,13.8002504 C13.0217423,16.9235639 10.535786,18.6818179 7.00186268,18.6818179 L3.03165403e-05,18.6818179 L3.03165403e-05,0.455087698 L7.19748016,0.455087698 C10.468938,0.455087698 12.5626741,2.40794087 12.5626741,4.88103214 C12.5626741,7.28950833 10.927021,8.52654405 9.61863486,9.04678214 L9.61863486,9.17782183 L9.61962015,9.17782183 Z M40.503383,0.455087698 L44.6909309,0.455087698 L44.6909309,9.69798452 L44.7558083,9.69798452 L47.8315729,5.85787341 L51.9533339,5.85787341 L48.4862586,9.76350437 L51.9533339,18.6808377 L47.6349701,18.6808377 L45.6070967,13.0824726 L45.5412341,13.0824726 L44.6909309,14.0593893 L44.6909309,18.6808377 L40.503383,18.6808377 L40.503383,0.455087698 Z M31.4735256,9.50248056 L31.4735256,18.6808377 L27.2859777,18.6808377 L27.2859777,5.85787341 L31.3428613,5.85787341 L31.4086482,7.16042897 C32.3248141,6.24903214 33.4365974,5.53329008 35.0723263,5.53329008 C36.904658,5.53329008 37.951564,6.76927024 37.951564,8.52752421 L37.951564,18.6818179 L33.7639403,18.6818179 L33.7639403,9.8290996 C33.7639403,9.11320675 33.5014748,8.72310357 32.7819875,8.72310357 C32.3248141,8.72212341 31.8658217,8.98224246 31.4735256,9.50248056 L31.4735256,9.50248056 Z M20.6773509,12.4967147 C19.2382247,12.6267742 18.1254561,13.2125321 18.1254561,14.8397464 C18.1254561,15.7511433 18.583539,16.2067663 19.3689648,16.2067663 C19.8270477,16.2067663 20.3509175,15.8812028 20.6773509,15.4255044 L20.6773509,12.4967147 Z M20.6773509,9.43794087 C20.6773509,8.65660357 20.350008,8.13636548 19.6314302,8.13636548 C18.5845243,8.13636548 18.2571815,9.0477623 18.2571815,9.82804405 L14.5925938,9.04678214 C15.0496915,6.57369087 17.405893,5.53223452 19.761185,5.53223452 C22.2471413,5.53223452 24.8648988,6.57271071 24.8648988,9.43688532 L24.8648988,16.5969448 C24.8648988,18.0285798 25.0615016,18.4842782 25.257119,18.6798575 L20.9387552,18.6798575 C20.8738778,18.289679 20.8080909,17.7029409 20.8080909,17.5083417 C20.0885279,18.2241591 18.8450192,18.9409567 17.6673732,18.9409567 C15.5736371,18.9409567 14.0027856,17.5083417 14.0686482,15.1653099 C14.1335256,11.8454369 17.9288533,10.8039806 20.6773509,10.4793218 L20.6773509,9.43794087 Z M69.2933339,8.72212341 L67.5918181,8.72212341 L67.5918181,5.85787341 L69.2933339,5.85787341 L69.2933339,4.42631389 C69.2933339,1.236425 70.8641855,0.0649845238 73.6116219,0.0649845238 C74.3970477,0.0649845238 75.0507481,0.195044048 75.7054338,0.260488492 L75.7054338,3.45037738 C75.4513812,3.37053214 75.1873241,3.32672659 74.9209933,3.32031786 C73.80921,3.32031786 73.4160045,3.77601627 73.4160045,4.55629802 L73.4160045,5.85885357 L75.7054338,5.85885357 L75.7054338,8.72310357 L73.4160045,8.72310357 L73.4160045,18.6818179 L69.2933339,18.6818179 L69.2933339,8.72212341 Z M60.7865127,16.337806 C61.8334186,16.337806 62.2915016,15.4264091 62.2915016,12.172056 C62.2915016,9.17774643 61.9641587,8.07182579 60.7865127,8.07182579 C59.6088667,8.07182579 59.2815239,9.17774643 59.2815239,12.172056 C59.2815239,15.4264091 59.7396068,16.337806 60.7865127,16.337806 L60.7865127,16.337806 Z M60.7865127,5.46769484 C64.6467178,5.46769484 66.6097896,8.33194484 66.6097896,12.172056 C66.6097896,16.1432067 64.7115952,18.9419369 60.7865127,18.9419369 C56.7955675,18.9419369 54.9632358,16.1432067 54.9632358,12.172056 C54.9632358,8.33194484 56.9263076,5.46769484 60.7865127,5.46769484 Z" id="Fill-5" fill="#636466" mask="url(#mask-2)"></path>
                </g>
                <path d="M167.801241,16.8002008 C168.120682,16.8002008 168.601278,16.8662986 168.601278,16.532798 C168.601278,16.266399 168.35973,16.1992973 168.040289,16.1992973 L167.400019,16.1992973 L167.400019,16.7991969 L167.801241,16.7991969 L167.801241,16.8002008 Z M168.919515,18 L168.520793,18 L167.799944,17.0665997 L167.398722,17.0665997 L167.398722,18 L167,18 L167,16 L168.11957,16 C168.279244,16 168.520793,16 168.680467,16.0660978 C168.919515,16.1992973 169,16.3324968 169,16.532798 C169,16.9323964 168.601278,17.0665997 168.200056,17.0665997 L168.919515,18 Z" id="Fill-8" fill="#636466"></path>
            </g>
        </g>
    </g>
</svg>