<?xml version="1.0" encoding="UTF-8"?>
<svg width="92px" height="88px" viewBox="0 0 92 88" version="1.1" xmlns="http://www.w3.org/2000/svg" xmlns:xlink="http://www.w3.org/1999/xlink">
    <!-- Generator: Sketch 59.1 (86144) - https://sketch.com -->
    <title>Group 8</title>
    <desc>Created with Sketch.</desc>
    <g id="Home-Page-V2" stroke="none" stroke-width="1" fill="none" fill-rule="evenodd" opacity="0.752441406">
        <g id="Home-Page" transform="translate(-613.000000, -2415.000000)" fill="#636466">
            <g id="Group-8" transform="translate(613.000000, 2415.000000)">
                <path d="M89.5622502,78.3259782 L92,78.3259782 L92,46.8846154 L89.5622502,46.8846154 L89.5622502,78.3259782 Z M81.4146547,62.5955692 L81.4146547,68.3870268 C81.4146547,69.3858742 81.2507572,70.3847215 80.9274649,71.351291 C80.6041727,72.3169761 80.1214856,73.1986501 79.4911107,73.9697833 C78.8620866,74.7382634 78.0682645,75.3648091 77.1335086,75.8312916 C76.2005537,76.2964476 75.1037014,76.5330051 73.8740201,76.5330051 C72.9203529,76.5330051 71.9765917,76.3645408 71.0715534,76.032476 C70.1701173,75.7035064 69.3650385,75.1543393 68.6756785,74.4035457 C67.9849678,73.6496569 67.4239341,72.6534625 67.0078867,71.443261 C66.591389,70.2295221 66.3788626,68.7186494 66.3788626,66.9530905 C66.3788626,65.3396359 66.5828339,63.9233862 66.9840225,62.7405988 C67.3843105,61.5604644 67.9304854,60.5717868 68.6067876,59.801538 C69.2799379,59.0365951 70.0634039,58.4564766 70.9360228,58.0797533 C71.8099926,57.7039143 72.7519528,57.5128996 73.730835,57.5128996 C75.326584,57.5128996 76.7881532,57.9780557 78.0781704,58.8986401 C79.3686379,59.8165715 80.4902549,61.061704 81.4146547,62.5955692 L81.4146547,62.5955692 Z M81.4650847,59.8408905 C81.183217,59.3916524 80.8437151,58.9406456 80.4519822,58.4940605 C79.9593892,57.9316285 79.3641352,57.411202 78.6837806,56.9456039 C78.0016249,56.4791214 77.2240124,56.0922283 76.3671528,55.7964209 C75.5080419,55.499287 74.5426678,55.3498358 73.4957952,55.3498358 C72.1954218,55.3498358 70.9553843,55.6107122 69.813055,56.1253905 C68.6698251,56.6400689 67.6486177,57.4067804 66.7755485,58.4025326 C65.9051809,59.398727 65.2068155,60.6270572 64.7016151,62.0530345 C64.1968649,63.4798962 63.9402123,65.1278396 63.9402123,66.9530905 C63.9402123,69.0263952 64.1878596,70.8211369 64.6764001,72.2908884 C65.1667417,73.7668302 65.8574525,74.9978134 66.7300715,75.9471385 C67.6040412,76.8995587 68.6522646,77.6043673 69.845024,78.0403405 C71.0337309,78.4758716 72.3399578,78.696069 73.730835,78.696069 C75.5391104,78.696069 77.1263043,78.252579 78.4455889,77.3779796 C79.6284424,76.5940237 80.624885,75.5589189 81.4133039,74.293447 L81.4133039,77.1290415 C81.4133039,78.6465467 81.2331968,79.9553507 80.878836,81.0183118 C80.5262763,82.0724296 80.0287304,82.9350906 79.402408,83.5815336 C78.7783368,84.2253237 78.011981,84.6949013 77.1276551,84.980539 C76.232973,85.2675031 75.2176192,85.4138592 74.1086096,85.4138592 C72.6528939,85.4138592 71.2935354,85.2440684 70.0710584,84.9106771 C68.8427279,84.5746329 67.7827975,84.1731484 66.9191839,83.7190465 L66.7755485,83.6438787 L66.1262624,85.6123906 L66.2266721,85.6650081 C67.1082964,86.1283954 68.2330653,86.567906 69.5717114,86.9693904 C70.9153105,87.3726435 72.409299,87.5769231 74.0158545,87.5769231 C77.0835289,87.5769231 79.5163257,86.7085139 81.2480556,84.9933617 C82.9766336,83.2786516 83.8537553,80.6486631 83.8537553,77.1750265 L83.8537553,55.7194844 L81.9964007,55.7194844 L81.4650847,59.8408905 Z M58.0538615,66.8080609 L58.0538615,69.1727514 C58.0538615,70.0760914 57.8679009,70.9776628 57.4991316,71.8500514 C57.129912,72.7259773 56.5922923,73.5289462 55.9015815,74.2381765 C55.2108708,74.9469646 54.3454561,75.5284096 53.331453,75.9661515 C52.3188008,76.4038934 51.1332457,76.6258595 49.8058563,76.6258595 C49.1313551,76.6258595 48.4789171,76.5343316 47.8661027,76.3548132 C47.2582412,76.1766213 46.7201712,75.8967318 46.265851,75.523988 C45.8128816,75.1525707 45.4526673,74.6790135 45.1955644,74.1148129 C44.9384615,73.5492858 44.8074336,72.8679118 44.8074336,72.0879354 C44.8074336,70.2618001 45.4139443,68.9132014 46.6098556,68.0810497 C47.8219764,67.2374017 49.8472809,66.8098296 52.6312866,66.8098296 L58.0538615,66.8098296 L58.0538615,66.8080609 Z M52.0662006,55.3480671 C50.4600954,55.3480671 48.9733111,55.5439455 47.6459217,55.9321651 C46.3234852,56.3195003 45.2189784,56.767412 44.3657209,57.2630773 L44.2729658,57.3183477 L44.8749738,59.1466938 L45.01996,59.0679887 C45.9173437,58.5829353 46.9462056,58.1810087 48.0741264,57.8781267 C49.2051991,57.573476 50.5483479,57.4200453 52.0662006,57.4200453 C54.0001007,57.4200453 55.4999427,57.8608823 56.5216003,58.7292915 C57.5374044,59.5932789 58.0525107,61.1311236 58.0525107,63.2999356 L58.0525107,64.7391779 L52.6299358,64.7391779 C49.3186665,64.7391779 46.7724022,65.3555538 45.0609344,66.5688505 C43.3355082,67.7927591 42.4615385,69.6498458 42.4615385,72.0879354 C42.4615385,73.1508964 42.6474991,74.1033166 43.0149176,74.9164553 C43.3809853,75.7313627 43.9010446,76.4317497 44.5561842,76.9981611 C45.2104233,77.5619196 45.9943395,77.9912604 46.8885713,78.274245 C47.7760491,78.5550188 48.7418735,78.6973955 49.7558766,78.6973955 C51.7176933,78.6973955 53.437266,78.2711499 54.8650651,77.4292706 C56.1820984,76.6532736 57.2699453,75.569973 58.1029407,74.2103202 L58.6324556,78.3277468 L60.4425321,78.3277468 L60.4425321,63.2986091 C60.4425321,60.8702472 59.7396641,58.9172109 58.3564415,57.4938866 C56.9718681,56.0701201 54.8551592,55.3480671 52.0662006,55.3480671 L52.0662006,55.3480671 Z" id="Fill-1"></path>
                <path d="M7.66438659,17.6282783 C9.35704112,16.3379073 11.8530832,16.5980875 13.2109929,18.2065541 L34.5210795,43.4471074 C35.8789892,45.0551353 35.605191,47.42747 33.9125365,48.7178411 C32.2203437,50.0082122 29.7238398,49.7480319 28.3659301,48.1400041 L7.05584358,22.899012 C5.69793387,21.2909841 5.97173206,18.9186494 7.66438659,17.6282783" id="Fill-3"></path>
                <path d="M0.051252957,60.0154404 C0.391112719,57.8074488 2.33454851,56.3019566 4.37019432,56.6710665 L27.8266652,60.915116 C29.862311,61.2837496 31.2498522,63.3917244 30.9104315,65.599716 C30.5705717,67.8077076 28.627136,69.3127235 26.591051,68.9445661 L3.13370196,64.7000404 C1.09805615,64.331883 -0.288606805,62.2239083 0.051252957,60.0154404" id="Fill-4"></path>
                <path d="M39.6645568,0.0250976973 C41.7620456,-0.213256073 43.6766949,1.27326079 43.9215293,3.32988815 L47.7436401,35.6080994 C47.9866774,37.6651674 46.4709508,39.5429193 44.373462,39.7825948 C42.2759731,40.0209485 40.3613238,38.5344317 40.1164895,36.4773637 L36.2948279,4.19959303 C36.0517905,2.14252509 37.5670679,0.264773208 39.6645568,0.0250976973" id="Fill-5"></path>
                <path d="M65.7189324,9.07251203 C67.6043111,9.78008139 68.5828636,11.9471774 67.895486,13.887939 L59.2669753,38.2252487 C58.5795977,40.1660104 56.4743435,41.1733079 54.5889649,40.466178 C52.7035862,39.7586087 51.7250337,37.5915127 52.4119844,35.6503115 L61.040495,11.3130018 C61.7291535,9.37224017 63.8331268,8.36494266 65.7189324,9.07251203" id="Fill-6"></path>
                <path d="M81.0454238,28.424111 C82.5695758,29.859034 82.6860437,32.3270832 81.3050682,33.9097255 L71.0852367,45.6136423 C69.7029477,47.1967391 67.3254281,47.3171871 65.8012761,45.8836278 C64.2762483,44.4487048 64.1602183,41.9806556 65.5411938,40.3980133 L75.7610253,28.693642 C77.1420007,27.1109997 79.5208339,26.9905517 81.0454238,28.424111" id="Fill-7"></path>
            </g>
        </g>
    </g>
</svg>