<?xml version="1.0" encoding="UTF-8"?>
<svg width="77px" height="51px" viewBox="0 0 77 51" version="1.1" xmlns="http://www.w3.org/2000/svg" xmlns:xlink="http://www.w3.org/1999/xlink">
    <!-- Generator: Sketch 59.1 (86144) - https://sketch.com -->
    <title>Group 15</title>
    <desc>Created with Sketch.</desc>
    <defs>
        <polygon id="path-1" points="0.11362569 0.267577555 14.5639514 0.267577555 14.5639514 49.8562498 0.11362569 49.8562498"></polygon>
        <polygon id="path-3" points="0.343259423 0.282063629 14.786197 0.282063629 14.786197 49.875 0.343259423 49.875"></polygon>
    </defs>
    <g id="Home-Page-V2" stroke="none" stroke-width="1" fill="none" fill-rule="evenodd" opacity="0.752441406">
        <g id="Home-Page" transform="translate(-887.000000, -2609.000000)">
            <g id="Group-15" transform="translate(887.000000, 2609.000000)">
                <path d="M15.7260622,49.8705821 C14.1976684,49.8705821 12.7559585,49.8909175 11.3160622,49.844331 C11.1416062,49.8384153 10.8746632,49.4945627 10.8256995,49.2682855 C9.60378238,43.5747517 8.40544041,37.875672 7.20238342,32.1773318 C7.10953368,31.7380878 7.01305699,31.2995833 6.89082902,30.7353692 C6.7834715,30.9893765 6.70948187,31.1320938 6.66124352,31.2836847 C6.38088083,32.1621727 6.1534715,33.0613657 5.82160622,33.9187789 C4.97181347,36.1164777 4.69507772,38.3762918 4.77777202,40.734825 C4.8742487,43.4841669 4.80025907,46.2394246 4.80025907,48.9917244 L4.80025907,49.816601 L0,49.816601 L0,0.948489753 L4.77813472,0.948489753 L4.77813472,22.5875413 C4.81948187,22.5964149 4.86046632,22.6052885 4.90181347,22.6141621 C4.96637306,22.4363201 5.04435233,22.2625451 5.09440415,22.080636 C6.96663212,15.2845555 8.84248705,8.48958422 10.6947668,1.68832747 C10.8554404,1.09749255 11.0770466,0.846812905 11.724456,0.877500827 C13.0403109,0.939985871 14.3608808,0.89635726 15.75,0.89635726 C15.1080311,3.29149405 14.4939896,5.59678548 13.8719689,7.8998585 C12.6010881,12.6043538 11.3178756,17.3055215 10.066943,22.0155628 C9.95849741,22.425228 9.97772021,22.9084704 10.0673057,23.3288579 C11.9145078,32.0116909 13.7805699,40.6904569 15.6419171,49.3699623 C15.6712953,49.5067639 15.6887047,49.6454141 15.7260622,49.8705821" id="Fill-1" fill="#626366"></path>
                <g id="Group-5" transform="translate(22.750000, 0.000000)">
                    <mask id="mask-2" fill="white">
                        <use xlink:href="#path-1"></use>
                    </mask>
                    <g id="Clip-4"></g>
                    <path d="M5.2113609,25.0457324 C5.2113609,30.8137579 5.21097949,36.5817835 5.21250513,42.3501731 C5.21250513,42.6534276 5.20792821,42.9592306 5.244925,43.2592087 C5.36506923,44.2250362 6.21103718,44.957507 7.22787692,44.9982807 C8.60896346,45.0532525 9.50070064,44.1420326 9.50070064,42.6526995 C9.5029891,30.9295262 9.50222628,19.2063528 9.50146346,7.48317947 C9.50146346,7.31972053 9.50642179,7.15480538 9.48658846,6.99353075 C9.34851795,5.86570046 8.39918782,5.0986448 7.21452756,5.15143221 C5.98905641,5.20603987 5.215175,6.08267491 5.21403077,7.46097235 C5.20869103,13.322559 5.21174231,19.1841457 5.2113609,25.0457324 M14.5520981,25.0755846 C14.5520981,31.0085253 14.5639514,36.94183 14.5479026,42.8747707 C14.5379859,46.4563054 11.9833,49.288987 8.36753077,49.7844605 C4.03585449,50.3782278 0.167973077,47.2153519 0.12830641,43.0127461 C0.0993192308,39.9295974 0.122203846,36.8460846 0.122203846,33.7625718 C0.122203846,24.9798391 0.119915385,16.1971065 0.123348077,7.41437381 C0.125255128,3.63406724 2.71159808,0.814491515 6.61647628,0.319382026 C10.4462167,-0.166262135 14.2858737,2.81531633 14.5089987,6.50679443 C14.6005372,8.02015484 14.5498096,9.54225246 14.5509538,11.0603455 C14.5547679,15.7322132 14.5524795,20.4037169 14.5520981,25.0755846" id="Fill-3" fill="#626366" mask="url(#mask-2)"></path>
                </g>
                <g id="Group-8" transform="translate(62.125000, 0.000000)">
                    <mask id="mask-4" fill="white">
                        <use xlink:href="#path-3"></use>
                    </mask>
                    <g id="Clip-7"></g>
                    <path d="M9.68606603,25.1152297 C9.68606603,19.3472042 9.68644744,13.5791786 9.68492179,7.81078905 C9.68492179,7.50753449 9.69255,7.20173157 9.65784167,6.90138942 C9.55104679,5.96869051 8.73139615,5.22529818 7.75765577,5.15576442 C6.33995385,5.05455821 5.40321026,5.97233102 5.40321026,7.48387117 C5.40130321,19.2070445 5.40206603,30.9302179 5.40244744,42.6530272 C5.40282885,42.8168502 5.39634487,42.9814013 5.41388974,43.14304 C5.53060128,44.2355573 6.45323269,45.0168109 7.59860769,44.9999762 C8.86908526,44.9804058 9.68225192,44.097946 9.68377756,42.6996257 C9.68911731,36.8384031 9.68568462,30.9768164 9.68606603,25.1152297 M14.7801814,25.1330682 C14.7801814,30.995383 14.7847583,36.8576978 14.7794186,42.7203766 C14.7756045,46.5308995 12.1576045,49.3603046 8.22030641,49.8295664 C4.48019744,50.275529 0.727501923,47.3795026 0.393386538,43.7870464 C0.36554359,43.4845199 0.347235897,43.1809013 0.347235897,42.8776467 C0.344947436,31.0124934 0.338463462,19.1477042 0.349524359,7.28291496 C0.352575641,4.04832099 2.46101154,1.36999708 5.58857564,0.543237044 C10.2539859,-0.689439964 14.7580596,2.5892042 14.7752231,7.26580456 C14.7965821,13.2213164 14.7801814,19.1771923 14.7801814,25.1330682" id="Fill-6" fill="#626366" mask="url(#mask-4)"></path>
                </g>
                <path d="M42.9941672,30.7407141 L47.832263,30.7407141 L47.832263,31.5856285 C47.8326313,35.6626873 47.8282119,39.7393809 47.8359458,43.8160746 C47.8381555,44.7898804 48.4336644,45.5734527 49.3098028,45.8235678 C50.1439572,46.0616336 51.1169533,45.7746402 51.5518921,45.0268508 C51.7967984,44.6062192 51.9341669,44.0632686 51.9374814,43.5739924 C51.9654707,38.9353613 51.954054,34.2959999 51.954054,29.6570037 L51.954054,7.51542703 L51.954054,6.59639094 C50.7630361,6.59639094 49.636099,6.57083174 48.5117398,6.60771002 C48.000567,6.62450607 47.6974725,6.47516727 47.4488834,6.01619693 C46.7793501,4.77913126 46.0553114,3.57127613 45.3566841,2.34954599 C45.2565119,2.17391772 45.1776999,1.98624011 45.0627965,1.75 L56.831924,1.75 C56.8459187,2.0012105 56.8720666,2.24730916 56.8720666,2.49340782 C56.873908,16.1529788 56.8783273,29.8125497 56.8705935,43.4724858 C56.8683838,47.2033999 54.4874529,50.1397877 51.0882274,50.6586397 C46.8500599,51.3052876 43.1234335,48.4539754 42.9610219,44.172443 C42.7945593,39.7740684 42.9208794,35.3647399 42.9212477,30.9601582 C42.9212477,30.9163424 42.949237,30.8725266 42.9941672,30.7407141" id="Fill-9" fill="#626366"></path>
                <path d="M27.1258848,25.3456909 C27.1258848,19.4255304 27.1227743,13.5053698 27.1282176,7.58520928 C27.1297729,6.19313874 27.91828,5.30774363 29.1675273,5.25259028 C30.375172,5.19927538 31.3433095,5.97399609 31.4840588,7.11309661 C31.5042769,7.27598283 31.4992224,7.44254595 31.4992224,7.60763831 C31.5,19.4479594 31.5007776,31.2882805 31.4984448,43.1286015 C31.4980559,44.6328172 30.5890176,45.5531428 29.1815245,45.4976217 C28.1445676,45.4564406 27.2821865,44.7166503 27.1601001,43.7411714 C27.1219967,43.4381957 27.1270512,43.1293369 27.1270512,42.823052 C27.1254959,36.9970198 27.1258848,31.1713554 27.1258848,25.3456909" id="Fill-11" fill="#FEFEFE"></path>
                <path d="M71.7492466,25.4165666 C71.7488572,31.3367218 71.7523619,37.2568771 71.7469102,43.1766646 C71.7453526,44.5889568 70.9151494,45.4802341 69.6180541,45.5 C68.4486825,45.517003 67.5067211,44.7279431 67.3875643,43.6245094 C67.3696519,43.4612556 67.3762717,43.2950604 67.3758823,43.1296005 C67.3754929,31.2896577 67.3747141,19.4493472 67.3766611,7.60903673 C67.3766611,6.08239338 68.3330303,5.15545025 69.7804344,5.2576677 C70.7745756,5.32789624 71.6113986,6.0787165 71.720431,7.02073486 C71.7558665,7.32407801 71.7480784,7.63293649 71.7480784,7.93922115 C71.749636,13.7652481 71.7492466,19.5909073 71.7492466,25.4165666" id="Fill-13" fill="#FEFEFE"></path>
            </g>
        </g>
    </g>
</svg>