<?xml version="1.0" encoding="UTF-8"?>
<svg width="172px" height="66px" viewBox="0 0 172 66" version="1.1" xmlns="http://www.w3.org/2000/svg" xmlns:xlink="http://www.w3.org/1999/xlink">
    <!-- Generator: Sketch 59.1 (86144) - https://sketch.com -->
    <title>Group 51</title>
    <desc>Created with Sketch.</desc>
    <defs>
        <polygon id="path-1" points="0 0.244242199 17.3502873 0.244242199 17.3502873 20.252989 0 20.252989"></polygon>
        <polygon id="path-3" points="0.325346204 0.581123188 41.8737265 0.581123188 41.8737265 38.6598043 0.325346204 38.6598043"></polygon>
    </defs>
    <g id="Home-Page-V2" stroke="none" stroke-width="1" fill="none" fill-rule="evenodd" opacity="0.752441406">
        <g id="Home-Page" transform="translate(-619.000000, -2599.000000)">
            <g id="Group-51" transform="translate(619.000000, 2599.000000)">
                <path d="M33.6521739,28.4361865 L31.9766912,28.4361865 C30.8573854,28.4361865 30.3921666,27.6675737 30.3921666,26.5597754 L30.3921666,18.617235 L33.6521739,18.617235 L33.6521739,16.3761217 L30.3921666,16.3761217 L30.3921666,12.1521739 L28.0434783,12.1521739 L28.0434783,26.5230562 C28.0434783,29.5533202 29.4582531,30.8478261 31.9726358,30.8478261 L33.6521739,30.8478261 L33.6521739,28.4361865 Z" id="Fill-1" fill="#636466"></path>
                <path d="M9.34782609,23.76871 L9.34782609,23.8730704 C9.34782609,29.0084734 13.5611743,30.8478261 17.504988,30.8478261 C21.3595808,30.8478261 25.2391304,29.010337 25.2391304,24.9471132 C25.2391304,21.0000525 21.9816314,19.9328429 18.9269072,19.2408338 L17.8606238,19.00975 C15.1222282,18.4134046 12.751323,17.9121018 12.751323,15.8826641 C12.751323,12.9922528 15.7367918,12.6630205 17.0164567,12.6630205 C19.8365861,12.6630205 21.4756303,14.015979 21.7507801,16.5460983 L21.7607629,16.6392773 L24.4242877,16.6392773 L24.421792,16.5299473 C24.2689311,12.5536905 21.6103976,10.2826087 17.1250192,10.2826087 C13.5543111,10.2826087 9.94491985,12.0672964 9.94491985,16.0727492 C9.94491985,19.6433669 12.944115,20.5906863 16.2858435,21.3174822 L16.9428339,21.4622202 C19.7654589,22.0591867 22.4308556,22.6269572 22.4308556,25.0284895 C22.4308556,28.0083526 19.3985925,28.4512633 17.5867218,28.4512633 C16.0612315,28.4512633 14.681739,28.0617752 13.7040525,27.3598271 C12.5997098,26.5603516 12.0169663,25.3608278 12.0169663,23.8730704 L12.0169663,23.76871 L9.34782609,23.76871 Z" id="Fill-3" fill="#636466"></path>
                <path d="M49.5434783,28.4012096 L49.3975738,28.4528417 C49.069451,28.5679254 48.8522155,28.5822331 48.6972326,28.5822331 C48.0643317,28.5822331 48.0351508,28.253156 48.0351508,27.1128947 L48.0351508,19.8700887 C48.0351508,17.1908166 46.2025912,15.8913043 42.4233425,15.8913043 C40.1323188,15.8913043 36.2661759,16.5133782 36.0969268,20.7067781 L36.0923875,20.8181293 L38.7154248,20.8181293 L38.7206125,20.7185975 C38.8178821,18.9693258 39.9526943,18.1394793 42.2826258,18.1394793 C44.4303389,18.1394793 45.4380521,18.8486435 45.4380521,20.385788 C45.4380521,21.6647718 44.0873014,21.8464174 42.2262094,22.0977352 C41.6944689,22.1686516 41.1542983,22.2439226 40.5804075,22.3490531 C38.0235136,22.8212071 35.5217391,23.553388 35.5217391,26.7869279 C35.5217391,29.3181465 37.3821826,30.8478261 40.4896226,30.8478261 C42.5770285,30.8478261 44.275356,30.1380398 45.5729326,28.7937382 C45.6747415,30.4552975 46.7674035,30.8478261 47.7005433,30.8478261 C48.4566524,30.8478261 49.024707,30.7047491 49.4916011,30.4360132 L49.5434783,30.4049095 L49.5434783,28.4012096 Z M41.0278478,28.5822331 C40.2094861,28.5822331 38.2971655,28.3912564 38.2971655,26.6227005 C38.2971655,24.917596 39.7490766,24.4242914 41.159486,24.1829268 C41.5900661,24.1126324 42.0517726,24.0529133 42.4888374,24.0025254 C43.6197588,23.8613146 44.6877791,23.7257025 45.4101681,23.3176221 C45.4101681,23.3176221 45.4698268,23.283408 45.4101681,23.3176221 L45.4101681,25.5091882 C45.4101681,26.6979714 44.2169942,28.5822331 41.0278478,28.5822331 L41.0278478,28.5822331 Z" id="Fill-5" fill="#636466"></path>
                <path d="M51.4130435,16.2035221 L51.4130435,29.9130435 L53.8012737,29.9130435 L53.8012737,22.1858044 C53.8012737,19.6038893 55.2329183,18.0487705 57.6376109,18.0487705 C59.2397594,18.0487705 60.2427926,19.0642243 60.2427926,20.6724738 L60.2427926,29.9130435 L62.6304348,29.9130435 L62.6304348,20.9345457 C62.6304348,17.5359693 61.094724,15.8913043 57.9468697,15.8913043 C56.0278191,15.8913043 54.5979383,16.65185 53.6654585,18.1675685 L53.6654585,16.2035221 L51.4130435,16.2035221 Z" id="Fill-7" fill="#636466"></path>
                <path d="M75.9068951,10.2826087 L75.9068951,17.5916863 C74.8030643,16.0390271 72.8076778,15.4670958 71.262572,15.4670958 C67.1502232,15.4670958 64.5,18.4591795 64.5,23.1069211 C64.5,25.2404681 65.1085221,27.159061 66.1988445,28.5197969 C67.4094562,30.0308727 69.1797024,30.8478261 71.3178921,30.8478261 C73.4541522,30.8478261 75.1041091,30.0647792 75.9068951,28.7264343 L75.9068951,30.495327 L78.5217391,30.495327 L78.5217391,10.2826087 L75.9068951,10.2826087 Z M71.6536729,28.5185174 C68.6174948,28.5185174 67.2512147,25.8936469 67.2512147,23.2751739 C67.2512147,21.6271928 67.6661162,17.7797711 71.5160156,17.7797711 C75.6676031,17.7797711 75.9924484,21.9035623 75.9924484,23.1625789 C75.9924484,25.7612199 74.8558115,28.5185174 71.6536729,28.5185174 L71.6536729,28.5185174 Z" id="Fill-9" fill="#636466"></path>
                <path d="M95.3478261,28.4016282 L95.2038071,28.4538867 C94.8736014,28.5683579 94.657573,28.5820446 94.5031743,28.5820446 C93.8576838,28.5820446 93.8297883,28.2541844 93.8297883,27.1138282 L93.8297883,19.8704197 C93.8297883,17.1896805 91.9971144,15.8913043 88.2286179,15.8913043 C85.9269093,15.8913043 82.0630489,16.5128078 81.8917831,20.7078008 L81.887242,20.8172949 L84.5204537,20.8172949 L84.5249949,20.7183769 C84.622305,18.9683376 85.7485074,18.1396663 88.0833015,18.1396663 C90.2332063,18.1396663 91.2329056,18.866309 91.2329056,20.3861619 C91.2329056,21.6652521 89.890026,21.8469128 88.0301053,22.0976294 C87.491656,22.1704181 86.9525579,22.2438289 86.3797257,22.3502124 C83.8263082,22.8217836 81.326087,23.5527812 81.326087,26.7872122 C81.326087,29.3186413 83.1762766,30.8478261 86.2889029,30.8478261 C88.3791242,30.8478261 90.0788076,30.1386029 91.3671936,28.7941895 C91.4690448,30.455887 92.5621618,30.8478261 93.4950415,30.8478261 C94.2624939,30.8478261 94.830785,30.7059814 95.2959274,30.4366011 L95.3478261,30.4061169 L95.3478261,28.4016282 Z M86.8267035,28.5820446 C86.0067036,28.5820446 84.1046152,28.3916742 84.1046152,26.6248375 C84.1046152,24.9202133 85.5448049,24.4256234 86.9570991,24.1842387 C87.3872098,24.1126943 87.83808,24.0535923 88.2921939,24.0032001 C89.4229374,23.8613555 90.4914025,23.7269764 91.2037126,23.318862 C91.2037126,23.318862 91.2640448,23.2840229 91.2037126,23.318862 L91.2037126,25.5093662 C91.2037126,26.6982483 90.0204215,28.5820446 86.8267035,28.5820446 L86.8267035,28.5820446 Z" id="Fill-11" fill="#636466"></path>
                <path d="M103.76087,15.8972112 L103.662463,15.8954208 C101.344722,15.8220145 99.787948,16.7273591 98.6211315,18.8525615 L98.6211315,16.2075469 L96.2826087,16.2075469 L96.2826087,29.9130435 L98.7543771,29.9130435 L98.7543771,23.8024151 C98.7543771,20.1547776 100.32582,18.44077 103.658185,18.44077 L103.76087,18.44077 L103.76087,15.8972112 Z" id="Fill-13" fill="#636466"></path>
                <path d="M115.165946,10.2826087 L115.165946,17.5916863 C114.059119,16.0390271 112.073,15.4670958 110.50853,15.4670958 C106.421883,15.4670958 103.76087,18.4591795 103.76087,23.1069211 C103.76087,25.2404681 104.36249,27.159061 105.471245,28.5197969 C106.678985,30.0308727 108.440139,30.8478261 110.577948,30.8478261 C112.717685,30.8478261 114.365071,30.0609407 115.165946,28.7257945 L115.165946,30.495327 L117.782609,30.495327 L117.782609,10.2826087 L115.165946,10.2826087 Z M110.92118,28.5185174 C107.877084,28.5185174 106.520224,25.8936469 106.520224,23.2751739 C106.520224,21.6271928 106.93416,17.7797711 110.78363,17.7797711 C114.923627,17.7797711 115.246933,21.9035623 115.246933,23.1625789 C115.246933,25.7612199 114.110539,28.5185174 110.92118,28.5185174 L110.92118,28.5185174 Z" id="Fill-15" fill="#636466"></path>
                <g id="Group-19" transform="translate(0.000000, 37.391304)">
                    <mask id="mask-2" fill="white">
                        <use xlink:href="#path-1"></use>
                    </mask>
                    <g id="Clip-18"></g>
                    <path d="M14.5949027,12.4799417 L14.5863285,12.5712754 C14.3315519,15.8719928 12.260267,17.935168 9.17293793,17.935168 C7.04102114,17.935168 5.38926027,17.1676015 4.27706237,15.6276297 C3.28367856,14.2775836 2.75146492,12.3728816 2.75146492,10.109498 C2.75146492,8.0487422 3.29837721,6.1924289 4.27155037,4.8611335 C5.38681049,3.3544289 7.07593043,2.56266803 9.14537796,2.56266803 C11.9460834,2.56266803 13.905291,4.03187136 14.4001456,6.51058491 L14.4160691,6.59224092 L17.1702288,6.59224092 L17.1524679,6.47731765 C16.8719687,4.52120256 15.9355421,2.91772046 14.4485286,1.82473964 C13.0490946,0.792244757 11.2203375,0.244242199 9.17293793,0.244242199 C6.34773478,0.244242199 3.98798891,1.2646399 2.34296492,3.1953509 C0.836965667,4.9742422 -0.000244977511,7.50739309 -0.000244977511,10.2957946 C-0.000244977511,16.4363266 3.43495217,20.252989 8.95797016,20.252989 C11.3324147,20.252989 13.3534792,19.5465133 14.8000714,18.2127985 C16.2209409,16.8960197 17.1004102,14.9417192 17.3392633,12.5906309 L17.3502873,12.4799417 L14.5949027,12.4799417 Z" id="Fill-17" fill="#636466" mask="url(#mask-2)"></path>
                </g>
                <path d="M20.5652174,38.326087 L20.5652174,57.9565217 L22.9518088,57.9565217 L22.9518088,49.9128072 C22.9518088,47.2146148 24.394112,45.6130671 26.7895231,45.6130671 C28.4005752,45.6130671 29.3954293,46.6532668 29.3954293,48.3267663 L29.3954293,57.9565217 L31.7826087,57.9565217 L31.7826087,48.5947247 C31.7826087,45.0821125 30.255637,43.3738776 27.1064417,43.3738776 C25.6894215,43.3738776 23.8037849,43.9377068 22.9518088,45.5318112 L22.9518088,38.326087 L20.5652174,38.326087 Z" id="Fill-20" fill="#636466"></path>
                <path d="M36.8503762,47.9157537 L36.8523228,47.8142375 C36.9490021,46.0647946 38.0767107,45.2489278 40.4080438,45.2489278 C42.5674305,45.2489278 43.5653683,45.9589188 43.5653683,47.4853995 C43.5653683,48.7783306 42.2222401,48.9639247 40.3522423,49.2130444 C39.828617,49.2840435 39.2861749,49.3594022 38.7164809,49.4646552 C36.1541557,49.9361142 33.6521739,50.6679032 33.6521739,53.8921344 C33.6521739,56.4400058 35.51179,57.9565217 38.622397,57.9565217 C40.7013259,57.9565217 42.4130032,57.2621007 43.6983834,55.9168545 C43.8002535,57.5784827 44.9039545,57.9565217 45.8376557,57.9565217 C46.5896777,57.9565217 47.1561274,57.8300935 47.6226536,57.5604215 L47.673913,57.5305271 L47.673913,55.527605 L47.5279208,55.5749378 C47.1983029,55.6907784 46.9822345,55.7038572 46.828456,55.7038572 C46.201014,55.7038572 46.1731133,55.3762648 46.1731133,54.2166128 L46.1731133,46.9666078 C46.1731133,44.2979134 44.3323139,43 40.549494,43 C38.2570921,43 34.3899211,43.6240448 34.2166771,47.8036499 L34.2153794,47.9157537 L36.8503762,47.9157537 Z M39.1622437,55.7038572 C38.3356035,55.7038572 36.428621,55.5139034 36.428621,53.7258471 C36.428621,52.0193774 37.8716727,51.5416904 39.2965565,51.3025356 C39.7248003,51.2296681 40.1751051,51.1736161 40.6091886,51.1200554 C41.7524697,50.9799256 42.8230791,50.8441554 43.5361698,50.4331079 C43.5361698,50.4331079 43.5965133,50.4007224 43.5361698,50.4331079 L43.5361698,52.6110366 C43.5361698,53.803697 42.3520109,55.7038572 39.1622437,55.7038572 L39.1622437,55.7038572 Z" id="Fill-22" fill="#636466"></path>
                <path d="M117.782609,58.558998 L117.782609,38.326087 L115.165946,38.326087 L115.165946,45.6406685 C114.059119,44.0854235 112.073643,43.514292 110.509173,43.514292 C106.419954,43.514292 103.76087,46.5101714 103.76087,51.1605395 C103.76087,53.2805132 104.36249,55.2135246 105.46996,56.5786058 C106.678985,58.0903116 108.440139,58.8913043 110.577948,58.8913043 C112.7164,58.8913043 114.363785,58.122966 115.165946,56.7828557 L115.165946,58.558998 L117.782609,58.558998 Z M110.919895,56.5766849 C107.877084,56.5766849 106.520867,53.9329606 106.520867,51.3308546 C106.520867,49.6808479 106.933517,45.8282711 110.781702,45.8282711 C114.924912,45.8282711 115.247576,49.9593705 115.247576,51.2156038 C115.247576,53.8023431 114.111182,56.5766849 110.919895,56.5766849 L110.919895,56.5766849 Z" id="Fill-24" fill="#636466"></path>
                <path d="M76.7057535,53.1938061 C76.2786994,54.8158453 75.0659397,55.7053506 73.2443352,55.7053506 C71.9551618,55.7053506 70.8742773,55.298595 70.135406,54.5237038 C69.384826,53.7214049 68.9867352,52.578378 69.0089198,51.275888 L79.3420269,51.275888 L79.4387765,51.275888 L79.4480201,51.1749778 C79.5472347,48.6304194 78.7732377,46.2179164 77.3793035,44.751603 C76.2669909,43.5873974 74.8083515,43 73.0292675,43 C69.1709908,43 66.3695652,46.1213665 66.3695652,50.4387065 C66.5186952,55.2232238 68.9996762,57.9565217 73.1629915,57.9565217 C76.3544969,57.9565217 78.5464615,56.2260975 79.1990593,53.1938061 L76.7057535,53.1938061 Z M72.8930786,45.2486795 C74.9833636,45.2486795 76.6355022,46.8613751 76.7938758,49.0265856 L69.0193959,49.0265856 C69.2036515,47.1192569 70.4570831,45.2486795 72.8930786,45.2486795 L72.8930786,45.2486795 Z" id="Fill-26" fill="#636466"></path>
                <path d="M100.076192,53.2244937 C99.6415771,54.8294472 98.4147908,55.7032344 96.6128328,55.7032344 C95.3237824,55.7032344 94.2523479,55.2965465 93.5125772,54.5217844 C92.7413663,53.7196191 92.3492879,52.5767826 92.3671657,51.2745096 L102.711009,51.2745096 L102.812111,51.2745096 L102.817659,51.1736161 C102.916295,48.6319728 102.144468,46.2173804 100.747534,44.751934 C99.644043,43.5872996 98.1694335,43 96.3995322,43 C92.5299152,43 89.7391304,46.1208466 89.7391304,50.4349763 C89.8852351,55.2211878 92.3591515,57.9565217 96.5351568,57.9565217 C99.7229519,57.9565217 101.902809,56.2369733 102.564288,53.2244937 L100.076192,53.2244937 Z M96.2626747,45.248305 C98.3475949,45.248305 100.012079,46.860732 100.172979,49.0255818 L92.3776458,49.0255818 C92.5625884,47.1185708 93.833761,45.248305 96.2626747,45.248305 L96.2626747,45.248305 Z" id="Fill-28" fill="#636466"></path>
                <path d="M52.0209689,57.0217391 L52.0209689,50.9028062 C52.0209689,47.242059 53.5814583,45.5464296 56.9191718,45.5464296 L57.0217391,45.5464296 L57.0217391,43.0059664 L56.9228349,43.0041778 C54.5991953,42.9302474 53.0356533,43.8347024 51.8878755,45.9423149 L51.8878755,43.298707 L49.5434783,43.298707 L49.5434783,57.0217391 L52.0209689,57.0217391 Z" id="Fill-30" fill="#636466"></path>
                <path d="M84.739173,57.0217391 L84.739173,50.9088605 C84.739173,47.2471 86.2900207,45.548382 89.6359441,45.548382 L89.7391304,45.548382 L89.7391304,43.0041834 L89.6408287,43.0041834 C87.3084514,42.9301964 85.7527192,43.8347473 84.6048476,45.9445705 L84.6048476,43.3055015 L82.2608696,43.3055015 L82.2608696,57.0217391 L84.739173,57.0217391 Z" id="Fill-32" fill="#636466"></path>
                <path d="M64.5,55.5459664 L62.8322837,55.5459664 C61.704634,55.5459664 61.240478,54.7760576 61.240478,53.6513807 L61.240478,45.7238715 L64.5,45.7238715 L64.5,43.4850986 L61.240478,43.4850986 L61.240478,39.2608696 L58.8913043,39.2608696 L58.8913043,53.6140367 C58.8913043,56.6619297 60.3133251,57.9565217 62.8282274,57.9565217 L64.5,57.9565217 L64.5,55.5459664 Z" id="Fill-34" fill="#636466"></path>
                <path d="M142.511888,62.9203854 C140.836512,63.9090693 139.315917,64.5 137.718537,64.5 C133.586629,64.5 130.134304,61.1439938 129.934783,57.1082674 L137.985774,52.3478261 L150.5,57.8995746 L142.511888,62.9203854 Z" id="Fill-36" fill="#636466"></path>
                <path d="M146.862556,42.0652174 L140.806684,39.3507995 C138.099122,38.1189001 135.543478,37.0933564 135.543478,34.0622356 C135.543478,32.4918132 136.01332,31.6676377 136.75208,30.8478261 L149.565217,36.5958585 L146.387814,38.4617871 C145.513063,39.0085359 144.907844,39.4885777 144.907844,40.1762219 C144.907844,40.9168578 145.739715,41.5483932 146.862556,42.0652174" id="Fill-38" fill="#636466"></path>
                <path d="M153.503456,13.7702614 L147.332949,17.5368635 C146.78638,17.8693188 146.053564,18.4068801 146.053564,19.2328141 C146.053564,20.1732401 147.477199,20.8932538 148.743194,21.5 L141.022452,18.0732003 C138.746704,17.065426 136.478261,15.9217308 136.478261,13.1641275 C136.478261,12.0045136 136.810585,11.0646999 137.346198,10.2614193 L154.036635,0 C156.03788,1.14247067 157.978261,3.44945324 157.978261,6.54196093 C157.978261,9.85549322 156.309948,12.0724741 153.503456,13.7702614" id="Fill-40" fill="#636466"></path>
                <path d="M166.363557,26.2170857 L164.760501,27.1086957 L151.434783,21.3235551 L166.925262,12.1521739 C169.016868,13.3391101 171.065217,15.6716867 171.065217,18.8339299 C171.065217,22.2170421 169.369922,24.5508701 166.363557,26.2170857" id="Fill-42" fill="#636466"></path>
                <path d="M155.25799,37.3913043 L162.73207,40.8282913 C165.53123,42.139333 166.391304,43.6814008 166.391304,45.6268175 C166.391304,46.732713 165.795405,47.8430271 164.936537,48.6086957 L152.369565,42.7655022 L154.495022,41.5175824 C156.294181,40.4798585 156.89008,39.8530581 156.89008,39.1625046 C156.89008,38.4422838 156.4709,37.966976 155.25799,37.3913043" id="Fill-44" fill="#636466"></path>
                <path d="M168.923397,65.4347826 C165.635531,62.9134963 162.130054,61.2094544 157.867613,59.2830923 L138.165982,50.6026636 C133.217037,48.4055426 129.934783,45.476255 129.934783,40.5473265 C129.934783,35.7556404 132.263662,33.4361811 135.290893,31.5309332 L136.383938,30.8478261 C135.630716,31.6644496 135.15434,32.4835572 135.15434,34.0497356 C135.15434,37.0690691 137.755701,38.0931088 140.51045,39.3177336 L163.430111,49.3780388 C167.417576,51.0839436 171.065217,54.0144732 171.065217,59.0079864 C171.065217,61.7546981 170.017066,64.2095368 168.923397,65.4347826" id="Fill-46" fill="#636466"></path>
                <g id="Group-50" transform="translate(129.934783, 10.282609)">
                    <mask id="mask-4" fill="white">
                        <use xlink:href="#path-3"></use>
                    </mask>
                    <g id="Clip-49"></g>
                    <path d="M36.8291652,37.7661522 L35.3826239,38.6598043 C36.2754111,37.9063696 36.8982274,36.8076884 36.8982274,35.7139928 C36.8982274,33.7976884 35.9991619,32.2746159 33.0866165,30.9758913 L8.40877417,20.1959783 C3.42687119,18.0092101 0.325346204,15.1861667 0.325346204,10.2604855 C0.325346204,5.72616667 2.60000714,2.76539855 6.20191986,0.581123188 C5.65067716,1.39812319 5.30536567,2.35534058 5.30536567,3.53565942 C5.30536567,6.3425 7.64783323,7.50599275 9.99281213,8.53238406 L33.9825428,19.0343551 C38.3428851,20.9500362 41.873852,23.8422536 41.873852,29.1293841 C41.873852,33.250529 39.9319458,35.8498478 36.8291652,37.7661522" id="Fill-48" fill="#636466" mask="url(#mask-4)"></path>
                </g>
            </g>
        </g>
    </g>
</svg>