<?xml version="1.0" encoding="UTF-8"?>
<svg width="161px" height="57px" viewBox="0 0 161 57" version="1.1" xmlns="http://www.w3.org/2000/svg" xmlns:xlink="http://www.w3.org/1999/xlink">
    <!-- Generator: Sketch 59.1 (86144) - https://sketch.com -->
    <title>Group 33</title>
    <desc>Created with Sketch.</desc>
    <defs>
        <polygon id="path-1" points="0.525048404 0.5921908 13.4024793 0.5921908 13.4024793 13.6370938 0.525048404 13.6370938"></polygon>
        <polygon id="path-3" points="0.65658883 0.591849872 13.3610303 0.591849872 13.3610303 13.6370938 0.65658883 13.6370938"></polygon>
        <polygon id="path-5" points="0.786844681 0.5921908 13.3182968 0.5921908 13.3182968 13.6370938 0.786844681 13.6370938"></polygon>
        <polygon id="path-7" points="0.50663617 0.304959511 9.31539149 0.304959511 9.31539149 13.6370938 0.50663617 13.6370938"></polygon>
    </defs>
    <g id="Home-Page-V2" stroke="none" stroke-width="1" fill="none" fill-rule="evenodd" opacity="0.752441406">
        <g id="Home-Page" transform="translate(-796.000000, -2444.000000)">
            <g id="Group-33" transform="translate(796.000000, 2444.000000)">
                <polygon id="Fill-1" fill="#626366" points="126.756399 4.45721653 130.933735 4.45721653 130.933735 2.90963855 116.385542 2.90963855 116.385542 4.45721653 120.561212 4.45721653 120.561212 34.338814 116.385542 34.338814 116.385542 35.8855422 130.933735 35.8855422 130.933735 34.338814 126.756399 34.338814"></polygon>
                <g id="Group-32">
                    <path d="M154.163409,35.4173225 L154.163409,33.8661031 L149.571484,33.8661031 L149.571484,3.58323164 C156.58526,3.23719038 157.776489,4.71766738 158.673122,11.0546544 L160.214611,11.0546544 L159.667382,2.34566537 L133.057851,2.34566537 L132.511478,11.0546544 L134.102638,11.0546544 C134.998414,4.71766738 136.190499,3.23719038 143.20342,3.58323164 L143.20342,33.8661031 L138.612351,33.8661031 L138.612351,35.4173225 L154.163409,35.4173225 Z" id="Fill-2" fill="#626366"></path>
                    <path d="M53.8717133,16.4907409 L53.8717133,3.86790597 L58.1998729,3.86790597 C62.6273729,3.86790597 64.2682027,4.98870462 64.2682027,10.5338879 C64.2682027,14.9906606 62.4278356,16.4907409 57.9506654,16.4907409 L53.8717133,16.4907409 Z M113.434862,3.86961061 L113.434862,2.31753886 L101.169745,2.31753886 L93.9590005,24.934659 L86.9974633,2.31753886 L74.8000005,2.31753886 L74.8000005,3.86961061 L79.0913356,3.86961061 L79.0913356,33.8260442 L74.456591,33.8234872 C70.1335697,33.9257654 70.0770484,30.2667627 70.0830431,29.507347 C70.1464154,21.4384491 68.3480112,18.5209633 60.5874686,17.3319792 L60.5874686,17.2331102 C65.2145059,16.7379133 71.133825,15.4355708 71.133825,9.84095307 C71.133825,2.95933459 64.6672771,2.31583423 59.2446601,2.31583423 L43.211458,2.31583423 L43.211458,3.86790597 L47.5045059,3.86790597 L47.5045059,33.836272 L43.211458,33.836272 L43.211458,35.3874914 L58.1647612,35.3874914 L58.1647612,33.836272 L53.8717133,33.836272 L53.8717133,18.0428127 C56.621559,17.9251928 59.7422186,18.6368786 61.1346973,19.8250104 C62.4278356,20.9134209 63.1249314,24.2979772 63.1249314,28.407004 C63.1249314,33.4578426 65.7600218,35.3755589 70.7852771,35.3755589 C72.2274261,35.3755589 85.1904952,35.3772636 85.1904952,35.3772636 L85.1904952,33.8260442 L80.9985005,33.8260442 L80.9985005,4.39719567 L81.097841,4.39719567 L90.9933463,35.3772636 L92.6847027,35.3772636 L102.629878,4.39719567 L102.778889,4.39719567 L102.778889,33.8260442 L98.4875537,33.8260442 L98.4875537,35.3772636 L113.434862,35.3772636 L113.434862,33.8260442 L109.144384,33.8260442 L109.144384,3.86961061 L113.434862,3.86961061 Z" id="Fill-4" fill="#626366"></path>
                    <g id="Group-8" transform="translate(42.819149, 42.615918)">
                        <mask id="mask-2" fill="white">
                            <use xlink:href="#path-1"></use>
                        </mask>
                        <g id="Clip-7"></g>
                        <path d="M0.525048404,0.5921908 L6.87684096,0.5921908 L6.87684096,1.16494874 L5.26512819,1.16494874 L5.26512819,10.410046 C5.26512819,12.1666742 5.70702181,13.0445621 7.87538351,13.0641654 C9.39118138,13.0829164 10.235575,12.3575935 10.6389314,11.8035866 C11.0799686,11.3262883 11.0799686,9.85518678 11.0799686,8.28862563 L11.0799686,1.87152066 C11.0799686,1.48968204 10.7725271,1.16494874 10.2167346,1.16494874 L9.35264415,1.16494874 L9.35264415,0.5921908 L13.4024793,0.5921908 L13.4024793,1.16494874 L12.2506441,1.16494874 C11.8096069,1.16494874 11.6563144,1.48968204 11.6563144,1.87152066 L11.6563144,9.7213728 C11.6563144,10.6955727 11.5792399,11.6893759 10.9078356,12.4146988 C10.1970378,13.1979794 9.08459628,13.6377757 6.89653777,13.6377757 C3.74933032,13.6377757 2.04084628,12.5485128 2.04084628,9.45374483 L2.04084628,1.16494874 L0.525048404,1.16494874 L0.525048404,0.5921908 Z" id="Fill-6" fill="#626366" mask="url(#mask-2)"></path>
                    </g>
                    <g id="Group-11" transform="translate(56.521277, 42.615918)">
                        <mask id="mask-4" fill="white">
                            <use xlink:href="#path-3"></use>
                        </mask>
                        <g id="Clip-10"></g>
                        <path d="M11.6919399,13.6374348 L11.2500463,13.6374348 L3.03647713,2.27262169 L3.03647713,12.0708736 C3.03647713,12.5490242 3.30538138,12.7390912 3.78495585,12.7774455 L4.87855691,12.7774455 L4.87855691,13.3502035 L0.65658883,13.3502035 L0.65658883,12.7774455 L1.57805691,12.7774455 C2.23062074,12.7390912 2.26915798,12.3385016 2.26915798,11.7836423 L2.26915798,2.34933034 C2.26915798,1.41263246 2.44214734,1.16460781 1.29031223,1.16460781 L0.65658883,1.16460781 L0.65658883,0.591849872 L5.72295053,0.591849872 L11.1164505,8.15532304 L11.1164505,1.71861475 C11.1164505,1.3359238 10.3294346,1.16460781 9.84986011,1.16460781 L9.3120516,1.16460781 L9.3120516,0.591849872 L13.3610303,0.591849872 L13.3610303,1.16460781 L12.5551739,1.16460781 C11.998525,1.16460781 11.6919399,1.3359238 11.6919399,1.71861475 L11.6919399,13.6374348 Z" id="Fill-9" fill="#626366" mask="url(#mask-4)"></path>
                    </g>
                    <polygon id="Fill-12" fill="#626366" points="70.9738527 55.9662069 70.9738527 55.393449 72.3937356 55.393449 72.3937356 43.7806113 70.9738527 43.7806113 70.9738527 43.2078533 77.2305867 43.2078533 77.2305867 43.7806113 75.6180176 43.7806113 75.6180176 55.393449 77.2305867 55.393449 77.2305867 55.9662069"></polygon>
                    <g id="Group-16" transform="translate(77.074468, 42.615918)">
                        <mask id="mask-6" fill="white">
                            <use xlink:href="#path-5"></use>
                        </mask>
                        <g id="Clip-15"></g>
                        <path d="M0.786844681,0.5921908 L6.73613723,0.5921908 L6.73613723,1.16494874 L5.25802021,1.16494874 L8.4634617,9.01480088 L11.0540202,1.58514169 C11.1113979,1.43172439 11.0343234,1.16494874 9.95956277,1.16494874 L9.30785532,1.16494874 L9.30785532,0.5921908 L13.3182968,0.5921908 L13.3182968,1.16494874 L12.5312809,1.16494874 C12.0714032,1.16494874 11.8795734,1.28001172 11.1499351,3.36137317 L7.56169043,13.6377757 L6.96564787,13.6377757 L1.88044574,1.16494874 L0.786844681,1.16494874 L0.786844681,0.5921908 Z" id="Fill-14" fill="#626366" mask="url(#mask-6)"></path>
                    </g>
                    <path d="M91.197508,55.9662069 L91.197508,55.393449 L92.7330027,55.393449 L92.7330027,43.7806113 L91.3704973,43.7806113 L91.3704973,43.2078533 L101.86804,43.2078533 L101.982795,46.6452533 L101.330231,46.6452533 C100.525231,44.4871832 99.6799814,43.7806113 97.7608271,43.7806113 L95.9572846,43.7806113 L95.9572846,49.1093057 C97.8379016,49.1093057 98.241258,48.5561511 98.6249176,46.7986706 L99.2577846,46.7986706 L99.2577846,52.2228247 L98.6249176,52.2228247 C98.3560133,50.3894879 97.8379016,49.7775233 95.9572846,49.7775233 L95.9572846,55.393449 L97.8379016,55.393449 C100.812976,55.393449 101.349072,53.9990561 101.86804,51.7838807 L102.46237,51.7838807 L102.348471,55.9662069 L91.197508,55.9662069 Z" id="Fill-17" fill="#626366"></path>
                    <path d="M108.525904,48.8421891 L109.33176,48.8421891 C111.270611,48.8421891 111.826404,48.5174558 111.826404,47.1810206 L111.826404,45.3280805 C111.826404,44.4109859 112.133845,43.7811227 109.907249,43.7811227 L108.525904,43.7811227 L108.525904,48.8421891 Z M103.804664,55.965866 L103.804664,55.3939604 L105.301622,55.3939604 L105.301622,43.7811227 L103.766127,43.7811227 L103.766127,43.2083647 L111.385366,43.2083647 C113.304521,43.2083647 115.320446,44.0666493 115.320446,46.3022804 C115.320446,48.4023928 112.651957,49.0143574 111.040244,49.1856734 L111.040244,49.2240277 C113.707877,49.7209293 114.821175,50.7718379 114.821175,52.6051747 C114.821175,54.1896345 114.896537,54.8774554 115.166297,55.1646867 C115.299893,55.2976484 115.683553,55.4510657 116.643558,55.2405431 L116.758313,55.641985 C116.144287,55.965866 115.204835,56.2343463 114.513734,56.2343463 C112.172382,56.2343463 111.385366,55.1834377 111.327132,52.2420871 C111.289452,49.968954 110.886952,49.4720524 109.351457,49.4720524 L108.525904,49.4720524 L108.525904,55.3939604 L110.11792,55.3939604 L110.11792,55.965866 L103.804664,55.965866 Z" id="Fill-19" fill="#626366"></path>
                    <g id="Group-23" transform="translate(117.324468, 42.615918)">
                        <mask id="mask-8" fill="white">
                            <use xlink:href="#path-7"></use>
                        </mask>
                        <g id="Clip-22"></g>
                        <path d="M7.8758117,0.5921908 L8.47014149,0.5921908 L8.47014149,3.97248543 L7.85697128,3.97248543 C7.5692266,2.4067766 6.20672128,0.87856977 4.53677447,0.87856977 C3.48085426,0.87856977 2.00359362,1.48968204 2.00359362,2.7502609 C2.00359362,3.87702578 2.80945,4.18300807 3.74975851,4.39267839 C4.72860426,4.60320102 6.34031702,4.98503965 7.22324787,5.36687828 C8.3742266,5.86377988 9.31539149,6.87548178 9.31539149,9.09150953 C9.31539149,11.3262883 7.95288617,13.6377757 4.82451915,13.6377757 C3.8259766,13.6377757 2.98158298,13.3505444 2.17658298,12.7394321 L1.19688085,13.4656074 L0.50663617,13.4656074 L0.50663617,9.75972713 L1.19688085,9.75972713 C1.71584894,11.5163553 2.98158298,13.0641654 4.92043404,13.0641654 C7.05025851,13.0641654 7.9717266,11.7081269 7.9717266,10.5046534 C7.9717266,8.86223589 6.10995,8.72842191 4.26787021,8.2502713 C2.40609362,7.77382534 0.544317021,7.00929576 0.544317021,4.12590274 C0.544317021,1.94822932 2.38725319,0.304959511 4.5753117,0.304959511 C5.4959234,0.304959511 6.37885426,0.668047134 7.16587021,1.14534542 L7.8758117,0.5921908 Z" id="Fill-21" fill="#626366" mask="url(#mask-8)"></path>
                    </g>
                    <polygon id="Fill-24" fill="#626366" points="128.076356 55.9662069 128.076356 55.393449 129.496239 55.393449 129.496239 43.7806113 128.076356 43.7806113 128.076356 43.2078533 134.33309 43.2078533 134.33309 43.7806113 132.720521 43.7806113 132.720521 55.393449 134.33309 55.393449 134.33309 55.9662069"></polygon>
                    <path d="M135.404939,43.208109 L147.073157,43.208109 L147.265844,47.3520809 L146.746876,47.3520809 C146.114009,45.0405935 145.481141,43.5890953 142.851189,43.780867 L142.851189,55.3937047 L144.424365,55.3937047 L144.424365,55.9664626 L138.053732,55.9664626 L138.053732,55.3937047 L139.627764,55.3937047 L139.627764,43.780867 C136.997812,43.5890953 136.364088,45.0405935 135.731221,47.3520809 L135.21311,47.3520809 L135.404939,43.208109 Z" id="Fill-26" fill="#626366"></path>
                    <path d="M147.647705,43.208109 L153.76913,43.208109 L153.76913,43.780867 L152.330407,43.780867 L155.401396,48.9561441 L157.837806,44.2777686 C157.991955,43.9905373 157.703354,43.780867 157.300854,43.780867 L156.167859,43.780867 L156.167859,43.208109 L160.217694,43.208109 L160.217694,43.780867 L159.507753,43.780867 C158.970801,43.780867 158.759274,43.8763266 158.260859,44.8309232 L155.727678,49.740277 L155.727678,55.3937047 L157.415609,55.3937047 L157.415609,55.9664626 L150.890827,55.9664626 L150.890827,55.3937047 L152.503396,55.3937047 L152.503396,50.2175752 L148.81838,43.780867 L147.647705,43.780867 L147.647705,43.208109 Z" id="Fill-28" fill="#626366"></path>
                    <path d="M19.0205229,0.666683425 L14.1579803,0.666683425 L14.1579803,4.58052935 L6.07800691,4.58052935 L6.07800691,12.7644903 L0.000256914894,12.7644903 L0.000256914894,24.8631495 L6.14994309,24.8631495 L6.14994309,32.8340308 L14.1579803,32.8340308 L14.1579803,36.8902139 L18.4373261,36.882543 C28.4484431,36.882543 37.2546293,28.8485901 37.2546293,18.814246 C37.2546293,8.85149668 29.0307835,0.666683425 19.0205229,0.666683425" id="Fill-30" fill="#626366"></path>
                </g>
            </g>
        </g>
    </g>
</svg>