<?xml version="1.0" encoding="UTF-8"?>
<svg width="88px" height="95px" viewBox="0 0 88 95" version="1.1" xmlns="http://www.w3.org/2000/svg" xmlns:xlink="http://www.w3.org/1999/xlink">
    <!-- Generator: Sketch 59.1 (86144) - https://sketch.com -->
    <title>Group 56</title>
    <desc>Created with Sketch.</desc>
    <defs>
        <polygon id="path-1" points="0 0.0108682635 87.994122 0.0108682635 87.994122 54.6814468 0 54.6814468"></polygon>
    </defs>
    <g id="Home-Page-V2" stroke="none" stroke-width="1" fill="none" fill-rule="evenodd" opacity="0.752441406">
        <g id="Home-Page" transform="translate(-406.000000, -2415.000000)">
            <g id="Group-56" transform="translate(406.000000, 2415.000000)">
                <path d="M79.1724037,57.3943087 L75.3424167,73.9277247 L71.3213431,57.3943087 L65.7902463,57.3943087 L61.7030157,73.739931 L57.9880366,57.3943087 L51.9435129,57.3943087 L58.6323763,83.2134362 L64.580978,83.2134362 L68.5054101,66.8788807 L72.4950146,83.2134362 L78.3371289,83.2134362 L78.3959393,82.9929744 L85.1304348,57.3943087 L79.1724037,57.3943087 Z M23.7434357,73.8909114 L9.75359567,57.3913043 L3.82608696,57.3913043 L3.82608696,83.2173913 L9.59924195,83.2173913 L9.59924195,66.7545596 L23.5502663,83.2173913 L29.5153032,83.2173913 L29.5153032,57.3913043 L23.7434357,57.3913043 L23.7434357,73.8909114 Z" id="Fill-1" fill="#626366"></path>
                <g id="Group-55">
                    <path d="M3.6894819,90.6087164 L3.6894819,90.5873579 C3.6894819,88.3618399 5.38497869,86.4789652 7.76960171,86.4789652 C9.15105486,86.4789652 9.99769243,86.8635317 10.8132645,87.5573616 L9.93115584,88.6122447 C9.31974976,88.0889803 8.72046864,87.7611557 7.71511476,87.7611557 C6.25710877,87.7611557 5.14842927,89.0423633 5.14842927,90.5629373 L5.14842927,90.5873579 C5.14842927,92.2206972 6.2216,93.424485 7.83843526,93.424485 C8.58513616,93.424485 9.26405785,93.1863282 9.7500724,92.8209656 L9.7500724,91.3350188 L7.72535695,91.3350188 L7.72535695,90.1196256 L11.0960921,90.1196256 L11.0960921,93.456088 C10.3150121,94.1266315 9.1955632,94.6956371 7.79388926,94.6956371 C5.31825383,94.6956371 3.6894819,92.923562 3.6894819,90.6087164" id="Fill-2" fill="#626366"></path>
                    <path d="M18.7536623,90.6087164 L18.7536623,90.5873579 C18.7536623,89.0423633 17.6328955,87.7611557 16.0607569,87.7611557 C14.4895596,87.7611557 13.3950761,89.0189635 13.3950761,90.5629373 L13.3950761,90.5873579 C13.3950761,92.1312939 14.5136965,93.4125015 16.0850068,93.4125015 C17.656204,93.4125015 18.7536623,92.1526902 18.7536623,90.6087164 M11.9351497,90.6087164 L11.9351497,90.5873579 C11.9351497,88.3504991 13.654934,86.4789652 16.0850068,86.4789652 C18.5170752,86.4789652 20.2106139,88.3270993 20.2106139,90.5629373 L20.2106139,90.5873579 C20.2106139,92.8209656 18.4938044,94.6956371 16.0607569,94.6956371 C13.6316255,94.6956371 11.9351497,92.8453861 11.9351497,90.6087164" id="Fill-4" fill="#626366"></path>
                    <polygon id="Fill-6" fill="#626366" points="20.1113965 86.6129719 21.6482899 86.6129719 24.033892 92.7205579 26.4085364 86.6129719 27.9119921 86.6129719 24.6220272 94.6164745 23.4003071 94.6164745"></polygon>
                    <polygon id="Fill-8" fill="#626366" points="28.8495894 86.6129719 34.7182518 86.6129719 34.7182518 87.8627655 30.2410211 87.8627655 30.2410211 89.928983 34.2101337 89.928983 34.2101337 91.1778316 30.2410211 91.1778316 30.2410211 93.3109598 34.7759018 93.3109598 34.7759018 94.5577292 28.8495894 94.5577292"></polygon>
                    <path d="M39.550427,90.5527533 C40.5447856,90.5527533 41.1791613,90.0292621 41.1791613,89.2237631 L41.1791613,89.201384 C41.1791613,88.350484 40.5678682,87.8847931 39.5381515,87.8847931 L37.5153941,87.8847931 L37.5153941,90.5527533 L39.550427,90.5527533 Z M36.124979,86.6127715 L39.6513804,86.6127715 C40.64781,86.6127715 41.427911,86.9099382 41.9359914,87.4078748 C42.3553188,87.8391653 42.5908139,88.4285087 42.5908139,89.1213936 L42.5908139,89.1457385 C42.5908139,90.4501569 41.8117672,91.2334657 40.7033136,91.5519909 L42.840392,94.557491 L41.2013402,94.557491 L39.2563783,91.789127 L37.5153941,91.789127 L37.5153941,94.557491 L36.124979,94.557491 L36.124979,86.6127715 Z" id="Fill-10" fill="#626366"></path>
                    <polygon id="Fill-12" fill="#626366" points="43.8186191 86.6129719 45.1038258 86.6129719 49.3447329 92.1049795 49.3447329 86.6129719 50.7139105 86.6129719 50.7139105 94.5577292 49.5478822 94.5577292 45.1838805 88.9043798 45.1838805 94.5577292 43.8186191 94.5577292"></polygon>
                    <polygon id="Fill-14" fill="#626366" points="52.1254312 86.6129719 53.6067834 86.6129719 56.0147902 90.3713875 58.4235125 86.6129719 59.90494 86.6129719 59.90494 94.5577292 58.5145626 94.5577292 58.5145626 88.8608312 56.0147902 92.6070366 55.9702819 92.6070366 53.4955502 88.8830592 53.4955502 94.5577292 52.1254312 94.5577292"></polygon>
                    <polygon id="Fill-16" fill="#626366" points="61.2306146 86.6129719 67.0971307 86.6129719 67.0971307 87.8627655 62.620992 87.8627655 62.620992 89.928983 66.5902175 89.928983 66.5902175 91.1778316 62.620992 91.1778316 62.620992 93.3109598 67.155835 93.3109598 67.155835 94.5577292 61.2306146 94.5577292"></polygon>
                    <polygon id="Fill-18" fill="#626366" points="68.5239055 86.6129719 69.8134049 86.6129719 74.0521657 92.1049795 74.0521657 86.6129719 75.4211926 86.6129719 75.4211926 94.5577292 74.2573107 94.5577292 69.8931208 88.9043798 69.8931208 94.5577292 68.5239055 94.5577292"></polygon>
                    <polygon id="Fill-20" fill="#626366" points="79.0324385 87.9083744 76.5236289 87.9083744 76.5236289 86.6128018 82.9450307 86.6128018 82.9450307 87.9083744 80.4358446 87.9083744 80.4358446 94.5577103 79.0324385 94.5577103"></polygon>
                    <path d="M31.4264267,79.1614523 L34.8032996,75.1008044 C37.1414562,77.0373967 39.5908084,78.2678731 42.5584079,78.2678731 C44.8976941,78.2678731 46.3092337,77.3356596 46.3092337,75.8090372 L46.3092337,75.7327514 C46.3092337,74.2811673 45.4182008,73.5354721 41.0752483,72.4176854 C35.8420159,71.0777324 32.4660844,69.6251276 32.4660844,64.4463906 L32.4660844,64.3713901 C32.4660844,59.6402744 36.2512893,56.5108949 41.5590788,56.5108949 C45.3424387,56.5108949 48.5727579,57.7036821 51.2080134,59.8267549 L48.2392466,64.1482788 C45.9365234,62.5465803 43.6730745,61.5776605 41.4823754,61.5776605 C39.2937472,61.5776605 38.1438353,62.5829087 38.1438353,63.8500159 L38.1438353,63.925092 C38.1438353,65.6382705 39.255226,66.1972962 43.7468786,67.3517893 C49.0175024,68.7292802 51.9860433,70.6303002 51.9860433,75.1748598 L51.9860433,75.2489908 C51.9860433,80.4275766 48.053268,83.3338448 42.4484549,83.3338448 C38.5136462,83.3338448 34.5435546,81.955371 31.4264267,79.1614523" id="Fill-22" fill="#626366"></path>
                    <path d="M44.0178523,51.0886635 C43.907824,51.1040114 45.6509169,51.4943994 45.6509169,51.8646764 C54.72659,51.053129 58.0469049,53.6643096 64.7939105,53.6643096 C69.0972122,53.6643096 71.1262956,52.6923655 71.4668861,50.6989559 C72.0062956,46.3908897 65.3534655,50.8442315 52.3076255,49.3590408 C52.0629426,48.6400343 53.1495185,48.7321215 54.8356015,48.7036561 C70.4977564,48.4421374 74.6235142,47.4824413 81.3530855,44.5739806 C83.6486918,43.5313078 84.581409,42.6680463 85.4798976,41.9071923 C85.92532,41.537936 86.2324727,41.2194108 86.4113722,41.0083964 C86.5031754,40.8999027 86.5730632,40.8298544 86.6085344,40.7771575 C86.6284916,40.7608268 86.6427252,40.74374 86.6427252,40.7254057 L86.663925,40.7254057 C86.879237,40.3885462 86.9853114,40.001069 86.9853114,39.6136296 C86.9853114,38.9949513 86.9853114,38.3771425 86.4820508,38.0066765 C86.4820508,38.0066765 86.2679439,37.8465822 85.8556957,37.5645366 C84.6532549,36.7165097 82.0158531,34.7758347 78.1772156,32.8342525 C78.1599695,32.8169767 78.1398617,32.7989071 78.4976229,32.2348158 C83.3073106,26.0924891 83.755783,22.5077389 83.8094039,21.9436477 L83.8094039,21.8726543 C83.8094039,21.4830601 83.7023504,21.0955073 83.4870008,20.7760749 C83.1464856,20.2495973 82.5727346,19.8944035 81.9440072,19.8600031 C81.9440072,19.8600031 80.8689914,19.8062477 79.0574415,19.8246576 C77.5487141,19.8417444 75.5216264,19.9300514 72.5257855,20.1765626 C71.8608715,19.647968 71.881017,19.0992247 71.881017,18.587906 C71.881017,15.9220627 71.7375134,13.6285756 71.5739019,12.0044601 C71.431415,10.380458 71.2879113,9.44416183 71.2879113,9.44416183 C71.1444454,8.64868055 70.6766182,8.27840354 70.0672832,8.26131674 C69.8704223,8.26131674 69.6732977,8.29677563 69.4559901,8.38508263 C69.4559901,8.38508263 69.1892412,8.49055204 68.7041681,8.70160427 C67.3400739,9.30100318 64.6319935,10.7333458 60.8996187,12.2163818 C59.8769434,6.99020245 58.4968082,3.97128237 58.4968082,3.95396876 C58.2268587,3.19632794 57.7072935,2.91216537 57.0780389,3.01771039 C56.9003067,3.03793481 56.7211813,3.10605519 56.5211197,3.23072835 C56.5211197,3.2470213 55.5187406,3.84744087 53.9385061,4.99584775 C52.808928,5.8093987 51.4072164,6.88477084 49.8491231,8.19024775 L49.1298352,8.66697704 C47.9101107,7.07850945 47.171581,5.56995668 46.4307543,4.36488362 C45.8891231,3.48222942 45.45383,2.79044082 45.1647141,2.31272866 C44.8786858,1.85418245 44.7372156,1.60763353 44.7372156,1.60763353 C44.4302887,1.14708378 44.1431309,1.02335569 44.0178523,1.02335569 L43.977486,1.02758959 C43.8531488,1.02758959 43.5662922,1.15127988 43.2610598,1.60975048 C43.2610598,1.60975048 43.1154852,1.85822734 42.8297205,2.31673575 C42.5426756,2.79251997 42.0645686,3.4975773 41.5393174,4.3731246 C40.8228912,5.59331872 40.0840602,7.08255433 38.863658,8.67003905 L38.1470059,8.19429263 C36.5861638,6.88877792 35.1846405,5.81144004 34.0559661,4.99989263 C32.4775391,3.85159917 31.4721099,3.25106618 31.4721099,3.23379037 C31.2750983,3.11006228 31.0962742,3.03906889 30.9163204,3.02190648 C30.2878566,2.91624806 29.7676135,3.19840708 29.499848,3.95816485 C29.499848,3.97525165 28.1173405,6.99420953 27.0939122,12.2205779 C23.3641732,10.7354249 20.6522896,9.3070894 19.2901535,8.70557355 C18.8070384,8.49455913 18.5382186,8.38912752 18.5382186,8.38912752 C18.3212498,8.30078271 18.1241629,8.26335808 17.9271137,8.26335808 C17.3177787,8.28241062 16.8499516,8.65374611 16.7064479,9.44809331 C16.7064479,9.44809331 16.5630196,10.3844273 16.4215117,12.0065014 C16.2587663,13.6315242 16.115338,15.9261454 16.115338,18.5919508 C16.115338,19.1052353 16.1334501,19.6518995 15.4685361,20.1806452 C12.474578,19.9340963 10.4456452,19.8457137 8.93913941,19.8275684 C7.12736363,19.8102926 6.05020145,19.8630651 6.05020145,19.8630651 C5.42267899,19.8986374 4.84873975,20.2505424 4.50720787,20.7820099 C4.29197125,21.0995522 4.18491776,21.487105 4.18491776,21.8746957 L4.18491776,21.9457268 C4.23846333,22.511746 4.68603201,26.0944927 9.49594557,32.236895 C9.85449756,32.8029519 9.8363478,32.8202278 9.81929003,32.8383352 C5.97846846,34.7789345 3.34106667,36.7204789 2.14069696,37.5686193 C1.72664134,37.8506271 1.5113294,38.0089068 1.5113294,38.0089068 C1.00904784,38.3812252 1.00904784,38.9978621 1.00904784,39.6157465 C1.00904784,40.0053029 1.11726864,40.3925911 1.33231699,40.7284299 L1.34952537,40.7284299 C1.34952537,40.7457057 1.36782576,40.7628303 1.38605083,40.7812024 C1.42129602,40.8338615 1.49310432,40.9039476 1.58302473,41.0125924 C1.76184887,41.2224728 2.06693059,41.540998 2.51672092,41.9111994 C3.41182062,42.6690292 4.34649585,43.5353149 6.64134908,44.5760598 C13.3700166,47.486524 17.4966028,48.4462578 33.1586071,48.7087973 C34.8470624,48.7362798 35.9312284,48.6439279 35.6876751,49.3631613 C22.6429272,50.8471423 15.9879131,46.3939517 16.5275108,50.7031898 C16.8681013,52.6984896 18.8940594,53.6682033 23.2006371,53.6682033 C29.947379,53.6682033 33.2656229,51.0552459 42.345664,51.8656593 C42.345664,51.4975748 44.0866482,51.1079806 43.977486,51.090667 L44.0178523,51.0886635 Z" id="Fill-24" fill="#FEFEFE"></path>
                    <g id="Group-28">
                        <mask id="mask-2" fill="white">
                            <use xlink:href="#path-1"></use>
                        </mask>
                        <g id="Clip-27"></g>
                        <path d="M43.0732889,50.772879 C42.9929586,50.8976656 42.955743,51.0357965 42.9812331,51.182811 L43.0360005,51.1798624 C43.0282078,51.1272033 43.0301013,51.0721626 43.0378212,51.014438 L43.0732889,50.772879 Z M45.0086285,51.1859864 L45.0618786,51.1879143 C45.089754,51.0387451 45.0518758,50.8976656 44.970971,50.7709133 L45.0068633,51.0244179 C45.0145125,51.0813865 45.0145125,51.1352552 45.0086285,51.1859864 L45.0086285,51.1859864 Z M17.5262299,50.5557405 C17.6292919,51.1533249 17.9546321,52.6558671 23.2008178,52.6558671 C25.9220399,52.6558671 28.0692851,52.2134626 30.3418465,51.7457681 C32.8447065,51.2305557 35.4323283,50.69682 38.9761263,50.69682 C39.9320014,50.69682 40.9292217,50.7374957 41.9497883,50.8165411 C42.2650745,50.6025402 42.6662145,50.4523881 43.0582795,50.3266186 L43.0684087,50.200887 L43.8778054,50.0851353 L43.9170797,50.3672943 L43.9332714,50.0780284 L43.9728469,50.0770833 L44.033321,50.7365128 L44.135404,50.0902008 L44.930793,50.2171422 L44.9376839,50.32367 C45.3318953,50.4494017 45.7317926,50.6005367 46.0471165,50.8145375 C47.068888,50.7355678 48.0661837,50.6948921 49.0219457,50.6948921 C52.5636351,50.6948921 55.1503908,51.2275693 57.6523095,51.7416854 C59.9246826,52.2093799 62.0719278,52.651482 64.7930745,52.651482 C70.0402769,52.651482 70.3646381,51.1482216 70.4677754,50.5508262 C70.5263291,50.0607526 70.4384421,49.9349831 70.4374631,49.9340003 C70.436484,49.9320345 70.2908717,49.7779887 69.467392,49.7779887 C68.6934288,49.7779887 67.6454494,49.9076518 66.3198764,50.0721312 C64.2211687,50.3327049 61.3453347,50.689751 57.8978208,50.689751 C56.0000784,50.689751 54.0812115,50.5801232 52.1936736,50.3663114 L51.5600887,50.2932389 L51.3532115,49.6865819 C51.1408366,49.0648794 51.3561486,48.6225127 51.5037566,48.4134262 C51.9956454,47.7166099 52.8868289,47.7084067 54.2349196,47.6981622 C54.4208606,47.6961587 54.6148221,47.6942307 54.8189881,47.6912065 C70.7608075,47.4243954 74.6470035,46.3693989 80.9541597,43.6436006 C82.9438559,42.7398903 83.8046894,42.0054225 84.6383736,41.2953374 L84.829398,41.1329372 C85.2790377,40.7597116 85.5356197,40.4767587 85.6334853,40.3630483 L85.6334853,39.7129183 L85.971214,39.7129183 C85.9740758,39.6803324 85.9760715,39.6469526 85.9760715,39.6135351 C85.9760715,39.3254032 85.9760715,38.8900678 85.8852098,38.8241022 C85.8701477,38.8120432 85.667036,38.6619666 85.2880373,38.4022246 L84.9607767,38.1699273 C83.6430737,37.2346518 81.1906338,35.4928944 77.7238405,33.7389646 L77.5804122,33.6669883 L77.4660912,33.5533158 C76.8518987,32.9415932 77.2750292,32.2760774 77.6470994,31.6899473 L77.7047117,31.6086715 C82.1223343,25.9665874 82.7213142,22.615004 82.8003899,21.8916123 L82.8003899,21.8725598 C82.8003899,21.6744361 82.7479363,21.4870105 82.6518405,21.3438519 C82.468799,21.0630159 82.1798713,20.887347 81.8880442,20.8712053 C81.8868769,20.8712053 80.8237977,20.8194534 79.0676762,20.8366914 C77.326692,20.8569159 75.2127339,20.9716469 72.6079791,21.1867818 L72.2108683,21.2191409 L71.8986321,20.970664 C70.8698191,20.1519719 70.8709864,19.1994584 70.8720031,18.6303772 L70.8720031,18.5877359 C70.8720031,15.5597431 70.6829368,13.2275461 70.5709128,12.1067352 C70.4313629,10.5283987 70.2918507,9.60718578 70.2908717,9.59811315 C70.2322804,9.27958797 70.1383309,9.27656376 70.0383565,9.27459802 C70.0121109,9.27459802 69.941244,9.28057084 69.8332115,9.32419511 C69.8190908,9.33028133 69.5644669,9.43170586 69.105677,9.6315307 C68.7176787,9.80186946 68.1872312,10.0565081 67.5718336,10.3516335 C66.0329068,11.0912046 63.9251995,12.103711 61.2705893,13.1585185 L60.142894,13.6061019 L59.9095829,12.4119916 C59.0496907,8.01546717 57.9171379,5.17123317 57.5904421,4.4043685 C57.5775641,4.37272768 57.5622384,4.33734439 57.5470258,4.29568586 L57.5460091,4.29568586 C57.4449804,4.00978438 57.3631935,4.00978438 57.3236556,4.00978438 C57.300573,4.00978438 57.2731601,4.01175012 57.2440151,4.01674007 L57.1883985,4.02479203 C57.1883985,4.02479203 57.1490865,4.03208795 57.0580365,4.0898504 L57.0570574,4.08879193 C56.994437,4.13445754 56.9327579,4.17494418 56.8742795,4.21161276 C56.5164053,4.44179313 55.6808383,4.98044317 54.5298721,5.81637329 C53.643772,6.45444431 52.2269607,7.51741718 50.4962564,8.96805629 L50.4052063,9.03613887 L48.9037087,10.0301597 L48.3307861,9.28556079 C47.4204361,8.09976709 46.7755923,6.97472226 46.2068495,5.9817221 C45.9876214,5.59923483 45.7802923,5.23595131 45.5722102,4.89731513 C45.3095658,4.46908664 45.0733176,4.08777126 44.8660262,3.75401161 C44.6426937,3.39276944 44.452573,3.08649232 44.3022915,2.83801546 C44.1729085,2.63115933 44.0708255,2.46475204 43.9990549,2.34397256 C43.9243471,2.46679339 43.8191011,2.63819063 43.6837309,2.85532908 C43.5685816,3.04710195 43.4089992,3.29667508 43.2250163,3.58253877 C42.9794297,3.96710518 42.7006689,4.40130648 42.4045491,4.89629445 C42.2458328,5.16624322 42.0800373,5.4592894 41.9093843,5.76458365 C41.316241,6.8186351 40.6433065,8.01244296 39.6632568,9.28960568 L39.0891293,10.0351496 L37.5009119,8.97315965 C35.7426817,7.50131325 34.338146,6.44832028 33.469066,5.82332898 C32.3324087,4.99771898 31.493754,4.45600693 31.1360305,4.22563754 C31.0722427,4.18416803 31.0046894,4.14054376 30.9389059,4.09287462 L30.9379646,4.09287462 C30.8509436,4.03806077 30.812686,4.02883692 30.812686,4.02883692 L30.7499526,4.02078495 C30.7206946,4.0157572 30.6934699,4.01379146 30.66922,4.01379146 C30.6307365,4.01379146 30.550983,4.01379146 30.4509333,4.29670653 L30.4498413,4.29670653 C30.4346663,4.33934793 30.4196043,4.37696157 30.405446,4.40841338 C30.0790138,5.17622312 28.9454066,8.01970107 28.0843848,12.4160365 L27.850057,13.6110919 L26.7223617,13.1617695 C24.0486603,12.0975113 21.9307108,11.0810357 20.3837635,10.3385916 C19.7845576,10.0505353 19.2662727,9.80186946 18.8832072,9.63251356 C18.4356762,9.43665801 18.1799226,9.33629196 18.169944,9.33224707 C18.0586732,9.28658146 17.9921366,9.27750883 17.9415658,9.27656376 C17.8465619,9.28057084 17.7585996,9.30389508 17.7000459,9.62850648 C17.7000459,9.62850648 17.5615504,10.5464684 17.4273099,12.0954322 C17.3130266,13.2326117 17.1239603,15.5699499 17.1239603,18.5917051 L17.1239603,18.6303772 C17.124977,19.2004413 17.126069,20.1551096 16.0953732,20.9745577 L15.7832876,21.2231858 L15.3860638,21.1907511 C12.7820998,20.975654 10.6692714,20.8608851 8.92730817,20.8407741 C7.18628635,20.8234605 6.10814514,20.8741917 6.0989573,20.8752501 C5.81311733,20.8915809 5.52611006,21.0659645 5.35534412,21.3308099 C5.24629491,21.4920005 5.19474506,21.6777249 5.19474506,21.8744877 L5.19474506,21.8946366 C5.27257818,22.6140211 5.86368815,25.9584976 10.289256,31.6107507 L10.3479979,31.6929715 C10.7197669,32.2793285 11.1401486,32.9435967 10.5328846,33.5542608 L10.4177729,33.6690297 L10.2722359,33.7430473 C6.79226324,35.5019292 4.33993633,37.2457279 3.02321232,38.183007 L2.72118066,38.3970834 C2.32184818,38.6689601 2.11783278,38.8191123 2.10879555,38.8253497 C2.01883748,38.8931677 2.01883748,39.3273312 2.01883748,39.6155008 C2.01883748,39.6488806 2.01981652,39.6822981 2.02286658,39.7149218 L2.3411276,39.7149218 L2.35242413,40.356017 C2.35434454,40.3590412 2.35641558,40.3610448 2.35739461,40.3630483 C2.46836423,40.4928248 2.73018023,40.7780081 3.15647377,41.1279473 L3.36282379,41.3034272 C4.19439932,42.0125294 5.05429148,42.7449936 7.05701635,43.6528244 C13.3470395,46.3724609 17.2332354,47.4284402 33.1750172,47.6951758 C33.3791456,47.6993341 33.5751028,47.7003169 33.761119,47.7022449 C35.1080424,47.7134345 35.9982093,47.7195585 36.491303,48.4164127 C36.6387605,48.6244785 36.8540724,49.0667695 36.6440322,49.6885854 L36.4377198,50.2973594 L35.8012354,50.36926 C33.9156556,50.5842437 31.9978807,50.6929264 30.1003642,50.6929264 C26.6516077,50.6929264 23.775962,50.3356535 21.6761246,50.0760626 C20.3504763,49.9117723 19.3025722,49.7808995 18.5276676,49.7808995 C17.7030583,49.7808995 17.5575966,49.9359282 17.5565799,49.9371757 C17.5554879,49.9380829 17.4675255,50.0638524 17.5262299,50.5557405 L17.5262299,50.5557405 Z M23.2008178,54.6814468 C20.1877309,54.6814468 16.1145397,54.2868626 15.5325422,50.8732828 L15.5265551,50.8287135 C15.4051926,49.8611167 15.5740005,49.1305048 16.0428443,48.597185 C16.0489068,48.5908719 16.0541032,48.5838028 16.0600151,48.5777544 C12.3780981,47.9347312 9.61443868,46.9647907 6.24242328,45.5061374 C3.9648914,44.4744651 2.90693333,43.5725316 2.05634198,42.847401 L1.86629662,42.6860215 C1.40649003,42.308751 1.08114985,41.9727988 0.876908515,41.7406149 L0.800205049,41.7406149 L0.483864442,41.2770031 C0.167561489,40.7840943 -3.76551134e-06,40.2099476 -3.76551134e-06,39.6155008 C-3.76551134e-06,38.9204612 -3.76551134e-06,37.870757 0.912454942,37.1940139 C0.91339632,37.1929932 1.13868686,37.0266615 1.57424356,36.7304021 L1.85612974,36.5295566 C3.08993718,35.6522704 5.28553154,34.0909073 8.37950158,32.4445261 C3.92155036,26.6240134 3.27279042,23.0226678 3.18076132,22.040706 L3.17575319,21.8744877 C3.17575319,21.26681 3.34753582,20.6917561 3.6740433,20.2118135 C4.18118237,19.4215868 5.05429148,18.905316 5.99393718,18.8515228 C6.04138263,18.849557 7.12355293,18.7978052 8.94854566,18.814892 C10.6288674,18.835192 12.6315546,18.9387335 15.060686,19.1314514 C15.1061734,19.0179301 15.1061734,18.8768884 15.1061734,18.6324564 L15.1061734,18.5917051 C15.1061734,15.4816807 15.3013022,13.0673385 15.4184849,11.9058897 C15.5587502,10.2818876 15.7033082,9.33432622 15.7094836,9.29467123 C15.9318747,8.06018771 16.7674417,7.28719901 17.895137,7.25064384 L17.9272945,7.25064384 C18.2638935,7.25064384 18.5871627,7.3155888 18.9175487,7.45039307 C18.9175487,7.45039307 19.1975897,7.56005858 19.6935829,7.77723483 C20.1089564,7.96072892 20.6394793,8.21551882 21.2548015,8.51064416 C22.5512671,9.13351851 24.2588135,9.95304228 26.3525508,10.825641 C27.1822059,7.03773929 28.1470805,4.55743145 28.5501032,3.61194923 L28.557333,3.59486243 C28.9747023,2.44244848 29.9183394,1.84074361 31.0509676,2.01743322 C31.3703206,2.05482005 31.6825568,2.17155465 32.0058636,2.37338303 L32.4809958,2.68585978 C32.9294682,2.97811211 33.6873903,3.48115204 34.6483112,4.17993413 C35.8799723,5.06451627 37.253066,6.13489846 38.6275906,7.27797516 C39.2377164,6.39244796 39.7166894,5.54045171 40.1522838,4.76731179 C40.3300536,4.45199984 40.5008195,4.14749945 40.6706441,3.85864936 C40.9869094,3.3310377 41.2869453,2.86239818 41.5284652,2.48603494 C41.6992312,2.2192238 41.8487596,1.985868 41.9650386,1.79307446 C42.2468495,1.34280703 42.3873407,1.1032138 42.3913698,1.09625811 L42.4216445,1.04749268 C42.8389385,0.419666181 43.3765405,0.0474234314 43.9070634,0.0168410831 L44.0181837,0.0108682635 C44.5700193,0.0108682635 45.1376702,0.3871937 45.5763899,1.04446847 L45.6115974,1.10226873 C45.6168691,1.11243765 45.7521263,1.3467007 46.0198542,1.77390851 C46.1743531,2.03055074 46.3604447,2.32972096 46.5796727,2.68283556 C46.7877926,3.01958162 47.0261494,3.4050175 47.2900741,3.83509831 C47.5114485,4.19320286 47.7275136,4.57156964 47.9569462,4.97137053 C48.3642615,5.68349695 48.8136753,6.46748623 49.3676197,7.27495095 C50.7225636,6.14593684 52.0956573,5.07581927 53.3507023,4.17297844 C54.3106817,3.47506582 55.0625037,2.97505009 55.5131225,2.68283556 L55.5131225,2.6705875 L55.9859577,2.37338303 C56.3042564,2.17253752 56.6164549,2.05482005 56.9369,2.01444681 C57.0672996,1.99410898 57.197398,1.98378886 57.3236556,1.98378886 C58.2968897,1.98378886 59.0667485,2.56916298 59.4388187,3.59085535 L59.4468769,3.60794215 C59.8489205,4.55448284 60.8129291,7.03471507 61.6413415,10.8214449 C63.7169667,9.95814564 65.4124635,9.14349841 66.7007955,8.52478235 C67.358668,8.20924358 67.8779697,7.95974606 68.2994057,7.77424842 C68.8077121,7.55306509 69.0835358,7.44343739 69.0835358,7.44343739 C69.4056753,7.3126402 69.7290574,7.2486403 70.0665226,7.2486403 C71.2254716,7.28122619 72.0622812,8.05311861 72.2805679,9.2642779 C72.2917138,9.33028133 72.4351421,10.2786366 72.5796625,11.9160208 C72.6947365,13.0623863 72.889677,15.4714361 72.889677,18.5877359 L72.889677,18.6324564 C72.889677,18.8749226 72.889677,19.0147168 72.934336,19.1274066 C75.3644464,18.9346508 77.3670583,18.8312228 79.0454596,18.8108471 C80.884686,18.7945164 81.9546184,18.8452853 81.9939303,18.8475535 C82.9366261,18.9002882 83.8088315,19.4145555 84.3330283,20.2240616 C84.6473732,20.6905464 84.8192312,21.2658272 84.8192312,21.8725598 L84.8141101,22.040706 C84.7201605,23.0236507 84.0663925,26.6289655 79.6164618,32.4405946 C82.6984199,34.0808896 84.8930352,35.6399845 86.1255623,36.5165147 L86.4358405,36.7355811 C86.8592722,37.0255275 87.0856924,37.1950724 87.0856924,37.1950724 C87.994122,37.8646708 87.994122,38.9164541 87.994122,39.6135351 C87.994122,40.2078684 87.8283642,40.7810323 87.5130027,41.2729204 L87.2150754,41.738687 L87.1160048,41.738687 C86.9199346,41.9617982 86.5996779,42.2924203 86.1226629,42.6882141 L85.9437635,42.8402941 C85.0928709,43.5655381 84.0331807,44.4684545 81.7686398,45.4970648 C78.3877754,46.9577216 75.6190703,47.9296657 71.9328982,48.5737851 C71.939149,48.5798713 71.9450232,48.5869782 71.951161,48.5940473 C72.4199295,49.1275562 72.5886244,49.8569584 72.4674502,50.8245552 L72.4614254,50.8693514 C71.8792397,54.2829312 67.8062744,54.6774775 64.7930745,54.6774775 C61.8667827,54.6774775 59.5184969,54.1944351 57.2469145,53.7270053 C54.8442547,53.2329624 52.3595444,52.720623 49.0219457,52.720623 C47.9741546,52.720623 46.8707468,52.772337 45.7399637,52.8737238 L44.6417147,52.9710278 L44.6417147,52.3656183 C44.4850694,52.3056633 44.2717155,52.2359174 44.0020673,52.1545282 C43.7292183,52.2378075 43.5130403,52.3085741 43.3542864,52.3687181 L43.3542864,52.9731826 L42.256075,52.8748957 C41.1101546,52.7733199 40.0380005,52.7236472 38.9761263,52.7236472 C35.637624,52.7236472 33.151784,53.2348903 30.7479569,53.7299161 C28.4764498,54.1976106 26.1272602,54.6814468 23.2008178,54.6814468 L23.2008178,54.6814468 Z" id="Fill-26" fill="#FEFEFE" mask="url(#mask-2)"></path>
                    </g>
                    <path d="M17.9730153,8.34689439 C17.4344342,8.36515307 17.1151942,8.67967117 16.9989528,9.30749767 C16.9989528,9.30749767 16.8696452,10.2417903 16.7241082,11.8325261 C16.5898677,13.286076 16.4290427,15.5939659 16.4290427,18.3368132 C16.4290427,24.5165267 17.2324522,33.2952862 21.0629939,40.02586 C24.0024274,45.1597252 28.1563136,48.0510991 32.7901518,48.2021585 C30.9846268,46.8163132 28.8333148,44.516702 27.6904445,40.9390209 C26.6134706,37.5457412 26.0657017,33.5327624 26.0657017,29.0125099 C26.0657017,22.772728 27.1065643,17.4228206 27.4259173,15.9315814 C27.4339002,15.8921532 27.439925,15.8668255 27.4408664,15.8564675 C27.6288784,14.9862504 28.128976,14.2954069 28.797053,13.9435019 C24.0711103,10.8982334 20.0070692,9.10873131 19.2209434,8.77293032 C18.7510453,8.55496021 18.4953671,8.46264612 18.4933713,8.46151204 L18.4863298,8.46056698 L18.4802674,8.45754276 C18.3075433,8.3854909 18.1367774,8.34783946 17.9730153,8.34689439" id="Fill-29" fill="#626366"></path>
                    <path d="M58.2258194,15.5633609 C58.105662,15.5633609 57.9753,15.6191198 57.8267505,15.7327546 C57.8228344,15.7358166 57.6783517,15.8455199 57.4125443,16.0766831 C57.1435738,16.2928387 56.7597176,16.6254265 56.2291194,17.097128 C55.519923,17.7311541 54.0769414,19.0713339 52.3945486,20.9286162 C49.7299221,23.9078434 46.199341,28.6006273 44.5210903,34.0358175 C43.553015,37.2058726 43.0711801,39.9518197 43.0872212,42.1966548 C43.0691091,43.8766804 43.3358956,45.2956409 43.8765477,46.4207235 C44.3899375,47.5205162 45.1727497,48.3002338 46.2732204,48.8085661 C46.7349097,49.0147795 47.3219906,49.1200977 48.0183843,49.1200977 L48.0516714,49.1200977 C51.2840993,49.1200977 56.6748053,46.4126716 58.5360976,40.3930523 C59.5353136,37.1489796 60.0436577,33.3207047 60.0436577,29.0135079 C60.0436577,23.6653394 59.2697321,19.0052926 58.9361831,17.2504178 C58.8079675,16.604068 58.7341635,16.2511424 58.7341635,16.2511424 C58.654071,15.943769 58.5007018,15.5633609 58.2258194,15.5633609" id="Fill-31" fill="#626366"></path>
                    <path d="M29.7884293,15.5633609 C29.5044344,15.5633609 29.3346852,15.9397241 29.2408863,16.2611979 C29.2286107,16.3212285 29.1568024,16.6660643 29.039582,17.253442 C28.9507913,17.7017815 28.7717789,18.6563741 28.5789847,20.009558 C28.2756727,22.122613 27.915125,25.4001033 27.915125,29.0135079 C27.915125,33.3887116 28.4284395,37.2098797 29.4398559,40.3717694 C31.3374477,46.4065853 36.8657455,49.1200977 40.1849308,49.1200977 L40.2172012,49.1200977 C40.9165696,49.1200977 41.5308751,49.0074836 42.0442273,48.7873966 C42.3149299,48.6758031 42.5767459,48.5337408 42.869778,48.3359951 C42.6252834,48.002122 42.4079757,47.6350582 42.2099475,47.2201741 C41.5641623,45.872018 41.2407801,44.229606 41.2205593,42.2018338 C41.2388221,39.6972566 41.7601948,36.7686471 42.7708204,33.4921397 C42.8575401,33.1929317 42.9626732,32.8864278 43.0658105,32.5912268 C43.1061392,32.4725265 43.1466561,32.3560565 43.186081,32.2383768 C39.6615623,23.4432866 31.5616462,16.8131544 30.6472671,16.0837522 C30.3572474,15.8475612 30.20979,15.7358166 30.207719,15.7348715 C30.0472329,15.6233537 29.9026749,15.5633609 29.7884293,15.5633609" id="Fill-33" fill="#626366"></path>
                    <path d="M43.9790223,1.16759928 C43.7839688,1.16759928 43.5819492,1.32274138 43.3776702,1.62916971 C43.3746578,1.63518033 43.2101802,1.87473576 42.940306,2.32602386 C42.535024,3.00374987 42.1479671,3.66499392 41.7569564,4.34873055 C40.8840733,5.90294893 39.556354,8.41467077 38.1931635,11.5400053 C37.2575093,13.6712434 36.4046963,15.8896923 35.6590874,18.1356237 C38.2821802,20.7680494 41.8015024,24.8752701 44.1437258,29.8612514 C45.9523762,25.9546493 48.6999945,22.0653609 52.3192157,18.2878549 C49.8509231,10.7629339 46.3828118,4.62582401 44.9997018,2.32602386 C44.7067074,1.8653985 44.555974,1.62210061 44.555974,1.62210061 C44.2770249,1.20101683 44.0437515,1.16759928 43.9790223,1.16759928" id="Fill-35" fill="#626366"></path>
                    <path d="M69.9487298,8.34689439 C69.8435591,8.34783946 69.6738852,8.36719442 69.4585732,8.45754276 L69.4524731,8.46056698 L69.4475779,8.46151204 C69.4442643,8.46264612 69.1898287,8.55496021 68.7268967,8.76986831 C68.2742822,8.95555495 67.6749635,9.23646648 66.9182463,9.59358817 L66.6536062,9.71739187 C64.3203824,10.8515471 62.0490636,12.1173313 59.9005758,13.4778488 C59.6560811,13.6176809 59.4116618,13.773012 59.1700666,13.9321611 C59.8338509,14.2690962 60.3452827,14.9709403 60.5331817,15.8455048 C60.5383028,15.8677705 60.5432356,15.8921532 60.5514444,15.9326399 C60.8655634,17.4238034 61.8912887,22.772728 61.8912887,29.0125099 C61.8912887,33.5073969 61.357678,37.5193549 60.3059331,40.9357321 C59.177334,44.5297818 57.0796053,46.82153 55.3173837,48.1961101 C59.8823884,47.9819203 63.9727504,45.0980691 66.8769763,40.0250661 C70.707405,33.2952862 71.5108899,24.5165267 71.5108899,18.3368132 C71.5108899,16.1496649 71.4118193,13.9546159 71.2157491,11.814154 C71.0702874,10.2397868 70.9408668,9.30553193 70.9396618,9.2964971 C70.8246254,8.67967117 70.5005279,8.36417021 69.9487298,8.34689439" id="Fill-37" fill="#626366"></path>
                    <path d="M57.2798062,3.12204194 C57.2203112,3.12204194 57.1596488,3.12706969 57.0981956,3.13629354 L57.0909282,3.13735201 L57.0838867,3.13837268 C56.9443368,3.15243527 56.7988751,3.21235248 56.6502881,3.31581835 L56.6442256,3.3208083 L56.6372594,3.32481538 C56.6270549,3.33112842 55.6246004,3.94787875 54.0777284,5.06267906 C53.2187776,5.68037445 51.8578841,6.698778 50.1895743,8.08356487 C51.4000356,10.6103322 52.4851807,13.1860539 53.4178225,15.7534591 C55.4086107,14.1789785 57.5900844,12.679952 60.0687322,11.1786195 C59.366389,7.61193894 58.5640339,4.95720965 58.2477686,3.97127859 C58.2357943,3.93657576 58.2287904,3.91219304 58.222502,3.89393436 C58.0297078,3.38182179 57.7123882,3.12204194 57.2798062,3.12204194" id="Fill-39" fill="#626366"></path>
                    <path d="M30.6597159,3.12204194 C30.2281883,3.12204194 29.9109063,3.38182179 29.7171331,3.89393436 C29.7108447,3.91219304 29.7038032,3.93657576 29.6928079,3.97127859 C29.3765426,4.95720965 28.5721164,7.61193894 27.8708652,11.1786195 C30.3494377,12.679952 32.531062,14.1789785 34.5207959,15.7524384 C35.406896,13.2620751 36.4920787,10.6855973 37.7499478,8.08356487 C36.4325837,6.98694764 35.1249345,5.97160611 33.8619067,5.06267906 C32.3148087,3.94787875 31.3125802,3.33112842 31.302338,3.32481538 L31.2963509,3.3208083 L31.2892717,3.31581835 C31.1418143,3.21235248 30.9962773,3.15243527 30.8557484,3.13837268 L30.8487445,3.13735201 L30.8425315,3.13629354 C30.780024,3.12706969 30.7181943,3.12204194 30.6597159,3.12204194" id="Fill-41" fill="#626366"></path>
                    <path d="M8.30935011,19.8189268 C6.96747249,19.8189268 6.18831288,19.8586573 6.18036765,19.8596024 C5.65297013,19.8909408 5.16492221,20.1811518 4.84263209,20.6578433 C4.65360342,20.9419302 4.55660385,21.2939486 4.57159059,21.6468742 C4.66565306,22.5751562 5.28191665,25.934905 9.2772748,30.9936942 C11.3256377,29.9732493 13.3585619,29.0764191 15.3269077,28.3248645 C14.9178225,25.8018774 14.6743069,23.0487856 14.6045696,20.1344277 C12.1602632,19.9042095 10.2343548,19.8372232 9.03590552,19.8229716 C8.77823158,19.8199474 8.53573265,19.8189268 8.30935011,19.8189268" id="Fill-43" fill="#626366"></path>
                    <path d="M79.624697,19.8189268 C79.3994441,19.8189268 79.1588279,19.8199474 78.9043546,19.8229716 C77.7048887,19.8372232 75.778792,19.9042095 73.3355399,20.1344277 C73.268062,22.9432784 73.0243957,25.6964458 72.6111309,28.3248645 C74.5804556,29.0753606 76.6143966,29.9732493 78.6628347,30.9936942 C82.6690376,25.9216741 83.2783726,22.5567841 83.369385,21.6398051 C83.4006764,21.3263455 83.2297975,20.850599 83.0987201,20.6598846 C82.775338,20.1811518 82.2883444,19.8909408 81.7576709,19.8596024 C81.7516084,19.8586573 80.9584411,19.8189268 79.624697,19.8189268" id="Fill-45" fill="#626366"></path>
                    <path d="M72.2777965,30.1980466 C71.4584589,34.335774 70.1790887,37.9522029 68.4716553,40.9507851 C66.6921876,44.0895018 64.4660173,46.4701618 61.8448825,48.043584 C80.8596228,47.0068461 86.2262672,40.8635744 86.7860481,40.1545478 L86.7889475,40.1503139 C86.9780892,39.861426 87.0729801,39.5439593 87.0729801,39.204 C87.0729801,38.6552945 86.8151555,38.1215966 86.3998573,37.8124086 C86.3988782,37.8124086 86.1756964,37.66426 85.7765522,37.3911359 L85.7724854,37.3861459 L85.7674396,37.382101 C85.4663493,37.1539998 85.029663,36.8667752 84.4790323,36.5046258 C84.3336082,36.4092119 84.1801636,36.3077873 84.0214473,36.2023935 C82.6604033,35.3260146 80.4704572,33.9949075 77.7859112,32.6469782 C75.9316604,31.7064103 74.0805727,30.8838623 72.2777965,30.1980466" id="Fill-47" fill="#626366"></path>
                    <path d="M15.6620984,30.1980466 C9.2486795,32.6376409 4.0864647,36.0299378 2.14636029,37.3892079 C1.76035772,37.6663014 1.53909628,37.8143744 1.53088746,37.8204606 C1.12481472,38.1215966 0.867027813,38.6552945 0.867027813,39.204 C0.867027813,39.5429008 0.960977321,39.8584018 1.14801027,40.1453239 C1.16307231,40.163696 1.17433119,40.1819547 1.18227642,40.1959795 C1.22181429,40.2386965 1.26007189,40.2854206 1.30657595,40.3421246 C1.32879247,40.3694937 1.35413436,40.4010589 1.38132135,40.4335314 C1.51179632,40.5786558 1.81586136,40.895064 2.29287634,41.293693 C3.09504322,41.9814367 4.53305434,43.0181367 6.84782713,44.0651191 C11.6355242,46.2439885 18.2741583,47.6195516 26.0961044,48.0608976 C23.5042276,46.4924654 21.2286538,44.0558952 19.4674112,40.9498022 C17.7609568,37.95122 16.4814737,34.334829 15.6620984,30.1980466" id="Fill-49" fill="#626366"></path>
                    <path d="M69.893904,49.4389707 C68.9197285,49.4389707 67.4788556,49.6378505 65.2985116,49.9401205 C64.9749412,49.9848789 64.6376644,50.0314517 64.2808445,50.0811622 C63.3260614,50.2161933 62.1631586,50.2790969 60.6210687,50.2790969 C59.6762643,50.2790969 58.6970054,50.2566799 57.6593811,50.2332801 L57.567352,50.2313144 C56.5812399,50.2088974 55.4635608,50.1835318 54.3429446,50.1835318 C52.0128462,50.1835318 48.999797,50.2790969 46.3454128,51.0215033 C46.2121136,51.0611583 46.1150388,51.2052242 46.1291594,51.2984833 C46.1422258,51.3848246 46.3060632,51.4140839 46.4442951,51.4140839 C46.4837953,51.4140839 46.5243122,51.4121181 46.5675779,51.4089805 C47.6204149,51.3146629 48.639061,51.26809 49.5990028,51.26809 C53.0638004,51.26809 55.4292947,51.868623 57.7179348,52.4477219 C59.8703011,52.9935922 61.9031877,53.5090314 64.7284885,53.5090314 C67.7405587,53.5090314 70.126236,52.865668 71.1086203,51.7864778 C71.4378766,51.4242906 71.5864637,51.0287992 71.5491098,50.6097946 C71.4701847,49.8013848 71.2126237,49.4389707 69.893904,49.4389707" id="Fill-51" fill="#626366"></path>
                    <path d="M18.0380306,49.4389707 C16.7263524,49.4389707 16.4697328,49.8013848 16.3909583,50.6117603 C16.3495754,51.0277407 16.4930413,51.421342 16.8173648,51.7794087 C17.7802437,52.8466533 20.2306126,53.5090314 23.2115043,53.5090314 C26.0356378,53.5090314 28.0696541,52.9935922 30.2220204,52.4477219 C32.5106605,51.8676023 34.8761171,51.26809 38.3409147,51.26809 C39.2998774,51.26809 40.320444,51.3146629 41.3713982,51.4089805 C41.4168856,51.4121181 41.4571012,51.4140839 41.4955471,51.4140839 C41.6341556,51.4140839 41.7986708,51.3848246 41.8118501,51.2984833 C41.8249164,51.2052242 41.7290841,51.0611583 41.5906263,51.0215033 C38.9412501,50.2790969 35.9271089,50.1835318 33.5979519,50.1835318 L33.5969352,50.1835318 C32.4772981,50.1835318 31.3586776,50.2088974 30.3725655,50.2313144 L30.278503,50.2332801 C29.2418578,50.2566799 28.2637285,50.2790969 27.3190747,50.2790969 C25.7761188,50.2790969 24.612877,50.2161933 23.6571526,50.0811622 C23.2943079,50.0305067 22.9466383,49.9827619 22.6164029,49.9371719 C20.4438535,49.6369054 19.008064,49.4389707 18.0380306,49.4389707" id="Fill-53" fill="#626366"></path>
                </g>
            </g>
        </g>
    </g>
</svg>