<?xml version="1.0" encoding="UTF-8"?>
<svg width="109px" height="74px" viewBox="0 0 109 74" version="1.1" xmlns="http://www.w3.org/2000/svg" xmlns:xlink="http://www.w3.org/1999/xlink">
    <!-- Generator: Sketch 59.1 (86144) - https://sketch.com -->
    <title>Group 53</title>
    <desc>Created with Sketch.</desc>
    <defs>
        <polygon id="path-1" points="6.18370729e-05 0.255739486 108.805137 0.255739486 108.805137 63.5150352 6.18370729e-05 63.5150352"></polygon>
        <polygon id="path-3" points="2.2705071e-05 0.256898734 108.805137 0.256898734 108.805137 40.9491394 2.2705071e-05 40.9491394"></polygon>
        <polygon id="path-5" points="0 74 109 74 109 1 0 1"></polygon>
    </defs>
    <g id="Home-Page-V2" stroke="none" stroke-width="1" fill="none" fill-rule="evenodd" opacity="0.748116629">
        <g id="Home-Page" transform="translate(-536.000000, -2429.000000)">
            <g id="Group-53" transform="translate(536.000000, 2429.000000)">
                <g id="Group-3">
                    <mask id="mask-2" fill="white">
                        <use xlink:href="#path-1"></use>
                    </mask>
                    <g id="Clip-2"></g>
                    <path d="M55.6324689,54.355871 C55.6324689,56.9138065 55.6592047,59.4722581 55.6185868,62.0296774 C55.6036764,62.963871 55.9286198,63.3489032 56.8818557,63.3390968 C60.026917,63.308129 63.1730066,63.3530323 66.3175538,63.2988387 C66.761266,63.2910968 67.197266,62.8952258 67.6373792,62.6789677 C67.2034358,62.4539355 66.7751481,62.0472258 66.3355491,62.0348387 C64.0126151,61.9682581 61.6855679,61.964129 59.3621198,62.0136774 C58.0602896,62.0410323 57.5024358,61.6369032 57.5317425,60.2036129 C57.6191481,56.0028387 57.5836717,51.7989677 57.5445962,47.5966452 C57.536884,46.8322581 58.0063038,45.6384516 56.6150113,45.5816774 C55.1250019,45.5207742 55.6751434,46.7698065 55.6550915,47.5047742 C55.5918509,49.7865806 55.6319547,52.0714839 55.6324689,54.355871 M44.6939075,55.0691613 C44.2671623,54.4059355 44.0147142,54.0430968 43.7926009,53.6621935 C42.4331858,51.3365161 41.0403509,49.0299355 39.7452047,46.6686452 C39.1554736,45.5945806 38.4140679,45.3143226 37.2819075,45.6828387 C37.3317802,45.8789677 37.3358934,46.0229677 37.4001623,46.1308387 C39.1822094,49.1073548 41.0485774,52.0374194 42.7185396,55.0753548 C43.3730538,56.2655484 43.6949123,57.6756129 43.9720396,59.0258065 C44.160733,59.9470968 43.9288509,60.9483871 44.0440208,61.8939355 C44.1031481,62.376 44.5124123,62.8152258 44.7633179,63.2730323 C45.0219358,62.8363871 45.4389123,62.4219355 45.5052377,61.9579355 C45.6260632,61.1058065 45.6157802,60.2170323 45.5242613,59.3581935 C45.3458509,57.6797419 45.8497189,56.2335484 46.7268604,54.8384516 C48.0636528,52.7125161 49.3438887,50.5509677 50.6338934,48.396129 C51.1562708,47.5243871 51.6421434,46.6299355 52.1717189,45.699871 C50.8919972,45.3014194 50.1804123,45.6549677 49.6395255,46.6717419 C48.78295,48.2805161 47.8245726,49.8356129 46.8980726,51.4067097 C46.2327613,52.5344516 45.5484264,53.6508387 44.6939075,55.0691613 M22.9782283,54.3584516 C22.9782283,56.8735484 23.0137047,59.3891613 22.9617755,61.9037419 C22.9391528,62.9788387 23.3432755,63.3581935 24.4024264,63.3437419 C27.4600821,63.3003871 30.5177377,63.3292903 33.5753934,63.3261935 C33.8026481,63.3256774 34.0787472,63.3710968 34.2458462,63.2621935 C34.4746434,63.1135484 34.7178368,62.8565161 34.766167,62.6082581 C34.7949594,62.4632258 34.486983,62.1473548 34.2772094,62.0833548 C33.9388981,61.9796129 33.5563698,62.0054194 33.1923509,62.003871 C31.0020679,61.9981935 28.8107566,62.0188387 26.6209877,61.992 C24.8944689,61.9708387 24.7268557,61.7845161 24.7181151,60.1086452 C24.710917,58.8735484 24.7700443,57.635871 24.7016623,56.4049032 C24.63945,55.2735484 25.1114406,54.8265806 26.2086387,54.8405161 C28.1706387,54.8658065 30.1346953,54.8828387 32.0946387,54.8069677 C32.5362943,54.7899355 32.9625255,54.3765161 33.3954406,54.1452903 C32.9614972,53.9372903 32.5332094,53.5677419 32.0920679,53.5507097 C30.2688887,53.4825806 28.4421104,53.5300645 26.6163604,53.5176774 C24.8291717,53.5058065 24.7283981,53.4010323 24.7181151,51.6771613 C24.710917,50.5793548 24.7695302,49.4784516 24.7037189,48.3852903 C24.6332802,47.2209032 25.1849642,46.8482581 26.2518274,46.8596129 C28.5336292,46.8833548 30.8164594,46.899871 33.0967189,46.8338065 C33.5903038,46.8193548 34.0741198,46.4472258 34.5625632,46.2392258 C34.1013698,46.0012903 33.6437755,45.5682581 33.1774406,45.5579355 C30.2580915,45.4944516 27.3361717,45.5517419 24.4163085,45.5125161 C23.368983,45.4985806 22.939667,45.8676129 22.9622896,46.9499355 C23.0131906,49.4185806 22.9782283,51.8887742 22.9782283,54.3584516 M19.3992236,59.6658065 C18.0274689,58.8028387 18.0274689,58.8028387 17.166266,59.795871 C15.0289406,62.2593548 11.3435066,62.6025806 8.79537453,60.5757419 C5.04207264,57.5894194 4.8569783,51.5811613 8.41953019,48.364129 C10.8262708,46.1907097 14.8875491,46.355871 16.8788557,48.8513548 C17.7215491,49.9073548 18.245983,49.7385806 18.9534547,48.8988387 C17.1004547,44.8110968 11.1280774,44.3987097 7.97993113,46.5643871 C4.66828491,48.8425806 3.60553491,52.1633548 4.19115283,55.9150968 C4.87137453,60.2712258 8.29870472,63.9130323 13.2073038,63.48 C15.8099358,63.2503226 17.9544594,62.0818065 19.3992236,59.6658065 M86.0917991,54.4446452 C85.7241811,53.0510968 85.5041245,51.5971613 84.9632377,50.2748387 C82.9462236,45.3385806 76.8741009,43.6885161 72.6488085,46.9065806 C70.6364217,48.4394839 69.5818981,50.572129 69.1381858,53.0516129 C68.3628462,57.3829677 71.274483,62.1938065 75.3419311,63.2307097 C80.8299783,64.6299355 85.8198132,60.4869677 86.0917991,54.4446452 M102.80736,59.8190968 C102.07778,59.011871 101.61453,58.5504516 101.209379,58.0420645 C98.1105915,54.1494194 95.0421387,50.2325161 91.9053038,46.3713548 C91.5700774,45.96 90.8507802,45.8629677 90.3098934,45.619871 C90.1253132,46.092129 89.783917,46.5633548 89.7803179,47.0366452 C89.7412425,51.9729032 89.7530679,56.9086452 89.760266,61.8449032 C89.7612943,62.5298065 89.6903415,63.3215484 90.7314972,63.2916129 C91.7315208,63.2642581 91.5335726,62.4740645 91.5361434,61.8701935 C91.5489972,58.3047742 91.5371717,54.739871 91.5495113,51.1754839 C91.5510538,50.6707097 91.6379453,50.1669677 91.6857613,49.6621935 C91.8605726,49.5661935 92.0358981,49.4691613 92.2107094,49.3731613 C92.4102,49.7277419 92.5680443,50.115871 92.8168934,50.4322581 C94.4267,52.4766452 96.0591292,54.5034839 97.6787047,56.540129 C99.2694877,58.5396129 100.817596,60.5752258 102.468535,62.5230968 C102.820214,62.9380645 103.521002,63.1083871 104.095823,63.2436129 C104.225389,63.2735484 104.67887,62.6851613 104.680412,62.3796129 C104.716917,56.9870968 104.718974,51.5935484 104.669615,46.2010323 C104.667044,45.9249032 104.142096,45.4376774 103.862912,45.4392221 C103.56779,45.4412903 103.177035,45.8629677 103.013021,46.1932903 C102.867002,46.4885161 102.96829,46.9091613 102.96829,47.2750968 C102.966747,50.7945806 102.972403,54.3135484 102.961606,57.8325161 C102.960063,58.3476129 102.883969,58.8621935 102.80736,59.8190968 M54.4833415,0.257290323 C38.5960774,0.257290323 22.7088132,0.257290323 6.82206321,0.25883871 C6.18297358,0.25883871 5.54234151,0.250580645 4.90582264,0.296 C2.01423774,0.502967742 0.014704717,2.60567742 0.0100773585,5.51716129 C-0.00586132075,15.4892903 -0.00277641509,25.4624516 0.0193320755,35.4350968 C0.0208745283,36.1029677 0.118563208,36.8260645 0.385921698,37.4273548 C1.40702547,39.7230968 3.26722358,40.7243871 5.73874717,40.7238712 C38.1976104,40.7192258 70.6569877,40.7207742 103.115851,40.7207742 C103.29786,40.7207742 103.480898,40.7269677 103.662908,40.7171613 C106.607964,40.563871 108.792077,38.3223226 108.796191,35.3612903 C108.812643,25.4345806 108.800818,15.5073548 108.805207,5.58064516 C108.805207,3.91767742 108.125738,2.5963871 106.912342,1.48722581 C105.652158,0.335225806 104.127186,0.255225806 102.554912,0.255739486 C86.530884,0.259354839 70.5068557,0.258322581 54.4833415,0.257290323" id="Fill-1" fill="#FEFEFE" mask="url(#mask-2)"></path>
                </g>
                <g id="Group-6">
                    <mask id="mask-4" fill="white">
                        <use xlink:href="#path-3"></use>
                    </mask>
                    <g id="Clip-5"></g>
                    <path d="M68.8397212,5.25370886 C67.9954854,5.19713924 67.3738769,5.2028481 66.7687212,5.10527848 C65.2339807,4.85616456 64.5362778,5.54226582 64.0246976,6.99906329 C62.1254241,12.4079494 60.0878439,17.7670127 58.0898533,23.1406076 C57.271325,25.3426709 56.4219476,27.5333165 55.4918486,29.9777468 C55.1890137,29.2579114 54.9982637,28.8437595 54.839391,28.4181899 C52.1123344,21.115 49.3976175,13.8071392 46.6463958,6.51329114 C46.4551316,6.00675949 46.0494665,5.28121519 45.6509995,5.21426582 C44.5743675,5.03262025 43.4478627,5.15250633 42.1126127,5.15250633 C42.3537495,5.94188608 42.4730325,6.41831646 42.6427024,6.8755443 C46.0453533,16.031519 49.5143297,25.1625823 52.8059241,34.358519 C53.422391,36.08 54.4707448,35.8874557 55.7484099,35.9896962 C57.0959995,36.0976456 57.6523108,35.5381772 58.0960231,34.318038 C60.7474995,27.0350886 63.4827825,19.7832785 66.182075,12.5184937 C67.0535608,10.1716329 67.9029382,7.81594937 68.8397212,5.25370886 L68.8397212,5.25370886 Z M72.6094759,35.955962 C73.6501175,35.955962 74.5046363,35.8895316 75.3432165,35.9730886 C76.3452967,36.0732532 76.8347684,35.6352278 77.1401741,34.7218101 C77.6188486,33.2883671 78.1237448,31.8549241 78.7499807,30.4832405 C78.9407307,30.0675316 79.5654241,29.5973291 79.9988533,29.5895443 C83.9213108,29.520519 87.845825,29.5158481 91.7677684,29.5911013 C92.2413014,29.5999241 92.9235797,30.0888101 93.1307825,30.5335823 C93.7873533,31.9410759 94.239292,33.4440633 94.8279948,34.8863291 C94.9858392,35.2729747 95.3215797,35.8386709 95.6213297,35.8692911 C96.7596599,35.9855443 97.9170137,35.916 99.2137024,35.916 C99.0512307,35.2911392 98.991075,34.9356329 98.8676788,34.604 C95.3729948,25.1906076 91.8464335,15.7896709 88.4031646,6.35707595 C87.9229476,5.04092405 87.0530042,5.10112658 86.0365278,5.10994937 C84.9526976,5.11825316 83.9711835,4.95892405 83.4395514,6.42143038 C80.0379288,15.7715063 76.5375892,25.0847342 73.0747825,34.4124937 C72.9205373,34.8271646 72.8171929,35.261038 72.6094759,35.955962 L72.6094759,35.955962 Z M27.9282165,22.6532785 C27.9534099,23.0658734 27.9883722,23.3798608 27.9888863,23.6933291 C27.9929995,27.3272785 27.9811741,30.9612278 28.0068816,34.5946582 C28.0099665,35.0160759 28.1765514,35.7815823 28.3328533,35.7997468 C29.3647542,35.917557 30.4547542,36.0369241 31.4347259,35.7893671 C31.7493863,35.709962 31.928825,34.522519 31.9313958,33.8416076 C31.9637873,24.9643291 31.9535042,16.0865316 31.9514476,7.20925316 C31.9509335,6.84181013 32.0475939,6.40170886 31.8840939,6.12405063 C31.649641,5.7275443 31.2671127,5.33 30.8547637,5.15665823 C30.4655514,4.99317722 29.9508863,5.1618481 29.5010042,5.10683544 C28.2690986,4.95632911 27.9462118,5.51787342 27.9683203,6.69805063 C28.0331033,10.1929114 27.9575231,13.6898481 28.011509,17.1841899 C28.0279618,18.2424051 27.7590608,18.6441013 26.6346127,18.6259367 C22.7095844,18.5621013 18.7824995,18.5610633 14.8574712,18.6259367 C13.7016599,18.6451392 13.3756882,18.2642025 13.3962542,17.1322911 C13.4579524,13.6374304 13.4317307,10.1410127 13.4019099,6.64563291 C13.3977967,6.17958228 13.2245278,5.3383038 13.044575,5.31391139 C12.0229571,5.17793671 10.9442684,5.09593671 9.95504198,5.31598734 C9.66814575,5.37982278 9.47122594,6.49512658 9.46916934,7.12881013 C9.43832028,16.0984684 9.44606935,25.0681266 9.4496316,34.0372658 C9.45065991,35.9538861 9.46042877,35.9538861 11.3391363,35.9567075 C13.415792,35.9595949 13.415792,35.9595949 13.4183627,33.8561392 C13.4188769,33.3501266 13.4183627,32.8441139 13.4183627,32.3386203 L13.4183627,22.6532785 L27.9282165,22.6532785 Z M54.4830844,0.258974684 C70.5065986,0.259493671 86.5306269,0.261050633 102.554655,0.256896271 C104.127443,0.256379747 105.652415,0.336822785 106.912599,1.49572152 C108.125481,2.61050633 108.805208,3.93963291 108.805208,5.61129114 C108.801075,15.5934937 108.812386,25.5751772 108.796448,35.5573797 C108.79182,38.5342911 106.607707,40.7887722 103.66265,40.9429114 C103.481155,40.9522532 103.298117,40.9460253 103.115594,40.9460253 C70.6567307,40.9460253 38.1978675,40.9449873 5.73900425,40.9491394 C3.26748066,40.9496582 1.40728255,39.9433418 0.386178774,37.6348861 C0.118306132,37.0302658 0.0206174528,36.3026456 0.019075,35.6310759 C-0.00303349057,25.6032025 -0.00560424528,15.5753291 0.00982028302,5.5474557 C0.0149617925,2.62036709 2.01449481,0.506012658 4.90556557,0.297379747 C5.54208443,0.251708861 6.18323066,0.260012658 6.82180613,0.260012658 C22.7090703,0.258455696 38.5958203,0.258455696 54.4830844,0.258974684 L54.4830844,0.258974684 Z" id="Fill-4" fill="#626366" mask="url(#mask-4)"></path>
                </g>
                <path d="M103.094218,58.6922784 C103.171059,57.781131 103.247385,57.2911558 103.248932,56.8006892 C103.259762,53.4499864 103.254604,50.0992836 103.255636,46.7480894 C103.255636,46.3996517 103.154041,45.9991204 103.300503,45.7180112 C103.465015,45.4034836 103.856957,45.0019693 104.152976,45 C104.433008,44.9985292 104.959551,45.4624575 104.962129,45.725383 C105.011638,50.8600475 105.009575,55.9956949 104.973475,61.1303594 C104.971412,61.4212975 104.516554,61.98155 104.386594,61.9530459 C103.810027,61.8242861 103.107111,61.6621078 102.754363,61.2669824 C101.09841,59.4122519 99.5455986,57.473975 97.9499834,55.5700996 C96.3254883,53.6308398 94.6881004,51.7009176 93.0734039,49.7542861 C92.8237989,49.4530275 92.6654751,49.0834575 92.4653786,48.7458317 C92.2900363,48.8372413 92.1141782,48.9296338 91.9388359,49.0210434 C91.8908746,49.501681 91.8037192,49.9813358 91.802172,50.4619734 C91.7897949,53.8559237 91.802172,57.2503655 91.7887635,60.6452987 C91.7861849,61.2202947 91.9847343,61.9727039 90.9816731,61.9992421 C89.9373548,62.0272548 90.0085232,61.2733712 90.0074918,60.6212177 C90.0002718,55.9209946 89.9884104,51.2212629 90.0276046,46.5210397 C90.0312145,46.0703805 90.3736478,45.6216871 90.5587887,45.1720108 C91.1013184,45.4034836 91.8233163,45.4958761 92.1590452,45.8875613 C95.3054086,49.5640951 98.3831821,53.2937055 101.491383,57.0002177 C101.897764,57.4842955 102.362421,57.9236513 103.094218,58.6922784" id="Fill-7" fill="#626366"></path>
                <path d="M70.8633101,54.4079813 C71.0127476,55.3873018 71.0398716,56.4095985 71.3336289,57.3389592 C72.769662,61.8793964 77.4278137,63.717704 80.89763,61.1407427 C85.179629,57.9605027 85.0209796,50.4509462 80.4759296,47.6682362 C79.3868781,47.0015677 77.8664025,46.6518487 76.6202369,46.8108607 C73.2358866,47.2449205 70.9764118,50.4692111 70.8633101,54.4079813 M86,54.5712909 C85.7292724,60.8603229 80.7625221,65.1724489 75.2998644,63.7160924 C71.2512335,62.636315 68.3530669,57.6295858 69.1248195,53.1208436 C69.5664791,50.540659 70.6161241,48.3209375 72.6192009,46.7254455 C76.8249459,43.3759867 82.868977,45.0934237 84.8766598,50.2312303 C85.4150442,51.6075436 85.6340828,53.1208436 86,54.5712909" id="Fill-9" fill="#626366"></path>
                <path d="M19,59.9910608 C17.5891765,62.5073044 15.4955346,63.7243042 12.954044,63.9635113 C8.16075875,64.4145107 4.81394407,60.6215999 4.1492002,56.0841906 C3.57733972,52.1773205 4.61562546,48.7187621 7.84897178,46.3460427 C10.9236632,44.0905078 16.7552343,44.5200055 18.5647032,48.7773544 C17.8738516,49.6519386 17.3617377,49.8277155 16.538841,48.7279003 C14.5948167,46.1288749 10.6284446,45.9568608 8.27824369,48.2204588 C4.79938397,51.5709708 4.98013003,57.8285211 8.64525862,60.9387509 C11.1335295,63.0491488 14.7323845,62.6916821 16.8194995,60.1265219 C17.6609729,59.0922871 17.6609729,59.0922871 19,59.9910608" id="Fill-11" fill="#626366"></path>
                <path d="M24.0161621,53.4335652 C24.0161621,51.0791172 24.0487343,48.7241772 24.001313,46.3707134 C23.9802369,45.3388895 24.3802038,44.9870754 25.3559314,45.0003607 C28.0766643,45.0382484 30.7983551,44.983139 33.5181299,45.0436609 C33.953064,45.0535018 34.378897,45.4668219 34.808562,45.6936558 C34.3539889,45.891459 33.9032477,46.2467174 33.4429266,46.2600027 C31.3190305,46.3229848 29.1917815,46.3077313 27.0659695,46.284605 C26.0720398,46.27378 25.5585494,46.6290384 25.6236937,47.7390979 C25.685006,48.7812548 25.6308787,49.8307924 25.6371058,50.8773777 C25.6466858,52.5213089 25.7405702,52.6207025 27.4060611,52.6320196 C29.1065191,52.6443208 30.8088931,52.5985604 32.5069561,52.6640027 C32.9179401,52.6797482 33.316949,53.0325464 33.7217059,53.2303495 C33.317907,53.4507869 32.9208141,53.844917 32.5093512,53.8611546 C30.6833945,53.9339776 28.8536059,53.917248 27.0257333,53.8936297 C26.0035425,53.8798524 25.5638184,54.3059657 25.6222567,55.3845341 C25.685485,56.5585598 25.6308787,57.737998 25.6371058,58.915468 C25.6452488,60.5131466 25.8014035,60.6907758 27.4098931,60.7109498 C29.4504427,60.7365363 31.4914714,60.7168544 33.532021,60.7222669 C33.8711546,60.723743 34.2275323,60.6996327 34.5431947,60.7980422 C34.7381487,60.8590561 35.025071,61.1601893 34.9982469,61.2984547 C34.9532207,61.5351296 34.7266526,61.7801693 34.5134966,61.921879 C34.3578209,62.0257011 34.1010757,61.9824009 33.8888777,61.9828929 C31.0407302,61.9858452 28.1916248,61.9582906 25.3434774,61.9996226 C24.3562537,62.0133999 23.9797579,61.6517449 24.000834,60.6268097 C24.0492133,58.2295535 24.0161621,55.8313134 24.0161621,53.4335652" id="Fill-13" fill="#626366"></path>
                <path d="M43.9690608,54.1397129 C44.7729972,52.7808761 45.415953,51.7113114 46.0415055,50.630868 C46.9131215,49.1256646 47.8137431,47.6362846 48.6191298,46.0944895 C49.1281768,45.1203598 49.7972376,44.7816395 51,45.1638742 C50.5025552,46.0544364 50.0452348,46.9113739 49.554558,47.7465541 C48.3411602,49.8110168 47.1379144,51.8824022 45.8810083,53.9186794 C45.0558011,55.2552644 44.5825276,56.6412977 44.7502762,58.2493534 C44.8358425,59.0721716 44.845511,59.9231753 44.7319061,60.7395652 C44.6700276,61.1841046 44.2779696,61.5811737 44.0348066,62 C43.7984116,61.5608999 43.413605,61.1400957 43.3584945,60.6787439 C43.2502072,59.7728527 43.468232,58.813063 43.2903315,57.9304125 C43.0302486,56.6368474 42.7276243,55.2859223 42.1122238,54.1456467 C40.5415746,51.2351251 38.7872238,48.4279504 37.1111878,45.5767667 C37.0507597,45.47342 37.0468923,45.334965 37,45.1470618 C38.0649862,44.7944961 38.7620856,45.0629998 39.3160912,46.092017 C40.5338398,48.3537781 41.8439227,50.564113 43.121616,52.7917547 C43.3309392,53.1566825 43.5678177,53.5043034 43.9690608,54.1397129" id="Fill-15" fill="#626366"></path>
                <path d="M56.0596276,54.4008954 C56.0596276,52.2142327 56.0197411,50.0270759 56.082639,47.8428834 C56.1025822,47.1393571 55.5554217,45.9437575 57.0373574,46.0020553 C58.4211111,46.0564008 57.9542349,47.1991371 57.9619053,47.9308242 C58.0007691,51.9533746 58.0360533,55.9774071 57.9491212,59.9984752 C57.9199734,61.3704505 58.4748044,61.7572912 59.7695806,61.7311065 C62.0804389,61.6836778 64.3948768,61.6876302 66.7052239,61.7513626 C67.1424409,61.7632197 67.568408,62.1525307 68,62.3679362 C67.5622716,62.5749429 67.1286341,62.9538788 66.6873261,62.9612896 C63.5598178,63.0131648 60.4307755,62.9701825 57.3027559,62.9998254 C56.3546852,63.0092124 56.0315025,62.6406515 56.0463321,61.7464221 C56.0867299,59.2984072 56.0601389,56.8494043 56.0596276,54.4008954" id="Fill-17" fill="#626366"></path>
                <path d="M27.8650207,22.6424346 L13.0545828,22.6424346 L13.0545828,32.3666684 C13.0545828,32.8747402 13.0551076,33.3822909 13.0545828,33.8908838 C13.0519588,36.0028992 13.0519588,36.0028992 10.9322835,36 C9.0146569,35.9971671 9.00468566,35.9971671 9.00363605,34.0727475 C9,25.0665885 8.99209041,16.0604295 9.02357853,7.05479169 C9.02567774,6.41800836 9.22615211,5.2986871 9.51951644,5.23459189 C10.5292355,5.01364579 11.6297454,5.09545838 12.6730518,5.23250749 C12.8567325,5.25699916 13.0335908,6.1017011 13.0377892,6.56912716 C13.0682277,10.0792519 13.0944678,13.5898978 13.0314916,17.0984593 C13.0110243,18.235498 13.3437488,18.6174637 14.5235037,18.5981831 C18.5293175,18.5330457 22.5382802,18.5340879 26.544094,18.5981831 C27.691836,18.6164215 27.9668323,18.2136118 27.9500386,17.1510904 C27.8949344,13.6425289 27.9720803,10.1308408 27.9059552,6.62227928 C27.8833887,5.43677841 28.2129644,4.87294898 29.47039,5.02406778 C29.9295918,5.0798254 30.4549186,4.91046813 30.8521938,5.07461441 C31.273085,5.24866157 31.6635377,5.64782362 31.9023226,6.04542238 C32.0697345,6.32473159 31.9710717,6.76610269 31.9715965,7.13504098 C31.9736957,16.0489654 31.9841917,24.9623686 31.9511292,33.876293 C31.9485052,34.5599753 31.7653493,35.7517293 31.4436456,35.8319786 C30.4438978,36.080543 29.3307927,35.9606902 28.2780399,35.8424006 C28.1179752,35.8241622 27.9484642,35.0550196 27.9453154,34.6324081 C27.9190753,30.984192 27.9311457,27.3354548 27.9269473,23.6867176 C27.9264225,23.3714525 27.890736,23.0567086 27.8650207,22.6424346" id="Fill-19" fill="#FEFEFE"></path>
                <path d="M81.1129406,25.4113341 L91.9413265,25.4113341 C90.1421614,20.6040843 88.3951763,15.9380251 86.5375696,10.9781229 C84.6674397,15.955218 82.9214981,20.5999164 81.1129406,25.4113341 M73,35.9688402 C73.2108071,35.2712237 73.3162106,34.8356692 73.4722287,34.4188707 C76.9865492,25.0549714 80.538961,15.7056599 83.9911874,6.31935763 C84.5307282,4.8511849 85.5268437,5.01165233 86.6267973,5.00279536 C87.6583952,4.99445939 88.5412801,4.93350261 89.028641,6.25475386 C92.5231331,15.7238949 96.1026786,25.161776 99.6488288,34.611119 C99.7740608,34.9445578 99.8351113,35.3009206 100,35.9287233 C98.6840213,35.9287233 97.5094504,35.9980161 96.354186,35.8818335 C96.0499768,35.8505736 95.7092417,35.2826856 95.5490492,34.894542 C94.9515886,33.4472092 94.4934485,31.9378776 93.8265886,30.5249307 C93.6163033,30.0784353 92.9238752,29.5881761 92.4432978,29.5787981 C88.4630102,29.5032534 84.4801136,29.5079424 80.4993043,29.5772351 C80.0594272,29.5855711 79.4254406,30.0570744 79.2323748,30.4749149 C78.596301,31.8513919 78.0838938,33.2903888 77.5980983,34.7299066 C77.2881494,35.6468633 76.7913961,36.0860647 75.7749304,35.9860331 C74.9233534,35.9021524 74.0566442,35.9688402 73,35.9688402" id="Fill-21" fill="#FEFEFE"></path>
                <path d="M69,5.19892928 C68.0536522,7.76550155 67.1956024,10.1251676 66.3152184,12.475996 C63.5883654,19.7530628 60.8251544,27.017133 58.1466056,34.312395 C57.6983629,35.534597 57.1363715,36.0950112 55.7750226,35.9868793 C54.4843122,35.884466 53.4252544,36.0773358 52.8024931,34.3529444 C49.4772907,25.1414609 45.972895,15.9949605 42.535502,6.82350662 C42.3640998,6.36550578 42.2435989,5.88826994 42,5.09755565 C43.3488833,5.09755565 44.4868899,4.9774669 45.5745147,5.15941956 C45.9770502,5.22648211 46.3868572,5.95325303 46.5800743,6.46064103 C49.3593867,13.7668202 52.1018217,21.0870358 54.8567224,28.4025725 C55.0172172,28.8288616 55.2099148,29.2437137 55.5158417,29.9647661 C56.4554374,27.5162031 57.3134871,25.321854 58.1403728,23.1160679 C60.1587634,17.7333883 62.2171479,12.3652649 64.1358136,6.94723443 C64.6526172,5.48797408 65.3574438,4.80071288 66.9078545,5.05024796 C67.519189,5.14798254 68.1471443,5.14226402 69,5.19892928" id="Fill-23" fill="#FEFEFE"></path>
                <path d="M71,53.8773677 C71.1119206,50.3295234 73.3478,47.425246 76.696808,47.034267 C77.9299601,46.891037 79.4345575,47.2060461 80.5122362,47.8065473 C85.0098228,50.3130713 85.1668154,57.0772988 80.9295328,59.9418976 C77.4959513,62.2630936 72.8864441,60.6072393 71.4654073,56.5174439 C71.1747176,55.680323 71.147877,54.7594899 71,53.8773677" id="Fill-25" fill="#FEFEFE"></path>
                <path d="M81,26 C82.6702005,21.3329964 84.2825752,16.8277082 86.0096376,12 C87.7251349,16.8110313 89.3384734,21.3370393 91,26 L81,26 Z" id="Fill-27" fill="#626366"></path>
                <path d="M3,72.2671514 L3,70 L3.82182628,70 L3.82182628,72.2390055 C3.82182628,72.9707986 4.26893096,73.3587428 5.00334076,73.3587428 C5.73106904,73.3587428 6.17873051,72.9933154 6.17873051,72.2671514 L6.17873051,70 L7,70 L7,72.2338454 C7,73.4098745 6.21213808,74 4.98997773,74 C3.77505568,74 3,73.4098745 3,72.2671514" id="Fill-29" fill="#626366"></path>
                <polygon id="Fill-31" fill="#626366" points="8 70 8.74740295 70 11.2066703 72.7656027 11.2066703 70 12 70 12 74 11.3247676 74 8.79332969 71.1543592 8.79332969 74 8 74"></polygon>
                <mask id="mask-6" fill="white">
                    <use xlink:href="#path-5"></use>
                </mask>
                <g id="Clip-34"></g>
                <polygon id="Fill-33" fill="#626366" mask="url(#mask-6)" points="14 74 15 74 15 70 14 70"></polygon>
                <polygon id="Fill-35" fill="#626366" mask="url(#mask-6)" points="18.1726112 70.6513401 17 70.6513401 17 70 20 70 20 70.6513401 18.8273888 70.6513401 18.8273888 74 18.1726112 74"></polygon>
                <polygon id="Fill-36" fill="#626366" mask="url(#mask-6)" points="21 70 23.9718332 70 23.9718332 70.6283945 21.7041693 70.6283945 21.7041693 71.6684135 23.7140356 71.6684135 23.7140356 72.296808 21.7041693 72.296808 21.7041693 73.3711291 24 73.3711291 24 74 21 74"></polygon>
                <path d="M26.7771338,70.6403049 L26.7771338,73.3601715 L27.6491043,73.3601715 C28.5779768,73.3601715 29.1844046,72.7941877 29.1844046,72.011434 L29.1844046,72 C29.1844046,71.2172463 28.5779768,70.6403049 27.6491043,70.6403049 L26.7771338,70.6403049 Z M26,70 L27.6491043,70 C29.0389884,70 30,70.8632682 30,71.988566 L30,72 C30,73.1257742 29.0389884,74 27.6491043,74 L26,74 L26,70 Z" id="Fill-37" fill="#626366" mask="url(#mask-6)"></path>
                <path d="M34,73.3774896 L34.4098462,72.8888374 C34.7804615,73.2112089 35.1570769,73.394164 35.6329231,73.394164 C36.0538462,73.394164 36.3192308,73.1940713 36.3192308,72.9050486 L36.3192308,72.8943956 C36.3192308,72.6164891 36.1641538,72.4664196 35.4446154,72.300139 C34.6198462,72.1000463 34.1550769,71.8554887 34.1550769,71.1389532 L34.1550769,71.127837 C34.1550769,70.4613247 34.7084615,70 35.4778462,70 C36.0427692,70 36.4909231,70.172302 36.8841538,70.4891153 L36.5186154,71.0055581 C36.1701538,70.7443261 35.8212308,70.605836 35.4667692,70.605836 C35.0684615,70.605836 34.8358462,70.8110236 34.8358462,71.0666975 L34.8358462,71.0778138 C34.8358462,71.3779528 35.0130769,71.5113478 35.7603077,71.6887448 C36.5795385,71.8888374 37,72.1834182 37,72.827698 L37,72.8388143 C37,73.566466 36.43,74 35.6163077,74 C35.0241538,74 34.4647692,73.7938861 34,73.3774896" id="Fill-38" fill="#626366" mask="url(#mask-6)"></path>
                <polygon id="Fill-39" fill="#626366" mask="url(#mask-6)" points="39.1726112 70.6513401 38 70.6513401 38 70 41 70 41 70.6513401 39.8273888 70.6513401 39.8273888 74 39.1726112 74"></polygon>
                <path d="M44.6521987,72.4227085 L43.9892633,70.8340627 L43.3318104,72.4227085 L44.6521987,72.4227085 Z M43.6877213,70 L44.3122787,70 L46,74 L45.2877213,74 L44.8989149,73.0410408 L43.0850942,73.0410408 L42.6908053,74 L42,74 L43.6877213,70 Z" id="Fill-40" fill="#626366" mask="url(#mask-6)"></path>
                <polygon id="Fill-41" fill="#626366" mask="url(#mask-6)" points="48.172515 70.6513401 47 70.6513401 47 70 50 70 50 70.6513401 48.827485 70.6513401 48.827485 74 48.172515 74"></polygon>
                <polygon id="Fill-42" fill="#626366" mask="url(#mask-6)" points="51 70 53.9713604 70 53.9713604 70.6283945 51.7045346 70.6283945 51.7045346 71.6684135 53.7140811 71.6684135 53.7140811 72.296808 51.7045346 72.296808 51.7045346 73.3711291 54 73.3711291 54 74 51 74"></polygon>
                <path d="M55.4097831,72.8888374 C55.7803415,73.2112089 56.1568989,73.394164 56.6326719,73.394164 C57.0530688,73.394164 57.318874,73.1940713 57.318874,72.9050486 L57.318874,72.8943956 C57.318874,72.6164891 57.163821,72.4664196 56.4443932,72.300139 C55.6202123,72.1000463 55.1550531,71.8554887 55.1550531,71.1389532 L55.1550531,71.127837 C55.1550531,70.4613247 55.7083526,70 56.4776188,70 C57.042455,70 57.4905399,70.172302 57.8837102,70.4891153 L57.518228,71.0055581 C57.1693586,70.7443261 56.8209506,70.605836 56.4670051,70.605836 C56.0678357,70.605836 55.836179,70.8110236 55.836179,71.0666975 L55.836179,71.0778138 C55.836179,71.3779528 56.0129211,71.5113478 56.7600369,71.6887448 C57.5791417,71.8888374 58,72.1834182 58,72.827698 L58,72.8388143 C58,73.566466 57.4300877,74 56.6160591,74 C56.0239963,74 55.4651592,73.7938861 55,73.3774896 L55.4097831,72.8888374 Z" id="Fill-43" fill="#626366" mask="url(#mask-6)"></path>
                <path d="M67.2950558,72.0110574 L67.2950558,72.0004607 C67.2950558,71.2485602 66.7541581,70.6242801 65.9945318,70.6242801 C65.2349054,70.6242801 64.7044885,71.2375029 64.7044885,71.9889426 L64.7044885,72.0004607 C64.7044885,72.7514398 65.2458419,73.3701912 66.0054682,73.3701912 C66.7650946,73.3701912 67.2950558,72.7624971 67.2950558,72.0110574 M64,72.0110574 L64,72.0004607 C64,70.9113108 64.8302575,70 66.0054682,70 C67.1802233,70 68,70.9007141 68,71.9889426 L68,72.0004607 C68,73.0886892 67.1697425,74 65.9945318,74 C64.819321,74 64,73.0997466 64,72.0110574" id="Fill-44" fill="#626366" mask="url(#mask-6)"></path>
                <polygon id="Fill-45" fill="#626366" mask="url(#mask-6)" points="70 70 73 70 73 70.6403049 70.7085934 70.6403049 70.7085934 71.7313006 72.7407585 71.7313006 72.7407585 72.3716055 70.7085934 72.3716055 70.7085934 74 70 74"></polygon>
                <path d="M78.6523527,72.4227085 L77.9894929,70.8340627 L77.3316583,72.4227085 L78.6523527,72.4227085 Z M77.6879854,70 L78.3124714,70 L80,74 L79.2878026,74 L78.8985838,73.0410408 L77.0849703,73.0410408 L76.6907264,74 L76,74 L77.6879854,70 Z" id="Fill-46" fill="#626366" mask="url(#mask-6)"></path>
                <polygon id="Fill-47" fill="#626366" mask="url(#mask-6)" points="81 70 81.7615124 70 83 71.8913768 84.2384876 70 85 70 85 74 84.2845371 74 84.2845371 71.1314912 83 73.017151 82.9767329 73.017151 81.7033446 71.1424488 81.7033446 74 81 74"></polygon>
                <polygon id="Fill-48" fill="#626366" mask="url(#mask-6)" points="87 70 89.9713604 70 89.9713604 70.6283945 87.7045346 70.6283945 87.7045346 71.6684135 89.7140811 71.6684135 89.7140811 72.296808 87.7045346 72.296808 87.7045346 73.3711291 90 73.3711291 90 74 87 74"></polygon>
                <path d="M94.0372706,71.9830852 C94.6285554,71.9830852 95.0051843,71.7200715 95.0051843,71.314592 L95.0051843,71.3026802 C95.0051843,70.87433 94.6420064,70.6403812 94.0299846,70.6403812 L92.8272383,70.6403812 L92.8272383,71.9830852 L94.0372706,71.9830852 Z M92,70 L94.0972397,70 C94.689085,70 95.1525851,70.1481834 95.4552333,70.4002382 C95.7040773,70.6170339 95.8453132,70.9143538 95.8453132,71.2626563 L95.8453132,71.2745682 C95.8453132,71.931626 95.3812526,72.3261465 94.7294381,72.4857653 L96,74 L95.0186353,74 L93.8624072,72.6058368 L92.8272383,72.6058368 L92.8272383,74 L92,74 L92,70 Z" id="Fill-49" fill="#626366" mask="url(#mask-6)"></path>
                <polygon id="Fill-50" fill="#626366" mask="url(#mask-6)" points="97 74 98 74 98 70 97 70"></polygon>
                <path d="M99,72.0110574 L99,72.0004607 C99,70.9007141 99.9312142,70 101.255862,70 C102.062011,70 102.549766,70.2483299 102.968213,70.6017047 L102.474726,71.1048146 C102.124544,70.8173232 101.749349,70.6242801 101.249609,70.6242801 C100.418447,70.6242801 99.806149,71.2319742 99.806149,71.9889426 L99.806149,72.0004607 C99.806149,72.7569684 100.412194,73.3701912 101.249609,73.3701912 C101.787389,73.3701912 102.130797,73.1826768 102.505993,72.8730707 L103,73.3153651 C102.543512,73.7350841 102.043773,74 101.225117,74 C99.9494528,74 99,73.1218613 99,72.0110574" id="Fill-51" fill="#626366" mask="url(#mask-6)"></path>
                <path d="M106.652353,72.4227085 L105.989493,70.8340627 L105.331658,72.4227085 L106.652353,72.4227085 Z M105.687985,70 L106.312471,70 L108,74 L107.287803,74 L106.898584,73.0410408 L105.08497,73.0410408 L104.690726,74 L104,74 L105.687985,70 Z" id="Fill-52" fill="#626366" mask="url(#mask-6)"></path>
            </g>
        </g>
    </g>
</svg>