<?xml version="1.0" encoding="UTF-8"?>
<svg width="189px" height="60px" viewBox="0 0 189 60" version="1.1" xmlns="http://www.w3.org/2000/svg" xmlns:xlink="http://www.w3.org/1999/xlink">
    <!-- Generator: Sketch 59.1 (86144) - https://sketch.com -->
    <title>Group 7</title>
    <desc>Created with Sketch.</desc>
    <defs>
        <polygon id="path-1" points="0.0208676417 0.321893108 64.223301 0.321893108 64.223301 59.6358531 0.0208676417 59.6358531"></polygon>
        <polygon id="path-3" points="0 0.301058587 121.720113 0.301058587 121.720113 41.062607 0 41.062607"></polygon>
    </defs>
    <g id="Home-Page-V2" stroke="none" stroke-width="1" fill="none" fill-rule="evenodd" opacity="0.752441406">
        <g id="Home-Page" transform="translate(-1041.000000, -2432.000000)">
            <g id="Group-7" transform="translate(1041.000000, 2432.000000)">
                <g id="Group-3" transform="translate(124.776699, 0.000000)">
                    <mask id="mask-2" fill="white">
                        <use xlink:href="#path-1"></use>
                    </mask>
                    <g id="Clip-2"></g>
                    <path d="M14.5516204,34.384805 C12.6387175,33.6353646 9.46370777,32.8112618 5.90193107,33.3367154 C3.3358534,33.7274011 2.07469806,34.5768608 1.37109612,35.1591328 C0.218406796,36.1048552 -0.607457282,37.783583 0.653698058,39.5313381 C1.92436796,41.2898935 13.7076786,55.0610958 16.8175136,58.6167115 C17.2846786,59.1402868 18.2380379,59.8324391 19.4601835,59.5835648 C21.0129602,59.2567412 22.7688728,57.4451239 23.435368,56.14816 C23.9543874,55.1930461 24.2897757,54.4262315 24.6156495,53.0644663 C25.7336107,48.226913 24.5466689,43.5856417 22.3088437,40.5108699 C20.1661641,37.6009186 17.0625136,35.3671542 14.5516204,34.384805 M62.8760864,35.1591328 C62.1634456,34.5768608 60.9137078,33.7274011 58.3481058,33.3367154 C54.7863291,32.8112618 51.6089408,33.6353646 49.6955621,34.384805 C47.1803874,35.3671542 44.0814942,37.6009186 41.9407175,40.5108699 C39.6824359,43.5856417 38.5135718,48.226913 39.6343874,53.0644663 C39.9512223,54.4262315 40.2932709,55.1930461 40.8051544,56.14816 C41.4740282,57.4451239 43.2370767,59.2567412 44.7808146,59.5835648 C45.9996301,59.8324391 46.9529893,59.1402868 47.4211058,58.6167115 C50.530465,55.0610958 62.3161544,41.2898935 63.5934845,39.5313381 C64.8484553,37.783583 64.0287757,36.1048552 62.8760864,35.1591328 M32.1269214,17.6721899 C34.9527466,17.6721899 38.1691447,20.0928449 38.1691447,23.4376218 C38.1691447,25.3215535 37.5602126,26.7767639 36.6648922,28.1061284 C36.0911641,28.9532403 35.6534942,29.9285459 35.4736689,30.6347855 C35.2786204,31.4316529 34.8533194,33.3616028 37.2433777,33.3940034 C38.7990087,33.4325085 42.6262417,32.0965699 45.717999,28.416517 C48.0961641,25.461017 49.5100282,21.7128758 49.5100282,17.6242933 C49.5100282,8.06986727 41.7375816,0.321893108 32.1269214,0.321893108 C22.5143583,0.321893108 14.7276398,8.06986727 14.7276398,17.6242933 C14.7276398,21.7128758 16.139601,25.461017 18.5206204,28.416517 C21.617135,32.0965699 25.4419893,33.4325085 26.9942903,33.3940034 C29.3853,33.3616028 28.9523874,31.4316529 28.7673291,30.6347855 C28.5913097,29.9285459 28.1517369,28.9532403 27.5732515,28.1061284 C26.679834,26.7767639 26.068999,25.3215535 26.068999,23.4376218 C26.076135,20.0928449 29.2882515,17.6721899 32.1269214,17.6721899" id="Fill-1" fill="#636466" mask="url(#mask-2)"></path>
                </g>
                <g id="Group-6" transform="translate(0.000000, 17.432039)">
                    <mask id="mask-4" fill="white">
                        <use xlink:href="#path-3"></use>
                    </mask>
                    <g id="Clip-5"></g>
                    <path d="M89.2891955,11.4184916 L103.099779,11.4184916 L97.1438552,19.257689 L113.246311,19.257689 L119.119145,11.5361816 C120.932416,9.14963743 121.352616,7.01223535 121.352616,5.12112805 L121.352616,2.43181687 C121.352616,1.05370506 120.518863,0.301058587 119.248766,0.301058587 L89.2891955,0.301058587 C88.0532843,0.301058587 87.226653,0.982521594 87.226653,2.37676833 L87.226653,9.35037479 C87.226653,10.739876 88.0532843,11.4184916 89.2891955,11.4184916 L89.2891955,11.4184916 Z M0.302164385,38.5071207 C-0.0719800754,39.1463482 -0.0719800754,39.8183201 0.156399982,40.2544374 C0.419915433,40.7645855 1.00629666,41.062607 1.63920855,41.062607 L11.4552778,41.062607 C12.6926134,41.062607 13.7993783,40.3953806 14.4156721,39.3978631 L25.2478189,22.0898416 L10.5541024,22.0898416 C5.51027426,30.1715373 0.429411485,38.3201455 0.302164385,38.5071207 L0.302164385,38.5071207 Z M40.6337976,22.0898416 L26.8968084,22.0898416 C27.2476875,24.0103714 29.7812343,38.2902484 29.9312719,39.1211967 C30.1648748,40.40677 30.9663416,41.062607 32.1414781,41.062607 L41.5924241,41.062607 C42.4584641,41.062607 42.8948077,40.7902116 43.3017135,40.2961984 C43.5785235,39.952145 43.6939005,39.4301329 43.5647542,38.6660971 L40.6337976,22.0898416 Z M82.940135,2.37676833 C82.940135,0.982521594 82.1087556,0.301058587 80.8638231,0.301058587 L72.5239152,0.301058587 C71.2884788,0.301058587 70.4547254,0.982521594 70.4547254,2.37676833 L70.4547254,18.1752258 L62.5492619,3.97175243 C60.9691188,1.35409926 58.3087998,0.358954469 55.2050151,0.301058587 L49.0406527,0.301058587 C47.8166116,0.301058587 46.9804842,0.982521594 46.9804842,2.37676833 L46.9804842,19.2667056 L57.341152,19.2667056 L58.9345896,22.0898416 L46.9804842,22.0898416 L46.9804842,38.9755079 C46.9804842,40.3697546 47.8166116,41.062607 49.0406527,41.062607 L57.4009772,41.062607 C58.6435356,41.062607 59.4658937,40.3697546 59.4658937,38.9755079 L59.4611457,23.0778681 L67.4406784,37.3966587 C69.0042034,40.0005497 71.6740185,40.99522 74.7573867,41.062607 L80.8638231,41.062607 C82.1087556,41.062607 82.940135,40.3697546 82.940135,38.9755079 L82.940135,22.0898416 L72.6535363,22.0898416 L71.064372,19.2667056 L82.940135,19.2667056 L82.940135,2.37676833 Z M37.1231071,2.25860378 C36.892353,0.947878976 36.0030477,0.301058587 34.8459538,0.301058587 L30.7493568,0.301058587 C26.4856293,0.301058587 22.7232934,2.56137077 20.614695,5.97532959 C20.614695,5.97532959 16.7046955,12.2242884 12.323217,19.257689 L40.1395281,19.257689 L37.1231071,2.25860378 Z M119.650449,29.9195479 L105.1533,29.9195479 L111.103052,22.0898416 L94.9958482,22.0898416 L89.256909,29.6291194 C87.1112759,32.6254685 86.9033124,35.649342 86.9033124,37.7473559 L86.9033124,38.9337469 C86.9033124,40.3052149 87.7532091,41.0507431 89.0142848,41.0507431 L119.650449,41.0507431 C120.885885,41.0507431 121.720113,40.3697546 121.720113,38.9755079 L121.720113,32.002376 C121.720113,30.5986381 120.885885,29.9195479 119.650449,29.9195479 L119.650449,29.9195479 Z" id="Fill-4" fill="#636466" mask="url(#mask-4)"></path>
                </g>
            </g>
        </g>
    </g>
</svg>