<?xml version="1.0" encoding="UTF-8"?>
<svg width="195px" height="53px" viewBox="0 0 195 53" version="1.1" xmlns="http://www.w3.org/2000/svg" xmlns:xlink="http://www.w3.org/1999/xlink">
    <!-- Generator: Sketch 59.1 (86144) - https://sketch.com -->
    <title>Group 43</title>
    <desc>Created with Sketch.</desc>
    <defs>
        <polygon id="path-1" points="0 0.407140741 15.114125 0.407140741 15.114125 41.8748296 0 41.8748296"></polygon>
        <polygon id="path-3" points="0.51908501 0.347278431 6.63928549 0.347278431 6.63928549 10.6665696 0.51908501 10.6665696"></polygon>
    </defs>
    <g id="Home-Page-V2" stroke="none" stroke-width="1" fill="none" fill-rule="evenodd" opacity="0.752441406">
        <g id="Home-Page" transform="translate(-108.000000, -2605.000000)">
            <g id="Group-43" transform="translate(108.000000, 2605.000000)">
                <path d="M117.611101,32.3880166 C117.262724,30.5094867 117.099741,28.5492815 116.511642,26.7196229 C115.668203,24.0946351 113.524291,22.8521007 110.51453,22.8487465 C107.486433,22.845406 105.384625,24.0691952 104.469201,26.6714211 C103.119834,30.5074782 103.120513,34.4265495 104.451545,38.2632762 C105.410431,41.026844 107.417844,42.1341457 110.754251,42.0866134 C113.772841,42.0444369 115.771426,40.7885131 116.590418,38.051724 C117.128942,36.2535303 117.27359,34.3428659 117.611101,32.3880166 M91.8760124,32.5480196 C91.790446,29.3901345 92.2855083,26.3333393 93.6477784,23.449267 C96.1488955,18.1537675 100.501912,15.2502806 106.240968,14.2467466 C109.548174,13.6689949 112.873036,13.7392892 116.150362,14.5306015 C123.33997,16.2685429 128.213855,21.8994463 128.952713,29.1578288 C129.271889,32.2922825 129.214166,35.3845596 128.403323,38.4426938 C126.565685,45.3690197 121.431706,49.8564702 114.212217,50.8593347 C110.67276,51.3513944 107.165899,51.2148227 103.743925,50.1704511 C96.721375,48.0281504 92.1449351,41.9326355 91.8787288,34.449981 C91.8569976,33.8166633 91.8760124,33.1820067 91.8760124,32.5480196" id="Fill-1" fill="#626366"></path>
                <path d="M130.866667,38.355824 L138.763667,38.355824 C139.390758,38.355824 140.021806,38.3985673 140.644941,38.3464739 C141.424354,38.282359 141.722404,38.6349912 141.928797,39.368306 C142.81833,42.5273031 147.81528,43.8997638 150.282103,41.6964802 C151.417593,40.6813268 151.196034,38.8306754 149.736777,38.2215834 C148.36654,37.6492238 146.889479,37.3379992 145.462533,36.9025518 C142.975927,36.1445261 140.466902,35.4539546 138.013267,34.6004243 C134.012015,33.2072598 131.748947,30.3374479 131.470679,26.0577748 C131.168673,21.4141158 133.040715,17.7876139 137.249679,15.8588224 C143.063628,13.1953804 149.065506,13.2200914 154.917041,15.8281006 C158.812788,17.5632115 161.207737,21.6625613 160.993431,25.7138248 L150.52806,25.7138248 C149.688641,22.5394668 146.729904,21.0721694 143.803477,22.4673375 C143.208696,22.7511797 142.558526,23.7162433 142.593474,24.3300104 C142.631719,25.015239 143.290462,26.0364032 143.905684,26.2527911 C146.307227,27.0956356 148.81823,27.6152338 151.251424,28.375931 C153.266557,29.005059 155.35884,29.5660648 157.194616,30.5691967 C164.427598,34.5236199 163.052744,45.4351833 156.707317,48.8279329 C152.820142,50.9063259 148.656677,51.3644807 144.356056,51.0378951 C140.72275,50.7627351 137.313641,49.8370755 134.561956,47.2591201 C132.063482,44.9175887 130.942498,41.9716402 130.866667,38.355824" id="Fill-3" fill="#626366"></path>
                <path d="M70.9734615,50.2666667 L59.8170969,50.2666667 L59.8170969,30.6826967 L61.3078123,30.6826967 C65.9305427,30.6826967 70.5539306,30.6874185 75.1773186,30.6773004 C75.8967022,30.6759513 76.6279221,30.6725786 77.3354695,30.5552084 C79.5528019,30.1889322 80.3629305,29.2128703 80.2610068,27.1400036 C80.1597407,25.0961422 79.2134948,24.0323899 77.0329864,23.9737047 C71.8848561,23.8327255 66.7327804,23.8219329 61.5826774,23.759875 C61.0178231,23.7531296 60.454284,23.7592005 59.8,23.7592005 L59.8,14.8808823 C60.1353617,14.8370371 60.4555992,14.7574412 60.7764943,14.7574412 C66.0258906,14.7567666 71.2772597,14.6751471 76.5227106,14.8161263 C78.7643732,14.8761605 81.0809989,15.1102265 83.2108743,15.7739755 C89.1244183,17.6168235 91.5383647,22.5645871 90.9005199,28.6449062 C90.2054664,35.261486 86.4961034,38.7812447 79.9322209,39.3181799 C77.394651,39.5252642 74.8360387,39.521217 72.2872901,39.5191934 C71.2917263,39.5185188 70.9379526,39.8240862 70.9550495,40.8588332 C71.0063401,43.9468852 70.9734615,47.0362863 70.9734615,50.2666667" id="Fill-5" fill="#626366"></path>
                <polygon id="Fill-7" fill="#626366" points="185.199416 50.2666667 173.780143 50.2666667 173.780143 24.1642253 163.8 24.1642253 163.8 14.7333333 195 14.7333333 195 24.0469155 185.199416 24.0469155"></polygon>
                <path d="M20.8,11.0713091 L20.8,8.66666667 C23.0166874,8.91409403 25.1782099,8.95397986 27.2448757,9.41773717 C37.6481698,11.7500443 44.5464741,21.0792728 44.1865567,32.1607738 C43.8656584,42.0206867 35.8445464,50.997027 25.7157314,52.4491417 C20.9977864,53.1265248 21.8084414,53.5138906 21.7532765,49.2048687 C21.7142574,46.1512364 21.7398216,43.0962521 21.7458763,40.0419438 C21.7472218,39.5119355 21.7949865,38.9826032 21.819878,38.4843683 C30.5271876,36.9166523 35.3843904,31.8308707 35.233696,24.5540724 C35.0776197,17.033227 30.0865411,12.3408954 20.8,11.0713091" id="Fill-9" fill="#626366"></path>
                <g id="Group-13" transform="translate(0.000000, 9.533333)">
                    <mask id="mask-2" fill="white">
                        <use xlink:href="#path-1"></use>
                    </mask>
                    <g id="Clip-12"></g>
                    <path d="M15.114125,0.407140741 L15.114125,41.8748296 C8.861775,40.6749778 -0.542425,32.7054 0.024375,19.864963 C0.416325,10.9894296 8.171475,0.865511111 15.114125,0.407140741" id="Fill-11" fill="#626366" mask="url(#mask-2)"></path>
                </g>
                <path d="M94.9879366,1.24913035 L94.9879366,4.6743162 C95.8117055,4.30214675 96.5665272,4.14741696 97.0653451,3.65732569 C97.3177517,3.40989436 97.3093581,2.24703524 97.0647455,2.04390979 C96.5389484,1.60698559 95.7835271,1.52382685 94.9879366,1.24913035 M98.177493,4.54616994 C98.399323,6.67830553 98.5773866,8.39260252 98.7608461,10.1546136 C97.7698053,10.5915378 97.1702647,10.4852036 97.1522785,9.1717045 C97.1456835,8.67684183 97.1049147,8.18334241 97.0737386,7.68916137 C96.95443,5.7710573 96.799149,5.63609475 94.9315798,5.95850528 L94.9315798,10.2704905 C94.4459519,10.3182045 94.079033,10.3529676 93.6,10.4 L93.6,0.38482475 C94.8188662,-0.32747758 97.5851468,-0.00438542249 98.2980007,0.971025711 C99.0576187,2.00846509 98.9047358,3.45215536 98.177493,4.54616994" id="Fill-14" fill="#626366"></path>
                <path d="M62.9628633,2.71787078 L62.7169203,2.72198762 C62.3994899,3.89803128 62.0814036,5.07407495 61.7338042,6.35990098 L63.9440119,6.35990098 C63.5951008,5.06584127 63.278982,3.89185603 62.9628633,2.71787078 M66.7333333,10.1693493 C65.4636116,10.7251226 64.8405561,10.2455108 64.7192242,9.06397804 C64.6005157,7.91469383 63.8771154,7.87901456 63.0704224,7.9640959 C62.2545475,8.04986337 61.1507553,7.50575449 60.9546568,9.01869281 C60.8084027,10.1467067 60.2732308,10.7546266 58.9333333,10.1707216 C59.8902155,6.97811296 60.828734,3.75943104 61.8544802,0.570253127 C61.9515457,0.267665463 62.5903417,0.00487390979 62.9805712,3.51574295e-05 C63.2927548,-0.00404590795 63.8003812,0.347943823 63.8954791,0.651903766 C64.8799069,3.81432223 65.7980941,6.99732488 66.7333333,10.1693493" id="Fill-16" fill="#626366"></path>
                <path d="M123.19614,6.46097209 C124.024989,6.41771303 124.722828,6.38132047 125.518102,6.33943471 C125.130998,5.00527008 124.814995,3.91418022 124.377858,2.40766596 C123.917679,3.98765197 123.578635,5.14878033 123.19614,6.46097209 M128.266667,10.1860586 C127.031623,10.6296357 126.414759,10.3412419 126.306133,9.21581949 C126.199482,8.1123699 125.57801,7.85418879 124.619469,7.95649992 C123.722153,8.05125788 122.60166,7.61386062 122.433783,9.13891448 C122.304749,10.3206424 121.695786,10.6715215 120.466667,10.1929251 C121.080897,8.10619003 121.687885,6.02563479 122.306724,3.94988612 C122.633919,2.85330304 122.920296,1.73612041 123.353483,0.686229667 C123.493051,0.348396935 124.030914,0.039403583 124.411434,0.00232438078 C124.740603,-0.0292616063 125.33245,0.26668536 125.420009,0.548212636 C126.404884,3.71985773 127.31405,6.9162223 128.266667,10.1860586" id="Fill-18" fill="#626366"></path>
                <path d="M105.59739,6.43179991 C105.225023,5.13359119 104.907822,4.02705517 104.461901,2.47192347 C103.998249,4.05492248 103.660689,5.20835714 103.30277,6.43179991 L105.59739,6.43179991 Z M108.333333,10.1687379 C107.11838,10.6676307 106.484634,10.3692466 106.37693,9.17299142 C106.27251,8.02227552 105.542224,7.92507979 104.649726,7.98965038 C103.74081,8.05558035 102.647352,7.69058659 102.499587,9.20085873 C102.381376,10.4120671 101.707569,10.6431618 100.533333,10.1734957 C101.519744,6.96195845 102.466094,3.75925714 103.50373,0.589180972 C103.758542,-0.1870255 105.238158,-0.199259928 105.481148,0.57014964 C106.483977,3.75042117 107.38961,6.96195845 108.333333,10.1687379 L108.333333,10.1687379 Z" id="Fill-20" fill="#626366"></path>
                <g id="Group-24" transform="translate(68.466667, 0.000000)">
                    <mask id="mask-4" fill="white">
                        <use xlink:href="#path-3"></use>
                    </mask>
                    <g id="Clip-23"></g>
                    <path d="M2.00266182,0.774417647 C2.00266182,2.98931176 1.96484364,5.20486863 2.01589818,7.41777451 C2.04993455,8.93347255 3.07543758,9.77714706 4.13056485,9.13362157 C4.58060121,8.8592451 4.98336485,8.11233137 5.01803152,7.55363725 C5.14094061,5.63366471 5.04891636,3.69911176 5.1390497,1.77582549 C5.15858909,1.34305294 5.52668606,0.62662549 5.82986182,0.566315686 C6.76523152,0.378096078 6.63917091,1.2204451 6.62719515,1.82221765 C6.58433455,3.93902549 6.61963152,6.06511176 6.42549818,8.16800196 C6.25405576,10.0210373 5.3275103,10.6910725 3.49963152,10.6658882 C1.82869818,10.6426922 0.708019394,9.7513 0.606540606,8.0347902 C0.473546667,5.77880588 0.511995152,3.50625294 0.591413333,1.24496667 C0.602128485,0.932813725 1.27214061,0.645845098 1.63708606,0.346947059 L2.00266182,0.774417647 Z" id="Fill-22" fill="#626366" mask="url(#mask-4)"></path>
                </g>
                <path d="M83.0852806,2.94088731 C82.2151932,3.21939306 81.6205606,3.23268689 81.3907027,2.12198734 C81.3244936,1.79961195 80.710498,1.37354468 80.3813264,1.4034558 C79.965958,1.44067852 79.4262915,1.8115764 79.2395319,2.20042094 C79.0939968,2.50352028 79.2726364,3.20742862 79.5393466,3.46333486 C80.2439113,4.13932614 81.0852664,4.6531327 81.8529171,5.25800199 C83.2920278,6.39063637 83.6155779,8.12415188 82.6418046,9.38573641 C81.7935787,10.4864656 79.3669532,10.8068469 78.3906814,9.76527528 C77.8335257,9.16971166 77.6236554,8.2092324 77.1333333,7.1417378 L78.9109849,7.1417378 C78.8391543,7.23944745 78.7679483,7.33582773 78.6961177,7.43287269 C79.2220427,7.96861406 79.6805094,8.66321672 80.3076219,8.96565136 C80.5655875,9.08994868 81.1864539,8.37008775 81.6417975,8.03441853 C81.1964477,7.37770329 80.8079378,6.6624952 80.2857604,6.08354888 C79.8847582,5.64019963 79.2988702,5.39226968 78.8229143,5.01804835 C77.6042923,4.05889847 77.2432654,2.84384235 77.7804335,1.60884548 C78.3076077,0.395118741 79.705494,-0.233679449 81.1758354,0.0800549548 C82.438805,0.349919717 83.0159484,1.18211352 83.0852806,2.94088731" id="Fill-25" fill="#626366"></path>
                <path d="M87.0934919,1.5052829 C86.5714852,1.47447928 86.1026283,1.52102698 85.6761647,1.39644344 C85.3958629,1.31361592 85.1788347,0.983674897 84.9333333,0.764626915 C85.1528925,0.514775312 85.3648589,0.0581971752 85.5920108,0.048613826 C87.1630928,-0.0150469936 88.7386038,-0.0164160435 90.3096857,0.0458757262 C90.5475942,0.0554590754 90.7703171,0.497662188 91,0.739984017 C90.7601933,0.967246298 90.5501252,1.31224687 90.2729871,1.39302081 C89.8870185,1.50596743 89.4516966,1.42108633 88.8031428,1.42108633 C88.8031428,3.56775655 88.8031428,5.63707545 88.8025101,7.70707888 C88.8025101,8.30535368 88.8955222,8.9289559 88.7639132,9.4916354 C88.6822904,9.84211217 88.2596231,10.1008626 87.9894451,10.4 C87.7274927,10.0892257 87.2466138,9.78598113 87.2377555,9.46630798 C87.1694201,7.1259172 87.1991587,4.78278833 87.1884022,2.44034397 C87.1871367,2.15352802 87.1320887,1.8673966 87.0934919,1.5052829" id="Fill-27" fill="#626366"></path>
                <path d="M112.32653,8.8632941 C113.193856,8.8632941 113.872482,8.7955361 114.532065,8.89683089 C114.798091,8.93721192 115.023146,9.34855089 115.266667,9.59083708 C115.036996,9.85639369 114.818289,10.3334374 114.575922,10.3512324 C113.447187,10.4326789 112.312681,10.3875069 110.946773,10.3875069 L110.946773,6.19335508 C110.946773,4.55210572 110.901185,2.90811866 110.977934,1.27166027 C110.998708,0.835682015 111.395151,0.423658614 111.619051,0 C111.85507,0.407916856 112.284405,0.808305045 112.294792,1.22443499 C112.359423,3.6993131 112.32653,6.17829775 112.32653,8.8632941" id="Fill-29" fill="#626366"></path>
                <path d="M117,0 L118.733333,0 L118.733333,10.273347 C118.223833,10.3105169 117.695399,10.3490635 117,10.4 L117,0 Z" id="Fill-31" fill="#626366"></path>
                <path d="M117.866667,32.85366 C117.536051,34.7909656 117.394358,36.6844827 116.866836,38.4665385 C116.064578,41.1787663 114.106826,42.4234188 111.14991,42.4652168 C107.881669,42.5123226 105.91527,41.4149584 104.975975,38.6761921 C103.672138,34.8738982 103.671473,30.9899985 104.993271,27.1883681 C105.889992,24.6094959 107.948857,23.3966895 110.915086,23.4 C113.863355,23.4033241 115.963464,24.6347074 116.789671,27.2361372 C117.365754,29.0493756 117.525407,30.9919889 117.866667,32.85366" id="Fill-33" fill="#FEFEFE"></path>
                <path d="M94.4666667,1.73333333 C95.38053,2.01135655 96.2482525,2.09552239 96.8522149,2.53773798 C97.1331918,2.74332338 97.1428331,3.92026534 96.8529036,4.1706932 C96.2799313,4.66671973 95.4128974,4.82332338 94.4666667,5.2 L94.4666667,1.73333333 Z" id="Fill-35" fill="#FEFEFE"></path>
                <path d="M63.845816,2.6 C64.2176855,3.99682241 64.5895549,5.39364481 65,6.93333333 L62.4,6.93333333 C62.8089021,5.40344135 63.1830861,4.00416981 63.5564985,2.60489827 L63.845816,2.6 Z" id="Fill-37" fill="#FEFEFE"></path>
                <path d="M123.066667,6.93333333 C123.494963,5.53048732 123.874605,4.28914111 124.389888,2.6 C124.879369,4.21059348 125.23321,5.37706251 125.666667,6.8033994 C124.776165,6.84817889 123.994764,6.88708566 123.066667,6.93333333" id="Fill-39" fill="#FEFEFE"></path>
                <path d="M105.733333,6.93333333 L103.133333,6.93333333 C103.538886,5.59450738 103.92137,4.33229202 104.446728,2.6 C104.951994,4.30179654 105.31141,5.51269024 105.733333,6.93333333" id="Fill-41" fill="#FEFEFE"></path>
            </g>
        </g>
    </g>
</svg>