<?xml version="1.0" encoding="UTF-8"?>
<svg width="138px" height="61px" viewBox="0 0 138 61" version="1.1" xmlns="http://www.w3.org/2000/svg" xmlns:xlink="http://www.w3.org/1999/xlink">
    <!-- Generator: Sketch 59.1 (86144) - https://sketch.com -->
    <title>Group 3</title>
    <desc>Created with Sketch.</desc>
    <defs>
        <polygon id="path-1" points="0 0 138 0 138 61 0 61"></polygon>
    </defs>
    <g id="Home-Page-V2" stroke="none" stroke-width="1" fill="none" fill-rule="evenodd" opacity="0.752441406">
        <g id="Home-Page" transform="translate(-1060.000000, -2601.000000)">
            <g id="Group-3" transform="translate(1060.000000, 2601.000000)">
                <mask id="mask-2" fill="white">
                    <use xlink:href="#path-1"></use>
                </mask>
                <g id="Clip-2"></g>
                <path d="M69.8818781,32.3781829 C73.3589975,32.3781829 75.2182353,30.8460506 76.3481002,29.099948 L76.2870981,29.3641088 C75.9582172,31.0019054 77.3294382,32.0057163 78.6131345,32.0057163 L79.7323903,32.0057163 L82.8408449,14.4099688 L78.9950606,14.4099688 L78.4805212,17.093842 C77.7856278,15.7069981 75.825604,14.045427 72.6614518,14.045427 C67.067825,14.045427 63.7524937,18.6338992 63.1981703,23.520873 C62.564279,29.1078729 66.1846207,32.3781829 69.8818781,32.3781829 L69.8818781,32.3781829 Z M73.2157752,16.9142127 C79.6607792,17.2708297 77.5601853,29.5358133 71.0090907,29.1712714 C65.0839307,28.8463537 66.9246026,16.5655205 73.2157752,16.9142127 L73.2157752,16.9142127 Z M20.1969979,13.2212455 C20.1969979,9.24034298 17.6296054,7.39121774 13.1234072,7.39121774 C10.3517903,7.39121774 5.98881436,7.38065131 4.39745536,7.38065131 L0,32.0057163 C0.541062059,32.0057163 5.29922546,32.0030747 7.98862217,32.0030747 C9.81338048,32.0030747 11.5506141,31.9423177 12.5292998,31.7389139 C17.0116277,30.79586 18.8284292,27.5493244 19.1917895,25.1692361 C19.6904153,21.87251 17.6030828,19.6931838 15.2266533,19.1675039 C17.0089754,18.7818292 20.1969979,16.9538368 20.1969979,13.2212455 L20.1969979,13.2212455 Z M10.8238934,28.9810757 C10.3252676,29.1052312 9.5242836,29.1712714 7.85070439,29.1712714 L4.94647422,29.1712714 L6.41317676,20.9136064 L10.7231074,20.9136064 C16.4122158,20.9136064 15.8950241,27.7289538 10.8238934,28.9810757 L10.8238934,28.9810757 Z M12.5160385,17.7568855 C11.9670197,17.9391564 11.2402991,17.989347 9.91151429,17.989347 L6.93567296,17.989347 L8.33341662,10.1067902 L12.2269416,10.1067902 C16.8975803,10.1067902 16.5315677,16.441365 12.5160385,17.7568855 L12.5160385,17.7568855 Z M37.1714939,14.4284601 L36.0230632,14.4284601 C36.0230632,14.4284601 34.3282658,24.0941019 34.1373028,25.1982938 C33.728854,27.5651741 32.5830755,29.1871211 29.3632258,29.1871211 C27.5331629,29.1871211 25.7455363,28.0855708 26.1645942,25.6156678 C26.3290346,24.6620475 27.543772,17.6327299 27.6472103,17.0700676 C27.9867002,15.1681102 26.3608618,14.4284601 25.0188157,14.4284601 L24.0029982,14.4284601 C23.7536853,15.8945522 22.639734,22.0785553 22.2153716,24.5009094 C22.0403221,25.4756626 21.97932,26.4636238 22.0535834,27.1028928 C22.4355096,30.3864109 25.3291307,32.3887494 28.9096885,32.3887494 C35.0921182,32.3887494 37.4155023,29.1712714 38.1554842,25.351507 C38.3968403,24.0914602 39.5691415,17.7119782 39.6593185,17.0700676 C39.9298495,15.1681102 38.3544041,14.4284601 37.1714939,14.4284601 L37.1714939,14.4284601 Z M43.5316254,38.9505023 L45.3245565,29.2425948 C46.0221022,30.6294388 48.0086487,32.3887494 51.1781054,32.3887494 C56.8804751,32.3887494 60.4106398,27.9534904 60.7660433,22.7627317 C61.1426649,17.2444136 57.8883358,14.0665598 54.1115104,14.0665598 C50.8359632,14.0665598 48.6054083,15.6515243 47.4649344,17.3051706 L47.5153274,17.0700676 C47.8760354,15.3715139 46.419942,14.4284601 45.189291,14.4284601 L43.9665968,14.4284601 C43.9665968,14.4284601 40.6433088,33.3635025 40.1871192,35.6458514 C39.6487094,38.327083 41.8315235,38.9505023 42.5237647,38.9505023 L43.5316254,38.9505023 Z M52.8304665,17.2232808 C58.7556265,17.5534817 56.90965,29.8660142 50.6211297,29.517322 C44.1814303,29.1659882 46.2767196,16.8613806 52.8304665,17.2232808 L52.8304665,17.2232808 Z M135.689877,39.4127836 C134.037516,39.4127836 131.791048,39.3176858 130.451654,38.8633293 C128.868252,38.3244414 127.47316,37.2519487 125.993196,36.1186991 C125.253214,35.5533951 124.489362,34.9643166 123.661855,34.4148623 C122.651342,33.7518188 121.815879,33.4401091 121.012243,33.4401091 C119.935423,33.4401091 118.887778,34.0212628 117.612039,35.3341417 C115.888067,37.0987355 113.14032,41.1139789 112.042282,42.7544171 C111.968019,42.8574398 111.877842,42.9710289 111.737272,42.9710289 C111.466741,42.9710289 111.461436,42.6196951 111.461436,42.5034644 C111.405739,37.9123506 110.684323,12.8487788 110.180392,5.3651048 C109.95495,2.05517062 108.925871,0 107.485691,0 C106.326651,0 104.597375,1.53213234 103.512598,5.84851897 C100.75159,16.8428893 94.8635621,41.2751169 92.3333013,53.6880305 C92.2590379,54.0287979 91.8744595,54.0261562 91.8028483,53.6880305 C91.5190559,52.4174173 91.2670908,50.9803828 91.0310392,49.767885 C90.2724914,45.9401957 89.6200342,42.6302616 88.3310334,40.8128356 C86.8563741,38.7497402 84.6815168,38.6176598 82.0451654,40.3584791 C81.4643193,40.7441538 80.9020392,41.2249264 80.3105841,41.7347566 C78.6157867,43.1823575 76.7035037,44.8307206 73.523438,44.8307206 L42.4521535,44.8307206 L41.6883012,48.9357786 L74.3854241,48.9357786 C77.727278,48.9357786 80.830428,47.0179716 82.681709,45.6945262 C83.6232631,45.0235579 84.273068,44.6326 84.7929119,44.6326 C85.5116757,44.6326 85.8325998,45.3590421 86.0978263,46.4526676 C86.2304395,46.9862723 86.3895754,47.7259224 86.5725817,48.5818032 C87.1905595,51.4162481 88.1215045,55.8832063 89.3017624,58.8523731 C89.8534335,60.2365754 90.6676789,61 91.6012762,61 C93.0334993,61 94.4895927,59.3146544 95.3117949,56.7126711 C96.4151371,53.2415988 103.024581,24.7095964 105.814764,12.7616058 C105.931464,12.2702668 105.992466,11.992898 105.997771,11.9717651 C106.048164,11.7630781 106.186081,11.6230729 106.353174,11.6230729 C106.501701,11.6230729 106.663489,11.7445869 106.668794,12.0166724 L106.671446,12.0615798 C106.883627,24.1522172 107.485691,45.3880998 108.392766,47.5674259 C108.888739,48.7746406 109.655244,49.4139096 110.604755,49.4139096 C111.708097,49.4139096 113.031577,48.5289711 113.967827,47.16326 C114.445235,46.4764421 115.047299,45.5782955 115.686495,44.6326 C117.264592,42.2947774 119.054871,39.6505283 119.58002,39.0852243 C120.367742,38.253118 121.274817,38.253118 122.561165,39.1248484 C122.746824,39.2516456 122.972267,39.4127836 123.229536,39.5976962 C124.60341,40.588299 126.897619,41.95401 129.47562,42.6619609 C131.183679,43.1268838 133.385059,43.2272649 134.923373,43.2272649 C135.920624,43.2272649 136.98153,43.1876407 137.289193,43.1665079 L138,39.3652347 C137.626031,39.383726 136.620822,39.4127836 135.689877,39.4127836 L135.689877,39.4127836 Z" id="Fill-1" fill="#626366" mask="url(#mask-2)"></path>
            </g>
        </g>
    </g>
</svg>