<?xml version="1.0" encoding="UTF-8"?>
<svg width="20px" height="18px" viewBox="0 0 20 18" version="1.1" xmlns="http://www.w3.org/2000/svg" xmlns:xlink="http://www.w3.org/1999/xlink">
    <!-- Generator: Sketch 59.1 (86144) - https://sketch.com -->
    <title>Fill 3063</title>
    <desc>Created with Sketch.</desc>
    <defs>
        <path d="M19.4480552,0.33 C18.6548012,0.855 17.7762224,1.23 16.8416492,1.4325 C16.0943906,0.5475 15.0278306,0 13.8466153,0 C11.5815085,0 9.7443589,2.0325 9.7443589,4.545 C9.7443589,4.8975 9.7810219,5.2425 9.8496817,5.58 C6.44002266,5.385 3.41699163,3.5775 1.39319401,0.8325 C1.04056261,1.5 0.837249608,2.28 0.837249608,3.1125 C0.837249608,4.6875 1.56317702,6.0825 2.66306703,6.9 C1.99113422,6.87 1.35786421,6.6675 0.804586208,6.33 L0.804586208,6.3825 C0.804586208,8.5875 2.21911142,10.425 4.09625704,10.845 C3.75162484,10.9425 3.38966103,11.0025 3.01436523,11.0025 C2.75039163,11.0025 2.49375062,10.9725 2.24244242,10.92 C2.76572343,12.7275 4.28023864,14.04 6.07539246,14.0775 C4.67086625,15.2925 2.90237643,16.02 0.97923541,16.02 C0.647268606,16.02 0.321301203,15.9975 0,15.96 C1.81715162,17.25 3.97426924,18 6.29070426,18 C13.8379495,18 17.963537,11.0775 17.963537,5.07 C17.963537,4.875 17.9608706,4.6725 17.953538,4.485 C18.7541246,3.84 19.4507216,3.0375 20,2.13 C19.2640736,2.49 18.4741526,2.7375 17.643569,2.8425 C18.4908176,2.28 19.1407526,1.395 19.4480552,0.33" id="path-1"></path>
        <filter x="-10.0%" y="-11.1%" width="120.0%" height="122.2%" filterUnits="objectBoundingBox" id="filter-2">
            <feGaussianBlur stdDeviation="1.5" in="SourceAlpha" result="shadowBlurInner1"></feGaussianBlur>
            <feOffset dx="0" dy="1" in="shadowBlurInner1" result="shadowOffsetInner1"></feOffset>
            <feComposite in="shadowOffsetInner1" in2="SourceAlpha" operator="arithmetic" k2="-1" k3="1" result="shadowInnerInner1"></feComposite>
            <feColorMatrix values="0 0 0 0 0   0 0 0 0 0   0 0 0 0 0  0 0 0 0.5 0" type="matrix" in="shadowInnerInner1"></feColorMatrix>
        </filter>
    </defs>
    <g id="Our-Location-(Contact-Us)" stroke="none" stroke-width="1" fill="none" fill-rule="evenodd">
        <g id="Form-Validation-Pop_up" transform="translate(-410.000000, -476.000000)">
            <g id="Group-8" transform="translate(175.000000, 94.000000)">
                <g id="Group-14" transform="translate(101.000000, 101.000000)">
                    <g id="Group-6" transform="translate(134.000000, 281.000000)">
                        <g id="Fill-3063">
                            <use fill="#0C7DBA" fill-rule="evenodd" xlink:href="#path-1"></use>
                            <use fill="black" fill-opacity="1" filter="url(#filter-2)" xlink:href="#path-1"></use>
                        </g>
                    </g>
                </g>
            </g>
        </g>
    </g>
</svg>