<?xml version="1.0" encoding="UTF-8"?>
<svg width="25px" height="19px" viewBox="0 0 25 19" version="1.1" xmlns="http://www.w3.org/2000/svg" xmlns:xlink="http://www.w3.org/1999/xlink">
    <!-- Generator: Sketch 59.1 (86144) - https://sketch.com -->
    <title>Fill 3175</title>
    <desc>Created with Sketch.</desc>
    <g id="Our-Location-(Contact-Us)" stroke="none" stroke-width="1" fill="none" fill-rule="evenodd">
        <g id="Form-Validation-Pop_up" transform="translate(-504.000000, -476.000000)" fill="#0C7DBA">
            <g id="Group-8" transform="translate(175.000000, 94.000000)">
                <g id="Group-14" transform="translate(101.000000, 101.000000)">
                    <g id="Group-6" transform="translate(134.000000, 281.000000)">
                        <path d="M105,13 L105,5 L111,9.01365188 L105,13 Z M118.75,4.09363636 C118.75,4.09363636 118.508333,2.23681818 117.758333,1.41636364 C116.808333,0.336818182 115.741667,0.328181818 115.25,0.267727273 C111.75,0 106.508333,0 106.508333,0 L106.491667,0 C106.491667,0 101.25,0 97.75,0.267727273 C97.2583333,0.328181818 96.1916667,0.336818182 95.2416667,1.41636364 C94.4916667,2.23681818 94.25,4.09363636 94.25,4.09363636 C94.25,4.09363636 94,6.27863636 94,8.47227273 L94,10.5190909 C94,12.7040909 94.25,14.8890909 94.25,14.8890909 C94.25,14.8890909 94.4916667,16.7545455 95.2416667,17.575 C96.1916667,18.6459091 97.4416667,18.6113636 98,18.7236364 C100,18.9309091 106.5,19 106.5,19 C106.5,19 111.75,18.9913636 115.25,18.715 C115.741667,18.6545455 116.808333,18.6459091 117.758333,17.575 C118.508333,16.7545455 118.75,14.8890909 118.75,14.8890909 C118.75,14.8890909 119,12.7040909 119,10.5190909 L119,8.47227273 C119,6.27863636 118.75,4.09363636 118.75,4.09363636 L118.75,4.09363636 Z" id="Fill-3175"></path>
                    </g>
                </g>
            </g>
        </g>
    </g>
</svg>