<?xml version="1.0" encoding="UTF-8"?>
<svg width="9px" height="19px" viewBox="0 0 9 19" version="1.1" xmlns="http://www.w3.org/2000/svg" xmlns:xlink="http://www.w3.org/1999/xlink">
    <!-- Generator: Sketch 59.1 (86144) - https://sketch.com -->
    <title>Fill 3070</title>
    <desc>Created with Sketch.</desc>
    <g id="Our-Location-(Contact-Us)" stroke="none" stroke-width="1" fill="none" fill-rule="evenodd">
        <g id="Form-Validation-Pop_up" transform="translate(-480.000000, -476.000000)" fill="#0C7DBA">
            <g id="Group-8" transform="translate(175.000000, 94.000000)">
                <g id="Group-14" transform="translate(101.000000, 101.000000)">
                    <g id="Group-6" transform="translate(134.000000, 281.000000)">
                        <path d="M71.9285714,19 L75.7857143,19 C75.7857143,19 75.7857143,13.756 75.7857143,9.5 L78.6483571,9.5 L79,5.7 L75.9348571,5.7 L75.9348571,4.18 C75.9348571,3.439 76.4356429,3.268 76.7872857,3.268 C77.1389286,3.268 78.9505,3.268 78.9505,3.268 L78.9505,0.0126666667 L75.9715,0 C72.664,0 71.9125,2.42566667 71.9125,3.98366667 L71.9125,5.7 L70,5.7 L70,9.5 L71.9285714,9.5 C71.9285714,13.8066667 71.9285714,19 71.9285714,19" id="Fill-3070"></path>
                    </g>
                </g>
            </g>
        </g>
    </g>
</svg>