<?xml version="1.0" encoding="UTF-8"?>
<svg width="20px" height="20px" viewBox="0 0 20 20" version="1.1" xmlns="http://www.w3.org/2000/svg" xmlns:xlink="http://www.w3.org/1999/xlink">
    <!-- Generator: Sketch 59.1 (86144) - https://sketch.com -->
    <title>Instagram-black</title>
    <desc>Created with Sketch.</desc>
    <g id="Our-Location-(Contact-Us)" stroke="none" stroke-width="1" fill="none" fill-rule="evenodd">
        <g id="Form-Validation-Pop_up" transform="translate(-544.000000, -476.000000)" fill="#0C7DBA">
            <g id="Group-8" transform="translate(175.000000, 94.000000)">
                <g id="Group-14" transform="translate(101.000000, 101.000000)">
                    <g id="Group-6" transform="translate(134.000000, 281.000000)">
                        <path d="M144.546755,0.000185542592 C146.76819,0.00183407391 147.132567,0.0149877215 148.122987,0.0601777148 C149.187371,0.108724776 149.914306,0.277786048 150.55038,0.525006897 C151.207968,0.780524015 151.765644,1.12245728 152.321613,1.67838663 C152.877543,2.23435568 153.219476,2.79203161 153.475033,3.44962002 C153.722214,4.0856937 153.891275,4.81262938 153.939822,5.87701279 C153.983274,6.82933987 153.997107,7.20285446 153.999572,9.20505419 L153.999572,10.7949741 C153.997107,12.7971455 153.983274,13.1706601 153.939822,14.1229872 C153.891275,15.1873706 153.722214,15.9143063 153.475033,16.55038 C153.219476,17.2079684 152.877543,17.7656443 152.321613,18.3216134 C151.765644,18.8775427 151.207968,19.219476 150.55038,19.4750328 C149.914306,19.722214 149.187371,19.8912752 148.122987,19.9398223 C147.17066,19.9832742 146.797146,19.9971067 144.794974,19.999572 L143.205054,19.999572 C141.202854,19.9971067 140.82934,19.9832742 139.877013,19.9398223 C138.812629,19.8912752 138.085694,19.722214 137.44962,19.4750328 C136.792032,19.219476 136.234356,18.8775427 135.678387,18.3216134 C135.122457,17.7656443 134.780524,17.2079684 134.525007,16.55038 C134.277786,15.9143063 134.108725,15.1873706 134.060178,14.1229872 C134.014988,13.132567 134.001834,12.7681905 134.000186,10.5467547 L134.000186,9.45327713 C134.001834,7.23180952 134.014988,6.86743295 134.060178,5.87701279 C134.108725,4.81262938 134.277786,4.0856937 134.525007,3.44962002 C134.780524,2.79203161 135.122457,2.23435568 135.678387,1.67838663 C136.234356,1.12245728 136.792032,0.780524015 137.44962,0.525006897 C138.085694,0.277786048 138.812629,0.108724776 139.877013,0.0601777148 C140.867433,0.0149877215 141.23181,0.00183407391 143.453277,0.000185542592 Z M144.807113,1.80221443 L143.192915,1.80221443 C141.250492,1.80453362 140.896439,1.81734582 139.959142,1.86011063 C138.984152,1.9045691 138.454659,2.06747764 138.102286,2.2044256 C137.635512,2.38583204 137.302391,2.60252738 136.952479,2.95247906 C136.602527,3.30239103 136.385832,3.635512 136.204426,4.10228624 C136.067478,4.45465931 135.904569,4.98415175 135.860111,5.95914187 C135.817346,6.89643933 135.804534,7.25049185 135.802214,9.1929149 L135.802214,10.807113 C135.804534,12.7495082 135.817346,13.1035607 135.860111,14.0408581 C135.904569,15.0158483 136.067478,15.5453407 136.204426,15.8977138 C136.385832,16.364488 136.602567,16.697609 136.952479,17.0475209 C137.302391,17.3974726 137.635512,17.614168 138.102286,17.7955744 C138.454659,17.9325224 138.984152,18.0954309 139.959142,18.1398894 C140.857284,18.1808723 141.219801,18.1943467 142.958157,18.1974396 L145.04187,18.1974396 C146.780209,18.1943467 147.14275,18.1808723 148.040858,18.1398894 C149.015848,18.0954309 149.545341,17.9325224 149.897714,17.7955744 C150.364488,17.614168 150.697609,17.3974726 151.047521,17.0475209 C151.397473,16.697609 151.614168,16.364488 151.795574,15.8977138 C151.932522,15.5453407 152.095431,15.0158483 152.139889,14.0408581 C152.180872,13.1426147 152.194347,12.7800251 152.19744,11.0417968 L152.19744,8.95822769 C152.194347,7.21997489 152.180872,6.85738527 152.139889,5.95914187 C152.095431,4.98415175 151.932522,4.45465931 151.795574,4.10228624 C151.614168,3.635512 151.397473,3.30239103 151.047521,2.95247906 C150.697609,2.60252738 150.364488,2.38583204 149.897714,2.2044256 C149.545341,2.06747764 149.015848,1.9045691 148.040858,1.86011063 C147.103561,1.81734582 146.749508,1.80453362 144.807113,1.80221443 Z M144.00002,4.86486808 C146.836073,4.86486808 149.135132,7.16392671 149.135132,10.0000198 C149.135132,12.8360733 146.836073,15.1351319 144.00002,15.1351319 C141.163927,15.1351319 138.864868,12.8360733 138.864868,10.0000198 C138.864868,7.16392671 141.163927,4.86486808 144.00002,4.86486808 Z M144.00002,6.66666667 C142.159042,6.66666667 140.666667,8.15904224 140.666667,10.0000198 C140.666667,11.8409578 142.159042,13.3333333 144.00002,13.3333333 C145.840958,13.3333333 147.333333,11.8409578 147.333333,10.0000198 C147.333333,8.15904224 145.840958,6.66666667 144.00002,6.66666667 Z M149.338013,3.46196518 C150.000762,3.46196518 150.538035,3.99923785 150.538035,4.66198662 C150.538035,5.32473538 150.000762,5.86196836 149.338013,5.86196836 C148.675304,5.86196836 148.138032,5.32473538 148.138032,4.66198662 C148.138032,3.99923785 148.675304,3.46196518 149.338013,3.46196518 Z" id="Instagram"></path>
                    </g>
                </g>
            </g>
        </g>
    </g>
</svg>