<?xml version="1.0" encoding="UTF-8"?>
<svg width="247px" height="253px" viewBox="0 0 247 253" version="1.1" xmlns="http://www.w3.org/2000/svg" xmlns:xlink="http://www.w3.org/1999/xlink">
    <!-- Generator: Sketch 59.1 (86144) - https://sketch.com -->
    <title>Group 6</title>
    <desc>Created with Sketch.</desc>
    <defs>
        <polyline id="path-1" points="94.5024514 0.312100257 0.329727626 0.447748072 0.536731518 142.774288 94.7098249 142.639008 94.5024514 0.312100257"></polyline>
    </defs>
    <g id="Our-Location-(Contact-Us)" stroke="none" stroke-width="1" fill="none" fill-rule="evenodd">
        <g id="Our-Location-Page" transform="translate(-875.000000, -142.000000)">
            <g id="Group-6" transform="translate(875.000000, 142.000000)">
                <g id="Group-15">
                    <path d="M119.13859,27.637646 C119.13859,24.0940868 121.986917,21.2217116 125.5,21.2217116 C129.013445,21.2217116 131.86141,24.0940868 131.86141,27.637646 C131.86141,31.1808394 129.013445,34.0532145 125.5,34.0532145 C121.986917,34.0532145 119.13859,31.1808394 119.13859,27.637646 Z M112,28.6153435 C112,36.1351653 125.130813,54 125.5,54 C125.996481,54 139,36.1351653 139,28.6153435 C139,21.0958875 132.955917,15 125.5,15 C118.044446,15 112,21.0958875 112,28.6153435 L112,28.6153435 Z" id="Fill-3" fill="#F6931D"></path>
                    <path d="M163.214332,238.860239 L66.0273987,239 C63.9334919,239.003653 62.2336413,237.317809 62.2306978,235.236114 L62,76.9153464 C61.9970604,74.8332856 63.6921278,73.1430517 65.7860347,73.1401249 L162.972232,73 C165.066507,72.997077 166.766358,74.6825548 166.769301,76.7646156 L167,235.084651 C167.003307,237.167078 165.307871,238.857312 163.214332,238.860239" id="Fill-4" fill="#334C60"></path>
                    <polyline id="Fill-5" fill="#FFFFFF" points="161 224.86384 68.2043404 225 68 82.1361596 160.795295 82 161 224.86384"></polyline>
                    <polyline id="Fill-6" fill="#FFFFFF" points="120 233.980943 109.003605 234 109 231.018634 119.996035 231 120 233.980943"></polyline>
                    <polyline id="Fill-7" fill="#F4EBE1" points="160.795659 82 68 82.1361599 68.2039769 225 161 224.864209 160.795659 82"></polyline>
                    <g id="Group-25" transform="translate(68.000000, 82.000000)">
                        <mask id="mask-2" fill="white">
                            <use xlink:href="#path-1"></use>
                        </mask>
                        <g id="Clip-9"></g>
                        <polyline id="Fill-8" fill="#A6CAA2" mask="url(#mask-2)" points="-0.214766537 13.2747378 53.8716537 22.0572905 39.5954086 55.7847044 -4.29643969 48.579563 -0.214766537 13.2747378"></polyline>
                        <path d="M5.69889105,117.566586 C10.1509533,119.477051 14.9345914,120.479154 19.54893,121.962458 C27.9318482,124.657033 35.7070623,128.924242 43.3007782,133.366064 C47.7813035,135.986751 52.2196887,138.67765 56.6144553,141.437661 C58.7514008,142.78017 60.9290078,144.160175 63.3857004,144.752761 C68.1852335,145.90926 73.1200584,143.895129 77.6427237,141.923272 C78.5261868,140.509447 78.0275292,138.570676 76.9256031,137.318231 C75.8233074,136.065419 74.2493385,135.343067 72.7212062,134.664093 C60.5120428,129.240386 48.0725875,124.330229 35.4479377,119.947959 C22.9474903,115.608699 9.3968677,110.2269 -3.71571984,108.329668 C-6.69768482,113.004188 2.62451362,116.246869 5.69889105,117.566586" id="Fill-10" fill="#A3CEDF" mask="url(#mask-2)"></path>
                        <path d="M-6.13212062,8.33406941 C-6.0881323,10.3051902 -5.97871595,12.2799871 -5.85747082,14.2558869 L103.768833,32.2525656 L104.718463,26.5318303 L-6.13212062,8.33406941" id="Fill-11" fill="#FFFFFF" mask="url(#mask-2)"></path>
                        <path d="M-6.97381323,45.6438355 C-7.0381323,46.6132211 -7.09875486,47.5826067 -7.15715953,48.5519923 L101.867724,66.4501517 L102.342354,63.5897841 L-6.97381323,45.6438355" id="Fill-12" fill="#FFFFFF" mask="url(#mask-2)"></path>
                        <polyline id="Fill-13" fill="#FFFFFF" mask="url(#mask-2)" points="64.1782296 -4.53482776 6.52801556 129.158776 9.47190661 131.598599 69.3300389 -6.4864653 64.1782296 -4.53482776"></polyline>
                        <path d="M21.6984436,128.221373 C25.1646498,129.501756 28.886284,130.985794 30.8058755,134.128118 C33.0474319,137.798329 32.103716,142.526519 30.6794553,146.579779 C29.6677237,149.458159 28.1843191,152.534681 25.3402335,153.672799 C22.6122179,154.764599 19.541537,153.714707 16.7957782,152.668123 C10.66107,150.329393 4.52673152,147.990663 -1.607607,145.652301 C-2.44301556,145.333951 -3.29875486,145.003103 -3.96523346,144.409414 C-5.10338521,143.395548 -5.49262646,141.806373 -5.75951362,140.310571 C-6.6418677,135.365859 -9.26527237,121.856586 -2.40013619,120.333213 C0.840953307,119.614537 5.18064202,122.117956 8.06945525,123.185494 C12.6120817,124.864365 17.1554475,126.542869 21.6984436,128.221373" id="Fill-14" fill="#A6CAA2" mask="url(#mask-2)"></path>
                        <polyline id="Fill-15" fill="#FFFFFF" mask="url(#mask-2)" points="16.8312646 51.821509 0.329727626 97.4429203 0.480175097 103.786753 19.7751556 51.821509 16.8312646 51.821509"></polyline>
                        <polyline id="Fill-16" fill="#FFFFFF" mask="url(#mask-2)" points="10.1276654 77.8041311 26.4343969 82.9944062 27.6161673 80.2535116 11.530856 74.025108 10.1276654 77.8041311"></polyline>
                        <polyline id="Fill-17" fill="#FFFFFF" mask="url(#mask-2)" points="74.4818482 21.5680026 83.0680739 0.312100257 88.2195136 0.312100257 78.0959144 22.1613239 74.4818482 21.5680026"></polyline>
                        <polyline id="Fill-18" fill="#FFFFFF" mask="url(#mask-2)" points="15.9470623 11.9586967 19.7751556 0.312100257 22.9641245 0.415030848 18.8721012 13.2747378 15.9470623 11.9586967"></polyline>
                        <polyline id="Fill-19" fill="#FFFFFF" mask="url(#mask-2)" points="35.1474125 15.5829563 38.9758755 -3.31473265 42.1644747 -3.14783805 38.072821 17.7176632 35.1474125 15.5829563"></polyline>
                        <polyline id="Fill-20" fill="#FFFFFF" mask="url(#mask-2)" points="31.226537 81.4125835 94.7098249 108.329668 94.6673152 113.300481 29.6322374 85.0912494 31.226537 81.4125835"></polyline>
                        <polyline id="Fill-21" fill="#FFFFFF" mask="url(#mask-2)" points="49.2233074 93.5889049 42.1644747 113.300481 94.6968872 133.549869 94.6913424 129.889584 47.5199611 111.349211 71.5375875 60.1162442 68.4306809 58.8965167 49.2233074 93.5889049"></polyline>
                        <polyline id="Fill-22" fill="#FFFFFF" mask="url(#mask-2)" points="47.5199611 42.0625861 97.7871595 53.4963368 97.7871595 47.7792776 47.5199611 37.0631003 47.5199611 42.0625861"></polyline>
                        <polyline id="Fill-23" fill="#F4EBE1" mask="url(#mask-2)" points="-4.29643969 22.1613239 22.9641245 29.8642082 15.9470623 42.5504036 -3.43145914 41.0979794 -4.29643969 22.1613239"></polyline>
                        <polyline id="Fill-24" fill="#F2D263" mask="url(#mask-2)" points="113.882451 35.5117892 46.0162257 152.410797 37.4858171 147.512404 105.352043 30.6133959 113.882451 35.5117892"></polyline>
                    </g>
                    <polyline id="Fill-26" fill="#A16652" points="210 245.999886 210 248.000114 205.999886 250 204 248.000114 205.999886 245.999886 210 244 210 245.999886"></polyline>
                    <polyline id="Fill-27" fill="#2E4661" points="208 188.416728 216.461388 248 220.307829 248 222.736729 215.499633 228 183 208 188.416728"></polyline>
                    <polyline id="Fill-28" fill="#2E4661" points="214 181.74065 214 188.290327 205.579266 216.671273 207.684361 246.144633 203.559403 247 194 211.21364 194.322379 200.614932 198.210545 179 214 181.74065"></polyline>
                    <polyline id="Fill-29" fill="#A16652" points="220 248 220 250.499786 216.000114 253 214 250.499786 216.000114 248 220 248"></polyline>
                    <path d="M212.280307,150 C213.51065,149.823056 214.740993,149.646112 215.971683,149.469169 C215.946993,148.426555 215.843363,147.385774 215.661837,146.360013 C216.677618,145.938718 217.846756,145.321063 217.986552,144.180636 C218.030369,143.820887 217.95908,143.458573 217.888139,143.103953 C217.594985,141.63858 217.301483,140.173206 217.007981,138.708199 C216.906438,138.20118 216.798983,137.679507 216.520782,137.253084 C216.031496,136.504278 215.123171,136.20351 214.268399,136.080785 C212.086957,135.769027 209.742073,136.355176 208.113555,137.916165 C207.680258,138.331598 207.292167,138.825796 207.11551,139.414143 C206.842873,140.321209 207.10473,141.300078 207.365891,142.211541 C207.607578,143.051932 207.848917,143.893057 208.089908,144.733815 C208.367761,145.701327 208.757938,146.797793 209.664177,147.128967 C210.144768,147.305545 210.702909,147.226781 211.142466,147.497875 C211.917255,147.975953 211.857094,149.165836 212.280307,150" id="Fill-30" fill="#EACDB0"></path>
                    <path d="M199.074442,134.976816 C198.840044,134.630151 198.58867,134.296194 198.310209,133.984831 C197.706696,133.309504 196.973162,132.739024 196.479444,131.983562 C195.985366,131.2281 195.78275,130.187398 196.313307,129.455941 C196.655695,128.984307 197.231037,128.734016 197.791932,128.550445 C199.641116,127.94537 201.657883,127.835934 203.564132,128.238023 C205.379727,128.620696 207.017266,129.304143 208.803607,128.577981 C210.481236,127.895241 211.719684,128.104229 213.521194,128.660235 C215.471144,129.262486 218.060363,129.327442 219.837314,130.212109 C220.579877,130.581721 221.183751,131.17903 221.661578,131.845884 C223.318259,134.155339 223.449724,137.417595 221.984824,139.847782 C221.65616,140.393198 221.256707,140.894839 220.835584,141.375651 C219.964084,142.370461 218.922835,143.598264 217.687637,144 C217.616848,142.909169 218.504601,139.429101 217.612875,138.564909 C216.197816,137.19378 213.137994,137.800268 211.462171,138.210477 C209.633934,138.658459 208.039735,139.992873 206.223779,140.331066 C204.916709,140.574297 203.215604,140.004876 202.072866,139.38109 C200.662863,138.610801 199.930412,136.243098 199.074442,134.976816" id="Fill-31" fill="#3A3029"></path>
                    <polyline id="Fill-32" fill="#EACDB0" points="191.476135 140.554629 190.863067 138.291464 192 136.535177 191.729264 136.117966 191.173709 136.412904 191.676448 134.699227 191.053991 133.38127 189.066119 133 187.190532 133.884813 187 135.794498 188.00313 137.867954 188.701487 141 191.476135 140.554629"></polyline>
                    <polyline id="Fill-33" fill="#E89F40" points="192.540911 138 194.612257 151.848776 212 148.500099 205.782919 161 188.540847 159.348646 188 139.033763 192.540911 138"></polyline>
                    <polyline id="Fill-34" fill="#EACDB0" points="236.091349 140.291461 236.931143 138.096908 236 136.239298 236.308974 135.850007 236.824058 136.196535 236.510478 134.442146 237.259691 133.189853 239.251324 133 241 134.060228 240.986566 135.979771 239.783296 137.948343 238.768865 141 236.091349 140.291461"></polyline>
                    <polyline id="Fill-35" fill="#E89F40" points="236.358026 139 233.048484 151.501082 221 149.060966 223.869195 162 238.785807 159.050401 241 139.031558 236.358026 139"></polyline>
                    <path d="M229.986619,190.595323 C230.042658,193.265866 229.961633,196.863974 228.97255,196.996114 C228.787298,197.020543 228.609541,196.925417 228.44749,196.833623 C226.736673,195.865343 225.526644,194.502496 223.840456,193.566418 C222.073242,192.585923 220.05153,192.06477 218.068724,191.699814 C215.103617,191.138315 212.073547,190.789645 209.05133,190.735235 C206.443877,190.688228 203.276385,190.579037 200.75567,191.298955 C198.822122,192.051074 196.909276,192.826883 195,193.661173 C196.082958,183.539759 197.867305,173.499035 200.332695,163.642269 C201.276089,159.869086 201.431002,156.151423 204.095564,153.392787 C206.45637,150.950249 205.831724,147.705992 212.376947,148.021349 C223.827606,148.573965 220.444165,147.547943 225.175057,157.624201 C226.248735,159.910911 227.569059,166.154023 227.957767,168.642088 C228.428215,171.655749 228.86404,174.675332 229.202777,177.70676 C229.581134,181.088707 229.84063,184.486571 229.895956,187.889247 C229.901667,188.267527 229.959491,189.326491 229.986619,190.595323" id="Fill-36" fill="#E89F40"></path>
                    <path d="M247,136 L239.986873,136 L240.762194,134.740358 L240.775316,132.878077 L239.118199,131.880235 L243.428952,131.880235 L243.428952,106 L247,106 L247,136 M236.399704,136 L222.045402,136 C222.111011,134.570475 221.768341,133.121279 221.026012,131.880235 L238.742162,131.880235 L237.121787,132.033667 L236.389956,133.248602 L236.69626,134.950656 L236.193127,134.614466 L235.891321,134.992144 L236.399704,136 M198.062203,136 L190.433469,136 L191.172423,134.850157 L190.912983,134.447443 L190.380606,134.732132 L190.86237,133.078003 L190.30075,131.880235 L194.829327,131.880235 C195.31184,132.456408 195.912826,132.943885 196.423832,133.502176 C196.712891,133.817623 196.97383,134.155959 197.217149,134.507171 C197.502833,134.919541 197.775395,135.447789 198.062203,136 M187.2767,136 L166.005999,136 L166,131.880235 L187.429664,131.880235 L186.563615,132.29189 L186.381032,134.135215 L187.2767,136" id="Fill-37" fill="#E8E8E8"></path>
                    <polyline id="Fill-38" fill="#2E4557" points="166 138 161.005554 138 161 133 165.994773 133 166 138"></polyline>
                    <polyline id="Fill-39" fill="#E8E8E8" points="161.003497 138 161.002761 138 160.996503 133 160.997239 133 161.003497 138"></polyline>
                    <polyline id="Fill-40" fill="#DED6CD" points="158.450422 138 116.874669 138 110 136.678705 111.362406 133 152.959411 133 160 134.874729 158.450422 138"></polyline>
                    <path d="M105.824702,136 L103,135.489532 C103.314579,134.671269 103.593753,133.84098 103.837115,133 L107,133 L105.824702,136" id="Fill-41" fill="#97B893"></path>
                    <path d="M116,137 L108.870036,137 L109.343682,135.460034 L116,137 M104.797473,137 L102,137 C102.381949,136.020573 102.725993,135.018381 103.03213,134 L105.537906,134.579764 L104.797473,137" id="Fill-42" fill="#E8E8E8"></path>
                    <polyline id="Fill-43" fill="#E8E8E8" points="109.471718 138 106 138 107.519973 133 111 133 109.471718 138"></polyline>
                    <polyline id="Fill-44" fill="#E8E8E8" points="161.06666 134 154 133 162 133 161.06666 134"></polyline>
                    <polyline id="Fill-45" fill="#DCBF5A" points="161 138 157 138 159.905516 133 160.992572 133 161 138"></polyline>
                    <path d="M222.992153,138 L199.206278,138 C198.921829,137.329803 198.65151,136.688688 198.368176,136.188211 C198.12686,135.761959 197.868067,135.351333 197.581387,134.968487 C197.074585,134.290911 196.478543,133.699279 196,133 L221.981151,133 C222.717372,134.506207 223.057223,136.26504 222.992153,138" id="Fill-46" fill="#352C25"></path>
                    <polyline id="Fill-47" fill="#D5BBA0" points="191.228873 138 187.934664 138 187 135.736783 187.190532 133.499609 188.094288 133 191.090376 133 191.676448 134.453685 191.173709 136.461238 191.729264 136.115722 192 136.60448 191.228873 138"></polyline>
                    <polyline id="Fill-48" fill="#D5BBA0" points="240.19283 138 236.520458 138 236 136.776804 236.308974 136.31843 236.824058 136.726452 236.510478 134.660734 237.259691 133.186214 238.918554 133 239.303523 133 241 134.211043 240.986566 136.471221 240.19283 138"></polyline>
                    <polygon id="Fill-49" fill="#FFFFFF" points="92 132 243 132 243 102 92 102"></polygon>
                    <path d="M28.0187793,251.382839 C28.0645253,251.178014 28.1917217,250.942178 28.392558,250.664229 C28.9270059,249.924179 29.4759586,249.107175 30.2034324,248.445609 C30.8594979,247.849128 32.1733023,247.993463 33.1540532,248.082667 C34.6725991,248.22011 36.1917029,248.35832 37.7108068,248.495763 C37.7810995,248.502271 37.8541816,248.509546 37.9110853,248.538642 C38.0628283,248.617127 37.9919777,248.780604 37.907738,248.897756 C37.1032768,250.012617 36.2988157,251.127095 35.4943545,252.241956 C35.3442851,252.449461 35.1852897,252.665389 34.9130449,252.80245 C34.5984012,252.961333 34.1850131,252.988515 33.794498,252.996555 C32.2525211,253.027949 30.6960394,252.844563 29.2606174,252.455587 C28.2804244,252.189506 27.9083193,251.879014 28.0187793,251.382839" id="Fill-50" fill="#272525"></path>
                    <polygon id="Fill-51" fill="#CAB5A1" points="28.8941145 227.268813 29.0005375 252.145987 31.4163755 253 33.1764759 252.044347 36.6332527 226.305136 39 201 23 202.545629"></polygon>
                    <path d="M6.10745844,250.448482 C6.21228796,250.272344 6.39318845,250.082216 6.64644914,249.868053 C7.32134713,249.296952 8.03381676,248.658409 8.83673664,248.192057 C9.56080245,247.771623 10.562249,248.135736 11.3160011,248.390077 C12.483505,248.783965 13.651009,249.178212 14.8185129,249.572458 C14.8723192,249.590395 14.9289086,249.610125 14.964161,249.646716 C15.0587859,249.744291 14.9479263,249.879174 14.8412414,249.969575 C13.8249517,250.829814 12.8086621,251.690771 11.7923724,252.551369 C11.6031226,252.712081 11.4036682,252.877456 11.1402029,252.95279 C10.8349913,253.039962 10.4959188,252.991175 10.1809664,252.928755 C8.93878307,252.683024 7.756436,252.241066 6.73968247,251.635526 C6.04576673,251.221549 5.85280621,250.875373 6.10745844,250.448482" id="Fill-52" fill="#272525"></path>
                    <polyline id="Fill-53" fill="#CAB5A1" points="12.4459292 202 10.7521345 226.356956 5 250.495753 7.2032491 252 9.23805868 251.607914 19.7275547 228.342877 29 205.171176 12.4459292 202"></polyline>
                    <path d="M55.9607051,156.947175 C55.9801856,156.921095 56.0006241,156.892005 56,156.859237 C55.9990274,156.814098 55.9600664,156.780996 55.9246183,156.75525 C55.6135695,156.52688 55.30284,156.298175 54.9921105,156.069805 C54.9477206,156.037371 54.9004565,156.003601 54.846486,156.000257 C54.7845317,155.996579 54.7280064,156.033025 54.6762714,156.068801 C54.3138068,156.320243 53.9689067,156.600105 53.6460418,156.905045 C53.3452122,156.671325 53.0204312,156.471041 52.6793633,156.307872 C51.7864551,157.707852 50.8932275,159.107165 50,160.507146 C50.5962302,160.661956 51.1927797,160.816766 51.7893293,160.971242 C51.8666124,160.991304 51.9477279,161.011701 52.0256497,160.991973 C52.1166651,160.968902 52.1872419,160.895342 52.252709,160.824791 C53.4713563,159.511076 54.8458473,158.475552 55.9607051,156.947175" id="Fill-54" fill="#EBCEB1"></path>
                    <polyline id="Fill-55" fill="#27A9E0" points="29.439715 174.864226 36.795473 179 53 160.737341 49.9692488 158 36.3929119 166.75545 32.6685003 160.491164 25 166.799542 29.439715 174.864226"></polyline>
                    <path d="M29.6039985,150.997574 C30.9754454,152.248615 31.770274,155.572621 32.4512865,157.081866 C36.6707751,166.409476 40.2899024,175.980252 43.7650635,185.589906 C45.5069782,190.406653 47.2115822,195.235869 48.938045,200.057751 C49.2553735,200.944226 52.756539,211.603566 53,211.574958 C36.5599739,213.493514 23.9022619,216.125799 7.4776877,214.483784 C5.57710883,214.290132 5.50474889,202.990784 5.39733962,201.542789 C4.86443886,194.355996 4.78680268,187.112721 5.66906624,179.948668 C6.32746626,174.602677 7.5266814,169.304365 9.42612964,164.242618 C10.919307,160.2632 13.2359555,153.166632 17.4701422,151.15565 C19.7389276,150.078456 27.0190153,149.414242 29.2403145,150.725433 C29.3661906,150.799153 29.4871674,150.890845 29.6039985,150.997574" id="Fill-56" fill="#27A9E0"></path>
                    <path d="M36.2763569,142.191372 C35.1967982,144.636905 33.1658646,146.52876 31.1875382,148.348301 C26.4536327,152.703585 21.7197273,157.058504 16.9854513,161.413423 C16.7809502,161.601148 16.5708919,161.793255 16.3130426,161.89917 C15.8695863,162.081051 15.3646315,161.98098 14.8956125,161.878717 C9.93016135,160.79437 4.96508067,159.710388 0,158.626041 C2.24803086,153.310586 4.83133988,148.132819 7.72918058,143.132917 C9.81938989,139.526339 12.1618914,135.917206 15.5928429,133.506734 C19.0056412,131.109045 26.7455655,128.084998 30.9708114,129.262843 C36.1322428,130.702552 38.2361596,137.753547 36.2763569,142.191372" id="Fill-57" fill="#4A4A4A"></path>
                    <polyline id="Fill-67" fill="#EACDB0" points="118.349952 53.6825329 120.637671 54.2116447 122.357769 53 122.784687 53.2562686 122.508894 53.8266043 124.208148 53.2541436 125.54903 53.8291543 126 55.8134297 125.179035 57.7339567 123.272937 58 121.161197 57.0709732 118 56.4908627 118.349952 53.6825329"></polyline>
                    <polyline id="Fill-68" fill="#308DFC" points="121 51.0094697 103.219254 40.6461847 91.3301564 25 88 30.7204876 97.1469543 51.0581304 120.163682 55 121 51.0094697"></polyline>
                    <path d="M86.1245352,25 C84.865002,24.8909165 83.6054687,24.7821942 82.3459355,24.6734719 C82.3174283,23.6267036 82.3699233,22.5774069 82.5023777,21.5393076 C81.4483051,21.1737694 80.2284039,20.6193218 80.0285056,19.4836974 C79.9652334,19.1261058 80.0194667,18.7584005 80.0733523,18.3990028 C80.2972385,16.9140945 80.5211246,15.428825 80.744663,13.9431942 C80.8218412,13.4295626 80.9045817,12.9011216 81.1660139,12.4575635 C81.6245633,11.6795308 82.5326231,11.3273572 83.3954886,11.1572303 C85.5968036,10.7223411 88.0101847,11.1796249 89.7446068,12.6536971 C90.2062851,13.0459643 90.62555,13.5198635 90.8355302,14.0999566 C91.158844,14.9939357 90.9426062,15.9901355 90.7232395,16.9180677 C90.52056,17.7744816 90.3182281,18.6308956 90.1155486,19.4873095 C89.8826236,20.4719507 89.5419273,21.5931269 88.6380393,21.976364 C88.1579357,22.1793605 87.5867479,22.1316816 87.1539246,22.4282298 C86.3904869,22.9505303 86.5125118,24.139974 86.1245352,25" id="Fill-69" fill="#EACDB0"></path>
                    <path d="M95.7239629,12.1388037 C96.1403484,11.2634873 96.135364,10.2943998 95.3631722,9.27254375 C94.2600958,7.8124947 92.4825977,6.92790821 90.7024157,6.26223993 C89.7649733,5.91175685 88.8064432,5.60548527 87.8214577,5.39548066 C83.8723138,4.55047058 79.6206579,5.05462427 76.0813815,6.95571866 C75.3019048,7.37465826 74.6853783,8.0200035 74.2080303,8.72988327 C72.5547577,11.1893261 72.6026842,14.5465475 74.3257378,16.9642747 C74.7126006,17.5065786 75.1723116,18.0007491 75.6550273,18.4721007 C76.6538156,19.4479625 77.8489109,20.6530824 79.2054227,21 C79.0482237,20.960067 78.7092875,17.9123261 78.6805316,17.6245948 C78.5651246,16.4808006 78.5842952,14.9708353 80.0136552,14.5372774 C82.078329,13.910829 84.2108667,13.978929 86.3510726,13.9340044 C87.0132251,13.9200991 87.6772948,13.8031526 88.2995725,14.0259928 C89.2032746,14.349022 89.6775553,15.2489399 90.7123844,15.4229335 C91.5907813,15.5701863 92.4699451,15.1744221 93.1972777,14.6930873 C94.2439925,13.999252 95.253133,13.1289273 95.7239629,12.1388037" id="Fill-70" fill="#000000"></path>
                    <polyline id="Fill-71" fill="#666666" points="106 72.4307915 98.8244629 104 94.7135598 104 92.7536775 76.6589097 82 68.9116193 96.1581528 58 103.07765 66.055093 106 72.4307915"></polyline>
                    <polyline id="Fill-72" fill="#39281C" points="95 105 95.0245246 105.078466 96.4539179 109.686135 98.6632554 110 100 108.40214 98.3847039 105 95 105"></polyline>
                    <path d="M69.5123617,65.1092495 C68.2580878,65.5745234 67.9570163,66.4506126 68.0047146,68.2561532 C68.0806502,71.1578104 69.0632347,74.0291315 70.7811358,76.3690244 C70.9104935,76.546289 71.0528252,76.7264776 71.2520132,76.8182166 C71.4256349,76.8978943 71.6232966,76.9008182 71.8140897,76.9026457 C74.1997666,76.9231133 77.9709831,76.9973086 79.0211084,79.5363957 C80.0151404,81.9406155 79.6606468,85.4818873 79.9834688,88.0578893 C80.6909296,93.7055032 81.3980088,99.3527516 82.1054697,105 L86.858889,104.776683 L91.6802308,71.7689164 L92,63.2024671 L86.8508757,61 C83.5951822,62.1169498 79.8735719,64.0811148 76.474402,64.5610084 C75.5429501,64.6922208 74.6023401,64.6856419 73.6624933,64.6786975 C72.6390791,64.6713876 71.6156649,64.6640778 70.6052246,64.835129 C70.1789928,64.9071313 69.8176307,64.9959463 69.5123617,65.1092495" id="Fill-73" fill="#666666"></path>
                    <polyline id="Fill-74" fill="#39281C" points="82 105.246065 83.8774704 109.84507 86.4858366 110 88 108.29826 85.9785903 105 82 105.246065"></polyline>
                    <path d="M78.1862528,64 C78.1239297,63.9639224 78.0619649,63.9261668 78,63.8871526 C79.0852806,62.8446775 79.9352379,61.9205034 81.2400819,61.4896696 C82.6323213,61.0298899 83.9969811,60.6871526 85.424322,60.4421605 C86.7130479,60.2210802 88.0178919,60 89.3141395,60 C89.9921712,60 90.6676957,60.060409 91.3371312,60.2131096 C91.6831315,60.2915574 92.0302064,60.3943367 92.3776394,60.5117986 L89.6755415,62.8601993 L85.414293,60.6313582 C83.1452328,61.5832197 80.6347604,63.0716308 78.1862528,64 M99,63.1144206 L98.3592188,62.2728894 C98.4211837,62.2695333 98.4831486,62.2653382 98.5447552,62.2594651 C98.6830121,62.5527006 98.8359543,62.8371264 99,63.1144206" id="Fill-75" fill="#C0C0C0"></path>
                    <path d="M95.9471356,67 C94.5976772,67 93.2328313,66.8134896 91.8296952,66.4692968 C91.3852435,66.3602387 90.9429389,66.2372879 90.5006344,66.1171156 L90.571489,64.1919282 L90,63.94429 L92.6996324,62 C94.6323888,62.5414698 96.5798172,63.4632536 98.4424347,63.4629063 C98.5204463,63.4629063 98.5981001,63.461517 98.6757539,63.4580438 L99.3159504,64.1547651 C99.8058492,64.8389829 100.397378,65.4672824 101,66.0650178 C99.3066463,66.70721 97.6387,67.000347 95.9471356,67" id="Fill-76" fill="#545353"></path>
                    <path d="M90.9235612,65 C90.065362,64.730746 89.2056186,64.4714323 88.3277306,64.3383179 C87.714676,64.244965 87.0927422,64.212983 86.4669478,64.212983 C85.7550633,64.212983 85.03816,64.2544732 84.323187,64.2963955 C83.6082141,64.3383179 82.8951713,64.3802403 82.1910079,64.3802403 C80.7344242,64.3802403 79.3160599,64.2008817 78,63.4704815 C80.6390687,62.5140462 83.3449249,60.9806379 85.7905803,60 L90.3834709,62.2962227 L91,62.6043738 L90.9235612,65" id="Fill-77" fill="#545353"></path>
                    <path d="M68.0135181,65.4067178 C67.9570298,68.1557575 68.0382548,71.8603178 69.0339994,71.9958048 C69.2204477,72.0216297 69.3995119,71.92357 69.5627003,71.8292531 C71.284301,70.8321882 72.502676,69.4286621 74.19954,68.4656561 C75.9787366,67.4554916 78.0134228,66.9191575 80.0093425,66.543761 C82.9936227,65.9655083 86.0439905,65.6065799 89.0843899,65.5504389 C92.3858168,65.489058 98.8129292,66.1777215 98.8129292,66.1777215 C100.668551,65.8472378 102.441471,65.1690541 104.218822,64.5402744 C107.272882,63.460495 110.391922,62.5087172 113.257318,60.9955289 C114.177007,60.5097218 116.713811,59.075131 115.807414,57.7764016 C115.120693,56.7931848 112.789167,56.1348375 111.738411,55.5307599 C109.391008,54.1815035 107.135169,52.6409932 105.148479,50.791333 C102.324803,48.1624351 100.241382,44.9373194 98.9373512,41.3049939 C98.2790595,39.4714275 97.8046317,37.5764801 97.4125365,35.6695561 C97.2002438,34.6365609 97.0137956,33.5983259 96.8391618,32.5582195 C96.7398458,31.9676157 96.7409534,29.7332022 96.33409,29.3622971 C92.2067526,25.6015957 90.9928081,22.3061165 85.9948863,23.1265243 C74.5923736,24.9990152 75.4005623,25.5357236 72.8563739,31.461972 C71.8333082,33.8449722 70.446576,40.2431797 70.0555884,42.8050826 C69.5815297,45.9078109 69.143284,49.0169018 68.802139,52.137221 C68.4214891,55.6190884 68.1600923,59.1170497 68.1047116,62.620625 C68.0984351,63.0098696 68.04047,64.1005029 68.0135181,65.4067178" id="Fill-78" fill="#1C75BB"></path>
                    <polyline id="Fill-79" fill="#EACDB0" points="69.7549421 54 69.9761386 55.7710044 71.6577549 56.7561592 71.5506401 57.120657 70.9266742 57.0432723 72 58.1509792 71.8802578 59.2463677 70.1529217 60 68.0859531 59.8177511 67.2364365 58.4946304 67.4471828 56.765319 67 54.350916 69.7549421 54"></polyline>
                    <path d="M71.8584549,53.4752945 L69.6624975,41.4249106 C69.6036542,41.102168 72.9470554,39.0868358 73.2773133,38.8512916 C74.8664494,37.7202452 76.6170368,36.6214007 77.9483659,35.2106682 C79.1855457,33.8987123 80.3977171,32.4619288 80.8357317,30.7251973 C81.1056752,29.6552983 81.0350633,28.5155683 80.6816359,27.4728057 C80.2623776,26.2361082 79.4282742,24.5901933 78.1219535,25.0927599 C77.4529791,25.3503751 76.7424465,26.1192406 76.1701957,26.5451017 C74.2360909,27.9840561 72.301986,29.4233723 70.3675134,30.8619649 C67.5783423,32.937359 64.7891711,35.0123914 62,37.0874237 L67.227857,55 L71.8584549,53.4752945" id="Fill-80" fill="#308DFC"></path>
                    <path d="M92,6.16850233 L74.0613252,14 C74.0613252,14 71.1985626,8.93076789 74.8764124,4.64422494 C78.5546178,0.358036309 84.1410944,-0.549018573 86.6393437,0.275125824 C89.1375931,1.09927022 92,6.16850233 92,6.16850233" id="Fill-81" fill="#000000"></path>
                    <path d="M96.9866718,6.49302836 C97.0396481,6.84633395 96.9289459,7.22905025 96.7564989,7.58235583 C96.1912966,8.74332478 95.0174148,9.61848195 93.8354952,10.3220766 C90.4121299,12.3608422 86.5174582,13.4626126 82.6881848,13.9852183 C81.639254,14.1285013 77.1410178,13.189998 76.2013278,12.902678 C75.2616378,12.6153579 77.9119144,12.8857102 77.9922922,11.928731 C78.0993409,10.6569063 79.5165483,9.67956573 80.7759229,8.96126569 C83.6183756,7.34103718 87.192632,4.87279986 90.3748638,4.13263031 C92.4212105,3.65640303 96.6848896,4.46708287 96.9866718,6.49302836" id="Fill-82" fill="#000000"></path>
                    <polyline id="Fill-83" fill="#8E999E" points="49.270072 162 44 156.512333 63.1527496 138 69 142.929682 49.270072 162"></polyline>
                    <path d="M36.6101444,169.284857 L36.5462678,169.216945 C34.7995728,167.364196 34.4856963,164.776425 35.8454606,163.437703 L51.2863475,148 L58,154.819679 L42.2349576,170.215359 C40.8751934,171.554456 38.3568394,171.137606 36.6101444,169.284857" id="Fill-84" fill="#2E4661"></path>
                    <path d="M66.3220974,140.12331 C58.2459128,131.740898 58.4937657,118.398453 66.8765839,110.321925 C75.2590277,102.245771 88.6015241,102.493998 96.678083,110.876409 C104.754268,119.258821 104.50604,132.601266 96.1235964,140.677795 C87.7411526,148.754323 74.3986563,148.506096 66.3220974,140.12331 M98.4987907,143.14321 C108.242928,133.754789 108.53159,118.244949 99.1435076,108.50085 C89.7550508,98.7571244 74.2451523,98.468463 64.5010153,107.85651 C54.7568783,117.244931 54.4685902,132.75477 63.8566727,142.49887 C73.2451296,152.242969 88.7550281,152.531631 98.4987907,143.14321" id="Fill-85" fill="#59595B"></path>
                    <path d="M63,132 C62.3315396,129.7373 61.9989253,127.347983 62,124.961108 C62.0013492,122.597254 62.3299236,120.236191 62.9843792,118 L63,132" id="Fill-86" fill="#AECCD9"></path>
                    <path d="M68,140 C67.7258097,139.734357 67.4580431,139.458982 67.1953479,139.172794 C67.1787815,139.154772 67.1618771,139.13639 67.1453107,139.118368 C67.1365204,139.108276 67.1284062,139.099265 67.1192778,139.089533 C67.1101494,139.07908 67.1003449,139.068627 67.0908784,139.058175 C65.2618162,137.034314 63.9057408,134.710928 63.0196092,132.241566 L63,117.774654 C63.9662587,115.056949 65.4981405,112.518382 67.5915883,110.368007 C67.6233687,110.335208 67.6554872,110.302768 67.6876057,110.269968 C67.7775374,110.178777 67.8678072,110.089028 67.9590912,110 L68,140" id="Fill-87" fill="#7EA2B5"></path>
                    <path d="M83.1322694,146 L87.3996669,135.037804 L93.9479995,136.062955 C92.2431574,137.613411 90.148205,138.797767 87.7928012,139.450722 C86.1102619,139.916863 86.552916,142.254738 88.0524967,142.254738 C88.1904717,142.254738 88.3378971,142.234658 88.4932607,142.19163 C91.8640095,141.257556 94.7890801,139.450722 97.0148252,137.072687 L100,137.072687 C99.1710158,138.242701 98.1998984,139.347454 97.0862698,140.365434 C97.0681252,140.381928 97.0496025,140.398781 97.0314578,140.415275 C93.1205273,143.965116 88.1507802,145.820357 83.1322694,146 M80.2729732,145.921115 C75.8388716,145.515931 71.5159061,143.794796 68.0136085,140.771335 L68,132 L84.5683437,134.594253 L82.6416075,139.674828 C82.6053182,139.672677 82.5690289,139.67196 82.5327395,139.67196 C82.0439677,139.67196 81.5544399,139.844432 81.174536,140.191528 C80.3958277,140.90293 80.3727688,142.079039 81.1231262,142.817693 C81.200997,142.894427 81.28416,142.963272 81.3714812,143.024588 L80.2729732,145.921115" id="Fill-88" fill="#ABC7D2"></path>
                    <path d="M95.6618142,134 L68.0081669,129.57241 L68,124.215158 L83.6241084,125.357251 L90.2638348,113.650438 C91.0422931,114.05838 91.7776894,114.529692 92.4637128,115.057532 L92.4637128,133.397269 L96,133.397269 L96,133.475401 C95.8912311,133.652907 95.7783788,133.827534 95.6618142,134 M85.6105322,111.537279 L72.9053642,108.036108 C75.554053,106.780958 78.416196,106.103696 81.2939305,106 C81.3024686,106.06733 81.3106356,106.135381 81.3191738,106.203071 L81.3191738,106.203431 C81.3232572,106.235836 81.3273407,106.268241 81.331053,106.300646 L81.3696603,106.298845 L83.435155,110.200396 L85.7066794,110.304452 C85.5017633,110.68899 85.4546178,111.15094 85.6105322,111.537279" id="Fill-89" fill="#99BFC4"></path>
                    <path d="M92.8836535,136 L86.6049293,135.112387 L87.0003625,134.195281 L84.1138094,134.195281 L83.8901776,134.728345 L68.003987,132.482148 L68,130 L95,133.817758 C94.3939833,134.609749 93.683581,135.343061 92.8836535,136" id="Fill-90" fill="#AECCD9"></path>
                    <path d="M82.1764942,147 C82.1752908,147 82.1740874,147 82.1728841,147 C81.4476534,146.999613 80.7220217,146.966306 80,146.898919 L81.1656639,143.770429 C81.5302848,144.030298 81.9638989,144.1612 82.3979142,144.1612 C82.9169675,144.1612 83.436422,143.974529 83.8395507,143.599637 C84.6658644,142.831263 84.6903329,141.560968 83.8941035,140.763548 C83.5154432,140.383621 83.0188528,140.179134 82.5134376,140.152412 L84.8054553,134 L88,134 L83.0340955,146.984121 C82.7501003,146.994578 82.4645006,147 82.1801043,147 C82.1789009,147 82.1780987,147 82.1764942,147" id="Fill-91" fill="#AECCD9"></path>
                    <path d="M84.1466698,125 L68.0199247,123.813146 L68,110.382086 C69.5579582,108.990937 71.2726319,107.863575 73.0830973,107 L86.196998,110.638389 C86.3422184,110.999834 86.6571819,111.298044 87.1759904,111.417029 C88.5301036,111.727212 89.8133309,112.20839 91,112.834369 L84.1466698,125" id="Fill-92" fill="#ABC7D2"></path>
                    <path d="M92,111 C91.1004025,110.457051 90.1437489,109.992253 89.1401902,109.616919 C88.5024211,109.378351 87.8443498,109.195996 87.1803279,109.043463 C87.1586255,109.038665 87.1376232,109.034209 87.116621,109.030095 L87.8678023,108.372661 L86,106 C88.0830757,106.3983 90.1139957,107.128402 92,108.187221 L92,111" id="Fill-93" fill="#99BFC4"></path>
                    <path d="M99.9480065,137.237923 L96,137.237923 C96.1884764,137.081637 96.3729534,136.923144 96.5539308,136.762077 L100,137.180557 C99.9830021,137.199679 99.9650044,137.218801 99.9480065,137.237923" id="Fill-94" fill="#A6C2CE"></path>
                    <path d="M100.125865,134 L97,133.751605 C97.2850551,133.506173 97.5526788,133.255309 97.801333,133 L101,133 C100.736991,133.337778 100.44527,133.671358 100.125865,134" id="Fill-95" fill="#95BBC0"></path>
                    <path d="M99.1291992,138 L96,137.452819 C96.8402942,136.376247 97.587525,135.221301 98.2321591,134 L101,134.483712 C100.465226,135.693473 99.8414745,136.869095 99.1291992,138" id="Fill-96" fill="#A8C6D4"></path>
                    <path d="M95.9764411,133.039899 L95.9764411,132.960101 L96.0235589,132.960101 C96.0080984,132.986945 95.9922697,133.013422 95.9764411,133.039899" id="Fill-97" fill="#95BBC0"></path>
                    <path d="M100.72955,132 L98.5259709,132 C99.4704124,130.008763 100.02634,127.815956 100.1104,125.523937 C100.331147,119.493632 97.0559762,113.947512 92,110.866683 L92,108 C93.597851,108.905489 95.0936288,110.047481 96.4357671,111.425278 C100.155963,115.244261 102.003522,120.16681 102,125.082022 C101.998577,127.429936 101.574038,129.776452 100.72955,132 M95.4097377,132 L92,132 L92,114.206023 C95.1490803,116.677603 97.1901901,120.416937 97.3339402,124.574431 C97.4261239,127.234305 96.7190289,129.796713 95.4097377,132" id="Fill-98" fill="#AECCD7"></path>
                    <path d="M80.0407609,105.874 C80.0366848,105.784 80.0322011,105.694 80.0277174,105.604 L80.0664402,105.788 L80.0831522,105.869 L80.0407609,105.874 M80.0277174,105.603 C80.0183424,105.415 80.009375,105.226 80,105.039 C80.2836957,105.013 80.5690217,105 80.853125,105 C80.8543478,105 80.855163,105 80.8567935,105 C80.8580163,105 80.8592391,105 80.860462,105 C81.5745924,105 82.2891304,105.082 83,105.244 L80.0277174,105.603" id="Fill-99" fill="#8AA8B6"></path>
                    <path d="M85.8929513,110 L83.8774704,109.877021 L82.0447958,105.265957 L82.0312912,105.231489 L82,105.153191 L82,105.152766 L84.4018445,105 C85.0187747,105.074468 85.6330698,105.188511 86.2424242,105.342553 L88,108.288085 L87.2931489,109.104255 C87.2002635,109.081277 87.1106719,109.070213 87.0243742,109.070213 C86.5016469,109.070213 86.1034256,109.474043 85.8929513,110" id="Fill-100" fill="#809AA5"></path>
                    <path d="M80.5061162,147 C80.7768999,147 81.0488293,146.994653 81.3192311,146.984341 C86.3896458,146.792997 91.4107925,144.816925 95.3621717,141.035883 C91.1992069,145.018963 85.85037,146.999236 80.5061162,147 M95.4175506,140.982796 L95.4175506,140.982796 C96.5426969,139.898515 97.523858,138.721809 98.361416,137.475592 C98.3744014,137.455732 98.3881506,137.435872 98.401136,137.416012 C99.0003738,136.517728 99.5251365,135.583925 99.9750423,134.623006 C100.212981,134.114666 100.430295,133.598687 100.626222,133.076216 C101.5394,130.645273 101.998472,128.079893 102,125.512985 C101.996181,131.144065 99.7932467,136.766742 95.4175506,140.982796 M65.135228,140.538619 C65.1165138,140.519523 65.0974176,140.500044 65.0787034,140.480948 C65.0974176,140.500044 65.1165138,140.519523 65.135228,140.538619 M65.0492953,140.450394 C65.0389833,140.439319 65.0279076,140.428243 65.0172137,140.417167 C60.9944148,136.24198 58.9961917,130.860296 59.0000054,125.487015 C58.9984832,128.100517 59.4701586,130.716693 60.4180924,133.19423 C61.4191136,135.810788 62.9510082,138.272667 65.0172137,140.417167 C65.0279076,140.428243 65.0389833,140.439319 65.0492953,140.450394 M65.6913085,109.912939 C69.8462529,105.964232 75.1729382,104.000382 80.4942766,104 C80.228076,104 79.9607296,104.004965 79.694911,104.014895 C76.734241,104.124889 73.7896117,104.843287 71.0645884,106.174672 C69.2600005,107.056152 67.5508934,108.206887 65.9979929,109.626879 C65.8948736,109.721214 65.7929001,109.816313 65.6913085,109.912939" id="Fill-101" fill="#87A5B3"></path>
                    <path d="M87.2985664,143 C85.8426388,143 85.4128704,140.734538 87.0464307,140.282835 C89.3332683,139.650104 91.3672362,138.502432 93.0224501,137 L95.4997657,137.387074 L95.4997657,137.978457 L96,137.978457 C93.8390467,140.282835 90.9991254,142.033704 87.7264997,142.938846 C87.5756587,142.980542 87.4325249,143 87.2985664,143" id="Fill-102" fill="#BDD3DC"></path>
                    <path d="M96.1676729,134 L95.8323271,133.906658 C95.9479128,133.608587 96.0598174,133.306783 96.1676729,133 L96.1676729,134" id="Fill-103" fill="#AFCDD1"></path>
                    <path d="M96,138 L93,137.452782 C93.9808889,136.413361 94.852,135.253101 95.5951111,134 L96,134.073683 L96,138" id="Fill-104" fill="#C0D7E1"></path>
                    <path d="M92,115 C91.4073838,114.521103 90.7721171,114.093493 90.0996516,113.723376 L90.4514373,113.071345 L86.0799306,111.806154 C85.9452451,111.455638 85.9859714,111.036522 86.1629866,110.687639 L86.7402102,110.715406 L87.5261964,110 C87.5454372,110.00392 87.564678,110.008167 87.5845601,110.01274 C88.1928896,110.158108 88.7957676,110.331896 89.3800462,110.559258 C90.2994351,110.916961 91.175853,111.359924 92,111.877368 L92,115" id="Fill-105" fill="#AFCDD1"></path>
                    <path d="M90.5976379,112 C89.4617077,111.144829 88.233348,110.487477 86.9371332,110.063725 C86.4405076,109.901176 86.1390112,109.493781 86,109 L91,110.979724 L90.5976379,112" id="Fill-106" fill="#BDD3DC"></path>
                    <path d="M96.5515985,137 L96,137 L96,136 L97,136.239718 C96.8535006,136.497062 96.7041684,136.750294 96.5515985,137" id="Fill-107" fill="#BACFD9"></path>
                    <path d="M99.3015306,134 L96,133.599212 L96,133.071288 C96.0192157,133.047635 96.0384315,133.023982 96.0572003,133 L100,133 C99.7832644,133.339685 99.5499944,133.673456 99.3015306,134" id="Fill-108" fill="#ACCACE"></path>
                    <path d="M97.0033839,138 L96,137.805737 L96,134 L99,134.580883 C98.4233893,135.790263 97.7550081,136.933936 97.0033839,138" id="Fill-109" fill="#BBD3DD"></path>
                    <path d="M99.2324091,132 L95.7788428,132 C97.2298652,129.602099 98.0135034,126.813356 97.9113407,123.918539 C97.7520297,119.393818 95.4899691,115.324192 92,112.6343 L92,109 C97.6032872,112.352955 101.232996,118.388958 100.988354,124.951913 C100.895194,127.446384 100.279087,129.832879 99.2324091,132" id="Fill-110" fill="#C0D7E0"></path>
                    <path d="M86.4234298,108 L86,107.962555 C86.1503176,107.418062 86.4347212,107 86.8080452,107 C86.8696777,107 86.9336627,107.011454 87,107.035242 L86.4234298,108" id="Fill-111" fill="#9CB0B9"></path>
                    <path d="M80.1561339,144 C80.0293681,143.926845 79.9086388,143.844706 79.7955922,143.753155 C78.7062844,142.871872 78.7397594,141.468663 79.8702249,140.619893 C80.4217384,140.205775 81.1323951,140 81.8419543,140 C81.8946362,140 81.9473181,140.000856 82,140.003422 L80.1561339,144" id="Fill-112" fill="#C5D8E0"></path>
                    <path d="M82.4891343,145 C81.964641,145 81.4406325,144.869385 81,144.610086 L82.6287406,141 C83.2395183,141.026664 83.8396317,141.230702 84.2972302,141.609796 C85.2594475,142.405468 85.2298781,143.672978 84.231305,144.439668 C83.7441371,144.813738 83.1163933,145 82.4891343,145" id="Fill-113" fill="#C7DCE5"></path>
                    <path d="M53.1855519,148.099522 L59.8474266,154.81447 C60.0763806,155.045136 60.4401037,155.062999 60.6893497,154.855245 L60.7701345,154.788064 C61.0599643,154.546913 61.0783419,154.103832 60.8103355,153.838605 L54.076099,147.180741 C53.824173,146.931823 53.4194832,146.941143 53.1786603,147.20171 L53.1698544,147.210642 C52.9374545,147.462666 52.9443461,147.856041 53.1855519,148.099522" id="Fill-114" fill="#A16652"></path>
                    <path d="M78.5367018,144.302156 C73.733635,143.078173 69.5119478,140.162742 66.6937042,136.080112 C63.911728,132.050238 62.7028103,127.108878 63.2153182,122.248483 C63.7395488,117.279648 66.1998796,112.631737 69.8947717,109.297198 C73.4929505,106.049119 78.2476605,104.214061 83.0822324,104.099393 C88.0952112,103.980328 93.0730215,105.8 96.8624291,109.072258 C100.512994,112.224719 102.967464,116.686523 103.691715,121.453499 C104.447838,126.43076 103.278119,131.570682 100.528381,135.774941 C97.880118,139.8235 93.743055,142.788022 89.1125338,144.133634 C85.6733461,145.133409 82.0073947,145.159786 78.5367018,144.302156 C77.850183,144.132535 77.5827558,145.196788 78.2696409,145.366409 C83.0906582,146.558153 88.146865,146.055518 92.6488013,143.969874 C97.0441331,141.933689 100.661361,138.34307 102.801512,134.006925 C105.021158,129.509585 105.568102,124.302254 104.405709,119.433066 C103.28801,114.75255 100.516291,110.508359 96.7320125,107.550064 C92.7762872,104.457685 87.7750312,102.855627 82.761686,103.010227 C77.9168567,103.159699 73.2401768,105.03872 69.5449183,108.150882 C65.7456196,111.350236 63.1999319,115.899965 62.3265805,120.776846 C61.4612884,125.611597 62.3372043,130.635751 64.6960592,134.933063 C67.5454416,140.123908 72.5477966,143.908327 78.2696409,145.366409 C78.9554269,145.541159 79.2221215,144.476906 78.5367018,144.302156" id="Fill-115" fill="#6A8478"></path>
                    <path d="M48.9792369,151.576554 C48.9923284,151.549651 49.0057392,151.519759 48.9974373,151.491362 C48.9862616,151.452203 48.9409204,151.432475 48.900688,151.417529 C48.5468984,151.288695 48.1931088,151.159561 47.8393193,151.030428 C47.7888691,151.011895 47.735226,150.993362 47.6819021,151.00233 C47.6212342,151.012792 47.5742964,151.057331 47.5324675,151.099778 C47.23743,151.398996 46.9663403,151.718839 46.7220723,152.055722 C46.3765846,151.919713 46.0157703,151.817782 45.6476121,151.752617 C45.098408,153.166805 44.549204,154.580992 44,155.995478 C44.6143422,155.996973 45.2286843,155.998467 45.8430265,156 C45.9228527,156.000261 46.0061912,155.999663 46.0770768,155.964988 C46.1604154,155.924933 46.2121427,155.845122 46.2597191,155.769495 C47.1448316,154.357101 48.2438783,153.151859 48.9792369,151.576554" id="Fill-116" fill="#EBCEB1"></path>
                    <polyline id="Fill-117" fill="#27A9E0" points="26.0094169 173.821909 33.8749353 176 45 154.876096 41.5249696 153 30.7213819 164.500179 25.7939329 159.448297 20 167.234615 26.0094169 173.821909"></polyline>
                </g>
                <text id="Our-Location" font-family="Gotham-Medium, Gotham" font-size="15" font-weight="400" fill="#084E75">
                    <tspan x="111.735" y="121">OUR LOCATION</tspan>
                </text>
            </g>
        </g>
    </g>
</svg>