<?xml version="1.0" encoding="UTF-8"?>
<svg width="347px" height="100px" viewBox="0 0 347 100" version="1.1" xmlns="http://www.w3.org/2000/svg" xmlns:xlink="http://www.w3.org/1999/xlink">
    <!-- Generator: Sketch 59.1 (86144) - https://sketch.com -->
    <title>Group 4</title>
    <desc>Created with Sketch.</desc>
    <g id="A-Simple-Idea" stroke="none" stroke-width="1" fill="none" fill-rule="evenodd">
        <g id="A-Simple-Idea-Page" transform="translate(-98.000000, -238.000000)">
            <g id="Group-4" transform="translate(98.000000, 246.000000)">
                <path d="M124.4037,0.0004 C160.4867,0.0004 172.2537,38.2894 172.2537,38.2894 C172.2537,38.2894 183.4007,76.5774 219.5247,76.5774" id="Stroke-13" stroke="#FFFFFF" stroke-width="16"></path>
                <path d="M219.5243,0.0004 C181.7363,0.0004 172.2533,38.2894 172.2533,38.2894 C172.2533,38.2894 161.1063,76.5774 124.9833,76.5774" id="Stroke-15" stroke="#27A9E0" stroke-width="16"></path>
                <line x1="118" y1="76" x2="10" y2="77" id="Path-2" stroke="#27A9E0" stroke-width="16"></line>
                <line x1="318" y1="75.423" x2="223" y2="76.423" id="Path-2-Copy" stroke="#FFFFFF" stroke-width="15.5"></line>
                <path id="Path-2-Copy-2" d="M317.188798,60.0054273 L346.249996,74.3823808 L317.311714,89.0051668 L317.188798,60.0054273 Z" fill="#FFFFFF" fill-rule="nonzero"></path>
                <path id="Path-2-Copy-3" d="M0.0637978365,62.6016773 L29.1249955,76.9786308 L0.186714164,91.6014168 L0.0637978365,62.6016773 Z" fill="#084E75" fill-rule="nonzero"></path>
                <path d="M123.289,76.577 C102.143,76.577 85,59.434 85,38.289 C85,17.142 102.143,0 123.289,0" id="Stroke-9" stroke="#FFFFFF" stroke-width="16"></path>
                <path d="M221.2186,0.0004 C242.3646,0.0004 259.5066,17.1424 259.5066,38.2894 C259.5066,59.4344 242.3646,76.5774 221.2186,76.5774" id="Stroke-11" stroke="#F6931D" stroke-width="16"></path>
            </g>
        </g>
    </g>
</svg>