<?xml version="1.0" encoding="UTF-8"?>
<svg width="16px" height="16px" viewBox="0 0 16 16" version="1.1" xmlns="http://www.w3.org/2000/svg" xmlns:xlink="http://www.w3.org/1999/xlink">
    <!-- Generator: Sketch 59.1 (86144) - https://sketch.com -->
    <title>Fill 64</title>
    <desc>Created with Sketch.</desc>
    <g id="A-Simple-Idea" stroke="none" stroke-width="1" fill="none" fill-rule="evenodd">
        <g id="A-Simple-Idea-Page" transform="translate(-1242.000000, -642.000000)" fill="#979797">
            <path d="M1256,655 C1256,655.552 1255.552,656 1255,656 L1252,656 L1252,658 L1256,658 C1257.1045,658 1258,657.1045 1258,656 L1258,652 L1256,652 L1256,655 L1256,655 Z M1256,642 L1252,642 L1252,644 L1255,644 C1255.552,644 1256,644.448 1256,645 L1256,648 L1258,648 L1258,644 C1258,642.8955 1257.1045,642 1256,642 L1256,642 Z M1242,644 L1242,648 L1244,648 L1244,645 C1244,644.448 1244.448,644 1245,644 L1248,644 L1248,642 L1244,642 C1242.8955,642 1242,642.8955 1242,644 L1242,644 Z M1244,655 L1244,652 L1242,652 L1242,656 C1242,657.1045 1242.8955,658 1244,658 L1248,658 L1248,656 L1245,656 C1244.448,656 1244,655.552 1244,655 L1244,655 Z" id="Fill-64"></path>
        </g>
    </g>
</svg>