<?xml version="1.0" encoding="UTF-8"?>
<svg width="23px" height="16px" viewBox="0 0 23 16" version="1.1" xmlns="http://www.w3.org/2000/svg" xmlns:xlink="http://www.w3.org/1999/xlink">
    <!-- Generator: Sketch 59.1 (86144) - https://sketch.com -->
    <title>Group 14</title>
    <desc>Created with Sketch.</desc>
    <g id="A-Simple-Idea" stroke="none" stroke-width="1" fill="none" fill-rule="evenodd">
        <g id="Group-14" transform="translate(1.000000, 1.000000)" stroke="#979797">
            <path d="M0,5.16666667 L0,9.83333333 C0,10.4773333 0.5376,11 1.2,11 L3,11 L3,4 L1.2,4 C0.5376,4 0,4.52266667 0,5.16666667 L0,5.16666667 Z M10.6666667,0 L6,2.72241667 L6,11.2775833 L10.6666667,14 C11.4026667,14 12,13.4773333 12,12.8333333 L12,1.16666667 C12,0.522666667 11.4026667,0 10.6666667,0 L10.6666667,0 Z" id="Fill-131-Copy-2"></path>
            <path d="M17,0 C19.9665934,2 21.4498901,4.33333333 21.4498901,7 C21.4498901,9.66666667 19.9665934,12 17,14" id="Path-3"></path>
            <path d="M15,3 C16.63326,4.10110134 17.44989,5.38571957 17.44989,6.85385469 C17.44989,8.32198981 16.63326,9.60660804 15,10.7077094" id="Path-3-Copy"></path>
        </g>
    </g>
</svg>