<?xml version="1.0" encoding="UTF-8"?>
<svg width="127px" height="65px" viewBox="0 0 127 65" version="1.1" xmlns="http://www.w3.org/2000/svg" xmlns:xlink="http://www.w3.org/1999/xlink">
    <!-- Generator: Sketch 59.1 (86144) - https://sketch.com -->
    <title>Business Design &amp; Strategy</title>
    <desc>Created with Sketch.</desc>
    <defs>
        <polygon id="path-1" points="0.0447153547 0.0338158843 2.96656751 0.0338158843 2.96656751 3.75003762 0.0447153547 3.75003762"></polygon>
    </defs>
    <g id="Home-Page-V2" stroke="none" stroke-width="1" fill="none" fill-rule="evenodd">
        <g id="Home-Page" transform="translate(-192.000000, -815.000000)">
            <g id="Business-Design-&amp;-Strategy" transform="translate(192.000000, 815.000000)">
                <path d="M12.1188785,56.5 L101.881122,56.5 C103.328424,56.5 104.5,55.331757 104.5,53.8928384 L104.5,4.1071616 C104.5,2.66821373 103.328444,1.5 101.881122,1.5 L12.1188785,1.5 C10.6715561,1.5 9.5,2.66821373 9.5,4.1071616 L9.5,53.8928384 C9.5,55.331757 10.6715758,56.5 12.1188785,56.5 Z" id="Fill-1" stroke="#1C75BB" stroke-width="3"></path>
                <g id="Group-37" transform="translate(10.000000, 4.000000)">
                    <polygon id="Fill-9" fill="#4BA2F4" points="18.2710997 21.1375906 27.4258824 21.1375906 27.4258824 11.9970109 18.2710997 11.9970109"></polygon>
                    <polygon id="Fill-11" fill="#1C75BB" points="1.30238154 9.71186594 10.4571641 9.71186594 10.4571641 0.571286232 1.30238154 0.571286232"></polygon>
                    <polygon id="Fill-12" fill="#96C4EA" points="40.5137596 22.8082428 49.6685422 22.8082428 49.6685422 13.667663 40.5137596 13.667663"></polygon>
                    <polygon id="Fill-14" fill="#50E3C2" points="18.1469824 38.1179972 26.7295911 38.1179972 26.7295911 29.5487037 18.1469824 29.5487037"></polygon>
                    <polygon id="Fill-15" fill="#FFDF69" points="14.4814072 51.9385976 26.7295911 51.9385976 26.7295911 39.7778309 14.4814072 39.7778309"></polygon>
                    <polygon id="Fill-16" fill="#F8E71C" points="39.4415345 48.9184106 48.5963171 48.9184106 48.5963171 39.7778309 39.4415345 39.7778309"></polygon>
                    <polygon id="Fill-17" fill="#50E3C2" points="1.30238154 35.8620208 10.4571641 35.8620208 10.4571641 26.7214411 1.30238154 26.7214411"></polygon>
                    <g id="Group-23" transform="translate(48.754683, 39.777831)">
                        <path d="M10.712938,0.212205369 C10.712938,0.212205369 10.7066712,4.17873347 9.73991192,7.54114449 L7.67924542,8.78149885 L0.413807581,8.78149885 C1.79414188,5.2487673 1.80247351,0.212205369 1.80247351,0.212205369 L10.712938,0.212205369 Z" id="Fill-18" fill="#FFDF69"></path>
                        <polygon id="Fill-19" fill="#DEBA35" points="7.79437024 8.67108218 7.79437024 7.01483218 10.0061349 7.01483218"></polygon>
                    </g>
                    <polygon id="Fill-22" fill="#308DFC" points="50.3128389 9.72066595 59.4676215 9.72066595 59.4676215 0.580086237 50.3128389 0.580086237"></polygon>
                    <g id="Group-8" transform="translate(38.869361, 0.008810)">
                        <path d="M10.7320035,0.562476339 C10.7320035,0.562476339 10.7257729,4.52900444 9.75901366,7.89141546 L7.69834717,9.13176982 L0.432873104,9.13176982 C1.81324363,5.59903827 1.82157526,0.562476339 1.82157526,0.562476339 L10.7320035,0.562476339 Z" id="Fill-23" fill="#FFDF69"></path>
                        <polygon id="Fill-24" fill="#DEBA35" points="7.87113397 9.13176982 7.87113397 7.41791112 10.1598296 7.41791112"></polygon>
                    </g>
                    <g id="Group-8-Copy" transform="translate(0.149054, 12.011413)">
                        <path d="M10.7320035,0.562476339 C10.7320035,0.562476339 10.7257729,4.52900444 9.75901366,7.89141546 L7.69834717,9.13176982 L0.432873104,9.13176982 C1.81324363,5.59903827 1.82157526,0.562476339 1.82157526,0.562476339 L10.7320035,0.562476339 Z" id="Fill-23" fill="#FFDF69"></path>
                        <polygon id="Fill-24" fill="#DEBA35" points="7.87113397 9.13176982 7.87113397 7.41791112 10.1598296 7.41791112"></polygon>
                    </g>
                    <path d="M13.5500525,39.7778309 C13.5500525,39.7778309 13.544482,43.4799238 12.6851404,46.618174 L10.8534369,47.7758381 L4.39526989,47.7758381 C5.62223371,44.478622 5.62963961,39.7778309 5.62963961,39.7778309 L13.5500525,39.7778309 Z" id="Fill-25" fill="#F0F0F0"></path>
                    <path d="M26.8537084,1.14257246 C26.8537084,1.14257246 26.8481379,4.84466536 25.9887964,7.98291564 L24.1570928,9.14057971 L17.6989258,9.14057971 C18.9258897,5.84336359 18.9332955,1.14257246 18.9332955,1.14257246 L26.8537084,1.14257246 Z" id="Fill-25-Copy" fill="#F6931D"></path>
                    <polygon id="Fill-26" fill="#C9C9C9" points="9.37998655 51.9385729 9.37998655 50.137637 12.2125462 50.137637"></polygon>
                    <polygon id="Fill-27" fill="#FFDF69" points="68.3232938 22.805631 77.4780765 22.805631 77.4780765 13.6650513 68.3232938 13.6650513"></polygon>
                    <polygon id="Fill-28" fill="#B8E986" points="66.3337084 10.8544384 75.488491 10.8544384 75.488491 1.7138587 66.3337084 1.7138587"></polygon>
                    <polygon id="Fill-29" fill="#27A9E0" points="83.4513729 11.9970109 93.7505034 11.9970109 93.7505034 1.7138587 83.4513729 1.7138587"></polygon>
                    <polygon id="Fill-30" fill="#F8E71C" points="81.5023195 35.8328522 90.6571021 35.8328522 90.6571021 26.6922725 81.5023195 26.6922725"></polygon>
                    <polygon id="Fill-31" fill="#FFDF69" points="81.5023195 48.9184106 90.6571021 48.9184106 90.6571021 39.7778309 81.5023195 39.7778309"></polygon>
                    <polygon id="Fill-32" fill="#F0F0F0" points="68.3232938 41.5748831 77.4780765 41.5748831 77.4780765 32.4343034 68.3232938 32.4343034"></polygon>
                    <g id="Group-24" transform="translate(65.841704, 43.776834)">
                        <path d="M10.7911348,0.212205369 C10.7911348,0.212205369 10.7849042,4.17873347 9.81814494,7.54114449 L7.75747844,8.78149885 L0.492004381,8.78149885 C1.8723749,5.2487673 1.88067031,0.212205369 1.88067031,0.212205369 L10.7911348,0.212205369 Z" id="Fill-33" fill="#96C4EA"></path>
                        <polygon id="Fill-34" fill="#0280DA" points="7.35809134 8.78149885 7.35809134 7.63892638 9.64678699 7.63892638"></polygon>
                    </g>
                    <g id="Group-14" transform="translate(47.451969, 28.900626)">
                        <path d="M11.8572858,0.158160593 C11.8572858,0.158160593 11.8503227,4.65355911 10.7761457,8.46429159 L8.48651629,9.87002654 L0.413807581,9.87002654 C1.94751236,5.86626411 1.95676973,0.158160593 1.95676973,0.158160593 L11.8572858,0.158160593 Z" id="Fill-35" fill="#FEBA40"></path>
                        <polygon id="Fill-36" fill="#F6931D" points="8.42424236 9.87002654 8.42424236 8.15616784 10.712938 8.15616784"></polygon>
                    </g>
                </g>
                <polygon id="Fill-38" fill="#1C75BB" points="48 59 49 59 49 0 48 0"></polygon>
                <polygon id="Fill-38-Copy" fill="#1C75BB" points="27 60 28 60 28 0 27 0"></polygon>
                <polygon id="Fill-38-Copy-2" fill="#084E75" transform="translate(37.500000, 28.500000) rotate(90.000000) translate(-37.500000, -28.500000) " points="37.0074627 39 37.9925373 39 37.9925373 18 37.0074627 18"></polygon>
                <polygon id="Fill-38-Copy-3" fill="#084E75" transform="translate(81.500000, 28.500000) rotate(90.000000) translate(-81.500000, -28.500000) " points="81.0074627 39 81.9925373 39 81.9925373 18 81.0074627 18"></polygon>
                <polygon id="Fill-40" fill="#1C75BB" points="71 59 72 59 72 0 71 0"></polygon>
                <polygon id="Fill-40-Copy" fill="#1C75BB" points="90 59 91 59 91 0 90 0"></polygon>
                <polygon id="Fill-42" fill="#1C75BB" points="49 3 70 3 70 2 49 2"></polygon>
                <polygon id="Fill-42-Copy" fill="#1C75BB" points="29 3 47 3 47 2 29 2"></polygon>
                <polygon id="Fill-42-Copy-5" fill="#0280DA" points="29 32 47 32 47 31 29 31"></polygon>
                <polygon id="Fill-42-Copy-6" fill="#0280DA" points="72 32 89 32 89 31 72 31"></polygon>
                <polygon id="Fill-42-Copy-2" fill="#1C75BB" points="12 3 27 3 25.9482052 3 25.9482052 2 12 2"></polygon>
                <polygon id="Fill-42-Copy-4" fill="#1C75BB" points="91 3 103 3 103 2 91 2"></polygon>
                <polygon id="Fill-42-Copy-3" fill="#1C75BB" points="74 3 89 3 89 2 74 2"></polygon>
                <g id="Group-213" transform="translate(0.000000, 13.000000)">
                    <path d="M121.326251,45.6282435 C121.326251,45.6282435 121.588189,45.232228 121.630965,44.9997467 C121.673692,44.7671177 121.80508,44.6346368 121.80508,44.6346368 C121.80508,44.6346368 122.797719,44.4905909 123.179252,44.1373414 C123.560687,43.784141 124.3688,42.8220798 124.750383,43.1103192 C125.131966,43.3986079 124.473891,44.6119005 124.084463,44.9784867 C123.695085,45.3450238 123.167904,45.987497 122.688928,45.939859 C122.209951,45.8922702 121.557796,45.6654484 121.326251,45.6282435" id="Fill-44" fill="#CFBFB8"></path>
                    <path d="M121.326251,45.5674952 L121.80508,44.6346171 C121.80508,44.6346171 119.513067,44.2156685 118.842608,43.8130093 C118.674561,43.7119754 118.507403,43.6107938 118.35179,43.5149765 C117.997738,43.2969637 117.704224,43.1083802 117.600613,43.0206338 C117.269701,42.7399239 115.942992,41.8023707 115.584451,41.4580286 C115.226303,41.1138342 114.80303,41.3236777 114.244371,41.3292387 C113.685565,41.3352919 111.661804,41.8943002 111.056521,41.9744679 C110.450893,42.0540942 108.26471,42.459657 108.26471,42.459657 C108.64955,43.5087265 121.326251,45.5674952 121.326251,45.5674952" id="Fill-46" fill="#25354D"></path>
                    <path d="M108.137013,42.4256115 C108.137013,42.4256115 109.370472,42.6029253 109.687619,42.6270396 C110.012265,42.6516952 111.848984,42.7990384 112.734805,42.8839305 C113.620626,42.9687733 115.360445,42.9180841 115.705665,43.0694628 C116.050935,43.2207921 118.045931,43.8951061 118.698974,44.1055401 C119.352016,44.3159248 123.594869,45.0906329 123.594869,45.0906329 C123.594869,45.0906329 123.667495,45.6641098 123.291931,46.1042199 C123.291931,46.1042199 121.42181,45.9376346 120.434895,46.0823202 C119.44793,46.2270551 117.724048,46.0066309 116.677729,45.5332037 C115.63146,45.0597765 113.972951,45.4917173 113.046081,45.8165711 C112.11921,46.1414248 108.575631,46.4023511 108.133362,46.3032858 C107.691093,46.2042204 106.809219,45.7797107 106.170287,45.0865974 C105.531306,44.3935334 108.137013,42.4256115 108.137013,42.4256115" id="Fill-48" fill="#2F4563"></path>
                    <g id="Group-52" transform="translate(123.247221, 42.780244)">
                        <mask id="mask-2" fill="white">
                            <use xlink:href="#path-1"></use>
                        </mask>
                        <g id="Clip-51"></g>
                        <path d="M0.0447153547,3.32398088 C0.0447153547,3.32398088 0.202844795,2.87648879 0.187944611,2.64056258 C0.173093765,2.40458715 0.245473137,2.29169296 0.245473137,2.29169296 C0.245473137,2.29169296 1.19666736,1.86501789 1.48115234,1.43032113 C1.76563732,0.995575162 2.31650009,-0.132973015 2.75664759,0.0546754328 C3.19684443,0.242422306 2.85241335,1.57835327 2.56348792,2.02801072 C2.27451315,2.47766817 2.09585895,3.67417924 1.61959577,3.74352009 C1.14333259,3.81295937 0.278431161,3.30419733 0.0447153547,3.32398088" id="Fill-50" fill="#EDDAD3" mask="url(#mask-2)"></path>
                    </g>
                    <path d="M105.364039,41.6380146 C105.364039,41.6380146 103.805046,45.16677 106.225043,46.0223347 C108.155159,46.7047688 111.713442,46.076518 111.713442,46.076518 L109.52425,42.6357552 L105.364039,41.6380146 Z" id="Fill-53" fill="#2F4563"></path>
                    <path d="M109.376733,28.3218647 C108.783143,28.4536074 109.136998,29.9401787 108.739183,32.0185834 C108.341318,34.0970864 107.085509,34.4219402 107.085509,34.4219402 C107.085509,34.4219402 107.64318,33.5002827 107.582149,32.5366958 C107.534438,31.7837398 106.620051,29.7295479 107.523929,28.3867764 C108.222314,27.3493703 109.452862,28.2912051 109.452862,28.2912051 L109.376733,28.3218647 Z" id="Fill-55" fill="#323657"></path>
                    <path d="M108.483585,32.6491324 L109.637807,33.83398 C109.648414,33.6164594 109.72854,33.3518421 109.810738,33.1311226 C109.851096,33.0231497 109.892195,32.9253639 109.925252,32.8498222 C109.969015,32.7504615 109.999852,32.6886502 109.999852,32.6886502 L108.970259,31.6025727 L108.483585,32.6491324 Z" id="Fill-57" fill="#EEA886"></path>
                    <path d="M109.857639,33.717636 C109.857639,33.717636 109.90229,34.2874711 110.21327,34.8131131 C110.524249,35.3387552 111.038404,36.2112983 110.965532,36.7785744 C110.892708,37.3458997 110.650753,37.5519537 110.432233,37.7561869 C110.213615,37.9604692 109.613611,39.434639 109.540738,40.0019151 C109.467915,40.5692403 109.421932,41.7480348 109.560276,42.6147708 C109.560276,42.6147708 105.512755,43.0832276 105.105615,42.3779096 C105.105615,42.3779096 105.607879,40.1096911 105.844901,39.5412832 C106.081873,38.9728752 106.577822,35.5723684 106.790569,34.9941671 C107.003316,34.4159658 107.504939,33.8569574 107.811725,33.4559715 C108.08575,33.0977022 108.584906,32.4312131 108.584906,32.4312131 L109.857639,33.717636 Z" id="Fill-59" fill="#308DFC"></path>
                    <path d="M110.3635,28.442687 C110.897637,28.4782187 112.045001,28.8804842 112.063947,30.305638 C112.063947,30.305638 111.977604,30.6793601 111.851002,30.9661723 C111.724499,31.2529354 111.890078,32.1607641 111.81538,32.1960005 C111.740632,32.2311876 111.446132,32.2532842 111.446132,32.2532842 C111.446132,32.2532842 111.025275,33.1756799 110.689034,33.1285832 C110.352744,33.0815358 109.106704,32.6715931 108.643515,31.4103672 C108.180376,30.1491413 108.206427,28.2990348 110.3635,28.442687" id="Fill-61" fill="#EEA886"></path>
                    <path d="M112.063942,30.3056626 C112.063942,30.3056626 111.133716,30.7926726 110.264128,30.8125053 C109.394588,30.8322889 108.681896,32.2227476 108.681896,32.2227476 C108.681896,32.2227476 107.629015,29.8666843 108.834795,28.6712559 C110.036875,27.4794693 112.439555,28.6915316 112.063942,30.3056626" id="Fill-63" fill="#323657"></path>
                    <path d="M110.060824,30.804085 C110.07528,30.6382379 109.919667,30.3689946 109.622009,30.5635328 C109.3244,30.758071 109.598524,31.5859782 109.829871,31.5346 C110.061317,31.4832218 110.045874,30.9753948 110.060824,30.804085" id="Fill-65" fill="#EEA886"></path>
                    <path d="M109.09988,32.1910792 C109.116063,32.2179002 109.539535,32.9097831 109.810748,33.1311423 C109.851106,33.0231202 109.892205,32.9253835 109.925262,32.8498419 C109.925262,32.8498419 109.320423,32.4902439 109.09988,32.1910792" id="Fill-67" fill="#A77860"></path>
                    <polygon id="Fill-69" fill="#C4C4C4" points="117.720121 43.7693083 112.063922 42.7041954 112.156875 42.2131992 117.813074 43.2783121"></polygon>
                    <polygon id="Fill-71" fill="#C4C4C4" points="120.977414 39.0345438 117.722218 43.769702 117.309009 43.4871712 120.564206 38.7519638"></polygon>
                    <path d="M116.638915,43.0572088 C116.666939,42.9318145 116.638915,42.7225616 116.243073,42.511045 C115.847232,42.2995283 114.992198,41.8183747 114.691579,41.8069573 C114.390961,41.7955399 113.798802,41.8427842 113.677281,41.8421937 C113.555761,41.8416031 113.867777,42.5557302 113.867777,42.5557302 L116.638915,43.0572088 Z" id="Fill-73" fill="#EEA886"></path>
                    <path d="M113.816223,41.8968642 C113.816223,41.8968642 112.166102,41.249076 111.898096,41.1199908 C111.630139,40.991004 110.380546,40.5718093 110.269634,40.5164941 C110.15877,40.4612281 109.636475,37.3493544 109.590294,36.5659849 C109.544064,35.7826154 109.497883,34.1237007 108.610829,34.1974215 C107.723873,34.2711423 107.511323,34.8518043 107.622236,35.9945749 C107.733099,37.1373948 108.389102,41.2293908 108.666285,41.3675804 C108.943468,41.5058192 112.125496,42.215714 113.803346,42.5495737 C115.408964,42.8690633 113.816223,41.8968642 113.816223,41.8968642" id="Fill-75" fill="#EEA886"></path>
                    <path d="M109.680953,36.8096326 C109.680953,36.8096326 108.402744,37.0475273 107.665827,37.1213957 C107.665827,37.1213957 106.748824,34.5157743 107.997084,34.0995815 C109.476939,33.6060755 109.807555,35.6254247 109.680953,36.8096326" id="Fill-77" fill="#308DFC"></path>
                    <path d="M88.1835937,25.3977428 C88.1835937,25.3977428 87.8057605,25.247939 87.7786737,25.0100935 C87.7556327,24.807878 87.5873396,24.5571388 87.535633,24.4798255 C87.4665593,24.3764293 87.3633928,23.9816442 87.2423164,24.0657981 C87.1212401,24.149952 87.3828814,24.7238226 87.4153461,24.8545318 C87.4477614,24.985241 86.9320275,24.7066473 86.803057,24.7318443 C86.6739879,24.756992 86.3226494,25.6591612 86.6958448,25.8083745 C87.0689415,25.9575877 87.5498424,25.8627546 87.6111207,25.9024694 C87.6723989,25.9421349 87.879028,26.0220565 87.879028,26.0220565 L88.1835937,25.3977428 Z" id="Fill-79" fill="#EEA886"></path>
                    <path d="M97.9964357,49.4886145 C97.9964357,49.4886145 98.2590638,49.9729669 98.4306626,50.1651922 C98.6022121,50.3574174 99.259251,50.7010705 99.2628134,51.2719391 C99.2666518,51.8910855 98.1552559,51.7192835 97.720585,51.6966456 C97.285914,51.6740078 97.2530547,51.3432977 97.0700094,50.9927056 C96.8870134,50.6421628 96.7025373,50.7015134 96.6682471,50.418835 C96.633957,50.1361074 96.8454705,49.4886145 96.8454705,49.4886145 L97.9964357,49.4886145 Z" id="Fill-81" fill="#202338"></path>
                    <path d="M91.3797967,49.432192 C91.3797967,49.432192 90.8442288,50.0233855 90.3004214,50.1472049 C89.7567127,50.2710736 89.3763633,50.4290959 89.3722602,50.7682706 C89.3681731,51.1075437 90.9370836,51.3311175 91.559339,50.9890885 C92.4880349,50.4787024 92.5824192,50.6325909 92.6854377,50.3774224 C92.7884068,50.122254 92.5616971,49.4400168 92.5684564,49.3589141 C92.5767453,49.2586676 91.3797967,49.432192 91.3797967,49.432192" id="Fill-83" fill="#202338"></path>
                    <path d="M91.440024,49.149361 C91.440024,49.149361 91.3692728,49.4263799 91.3797819,49.4321871 C91.3903403,49.4380434 92.6051494,49.581105 92.5684416,49.3589092 C92.5386413,49.1786919 92.4960623,48.9827757 92.4960623,48.9827757 L91.440024,49.149361 Z" id="Fill-85" fill="#81807E"></path>
                    <path d="M96.860499,49.3016599 C96.860499,49.3016599 96.8096805,49.5658835 96.8194988,49.5722812 C96.8293665,49.5786296 98.0514283,49.7943786 98.0444716,49.5749879 C98.0390443,49.4007253 97.9317827,49.197624 97.9317827,49.197624 L96.860499,49.3016599 Z" id="Fill-87" fill="#81807E"></path>
                    <path d="M92.5446457,32.5702196 C92.5446457,32.5702196 92.1027714,36.8118226 91.8730027,38.2638465 C91.6043553,39.9616393 91.5132767,41.3644013 91.4383317,42.2431452 C91.3441448,43.3484157 91.3259389,48.7851518 91.2599736,49.1083323 C91.1940082,49.4315128 92.7233986,49.1976044 92.7233986,49.1976044 C92.7233986,49.1976044 93.4757593,42.0937843 93.7564452,40.9167123 C94.0177411,39.8206938 94.9877333,35.1019727 95.2261856,35.401285 C95.4646872,35.7005481 95.7603226,40.9079032 95.936954,41.7723262 C96.1135359,42.6367493 96.6506827,49.4040521 96.6506827,49.4040521 C96.6506827,49.4040521 97.86786,49.6437185 98.1916183,49.3727527 C98.1916183,49.3727527 98.338992,43.5406902 98.2264512,41.9200631 C98.1835761,41.3023931 98.9584844,34.5147162 97.9648592,31.7820764 C97.439751,30.3379757 92.5446457,32.5702196 92.5446457,32.5702196" id="Fill-89" fill="#292C47"></path>
                    <path d="M100.726623,27.9243679 C100.983084,28.6237803 98.6281641,30.3766914 98.9208886,30.4301858 C99.2132183,30.4837293 99.2009824,31.0379148 99.2009824,31.0379148 C99.2009824,31.0379148 101.419087,29.1112332 101.3734,28.5435635 C101.348138,28.2285523 99.6117243,23.6465935 99.3464319,23.4572226 C99.1654588,23.3275961 98.0299365,22.8736079 97.4408365,22.6506246 C97.1684887,22.5470809 96.9609223,22.4749841 96.9182939,22.4723266 C96.7834522,22.4639112 95.1222296,22.622721 95.1222296,22.622721 C95.1222296,22.622721 94.8840734,22.7041682 94.6405392,22.8156352 C94.2249129,23.0059411 93.5772976,23.3032357 93.1124316,23.5240044 C92.9619989,23.5952645 92.7743651,23.6917217 92.6182586,23.7740055 C92.6373525,24.3372461 92.6706066,24.9407428 92.7184648,25.5863164 C92.7184648,25.5863164 92.8050043,26.9964111 92.8129477,28.4201869 C92.887498,28.7427277 92.8746207,29.4918451 92.8746207,29.4918451 C92.8950468,30.2023797 92.815612,30.9319596 92.7952353,31.3395401 C92.7624253,31.9806354 92.6741589,32.8932377 92.6741589,32.8932377 L93.4819265,33.2221762 L97.020967,33.1892036 L98.1290079,32.8932377 C98.1290079,32.8932377 98.0632399,30.0545936 98.0796202,29.2294424 C98.0951125,28.434311 98.2627642,26.3695383 98.2956235,26.2500988 C98.2956235,26.2500988 99.4821617,24.5310954 100.726623,27.9243679" id="Fill-91" fill="#DBD8E3"></path>
                    <path d="M92.7807841,32.5919421 C92.7807841,32.5919421 95.211833,32.7983899 97.3410792,32.5919421 L97.3410792,33.2887955 C97.3410792,33.2887955 94.1703003,33.5908146 92.6741639,33.1558717 L92.7807841,32.5919421 Z" id="Fill-93" fill="#1D2033"></path>
                    <path d="M92.5794293,23.7635773 C92.5980792,24.3361191 92.625906,24.9502458 92.674751,25.6077782 C92.674751,25.6077782 92.7207343,27.2134445 92.8133918,28.7365318 C92.844919,28.954643 92.8609046,29.1776754 92.8431922,29.4059737 C92.8200525,29.7037112 92.7876865,30.0289586 92.7486599,30.3683302 C92.7482158,30.3727593 92.7477718,30.3771885 92.7472784,30.3811255 C92.7380028,30.4616377 92.7282831,30.542642 92.7184648,30.6244829 C92.7184648,30.6258116 92.7180701,30.6266974 92.7180701,30.6280262 C92.5113424,32.3248347 92.161336,34.2715951 91.9785868,34.8605248 C91.9400042,34.9834584 92.0730697,35.0972384 92.1679967,35.1848372 L92.8329791,35.6029492 C92.8329791,35.6029492 93.1070537,33.0858616 93.1979843,32.2314288 C93.2858066,31.4067205 93.5622001,30.3010563 93.6832764,29.2236894 L93.6832764,29.2232465 C93.836768,27.8565083 94.0480842,26.5173785 94.1620558,25.7218534 C94.4588261,23.6507323 94.8541743,22.7240059 94.8541743,22.7240059 C94.6652578,22.7802561 92.5794293,23.7635773 92.5794293,23.7635773" id="Fill-95" fill="#323657"></path>
                    <path d="M100.495059,27.7429448 C100.783392,28.3734102 98.6677137,30.299698 98.6924816,30.3650034 C98.8364509,30.7440897 99.387067,31.4378919 99.387067,31.4378919 C99.387067,31.4378919 102.663282,27.9277882 102.620111,27.4955028 C102.588732,27.1808361 99.8420653,23.6823958 99.576921,23.4928773 C99.4238241,23.3832312 98.2890911,22.9820975 97.7323571,22.7631989 C97.6305227,22.7230413 97.2989196,22.5984837 97.2077423,22.5640347 C97.0896263,22.6950884 96.2597551,23.5854958 95.9723098,26.9711895 C95.9239089,27.5417629 96.0768578,28.7501834 96.1790375,29.7364574 C96.2880753,30.7886765 96.4088556,31.6098907 96.4973193,32.4898157 C96.6716811,34.2235338 96.7936455,35.6029689 96.7936455,35.6029689 L98.523399,34.8347569 C98.8032955,34.695091 99.2874035,34.3305225 99.1822141,34.0365744 C98.7822774,32.9193943 98.1822243,30.8020132 98.1816815,29.821694 C98.1816815,29.821694 98.6388014,26.5467783 98.7917503,26.0191677 C98.7917503,26.0191677 100.172583,27.0377253 100.495059,27.7429448" id="Fill-97" fill="#323657"></path>
                    <path d="M96.7649059,22.6485528 C96.7649059,22.6485528 96.7762537,22.0796527 96.9961054,20.9289095 C97.0548674,20.6208373 95.2031001,21.7394445 95.2031001,21.7394445 C95.2031001,21.7394445 95.208774,21.8473682 95.2125238,21.9931366 C95.2144973,22.070007 95.2157801,22.1574089 95.2152374,22.2450077 C95.2149907,22.2759134 95.214744,22.3066222 95.2140039,22.3370357 C95.2122771,22.4184337 95.2085274,22.4963868 95.2015706,22.5626764 C95.1946633,22.6309838 95.1542058,22.751506 95.139799,22.7846754 C95.0634232,22.9603159 96.1412197,23.0936827 96.7649059,22.6485528" id="Fill-99" fill="#EEA987"></path>
                    <path d="M95.609066,23.2445347 L95.3020828,23.6558554 C95.3020828,23.6558554 95.4819211,23.8961123 95.8012883,23.7187985 L95.609066,23.2445347 Z" id="Fill-101" fill="#D44040"></path>
                    <path d="M95.3842015,23.6726025 C95.3842015,23.6726025 94.2200136,28.1434879 94.4599954,31.6235226 L94.8516926,32.3121083 L95.218326,31.5907961 C95.218326,31.5907961 95.3187789,25.3658184 95.6379487,23.661628 L95.3842015,23.6726025 Z" id="Fill-103" fill="#D44040"></path>
                    <path d="M95.2804183,22.8610242 L95.6090611,23.2445396 C95.6090611,23.2445396 96.1365375,23.1426199 96.2914106,22.8678155 C96.4462837,22.5930112 95.2804183,22.8610242 95.2804183,22.8610242" id="Fill-105" fill="#EEA987"></path>
                    <path d="M95.2050145,22.525378 C95.2050145,22.525378 95.243153,22.8177021 95.6090463,23.2445248 L95.2097016,23.7797142 L94.9935503,22.6695224 L95.2050145,22.525378 Z" id="Fill-107" fill="#C4C1CC"></path>
                    <path d="M96.7952588,22.2472075 C96.7952588,22.2472075 96.1424137,23.0342188 95.609066,23.2445544 L95.8571393,23.8564665 L97.0984431,22.5253584 L96.7952588,22.2472075 Z" id="Fill-109" fill="#C4C1CC"></path>
                    <path d="M87.2024165,26.0362593 C87.2024165,26.0362593 90.0160844,29.0852882 90.6800801,28.9223446 C90.987014,28.847049 91.4519787,28.3185034 91.8361272,27.8216509 C91.9627787,27.6580183 92.0870127,27.4863148 92.2051288,27.3163338 C92.2054741,27.3159893 92.2054741,27.3155956 92.2054741,27.3155956 C92.6768528,26.6368033 93.0461998,25.9861115 93.0461998,25.9861115 C93.0461998,25.9861115 94.4394657,24.3575611 93.3214091,23.6315738 C93.3214091,23.6315738 92.8502771,23.5841818 92.5822218,23.7813776 C92.33479,23.963465 91.7327633,25.1099266 91.635024,25.3224275 C91.5373341,25.5346824 90.77703,27.033114 90.7061307,27.0774548 C90.6351822,27.1218447 89.8884955,26.6747956 89.4893975,26.4067826 C88.8443971,25.9737591 88.0340639,25.2191298 88.0340639,25.2191298 L87.2024165,26.0362593 Z" id="Fill-111" fill="#323657"></path>
                    <polygon id="Fill-113" fill="#3A4066" points="94.5733947 33.4893574 95.7103971 33.4893574 95.7103971 32.6290683 94.5733947 32.6290683"></polygon>
                    <path d="M95.2152275,22.2449979 C95.2149808,22.2759035 95.2147341,22.3066123 95.2140434,22.3370259 C96.2732393,21.9824475 96.4783882,21.4487346 96.4783882,21.4487346 C96.1479692,21.6818557 95.2125139,21.9931267 95.2125139,21.9931267 C95.2144874,22.0699971 95.2157702,22.1573991 95.2152275,22.2449979" id="Fill-115" fill="#A77860"></path>
                    <path d="M99.074844,30.353335 C99.074844,30.353335 98.9745884,30.4371445 98.868363,30.4362586 C98.6850216,30.4346838 98.4762217,30.2358149 98.2845421,30.4164259 C98.092912,30.5969877 98.4963517,31.3651012 98.6417519,31.4551115 C98.7870533,31.5451217 99.1173736,31.3833592 99.470883,30.9572254 C99.8243923,30.5309933 99.074844,30.353335 99.074844,30.353335" id="Fill-116" fill="#EEA886"></path>
                    <path d="M98.3578984,30.3650132 C98.3578984,30.3650132 97.9869726,30.4921299 97.5916737,30.6845028 C97.2447757,30.853352 96.8378823,31.1110795 96.8793758,31.1986783 C96.9424302,31.3317005 97.2517818,31.0822408 97.6069193,30.9381456 C97.9338846,30.8055171 97.8918976,30.8869643 97.8918976,30.8869643 C97.8918976,30.8869643 97.9025547,30.8630961 97.5745533,31.0775655 C97.2219814,31.3081768 96.8528318,31.5705795 96.8854444,31.6429715 C96.9259512,31.7326865 96.9385325,31.7404621 97.0802816,31.6779126 C97.0066194,31.7315054 97.0109119,31.7595075 97.0304992,31.7926769 C97.1317415,31.964282 97.7030304,31.7069974 97.9298388,31.604684 C97.7561185,31.6843595 97.637213,31.7615744 97.7671702,31.8265845 C97.9158761,31.9010435 98.7069673,31.500402 99.0042309,31.3844074 C99.3284333,31.2578813 98.3578984,30.3650132 98.3578984,30.3650132" id="Fill-117" fill="#EEA886"></path>
                    <path d="M98.6924717,30.3650132 C98.6924717,30.3650132 98.7731399,30.835783 99.3870571,31.4379017 C99.3870571,31.4379017 100.794286,29.8894206 101.045319,29.599508 L99.9442352,28.9623005 L98.6924717,30.3650132 Z" id="Fill-118" fill="#323657"></path>
                    <path d="M94.756292,18.794668 C94.756292,18.794668 94.1853978,19.4321216 94.354283,19.5926538 C94.4938119,19.7252331 93.9699372,20.359537 93.895831,20.4658859 C93.8216754,20.5722348 94.1407959,20.7383772 94.1948708,20.8310449 C94.2488963,20.9237619 94.2402621,21.9038842 94.5131525,21.9985205 C94.7860923,22.0931075 96.1509887,21.9561974 96.579295,21.6820821 C97.0076506,21.4080159 97.6741132,19.8677042 97.6074077,19.1351223 C97.5407516,18.4024912 95.7607223,17.6827538 94.756292,18.794668" id="Fill-119" fill="#EEA886"></path>
                    <path d="M94.6393551,18.9344275 C94.6393551,18.9344275 94.4246346,18.0479079 95.2987129,17.6364888 C96.172742,17.2250697 97.2793027,18.5762075 97.4223346,18.6517491 C97.5654158,18.72734 98.4164038,18.9926955 97.6167771,20.4037744 C96.9301351,21.6154922 96.8646138,21.6577168 96.8646138,21.6577168 C96.8646138,21.6577168 96.7651476,20.83729 96.6340556,20.6846319 C96.4292028,20.4462451 95.8757744,20.3598766 95.8757744,20.3598766 C95.8757744,20.3598766 96.2987028,19.7361534 95.917416,19.5427471 C95.5362278,19.3493899 95.0848805,18.8803426 94.6393551,18.9344275" id="Fill-120" fill="#323657"></path>
                    <path d="M96.4006013,20.0700722 C96.4587712,19.9845895 96.6708768,19.6079639 96.9616771,19.9280932 C97.2524774,20.2481733 96.5059387,20.8752922 96.4429336,20.8707154 C96.3800272,20.8661386 95.9109674,20.7897111 96.4006013,20.0700722" id="Fill-121" fill="#EEA886"></path>
                    <path d="M85.5653402,28.5613933 C85.5653402,28.5613933 85.3952215,29.2277839 85.3720818,29.3281289 C85.3489915,29.428523 84.3013901,29.1522423 84.3013901,29.1522423 L84.3023275,28.3371305 C84.3023275,28.3371305 85.442537,28.4515503 85.5653402,28.5613933" id="Fill-122" fill="#666FB3"></path>
                    <path d="M85.3927496,29.2433106 C85.3927496,29.2433106 85.6860169,29.6875054 85.9931975,29.9004984 C86.3003781,30.1134423 87.4856828,30.388788 87.6587618,30.5936117 C87.7836865,30.741447 87.9575056,31.3011443 86.0555118,31.0456806 C84.7042328,30.8641837 84.0375729,30.9100008 83.9160526,30.6751081 C83.7945322,30.4401661 84.3014838,29.0793827 84.3014838,29.0793827 C84.3014838,29.0793827 84.5904586,29.2362239 85.3927496,29.2433106" id="Fill-123" fill="#2D314F"></path>
                    <g id="Group-25" transform="translate(76.938316, 8.152703)" fill="#979797">
                        <polygon id="Fill-124" points="7.97084091 43.4087193 12.5723011 0.956347131 12.0750552 0.913041721 7.47359503 43.3654139"></polygon>
                        <polygon id="Fill-125" points="0.606089587 42.8421103 5.20750346 0.389784117 4.7102113 0.346432686 0.10879743 42.7988509"></polygon>
                        <polygon id="Fill-126" points="12.5250056 2.04625979 12.5723011 1.6052683 4.68827607 0.913041721 4.64098057 1.35403321"></polygon>
                        <polygon id="Fill-127" points="11.9584824 4.87930496 12.0057782 4.43833117 4.12170322 3.74608689 4.07445768 4.18706069"></polygon>
                        <polygon id="Fill-128" points="11.3919595 8.27895917 11.4392553 7.83798538 3.55523059 7.1457411 3.50793478 7.58671489"></polygon>
                        <polygon id="Fill-129" points="11.3919598 11.6786134 11.4392553 11.2376396 3.55523029 10.5453953 3.50793478 10.9863691"></polygon>
                        <polygon id="Fill-130" points="10.8254868 15.0782676 10.8727324 14.6372761 2.98865744 13.9450495 2.94141189 14.3859955"></polygon>
                        <polygon id="Fill-131" points="10.8254366 18.4779218 10.8727324 18.0369581 2.9887077 17.3447037 2.94141189 17.7856674"></polygon>
                        <polygon id="Fill-132" points="10.258914 23.0107941 10.3062095 22.5698481 2.4221845 21.877576 2.374889 22.3185675"></polygon>
                        <polygon id="Fill-133" points="9.6923911 26.9770573 9.7396866 26.5361113 1.85566161 25.8438392 1.80836611 26.2848307"></polygon>
                        <polygon id="Fill-134" points="9.6923908 29.2434935 9.7396866 28.8025197 1.85561165 28.1102754 1.80836611 28.5512492"></polygon>
                        <polygon id="Fill-135" points="9.1258682 32.0765386 9.17316371 31.6355648 1.28913872 30.9433206 1.24184321 31.3842943"></polygon>
                        <polygon id="Fill-136" points="9.1258682 35.4761928 9.17316371 35.0352013 1.28913872 34.3429748 1.24184321 34.7839663"></polygon>
                        <polygon id="Fill-137" points="8.55934501 38.875847 8.60664082 38.4348556 0.722565866 37.742629 0.675320322 38.183575"></polygon>
                        <polygon id="Fill-138" points="7.99287238 42.2755013 8.04011792 41.8345552 0.156042973 41.1422832 0.10879743 41.5832747"></polygon>
                    </g>
                    <path d="M95.806084,2.60687674 C95.806084,2.60687674 95.7071112,2.72902293 95.6377415,2.76140496 C95.6377415,2.76140496 95.5069948,2.81066699 95.4161136,2.85126756 C95.3873493,2.86425974 95.3625321,2.87621845 95.3473359,2.88566731 C95.2837881,2.92484071 95.1560511,3.02981163 94.9769035,3.08118981 C94.7980026,3.13256798 93.9888535,3.31632862 93.9888535,3.31632862 L93.800677,2.83743876 L93.6657366,2.45057685 C93.6657366,2.45057685 94.4147916,1.48256086 94.57598,1.4154838 C94.5918176,1.40898771 94.6076059,1.4031806 94.6229008,1.39884987 C94.7648966,1.35519811 94.8889332,1.38231437 94.9660984,1.3678458 C94.9944186,1.36272767 95.279841,1.33064092 95.3416126,1.39008999 C95.4274121,1.47247224 95.4534134,1.56430334 95.4384638,1.64432337 C95.4384638,1.64432337 95.5994056,1.8130741 95.6109507,1.9694232 C95.6109507,1.9694232 95.7644424,2.12030968 95.7233435,2.31888337 C95.7233435,2.31888337 95.8618856,2.48935655 95.806084,2.60687674" id="Fill-139" fill="#EEA886"></path>
                    <path d="M87.1326027,8.88655443 C87.3195458,8.76652438 87.5613531,8.60397447 88.398477,8.18630534 C89.9568784,7.40859529 91.8809264,5.99869748 92.2469184,5.79510408 C92.8093756,5.48196296 94.586494,3.31630401 94.586494,3.31630401 C94.4948233,2.9901215 93.6522722,2.33549269 93.6522722,2.33549269 C93.6522722,2.33549269 90.9582004,4.88077927 90.3694458,5.19406802 C89.8631355,5.46336052 87.3623715,5.73560579 86.67346,5.80622617 C86.5616592,5.81774197 86.4975194,5.823992 86.4975194,5.823992 C85.7780674,6.80263795 86.7307911,9.14457719 87.1326027,8.88655443 L82.9423304,8.82556007" id="Fill-140" fill="#D86600"></path>
                    <path d="M86.8577239,14.5292067 C86.8577239,14.5292067 87.6200509,17.3528902 87.8210554,18.3621957 C87.9961572,19.2416286 88.3484331,21.5840108 88.3985115,22.140903 C88.4485406,22.6977951 86.1480903,28.0880743 85.9087993,29.0617497 L83.8128071,28.7260692 C83.8128071,28.7260692 86.0241524,23.115858 85.4472883,21.8691498 C84.5893929,20.0151064 84.4776415,20.0710121 83.8018047,18.5435941 C83.1259185,17.0161761 81.5788156,16.9800539 81.1633372,14.146085 C81.1633372,14.146085 86.295168,13.6303347 86.8577239,14.5292067" id="Fill-141" fill="#2D314F"></path>
                    <path d="M83.1307043,0.809984142 C83.1307043,0.809984142 84.5224407,0.291477968 85.1641354,1.34817544 C85.8058795,2.40487291 85.7440585,4.52038401 85.0425164,4.78052293 C84.3409742,5.04066185 83.2872056,4.90463764 82.9280717,4.24346352 C82.5688884,3.5822402 82.2446367,2.62628135 82.2601783,1.98749907 C82.2758186,1.34866757 82.7653538,0.994384544 83.1307043,0.809984142" id="Fill-142" fill="#EEA886"></path>
                    <path d="M84.8088795,4.71557678 C84.8088795,4.71557678 84.7526338,5.07950552 84.8455379,5.25868936 C84.9384914,5.43797163 83.0951116,5.44259764 83.0951116,5.44259764 C83.0951116,5.44259764 82.945419,4.46764264 82.6617235,3.64391861 C82.3780279,2.82014538 84.8088795,4.71557678 84.8088795,4.71557678" id="Fill-143" fill="#EEA886"></path>
                    <path d="M82.6617481,3.64389893 C82.6617481,3.64389893 82.7889424,3.85325023 83.308278,3.77204909 C83.8276629,3.69079874 84.4612661,3.00157332 84.6780588,2.92593323 C84.8949503,2.85024393 84.8970225,2.72317645 84.8970225,2.72317645 L85.0327523,2.92101195 L85.2631131,2.93552973 C85.2631131,2.93552973 85.052981,2.31904085 85.3698813,2.06756339 C85.6868309,1.81613514 85.0409918,0.0720823363 83.3754275,0.652744291 C83.3754275,0.652744291 82.0961825,1.00446825 82.1426593,1.73016036 C82.1891853,2.45585246 82.375487,3.28248005 82.6617481,3.64389893" id="Fill-144" fill="#D88A51"></path>
                    <path d="M84.862604,2.4592826 C84.8334451,2.3375301 84.5231561,1.98969396 84.4043,2.36213651 C84.2854933,2.73457906 84.5838423,3.23551626 84.7502606,3.1926519 C84.9166789,3.14978755 84.9364142,2.76784692 84.862604,2.4592826" id="Fill-145" fill="#EEA886"></path>
                    <path d="M79.5545367,10.0230652 C79.5697329,10.2052018 79.7781875,10.4021515 79.9203313,10.4995437 C80.0114099,10.5618471 80.1204477,10.5995933 80.237725,10.6036288 L80.3203174,10.6064339 L80.3203667,10.6063355 L81.7665727,10.6554499 C81.7665727,10.6554499 82.8417049,7.1894408 80.8250981,5.86763392 C80.7626358,5.87378552 79.4145144,8.35248716 79.5545367,10.0230652" id="Fill-146" fill="#D86600"></path>
                    <path d="M83.916018,30.6751425 C84.0376371,30.9100353 84.704297,30.8642182 86.055576,31.0456166 C86.4247749,31.0951739 86.7157725,31.1142192 86.9441105,31.1111188 L87.0230025,30.3003378 C86.6276542,30.1631817 86.1680674,30.021744 85.9932616,29.9004345 C85.6860317,29.6875399 85.3928138,29.2432958 85.3928138,29.2432958 C84.5904734,29.2363076 84.3013999,29.0793187 84.3013999,29.0793187 C84.3013999,29.0793187 83.794547,30.4402006 83.916018,30.6751425" id="Fill-147" fill="#2D314F"></path>
                    <path d="M84.8099896,5.15296548 C84.8099896,5.15296548 83.6752074,4.88967694 83.0355355,5.1050322 L82.938931,5.19425503 C82.938931,5.19425503 82.7445379,5.5660086 83.4763244,5.59794772 C84.208111,5.62993604 85.3584842,5.68303667 84.8099896,5.15296548" id="Fill-148" fill="#4BA2F4"></path>
                    <path d="M80.375078,31.6781439 C80.375078,31.6781439 80.2049593,32.3445838 80.181869,32.4449779 C80.1587293,32.5453229 79.1111279,32.2689929 79.1111279,32.2689929 L79.1121147,31.4538811 C79.1121147,31.4538811 80.2523242,31.5683009 80.375078,31.6781439" id="Fill-149" fill="#666FB3"></path>
                    <path d="M81.1633372,14.1460801 C81.1633372,14.1460801 80.7813597,15.7177896 80.6682761,17.2912708 C80.5637282,18.7453125 80.3733808,20.3402013 80.222208,21.861074 C80.0536189,23.5565045 79.5726192,26.2972152 79.5476047,27.2041581 C79.5225408,28.111101 78.7571548,32.0746515 78.7571548,32.0746515 L80.7148022,32.2989635 C80.7148022,32.2989635 81.9866464,25.2947994 82.2870677,24.5788023 C82.5874396,23.8628051 84.077162,18.7584523 84.1271911,18.1856644 C84.1772696,17.6128273 81.1633372,14.1460801 81.1633372,14.1460801" id="Fill-150" fill="#2D314F"></path>
                    <path d="M80.2025368,32.3601055 C80.2025368,32.3601055 80.495804,32.8043003 80.8029847,33.0172934 C81.1101653,33.230188 82.29547,33.5055829 82.468549,33.7103574 C82.5934737,33.8581927 82.7672434,34.4179392 80.865299,34.1624263 C79.5139707,33.9809787 78.8473108,34.0267958 78.7258397,33.791903 C78.6043194,33.5569611 79.1112217,32.1961776 79.1112217,32.1961776 C79.1112217,32.1961776 79.4001964,32.3529697 80.2025368,32.3601055" id="Fill-151" fill="#2D314F"></path>
                    <path d="M87.2537333,18.056092 C87.420497,18.0323714 86.8397352,13.0747713 86.8841397,12.763894 C86.9138414,12.556462 86.9092036,10.9454314 86.897017,9.94099795 L87.0786808,8.92455656 C87.1798738,8.85113104 87.3154556,8.76628816 87.4777295,8.67302988 C87.7300952,8.52775367 88.0467488,8.36166043 88.3984819,8.18631518 C88.3576298,7.94625509 88.3291122,7.75717947 88.3182084,7.64669671 C88.2303862,6.7538779 87.6291489,6.28079515 87.2883195,6.08163091 C87.1492347,6.00042977 87.0535676,5.96479969 87.0535676,5.96479969 C86.9241038,5.90997662 86.7968601,5.856876 86.6734649,5.80623602 C85.8525733,5.4692759 84.8100044,5.15298517 84.8100044,5.15298517 L83.1348685,5.15298517 C83.1348685,5.15298517 81.8596199,5.40712012 81.0996118,5.71735768 C81.0021686,5.75717084 80.9107939,5.80800768 80.8250932,5.86760439 L81.0526417,10.6311584 C81.0527897,10.6321427 81.0529377,10.6330777 81.0531351,10.6342096 C81.0532831,10.6358336 81.0536285,10.6379006 81.0539245,10.6404104 C81.1564496,11.3106397 81.2644513,12.1011451 81.3003696,12.6554782 C81.3151218,12.8818079 81.0556513,14.0970198 80.9202669,15.2125266 L80.4464706,17.881731 C80.4464706,17.881731 80.7202985,18.987789 87.2537333,18.056092" id="Fill-152" fill="#D86600"></path>
                    <path d="M1.7265564,48.9807235 C1.7265564,48.9807235 1.71328438,48.7470119 2.18708064,48.4757508 L1.57365683,47.8275197 C1.57365683,47.8275197 1.2052473,48.0218119 0.840636828,48.3566558 C0.476026355,48.6914506 1.7265564,48.9807235 1.7265564,48.9807235" id="Fill-153" fill="#EEA987"></path>
                    <path d="M16.4512591,49.2662415 C16.4512591,49.2662415 16.404585,48.6912882 16.5838806,48.4121531 L15.8165211,48.255558 C15.8165211,48.255558 15.3766203,48.8806591 15.39976,49.2551194 C15.4228503,49.6296781 16.4512591,49.2662415 16.4512591,49.2662415" id="Fill-154" fill="#EEA987"></path>
                    <path d="M3.10871029,51.2580168 C3.10071357,51.4743563 3.11260412,51.5939434 2.44890451,51.5801638 C1.78520491,51.5664335 1.17276786,50.7571288 0.745250979,50.1874413 C0.317388729,49.6179507 -0.254442851,49.334288 0.123192949,48.970753 C0.169669683,48.9260677 0.218563996,48.880792 0.268938461,48.8357622 C0.626493549,48.5141073 1.04843519,48.2006217 1.10502629,48.13571 C1.16906748,48.0620384 1.73788942,48.8844829 1.73788942,48.8844829 C1.73788942,48.8844829 1.67434162,49.2854689 1.77316635,49.5240526 C1.87174439,49.7621442 2.01240805,50.6211538 2.32195692,50.7731722 C2.32220361,50.773369 2.32240096,50.773369 2.32240096,50.773369 C2.63199916,50.9246984 3.11028522,51.210428 3.10871029,51.2580168" id="Fill-155" fill="#EEA987"></path>
                    <path d="M18.3805616,51.1467565 C17.9395753,51.1237249 16.6907228,51.0176713 15.9934731,51.0675238 C15.2962234,51.1176225 15.030043,51.0026121 15.0955643,50.5068423 C15.0989687,50.4798737 15.1031131,50.4527082 15.1078002,50.4249522 C15.1865936,49.9406489 15.4019555,49.3358235 15.4221843,49.1328206 C15.4434984,48.918302 16.3191063,49.0669739 16.3191063,49.0669739 C16.3191063,49.0669739 16.7573296,49.7619572 17.0062416,49.9092019 C17.2548576,50.0562006 18.0126948,50.3641743 18.302607,50.5044309 C18.3238225,50.5148148 18.3468635,50.5244113 18.3711873,50.5335156 L18.3713847,50.5335648 C18.678812,50.6489689 19.2041175,50.6812525 19.274474,50.8498064 C19.3502084,51.031943 18.8217945,51.1694928 18.3805616,51.1467565" id="Fill-156" fill="#EEA987"></path>
                    <path d="M18.3805616,51.1467565 C17.9395753,51.1237249 16.6907228,51.0176713 15.9934731,51.0675238 C15.2962234,51.1176225 15.030043,51.0026121 15.0955643,50.5068423 C15.0989687,50.4798737 15.1031131,50.4527082 15.1078002,50.4249522 C15.2790537,50.3148139 16.4818242,50.4246569 17.1911618,50.5407499 C17.90045,50.6567937 18.3711873,50.5335156 18.3711873,50.5335156 L18.3713847,50.5335648 C18.678812,50.6489689 19.2041175,50.6812525 19.274474,50.8498064 C19.3502084,51.031943 18.8217945,51.1694928 18.3805616,51.1467565" id="Fill-157" fill="#004E8C"></path>
                    <path d="M3.1297137,51.250999 C3.12176625,51.4673386 3.11258932,51.5939631 2.44888971,51.5801343 C1.78519011,51.5664039 1.17275306,50.7571485 0.745236177,50.187461 C0.317373928,49.6179211 -0.254457653,49.3343077 0.123178147,48.9707727 C0.169654881,48.9260874 0.218549195,48.8808116 0.268972998,48.8357819 C0.288856356,48.8528588 1.12287198,49.5999585 1.37977681,50.1102953 C1.80680031,50.9585273 2.30062794,50.7689596 2.32194212,50.7731919 C2.32218881,50.7733887 2.3224355,50.7733887 2.3224355,50.7733887 C2.63198436,50.9246689 3.13133789,51.2034103 3.1297137,51.250999" id="Fill-158" fill="#004E8C"></path>
                    <path d="M19.5296076,42.6663409 C18.8028042,43.766198 16.5840089,49.0579532 16.5840089,49.0579532 L14.8376776,48.8779819 C14.8376776,48.8779819 16.075281,45.1675328 16.6817975,43.7984816 C17.1305792,42.7855344 17.747358,42.2867625 17.1639813,42.001279 C16.6711404,41.7599394 13.7004778,40.5725819 12.4429911,39.8949707 C12.2822467,39.8082577 12.1495265,39.7300586 12.0537114,39.663326 C12.0115764,39.6338967 11.9767436,39.6070758 11.9495088,39.5823709 C11.3724967,39.0598785 12.6737466,35.3730516 14.6944484,36.5509602 C14.6944484,36.5509602 19.0919763,40.0549616 19.4241222,40.6491078 C19.7563667,41.2434509 20.2566576,41.5662378 19.5296076,42.6663409" id="Fill-159" fill="#CCCCCC"></path>
                    <path d="M14.6016972,36.437318 C14.6016972,36.437318 11.6135688,40.6161254 8.90326476,42.8731725 C8.13610262,43.5119548 7.51162701,44.0418784 6.41646345,44.8599921 C5.83432016,45.2948365 4.80403654,46.2082263 3.96661658,46.9681213 L3.93183303,46.999962 C3.33464154,47.5426317 2.84140596,48.0015903 2.68939448,48.1435693 C2.68396726,48.1482937 2.67923078,48.1527229 2.67503701,48.1568568 L2.65811396,48.1726049 L2.11159296,48.7243789 L1.32992533,47.9639425 C1.32992533,47.9639425 2.26345642,46.839233 2.79705078,45.9697902 C3.54590839,44.7495586 4.63850635,43.3961079 5.20372659,43.0057518 C6.17199188,42.336999 7.11455189,41.939015 7.47107088,41.3058429 C7.82783655,40.6726709 9.05463485,38.1220201 9.05463485,38.1220201 C9.05463485,38.1220201 9.33833041,35.4665461 10.9719235,34.8805199 C12.5113296,34.328303 14.6016972,36.437318 14.6016972,36.437318" id="Fill-160" fill="#CCCCCC"></path>
                    <path d="M16.3202559,25.3233429 C16.2432387,25.4338748 16.1823551,25.578216 16.1344969,25.7324982 C16.0891057,25.8781189 16.0553089,26.0325979 16.030245,26.1758564 C15.9758741,26.4868321 15.9626514,26.7450518 15.9626514,26.7450518 C15.9626514,26.7450518 14.2418282,26.2397346 14.558087,25.8537585 C14.8741979,25.4676348 14.7945658,24.2230921 14.7945658,24.2230921 C14.7945658,24.2230921 16.5741017,24.9593649 16.3202559,25.3233429" id="Fill-161" fill="#EEA987"></path>
                    <path d="M17.5464868,22.03512 C17.5464868,22.03512 17.9659122,22.4549545 17.6852756,23.5574199 C17.6852756,23.5574199 17.7199604,24.4540773 17.8452799,24.6189894 C17.9705993,24.7838524 17.4633516,24.8050631 17.4023694,24.913036 C17.3413379,25.0209597 17.2034865,25.5366607 16.8300445,25.8265734 C16.4565037,26.1165353 14.7886699,25.0416783 14.7428839,24.498861 C14.6970979,23.9560929 13.6600549,21.5690255 15.5721137,21.6006201 C17.4841231,21.6321655 17.5464868,22.03512 17.5464868,22.03512" id="Fill-162" fill="#EEA886"></path>
                    <path d="M17.012774,31.7896405 C16.9414801,31.9128693 16.8624894,32.0412656 16.7759499,32.175961 C16.5424314,32.5402342 16.2547888,32.9495372 15.9122326,33.4252774 C15.8366955,33.5300515 15.7437421,33.6466859 15.6629752,33.7892062 C15.2203608,34.5697706 14.8588093,35.8994023 14.7370422,36.3790303 C14.7082286,36.4924659 14.6944632,36.5509799 14.6944632,36.5509799 C12.3839972,36.6010293 9.95773404,35.1021548 9.95773404,35.1021548 C11.4773555,33.499638 12.0719814,32.2624279 12.0719814,32.2624279 C12.231443,31.8270914 12.3277021,31.3392448 12.3578478,30.6942617 C12.4449794,28.8307202 12.9638216,27.802763 13.4676156,26.9892753 C13.9711135,26.1758367 14.558092,25.8536404 14.558092,25.8536404 L15.9707479,26.708713 C16.1354393,27.2378492 16.7118594,27.8276155 17.2782144,29.1210266 C17.6959623,30.0756567 17.6134685,30.7540553 17.012774,31.7896405" id="Fill-163" fill="#F6931D"></path>
                    <path d="M17.7618586,23.1593276 C17.7618586,23.1593276 18.1434908,20.8557252 15.8593714,21.107744 C13.5753015,21.3599104 14.5541252,23.9778351 14.798202,24.8257718 C14.798202,24.8257718 14.8540037,23.5400871 15.9423586,23.5763078 C17.0307134,23.6125284 17.2731128,23.3780786 17.7618586,23.1593276" id="Fill-164" fill="#464240"></path>
                    <path d="M15.7895281,23.2380484 C15.6708693,22.992821 15.1963823,23.0849474 15.2236171,23.4474489 C15.2509012,23.8099505 15.5979966,24.1946963 15.7341704,24.0300794 C15.8703443,23.8654134 15.9637912,23.5983846 15.7895281,23.2380484" id="Fill-165" fill="#EEA987"></path>
                    <path d="M14.9863835,21.797806 C14.9863835,21.797806 14.3752292,21.1222618 13.8570778,21.8004143 C13.338877,22.4785176 14.288443,23.5445163 14.7450202,22.9850651 C15.2015974,22.4255646 14.9863835,21.797806 14.9863835,21.797806" id="Fill-166" fill="#464240"></path>
                    <path d="M16.1345117,25.7325228 C16.0891205,25.8781435 16.0553237,26.0326225 16.0302598,26.175881 C15.4685426,25.8700726 15.0924856,25.0322245 15.0924856,25.0322245 C15.4869458,25.4240569 16.1343637,25.7323751 16.1343637,25.7323751 L16.1345117,25.7325228 Z" id="Fill-167" fill="#A77860"></path>
                    <path d="M14.6659752,21.5661121 C14.6659752,21.5661121 14.3874108,21.1119271 13.7442853,21.1058958 C13.1012585,21.0999683 12.3115981,22.070445 12.5116651,23.4822621 C12.7116828,24.89403 12.2547109,26.5434466 10.9112768,27.9012772 C10.9112768,27.9012772 13.2558849,26.6404942 13.472579,24.7817264 C13.6892731,22.9228601 14.3481375,22.9182833 14.3481375,22.9182833 L14.6659752,21.5661121 Z" id="Fill-168" fill="#464240"></path>
                    <path d="M20.2502683,35.2365549 C20.2502683,35.2365549 20.8661097,35.2481692 21.0110658,35.270561 C21.1559726,35.2929528 21.4659161,35.3770083 21.5078537,35.3483172 C21.54989,35.3195769 21.6850278,34.7432949 21.7905625,34.6183928 C21.8960973,34.4935399 22.2706248,33.2177962 22.2029325,33.2270482 C22.1352897,33.2363002 21.90261,33.5657308 21.4231398,34.1254281 C20.9437189,34.6850762 20.3971979,34.4788745 20.2040383,34.610814 C20.0107799,34.7427536 20.2502683,35.2365549 20.2502683,35.2365549" id="Fill-169" fill="#EEA886"></path>
                    <path d="M12.0536917,39.6633063 C12.0536917,39.6633063 13.3319499,38.166794 13.4295411,37.988053 C13.3774892,38.1026205 12.7072276,39.5754615 12.4430207,39.894951 C12.2822763,39.808238 12.1495068,39.7300389 12.0536917,39.6633063" id="Fill-170" fill="#919191"></path>
                    <path d="M17.012774,31.7896405 C16.9414801,31.9128693 16.8624894,32.0412656 16.7759499,32.175961 C16.7759499,32.175961 16.0496399,29.9704889 15.9789874,29.4273271 C15.9789874,29.4273271 16.6656293,30.9705424 17.012774,31.7896405" id="Fill-171" fill="#BD8D3F"></path>
                    <path d="M20.5135329,34.5468079 C20.5135329,34.5468079 18.2231969,34.0254966 17.1025747,32.9657479 C16.8093075,32.6883845 15.655678,28.205688 15.655678,28.205688 C15.655678,28.205688 15.3386791,27.0730059 14.3349395,27.399779 C13.3311506,27.7266997 13.7326662,28.8678464 13.7326662,28.8678464 C13.7326662,28.8678464 15.1203568,32.4144168 15.854857,33.7940979 C16.4660606,34.9421836 20.5307519,35.3232384 20.5307519,35.3232384 L20.5135329,34.5468079 Z" id="Fill-172" fill="#F6931D"></path>
                    <polygon id="Fill-173" fill="#E0E0E0" points="14.3693629 25.9806538 14.6927265 25.5751402 16.0797264 26.416384 16.0882126 27.1179618"></polygon>
                    <path d="M23.2029569,32.1543123 C22.2678964,33.4973791 21.6389803,34.9622969 21.3011606,36.4657974 L21.2998284,36.467766 C21.0731187,37.4807625 20.9770075,38.5114264 21.0106563,39.5359386 C21.12596,43.2889076 22.9638139,46.93976 26.2925743,49.2456262 C31.8792554,53.1154756 39.5510742,51.7356468 43.4294146,46.1651503 C47.3091364,40.5927838 45.9257875,32.940487 40.3391558,29.0706376 C38.4355832,27.7520295 36.2890686,27.0422332 34.1337717,26.9026164 C30.5753906,26.6700859 26.9887386,27.9866762 24.4260549,30.6615893 C23.9852166,31.1187763 23.5761523,31.6182372 23.2029569,32.1543123" id="Fill-174" fill="#F6931D"></path>
                    <path d="M22.6020749,28.9181861 L33.3090416,39.1534173 L34.29497,24.3905091 C30.0088974,24.1103898 25.68888,25.6962726 22.6020749,28.9181861" id="Fill-175" fill="#27A9E0"></path>
                    <path d="M22.864185,31.9182483 C21.8983373,33.3054098 21.2487484,34.8185561 20.8998769,36.3715648 L33.3090169,39.1534173 L24.1274443,30.3764109 C23.6721499,30.8486079 23.2496162,31.3646042 22.864185,31.9182483" id="Fill-176" fill="#50E3C2"></path>
                    <path d="M20.1396418,36.2011063 L20.1381617,36.2033209 C19.8896444,37.3136604 19.7842576,38.4434389 19.8212121,39.5665244 L33.3090366,39.1533829 L20.1396418,36.2011063 Z" id="Fill-177" fill="#308DFC"></path>
                    <path d="M58.8126708,47.799808 C58.8126708,47.799808 59.187593,48.3593084 59.7134906,48.4801751 C60.2393882,48.6010417 60.7573916,48.793267 60.7613957,49.1243216 C60.7653351,49.4553761 59.2408785,49.6528179 58.6390492,49.3190566 C57.7408443,48.821023 57.6495684,48.9711713 57.5499542,48.7221545 C57.4503894,48.4732361 57.6695997,47.807436 57.6630871,47.7283018 C57.6550943,47.6304175 58.8126708,47.799808 58.8126708,47.799808" id="Fill-178" fill="#353A3D"></path>
                    <path d="M58.754422,47.5238028 C58.754422,47.5238028 58.8228543,47.7940796 58.8126906,47.7997883 C58.8025269,47.8055462 57.6275832,47.9451629 57.6631068,47.7282821 C57.6919204,47.5523955 57.7330686,47.3612529 57.7330686,47.3612529 L58.754422,47.5238028 Z" id="Fill-179" fill="#81807E"></path>
                    <path d="M54.8585714,47.7627064 C54.8585714,47.7627064 55.1259853,48.2978957 55.5829079,48.48018 C56.0713083,48.6750135 56.4630548,48.898981 56.4541246,49.221571 C56.4451944,49.5441118 55.2601363,49.8709832 54.3979978,49.2519353 C53.853253,48.8607919 53.6806674,48.8588726 53.5932399,48.6126609 C53.5058616,48.3663508 53.7450046,47.7263382 53.741699,47.6489264 C53.7377026,47.5534043 54.8585714,47.7627064 54.8585714,47.7627064" id="Fill-180" fill="#353A3D"></path>
                    <path d="M54.8719174,47.4847771 C54.8719174,47.4847771 54.8687104,47.7575145 54.8585467,47.7626818 C54.8484324,47.7678492 53.7128607,47.8612059 53.7417236,47.648951 C53.764666,47.4803479 53.8519455,47.2767545 53.8519455,47.2767545 L54.8719174,47.4847771 Z" id="Fill-181" fill="#81807E"></path>
                    <path d="M59.0355125,31.1358384 C59.0355125,31.1358384 60.0905639,35.7775415 60.3315325,37.1914748 C60.5365827,38.3948264 60.7000407,39.6479322 60.601808,40.5166368 C60.4801396,41.592232 58.9537588,47.166321 59.0175533,47.4816767 C59.0813478,47.7970324 57.4203226,47.532169 57.4203226,47.532169 C57.4203226,47.532169 58.5812049,41.3143764 58.3493146,40.1571372 C58.1775184,39.3000469 56.6726491,33.60642 56.442091,33.898498 C56.2114341,34.1904776 55.925469,39.2719464 55.7546596,40.1154539 C55.5838502,40.9589615 55.0594821,47.6239509 55.0594821,47.6239509 C55.0594821,47.6239509 53.8871534,47.796491 53.5740522,47.532169 C53.5740522,47.532169 53.4314643,41.8410519 53.5403047,40.2596475 C53.5817983,39.6569382 52.8322993,33.0333368 53.7933118,30.3667898 C54.3012009,28.9575318 59.0355125,31.1358384 59.0355125,31.1358384" id="Fill-182" fill="#2D3133"></path>
                    <path d="M63.6276457,26.9162238 C62.8757784,26.8108591 60.5100535,27.8561884 60.2951356,27.7772511 C60.1473179,27.723117 59.8004199,26.5955531 59.5525439,25.7422522 C59.406009,25.2374271 59.294159,24.8285179 59.2786174,24.7948071 L59.2776799,24.792937 C59.2800975,24.8155749 59.3184334,25.2015018 59.2696378,25.7084922 C59.2664801,25.7413171 59.25158,25.750077 59.2477316,25.7837878 C59.2465968,25.7925477 59.2417123,25.8198115 59.2380612,25.8280793 C59.1829996,25.9530798 59.1625736,26.1884155 59.1119524,26.3841841 C59.0368101,26.6733093 58.9954645,27.0671102 59.0253142,27.4773482 L59.0253142,27.4790215 C59.0251169,27.4820727 59.0251169,27.4850254 59.0247222,27.4883227 C59.0245248,27.4975747 59.0239821,27.5067283 59.0239821,27.5160295 C59.0239821,27.5196712 59.0236367,27.5235098 59.0236367,27.5273484 C59.0026186,28.2582079 59.0532397,29.0460558 59.0742579,29.4653981 C59.1073639,30.1149088 58.8931368,30.4073313 58.8869201,30.4156975 L58.8867228,30.4158944 L58.6600624,30.3842013 L58.4963577,30.3612189 L58.4943348,30.3608252 L58.2755685,30.3302149 L57.4176731,30.2099388 L57.1069402,30.1663362 L57.0335247,30.1559523 L56.4899146,30.0797217 L54.9574652,29.8646125 L54.7892707,29.841138 L54.7199997,29.831443 L54.1420995,29.7501435 L53.8809022,29.7136768 L53.8800141,29.7134799 C53.8800141,29.7134799 53.6581395,28.1440342 53.6411671,27.2958022 C53.6257736,26.5166649 53.207631,24.9346207 53.1394454,24.6815684 C53.1390507,24.6797476 53.1385079,24.6780743 53.1380146,24.6762535 C53.1374718,24.6739405 53.1368798,24.6715782 53.1361397,24.6693637 C53.1348569,24.6649837 53.1339688,24.6613912 53.1330314,24.6582416 C53.132686,24.6564207 53.1320939,24.6545998 53.1316006,24.652779 C53.1316006,24.6522376 53.1314032,24.6516471 53.1312059,24.6513518 C53.1310085,24.6508104 53.1308605,24.6502199 53.1308605,24.6496293 C53.1302684,24.6478577 53.1302684,24.6469718 53.1302684,24.6469718 C53.1302684,24.6469718 51.8794424,25.9576566 51.636747,26.5296079 C51.5626901,26.7031323 51.3364244,27.1751324 51.048387,27.7497411 C50.851379,27.3746903 50.7280331,27.1140593 50.7280331,27.0487539 C50.7280331,27.0407322 50.7281811,27.0321691 50.7283784,27.0232616 C50.746831,26.4577572 51.3410128,24.1647355 51.8098259,22.6667468 C52.1738937,21.9368224 52.487883,21.3465147 52.5885826,21.2745163 C52.7412355,21.1651655 53.3832262,20.8909517 53.9436113,20.6691003 C53.9620638,20.6618169 53.9803684,20.6547302 53.9982782,20.6475943 C54.0505768,20.6269742 54.1020861,20.6069446 54.1521645,20.5874071 C54.1771791,20.5777614 54.2018482,20.5683125 54.2261721,20.5589621 C54.2395428,20.5538932 54.2526668,20.5489719 54.2658401,20.5440506 C54.2766452,20.5398675 54.2872529,20.5358813 54.2978114,20.5318458 L54.2979594,20.5318458 C54.5782012,20.4255461 54.7910963,20.3513824 54.8349581,20.3488234 C54.8423095,20.3482328 54.8540027,20.3484668 54.8698896,20.3490202 C54.8883422,20.3493647 54.9122713,20.3504474 54.9408382,20.3522683 C55.2871441,20.3724947 56.3208321,20.4691487 56.6534713,20.5006941 C56.7140095,20.5063044 56.7515066,20.5099461 56.7571312,20.5104875 L56.7578713,20.5104875 C56.7578713,20.5104875 56.9163461,20.582535 57.1548477,20.6913937 L57.1550451,20.6915414 L57.1771486,20.7015808 C57.3213647,20.7675752 57.4881777,20.85542 57.6645623,20.9516803 C58.0103749,21.1407559 58.3923524,21.3616722 58.7091047,21.5120174 C59.0197883,21.6594097 59.4451343,21.8647748 59.4812993,21.8936135 L61.0550943,26.4204539 L63.7853311,25.9227647 L63.6276457,26.9162238 Z" id="Fill-183" fill="#DECBC4"></path>
                    <path d="M58.8868757,30.415668 C58.8868757,30.415668 59.0021795,30.553267 59.0355322,31.1358483 C59.0355322,31.1358483 54.2945106,30.5842219 53.7933316,30.3667997 C53.7933316,30.3667997 53.7737442,29.7247201 53.8800684,29.7135488 C53.9968523,29.701344 58.8868757,30.415668 58.8868757,30.415668" id="Fill-184" fill="#495055"></path>
                    <path d="M54.8438735,20.1883453 C54.8585763,20.9305237 56.2992564,21.3365294 56.2992564,21.3365294 C56.2992564,21.3365294 56.9018751,20.5829828 56.7579058,20.5107877 C56.701364,20.4824411 56.6784217,20.3699406 56.6713663,20.2438574 C56.6648537,20.1237781 56.6725011,19.9913464 56.6795565,19.9072417 C56.6838489,19.8547809 56.6878947,19.8209717 56.6878947,19.8209717 C56.6878947,19.8209717 56.482055,19.6043861 56.2202164,19.3463141 C55.7626031,18.8949834 55.133539,18.3168313 55.1325522,18.546852 C55.1325029,18.5590076 55.1341804,18.5735254 55.1378808,18.5904054 C55.2483987,19.1080257 54.8438735,20.1883453 54.8438735,20.1883453" id="Fill-185" fill="#EEA886"></path>
                    <path d="M54.9633167,29.8273731 C54.9633167,29.8273731 54.8598542,30.478311 54.8508746,30.6479475 L54.6315656,30.6042958 C54.6315656,30.6042958 54.6919558,29.9156117 54.7274794,29.8002077 L54.9633167,29.8273731 Z" id="Fill-186" fill="#353A3D"></path>
                    <path d="M58.4913449,30.3397375 C58.4913449,30.3397375 58.57448,30.931374 58.5764536,31.1548001 L58.3443659,31.1247311 C58.3443659,31.1247311 58.2968531,30.3858992 58.2703584,30.3087827 L58.4913449,30.3397375 Z" id="Fill-187" fill="#353A3D"></path>
                    <path d="M55.3986883,19.1009046 L55.398787,19.1010522 C55.4016486,19.105383 55.4627295,19.1965251 55.5670308,19.3274312 C55.7882146,19.604893 56.2039396,20.0607513 56.6713713,20.2438721 C56.6648586,20.1237929 56.672506,19.9913612 56.6795614,19.9072565 C56.7274196,19.9060262 56.7752285,19.9005144 56.8226427,19.890032 C56.694511,19.6667535 56.5094428,19.4325497 56.5094428,19.4325497 L56.2202213,19.3462797 L55.3986883,19.1009046 Z" id="Fill-188" fill="#A77860"></path>
                    <path d="M55.1221271,18.5568717 C55.2467557,18.8272469 55.3651185,19.0233108 55.3986686,19.1009194 L55.3987672,19.101067 C55.4206241,19.1516578 55.4801262,19.2340892 55.5670604,19.3273967 C55.8044272,19.5825651 56.2457588,19.9190823 56.6795417,19.9072221 C56.7273999,19.906041 56.7752581,19.9005291 56.8226723,19.8900468 C56.9978234,19.8518576 57.2046992,19.7706565 57.3185228,19.5484115 C58.2172703,17.7931873 57.5665467,16.3578957 57.5665467,16.3578957 C57.5665467,16.3578957 55.1090031,15.6646841 54.7245092,16.4026794 C54.4547271,16.9202505 54.8293039,17.9214359 55.1221271,18.5568717" id="Fill-189" fill="#EEA886"></path>
                    <path d="M57.5665418,16.3579154 C57.5665418,16.3579154 57.794781,16.3453169 57.8512241,15.9137206 C57.9069765,15.4872916 57.794189,15.3690824 57.794189,15.3690824 C57.794189,15.3690824 56.7796936,14.9455077 56.4153298,14.8903894 C56.0510154,14.8353203 55.1551295,14.7823673 54.9451454,15.0219352 C54.9451454,15.0219352 54.4349375,14.9036276 54.2959513,15.7485132 C54.0754088,17.0888241 55.0473745,18.3902076 55.0473745,18.3902076 C55.0473745,18.3902076 55.0390363,17.5146625 55.23264,17.3985695 C55.4262438,17.2825749 55.5933528,17.5585111 55.5933528,17.5585111 L55.9893425,17.6292299 C55.9893425,17.6292299 55.3879079,16.3338503 56.1093827,16.2858186 C56.8309068,16.2378854 57.1535304,16.4330142 57.5665418,16.3579154" id="Fill-190" fill="#002D51"></path>
                    <path d="M55.5824539,17.2094299 C55.5448088,16.8236999 54.8454375,16.676406 54.8922596,17.0807384 C54.9391311,17.4850709 55.2835128,17.8735076 55.442629,17.8598264 C55.6017452,17.8461453 55.6111689,17.5034765 55.5824539,17.2094299" id="Fill-191" fill="#EEA886"></path>
                    <path d="M53.3529324,27.4678994 C53.3529324,27.7493966 53.2611631,28.0716913 53.1200554,28.4150983 C53.1164043,28.4237106 53.1129507,28.4324705 53.1092996,28.4409843 C53.0120537,28.2340936 52.9204817,28.0359628 52.838432,27.8523498 C52.8382347,27.8520054 52.8380373,27.8518577 52.8380373,27.851464 C52.6123143,27.347574 52.4573919,26.9545113 52.4487577,26.7990481 C52.3930053,25.7997819 53.1308605,24.6496293 53.1308605,24.6496293 C53.1308605,24.6502199 53.1310085,24.6508104 53.1312059,24.6513518 C53.1314032,24.6516471 53.1316006,24.6522376 53.1316006,24.652779 C53.1320939,24.6545998 53.132686,24.6564207 53.1330314,24.6582416 C53.1341168,24.6618833 53.1352516,24.6655743 53.1361397,24.6693637 C53.1368798,24.6715782 53.1374718,24.6739405 53.1380146,24.6762535 C53.1385079,24.6781236 53.1390507,24.6797476 53.1394454,24.6815684 C53.2905688,25.2755179 53.3529324,27.4678994 53.3529324,27.4678994 M51.048387,27.7497411 C51.3531007,28.329468 51.833755,29.1824245 52.30839,30.0095442 C52.2459277,30.1258833 52.1848468,30.2412381 52.1263808,30.355215 C51.9835956,30.6337595 51.8569934,30.9033965 51.7670002,31.1547755 C51.6588505,31.4570406 51.5084179,32.2312565 51.7962579,32.3751056 L53.3128697,33.2100993 C53.3128697,33.2100993 53.3234774,33.1805224 53.3436075,33.125847 C53.3938339,32.9900197 53.502773,32.699418 53.6536004,32.32294 C53.6584849,32.3107352 53.6736811,32.2748591 53.6961301,32.2220045 C53.7262758,32.1510397 53.7697922,32.0497105 53.8195253,31.9339127 C53.8417769,31.8821409 53.8652126,31.8274654 53.8894871,31.7713136 C53.9169686,31.7071893 53.9454861,31.6409981 53.973757,31.5751513 C54.0150532,31.4792848 54.0562014,31.3839104 54.0941919,31.2956718 C54.1976545,31.0554148 54.2784707,30.8684062 54.2784707,30.8684062 C54.2835526,30.8572841 54.2886838,30.8463096 54.2937656,30.8351875 C54.3431533,30.7287402 54.3937745,30.6218992 54.445333,30.5154519 C54.5250145,30.3504413 54.6070642,30.186169 54.6909394,30.0255876 C54.6993763,30.0091997 54.7077638,29.9930087 54.716398,29.9767192 C54.7312982,29.9484711 54.7463464,29.9202229 54.7612959,29.8923685 C54.7706208,29.8751932 54.7799458,29.8580179 54.7892707,29.841138 C54.7912936,29.8372994 54.7934645,29.8334115 54.7954874,29.8296222 C54.7993358,29.82288 54.8029868,29.8161378 54.8068352,29.8093957 C55.2452559,29.0116068 55.7390835,28.3445764 55.8966702,27.3663733 C55.9118171,27.271934 55.9262732,27.1780359 55.9399893,27.0848761 C55.962833,26.9295604 55.9838511,26.7762133 56.0030437,26.626065 C56.0101484,26.5691258 56.0173025,26.5130232 56.0240619,26.4572159 C56.1030032,25.8045556 56.1501214,25.2230078 56.1882106,24.8179371 C56.3067707,23.5560715 55.5318624,22.1896778 54.9369405,21.3456289 C54.6187574,20.894249 54.3522809,20.5921807 54.3009197,20.534897 C54.2996369,20.5338635 54.2987488,20.5327316 54.2978114,20.5318458 C54.2872529,20.5358813 54.2766452,20.5398675 54.2658401,20.5440506 C54.2526668,20.5489719 54.2395428,20.5538932 54.2261721,20.5589621 C54.2018482,20.5683125 54.1771791,20.5777614 54.1521645,20.5874071 C54.1020861,20.6069446 54.0505768,20.6269742 53.9982782,20.6475943 C53.9803684,20.6547302 53.9620638,20.6618169 53.9436113,20.6691003 C53.3675366,20.8944458 52.0096956,21.2950381 51.8570921,21.4042413 C51.7689738,21.4671353 51.7164778,21.9752576 51.4889292,22.7026229 C51.0201655,24.2005624 50.7418971,26.4592336 50.7283784,27.0232616 C50.7281811,27.0321691 50.7280331,27.0407322 50.7280331,27.0487539 C50.7280331,27.1140593 50.851379,27.3746903 51.048387,27.7497411" id="Fill-192" fill="#3C4145"></path>
                    <path d="M64.6354162,25.3821719 L61.2012691,26.1281397 L59.5642717,21.8580917 C59.5280573,21.8294991 59.0587508,21.5774803 58.7480179,21.4300387 C58.4245062,21.2763471 58.0150965,21.0867793 57.6519662,20.9195542 C57.4784925,20.8395342 57.3151332,20.7648291 57.1771338,20.7015906 L57.165786,20.7104982 C57.165786,20.7104982 57.3685173,21.3837294 57.6307507,23.0641501 C57.6307507,23.0643469 57.6307507,23.0645438 57.6308987,23.0647406 C57.6399277,23.1212861 57.6487099,23.1787175 57.6575908,23.2373791 C57.6585776,23.2441213 57.6596137,23.2510603 57.6607484,23.2578025 C57.6665704,23.2966314 57.672639,23.3360016 57.6784609,23.3759132 C57.679201,23.3806868 57.6798917,23.3854113 57.6806318,23.3899881 C57.6846775,23.4167598 57.688674,23.4437285 57.6925223,23.4710908 C57.70239,23.5374789 57.712307,23.6050973 57.7221747,23.6739952 C57.8391066,24.4919613 58.0032553,25.8840441 58.1609407,27.2894143 L58.1609407,27.2899557 C58.2856188,28.3975884 58.5696597,29.5343059 58.6599489,30.3825379 C58.6599489,30.3830793 58.6600969,30.3836206 58.6600969,30.3842112 C58.6780067,30.550452 58.7205857,30.7719589 58.7781636,31.0218616 C58.7845776,31.0501589 58.7913369,31.0787516 58.798047,31.1077379 C59.0521395,32.1784118 59.5454244,33.6939203 59.5454244,33.6939203 L59.6890977,33.5615379 L60.1145917,33.1697547 C60.2125284,33.0797444 60.2496308,32.9415057 60.2101601,32.8148319 C59.9741748,32.0555274 59.1722291,29.3684095 59.0252994,27.4789821 C59.0251021,27.47849 59.0251021,27.4779486 59.0251021,27.4773581 C58.9790201,26.8838024 59.1530364,26.3246464 59.2539334,25.794526 C59.2557589,25.7991028 59.2573871,25.8036304 59.2590152,25.808404 C59.3434825,26.042657 59.4370774,26.2973333 59.531363,26.5452674 L59.531363,26.5454643 C59.7845181,27.2112152 60.0434951,27.8280978 60.1512995,27.8675172 C60.3912812,27.955559 64.9131418,26.7223351 64.944373,26.5453659 L64.6354162,25.3821719 Z" id="Fill-193" fill="#3C4145"></path>
                    <path d="M54.6978369,22.37365 L55.3986883,22.7679431 L55.0992538,23.0725212 L55.8965617,27.3664373 C56.0591316,26.3599861 56.1331391,25.4041749 56.1881514,24.8180011 C56.3715421,22.8671561 54.4193219,20.6665068 54.2979495,20.5317129 C54.2041573,20.5671954 54.1028163,20.606418 53.9981696,20.6476583 L54.6978369,22.37365 Z" id="Fill-194" fill="#51565C"></path>
                    <path d="M57.1550204,20.6915758 C57.1550204,20.6915758 57.4168591,21.5446307 57.7220662,23.6739706 C57.8390474,24.4919367 58.0031961,25.8841671 58.1610789,27.2893405 L58.3241915,23.2679649 L57.9903188,22.9071858 L58.287089,22.5371055 L57.6519563,20.919628 C57.478532,20.839608 57.315222,20.7647553 57.1770746,20.7015168 L57.1550204,20.6915758 Z" id="Fill-195" fill="#51565C"></path>
                    <path d="M54.2627515,20.5403793 L54.8438587,20.1883601 C54.8438587,20.1883601 54.860091,20.5062256 56.2992416,21.3365442 L55.8905227,22.484679 L54.2627515,20.5403793 Z" id="Fill-196" fill="#F5E2D9"></path>
                    <path d="M56.6820185,20.3485281 C56.6820185,20.3485281 56.6594215,20.6915906 56.2992515,21.3365245 L57.0968554,22.3736353 L57.1550253,20.6915906 L56.6820185,20.3485281 Z" id="Fill-197" fill="#F5E2D9"></path>
                    <path d="M56.2970411,21.3365294 C56.2970411,21.3365294 56.1424641,21.9532151 56.1981177,22.1259521 C56.1981177,22.1259521 56.538059,22.2492794 56.7823332,22.0950957 C56.7823332,22.0950957 56.6093036,21.6634009 56.2970411,21.3365294" id="Fill-198" fill="#0064B5"></path>
                    <path d="M57.09614,30.2312676 C57.1826301,29.7961279 57.1003338,28.4921853 57.0967814,28.4369193 L57.0227245,28.4416437 C57.0235633,28.4550788 57.1079812,29.7911574 57.0233166,30.2168975 L57.09614,30.2312676 Z" id="Fill-199" fill="#AD9F99"></path>
                    <path d="M56.4909261,30.0306171 C56.4909261,30.0306171 57.1885211,30.1136883 57.419178,30.1710705 L57.3889336,30.9509951 L56.4754832,30.8537998 L56.4909261,30.0306171 Z" id="Fill-200" fill="#69737A"></path>
                    <path d="M56.6435691,22.0395935 C56.6435691,22.0395935 57.421635,23.9993952 57.2946874,26.1930071 C57.163102,28.4674755 56.947296,29.2921346 56.947296,29.2921346 L56.4675792,29.8922356 L56.2560163,29.1546832 C56.2560163,29.1546832 56.8997339,26.254966 56.4842062,23.4333987 C56.4088665,22.9221268 56.2970658,21.953225 56.2970658,21.953225 L56.6435691,22.0395935 Z" id="Fill-201" fill="#0064B5"></path>
                    <path d="M54.3056315,31.2950123 C54.3056315,31.2950123 54.4725925,31.6280846 54.6395535,31.6835475 C54.8064652,31.7390595 55.04995,32.0096316 55.04995,32.0096316 L53.8743649,32.6271539 C53.8743649,32.6271539 53.5613623,32.0165706 53.5474489,31.6280846 C53.5335355,31.2395003 54.3056315,31.2950123 54.3056315,31.2950123" id="Fill-202" fill="#EEA886"></path>
                    <path d="M54.417225,31.3262526 L54.4951303,31.4823557 C54.4951303,31.4823557 53.7484929,32.0269938 53.5472417,32.0616889 L53.4782173,31.8535679 L54.417225,31.3262526 Z" id="Fill-203" fill="#DECBC4"></path>
                    <path d="M54.4951352,31.3330735 C54.4951352,31.3330735 53.9355889,31.7945421 53.4642102,32.0073382 L51.8784753,29.1623949 L52.7001564,27.5779392 C52.7001564,27.5779392 54.4580327,31.0555133 54.4951352,31.3330735" id="Fill-204" fill="#3C4145"></path>
                    <path d="M59.25903,25.8084089 C59.3434973,26.0426619 59.4370428,26.2973382 59.5313778,26.5452724 C59.553284,26.257968 59.5589579,25.9901518 59.5525439,25.7422177 C59.5147508,24.2664732 59.0493914,23.4926017 59.0493914,23.4926017 C59.1561596,23.7498371 59.2073234,24.3016603 59.2317953,24.8004814 C59.2577966,25.3267632 59.2538989,25.7941864 59.2538989,25.7941864 L59.2538989,25.7945309 L59.25903,25.8084089 Z" id="Fill-205" fill="#2D3133"></path>
                    <path d="M52.1263611,30.3552101 L53.3958371,31.8844982 L52.3083703,30.0095885 C52.2459079,30.1258784 52.1848764,30.2412824 52.1263611,30.3552101" id="Fill-206" fill="#2D3133"></path>
                    <path d="M61.3455048,28.4377854 L64.2764501,28.4377854 C64.4773559,28.4377854 64.6521617,28.3006293 64.6994278,28.1058942 L65.9725055,22.8628598 C66.0388162,22.5896795 65.8313484,22.3265878 65.5495277,22.3265878 L62.6186319,22.3265878 C62.4176767,22.3265878 62.2428709,22.4636947 62.1956048,22.658479 L60.9225271,27.9015627 C60.8562163,28.1746938 61.0636841,28.4377854 61.3455048,28.4377854" id="Fill-207" fill="#FFFFFF"></path>
                    <path d="M64.9304349,26.9802398 C64.7870577,26.8478081 64.5103681,26.7709377 64.2734947,26.613063 C64.0365719,26.4551391 64.234468,26.2923923 64.234468,26.2923923 C63.9909832,26.2090258 64.0171819,26.0982478 64.0483638,26.0227061 C64.0904987,25.920688 64.3562845,25.9496251 64.3562845,25.9496251 C64.3562845,25.9496251 64.1179308,25.8970166 64.0199449,25.8537585 C63.9218602,25.8104513 63.9551143,25.6399781 64.1059416,25.5860901 C64.2568183,25.5321528 64.8714756,25.6832854 64.8714756,25.6832854 C64.8714756,25.6832854 64.7712201,25.6343678 64.4680852,25.4825955 C64.1649503,25.3308232 64.0983929,25.1928305 64.2771457,25.1265408 C64.4013797,25.0804284 64.6456046,25.1770332 65.1142697,25.4911586 C65.4670883,25.7276261 65.4384227,25.7584825 65.4384227,25.7584825 C65.4384227,25.7584825 65.1017377,27.1384098 64.9304349,26.9802398" id="Fill-208" fill="#EEA886"></path>
                </g>
            </g>
        </g>
    </g>
</svg>