<?xml version="1.0" encoding="UTF-8"?>
<svg width="100px" height="66px" viewBox="0 0 100 66" version="1.1" xmlns="http://www.w3.org/2000/svg" xmlns:xlink="http://www.w3.org/1999/xlink">
    <!-- Generator: Sketch 59.1 (86144) - https://sketch.com -->
    <title>Group 19</title>
    <desc>Created with Sketch.</desc>
    <defs>
        <path d="M64.5229301,37.650322 L56.1400368,37.650322 C56.207245,37.2526735 56.2422996,36.8463301 56.2422996,36.4339968 C56.2422996,32.8302347 53.587334,29.7224706 49.7552578,28.2916703 L51.4782536,26.7213644 L56.385661,26.9427955 L60.2975167,22.6301062 L60.0330355,22.4768821 L56.2258602,26.6740253 L51.3375515,26.4535603 L49.4433924,28.1799886 C48.0815802,27.7114281 46.5807582,27.4519325 45.0040248,27.4519325 C44.081967,27.4519325 43.1855353,27.540814 42.3280264,27.7081433 L41.5183851,27.7081433 L41.5183851,27.892476 C37.0178533,29.0647469 33.76575,32.4457253 33.76575,36.4339968 C33.76575,36.8463301 33.8008046,37.2526735 33.8680128,37.650322 L0.0784856879,37.650322 L0.0784856879,0.209145531 L64.5229301,0.209145531 L64.5229301,37.650322" id="path-1"></path>
        <linearGradient x1="0%" y1="50%" x2="99.9996249%" y2="50%" id="linearGradient-3">
            <stop stop-color="#FFFFFF" offset="0%"></stop>
            <stop stop-color="#F1F5FF" offset="100%"></stop>
        </linearGradient>
        <path d="M4.93428571,9.35243902 C-0.000952380952,6.77097561 0.716428571,1.81804878 0.716428571,1.81804878 C3.95809524,1.81804878 4.93428571,0.735609756 4.93428571,0.735609756 C4.93428571,0.735609756 5.91047619,1.81804878 9.15214286,1.81804878 C9.15214286,1.81804878 9.8697619,6.77097561 4.93428571,9.35243902 Z M9.75571429,1.35634146 C6.0502381,1.35634146 4.93428571,0.11902439 4.93428571,0.11902439 C4.93428571,0.11902439 3.81857143,1.35634146 0.112857143,1.35634146 C0.112857143,1.35634146 -0.707380952,7.01829268 4.93428571,9.96902439 C10.5759524,7.01829268 9.75571429,1.35634146 9.75571429,1.35634146 L9.75571429,1.35634146 Z" id="path-4"></path>
        <path d="M3.87173333,0.07675 L3.87173333,6.76325 C-0.313066667,4.76025 0.295466667,0.91675 0.295466667,0.91675 C3.044,0.91675 3.87173333,0.07675 3.87173333,0.07675" id="path-6"></path>
        <path d="M4.4015,4.14725 L4.4015,6.007 L3.802,6.007 L3.802,4.14725 C3.32825,4.016 2.97975,3.583 2.97975,3.0675 C2.97975,2.448 3.482,1.94575 4.10175,1.94575 C4.721,1.94575 5.22325,2.448 5.22325,3.0675 C5.22325,3.583 4.875,4.016 4.4015,4.14725 Z M6.904,0.1085 L1.29925,0.1085 C0.71075,0.1085 0.23375,0.5855 0.23375,1.174 L0.23375,6.779 C0.23375,7.36725 0.71075,7.84425 1.29925,7.84425 L6.904,7.84425 C7.49225,7.84425 7.96925,7.36725 7.96925,6.779 L7.96925,1.174 C7.96925,0.5855 7.49225,0.1085 6.904,0.1085 L6.904,0.1085 Z" id="path-8"></path>
        <polyline id="path-10" points="20.2360345 6.79606667 0.0292068966 3.47036667 0.614068966 0.149333333 20.8211379 3.47526667 20.2360345 6.79606667"></polyline>
        <path d="M22.6608723,12.9990189 L2.86814894,12.9990189 C3.61075532,11.0357736 4.59314894,9.47086792 5.70546809,8.22433962 L8.96119149,8.22433962 L8.96119149,7.52773585 L6.37344681,7.52773585 C7.45469149,6.47866038 8.6301383,5.69301887 9.81096809,5.10630189 L11.1422766,5.39549057 C11.1371383,5.48722642 11.144234,5.58116981 11.1645426,5.67511321 C11.270734,6.16616981 11.7055319,6.50269811 12.1875532,6.50269811 C12.2607128,6.50269811 12.3348511,6.49484906 12.409234,6.47890566 C12.9734681,6.35626415 13.3331489,5.7965283 13.2108085,5.23115094 C13.1741064,5.06067925 13.097766,4.90884906 12.9935319,4.78326415 L13.8995851,3.74743396 C15.2472872,3.48866038 16.434234,3.42439623 17.2810745,3.42439623 C18.1171489,3.42439623 18.6216809,3.4869434 18.6216809,3.4869434 C17.7809574,2.71969811 16.8181383,2.08441509 15.7660106,1.6134717 L16.1988511,1.11873585 C20.0772872,2.9350566 22.7643723,6.88018868 22.7643723,11.4549623 C22.7643723,11.9783962 22.7288936,12.4942264 22.6608723,12.9990189 L22.6608723,12.9990189 Z M15.3488298,6.05701887 L18.9578723,6.05701887 L18.9578723,5.36041509 L15.3488298,5.36041509 L15.3488298,6.05701887 Z M0.754106383,12.9990189 L0.119404255,12.9990189 C0.0513829787,12.4942264 0.0159042553,11.9783962 0.0159042553,11.4549623 C0.0159042553,6.39207547 3.30735106,2.10011321 7.86232979,0.611981132 L7.86232979,1.07483019 L8.50706383,1.07483019 C4.76344681,2.1175283 1.84244681,5.14064151 0.93712766,8.94767925 L0.320776596,9.53071698 L0.547595745,9.77158491 L0.818212766,9.51575472 C0.704191489,10.1446604 0.644489362,10.7929434 0.644489362,11.4549623 C0.644489362,11.9791321 0.681925532,12.494717 0.754106383,12.9990189 L0.754106383,12.9990189 Z M11.2127447,5.07171698 L10.3015532,4.87377358 C11.3475638,4.40160377 12.3889255,4.07832075 13.3617766,3.8595283 L12.7446915,4.56496226 C12.5807553,4.46169811 12.3886809,4.40356604 12.1880426,4.40356604 C12.114883,4.40356604 12.0405,4.41116981 11.966117,4.42735849 C11.6105957,4.50462264 11.3365532,4.75530189 11.2127447,5.07171698 L11.2127447,5.07171698 Z M15.4462128,1.47660377 C14.2181596,0.974264151 12.8770638,0.693415094 11.4713723,0.683113208 L11.4713723,0.377981132 L8.68176596,0.377981132 C9.54964894,0.165566038 10.4569255,0.0527358491 11.3901383,0.0527358491 C12.9859468,0.0527358491 14.5049255,0.382150943 15.8832128,0.976962264 L15.4462128,1.47660377 L15.4462128,1.47660377 Z" id="path-12"></path>
        <linearGradient x1="-149.877382%" y1="-83.5641613%" x2="136.840124%" y2="-83.5641613%" id="linearGradient-14">
            <stop stop-color="#F8F8F8" offset="0%"></stop>
            <stop stop-color="#EBEEF8" offset="100%"></stop>
        </linearGradient>
        <path d="M2.33328,12.9989804 L0.25968,12.9989804 C0.18888,12.474902 0.15216,11.939098 0.15216,11.3943725 C0.15216,10.7063922 0.21072,10.0326863 0.32256,9.37911765 L4.96584,4.72588235 C5.14896,4.89258824 5.38536,4.98970588 5.63448,4.98970588 C5.70624,4.98970588 5.7792,4.98180392 5.85216,4.96498039 C6.22872,4.87856863 6.51216,4.58160784 6.61728,4.21531373 L9.14328,4.7967451 C7.98504,5.40647059 6.83208,6.22292157 5.77152,7.31313725 L4.76976,7.31313725 L4.76976,8.03705882 L5.11632,8.03705882 C4.02528,9.33247059 3.06168,10.9587451 2.33328,12.9989804 M0.4392,8.78876471 C1.3272,4.83243137 4.19232,1.69076471 7.86432,0.607176471 L10.77192,0.607176471 L10.77192,0.200098039 C12.15072,0.210803922 13.46616,0.502666667 14.67072,1.02470588 L12.62616,3.50107843 C11.67192,3.72845098 10.65048,4.06441176 9.62448,4.55509804 L6.66144,3.87323529 C6.66,3.80543137 6.65232,3.73686275 6.6384,3.66829412 C6.53424,3.15798039 6.10776,2.8082549 5.63496,2.8082549 C5.5632,2.8082549 5.49048,2.81641176 5.41752,2.83323529 C4.86408,2.96043137 4.51128,3.54211765 4.63128,4.12992157 C4.656,4.2507451 4.69872,4.36264706 4.75584,4.46307843 L0.4392,8.78876471 M13.15368,3.38458824 L14.9844,1.16694118 C16.0164,1.65635294 16.9608,2.31654902 17.78544,3.11388235 C17.78544,3.11388235 17.29056,3.04888235 16.47048,3.04888235 C15.63984,3.04888235 14.4756,3.11566667 13.15368,3.38458824" id="path-15"></path>
        <linearGradient x1="-193.152493%" y1="-92.95971%" x2="169.661912%" y2="-92.95971%" id="linearGradient-17">
            <stop stop-color="#D5DCE8" offset="0%"></stop>
            <stop stop-color="#CDD4E8" offset="100%"></stop>
        </linearGradient>
        <path d="M10.7855,5.51458696 C10.7855,5.66691304 10.7790435,5.81732609 10.7666087,5.96654348 C10.7405435,6.28530435 10.6860217,6.59641304 10.6061522,6.897 C10.2022609,8.42456522 9.14315217,9.6855 7.74854348,10.3624783 C7.03880435,10.7068261 6.24202174,10.9000435 5.40028261,10.9000435 C5.0741087,10.9000435 4.75486957,10.8708696 4.44519565,10.8151522 C3.06397826,10.5683696 1.86545652,9.79478261 1.06508696,8.70984783 C0.499304348,7.9443913 0.13223913,7.0235 0.0389782609,6.02297826 C0.0227173913,5.85558696 0.0150652174,5.68628261 0.0150652174,5.51458696 C0.0150652174,3.77443478 0.840304348,2.2275 2.12036957,1.24371739 C3.02858696,0.54426087 4.1658913,0.129608696 5.40028261,0.129608696 C6.89604348,0.129608696 8.24952174,0.739391304 9.22565217,1.72436957 L9.22565217,1.7246087 C10.1900652,2.69763043 10.7855,4.03652174 10.7855,5.51458696" id="path-18"></path>
    </defs>
    <g id="Home-Page-V2" stroke="none" stroke-width="1" fill="none" fill-rule="evenodd">
        <g id="Home-Page" transform="translate(-200.000000, -990.000000)">
            <g id="Group-19" transform="translate(200.000000, 990.000000)">
                <polygon id="Fill-357" fill="#414040" points="44 63 52 63 52 39 44 39"></polygon>
                <path d="M16.6111015,51 L80.388653,51 C82.3832281,51 84,49.4180688 84,47.4670124 L84,5.53274747 C84,3.58169102 82.3832281,2 80.388653,2 L16.6111015,2 C14.6167719,2 13,3.58169102 13,5.53274747 L13,47.4670124 C13,49.4180688 14.6167719,51 16.6111015,51" id="Fill-358" fill="#414040"></path>
                <g id="Group-361" transform="translate(16.000000, 6.000000)">
                    <mask id="mask-2" fill="white">
                        <use xlink:href="#path-1"></use>
                    </mask>
                    <g id="Clip-360"></g>
                    <path d="M64.5229301,37.650322 L56.1400368,37.650322 C56.207245,37.2526735 56.2422996,36.8463301 56.2422996,36.4339968 C56.2422996,32.8302347 53.587334,29.7224706 49.7552578,28.2916703 L51.4782536,26.7213644 L56.385661,26.9427955 L60.2975167,22.6301062 L60.0330355,22.4768821 L56.2258602,26.6740253 L51.3375515,26.4535603 L49.4433924,28.1799886 C48.0815802,27.7114281 46.5807582,27.4519325 45.0040248,27.4519325 C44.081967,27.4519325 43.1855353,27.540814 42.3280264,27.7081433 L41.5183851,27.7081433 L41.5183851,27.892476 C37.0178533,29.0647469 33.76575,32.4457253 33.76575,36.4339968 C33.76575,36.8463301 33.8008046,37.2526735 33.8680128,37.650322 L0.0784856879,37.650322 L0.0784856879,0.209145531 L64.5229301,0.209145531 L64.5229301,37.650322" id="Fill-359" fill="url(#linearGradient-3)" mask="url(#mask-2)"></path>
                </g>
                <path d="M46,47.499732 C46,48.880493 47.119359,50 48.5,50 C49.880641,50 51,48.880493 51,47.499732 C51,46.119239 49.880641,45 48.5,45 C47.119359,45 46,46.119239 46,47.499732" id="Fill-364" fill="#949494"></path>
                <polygon id="Fill-365" fill="#414040" points="30 65 67 65 67 63 30 63"></polygon>
                <g id="Group-369" transform="translate(0.000000, 23.000000)">
                    <mask id="mask-5" fill="white">
                        <use xlink:href="#path-4"></use>
                    </mask>
                    <g id="Clip-368"></g>
                    <path d="M4.93428571,9.35243902 C-0.000952380952,6.77097561 0.716428571,1.81804878 0.716428571,1.81804878 C3.95809524,1.81804878 4.93428571,0.735609756 4.93428571,0.735609756 C4.93428571,0.735609756 5.91047619,1.81804878 9.15214286,1.81804878 C9.15214286,1.81804878 9.8697619,6.77097561 4.93428571,9.35243902 Z M9.75571429,1.35634146 C6.0502381,1.35634146 4.93428571,0.11902439 4.93428571,0.11902439 C4.93428571,0.11902439 3.81857143,1.35634146 0.112857143,1.35634146 C0.112857143,1.35634146 -0.707380952,7.01829268 4.93428571,9.96902439 C10.5759524,7.01829268 9.75571429,1.35634146 9.75571429,1.35634146 L9.75571429,1.35634146 Z" id="Fill-367" fill="#1C75BB" mask="url(#mask-5)"></path>
                </g>
                <g id="Group-372" transform="translate(1.000000, 24.000000)">
                    <mask id="mask-7" fill="white">
                        <use xlink:href="#path-6"></use>
                    </mask>
                    <g id="Clip-371"></g>
                    <path d="M3.87173333,0.07675 L3.87173333,6.76325 C-0.313066667,4.76025 0.295466667,0.91675 0.295466667,0.91675 C3.044,0.91675 3.87173333,0.07675 3.87173333,0.07675" id="Fill-370" fill="#1C75BB" mask="url(#mask-7)"></path>
                </g>
                <path d="M93.5556398,25.4804613 L98.4445996,25.4804613 L98.4445996,24.8064047 C98.4445996,23.5454037 97.3479232,22.5197626 96.0001197,22.5197626 C94.6520768,22.5197626 93.5556398,23.5454037 93.5556398,24.8064047 L93.5556398,25.4804613 Z M99,26 L93,26 L93,24.8064047 C93,23.2589856 94.3458884,22 96.0001197,22 C97.654351,22 99,23.2589856 99,24.8064047 L99,26 L99,26 Z" id="Fill-373" fill="#0280DA"></path>
                <g id="Group-376" transform="translate(92.000000, 25.000000)">
                    <mask id="mask-9" fill="white">
                        <use xlink:href="#path-8"></use>
                    </mask>
                    <g id="Clip-375"></g>
                    <path d="M4.4015,4.14725 L4.4015,6.007 L3.802,6.007 L3.802,4.14725 C3.32825,4.016 2.97975,3.583 2.97975,3.0675 C2.97975,2.448 3.482,1.94575 4.10175,1.94575 C4.721,1.94575 5.22325,2.448 5.22325,3.0675 C5.22325,3.583 4.875,4.016 4.4015,4.14725 Z M6.904,0.1085 L1.29925,0.1085 C0.71075,0.1085 0.23375,0.5855 0.23375,1.174 L0.23375,6.779 C0.23375,7.36725 0.71075,7.84425 1.29925,7.84425 L6.904,7.84425 C7.49225,7.84425 7.96925,7.36725 7.96925,6.779 L7.96925,1.174 C7.96925,0.5855 7.49225,0.1085 6.904,0.1085 L6.904,0.1085 Z" id="Fill-374" fill="#0280DA" mask="url(#mask-9)"></path>
                </g>
                <polygon id="Fill-385" fill="#E0E0E0" points="18 42 20 42 20 29 18 29"></polygon>
                <polygon id="Fill-386" fill="#E0E0E0" points="23 42 25 42 25 26 23 26"></polygon>
                <polygon id="Fill-387" fill="#E0E0E0" points="29 41 31 41 31 32 29 32"></polygon>
                <polygon id="Fill-388" fill="#E0E0E0" points="33 41 35 41 35 27 33 27"></polygon>
                <polygon id="Fill-389" fill="#E0E0E0" points="38 42 40 42 40 24 38 24"></polygon>
                <polygon id="Fill-390" fill="#E0E0E0" points="43 42 45 42 45 30 43 30"></polygon>
                <polygon id="Fill-391" fill="#4AAFFF" points="18 42 20 42 20 33 18 33"></polygon>
                <polygon id="Fill-392" fill="#4AAFFF" points="23 42 25 42 25 30 23 30"></polygon>
                <polygon id="Fill-393" fill="#4AAFFF" points="29 42 31 42 31 35 29 35"></polygon>
                <polygon id="Fill-394" fill="#4AAFFF" points="33 42 35 42 35 32 33 32"></polygon>
                <polygon id="Fill-395" fill="#4AAFFF" points="38 41 40 41 40 28 38 28"></polygon>
                <polygon id="Fill-396" fill="#4AAFFF" points="43 42 45 42 45 33 43 33"></polygon>
                <path d="M8.38087208,48.1670119 C8.38087208,48.1670119 8.52948409,48.3996262 8.54782112,48.5891154 C8.56260021,48.7393999 8.69479101,48.9636506 8.75199159,49.0875373 C8.80946585,49.2114241 8.99338348,49.7723121 8.99995197,49.9181534 C9.00296252,49.9780059 8.86338218,50.3541093 8.88308764,50.4743369 C8.9027931,50.5945645 8.97477277,50.8329289 8.86174005,50.8488721 C8.74870734,50.864554 8.62034816,50.6693148 8.62034816,50.6693148 C8.62034816,50.6693148 8.63129564,50.7801333 8.53550521,50.822213 C8.34912439,50.9048041 8.25059709,50.8321448 8.25059709,50.8321448 C8.25059709,50.8321448 8.18217535,50.9539406 8.09596396,50.9704066 C7.90575152,51.0064749 7.81269796,50.9338156 7.81269796,50.9338156 C7.81269796,50.9338156 7.72922344,51.002293 7.5978537,50.9999408 C7.42980991,50.996543 7.35919868,50.8580199 7.35919868,50.8580199 C7.35919868,50.8580199 7.14654391,50.8993155 7.08496435,50.8044402 C7.0231111,50.7098263 7.03378489,50.6086782 7.008332,50.5226893 C6.98260543,50.4369618 7.0020372,49.6612322 7.27791365,49.1029578 C7.5537901,48.5446834 7.2075761,48 7.2075761,48 L8.38087208,48.1670119" id="Fill-397" fill="#EEA886"></path>
                <path d="M8.99938529,50.4314063 C8.99938529,50.4314063 9.02210664,49.4601387 8.79127094,49.2532609 C8.56043525,49.046383 8.53442095,49.3970172 8.53442095,49.3970172 C8.53442095,49.3970172 8.56570396,49.0503965 8.3134641,49.003694 C8.06122424,48.9569914 8.0506868,49.3685578 8.0506868,49.3685578 C8.0506868,49.3685578 8.00952495,49.1014775 7.74444258,49.1562071 C7.47968952,49.2109366 7.54291413,49.5520844 7.54291413,49.5520844 C7.54291413,49.5520844 7.29001568,49.2178691 7.12569754,49.5389493 C6.84876057,50.081137 7.1158187,50.7214731 7.1158187,50.7214731 C7.1158187,50.7214731 7.19386158,50.8681484 7.44577215,50.7962702 C7.44577215,50.7962702 7.61437112,51.1728097 7.99141373,50.9020807 C7.99141373,50.9020807 8.3776766,51.1377828 8.5182855,50.7601487 C8.5182855,50.7601487 8.94406376,50.9845399 8.99938529,50.4314063" id="Fill-398" fill="#DB9C7C"></path>
                <path d="M9.92651596,38.5607338 C9.92651596,38.5607338 8.96997219,42.3717471 8.64671623,43.7777325 C8.54533141,44.2182947 8.29995075,48.4289752 8.25671002,48.5983257 C8.21325938,48.7679271 7,49 7,49 C7,49 7.14693453,43.7328233 7.16057845,43.4455547 C7.17443227,43.1582861 8.4995718,37.2761789 8.88496007,37.0666861 C9.17358147,36.9093783 9.32618347,37.0393391 9.68995138,37.3622341 C10.2006538,37.8153407 9.92651596,38.5607338 9.92651596,38.5607338" id="Fill-399" fill="#E52998"></path>
                <path d="M16.6874503,40 L17,39.8852786 C17,39.8852786 16.6102414,38.9782952 16.4404351,39.0003975 C16.2443619,39.0259204 16,39.0898592 16,39.0898592 L16.6874503,40" id="Fill-400" fill="#EAD8CF"></path>
                <path d="M17,40.5345828 C16.9598938,40.4970974 16.3351926,39 16.3351926,39 L15,39.2265716 L15.7213811,41 L17,40.5345828" id="Fill-401" fill="#DA9B5B"></path>
                <path d="M10,64.0970073 C10,64.0970073 9.8479575,64.8495664 9.82890639,64.9628156 C9.80985528,65.0755429 8.13555596,64.8960143 8.13555596,64.8960143 L8,64.0001975 C8,64.0001975 9.79080418,63.9910645 10,64.0970073" id="Fill-402" fill="#424773"></path>
                <path d="M9.26159809,64.0520818 C9.26159809,64.0520818 9.57880769,64.5139093 9.88593323,64.715062 C10.1928395,64.9164805 10.6753401,64.9959318 10.8568533,65.2045248 C10.9879461,65.3546586 11.3340926,66.0019612 10.0591161,65.9892064 C8.78413954,65.9759202 8.16945003,66.0803496 8.03287672,65.8324295 C7.89608419,65.583978 8.23039286,64 8.23039286,64 C8.23039286,64 8.53247636,64.1317989 9.26159809,64.0520818" id="Fill-403" fill="#292C47"></path>
                <path d="M18,64.0970073 C18,64.0970073 17.8475911,64.8495664 17.82854,64.9628156 C17.8094889,65.0755429 16.135556,64.8960143 16.135556,64.8960143 L16,64.0001975 C16,64.0001975 17.7908042,63.9910645 18,64.0970073" id="Fill-404" fill="#424773"></path>
                <path d="M17.4060016,64.0522667 C17.4060016,64.0522667 17.7597899,64.5157332 18.1018504,64.7175998 C18.4439109,64.9197331 19.7031821,65.0855997 19.9054865,65.2946663 C20.0515952,65.445333 20.2944581,66.0530662 18.2948702,65.9962662 C16.8743419,65.9557328 16.188755,66.0877328 16.0365381,65.8389329 C15.8843211,65.5895996 16.2569227,64 16.2569227,64 C16.2569227,64 16.5740617,64.1413333 17.4060016,64.0522667" id="Fill-405" fill="#292C47"></path>
                <path d="M10.4354465,46 C10.4354465,46 9.38542446,47.6031647 9.46369305,49.0521698 C9.54220623,50.50141 9.08286744,52.0834247 8.92510731,53.5972897 C8.74924757,55.285054 8.02942113,59.2800407 8.00325007,60.1829077 C7.9773236,61.0857747 8.1150274,63.9685101 8.1150274,63.9685101 L9.55590323,64 C9.55590323,64 10.7658867,57.0153533 11.0794503,56.3026007 C11.3927692,55.589848 12.9468899,50.50893 12.999232,49.9388219 C13.0513296,49.3687138 10.4354465,46 10.4354465,46" id="Fill-406" fill="#292C47"></path>
                <path d="M15.207238,46.5129678 C15.207238,46.5129678 16.0186433,50.6422074 16.1254269,51.5639694 C16.2327119,52.48622 16.303901,56.0264407 16.3575435,56.6025114 C16.411186,57.1788264 16.8576218,64.1266104 17,65 L15.1122356,65 C15.1122356,65 13.6631365,59.9367832 13.6631365,57.5411304 C13.6631365,55.1457219 12.5434122,52.3330409 11.8209933,50.7523889 C11.0983237,49.1717369 9.44417985,49.1343583 9,46.2017235 C9,46.2017235 14.6058906,45.5828995 15.207238,46.5129678" id="Fill-407" fill="#292C47"></path>
                <path d="M11.7801218,32.1204479 C11.7801218,32.1204479 13.0266909,31.6293203 13.6013152,32.6305177 C14.1759394,33.6317152 14.1205748,35.636164 13.4923161,35.8826407 C12.8642736,36.1291174 11.9202635,36.0001735 11.5986729,35.373712 C11.2770823,34.7472504 10.9866343,33.8414486 11.0004755,33.2362114 C11.0145329,32.6309742 11.4529082,32.2952638 11.7801218,32.1204479" id="Fill-408" fill="#EEA886"></path>
                <path d="M13.9638212,36.2752263 C13.9638212,36.2752263 13.9129077,36.6379628 13.9969149,36.8165336 C14.0811342,36.9953376 12.4130826,37 12.4130826,37 C12.4130826,37 12.2775255,36.0278847 12.0208369,35.2068319 C11.7641483,34.385546 13.9638212,36.2752263 13.9638212,36.2752263" id="Fill-409" fill="#EEA886"></path>
                <path d="M11.472061,34.864691 C11.472061,34.864691 11.587563,35.0575455 12.0587177,34.9827739 C12.5298724,34.9080024 13.10483,34.2727678 13.3015876,34.2031678 C13.4983452,34.1333523 13.5002596,34.0161313 13.5002596,34.0161313 L13.6234192,34.1986427 L13.8323013,34.2120025 C13.8323013,34.2120025 13.6417123,33.6439976 13.9292975,33.4121412 C14.2166699,33.1805004 13.6308641,31.5732361 12.1197657,32.1084881 C12.1197657,32.1084881 10.9590022,32.4325698 11.001119,33.1012038 C11.0434485,33.7700533 11.2123409,34.5317746 11.472061,34.864691" id="Fill-410" fill="#323657"></path>
                <path d="M14,36.9148935 C14,36.9148935 13.9943381,36.2925069 13.8439588,36.2330297 C13.6935794,36.1735524 12.1845771,35.9016566 12,36.0376045 L12,36.7623769 C12,36.7623769 12.3555656,37.1727698 14,36.9148935" id="Fill-411" fill="#E2D2CA"></path>
                <path d="M13.9224065,34.264348 C13.8667395,34.142795 13.277559,33.7952001 13.0517733,34.1671056 C12.8259876,34.5394785 13.3929012,35.0404172 13.7090903,34.9974061 C14.024834,34.9548626 14.0626876,34.5729056 13.9224065,34.264348" id="Fill-412" fill="#EEA886"></path>
                <polyline id="Fill-413" fill="#323657" points="20.001345 41.0001201 19.998655 40.9998799 20.001345 41.0001201"></polyline>
                <path d="M12,32 C12,32 9.79589851,32.1488994 11.9322092,35 L12,32" id="Fill-414" fill="#323657"></path>
                <path d="M23.7883212,32.8036385 C23.7273201,32.6575908 23.5211157,32.6149273 23.5211157,32.6149273 C23.4350886,32.516107 23.214025,32.464514 23.214025,32.464514 L23.2009906,32.4446706 C23.3368092,32.3335473 23.7320125,32.1257864 23.7546924,32.0864963 C23.782586,32.0386736 23.7758081,32.0333159 23.6991658,32.0015664 C23.6350365,31.9749762 22.9908759,32.2942572 22.7758081,32.402404 C22.7228884,32.4278036 22.6801356,32.4514173 22.6715328,32.4567751 C22.6120959,32.4950729 22.491658,32.5228537 22.3902503,32.6040134 L22.3579249,32.6323896 C22.2513034,32.7361708 22,33.5676113 22,33.5676113 L22.4486444,33.7206043 L22.8808655,34 C22.8808655,34 23.3855579,33.6819095 23.5151199,33.5818986 C23.644682,33.4818876 23.7038582,33.3654065 23.7395725,33.3161948 C23.7481752,33.3044872 23.7638165,33.2874218 23.7823253,33.2681736 C23.8409802,33.2078496 23.9298749,33.1268883 23.9298749,33.1268883 C23.9739312,33.0800578 24,32.9629814 24,32.9629814 C23.9911366,32.8649548 23.7883212,32.8036385 23.7883212,32.8036385" id="Fill-415" fill="#EFAA88"></path>
                <path d="M17.1099562,37.7177343 C15.9622285,37.5707789 14.341242,37.1762941 14.341242,37.1762941 L12.1229046,37.0884138 C12.1229046,37.0884138 10.0869376,37.5239094 9.28511074,37.8761629 C9.20899748,37.909118 9.20874628,39.6410918 9,40.0951399 L9.66467227,41.4580165 C9.66467227,41.4580165 10.0487554,44.1578939 10.1283854,45.3584362 C10.1650605,45.9096408 9.33635532,50.5272611 9.33635532,50.5272611 C9.33635532,50.5272611 10.2243434,50.7811375 11.7383191,50.9434719 C13.2522948,51.1055622 17.0353502,50.8848851 17.0589629,50.7110774 C17.0828267,50.5372697 16.3264669,44.2401596 16.2928062,43.9140262 C16.2415617,43.4135968 16.4704038,40.7539978 16.4704038,40.7539978 C16.8200727,40.490357 19.8892208,39.1059985 20.7267179,38.3846479 C20.9505361,38.1915554 21.8965511,37.2963972 22.1653339,36.9873515 C23.1173777,35.8932421 23.8978527,34.954876 23.9928059,34.7525072 C24.1008214,34.6372864 22.9583688,34.0338418 22.8548749,34.0003985 C22.7641921,33.970861 21.477049,35.5915198 20.9816847,36.1129427 C20.7608809,36.3453373 19.842749,36.9944308 19.842749,36.9944308 C19.842749,36.9944308 17.8278827,37.7577686 17.1099562,37.7177343" id="Fill-416" fill="#E52998"></path>
                <path d="M35.7634026,20 L18.2365974,20 C18.1059428,20 18,20.1597197 18,20.3566949 L18,21.6433051 C18,21.8402803 18.1059428,22 18.2365974,22 L35.7634026,22 C35.8940572,22 36,21.8402803 36,21.6433051 L36,20.3566949 C36,20.1597197 35.8940572,20 35.7634026,20" id="Fill-417" fill="#E0E0E0"></path>
                <path d="M28.7525219,17 L17.2474781,17 C17.1108149,17 17,17.1597491 17,17.3567607 L17,18.6432393 C17,18.8406198 17.1108149,19 17.2474781,19 L28.7525219,19 C28.8891851,19 29,18.8406198 29,18.6432393 L29,17.3567607 C29,17.1597491 28.8891851,17 28.7525219,17" id="Fill-418" fill="#E0E0E0"></path>
                <path d="M31.7691638,15 L18.2310752,15 C18.1034701,15 18,15.1597491 18,15.3567607 L18,16.6432393 C18,16.8402509 18.1034701,17 18.2310752,17 L31.7691638,17 C31.8967689,17 32,16.8402509 32,16.6432393 L32,15.3567607 C32,15.1597491 31.8967689,15 31.7691638,15" id="Fill-419" fill="#E0E0E0"></path>
                <path d="M38.7644504,12 L18.2357934,12 C18.1055828,12 18,12.1597491 18,12.3567607 L18,13.6432393 C18,13.8406198 18.1055828,14 18.2357934,14 L38.7644504,14 C38.8944172,14 39,13.8406198 39,13.6432393 L39,12.3567607 C39,12.1597491 38.8944172,12 38.7644504,12" id="Fill-420" fill="#E0E0E0"></path>
                <path d="M25.7531431,10 L18.2468569,10 C18.1105367,10 18,10.1597491 18,10.3567607 L18,11.6432393 C18,11.8402509 18.1105367,12 18.2468569,12 L25.7531431,12 C25.8894633,12 26,11.8402509 26,11.6432393 L26,10.3567607 C26,10.1597491 25.8894633,10 25.7531431,10" id="Fill-421" fill="#E0E0E0"></path>
                <path d="M67.8598047,7 L67,5.53264507 C67.1749854,5.47627778 67.3542914,5.4235212 67.5365678,5.37517772 C69.3687835,4.88853342 71.27607,4.89094057 73,5.29193066 L72.3578469,6.8192636 C71.0657095,6.51877177 69.6355822,6.51676582 68.262163,6.88164875 C68.1252532,6.9181571 67.9910437,6.95767438 67.8598047,7" id="Fill-424" fill="#2273B5"></path>
                <path d="M66,6.89689599 C66.4203994,6.53585043 66.8985429,6.2318025 67.4272351,6 L68,7.32782719 C67.6035258,7.50117989 67.2450081,7.72953349 66.9298435,8 L66,6.89689599" id="Fill-425" fill="#5CAEF2"></path>
                <path d="M58.5266471,11 L53.4733529,11 C53.2117779,11 53,10.8346422 53,10.6308901 L53,10.3688918 C53,10.1651396 53.2117779,10 53.4733529,10 L58.5266471,10 C58.7879424,10 59,10.1651396 59,10.3688918 L59,10.6308901 C59,10.8346422 58.7879424,11 58.5266471,11" id="Fill-426" fill="#78C2FF"></path>
                <path d="M53.5266471,17 L48.4733529,17 C48.2120576,17 48,16.8346422 48,16.6311082 L48,16.3691099 C48,16.1653578 48.2120576,16 48.4733529,16 L53.5266471,16 C53.7879424,16 54,16.1653578 54,16.3691099 L54,16.6311082 C54,16.8346422 53.7879424,17 53.5266471,17" id="Fill-427" fill="#4AAFFF"></path>
                <path d="M58.5269048,21 L53.4730952,21 C53.2117877,21 53,20.8346422 53,20.6308901 L53,20.3688918 C53,20.1651396 53.2117877,20 53.4730952,20 L58.5269048,20 C58.7879325,20 59,20.1651396 59,20.3688918 L59,20.6308901 C59,20.8346422 58.7879325,21 58.5269048,21" id="Fill-428" fill="#2273B5"></path>
                <path d="M68.5266471,25 L63.4733529,25 C63.2117779,25 63,24.8346422 63,24.6308901 L63,24.3688918 C63,24.1653578 63.2117779,24 63.4733529,24 L68.5266471,24 C68.7879424,24 69,24.1653578 69,24.3688918 L69,24.6308901 C69,24.8346422 68.7879424,25 68.5266471,25" id="Fill-429" fill="#1A598C"></path>
                <polyline id="Fill-430" fill="#4AAFFF" points="50.230682 40 50 39.7596488 55.967871 34.2212908 62.0079078 35.5084671 67.7771982 29.0373407 72.8089032 29.3166083 76.7277604 24 77 24.1940922 72.9733917 29.6570651 67.9220276 29.3765737 62.1300922 35.87291 56.0698986 34.5813281 50.230682 40"></polyline>
                <path d="M62.977155,35.7883691 C63.0939752,36.328095 62.7512842,36.8603285 62.2115805,36.9771534 C61.6718768,37.0939784 61.1396652,36.7512733 61.022845,36.211825 C60.9060248,35.6718216 61.2487158,35.1395881 61.7884195,35.0227631 C62.3281232,34.9062156 62.8603348,35.2486432 62.977155,35.7883691" id="Fill-431" fill="#FFFFFF"></path>
                <path d="M61.8552277,35.3314976 C61.4864613,35.4111806 61.2516006,35.77618 61.3315234,36.1446846 C61.4112124,36.5131892 61.776006,36.7482656 62.1447723,36.668349 C62.5135387,36.588666 62.7483994,36.2239002 62.6684766,35.855162 C62.5887876,35.4866574 62.223994,35.2515809 61.8552277,35.3314976 M62.2116083,36.9772666 C61.672714,37.0938701 61.1394284,36.7503687 61.0228159,36.2115155 C60.9059698,35.6728959 61.2494974,35.1394172 61.7883917,35.0228137 C62.327286,34.9059764 62.8605716,35.2494778 62.9771841,35.7885648 C63.0940302,36.3271843 62.7505026,36.8604294 62.2116083,36.9772666" id="Fill-432" fill="#4AAFFF"></path>
                <path d="M68.9771549,29.7884247 C69.0939758,30.3278545 68.7512826,30.8600697 68.2115755,30.9771681 C67.6721459,31.0939891 67.1399309,30.7510183 67.0228325,30.211311 C66.9060116,29.6718813 67.2489823,29.1396661 67.7884119,29.0228451 C68.328119,28.9060242 68.860334,29.2487175 68.9771549,29.7884247" id="Fill-433" fill="#FFFFFF"></path>
                <path d="M67.8552115,28.3313118 C67.4864175,28.4112373 67.2515392,28.7760436 67.3312343,29.1445891 C67.411163,29.513602 67.7762176,29.7482371 68.1447779,29.668779 C68.5135719,29.5888535 68.7484502,29.2238135 68.6687552,28.8550343 C68.5888264,28.4864888 68.2240055,28.2513863 67.8552115,28.3313118 Z M68.2116189,29.9772635 C67.6726842,30.09388 67.1393586,29.7503405 67.0227374,29.2116611 C66.9061162,28.672748 67.2496696,28.1394438 67.7883705,28.0228273 C68.3273052,27.9059771 68.8606309,28.249283 68.977252,28.7884297 C69.0938732,29.3273428 68.7505536,29.8604133 68.2116189,29.9772635 L68.2116189,29.9772635 Z" id="Fill-434" fill="#4AAFFF"></path>
                <path d="M72.977155,29.7883691 C73.0939752,30.328095 72.7512842,30.8603285 72.2115805,30.9771534 C71.6718768,31.0939784 71.1396652,30.7512733 71.022845,30.211825 C70.9060248,29.6718216 71.2487158,29.1395881 71.7884195,29.0227631 C72.3281232,28.9062156 72.8603348,29.2486432 72.977155,29.7883691" id="Fill-435" fill="#FFFFFF"></path>
                <path d="M72.8551817,29.3314976 C72.4866343,29.4111806 72.2515305,29.77618 72.3314564,30.1446846 C72.4111487,30.5134228 72.7759569,30.7482656 73.144738,30.668349 C73.5135192,30.588666 73.7483893,30.2239002 73.668697,29.855162 C73.5887711,29.4866574 73.2239629,29.2515809 72.8551817,29.3314976 Z M73.2115767,30.9772666 C72.6728945,31.0938701 72.1393537,30.7503687 72.0227366,30.2115155 C71.9061195,29.6728959 72.2496609,29.1394172 72.7883431,29.0228137 C73.327259,28.9059764 73.8605661,29.2494778 73.9771832,29.7885648 C74.094034,30.3271843 73.7504926,30.8604294 73.2115767,30.9772666 L73.2115767,30.9772666 Z" id="Fill-436" fill="#4AAFFF"></path>
                <path d="M56.977155,34.7884245 C57.0939752,35.3281316 56.7512842,35.8603466 56.2115805,35.9771675 C55.6718768,36.0939884 55.1396652,35.7510177 55.022845,35.2115881 C54.9060248,34.671881 55.2487158,34.139666 55.7884195,34.0228451 C56.3281232,33.9060242 56.8603348,34.2487174 56.977155,34.7884245" id="Fill-437" fill="#FFFFFF"></path>
                <path d="M55.8552575,34.3312343 C55.4864783,34.411163 55.2516094,34.7759839 55.3313012,35.1450116 C55.4112267,35.5135719 55.776033,35.7486839 56.1448122,35.6687552 C56.5133577,35.5888264 56.7484603,35.2237718 56.6685348,34.8552115 C56.5888429,34.4864175 56.2238029,34.2515392 55.8552575,34.3312343 M56.2116505,35.977252 C55.6727375,36.0938732 55.1394332,35.7505536 55.0228167,35.2116189 C54.9059665,34.6726842 55.2495061,34.1393586 55.7884191,34.0227374 C56.3270985,33.9061162 56.8606365,34.2496696 56.9772529,34.7883705 C57.0938694,35.3273052 56.7505636,35.8606309 56.2116505,35.977252" id="Fill-438" fill="#4AAFFF"></path>
                <polygon id="Fill-439" fill="#E0E0E0" points="55 39 59 39 59 38 55 38"></polygon>
                <polygon id="Fill-440" fill="#E0E0E0" points="57 32 61 32 61 31 57 31"></polygon>
                <polygon id="Fill-441" fill="#E0E0E0" points="65 37 69 37 69 36 65 36"></polygon>
                <polygon id="Fill-442" fill="#E0E0E0" points="68 27 72 27 72 26 68 26"></polygon>
                <polygon id="Fill-443" fill="#E0E0E0" points="73 33 77 33 77 32 73 32"></polygon>
                <path d="M87.5263051,40.9802104 C87.5263051,40.9802104 86.2123214,37.7481051 87.7367252,38.01575 C87.7367252,38.01575 88.2556814,38.4815826 88.788345,39.4304815 C89.1913898,40.1493364 90.0301846,42.0513121 89.9991626,42.6949653 C89.9681407,43.3378351 89.5468194,43.817768 89.0915905,44.8510077 C89.0915905,44.8510077 88.1455415,46.7689115 88.1058623,47 L87.1057053,46.4362486 C87.1057053,46.4362486 87.9529169,44.6024244 88.5500291,42.9905496 L87.5263051,40.9802104" id="Fill-444" fill="#275070"></path>
                <g id="Group-447" transform="translate(74.000000, 43.000000)">
                    <mask id="mask-11" fill="white">
                        <use xlink:href="#path-10"></use>
                    </mask>
                    <g id="Clip-446"></g>
                    <polyline id="Fill-445" fill="#F6931D" mask="url(#mask-11)" points="20.2360345 6.79606667 0.0292068966 3.47036667 0.614068966 0.149333333 20.8211379 3.47526667 20.2360345 6.79606667"></polyline>
                </g>
                <polyline id="Fill-448" fill="#2D3038" points="74.417208 46 73 45.8023346 73.582792 43 75 43.1976654 74.417208 46"></polyline>
                <path d="M79.6917813,65.9487148 L79.4391074,65.9487148 C79.4391074,65.9487148 79.5233321,65.0002436 79.2897556,64.9909855 C79.0561791,64.9817273 78.4766451,65.7628212 78.1306875,65.8839079 C77.7849747,66.0047508 76.0094018,66.1068339 76.0000979,65.7813375 C75.9905492,65.4560847 76.6822195,65.32574 76.8971882,65.2329151 C77.1121569,65.1398465 78.1588439,64.1260811 78.345901,64.0052381 C78.5327132,63.8841515 78.8514937,63.0438543 78.8514937,63.0438543 L79.8428471,63 C79.8428471,63 79.8989152,63.785723 79.9589008,64.201608 C79.981426,64.3553417 79.9975853,64.4956755 79.9997889,64.5911804 C80.0093376,64.9444512 79.6917813,65.9487148 79.6917813,65.9487148" id="Fill-449" fill="#EEA886"></path>
                <path d="M85.7637116,65.9467216 L85.5775276,65.9467216 L85.5775276,65.0431833 C85.4223382,65.0578932 84.9010664,65.6255965 84.7398081,65.7898988 C84.5785498,65.9539519 84.3570364,65.9467216 83.6775408,65.9963364 C82.9982619,66.0459512 82.9341054,65.5779762 83.0416109,65.4189096 C83.1491164,65.2595937 83.4967754,65.1900332 83.6775408,65.0905542 C83.8585229,64.9908259 84.5722642,64.0650981 84.7625663,63.8461945 C84.9526517,63.6270416 85.068827,63 85.068827,63 L85.8629808,63.0795333 C85.8629808,63.0795333 85.8577789,63.6534696 85.9481616,64.1346586 L85.9481616,64.1349079 L85.9490286,64.1386477 C85.9566146,64.1797856 85.9650677,64.2199263 85.9743877,64.2590696 C86.0925138,64.7594563 85.7637116,65.9467216 85.7637116,65.9467216" id="Fill-450" fill="#EEA886"></path>
                <path d="M82.2289143,46.6374796 C82.2289143,46.6374796 81.8854995,47.4312139 81.8549793,47.631647 C81.8247072,47.8320801 81.0202631,49.7314682 80.7875153,51.0118647 C80.6483132,51.7784545 80.2637086,54.1783194 80.2326921,54.4832103 C80.1793437,55.0054996 79.9274897,56.1581716 79.8887811,56.6913671 C79.8671936,56.9892296 78.3637616,61.5657443 78,63.9551876 C78,63.9551876 78.864492,64.0802462 79.5138535,63.9125319 C79.5138535,63.9125319 80.833916,61.4431093 81.5666499,57.940499 C82.0080768,55.8309833 82.3983885,54.706183 82.7403144,53.8373166 C83.0822404,52.9684501 85.0189109,50.5077525 85.2211385,50.2312179 C85.423118,49.9549256 86.6895839,48.4270779 85.4903618,46.7722327 C84.2911396,45.1171451 82.2289143,46.6374796 82.2289143,46.6374796" id="Fill-451" fill="#1D3B54"></path>
                <path d="M86.3539886,53.972069 C86.2524153,54.6773341 86.3592741,55.6037741 86.5713832,58.1825494 C86.783722,60.7610848 86.1997902,63.8836819 86.1997902,63.8836819 C85.4667156,64.1453976 84.6221861,63.8836819 84.6221861,63.8836819 C84.6417194,63.702328 84.6221861,57.5981869 84.6221861,57.0543652 C84.6221861,56.5103036 84.4725837,55.8930767 84.4342064,55.2686532 C84.407779,54.8430953 84.2181907,54.0589078 84.0047029,53.258168 C83.9408174,53.018282 83.8748636,52.7769566 83.8105185,52.5433075 L83.8105185,52.5430676 C83.7744393,52.4120898 83.7390495,52.2835109 83.7045789,52.15901 C83.4042251,51.0711267 83,46.8707215 83,46.8707215 C83,46.8707215 85.2396693,44.9873759 86.3303188,46.7603739 C87.4207386,48.5326522 86.8607063,49.8220399 86.8223291,50.0436946 C86.783722,50.2655892 86.455562,53.2670438 86.3539886,53.972069" id="Fill-452" fill="#1D3B54"></path>
                <path d="M86,50 C85.9783691,50.0393228 84.5962715,52.5623001 84.2405009,53 C84.1613775,52.7659359 84.0796926,52.5304673 84,52.3024889 L84,52.3022548 C84,52.3022548 85.9536075,50.0557073 86,50" id="Fill-453" fill="#122536"></path>
                <path d="M85.7637116,65.9477118 L85.5775276,65.9477118 L85.5775276,65.0609664 C85.4223382,65.0754029 84.9010664,65.632555 84.7398081,65.7938037 C84.5785498,65.9548077 84.3570364,65.9477118 83.6775408,65.9964045 C82.9982619,66.0450972 82.9341054,65.5858198 83.0416109,65.4297096 C83.1491164,65.2733546 83.4967754,65.205087 83.6775408,65.1074569 C84.4045036,65.1512558 85.2914242,63.997557 85.7173281,64 C85.9436099,64.0012273 85.9414425,64.1426564 85.9481616,64.1693272 L85.9481616,64.1695719 L85.9490286,64.1732422 C85.9566146,64.2136156 85.9650677,64.2530102 85.9743877,64.291426 C86.0925138,64.7825127 85.7637116,65.9477118 85.7637116,65.9477118" id="Fill-454" fill="#172F42"></path>
                <path d="M79.6917813,65.9438773 L79.4391074,65.9438773 C79.4391074,65.9438773 79.5233321,64.9059417 79.2897556,64.8958103 C79.0561791,64.8856789 78.4766451,65.7404494 78.1306875,65.8729575 C77.7849747,66.005199 76.0094018,66.116911 76.0000979,65.7607122 C75.9905492,65.40478 76.6822195,65.2621405 76.8971882,65.1605599 C77.6295019,65.1586935 78.8206439,64.2807275 79.1898613,64.1028947 C79.5590786,63.9247953 79.9589008,64.0319749 79.9589008,64.0319749 C79.981426,64.2002095 79.9975853,64.3537802 79.9997889,64.4582936 C80.0093376,64.8448867 79.6917813,65.9438773 79.6917813,65.9438773" id="Fill-455" fill="#172F42"></path>
                <path d="M84,36.5620532 C84,36.5620532 84.4525507,37.3729803 84.1006315,38 C84.1006315,38 85.7590145,37.9268707 85.8218365,37.7955928 C85.8846584,37.6645119 85.7552336,36.449304 85.9835448,36.0899651 C86.2112744,35.7310204 84,36.5620532 84,36.5620532" id="Fill-456" fill="#EEA886"></path>
                <path d="M84.3968515,38.1252818 C84.3968515,38.1252818 83.5335955,38.4320821 83.1434652,38.5172902 C82.7535911,38.6024982 81.9374683,38.9883654 82.0038135,40.4420203 C82.0701587,41.8956752 82.3135098,43.1561406 82.4021409,43.7809998 C82.4907719,44.4053473 82.4351854,45.9953863 82.2914802,46.7678883 C82.2914802,46.7678883 84.3607331,47.2901396 86.7952688,46.7678883 C86.7952688,46.7678883 86.3636408,45.4503616 86.3746556,45.1095293 C86.3856704,44.7689529 87.8132449,41.9637393 87.8795901,41.5210667 C87.9459353,41.0778824 88.2338581,39.1247495 87.5809086,38.6930798 C86.9279592,38.26141 86.3966853,38.3182154 86.1202897,38.1252818 C85.8436379,37.9320923 84.8005582,37.9865948 84.3968515,38.1252818" id="Fill-457" fill="#285173"></path>
                <path d="M86.690911,48.6286034 C83.5218186,49.4622496 81,48.6320172 81,48.6320172 C81.2298407,48.1634184 81.3990641,47.6961851 81.5216764,47.2432896 L81.521906,47.2430621 C81.6084694,46.9233042 81.6718421,46.6112843 81.7168458,46.3113264 C81.9744695,44.5998824 81.6385485,43.2896719 81.6385485,43.2896719 C82.0043189,40.3057966 86.5595734,39.4152539 86.9244254,40.3610999 C87.2892775,41.3071734 86.2174529,45.3718529 86.1632647,45.7202865 C86.1088468,46.0687202 86.690911,48.6286034 86.690911,48.6286034" id="Fill-458" fill="#285173"></path>
                <path d="M85.6633804,32.099765 C85.0802681,31.9231366 83.5046189,31.7350476 83.1007889,33.8723411 C82.6972131,36.0098592 83.5765861,36.0464883 84.4796091,35.9855897 C85.3828864,35.9249158 86.7957829,34.4822259 86.9038609,34.0438009 C87.0121931,33.6049266 87.3265092,32.6040324 85.6633804,32.099765" id="Fill-459" fill="#EEA886"></path>
                <path d="M83,33.1872851 C83,33.1872851 83.5161662,34.1773471 84.1932084,34.522365 C84.1932084,34.522365 84.6172118,35.574535 85.5358404,36 C85.5358404,36 87.9729739,34.5521964 86.5586294,32.8317529 C85.1445575,31.1113094 83.1597852,32.4816001 83,33.1872851" id="Fill-460" fill="#FCCCA2"></path>
                <path d="M84.1860674,34.1581673 C84.2589197,34.0450242 84.7442389,33.8610239 84.9620708,34.1714245 C85.1799027,34.4815964 84.3977377,35.0283402 84.1835303,34.9988544 C83.9693229,34.9693686 83.9091564,34.5874252 84.1860674,34.1581673" id="Fill-461" fill="#EEA886"></path>
                <path d="M86.6364387,33.2267112 C86.6720189,33.1518328 87.7465041,32.4769424 87.9699694,33.8870693 C88.1932532,35.2974425 87.104427,36.9371306 86.9138189,37.6423172 C86.7230293,38.3472574 86.9998649,40 86.9998649,40 C86.9998649,40 86.3448991,39.159589 86.1466666,38.280261 C85.9290103,37.3142318 85.8558531,34.8787148 86.6364387,33.2267112" id="Fill-462" fill="#FCCCA2"></path>
                <path d="M87,33.0052536 C87,33.0052536 86.147495,33.3913067 86.0373425,34 C86.0373425,34 85.8768211,33.5253754 86.2214007,33.2348933 C86.5650388,32.9446804 87,33.0052536 87,33.0052536" id="Fill-463" fill="#E54242"></path>
                <path d="M82,47 C82.1491228,46.6349701 82.258295,46.2787737 82.335823,45.9363471 C82.335823,45.9363471 82.6957746,45.4333593 82.8172089,45.193297 C82.9386431,44.9532346 83.8424777,42 83.8424777,42 C83.8424777,42 84.798525,44.7734476 82,47" id="Fill-464" fill="#1D3B54"></path>
                <path d="M79.29456,47 C79.29456,47 78.8402607,47.3770997 78.6932515,47.4150871 C78.5464975,47.4530745 78.2634537,47.2439304 77.2203519,47.1792664 C77.1287264,47.1735043 76.9676799,47.2424365 77.0057083,47.343594 C77.0434815,47.4447514 77.4975256,47.7200534 77.6917513,47.7620957 C77.8862322,47.8039245 78.8027427,48.108464 79.2493853,47.9590753 C79.6960278,47.8096866 80,47.3342038 80,47.3342038 L79.29456,47" id="Fill-465" fill="#EEA886"></path>
                <path d="M83.296724,39 C83.296724,39 82.0631973,39.4177902 81.9901148,40.8828443 C81.9172934,42.3481213 81.8502142,43.112992 81.783135,43.3391742 C81.7163168,43.5653564 81.5881616,44.4743234 81.2778223,45.021265 C80.9766183,45.5519233 79,47.2311143 79,47.2311143 L79.9565966,48 C79.9565966,48 82.7123257,45.6369089 82.8796322,45.2048429 C83.0469388,44.7727768 83.7357405,41.7661594 83.7908134,41.2593685 C83.8349238,40.8507237 84.4655207,39.0303361 83.296724,39" id="Fill-466" fill="#285173"></path>
                <path d="M61.5,53 C59.085862,53 56.8463083,52.2612876 55,51 L68,51 C66.1536917,52.2612876 63.9143842,53 61.5,53" id="Fill-467" fill="#F8F8F8"></path>
                <path d="M68.0902243,51 L54.9097757,51 C52.2873673,49.1837175 50.4473873,46.3135458 50,43 L50.6476131,43 C50.8306124,44.2770775 51.2325619,45.4835955 51.8145149,46.5795202 L51.8147646,46.5795202 C52.0629247,45.2614081 52.3987148,44.0726551 52.8046588,43 L73,43 C72.5526127,46.3135458 70.7126327,49.1837175 68.0902243,51" id="Fill-468" fill="#DADADA"></path>
                <g id="Group-471" transform="translate(50.000000, 30.000000)">
                    <mask id="mask-13" fill="white">
                        <use xlink:href="#path-12"></use>
                    </mask>
                    <g id="Clip-470"></g>
                    <path d="M22.6608723,12.9990189 L2.86814894,12.9990189 C3.61075532,11.0357736 4.59314894,9.47086792 5.70546809,8.22433962 L8.96119149,8.22433962 L8.96119149,7.52773585 L6.37344681,7.52773585 C7.45469149,6.47866038 8.6301383,5.69301887 9.81096809,5.10630189 L11.1422766,5.39549057 C11.1371383,5.48722642 11.144234,5.58116981 11.1645426,5.67511321 C11.270734,6.16616981 11.7055319,6.50269811 12.1875532,6.50269811 C12.2607128,6.50269811 12.3348511,6.49484906 12.409234,6.47890566 C12.9734681,6.35626415 13.3331489,5.7965283 13.2108085,5.23115094 C13.1741064,5.06067925 13.097766,4.90884906 12.9935319,4.78326415 L13.8995851,3.74743396 C15.2472872,3.48866038 16.434234,3.42439623 17.2810745,3.42439623 C18.1171489,3.42439623 18.6216809,3.4869434 18.6216809,3.4869434 C17.7809574,2.71969811 16.8181383,2.08441509 15.7660106,1.6134717 L16.1988511,1.11873585 C20.0772872,2.9350566 22.7643723,6.88018868 22.7643723,11.4549623 C22.7643723,11.9783962 22.7288936,12.4942264 22.6608723,12.9990189 L22.6608723,12.9990189 Z M15.3488298,6.05701887 L18.9578723,6.05701887 L18.9578723,5.36041509 L15.3488298,5.36041509 L15.3488298,6.05701887 Z M0.754106383,12.9990189 L0.119404255,12.9990189 C0.0513829787,12.4942264 0.0159042553,11.9783962 0.0159042553,11.4549623 C0.0159042553,6.39207547 3.30735106,2.10011321 7.86232979,0.611981132 L7.86232979,1.07483019 L8.50706383,1.07483019 C4.76344681,2.1175283 1.84244681,5.14064151 0.93712766,8.94767925 L0.320776596,9.53071698 L0.547595745,9.77158491 L0.818212766,9.51575472 C0.704191489,10.1446604 0.644489362,10.7929434 0.644489362,11.4549623 C0.644489362,11.9791321 0.681925532,12.494717 0.754106383,12.9990189 L0.754106383,12.9990189 Z M11.2127447,5.07171698 L10.3015532,4.87377358 C11.3475638,4.40160377 12.3889255,4.07832075 13.3617766,3.8595283 L12.7446915,4.56496226 C12.5807553,4.46169811 12.3886809,4.40356604 12.1880426,4.40356604 C12.114883,4.40356604 12.0405,4.41116981 11.966117,4.42735849 C11.6105957,4.50462264 11.3365532,4.75530189 11.2127447,5.07171698 L11.2127447,5.07171698 Z M15.4462128,1.47660377 C14.2181596,0.974264151 12.8770638,0.693415094 11.4713723,0.683113208 L11.4713723,0.377981132 L8.68176596,0.377981132 C9.54964894,0.165566038 10.4569255,0.0527358491 11.3901383,0.0527358491 C12.9859468,0.0527358491 14.5049255,0.382150943 15.8832128,0.976962264 L15.4462128,1.47660377 L15.4462128,1.47660377 Z" id="Fill-469" fill="url(#linearGradient-14)" mask="url(#mask-13)"></path>
                </g>
                <path d="M50.2285609,40 L50,39.7535072 L50.6210839,39.156854 C50.5762101,39.3486264 50.5362674,39.5424069 50.5012559,39.7381955 L50.2285609,40 M60.9045968,35.5217125 L59.5630654,35.2257705 C59.7277672,35.1426858 59.8927157,35.0633663 60.0574176,34.987812 L60.975606,35.1903779 C60.9351702,35.2950495 60.9107608,35.4067494 60.9045968,35.5217125 M62.7700676,34.895189 C62.6983188,34.8073351 62.6135022,34.7320318 62.5193164,34.6717892 L63.14114,33.9498815 C63.3243339,33.9079626 63.5048156,33.869809 63.6830783,33.8351694 L62.7700676,34.895189 M65.5638359,31.6513736 C65.4573221,31.6029285 65.349822,31.5562404 65.2415823,31.5113094 L65.681938,31 C65.7886983,31.046688 65.894719,31.0951332 66,31.1450844 L65.5638359,31.6513736" id="Fill-472" fill="#55B0F8"></path>
                <path d="M61.9998292,37 C61.5393369,37 61.1239373,36.6792485 61.0228203,36.211614 C60.9059891,35.6729291 61.2493087,35.1393681 61.7883717,35.0228864 C61.8594269,35.0075149 61.9301404,35 62.0001708,35 C62.4606631,35 62.8760627,35.3207515 62.9771797,35.788386 C63.0940109,36.3274125 62.7506913,36.8606319 62.2116283,36.9771136 C62.1405731,36.9924851 62.0698596,37 61.9998292,37" id="Fill-473" fill="#F8F8F8"></path>
                <path d="M61.9998768,37 C61.5395002,37 61.1242265,36.6793643 61.0228035,36.211498 C61.0034069,36.1219911 60.9966298,36.0324842 61.0015373,35.9450806 C61.0073797,35.8380463 61.0305154,35.73405 61.0688411,35.6365973 C61.1870901,35.335125 61.4488271,35.0962842 61.788384,35.0226688 C61.8594269,35.0072447 61.9304698,35 62.0003442,35 C62.1919731,35 62.3754226,35.0553868 62.5319974,35.1537742 C62.6212684,35.2098621 62.7016591,35.279972 62.7696639,35.3617668 C62.8692174,35.4814209 62.9421299,35.6260809 62.9771839,35.788502 C63.0940308,36.3271792 62.750501,36.8604814 62.2116033,36.9773312 C62.1405605,36.9925216 62.0697513,37 61.9998768,37 M62.0001105,35.315728 C61.9522033,35.315728 61.9038287,35.3208694 61.8552204,35.3313858 C61.4864518,35.4110774 61.2515896,35.7761159 61.3315128,36.14466 C61.4006862,36.4645945 61.6848577,36.6840383 61.9998768,36.6840383 C62.0477841,36.6840383 62.0961587,36.6788969 62.1447669,36.6683805 C62.5135356,36.5886889 62.7483978,36.2238841 62.6684745,35.8551063 C62.5993012,35.5351718 62.3151297,35.315728 62.0001105,35.315728" id="Fill-474" fill="#55B0F8"></path>
                <path d="M59,39 L56,39 C56.2008868,38.6492958 56.4062829,38.3161972 56.6155118,38 L59,38 L59,39" id="Fill-475" fill="#DCDCDC"></path>
                <path d="M57.7145763,32 L57,32 L57,31.3357973 C57.2980339,31.2094333 57.600678,31.0975009 57.9082034,31 L61,31 L61,31.437874 C60.9698983,31.437522 60.9400678,31.437522 60.9099661,31.437522 C59.8032542,31.437522 58.7315254,31.6335797 57.7145763,32" id="Fill-476" fill="#DCDCDC"></path>
                <polygon id="Fill-477" fill="#DCDCDC" points="65 37 69 37 69 36 65 36"></polygon>
                <path d="M52.0821759,46 L52.0819444,46 C51.5423611,45.0815043 51.1696759,44.0703201 51,43 L53,43 C52.6236111,43.8989934 52.3122685,44.8952887 52.0821759,46" id="Fill-478" fill="#C1C7D3"></path>
                <g id="Group-481" transform="translate(50.000000, 30.000000)">
                    <mask id="mask-16" fill="white">
                        <use xlink:href="#path-15"></use>
                    </mask>
                    <g id="Clip-480"></g>
                    <path d="M2.33328,12.9989804 L0.25968,12.9989804 C0.18888,12.474902 0.15216,11.939098 0.15216,11.3943725 C0.15216,10.7063922 0.21072,10.0326863 0.32256,9.37911765 L4.96584,4.72588235 C5.14896,4.89258824 5.38536,4.98970588 5.63448,4.98970588 C5.70624,4.98970588 5.7792,4.98180392 5.85216,4.96498039 C6.22872,4.87856863 6.51216,4.58160784 6.61728,4.21531373 L9.14328,4.7967451 C7.98504,5.40647059 6.83208,6.22292157 5.77152,7.31313725 L4.76976,7.31313725 L4.76976,8.03705882 L5.11632,8.03705882 C4.02528,9.33247059 3.06168,10.9587451 2.33328,12.9989804 M0.4392,8.78876471 C1.3272,4.83243137 4.19232,1.69076471 7.86432,0.607176471 L10.77192,0.607176471 L10.77192,0.200098039 C12.15072,0.210803922 13.46616,0.502666667 14.67072,1.02470588 L12.62616,3.50107843 C11.67192,3.72845098 10.65048,4.06441176 9.62448,4.55509804 L6.66144,3.87323529 C6.66,3.80543137 6.65232,3.73686275 6.6384,3.66829412 C6.53424,3.15798039 6.10776,2.8082549 5.63496,2.8082549 C5.5632,2.8082549 5.49048,2.81641176 5.41752,2.83323529 C4.86408,2.96043137 4.51128,3.54211765 4.63128,4.12992157 C4.656,4.2507451 4.69872,4.36264706 4.75584,4.46307843 L0.4392,8.78876471 M13.15368,3.38458824 L14.9844,1.16694118 C16.0164,1.65635294 16.9608,2.31654902 17.78544,3.11388235 C17.78544,3.11388235 17.29056,3.04888235 16.47048,3.04888235 C15.63984,3.04888235 14.4756,3.11566667 13.15368,3.38458824" id="Fill-479" fill="url(#linearGradient-17)" mask="url(#mask-16)"></path>
                </g>
                <path d="M50,40 C50.034866,39.809611 50.0746427,39.6211747 50.1193302,39.4346911 L54.535529,35.2925095 C54.5937208,35.3881922 54.6666448,35.4728909 54.7503724,35.5441648 L50,40 M59.0241607,35.6120214 L56.4399011,35.0552555 C56.4720663,34.9507857 56.4877805,34.8404577 56.4850796,34.7276888 L59.5164591,35.3806255 C59.3524414,35.4540961 59.1881783,35.5312281 59.0241607,35.6120214 M62.5873697,34.3713196 L64.6790853,32 C64.7868753,32.0436918 64.8939287,32.0890923 65,32.1362014 L63.1270564,34.2597712 C62.9495343,34.2934554 62.7698024,34.3305568 62.5873697,34.3713196" id="Fill-482" fill="#64A9E8"></path>
                <path d="M55.9999487,36 C55.5395043,36 55.1241479,35.6795901 55.0226998,35.2119556 C54.9062224,34.6725875 55.2495063,34.1393681 55.7885132,34.0225448 C55.859561,34.0071734 55.9302672,34 55.9999487,34 C56.4603931,34 56.8760911,34.3204099 56.9771976,34.788386 C57.0940166,35.3270709 56.7503911,35.8606319 56.2117258,35.9774552 C56.140678,35.9928266 56.0696302,36 55.9999487,36" id="Fill-483" fill="#D6DCE8"></path>
                <path d="M55.9996984,36 C55.757114,36 55.5269159,35.9109605 55.3486,35.7581211 C55.268907,35.6898808 55.199497,35.6087871 55.1441093,35.5171769 C55.0884878,35.4250993 55.0468885,35.3225053 55.022817,35.2117317 C54.9059652,34.6728208 55.2495096,34.1395186 55.7884303,34.0229025 C55.8594762,34.0074784 55.9302884,34 56.0001658,34 C56.4605621,34 56.8758535,34.3206357 56.9772809,34.788502 C56.9908357,34.8513671 56.9983143,34.9142323 56.9997165,34.9763964 C57.0022872,35.0843655 56.9873302,35.1899977 56.956715,35.290021 C56.8543528,35.6258472 56.5783487,35.898107 56.2116677,35.9773312 C56.1406217,35.9927553 56.0695758,36 55.9996984,36 M55.9999321,34.3159617 C55.9522566,34.3159617 55.9038799,34.3208694 55.8552696,34.3313858 C55.4864851,34.4113111 55.2516129,34.7761159 55.3313059,35.1451274 C55.4007159,35.4650619 55.6848996,35.684272 55.9999321,35.684272 C56.0476077,35.684272 56.096218,35.6793643 56.1448284,35.6688479 C56.5133791,35.5889226 56.748485,35.2238841 56.6685584,34.85534 C56.5993821,34.5351718 56.3149647,34.3159617 55.9999321,34.3159617" id="Fill-484" fill="#64A9E8"></path>
                <path d="M55.3459511,39 L55,39 L55,38 L56,38 C55.7776713,38.3161972 55.5594154,38.6492958 55.3459511,39" id="Fill-485" fill="#C2C8D4"></path>
                <path d="M61,31.1919669 L58,31.1919669 C58.9286009,30.9418573 59.9072225,30.8080331 60.9177879,30.8080331 C60.9452745,30.8080331 60.9725134,30.8080331 61,30.8082734 L61,31.1919669" id="Fill-486" fill="#C2C8D4"></path>
                <path d="M61.0001237,51.9643251 C54.9895612,51.9643251 50.1170817,47.2796799 50.1170817,41.4995242 C50.1170817,35.7203201 54.9895612,31.0349612 61.0001237,31.0349612 C67.0106862,31.0349612 71.8831657,35.7203201 71.8831657,41.4995242 C71.8831657,47.2796799 67.0106862,51.9643251 61.0001237,51.9643251 Z M61.0001237,29 C53.8203047,29 48,34.5962622 48,41.4995242 C48,48.4034999 53.8203047,54 61.0001237,54 C68.1799427,54 74,48.4034999 74,41.4995242 C74,34.5962622 68.1799427,29 61.0001237,29 L61.0001237,29 Z" id="Fill-487" fill="#3F444F"></path>
                <polygon id="Fill-488" fill="#E0E0E0" points="18 6 25 6 25 5 18 5"></polygon>
                <polygon id="Fill-489" fill="#E0E0E0" points="27 6 33 6 33 5 27 5"></polygon>
                <polygon id="Fill-490" fill="#E0E0E0" points="27 8 32 8 32 7 27 7"></polygon>
                <polygon id="Fill-491" fill="#78C2FF" points="53 6 59 6 59 5 53 5"></polygon>
                <polygon id="Fill-492" fill="#1487E3" points="34 6 41 6 41 5 34 5"></polygon>
                <polygon id="Fill-493" fill="#FFC055" points="46 6 53 6 53 5 46 5"></polygon>
                <polygon id="Fill-494" fill="#E0E0E0" points="42 6 44 6 44 5 42 5"></polygon>
                <polygon id="Fill-495" fill="#78C2FF" points="18 8 22 8 22 7 18 7"></polygon>
                <polygon id="Fill-496" fill="#1487E3" points="23 8 25 8 25 7 23 7"></polygon>
                <polygon id="Fill-497" fill="#E0E0E0" points="49 8 59 8 59 7 49 7"></polygon>
                <polygon id="Fill-498" fill="#FFC455" points="25 8 27 8 27 7 25 7"></polygon>
                <polygon id="Fill-499" fill="#1487E3" points="44 8 47 8 47 7 44 7"></polygon>
                <polygon id="Fill-500" fill="#78C2FF" points="36 8 43 8 43 7 36 7"></polygon>
                <polygon id="Fill-501" fill="#E0E0E0" points="33 8 35 8 35 7 33 7"></polygon>
                <polygon id="Fill-362" fill="#F6931D" points="16 10 81 10 81 4 16 4"></polygon>
                <path d="M26.247475,8 L18.752525,8 C18.336849,8 18,7.67797377 18,7.28109453 L18,6.71890547 C18,6.32180009 18.336849,6 18.752525,6 L26.247475,6 C26.663151,6 27,6.32180009 27,6.71890547 L27,7.28109453 C27,7.67797377 26.663151,8 26.247475,8" id="Fill-366" fill="#F5F7FF"></path>
                <g id="Group-40" transform="translate(9.000000, 0.000000)">
                    <g id="Group-379">
                        <mask id="mask-19" fill="white">
                            <use xlink:href="#path-18"></use>
                        </mask>
                        <g id="Clip-378"></g>
                        <path d="M10.7855,5.51458696 C10.7855,5.66691304 10.7790435,5.81732609 10.7666087,5.96654348 C10.7405435,6.28530435 10.6860217,6.59641304 10.6061522,6.897 C10.2022609,8.42456522 9.14315217,9.6855 7.74854348,10.3624783 C7.03880435,10.7068261 6.24202174,10.9000435 5.40028261,10.9000435 C5.0741087,10.9000435 4.75486957,10.8708696 4.44519565,10.8151522 C3.06397826,10.5683696 1.86545652,9.79478261 1.06508696,8.70984783 C0.499304348,7.9443913 0.13223913,7.0235 0.0389782609,6.02297826 C0.0227173913,5.85558696 0.0150652174,5.68628261 0.0150652174,5.51458696 C0.0150652174,3.77443478 0.840304348,2.2275 2.12036957,1.24371739 C3.02858696,0.54426087 4.1658913,0.129608696 5.40028261,0.129608696 C6.89604348,0.129608696 8.24952174,0.739391304 9.22565217,1.72436957 L9.22565217,1.7246087 C10.1900652,2.69763043 10.7855,4.03652174 10.7855,5.51458696" id="Fill-377" fill="#27A9E0" mask="url(#mask-19)"></path>
                    </g>
                    <path d="M4.4738913,10.6558913 C3.13404348,10.4162826 1.97186957,9.66613043 1.19565217,8.61371739 C1.19015217,8.55584783 1.20043478,8.50132609 1.22841304,8.45134783 C1.67463043,7.65958696 1.38480435,7.79326087 1.29536957,7.28008696 C1.20617391,6.76691304 0.949586957,6.99026087 0.871630435,6.67771739 C0.793434783,6.36565217 1.03878261,6.39004348 0.503369565,6.18773913 C0.422782609,6.15736957 0.317804348,6.09471739 0.199913043,6.00767391 C0.184369565,5.84530435 0.176956522,5.68102174 0.176956522,5.51458696 C0.176956522,3.82680435 0.977326087,2.32626087 2.2188913,1.3718913 C2.2188913,1.3718913 2.18780435,1.73082609 1.91997826,2.19641304 C1.6523913,2.66223913 1.51847826,2.40086957 1.51847826,3.08908696 C1.51847826,3.77754348 1.98263043,4.02791304 2.2188913,4.4605 C2.4553913,4.89308696 2.91930435,5.20873913 2.2188913,5.43017391 C1.51847826,5.6516087 1.20617391,5.99117391 1.20617391,6.22265217 C1.20617391,6.45484783 1.07226087,6.45484783 1.20617391,6.76691304 C1.34008696,7.07945652 1.42928261,6.87093478 1.53330435,7.16865217 C1.63756522,7.46613043 1.53330435,7.46613043 1.66697826,7.57015217 C1.8008913,7.67417391 2.024,7.91234783 2.44080435,7.88245652 C2.8568913,7.85256522 4.47795652,7.60865217 4.56715217,8.46713043 C4.63506522,9.11876087 4.45380435,10.1247826 4.4738913,10.6558913" id="Fill-380" fill="#FFFFFF"></path>
                    <path d="M2.93126087,1.96445652 C2.84206522,2.0821087 2.5001087,2.59193478 2.5001087,2.90232609 C2.5001087,3.21247826 2.38126087,3.81173913 2.75286957,4.14436957 C3.12471739,4.47676087 3.74932609,4.31128261 3.68978261,3.93297826 C3.63047826,3.55467391 4.09152174,3.33156522 4.28473913,3.25719565 C4.47819565,3.18282609 4.49302174,2.42980435 4.32945652,2.19641304 C4.16565217,1.9635 3.52645652,1.82671739 3.27345652,1.85063043 C3.02069565,1.87406522 2.93126087,1.96445652 2.93126087,1.96445652" id="Fill-381" fill="#FFFFFF"></path>
                    <path d="M7.47497826,2.46136957 C7.31858696,2.26073913 6.93956522,1.99291304 6.85013043,2.30521739 C6.76093478,2.61776087 7.02876087,2.52856522 6.85013043,2.81863043 C6.67173913,3.10821739 6.51558696,3.13069565 6.49334783,3.37628261 C6.4711087,3.62163043 6.40415217,3.77754348 6.62702174,3.97841304 C6.85013043,4.17928261 7.31858696,4.02313043 7.47497826,4.02313043 C7.63113043,4.02313043 7.87647826,4.09008696 7.98791304,3.88921739 C8.09958696,3.68834783 7.98791304,3.30908696 7.98791304,3.30908696 L7.54193478,2.66223913 L7.47497826,2.46136957" id="Fill-382" fill="#FFFFFF"></path>
                    <path d="M10.4495217,6.8553913 C10.0578261,8.33728261 9.03076087,9.56019565 7.67776087,10.2168478 C7.64404348,10.1388913 7.59095652,10.0688261 7.51204348,10.0317609 C7.28869565,9.92726087 7.32623913,9.69697826 7.25928261,9.39184783 C7.19256522,9.08695652 7.07347826,9.20604348 6.93956522,8.99776087 C6.80565217,8.78947826 6.77576087,8.57402174 6.88002174,8.36573913 C6.98428261,8.15793478 6.89484783,8.20241304 7.32623913,7.98647826 C7.7573913,7.77102174 7.79469565,7.83797826 7.90636957,7.7856087 C8.01780435,7.73395652 8.50108696,7.667 8.8691087,7.7188913 C9.19671739,7.76504348 9.85743478,7.11006522 10.4495217,6.8553913" id="Fill-383" fill="#FFFFFF"></path>
                    <path d="M10.6236087,5.51458696 C10.6236087,5.66236957 10.6171522,5.80823913 10.6051957,5.95267391 C10.4449783,5.88930435 10.3268478,5.82952174 10.3079565,5.78552174 C10.2412391,5.62913043 10.2634783,5.53993478 10.2634783,5.40626087 C10.2634783,5.27234783 9.81726087,4.75941304 9.81726087,4.75941304 L9.34880435,5.09395652 C9.34880435,5.09395652 9.32656522,5.42084783 9.34880435,5.55476087 C9.37104348,5.68867391 9.7428913,5.88882609 9.76513043,6.0531087 C9.78736957,6.2173913 9.87656522,6.26856522 9.87656522,6.26856522 C9.87656522,6.26856522 9.67545652,7.02445652 9.62428261,6.44002174 C9.60921739,6.27071739 9.4678913,6.37306522 9.4678913,6.26163043 C9.4678913,6.14995652 9.13334783,5.96391304 9.13334783,5.96391304 C9.13334783,5.96391304 9.08121739,5.83 8.79115217,5.58465217 C8.50108696,5.33954348 7.85423913,6.15043478 7.85423913,6.15043478 C7.85423913,6.15043478 7.96304348,6.76141304 7.85423913,7.54791304 C7.84443478,7.61773913 6.9441087,8.0386087 6.69421739,8.0386087 C6.44432609,8.0386087 6.04713043,6.72243478 6.04713043,6.58852174 C6.04713043,6.45484783 6.31495652,6.34317391 6.46656522,6.15043478 C6.61769565,5.95769565 6.51558696,5.51793478 6.56030435,5.13867391 C6.60502174,4.75941304 6.67173913,4.91532609 6.67173913,4.8486087 C6.67173913,4.78165217 6.98428261,4.53606522 7.25186957,4.32491304 C7.51993478,4.11376087 7.43026087,4.29095652 7.76480435,4.32347826 C8.09958696,4.35552174 8.4118913,3.82226087 8.61276087,3.69528261 C8.8133913,3.56782609 8.90258696,3.73306522 9.05873913,3.69528261 C9.2148913,3.65702174 9.19265217,3.62163043 9.37104348,3.53602174 C9.54967391,3.44969565 9.41576087,3.1978913 9.37104348,2.9283913 C9.32656522,2.6588913 9.30432609,2.52856522 9.11063043,1.83867391 C10.0461087,2.78228261 10.6236087,4.08123913 10.6236087,5.51458696" id="Fill-384" fill="#FFFFFF"></path>
                </g>
                <g id="Group-18" transform="translate(62.000000, 5.000000)">
                    <path d="M2.3335047,9.93146689 C1.47709762,7.53710891 2.24992852,4.9564457 4.07840614,3.40108309 C4.51419621,3.03046254 5.00993228,2.71754935 5.55815221,2.48000397 C5.67903918,2.42752012 5.80266227,2.37851861 5.92877276,2.33324818 C7.19385739,1.88079262 8.51117714,1.88328001 9.70139145,2.25589047 C11.4196779,2.79391211 12.8738038,4.102526 13.526494,5.9282675 C13.7421504,6.53096118 13.8543315,7.14534558 13.8727382,7.75201908 C13.9483547,10.2580607 12.4201046,12.6364994 9.93172341,13.5264862 C6.84064855,14.6316319 3.43889914,13.022293 2.3335047,9.93146689 Z M10.5995866,15.3945133 C13.9182573,14.2075326 15.9566703,11.0356176 15.8561799,7.69281929 C15.8320523,6.88342381 15.6823116,6.06432752 15.3947698,5.26040429 C14.5236871,2.82550191 12.5842721,1.07935678 10.2928919,0.361994594 C8.70494453,-0.135233913 6.94810363,-0.138218777 5.26041208,0.465221122 C5.09251351,0.52516713 4.92735106,0.590585388 4.76616843,0.660480941 C4.03512562,0.978120163 3.37397836,1.39475736 2.7926762,1.88949848 C0.353794001,3.96397859 -0.676730113,7.40627239 0.464980166,10.5995788 C1.93975146,14.7221728 6.47699268,16.8687871 10.5995866,15.3945133 L10.5995866,15.3945133 Z" id="Fill-422" fill="#4AAFFF"></path>
                    <path d="M9.70139145,2.25589047 L10.2928919,0.361994594 C12.5842721,1.07935678 14.5236871,2.82550191 15.3947698,5.26040429 C15.6823116,6.06432752 15.8320523,6.88342381 15.8561799,7.69281929 L13.8727382,7.75201908 C13.8543315,7.14534558 13.7421504,6.53096118 13.526494,5.9282675 C12.8738038,4.102526 11.4196779,2.79391211 9.70139145,2.25589047" id="Fill-423" fill="#1A598C"></path>
                </g>
                <path d="M80.5269048,19 L75.4730952,19 C75.2117877,19 75,18.8346422 75,18.6308901 L75,18.3688918 C75,18.1651396 75.2117877,18 75.4730952,18 L80.5269048,18 C80.7879325,18 81,18.1651396 81,18.3688918 L81,18.6308901 C81,18.8346422 80.7879325,19 80.5269048,19" id="Fill-428-Copy" fill="#2273B5"></path>
            </g>
        </g>
    </g>
</svg>