<?xml version="1.0" encoding="UTF-8"?>
<svg width="103px" height="65px" viewBox="0 0 103 65" version="1.1" xmlns="http://www.w3.org/2000/svg" xmlns:xlink="http://www.w3.org/1999/xlink">
    <!-- Generator: Sketch 59.1 (86144) - https://sketch.com -->
    <title>Deployment &amp; Integration Support</title>
    <desc>Created with Sketch.</desc>
    <defs>
        <path d="M16.8006604,19.0241194 L1.27754127,8.02208955 C0.0295106132,7.13659701 -0.266132075,5.40591045 0.617040094,4.1561194 L2.62483491,1.31534328 C3.50854363,0.0650149254 5.23679245,-0.230507463 6.48535967,0.654447761 L22.0084788,11.6570149 C23.257046,12.5419701 23.5526887,14.2726567 22.66898,15.5229851 L20.6617217,18.3632239" id="path-1"></path>
        <linearGradient x1="6.55760625%" y1="24.1198073%" x2="93.4418313%" y2="75.8801513%" id="linearGradient-3">
            <stop stop-color="#343D4F" offset="0%"></stop>
            <stop stop-color="#212A3F" offset="100%"></stop>
        </linearGradient>
    </defs>
    <g id="Home-Page-V2" stroke="none" stroke-width="1" fill="none" fill-rule="evenodd">
        <g id="Home-Page" transform="translate(-1039.000000, -815.000000)">
            <g id="Deployment-&amp;-Integration-Support" transform="translate(1039.000000, 815.000000)">
                <polygon id="Fill-1" fill="#979797" points="47 59 58 59 58 46 47 46"></polygon>
                <g id="Group-157">
                    <path d="M63.5075908,62.6363463 L40.5923314,62.6363463 C40.5923314,60.851391 42.0372783,59.4038687 43.8197193,59.4038687 L60.2802028,59.4038687 C62.0626439,59.4038687 63.5075908,60.851391 63.5075908,62.6363463" id="Fill-2" fill="#979797"></path>
                    <path d="M87.0375295,1.36106866 L87.0375295,46.2949791 C87.0375295,47.0461433 86.4290743,47.6554567 85.6784316,47.6554567 L17.5641804,47.6554567 C16.8130012,47.6554567 16.204546,47.0461433 16.204546,46.2949791 L16.204546,1.36106866 C16.204546,0.609367164 16.8130012,5.37313433e-05 17.5641804,5.37313433e-05 L85.6784316,5.37313433e-05 C86.4290743,5.37313433e-05 87.0375295,0.609367164 87.0375295,1.36106866" id="Fill-4" fill="#979797"></path>
                    <path d="M85.1590448,3.2868 L85.1590448,44.3692478 C85.1590448,45.1333075 84.5414682,45.7512179 83.7790212,45.7512179 L19.4619811,45.7512179 C19.2935024,45.7512179 19.1330719,45.7216657 18.9833726,45.6636358 C18.4580837,45.4712776 18.0841038,44.9635164 18.0841038,44.3692478 L18.0841038,3.2868 C18.0841038,2.5227403 18.7016804,1.90429254 19.4619811,1.90429254 L83.7790212,1.90429254 C83.9625236,1.90429254 84.1401238,1.94082985 84.3000177,2.0069194 C84.8043809,2.21217313 85.1590448,2.70918806 85.1590448,3.2868" id="Fill-6" fill="#FFF9FF"></path>
                    <path d="M85.1593131,3.28599403 L85.1593131,5.33100896 L18.0832989,5.33100896 L18.0832989,3.28599403 C18.0832989,2.52300896 18.7008756,1.90456119 19.462786,1.90456119 L83.7798261,1.90456119 C84.5417364,1.90456119 85.1593131,2.52300896 85.1593131,3.28599403" id="Fill-8" fill="#DEDEDE"></path>
                    <path d="M27.1760554,3.64438209 L27.1760554,3.64438209 C27.1760554,3.89477015 27.3788738,4.09787463 27.6289092,4.09787463 L72.9336026,4.09787463 C73.183638,4.09787463 73.3864564,3.89477015 73.3864564,3.64438209 C73.3864564,3.39453134 73.183638,3.19142687 72.9336026,3.19142687 L27.6289092,3.19142687 C27.3788738,3.19142687 27.1760554,3.39453134 27.1760554,3.64438209" id="Fill-10" fill="#FFF9FF"></path>
                    <path d="M22.0104104,3.64438209 L22.0104104,3.98020299 C22.0104104,4.07638209 21.9063184,4.13709851 21.8231521,4.0887403 L21.532875,3.92056119 L21.2425979,3.7529194 C21.1594316,3.70456119 21.1594316,3.58420299 21.2425979,3.53584478 L21.532875,3.36820299 L21.8231521,3.20056119 C21.9063184,3.15220299 22.0104104,3.21238209 22.0104104,3.30856119 L22.0104104,3.64438209 Z" id="Fill-12" fill="#2A3554"></path>
                    <path d="M23.5213001,3.64438209 L23.5213001,3.98020299 C23.5213001,4.07638209 23.6253921,4.13709851 23.7090949,4.0887403 L23.9993721,3.92056119 L24.2896492,3.7529194 C24.3728154,3.70456119 24.3728154,3.58420299 24.2896492,3.53584478 L23.9993721,3.36820299 L23.7090949,3.20056119 C23.6253921,3.15220299 23.5213001,3.21238209 23.5213001,3.30856119 L23.5213001,3.64438209 Z" id="Fill-14" fill="#2A3554"></path>
                    <path d="M79.8967123,3.61789254 C79.8967123,3.98810149 79.5962406,4.28899701 79.2265531,4.28899701 C78.856329,4.28899701 78.5563939,3.98810149 78.5563939,3.61789254 C78.5563939,3.24714627 78.856329,2.94678806 79.2265531,2.94678806 C79.5962406,2.94678806 79.8967123,3.24714627 79.8967123,3.61789254" id="Fill-16" fill="#2BD184"></path>
                    <path d="M77.4172305,3.61789254 C77.4172305,3.98810149 77.1172954,4.28899701 76.7470713,4.28899701 C76.3773838,4.28899701 76.0769121,3.98810149 76.0769121,3.61789254 C76.0769121,3.24714627 76.3773838,2.94678806 76.7470713,2.94678806 C77.1172954,2.94678806 77.4172305,3.24714627 77.4172305,3.61789254" id="Fill-18" fill="#005DB1"></path>
                    <path d="M82.3759257,3.61789254 C82.3759257,3.98810149 82.0759906,4.28899701 81.7057665,4.28899701 C81.336079,4.28899701 81.0356073,3.98810149 81.0356073,3.61789254 C81.0356073,3.24714627 81.336079,2.94678806 81.7057665,2.94678806 C82.0759906,2.94678806 82.3759257,3.24714627 82.3759257,3.61789254" id="Fill-20" fill="#FF5767"></path>
                    <path d="M78.7122099,32.5021433 L66.1047394,32.5021433 C65.7870979,32.5021433 65.5290142,32.2152179 65.5290142,31.8616657 C65.5290142,31.5081134 65.7870979,31.2211881 66.1047394,31.2211881 L78.7122099,31.2211881 C79.030388,31.2211881 79.2879351,31.5081134 79.2879351,31.8616657 C79.2879351,32.2152179 79.030388,32.5021433 78.7122099,32.5021433" id="Fill-22" fill="#D4E1F7"></path>
                    <polygon id="Fill-24" fill-opacity="0.79916958" fill="#002D51" points="33.541 29.348 69.841 29.348 69.841 10.148 33.541 10.148"></polygon>
                    <polygon id="Fill-26" fill="#E0E0E0" points="21.8866804 9.57170149 29.4666156 9.57170149 29.4666156 8.78722388 21.8866804 8.78722388"></polygon>
                    <polygon id="Fill-27" fill="#E0E0E0" points="31.5881604 15.4794627 37.0610377 15.4794627 37.0610377 14.6949851 31.5881604 14.6949851"></polygon>
                    <polygon id="Fill-28" fill="#1487E3" points="37.9141627 15.4794627 41.5455778 15.4794627 41.5455778 14.6949851 37.9141627 14.6949851"></polygon>
                    <polygon id="Fill-29" fill="#1487E3" points="45.334204 39.1980896 48.9656191 39.1980896 48.9656191 38.4136119 45.334204 38.4136119"></polygon>
                    <polygon id="Fill-30" fill="#1487E3" points="21.9725295 30.3361791 25.6044811 30.3361791 25.6044811 29.5517015 21.9725295 29.5517015"></polygon>
                    <polygon id="Fill-31" fill="#E0E0E0" points="42.2634906 15.4794627 51.0318986 15.4794627 51.0318986 14.6949851 42.2634906 14.6949851"></polygon>
                    <polygon id="Fill-32" fill="#E0E0E0" points="21.973066 27.3610746 27.6074469 27.3610746 27.6074469 26.576597 21.973066 26.576597"></polygon>
                    <polygon id="Fill-33" fill="#E0E0E0" points="37.1125472 33.2903284 42.7474646 33.2903284 42.7474646 32.5058507 37.1125472 32.5058507"></polygon>
                    <polygon id="Fill-34" fill="#E0E0E0" points="58.1600531 39.1980896 63.794434 39.1980896 63.794434 38.4136119 58.1600531 38.4136119"></polygon>
                    <polygon id="Fill-35" fill="#E0E0E0" points="29.8271816 33.2903284 33.267046 33.2903284 33.267046 32.5058507 29.8271816 32.5058507"></polygon>
                    <polygon id="Fill-36" fill="#1487E3" points="21.973066 33.2903284 28.7878715 33.2903284 28.7878715 32.5058507 21.973066 32.5058507"></polygon>
                    <polygon id="Fill-37" fill="#E0E0E0" points="21.973066 36.2444776 25.731645 36.2444776 25.731645 35.46 21.973066 35.46"></polygon>
                    <polygon id="Fill-38" fill="#78C2FF" points="30.9416097 9.57170149 36.3227358 9.57170149 36.3227358 8.78722388 30.9416097 8.78722388"></polygon>
                    <polygon id="Fill-39" fill="#1487E3" points="30.9416097 18.4336119 36.3227358 18.4336119 36.3227358 17.6491343 30.9416097 17.6491343"></polygon>
                    <polygon id="Fill-40" fill="#E0E0E0" points="28.2513149 21.3877612 30.5504599 21.3877612 30.5504599 20.6032836 28.2513149 20.6032836"></polygon>
                    <polygon id="Fill-41" fill="#78C2FF" points="25.9521698 24.3854328 31.1165271 24.3854328 31.1165271 23.6004179 25.9521698 23.6004179"></polygon>
                    <polygon id="Fill-42" fill="#1487E3" points="31.897217 24.3854328 39.0264446 24.3854328 39.0264446 23.6004179 31.897217 23.6004179"></polygon>
                    <polygon id="Fill-43" fill="#1487E3" points="54.4749823 36.2444776 61.6042099 36.2444776 61.6042099 35.46 54.4749823 35.46"></polygon>
                    <polygon id="Fill-44" fill="#1487E3" points="21.973066 21.4092537 27.3541922 21.4092537 27.3541922 20.6247761 21.973066 20.6247761"></polygon>
                    <polygon id="Fill-45" fill="#1487E3" points="21.973066 24.3854328 25.1661144 24.3854328 25.1661144 23.6004179 21.973066 23.6004179"></polygon>
                    <polygon id="Fill-46" fill="#FF8761" points="31.6343042 21.4092537 34.646533 21.4092537 34.646533 20.6247761 31.6343042 20.6247761"></polygon>
                    <polygon id="Fill-47" fill="#FF8761" points="22.062671 39.1980896 25.0754363 39.1980896 25.0754363 38.4136119 22.062671 38.4136119"></polygon>
                    <polygon id="Fill-48" fill="#78C2FF" points="21.9516038 15.4794627 27.33273 15.4794627 27.33273 14.6949851 21.9516038 14.6949851"></polygon>
                    <polygon id="Fill-49" fill="#78C2FF" points="26.7103243 30.3361791 32.0914505 30.3361791 32.0914505 29.5517015 26.7103243 29.5517015"></polygon>
                    <polygon id="Fill-50" fill="#78C2FF" points="26.7763208 36.2444776 32.1579835 36.2444776 32.1579835 35.46 26.7763208 35.46"></polygon>
                    <polygon id="Fill-51" fill="#78C2FF" points="36.3361498 36.2444776 41.7172759 36.2444776 41.7172759 35.46 36.3361498 35.46"></polygon>
                    <polygon id="Fill-52" fill="#78C2FF" points="21.9516038 18.4336119 29.622217 18.4336119 29.622217 17.6491343 21.9516038 17.6491343"></polygon>
                    <polygon id="Fill-53" fill="#78C2FF" points="57.8971403 9.57170149 63.2782665 9.57170149 63.2782665 8.78722388 57.8971403 8.78722388"></polygon>
                    <polygon id="Fill-54" fill="#78C2FF" points="38.7275825 39.1980896 44.1087087 39.1980896 44.1087087 38.4136119 38.7275825 38.4136119"></polygon>
                    <polygon id="Fill-55" fill="#78C2FF" points="64.9528597 9.57170149 68.5547642 9.57170149 68.5547642 8.78722388 64.9528597 8.78722388"></polygon>
                    <polygon id="Fill-56" fill="#1487E3" points="37.7714387 9.57170149 44.627559 9.57170149 44.627559 8.78722388 37.7714387 8.78722388"></polygon>
                    <polygon id="Fill-57" fill="#1487E3" points="64.9523231 39.1980896 71.8084434 39.1980896 71.8084434 38.4136119 64.9523231 38.4136119"></polygon>
                    <polygon id="Fill-58" fill="#1487E3" points="26.2129363 39.1980896 33.06852 39.1980896 33.06852 38.4136119 26.2129363 38.4136119"></polygon>
                    <polygon id="Fill-59" fill="#1487E3" points="64.4844458 12.5253134 71.3400295 12.5253134 71.3400295 11.7408358 64.4844458 11.7408358"></polygon>
                    <polygon id="Fill-60" fill="#1487E3" points="56.0755307 15.4794627 62.9316509 15.4794627 62.9316509 14.6949851 56.0755307 14.6949851"></polygon>
                    <polygon id="Fill-61" fill="#1487E3" points="50.1186792 39.1980896 56.974263 39.1980896 56.974263 38.4136119 50.1186792 38.4136119"></polygon>
                    <polygon id="Fill-62" fill="#1487E3" points="49.0632724 33.2903284 55.9188561 33.2903284 55.9188561 32.5058507 49.0632724 32.5058507"></polygon>
                    <polygon id="Fill-63" fill="#1487E3" points="47.1499116 18.4336119 54.0054953 18.4336119 54.0054953 17.6491343 47.1499116 17.6491343"></polygon>
                    <polygon id="Fill-64" fill="#FF8761" points="34.3433785 33.2903284 35.821592 33.2903284 35.821592 32.5058507 34.3433785 32.5058507"></polygon>
                    <polygon id="Fill-65" fill="#78C2FF" points="63.794434 15.4794627 68.6679776 15.4794627 68.6679776 14.6949851 63.794434 14.6949851"></polygon>
                    <polygon id="Fill-66" fill="#FF8761" points="49.6980189 9.57170149 56.5536026 9.57170149 56.5536026 8.78722388 49.6980189 8.78722388"></polygon>
                    <polygon id="Fill-67" fill="#FF8761" points="41.8750236 18.4336119 45.8949057 18.4336119 45.8949057 17.6491343 41.8750236 17.6491343"></polygon>
                    <polygon id="Fill-68" fill="#FF8761" points="38.7275825 30.3802388 42.7474646 30.3802388 42.7474646 29.5957612 38.7275825 29.5957612"></polygon>
                    <polygon id="Fill-69" fill="#E0E0E0" points="45.8949057 9.57170149 48.4043809 9.57170149 48.4043809 8.78722388 45.8949057 8.78722388"></polygon>
                    <polygon id="Fill-70" fill="#E0E0E0" points="37.7714387 18.4336119 40.2809139 18.4336119 40.2809139 17.6491343 37.7714387 17.6491343"></polygon>
                    <polygon id="Fill-71" fill="#1487E3" points="21.8866804 12.5253134 25.8126651 12.5253134 25.8126651 11.7408358 21.8866804 11.7408358"></polygon>
                    <polygon id="Fill-72" fill="#1487E3" points="32.361875 27.3825672 35.4615625 27.3825672 35.4615625 26.5980896 32.361875 26.5980896"></polygon>
                    <polygon id="Fill-73" fill="#1487E3" points="26.7763208 12.5253134 28.044204 12.5253134 28.044204 11.7408358 26.7763208 11.7408358"></polygon>
                    <polygon id="Fill-74" fill="#E0E0E0" points="52.8009257 12.5253134 63.2782665 12.5253134 63.2782665 11.7408358 52.8009257 11.7408358"></polygon>
                    <polygon id="Fill-75" fill="#E0E0E0" points="42.7474646 36.2444776 53.2248054 36.2444776 53.2248054 35.46 42.7474646 35.46"></polygon>
                    <polygon id="Fill-76" fill="#FF8761" points="28.9756663 12.5253134 30.2693042 12.5253134 30.2693042 11.7408358 28.9756663 11.7408358"></polygon>
                    <polygon id="Fill-77" fill="#1487E3" points="48.4049175 12.5253134 51.832441 12.5253134 51.832441 11.7408358 48.4049175 11.7408358"></polygon>
                    <polygon id="Fill-78" fill="#FF8761" points="51.8319045 15.4794627 55.2605012 15.4794627 55.2605012 14.6949851 51.8319045 14.6949851"></polygon>
                    <polygon id="Fill-79" fill="#FF8761" points="44.1811439 33.2903284 47.609204 33.2903284 47.609204 32.5058507 44.1811439 32.5058507"></polygon>
                    <polygon id="Fill-80" fill="#FF8761" points="34.2054835 39.1980896 37.6335436 39.1980896 37.6335436 38.4136119 34.2054835 38.4136119"></polygon>
                    <polygon id="Fill-81" fill="#1487E3" points="40.2036498 12.5253134 47.4976002 12.5253134 47.4976002 11.7408358 40.2036498 11.7408358"></polygon>
                    <polygon id="Fill-82" fill="#1487E3" points="57.173862 33.2903284 64.4678125 33.2903284 64.4678125 32.5058507 57.173862 32.5058507"></polygon>
                    <polygon id="Fill-83" fill="#1487E3" points="33.4145991 30.3802388 37.675395 30.3802388 37.675395 29.5957612 33.4145991 29.5957612"></polygon>
                    <polygon id="Fill-84" fill="#1487E3" points="33.1404186 36.2444776 35.2710849 36.2444776 35.2710849 35.46 33.1404186 35.46"></polygon>
                    <polygon id="Fill-85" fill="#78C2FF" points="36.6586203 12.5253134 39.1686321 12.5253134 39.1686321 11.7408358 36.6586203 11.7408358"></polygon>
                    <polygon id="Fill-86" fill="#FF8761" points="62.5394281 36.2444776 65.0489033 36.2444776 65.0489033 35.46 62.5394281 35.46"></polygon>
                    <polygon id="Fill-87" fill="#FF8761" points="28.2121462 15.4794627 30.7216215 15.4794627 30.7216215 14.6949851 28.2121462 14.6949851"></polygon>
                    <polygon id="Fill-88" fill="#FF8761" points="28.7127535 27.3825672 31.2222288 27.3825672 31.2222288 26.5980896 28.7127535 26.5980896"></polygon>
                    <polygon id="Fill-89" fill="#1487E3" points="31.3300767 12.5253134 35.7019399 12.5253134 35.7019399 11.7408358 31.3300767 11.7408358"></polygon>
                    <g id="Group-25" transform="translate(0.000000, 9.671642)">
                        <path d="M8.67615927,32.7850925 C8.67562272,32.7850925 8.67401305,32.7845552 8.67293993,32.7850925 C8.68689041,32.7915403 8.68903663,32.7920776 8.67615927,32.7850925" id="Fill-90" fill="#323657"></path>
                        <polygon id="Fill-91" fill="#F9AF8B" points="11.4959788 51.2011881 11.4959788 53.0350388 12.8625885 53.0350388 12.9720461 51.0883522"></polygon>
                        <path d="M14.6885443,26.0948955 C14.6885443,26.0948955 14.6166457,27.3258806 14.5082613,29.1210448 C14.2598356,33.2228955 13.8198592,40.2708358 13.6084559,42.3217612 C13.2334028,45.9550746 13.2146233,51.4603881 13.2146233,51.4603881 L11.2186327,51.4603881 C10.9959618,46.8411045 10.5817401,32.3798507 10.4679901,28.3580597 C10.4492106,27.6907164 10.4384794,27.3108358 10.4384794,27.3108358 L13.7989334,26.3501194 L14.0629193,26.2743582 L14.6885443,26.0948955 Z" id="Fill-92" fill="#2A3554"></path>
                        <polygon id="Fill-93" fill="#4A5180" points="10.9981616 50.7388836 11.0877666 51.653391 13.4818822 51.653391 13.5537807 50.7388836"></polygon>
                        <path d="M11.8795095,52.8461731 C11.8795095,52.8461731 11.5785013,52.4512478 11.3434895,52.4711284 C11.1084777,52.491009 9.30993993,53.9562627 8.6896805,54.0830687 C8.06888451,54.2093373 8.19497531,54.666591 8.31194465,54.8992478 C8.42837743,55.1324418 13.2708008,54.7547104 13.2708008,54.7547104 C13.2708008,54.7547104 13.3877701,53.3082627 13.2241204,52.868203 C13.0610072,52.4286806 12.3667029,52.9455761 11.8795095,52.8461731" id="Fill-94" fill="#FF5767"></path>
                        <polygon id="Fill-95" fill="#F9AF8B" points="16.9396139 51.4231522 16.9970254 52.9561075 18.3952919 52.8808836 18.4264122 51.2538985"></polygon>
                        <path d="M17.6115974,52.5229791 C17.6115974,52.5229791 18.2629771,52.3795164 18.4411139,52.3913373 C18.6187141,52.4026209 19.7524582,53.7915761 20.1505832,53.8882925 C20.8727884,54.0634567 20.8228886,55.2020239 20.3770101,55.2390985 C19.0876646,55.3454866 16.9183662,54.7055463 16.9183662,54.7055463 C16.9183662,54.7055463 16.7815443,53.2343821 16.8899287,52.7803522 C16.9977766,52.3252478 17.2472754,52.6417254 17.6115974,52.5229791" id="Fill-96" fill="#FF5767"></path>
                        <path d="M19.4274659,27.3348 C19.4274659,27.3348 19.4097595,27.9736657 19.3791758,29.0509791 C19.2445001,33.8067403 18.8592524,47.0923522 18.646776,51.4843522 L16.8375072,51.4843522 C16.722684,51.4580239 16.532743,45.7007104 16.5558149,42.8620836 C16.5708385,41.1308597 15.8872654,33.6052478 15.4778727,29.2551582 C15.3024187,27.3971284 15.177401,26.1183224 15.177401,26.1183224 L15.7016168,26.2687701 L15.9693586,26.345606 L19.4274659,27.3348 Z" id="Fill-97" fill="#2A3554"></path>
                        <polygon id="Fill-98" fill="#4A5180" points="16.4051498 50.7625254 16.4952913 51.6775701 18.8888704 51.6775701 18.9613055 50.7625254"></polygon>
                        <path d="M17.9053084,14.1879761 L19.5122955,19.6261254 L19.5423426,19.7282149 C19.5423426,19.7529313 19.5434158,19.7787224 19.5439523,19.8072 C19.5997542,21.1569313 20.8386634,25.3377672 20.7318886,26.0378866 C20.6218945,26.7519761 20.6084806,27.7524537 20.848858,28.2113194 C21.0806504,28.6524537 21.3145891,29.3805134 21.4948721,29.006006 C21.6751551,28.6309612 21.303858,27.5912597 21.5072129,27.5633194 C21.7105679,27.5343045 22.181128,28.4203343 22.0147955,29.3993194 C21.849536,30.3772299 22.436529,30.6394388 22.3919948,30.1569313 C22.3479971,29.6728119 22.7348544,29.0860657 22.716075,28.3483343 C22.6983686,27.6552 21.9504087,26.1002149 21.9504087,26.1002149 C21.9504087,26.1002149 21.9176787,21.8651104 21.4932625,19.8276179 C21.0693827,17.7901254 19.6083391,12.0354985 19.6083391,12.0354985 C18.6967294,11.8372299 17.9053084,14.1879761 17.9053084,14.1879761" id="Fill-99" fill="#F9AF8B"></path>
                        <path d="M19.6467566,27.3474269 C17.3899995,28.8228896 12.8222931,28.7922627 10.2183839,27.4328597 C10.4673462,25.8816358 11.1208721,21.897994 11.0505832,19.8336358 C11.0425349,19.6074269 11.0334134,19.3822925 11.0216092,19.1593075 C11.0119511,18.9653373 11.0001469,18.7729791 10.9883426,18.5827701 C10.7635254,15.1471881 10.1781422,12.3386507 10.4657365,11.9759642 C10.5912908,11.8169194 10.8005478,11.6455164 11.0591681,11.4698149 C11.1605773,11.4005015 11.2689618,11.3306507 11.3832483,11.2608 C11.6536728,11.0953075 11.9541445,10.9292776 12.2556893,10.7675463 C12.9709193,10.3849791 13.6974169,10.0298149 14.0617389,9.78694925 C14.4228415,9.9449194 14.7104358,10.0308896 15.020029,10.0292776 C15.0286139,10.0292776 15.0377353,10.0292776 15.0468568,10.028203 C15.0549051,10.0292776 15.0640266,10.0292776 15.0726115,10.0292776 C15.3827412,10.0308896 15.6703356,9.9449194 16.0319747,9.78694925 C16.3694688,10.0120836 17.005825,10.3258746 17.6550584,10.6681433 C18.1315207,10.9201433 18.6154948,11.1871881 18.9921575,11.4461731 C19.2389735,11.6154269 19.4407188,11.781994 19.5635903,11.9378149 C19.7063143,12.1178149 19.6467566,12.906591 19.5244217,14.0752478 C19.4036964,15.2250985 19.2228768,16.7440836 19.1139559,18.4129791 C19.0839087,18.8761433 19.0586905,19.3511284 19.0425938,19.8336358 C18.9723049,21.897994 19.3977943,25.796203 19.6467566,27.3474269" id="Fill-100" fill="#005DB1"></path>
                        <path d="M17.9644906,23.2110269 C18.0127807,23.2115642 18.0519494,23.2507881 18.0514128,23.2991463 C18.0514128,23.3475045 18.0122442,23.386191 17.9644906,23.386191 L17.9639541,23.386191" id="Fill-101" fill="#004386"></path>
                        <path d="M17.6545755,10.6684119 C17.2151357,11.6726507 16.1817277,13.0352776 14.7764859,12.7918746 C13.4152418,12.555994 12.7214741,11.5130687 12.2552064,10.7672776 C12.970973,10.3847104 13.6974706,10.0300836 14.0617925,9.78721791 C14.4228951,9.94465075 14.7104895,10.0306209 15.0200826,10.0295463 C15.028131,10.0295463 15.037789,10.0295463 15.0469105,10.0284716 C15.0549588,10.0295463 15.0646168,10.0295463 15.0726652,10.0295463 C15.3827949,10.0306209 15.6703892,9.94465075 16.0320284,9.78721791 C16.3695225,10.0118149 17.0058786,10.3261433 17.6545755,10.6684119" id="Fill-102" fill="#F9AF8B"></path>
                        <path d="M15.0729334,10.0644179 L15.0729334,10.0654925 C15.0643485,10.0654925 15.0552271,10.0654925 15.0466422,10.0649552 C15.0552271,10.0649552 15.0643485,10.0644179 15.0729334,10.0644179" id="Fill-103" fill="#2A3554"></path>
                        <path d="M16.8418533,1.6801791 C16.8418533,1.80537313 16.8279028,1.9278806 16.8021481,2.04501493 C16.753858,2.26316418 16.6637165,2.46519403 16.5403084,2.64250746 C16.2366174,3.07665672 15.7338639,3.36089552 15.1640408,3.36089552 C14.6317766,3.36089552 14.1579971,3.11319403 13.8500136,2.72632836 C13.6960219,2.53235821 13.583345,2.30346269 13.5270066,2.05253731 C13.4996422,1.93271642 13.4856917,1.8080597 13.4856917,1.6801791 C13.4856917,0.752238806 14.2368709,5.68434189e-14 15.1640408,5.68434189e-14 C16.090674,5.68434189e-14 16.8418533,0.752238806 16.8418533,1.6801791" id="Fill-104" fill="#2A3554"></path>
                        <path d="M16.802309,2.04485373 C16.7540189,2.26300299 16.6638774,2.46503284 16.5404694,2.64234627 L16.45623,2.72670448 L13.8501746,2.72670448 C13.6956463,2.53219701 13.583506,2.30330149 13.5271675,2.05291343 C13.8088597,1.90998806 14.3829753,1.68001791 15.1636652,1.68001791 C15.9309411,1.68001791 16.5088126,1.90192836 16.802309,2.04485373" id="Fill-105" fill="#FF5767"></path>
                        <path d="M16.0393792,8.41287761 L16.0393792,9.78732537 C16.0393792,9.78732537 15.6299865,10.4869075 15.0767967,10.5347284 C14.5236068,10.5830866 14.0321209,9.9324 14.0321209,9.9324 L14.0321209,8.50959403 L16.0393792,8.41287761 Z" id="Fill-106" fill="#F9AF8B"></path>
                        <path d="M17.4863651,4.88310448 C17.4611469,5.41719403 17.4096375,6.08507463 17.3082283,6.61916418 C17.2830101,6.75241791 17.254036,6.87761194 17.2223792,6.98991045 C16.9331752,8.00274627 16.21097,9.7398806 14.1886882,9.0161194 C13.2947849,8.69695522 12.8810997,7.70077612 12.6965243,6.68740299 C12.5715066,5.99910448 12.5527271,5.3038209 12.5618485,4.80680597 C12.5715066,4.29958209 12.8478332,3.8358806 13.2888827,3.58549254 C14.4821846,2.9079403 15.7420195,3.16047761 16.571536,3.4801791 C17.1472613,3.70155224 17.5158757,4.26734328 17.4863651,4.88310448" id="Fill-107" fill="#F9AF8B"></path>
                        <path d="M17.7486339,4.77682388 C17.7277082,4.83646567 17.6697601,4.87461493 17.5919594,4.89718209 C17.597325,5.04118209 17.5823014,5.21419701 17.5683509,5.38022687 C17.4878674,6.32374925 17.2501728,6.4897791 17.1965172,6.25658507 C17.1611044,6.10130149 17.1627141,5.21312239 17.1798839,4.92243582 C16.9936988,4.91061493 16.834878,4.87945075 16.834878,4.87945075 L16.6164995,3.96333134 L16.5397719,4.86816716 C16.2119358,4.98207761 15.4468061,4.79939104 15.4468061,4.79939104 L15.190332,3.89670448 L15.0315113,4.76500299 C14.5400254,5.00518209 13.9251316,4.84506269 13.9251316,4.84506269 L13.7840172,3.90852537 L13.4577908,4.84506269 C13.4577908,4.84506269 13.1540997,4.95413731 12.8718709,4.99604776 C12.8707978,5.28888358 12.8525549,6.08410746 12.706075,6.03843582 C12.5504735,5.9895403 12.4673073,5.35712239 12.4876964,4.97992836 C12.4329676,4.95413731 12.3991646,4.91115224 12.3970184,4.84506269 C12.3905797,4.62583881 12.3685809,3.94613731 12.559595,3.48673433 C12.819825,2.86237612 13.1396127,2.48410746 13.6171481,2.26488358 C14.7385514,1.74906269 16.3305148,1.96882388 16.7887342,2.2734806 C18.0206681,3.09288358 17.7486339,4.77682388 17.7486339,4.77682388" id="Fill-108" fill="#2A3554"></path>
                        <path d="M10.9882353,18.5825015 C10.7634181,15.1469194 10.1780349,12.3389194 10.4656292,11.9762328 C10.5911834,11.8171881 10.8004405,11.6452478 11.0590608,11.4700836 C11.3219735,12.7053672 11.9867672,16.4246507 10.9882353,18.5825015" id="Fill-109" fill="#F9AF8B"></path>
                        <path d="M19.524368,14.0751403 C19.4036428,15.2255284 19.2228232,16.7439761 19.1139022,18.4128716 C18.2291204,16.260394 18.7297277,12.6958567 18.9921038,11.4460657 C19.2389199,11.6153194 19.4406652,11.7818866 19.5635366,11.9377075 C19.7062607,12.1177075 19.6467029,12.9064836 19.524368,14.0751403" id="Fill-110" fill="#F9AF8B"></path>
                        <path d="M11.4776286,15.6345851 L10.4823161,18.8358985 L9.39256965,21.8792418 C9.21711564,22.5164955 8.5152996,22.8442567 7.91489277,22.5696896 L7.88377248,22.5557194 C6.84714512,22.0651522 7.41857791,20.0292716 7.41857791,20.0292716 L7.61442107,20.0136896 C7.694368,19.7901672 7.9095272,19.2216896 8.18317107,18.5076 C8.21643758,18.4200179 8.2507772,18.3292119 8.28618993,18.2378687 C8.3446746,18.085809 8.40476894,17.9294507 8.46647295,17.768794 C8.55393168,17.5415104 8.64407319,17.3067045 8.73528781,17.0708239 C9.40759324,15.3261672 9.96400243,13.4321373 9.96400243,13.4321373 L10.4275873,12.0528537 L11.4776286,15.6345851 Z" id="Fill-111" fill="#F9AF8B"></path>
                        <path d="M8.53364984,20.7280478 C8.53364984,20.7280478 8.39092578,18.409003 7.89675715,17.9157493 C7.40258852,17.4224955 6.95134442,17.2344358 6.48775951,17.2510925 C6.02471116,17.2682866 5.5890272,17.3252418 5.6174647,17.5159881 C5.6174647,17.5159881 4.5529364,17.3553313 4.07754725,17.6315104 C3.6021581,17.9076896 5.48493522,18.1494806 6.0440272,18.1645254 C6.60311918,18.1790328 6.89876187,18.4917493 6.92129725,18.8254209 C6.94383262,19.1590925 7.26630314,21.3690627 7.26630314,21.3690627 L8.53364984,20.7280478 Z" id="Fill-112" fill="#F9AF8B"></path>
                        <path d="M9.09767814,17.6663284 L2.04142225,17.7136119 C1.77636328,17.7157612 1.55959442,17.5013731 1.55796875,17.2359403 L1.55796875,17.2316418 C1.55583852,16.9656716 1.7699246,16.7491343 2.03498357,16.7469851 L9.09123946,16.6996925 C9.35629843,16.6980896 9.57306729,16.9124776 9.57469296,17.1779104 L9.57469296,17.182209 C9.57682319,17.4481791 9.3627371,17.6647164 9.09767814,17.6663284" id="Fill-113" fill="#5B5B5B"></path>
                        <path d="M1.56286741,17.7166746 L0.018120949,12.0754209 C-0.0688012208,11.7589433 0.167820241,11.4456896 0.496192883,11.4435403 L3.81211269,11.4214974 C4.0358568,11.4198985 4.23330963,11.5676597 4.29501364,11.7831224 L5.9942884,17.6871224 L1.56286741,17.7166746 Z" id="Fill-114" fill="#BCBCBC"></path>
                        <path d="M4.29538923,11.7829075 L5.98017696,17.6385493 L6.35898593,17.6358627 L4.67419819,11.7802209 C4.61195762,11.5647582 4.41504135,11.416997 4.19129725,11.4185959 L3.81195173,11.4212955 C4.03623239,11.4196836 4.23314866,11.5674448 4.29538923,11.7829075" id="Fill-115" fill="#5B5B5B"></path>
                        <path d="M3.46308262,14.8171164 C3.55161446,15.1889373 3.32196824,15.4930567 2.94959795,15.4957548 C2.57722767,15.4978925 2.20378427,15.1980716 2.11525243,14.8262507 C2.0267206,14.4538925 2.25636682,14.1503104 2.6287371,14.1476239 C3.00110739,14.1449373 3.37455078,14.4452955 3.46308262,14.8171164" id="Fill-116" fill="#FFF9FF"></path>
                    </g>
                    <g id="Group-24" transform="translate(76.727594, 10.208955)">
                        <path d="M13.294263,16.9126521 C12.4878184,19.139279 10.8593691,21.1966521 10.8593691,21.1966521 C9.82596108,21.61307 7.08308373,22.4389208 6.16235259,22.2003536 C6.25517689,21.5657864 6.22298349,21.1165924 6.16235259,20.3267417 C7.4382842,20.35307 9.80879127,19.075876 9.80879127,19.075876 C11.7725884,14.7462044 12.6090802,11.3014879 12.6090802,11.3014879 C13.5958078,13.6941447 13.294263,16.9126521 13.294263,16.9126521" id="Fill-117" fill="#E22445"></path>
                        <g id="Group-23" transform="translate(10.571964, 0.000000)">
                            <path d="M3.85566724,51.7482939 C3.85566724,51.7482939 3.56485356,51.3270402 3.32125686,51.3356372 C3.07819672,51.3453088 1.15571441,52.7691894 0.510773374,52.8702044 C-0.13470422,52.970682 -0.0263197864,53.4478163 0.0826012041,53.6933685 C0.191522195,53.9389208 5.19866842,53.779876 5.19866842,53.779876 C5.19866842,53.779876 5.38699979,52.2958163 5.23998328,51.8348014 C5.09243021,51.3737864 4.35305521,51.8729506 3.85566724,51.7482939" id="Fill-119" fill="#005DB1"></path>
                            <path d="M12.6734385,47.6864193 L13.8232793,49.0544193 C13.8232793,49.0544193 13.6649951,49.7045685 12.9030847,50.2429566 L11.531646,48.6718521 L12.6734385,47.6864193 Z" id="Fill-120" fill="#F9AF8B"></path>
                            <path d="M13.0546619,49.7900551 C13.0546619,49.7900551 12.5492256,49.71107 12.3882586,49.8932193 C12.2272917,50.0764432 11.9337952,52.4529805 11.562498,52.9908312 C11.1906643,53.528682 11.6102516,53.7785327 11.8635063,53.8688014 C12.1162244,53.95907 15.4503872,50.21507 15.4503872,50.21507 C15.4503872,50.21507 14.5065841,49.0555476 14.0709001,48.8443835 C13.6357527,48.6342939 13.4881997,49.5149506 13.0546619,49.7900551" id="Fill-121" fill="#005DB1"></path>
                            <path d="M6.21200922,28.8107059 L7.09840073,38.4130342 C7.09840073,38.4130342 8.42530521,39.9013924 9.42276394,41.7207357 C10.2597922,43.2477805 12.864238,47.7526163 12.864238,47.7526163 L11.6897156,48.6622879 L3.58502809,40.804079 L1.78327102,28.716676 L6.21200922,28.8107059 Z" id="Fill-122" fill="#021019"></path>
                            <path d="M11.2532268,48.7873208 C11.3744886,49.0919775 11.6009155,49.2999178 11.8659744,49.4740073 L13.4327197,48.1489924 C13.3012634,47.8706641 13.1215169,47.6299476 12.8988459,47.423082 L11.2532268,48.7873208 Z" id="Fill-123" fill="#2A3554"></path>
                            <path d="M12.1812014,29.2105208 C12.1812014,29.2105208 10.0998984,34.334879 7.39457998,38.3314163 C7.39457998,38.3314163 6.99055286,42.2204909 6.30000451,44.2902223 C5.99738658,45.1972073 5.4420505,49.3984611 5.4420505,49.3984611 L3.35913776,49.3984611 L3.88871913,37.4572073 L6.05962715,28.8075357 L12.1812014,29.2105208 Z" id="Fill-124" fill="#021019"></path>
                            <path d="M3.16844554,49.3282879 C3.03806229,49.6850641 3.07401158,50.0396909 3.16844554,50.3943178 L5.54324507,50.4609447 C5.64411771,50.1192133 5.67416488,49.7721088 5.64143493,49.4212432 L3.16844554,49.3282879 Z" id="Fill-125" fill="#021019"></path>
                            <path d="M12.2511148,26.5024611 C12.2516513,26.5755357 12.2511148,26.648073 12.2511148,26.7189984 C12.2495051,28.0198342 12.2430664,29.0283715 12.2366277,29.5232372 C10.9816218,29.8638939 9.72661594,30.0836551 8.47161005,30.1852073 C8.41419849,30.1895059 8.35839661,30.1938044 8.30098505,30.1986402 C8.27093788,30.2007894 8.2398176,30.2029387 8.20977043,30.2045506 C8.14216429,30.2088491 8.07455816,30.2131476 8.00748859,30.2163715 C7.93290722,30.2212073 7.85832585,30.2255059 7.78320793,30.229267 C6.92900981,30.2684909 6.0748117,30.2529088 5.22061359,30.1830581 C5.04784236,30.1685506 4.87614425,30.1518939 4.70390958,30.1330879 C4.69264189,30.1320133 4.68191076,30.1309387 4.67064307,30.1298641 C4.62664543,30.1250282 4.58264778,30.1196551 4.53865014,30.114282 C4.51182231,30.1110581 4.48499448,30.1078342 4.45923977,30.1046103 C3.46500038,29.9858641 2.47183411,29.7913566 1.47759472,29.5232372 C1.47544849,29.2986402 1.47383882,28.9655059 1.47383882,28.5453267 C1.47383882,28.466879 1.47383882,28.3868193 1.47491194,28.3029984 L1.47491194,28.3024611 C1.47544849,27.70067 1.47866783,26.953267 1.48510651,26.1075357 C1.48564307,26.0349984 1.48617962,25.9624611 1.48671618,25.8883118 C1.49154519,25.3257447 1.49744731,24.7223417 1.50495911,24.093685 C1.50603222,24.0206103 1.50656877,23.9475357 1.50764189,23.8744611 C1.51569024,23.229685 1.52534826,22.5591178 1.53661594,21.8794163 C1.54359118,21.464073 1.55110297,21.0449685 1.55968788,20.6253267 C1.56827278,20.2003118 1.57685769,19.7747596 1.58705227,19.3518939 C1.58919849,19.2600133 1.59134472,19.1681327 1.59456406,19.0757148 C1.6916808,15.0770282 1.85962302,11.4018044 2.1380959,10.9923715 C2.33125627,10.7081327 2.77337892,10.3749984 3.29383882,10.0386402 C3.3571525,9.99834167 3.42207585,9.95696854 3.48753576,9.9155954 C3.70967019,9.77750585 5.51893906,9.16174466 5.74858528,9.02634167 L7.66087302,8.89255063 C7.67267727,8.8995357 9.50126217,9.51690884 9.51252986,9.5233566 C9.59086712,9.56849093 9.67081406,9.61416257 9.74915132,9.6592969 C10.4268223,10.0504611 11.0948353,10.4625805 11.4795464,10.8177447 C11.5358848,10.8687894 11.5857846,10.9192969 11.6287091,10.9687297 C11.6625122,11.0079536 11.6930959,11.0455656 11.7177775,11.0831775 C11.7408494,11.1170282 11.7633848,11.1734462 11.7843105,11.2513566 C12.016103,12.0933267 12.1373648,15.4015656 12.1974591,19.0015656 C12.2017516,19.259476 12.206044,19.5189984 12.2092634,19.7790581 C12.210873,19.8929685 12.2124827,20.0074163 12.2140924,20.1224014 C12.215702,20.2003118 12.2173117,20.2798342 12.2178483,20.358282 C12.2178483,20.3985805 12.2183848,20.437267 12.2189214,20.4770282 C12.2216042,20.6726103 12.2237504,20.8681924 12.22536,21.0626999 C12.2269697,21.2066999 12.2285794,21.3496253 12.2301891,21.4936253 C12.2473589,23.3065208 12.2527244,25.0672969 12.2511148,26.5024611" id="Fill-126" fill="#FF5767"></path>
                            <path d="M12.209478,19.7792193 C12.0200735,18.9963536 11.7823789,18.1259059 11.5468306,17.3758163 C11.546294,17.3742044 11.5457575,17.3731297 11.5452209,17.3720551 C11.4722492,17.1399357 11.3998141,16.9201745 11.328452,16.7181447 C11.3273789,16.7143835 11.3263058,16.7106223 11.3252327,16.7073984 C11.3032339,16.6439954 11.2806985,16.5822044 11.2586997,16.5220253 C11.2554803,16.5118163 11.2533341,16.50107 11.2533341,16.4913984 L11.2533341,16.4908611 C11.2533341,16.4548611 11.2758695,16.4210103 11.3118188,16.4081148 C11.3579626,16.3909208 11.4094721,16.4145626 11.4261053,16.4613088 C11.6675558,17.1211297 11.9530039,18.0700253 12.1976737,19.0017267 C12.2019662,19.2590999 12.2057221,19.5191596 12.209478,19.7792193" id="Fill-127" fill="#E22445"></path>
                            <path d="M4.23791017,3.70468197 C4.23791017,3.70468197 3.16855286,3.33071182 3.27532762,2.497876 C3.36600569,1.7896969 4.15152455,2.24909988 4.08230875,1.69512973 C4.01362951,1.14115958 3.85963776,0.637696897 4.53569908,0.499070031 C5.12698446,0.377637195 5.13717903,0.807487941 5.91357644,0.184204359 C6.83055168,-0.551915044 7.53558705,1.15244317 8.35383587,1.20402525 C9.56162479,1.27924914 9.71400686,2.00301033 9.83258587,2.58277152 C9.95116488,3.16145809 9.3673913,3.8416969 9.3673913,3.8416969 L4.23791017,3.70468197 Z" id="Fill-128" fill="#2A3554"></path>
                            <path d="M7.8336979,7.660276 L7.8336979,9.11532078 C7.8336979,9.11532078 7.40016017,9.85681331 6.81424036,9.90732078 C6.2288571,9.95836555 5.70893375,9.26899242 5.70893375,9.26899242 L5.70893375,7.76236555 L7.8336979,7.660276 Z" id="Fill-129" fill="#F9AF8B"></path>
                            <path d="M9.36556701,3.92320734 C9.33927573,4.48899839 9.28562007,5.19610287 9.17723564,5.76081928 L9.17723564,5.76296854 C9.17723564,5.76458048 9.17669908,5.76619242 9.17616252,5.76834167 C9.17616252,5.76887899 9.17562597,5.76887899 9.17562597,5.7694163 C9.14933469,5.90696854 9.11928752,6.03699839 9.08655757,6.1535954 C9.06724153,6.22237152 9.04631583,6.29437152 9.02217078,6.36744615 C8.67770144,7.4495954 7.87984177,9.01586406 5.87419319,8.29908794 C5.02965309,7.99765511 4.58967668,7.12452078 4.36539602,6.17669988 C4.35251866,6.12028197 4.34017786,6.06440137 4.32891017,6.01067003 C4.32139837,5.97467003 4.31442314,5.93974466 4.30798446,5.9053566 L4.29832644,5.85538645 C4.29671677,5.84625212 4.29564366,5.84034167 4.2951071,5.83658048 C4.29457054,5.83443123 4.29457054,5.8333566 4.29457054,5.8333566 C4.16204106,5.10475958 4.14218847,4.36810287 4.15184649,3.84207302 C4.16204106,3.3052969 4.45500097,2.81419242 4.92180521,2.5492969 C6.18485946,1.83144615 7.51927573,2.09956555 8.39708234,2.4375357 C9.00714719,2.67180436 9.39722385,3.27090884 9.36556701,3.92320734" id="Fill-130" fill="#F9AF8B"></path>
                            <path d="M5.88004165,7.505476 C5.78238835,7.45067003 5.63698151,7.34481928 5.47816076,7.19974466 C5.47816076,7.19974466 5.25334354,6.42762525 6.68487656,6.62105809 C8.12016547,6.37389391 7.87764189,7.09496854 7.85349684,7.24595361 L7.85349684,7.24649093 L7.85296028,7.24649093 C7.7563801,7.33944615 7.65711712,7.4173566 7.55839071,7.47055063 L5.88004165,7.505476 Z M9.17771854,5.76081928 L8.86919849,5.73932675 C8.86919849,5.73932675 8.69374448,6.10416257 8.43405109,6.50607302 C8.17489425,5.93490884 6.92364425,6.35025212 6.92364425,6.35025212 C6.84477043,6.37550585 6.76321382,6.38840137 6.68165722,6.38840137 C6.60171028,6.38840137 6.52229991,6.37604317 6.44557231,6.35240137 L6.43913363,6.35025212 C6.43913363,6.35025212 5.17339661,5.95210287 4.92389778,6.55120734 C4.77097915,6.31693869 4.64596146,6.05311779 4.58962302,5.77371481 L4.29451689,5.8333566 C4.29451689,5.8333566 4.29451689,5.83443123 4.29505344,5.83658048 C4.29559,5.84034167 4.29666311,5.84625212 4.29827278,5.85538645 L4.3079308,5.9053566 C4.31490604,5.93974466 4.32134472,5.97467003 4.32885651,6.01067003 C4.3401242,6.06440137 4.352465,6.12028197 4.36534236,6.17669988 C4.58962302,7.12452078 5.02959944,7.99765511 5.87413953,8.29908794 C7.87978811,9.01586406 8.67764778,7.4495954 9.02211712,6.36744615 C9.09240604,6.07568496 9.16269495,5.81669988 9.17610887,5.7694163 C9.17610887,5.76887899 9.17664543,5.76887899 9.17664543,5.76834167 C9.17718198,5.76619242 9.17771854,5.76458048 9.17771854,5.76296854 C9.17771854,5.7613566 9.17771854,5.76081928 9.17771854,5.76081928 Z" id="Fill-131" fill="#2A3554"></path>
                            <path d="M9.36583528,3.92293869 C9.33900745,4.48872973 9.28535179,5.19583421 9.17750392,5.76108794 L8.86898387,5.7395954 C8.86898387,5.7395954 8.94356524,5.26192376 8.97790486,4.95081928 C9.01278104,4.63971481 9.07126571,4.05834167 8.80620675,3.98580436 C8.54168434,3.91380436 8.6967492,3.25022227 8.32867137,2.96275958 C7.9611301,2.67475958 7.13805227,2.5952372 6.59505698,2.92998346 C6.05259826,3.26365511 5.44146028,2.90472973 5.19142491,2.96275958 C4.94085297,3.02025212 4.60121264,3.36574466 4.69296382,3.68867003 C4.78525156,4.01105809 4.50946146,4.20717749 4.44239189,4.54084914 C4.37532231,4.87505809 4.5894084,5.77344615 4.5894084,5.77344615 L4.29483882,5.83308794 C4.16177278,5.10449093 4.14192019,4.36837152 4.15157821,3.84234167 C4.16177278,3.30502824 4.45473269,2.81446108 4.92153694,2.54956555 C6.18566429,1.83171481 7.51954401,2.0992969 8.39735061,2.43726705 C9.00687892,2.6715357 9.39695557,3.27117749 9.36583528,3.92293869" id="Fill-132" fill="#2A3554"></path>
                        </g>
                        <g id="Group-135" transform="translate(0.000000, 11.432001)">
                            <mask id="mask-2" fill="white">
                                <use xlink:href="#path-1"></use>
                            </mask>
                            <g id="Clip-134"></g>
                            <path d="M16.8006604,19.0241194 L1.27754127,8.02208955 C0.0295106132,7.13659701 -0.266132075,5.40591045 0.617040094,4.1561194 L2.62483491,1.31534328 C3.50854363,0.0650149254 5.23679245,-0.230507463 6.48535967,0.654447761 L22.0084788,11.6570149 C23.257046,12.5419701 23.5526887,14.2726567 22.66898,15.5229851 L20.6617217,18.3632239 C19.778013,19.6135522 18.0492276,19.9096119 16.8006604,19.0241194" id="Fill-133" fill="url(#linearGradient-3)" mask="url(#mask-2)"></path>
                        </g>
                        <g id="Group-22" transform="translate(1.800362, 11.082748)">
                            <polygon id="Fill-136" fill="#E0E0E0" points="4.7457895 5.28576716 1.50015861 2.98499104 1.89828361 2.42134925 5.1439145 4.72212537"></polygon>
                            <polygon id="Fill-137" fill="#E0E0E0" points="7.681398 7.36629851 5.37742394 5.73340299 5.77554894 5.16976119 8.079523 6.80265672"></polygon>
                            <polygon id="Fill-138" fill="#E0E0E0" points="6.02848172 9.38068657 3.87688974 7.85579104 4.2755513 7.29214925 6.42714328 8.81704478"></polygon>
                            <polygon id="Fill-139" fill="#78C2FF" points="19.2233744 15.5472179 16.9194004 13.9143224 17.3175254 13.3506806 19.6214994 14.9835761"></polygon>
                            <polygon id="Fill-140" fill="#1487E3" points="11.2373732 9.88651343 8.30187205 7.80603582 8.69999705 7.24239403 11.6354982 9.32287164"></polygon>
                            <polygon id="Fill-141" fill="#FFC055" points="16.3441044 13.5065552 13.4086032 11.4255403 13.8067282 10.8618985 16.7422294 12.9429134"></polygon>
                            <polygon id="Fill-142" fill="#E0E0E0" points="12.8546621 11.0330328 11.7804758 10.2716597 12.1786008 9.70801791 13.2533237 10.469391"></polygon>
                            <polygon id="Fill-143" fill="#78C2FF" points="1.68103184 6.29903284 0 5.10780896 0.398125 4.54362985 2.07915684 5.73539104"></polygon>
                            <polygon id="Fill-144" fill="#1487E3" points="2.63626356 6.97642388 2.09380483 6.59170746 2.49192983 6.02752836 3.03492512 6.41278209"></polygon>
                            <polygon id="Fill-145" fill="#E0E0E0" points="17.7229475 17.6697134 13.2367978 14.4898925 13.6349228 13.9262507 18.1216091 17.1060716"></polygon>
                            <polygon id="Fill-146" fill="#FFC455" points="3.58908078 7.6517194 3.03535436 7.2594806 3.43347936 6.69530149 3.98774233 7.08807761"></polygon>
                            <polygon id="Fill-147" fill="#1487E3" points="12.8221468 14.1960358 11.3546645 13.155797 11.7527895 12.5921552 13.2208084 13.632394"></polygon>
                            <polygon id="Fill-148" fill="#78C2FF" points="10.9657146 12.8800478 7.84295519 10.6668537 8.24108019 10.1032119 11.3643762 12.316406"></polygon>
                            <polygon id="Fill-149" fill="#E0E0E0" points="7.39949116 10.3524716 6.32530483 9.59109851 6.72342983 9.02745672 7.79815271 9.78882985"></polygon>
                            <path d="M1.08368337,10.1116478 C1.08368337,10.1116478 1.69857724,9.53081194 2.09509257,9.52221493 C2.4916079,9.51361791 1.78603597,10.4281254 1.78603597,10.4281254 C1.78603597,10.4281254 2.6461362,9.32985672 2.94714446,9.48567761 C3.24815271,9.64096119 2.44278125,10.7317075 2.44278125,10.7317075 C2.44278125,10.7317075 3.13923172,10.0767224 3.38175531,10.1729015 C3.62427889,10.2690806 3.06840625,11.0900955 3.06840625,11.0900955 C3.06840625,11.0900955 3.67256899,10.6274687 3.86465625,10.6801254 C4.05674351,10.7322448 3.6698862,11.4801851 3.34580601,11.7767821 C3.02172583,12.0728418 2.72340035,11.5634687 2.72340035,11.5634687 C2.72340035,11.5634687 2.22547583,11.4060358 2.17664917,11.166394 C2.17664917,11.166394 1.69428479,11.0798866 1.55478007,10.835409 C1.55478007,10.835409 0.826672759,10.6049015 1.08368337,10.1116478" id="Fill-150" fill="#F9AF8B"></path>
                            <path d="M14.0406669,14.0853493 L13.7278544,14.1954985 C13.4483084,14.2943642 13.1784204,14.2046328 12.9648709,13.9988418 C12.8704369,13.9080358 12.723957,13.7323343 12.6477659,13.6812896 C12.4326067,13.5372896 11.9185855,13.3508418 11.7656669,13.3938269 C11.6127482,13.4368119 11.7383025,13.7049313 11.8869287,13.7898269 C12.0355548,13.8741851 12.2566162,13.9709015 12.406852,14.1116776 C12.5565513,14.252991 11.8601008,14.8918567 11.5553367,15.0906627 C11.2511091,15.2894687 10.6034853,15.317409 10.6442636,15.614006 C10.6845053,15.9100657 11.1373591,15.7961552 11.1373591,15.7961552 C11.1373591,15.7961552 11.0965808,16.0900657 11.5333379,16.1685134 C11.5333379,16.1685134 11.5542636,16.4350209 11.8354192,16.4823045 C11.8354192,16.4823045 11.9175124,16.8009313 12.2190572,16.7853493 C12.5211386,16.7703045 13.4606492,16.7165731 14.7757494,15.1094687 L14.0406669,14.0853493 Z" id="Fill-151" fill="#F9AF8B"></path>
                            <path d="M13.9597541,13.913194 C13.9597541,13.913194 18.5451669,10.7989254 20.0764994,9.07683582 C20.0764994,9.07683582 20.0308921,6.85773134 19.9219711,5.07653731 C19.8516822,3.92185075 19.8972895,2.76286567 20.0738166,1.61946269 C20.172543,0.978447761 20.3077553,0.361074627 20.4891114,-3.19744231e-14 C20.4891114,-3.19744231e-14 21.6947541,0.476597015 22.1288284,4.67892537 C22.3649133,6.96626866 22.3799369,8.76626866 22.3643768,9.70226866 C22.3557919,10.1740299 22.1722895,10.6253731 21.8482093,10.9681791 C20.8394829,12.0347463 18.3439581,14.3419701 14.9153614,15.2269254 C14.9153614,15.2269254 14.0938933,14.4612537 13.9597541,13.913194" id="Fill-152" fill="#E22445"></path>
                        </g>
                        <path d="M15.68752,50.0224969 L15.4895307,51.7993924 C15.4895307,51.7993924 14.909513,52.1325267 13.9952205,51.9503775 L14.1878443,49.8725864 L15.68752,50.0224969 Z" id="Fill-118" fill="#F9AF8B"></path>
                    </g>
                    <g id="Group-14" transform="translate(3.755950, 6.637003)">
                        <g id="Group-8">
                            <path d="M1.52411417e-12,0.689373134 L1.52411417e-12,3.56829851 C1.52411417e-12,3.94871642 0.308520047,4.25767164 0.688402123,4.25767164 L5.90856132,4.25767164 L7.48496462,4.824 C7.64646816,4.88256716 7.80153302,4.72298507 7.73929245,4.56232836 L7.14317807,3.02077612 L7.14317807,0.689373134 C7.14317807,0.308955224 6.83465802,-2.84217094e-14 6.45423939,-2.84217094e-14 L0.688402123,-2.84217094e-14 C0.308520047,-2.84217094e-14 1.52411417e-12,0.308955224 1.52411417e-12,0.689373134" id="Fill-153" fill="#005DB1"></path>
                            <path d="M4.53508373,2.21077612 C4.53508373,2.4858806 4.75829127,2.70940299 5.03300825,2.70940299 C5.30826179,2.70940299 5.53093278,2.4858806 5.53093278,2.21077612 C5.53093278,1.93513433 5.30826179,1.71214925 5.03300825,1.71214925 C4.75829127,1.71214925 4.53508373,1.93513433 4.53508373,2.21077612" id="Fill-154" fill="#FFF9FF"></path>
                            <path d="M2.95868042,2.21077612 C2.95868042,2.4858806 3.18188797,2.70940299 3.45660495,2.70940299 C3.73185849,2.70940299 3.95452948,2.4858806 3.95452948,2.21077612 C3.95452948,1.93513433 3.73185849,1.71214925 3.45660495,1.71214925 C3.18188797,1.71214925 2.95868042,1.93513433 2.95868042,2.21077612" id="Fill-155" fill="#FFF9FF"></path>
                        </g>
                        <path d="M1.38227712,2.21077612 C1.38227712,2.4858806 1.60548467,2.70940299 1.88020165,2.70940299 C2.15545519,2.70940299 2.37812618,2.4858806 2.37812618,2.21077612 C2.37812618,1.93513433 2.15545519,1.71214925 1.88020165,1.71214925 C1.60548467,1.71214925 1.38227712,1.93513433 1.38227712,2.21077612" id="Fill-156" fill="#FFF9FF"></path>
                    </g>
                </g>
            </g>
        </g>
    </g>
</svg>