<?xml version="1.0" encoding="UTF-8"?>
<svg width="94px" height="66px" viewBox="0 0 94 66" version="1.1" xmlns="http://www.w3.org/2000/svg" xmlns:xlink="http://www.w3.org/1999/xlink">
    <!-- Generator: Sketch 59.1 (86144) - https://sketch.com -->
    <title>Digital Strategy</title>
    <desc>Created with Sketch.</desc>
    <defs>
        <path d="M28.4904569,0.170727273 C26.5991878,0.189545455 25.2548426,1.69663636 23.9548426,3.15381818 L23.9548426,3.15381818 C23.7566091,3.37636364 23.5594315,3.59727273 23.3630457,3.80972727 L23.3630457,3.80972727 C21.9899289,5.29254545 20.5265381,6.30081818 19.0132589,6.80645455 L19.0132589,6.80645455 C17.2354924,7.40072727 15.3954315,7.26790909 13.9645076,6.44290909 L13.9645076,6.44290909 C13.1435939,5.96890909 12.4074112,5.24836364 11.6952487,4.55181818 L11.6952487,4.55181818 C10.4952893,3.37772727 9.2546802,2.16354545 7.57457868,2.11090909 L7.57457868,2.11090909 C5.6933401,2.04981818 4.17742132,3.49745455 2.94446701,4.91945455 L2.94446701,4.91945455 C1.94062944,6.07772727 0.97057868,7.29463636 0.0609746193,8.53609091 L0.0609746193,8.53609091 C-0.0163654822,8.64109091 0.00369543147,8.79027273 0.105319797,8.87018182 L0.105319797,8.87018182 C0.147025381,8.90263636 0.195857868,8.91818182 0.244426396,8.91818182 L0.244426396,8.91818182 C0.314111675,8.91818182 0.383269036,8.88572727 0.428670051,8.82381818 L0.428670051,8.82381818 C1.33088325,7.59272727 2.29275127,6.38645455 3.28867005,5.23772727 L3.28867005,5.23772727 C4.45035533,3.89727273 5.87283249,2.53118182 7.56058883,2.58763636 L7.56058883,2.58763636 C9.0648934,2.63481818 10.1883046,3.73445455 11.3777056,4.89818182 L11.3777056,4.89818182 C12.1104569,5.61518182 12.8680203,6.35645455 13.7398782,6.85936364 L13.7398782,6.85936364 C15.2821929,7.74872727 17.2555533,7.89463636 19.155269,7.26027273 L19.155269,7.26027273 C20.7421929,6.73009091 22.2699898,5.68009091 23.6966904,4.13918182 L23.6966904,4.13918182 C23.8949239,3.92481818 24.0939492,3.702 24.2942944,3.477 L24.2942944,3.477 C25.5277766,2.09427273 26.8032284,0.664636364 28.4949442,0.647727273 L28.4949442,0.647727273 C29.4950863,0.643363636 30.5261117,1.13972727 31.674335,2.18236364 L31.674335,2.18236364 C32.4126294,2.85272727 33.0947005,3.61909091 33.7540711,4.36063636 L33.7540711,4.36063636 C34.5095228,5.20963636 35.2911066,6.08781818 36.1711472,6.83972727 L36.1711472,6.83972727 C37.1237766,7.65354545 39.6234721,9.45272727 42.2604264,8.58736364 L42.2604264,8.58736364 C44.1572386,7.965 45.3484873,6.225 46.500934,4.54227273 L46.500934,4.54227273 C46.6091574,4.38381818 46.7171168,4.22563636 46.8256041,4.06990909 L46.8256041,4.06990909 C48.4497462,1.72581818 50.0226802,0.633818182 51.6439188,0.733636364 L51.6439188,0.733636364 C51.7706193,0.741818182 51.8804264,0.641181818 51.8882679,0.509727273 L51.8882679,0.509727273 C51.895736,0.378272727 51.798335,0.265636364 51.6713706,0.257727273 L51.6713706,0.257727273 C49.8806701,0.146727273 48.1741726,1.30390909 46.4499898,3.79227273 L46.4499898,3.79227273 C46.3415025,3.94881818 46.2327513,4.10727273 46.123736,4.26681818 L46.123736,4.26681818 C45.0156345,5.88490909 43.8697868,7.55863636 42.1207919,8.13245455 L42.1207919,8.13245455 C40.4406904,8.68390909 38.3271675,8.06345455 36.4654619,6.47236364 L36.4654619,6.47236364 C35.6097056,5.74145455 34.8389442,4.87527273 34.0940508,4.03745455 L34.0940508,4.03745455 C33.4264975,3.28718182 32.7359797,2.51127273 31.9789442,1.82372727 L31.9789442,1.82372727 C30.7536447,0.711818182 29.6233706,0.170454545 28.5242437,0.170454545 L28.5242437,0.170454545 C28.5128934,0.170454545 28.5018071,0.170454545 28.4904569,0.170727273" id="path-1"></path>
        <linearGradient x1="-8.63926442e-05%" y1="50.0023501%" x2="100.000252%" y2="50.0023501%" id="linearGradient-3">
            <stop stop-color="#025BDB" offset="0%"></stop>
            <stop stop-color="#5293ED" offset="100%"></stop>
        </linearGradient>
        <path d="M0.0096,1.5363 C0.0096,2.2914 0.6222,2.9037 1.3773,2.9037 L1.3773,2.9037 C2.1324,2.9037 2.7444,2.2914 2.7444,1.5363 L2.7444,1.5363 C2.7444,0.7812 2.1324,0.1689 1.3773,0.1689 L1.3773,0.1689 C0.6222,0.1689 0.0096,0.7812 0.0096,1.5363" id="path-4"></path>
        <linearGradient x1="0.00541465555%" y1="50.0000241%" x2="100.0098%" y2="50.0000241%" id="linearGradient-6">
            <stop stop-color="#025BDB" offset="0%"></stop>
            <stop stop-color="#5293ED" offset="100%"></stop>
        </linearGradient>
        <path d="M0.0774,1.5618 C0.0774,2.3169 0.6894,2.9292 1.4451,2.9292 L1.4451,2.9292 C2.2002,2.9292 2.8122,2.3169 2.8122,1.5618 L2.8122,1.5618 C2.8122,0.8067 2.2002,0.1944 1.4451,0.1944 L1.4451,0.1944 C0.6894,0.1944 0.0774,0.8067 0.0774,1.5618" id="path-7"></path>
        <linearGradient x1="-4.82667839e-05%" y1="50.0006%" x2="100.004337%" y2="50.0006%" id="linearGradient-9">
            <stop stop-color="#025BDB" offset="0%"></stop>
            <stop stop-color="#5293ED" offset="100%"></stop>
        </linearGradient>
        <path d="M0.1113,1.5315 C0.1113,2.2869 0.7236,2.8989 1.4787,2.8989 L1.4787,2.8989 C2.2344,2.8989 2.8461,2.2869 2.8461,1.5315 L2.8461,1.5315 C2.8461,0.7761 2.2344,0.1641 1.4787,0.1641 L1.4787,0.1641 C0.7236,0.1641 0.1113,0.7761 0.1113,1.5315" id="path-10"></path>
        <linearGradient x1="0.00220052655%" y1="50.0006231%" x2="100.00758%" y2="50.0006231%" id="linearGradient-12">
            <stop stop-color="#025BDB" offset="0%"></stop>
            <stop stop-color="#5293ED" offset="100%"></stop>
        </linearGradient>
        <path d="M0.246545455,1.5969 C0.246545455,2.352 0.802636364,2.964 1.48936364,2.964 L1.48936364,2.964 C2.17609091,2.964 2.73272727,2.352 2.73272727,1.5969 L2.73272727,1.5969 C2.73272727,0.8415 2.17609091,0.2292 1.48936364,0.2292 L1.48936364,0.2292 C0.802636364,0.2292 0.246545455,0.8415 0.246545455,1.5969" id="path-13"></path>
        <linearGradient x1="-0.00996709083%" y1="50.0055079%" x2="99.9955167%" y2="50.0055079%" id="linearGradient-15">
            <stop stop-color="#025BDB" offset="0%"></stop>
            <stop stop-color="#5293ED" offset="100%"></stop>
        </linearGradient>
        <linearGradient x1="-2.81192976e-05%" y1="50.0011538%" x2="100.000568%" y2="50.0011538%" id="linearGradient-16">
            <stop stop-color="#F0F4FD" offset="0%"></stop>
            <stop stop-color="#FFFFFF" offset="100%"></stop>
        </linearGradient>
        <path d="M0.00125,3.90124138 C0.00125,6.0102069 1.55625,7.72606897 3.46775,7.72606897 L3.46775,7.72606897 C5.379,7.72606897 6.93375,6.0102069 6.93375,3.90124138 L6.93375,3.90124138 L6.16825,3.90124138 C6.16825,5.54427586 4.95675,6.88165517 3.46775,6.88165517 L3.46775,6.88165517 C1.97825,6.88165517 0.76675,5.54427586 0.76675,3.90124138 L0.76675,3.90124138 C0.76675,2.25793103 1.97825,0.920827586 3.46775,0.920827586 L3.46775,0.920827586 L3.46775,0.0764137931 C1.55625,0.0764137931 0.00125,1.79227586 0.00125,3.90124138" id="path-17"></path>
        <linearGradient x1="-0.000422646953%" y1="49.9998287%" x2="100.000697%" y2="49.9998287%" id="linearGradient-19">
            <stop stop-color="#025BDB" offset="0%"></stop>
            <stop stop-color="#5293ED" offset="100%"></stop>
        </linearGradient>
        <linearGradient x1="-0.000722447475%" y1="49.9906081%" x2="100.001855%" y2="49.9906081%" id="linearGradient-20">
            <stop stop-color="#025BDB" offset="0%"></stop>
            <stop stop-color="#5293ED" offset="100%"></stop>
        </linearGradient>
        <linearGradient x1="-0.000722447475%" y1="50.0325162%" x2="100.001855%" y2="50.0325162%" id="linearGradient-21">
            <stop stop-color="#025BDB" offset="0%"></stop>
            <stop stop-color="#5293ED" offset="100%"></stop>
        </linearGradient>
        <linearGradient x1="-0.000722447475%" y1="49.9811331%" x2="100.001855%" y2="49.9811331%" id="linearGradient-22">
            <stop stop-color="#F7933D" offset="0%"></stop>
            <stop stop-color="#FFBC5B" offset="100%"></stop>
        </linearGradient>
        <linearGradient x1="-0.000990249078%" y1="50.0057811%" x2="99.999517%" y2="50.0057811%" id="linearGradient-23">
            <stop stop-color="#F7933D" offset="0%"></stop>
            <stop stop-color="#FFBC5B" offset="100%"></stop>
        </linearGradient>
        <polygon id="path-24" points="0.0753512786 0.133180893 4.00922296 0.133180893 4.00922296 3.37274842 0.0753512786 3.37274842"></polygon>
        <path d="M23.2317391,2.16859677 C23.2317391,2.16859677 24.246,2.4905 25.137913,3.4085 L25.137913,3.4085 L12.9062609,13.7702742 L9.0213913,9.04208065 L0.0547826087,15.9986452 L0.615391304,16.797371 L8.87843478,10.3867258 L12.7883478,15.1450806 L25.74,4.17322581 C26.1597391,4.83814516 26.4623478,5.6993871 26.4623478,6.80383871 L26.4623478,6.80383871 L29.9491304,0.228129032 L23.2317391,2.16859677 Z" id="path-26"></path>
        <linearGradient x1="-0.000260482569%" y1="49.9998378%" x2="100.000433%" y2="49.9998378%" id="linearGradient-28">
            <stop stop-color="#025BDB" offset="0%"></stop>
            <stop stop-color="#5293ED" offset="100%"></stop>
        </linearGradient>
        <path d="M0.255272727,6.96614545 C0.255272727,10.7662545 3.55581818,13.8470182 7.62763636,13.8470182 L7.62763636,13.8470182 C11.6991818,13.8470182 14.9997273,10.7662545 14.9997273,6.96614545 L14.9997273,6.96614545 C14.9997273,3.16603636 11.6991818,0.0855272727 7.62763636,0.0855272727 L7.62763636,0.0855272727 C3.55581818,0.0855272727 0.255272727,3.16603636 0.255272727,6.96614545" id="path-29"></path>
        <linearGradient x1="-0.000739322642%" y1="49.9997253%" x2="100.000925%" y2="49.9997253%" id="linearGradient-31">
            <stop stop-color="#025BDB" offset="0%"></stop>
            <stop stop-color="#5293ED" offset="100%"></stop>
        </linearGradient>
        <path d="M0.255523077,8.46521538 C0.255523077,13.0787538 4.0086,16.8320923 8.6224,16.8320923 L8.6224,16.8320923 C13.2356769,16.8320923 16.9890154,13.0787538 16.9890154,8.46521538 L16.9890154,8.46521538 C16.9890154,3.85167692 13.2356769,0.0986 8.6224,0.0986 L8.6224,0.0986 C4.0086,0.0986 0.255523077,3.85167692 0.255523077,8.46521538 M0.910153846,8.46521538 C0.910153846,4.21286154 4.36978462,0.753230769 8.6224,0.753230769 L8.6224,0.753230769 C12.8750154,0.753230769 16.3343846,4.21286154 16.3343846,8.46521538 L16.3343846,8.46521538 C16.3343846,12.7180923 12.8750154,16.1774615 8.6224,16.1774615 L8.6224,16.1774615 C4.36978462,16.1774615 0.910153846,12.7180923 0.910153846,8.46521538" id="path-32"></path>
        <linearGradient x1="-0.000624247824%" y1="49.9997679%" x2="100.000626%" y2="49.9997679%" id="linearGradient-34">
            <stop stop-color="#025BDB" offset="0%"></stop>
            <stop stop-color="#5293ED" offset="100%"></stop>
        </linearGradient>
    </defs>
    <g id="Home-Page-V2" stroke="none" stroke-width="1" fill="none" fill-rule="evenodd">
        <g id="Home-Page" transform="translate(-745.000000, -815.000000)">
            <g id="Digital-Strategy" transform="translate(745.000000, 815.000000)">
                <polygon id="Fill-1" fill="#5AA9FF" points="18 48 77 48 77 11 18 11"></polygon>
                <polygon id="Fill-2" fill="#ECECEC" points="20 47 77 47 77 12 20 12"></polygon>
                <polygon id="Fill-3" fill="#0F7EA8" points="33 27 35 27 35 18 33 18"></polygon>
                <polygon id="Fill-4" fill="#0F7EA8" points="39 27 41 27 41 15 39 15"></polygon>
                <polygon id="Fill-5" fill="#0F7EA8" points="35 27 37 27 37 22 35 22"></polygon>
                <polygon id="Fill-6" fill="#0F7EA8" points="55 27 57 27 57 23 55 23"></polygon>
                <polygon id="Fill-7" fill="#0F7EA8" points="62 27 64 27 64 20 62 20"></polygon>
                <polygon id="Fill-8" fill="#0F7EA8" points="58 27 60 27 60 19 58 19"></polygon>
                <polygon id="Fill-9" fill="#0F7EA8" points="44 27 46 27 46 20 44 20"></polygon>
                <polygon id="Fill-10" fill="#0F7EA8" points="50 27 52 27 52 18 50 18"></polygon>
                <polygon id="Fill-11" fill="#0F7EA8" points="47 27 49 27 49 23 47 23"></polygon>
                <g id="Group-22" transform="translate(23.000000, 30.000000)" fill="#D8D8D8">
                    <path d="M0.2444,8.82245455 C0.195831472,8.82245455 0.146998985,8.80663636 0.10555736,8.77418182 C0.00366903553,8.69454545 -0.0163918782,8.54481818 0.0609482234,8.44009091 C0.970552284,7.19863636 1.94060305,5.98172727 2.94444061,4.82345455 C4.17739492,3.40145455 5.69357766,1.95381818 7.57481624,2.01490909 C9.25465381,2.06754545 10.4952629,3.28172727 11.6952223,4.45581818 C12.4073848,5.15263636 13.1435675,5.87318182 13.9647452,6.34690909 C15.3954051,7.17190909 17.235466,7.30472727 19.0132325,6.71018182 C20.5265117,6.20481818 21.9899025,5.19654545 23.3630193,3.71345455 C23.5594051,3.501 23.7563188,3.28063636 23.9548162,3.05754545 C25.2548162,1.60063636 26.5991614,0.0938181818 28.4904305,0.0747272727 L28.5242173,0.0747272727 C29.6233442,0.0747272727 30.7536183,0.615545455 31.9791817,1.72772727 C32.7359533,2.41527273 33.4264711,3.19145455 34.0940244,3.94172727 C34.8391817,4.77927273 35.6096792,5.64518182 36.4654355,6.37636364 C38.3271411,7.96745455 40.440664,8.58818182 42.1207655,8.03672727 C43.8697604,7.46263636 45.0156081,5.78918182 46.1237096,4.17081818 C46.2329888,4.01127273 46.3417401,3.85254545 46.4499635,3.696 C48.1741462,1.20763636 49.8806437,0.0504545455 51.6713442,0.161454545 C51.7985726,0.169090909 51.8957096,0.282272727 51.8882426,0.413727273 C51.8804,0.545181818 51.7705929,0.645818182 51.6438924,0.637636364 C50.0226538,0.537818182 48.4497198,1.62954545 46.8255777,3.97390909 C46.7173543,4.12963636 46.609131,4.28754545 46.5006437,4.44627273 C45.3487249,6.12872727 44.1572122,7.86872727 42.260664,8.49136364 C39.6237096,9.35672727 37.1237503,7.55754545 36.1708569,6.74372727 C35.2910802,5.99181818 34.5094964,5.11363636 33.7540447,4.26436364 C33.0946741,3.52309091 32.412603,2.75672727 31.6743086,2.08609091 C30.5260853,1.04372727 29.4950599,0.547636364 28.4949178,0.551727273 C26.803202,0.568636364 25.5277503,1.99854545 24.294268,3.38127273 C24.0939228,3.606 23.8951614,3.82854545 23.696664,4.04318182 C22.2699635,5.58409091 20.7421665,6.63409091 19.1555066,7.16427273 C17.2555269,7.79890909 15.2821665,7.65272727 13.7398518,6.76309091 C12.8679939,6.26018182 12.1104305,5.51918182 11.3779431,4.80218182 C10.1882782,3.63818182 9.06486701,2.53881818 7.56056244,2.49163636 C5.87254213,2.43518182 4.45059289,3.80127273 3.28864365,5.14172727 C2.29298883,6.29018182 1.33085685,7.497 0.428643655,8.72781818 C0.38324264,8.78972727 0.314349239,8.82245455 0.2444,8.82245455" id="Fill-12"></path>
                    <path d="M8.48589848,6.48245455 C8.48589848,7.16918182 7.94742132,7.72581818 7.28277157,7.72581818 C6.61838579,7.72581818 6.07964467,7.16918182 6.07964467,6.48245455 C6.07964467,5.79572727 6.61838579,5.23909091 7.28277157,5.23909091 C7.94742132,5.23909091 8.48589848,5.79572727 8.48589848,6.48245455" id="Fill-14"></path>
                    <path d="M18.3119452,2.96015455 C18.3119452,3.64688182 17.773468,4.20351818 17.1088183,4.20351818 C16.4444325,4.20351818 15.9056914,3.64688182 15.9056914,2.96015455 C15.9056914,2.27342727 16.4444325,1.71679091 17.1088183,1.71679091 C17.773468,1.71679091 18.3119452,2.27342727 18.3119452,2.96015455" id="Fill-16"></path>
                    <path d="M29.6921056,3.20544545 C29.6921056,3.8919 29.1536284,4.44853636 28.4889787,4.44853636 C27.8245929,4.44853636 27.2858518,3.8919 27.2858518,3.20544545 C27.2858518,2.51871818 27.8245929,1.96208182 28.4889787,1.96208182 C29.1536284,1.96208182 29.6921056,2.51871818 29.6921056,3.20544545" id="Fill-18"></path>
                    <path d="M41.9747168,5.44639091 C41.9747168,6.13311818 41.4359756,6.68975455 40.7713259,6.68975455 C40.1069401,6.68975455 39.5684629,6.13311818 39.5684629,5.44639091 C39.5684629,4.75966364 40.1069401,4.2033 40.7713259,4.2033 C41.4359756,4.2033 41.9747168,4.75966364 41.9747168,5.44639091" id="Fill-20"></path>
                </g>
                <g id="Group-25" transform="translate(23.000000, 28.000000)">
                    <mask id="mask-2" fill="white">
                        <use xlink:href="#path-1"></use>
                    </mask>
                    <g id="Clip-24"></g>
                    <path d="M28.4904569,0.170727273 C26.5991878,0.189545455 25.2548426,1.69663636 23.9548426,3.15381818 L23.9548426,3.15381818 C23.7566091,3.37636364 23.5594315,3.59727273 23.3630457,3.80972727 L23.3630457,3.80972727 C21.9899289,5.29254545 20.5265381,6.30081818 19.0132589,6.80645455 L19.0132589,6.80645455 C17.2354924,7.40072727 15.3954315,7.26790909 13.9645076,6.44290909 L13.9645076,6.44290909 C13.1435939,5.96890909 12.4074112,5.24836364 11.6952487,4.55181818 L11.6952487,4.55181818 C10.4952893,3.37772727 9.2546802,2.16354545 7.57457868,2.11090909 L7.57457868,2.11090909 C5.6933401,2.04981818 4.17742132,3.49745455 2.94446701,4.91945455 L2.94446701,4.91945455 C1.94062944,6.07772727 0.97057868,7.29463636 0.0609746193,8.53609091 L0.0609746193,8.53609091 C-0.0163654822,8.64109091 0.00369543147,8.79027273 0.105319797,8.87018182 L0.105319797,8.87018182 C0.147025381,8.90263636 0.195857868,8.91818182 0.244426396,8.91818182 L0.244426396,8.91818182 C0.314111675,8.91818182 0.383269036,8.88572727 0.428670051,8.82381818 L0.428670051,8.82381818 C1.33088325,7.59272727 2.29275127,6.38645455 3.28867005,5.23772727 L3.28867005,5.23772727 C4.45035533,3.89727273 5.87283249,2.53118182 7.56058883,2.58763636 L7.56058883,2.58763636 C9.0648934,2.63481818 10.1883046,3.73445455 11.3777056,4.89818182 L11.3777056,4.89818182 C12.1104569,5.61518182 12.8680203,6.35645455 13.7398782,6.85936364 L13.7398782,6.85936364 C15.2821929,7.74872727 17.2555533,7.89463636 19.155269,7.26027273 L19.155269,7.26027273 C20.7421929,6.73009091 22.2699898,5.68009091 23.6966904,4.13918182 L23.6966904,4.13918182 C23.8949239,3.92481818 24.0939492,3.702 24.2942944,3.477 L24.2942944,3.477 C25.5277766,2.09427273 26.8032284,0.664636364 28.4949442,0.647727273 L28.4949442,0.647727273 C29.4950863,0.643363636 30.5261117,1.13972727 31.674335,2.18236364 L31.674335,2.18236364 C32.4126294,2.85272727 33.0947005,3.61909091 33.7540711,4.36063636 L33.7540711,4.36063636 C34.5095228,5.20963636 35.2911066,6.08781818 36.1711472,6.83972727 L36.1711472,6.83972727 C37.1237766,7.65354545 39.6234721,9.45272727 42.2604264,8.58736364 L42.2604264,8.58736364 C44.1572386,7.965 45.3484873,6.225 46.500934,4.54227273 L46.500934,4.54227273 C46.6091574,4.38381818 46.7171168,4.22563636 46.8256041,4.06990909 L46.8256041,4.06990909 C48.4497462,1.72581818 50.0226802,0.633818182 51.6439188,0.733636364 L51.6439188,0.733636364 C51.7706193,0.741818182 51.8804264,0.641181818 51.8882679,0.509727273 L51.8882679,0.509727273 C51.895736,0.378272727 51.798335,0.265636364 51.6713706,0.257727273 L51.6713706,0.257727273 C49.8806701,0.146727273 48.1741726,1.30390909 46.4499898,3.79227273 L46.4499898,3.79227273 C46.3415025,3.94881818 46.2327513,4.10727273 46.123736,4.26681818 L46.123736,4.26681818 C45.0156345,5.88490909 43.8697868,7.55863636 42.1207919,8.13245455 L42.1207919,8.13245455 C40.4406904,8.68390909 38.3271675,8.06345455 36.4654619,6.47236364 L36.4654619,6.47236364 C35.6097056,5.74145455 34.8389442,4.87527273 34.0940508,4.03745455 L34.0940508,4.03745455 C33.4264975,3.28718182 32.7359797,2.51127273 31.9789442,1.82372727 L31.9789442,1.82372727 C30.7536447,0.711818182 29.6233706,0.170454545 28.5242437,0.170454545 L28.5242437,0.170454545 C28.5128934,0.170454545 28.5018071,0.170454545 28.4904569,0.170727273" id="Fill-23" fill="url(#linearGradient-3)" mask="url(#mask-2)"></path>
                </g>
                <g id="Group-28" transform="translate(29.000000, 33.000000)">
                    <mask id="mask-5" fill="white">
                        <use xlink:href="#path-4"></use>
                    </mask>
                    <g id="Clip-27"></g>
                    <path d="M0.0096,1.5363 C0.0096,2.2914 0.6222,2.9037 1.3773,2.9037 L1.3773,2.9037 C2.1324,2.9037 2.7444,2.2914 2.7444,1.5363 L2.7444,1.5363 C2.7444,0.7812 2.1324,0.1689 1.3773,0.1689 L1.3773,0.1689 C0.6222,0.1689 0.0096,0.7812 0.0096,1.5363" id="Fill-26" fill="url(#linearGradient-6)" mask="url(#mask-5)"></path>
                </g>
                <g id="Group-31" transform="translate(38.000000, 30.000000)">
                    <mask id="mask-8" fill="white">
                        <use xlink:href="#path-7"></use>
                    </mask>
                    <g id="Clip-30"></g>
                    <path d="M0.0774,1.5618 C0.0774,2.3169 0.6894,2.9292 1.4451,2.9292 L1.4451,2.9292 C2.2002,2.9292 2.8122,2.3169 2.8122,1.5618 L2.8122,1.5618 C2.8122,0.8067 2.2002,0.1944 1.4451,0.1944 L1.4451,0.1944 C0.6894,0.1944 0.0774,0.8067 0.0774,1.5618" id="Fill-29" fill="url(#linearGradient-9)" mask="url(#mask-8)"></path>
                </g>
                <g id="Group-34" transform="translate(50.000000, 30.000000)">
                    <mask id="mask-11" fill="white">
                        <use xlink:href="#path-10"></use>
                    </mask>
                    <g id="Clip-33"></g>
                    <path d="M0.1113,1.5315 C0.1113,2.2869 0.7236,2.8989 1.4787,2.8989 L1.4787,2.8989 C2.2344,2.8989 2.8461,2.2869 2.8461,1.5315 L2.8461,1.5315 C2.8461,0.7761 2.2344,0.1641 1.4787,0.1641 L1.4787,0.1641 C0.7236,0.1641 0.1113,0.7761 0.1113,1.5315" id="Fill-32" fill="url(#linearGradient-12)" mask="url(#mask-11)"></path>
                </g>
                <g id="Group-37" transform="translate(62.000000, 32.000000)">
                    <mask id="mask-14" fill="white">
                        <use xlink:href="#path-13"></use>
                    </mask>
                    <g id="Clip-36"></g>
                    <path d="M0.246545455,1.5969 C0.246545455,2.352 0.802636364,2.964 1.48936364,2.964 L1.48936364,2.964 C2.17609091,2.964 2.73272727,2.352 2.73272727,1.5969 L2.73272727,1.5969 C2.73272727,0.8415 2.17609091,0.2292 1.48936364,0.2292 L1.48936364,0.2292 C0.802636364,0.2292 0.246545455,0.8415 0.246545455,1.5969" id="Fill-35" fill="url(#linearGradient-15)" mask="url(#mask-14)"></path>
                </g>
                <g id="Group-67" transform="translate(20.000000, 14.000000)">
                    <polygon id="Fill-38" fill="#D8D8D8" points="24.5040752 30.6321333 31.0040451 30.6321333 31.0040451 24.0208667 24.5040752 24.0208667"></polygon>
                    <path d="M24.2772489,24.020815 C24.2772489,24.020815 25.1463316,29.52719 22.9338541,30.21539 L29.7298353,30.21539 C29.7298353,30.21539 30.9939556,30.062715 31.0729632,27.8449233 C31.1519707,25.6268733 31.0729632,24.020815 31.0729632,24.020815 L24.2772489,24.020815 Z" id="Fill-40" fill="#19B0BC"></path>
                    <polygon id="Fill-41" fill="#FFFFFF" points="25.0611316 24.85115 30.6186165 24.85115 30.6186165 24.5179 25.0611316 24.5179"></polygon>
                    <polygon id="Fill-42" fill="#FFFFFF" points="25.0611316 25.7258667 30.6186165 25.7258667 30.6186165 25.3926167 25.0611316 25.3926167"></polygon>
                    <polygon id="Fill-43" fill="#FFFFFF" points="25.0611316 26.6005833 30.6186165 26.6005833 30.6186165 26.2673333 25.0611316 26.2673333"></polygon>
                    <polygon id="Fill-44" fill="#FFFFFF" points="25.0611316 27.4755583 29.5045038 27.4755583 29.5045038 27.14205 25.0611316 27.14205"></polygon>
                    <polygon id="Fill-45" fill="#FFFFFF" points="25.0608647 28.350275 28.267609 28.350275 28.267609 28.017025 25.0608647 28.017025"></polygon>
                    <polygon id="Fill-46" fill="#D8D8D8" points="10.5781726 29.7074292 5.42186429 30.4281792 4.63899586 25.1834958 9.79530414 24.4627458"></polygon>
                    <path d="M4.45890677,25.2087867 C4.45890677,25.2087867 5.80043308,29.4805867 4.12659474,30.27212 L9.51779023,29.5185617 C9.51779023,29.5185617 10.502982,29.25687 10.3030609,27.4885783 C10.1031398,25.7202867 9.85010226,24.45497 9.85010226,24.45497 L4.45890677,25.2087867 Z" id="Fill-47" fill="#F4A210"></path>
                    <polygon id="Fill-48" fill="#FFFFFF" points="9.58820301 25.1641467 5.17899624 25.78053 5.1397594 25.5159967 9.54869925 24.8998717"></polygon>
                    <polygon id="Fill-49" fill="#FFFFFF" points="9.69166015 25.8581592 5.2827203 26.4745425 5.24321654 26.2100092 9.65215639 25.5938842"></polygon>
                    <polygon id="Fill-50" fill="#FFFFFF" points="9.79514398 26.5521717 5.38620414 27.168555 5.34670038 26.9040217 9.75590714 26.2878967"></polygon>
                    <polygon id="Fill-51" fill="#FFFFFF" points="9.0147312 27.3695642 5.48982143 27.8622058 5.45031767 27.5979308 8.97549436 27.1052892"></polygon>
                    <polygon id="Fill-52" fill="#FFFFFF" points="8.13734737 28.2008292 5.59335865 28.5562958 5.55385489 28.2920208 8.09784361 27.9362958"></polygon>
                    <polygon id="Fill-53" fill="#D8D8D8" points="45.0329244 30.7523617 39.9889883 29.46922 41.3820297 24.33872 46.4262327 25.6218617"></polygon>
                    <path d="M41.2564718,23.9004833 C41.2564718,23.9004833 40.6310846,28.3290917 38.7669342,28.3717167 L43.9961109,29.867725 C43.9961109,29.867725 45.0050583,30.02815 45.586938,28.3389083 C46.1688177,26.6496667 46.4856485,25.3964917 46.4856485,25.3964917 L41.2564718,23.9004833 Z" id="Fill-54" fill="#F4A210"></path>
                    <polygon id="Fill-55" fill="#FFFFFF" points="45.8229996 26.3215833 41.5464508 25.098375 41.6246575 24.8415917 45.9012064 26.0653167"></polygon>
                    <polygon id="Fill-56" fill="#FFFFFF" points="45.6173398 26.9946708 41.3410579 25.7714625 41.4189977 25.5146792 45.6955466 26.7384042"></polygon>
                    <polygon id="Fill-57" fill="#FFFFFF" points="45.4353823 27.5905683 41.1591004 26.36736 41.2370402 26.1105767 45.5135891 27.3340433"></polygon>
                    <polygon id="Fill-58" fill="#D8D8D8" points="8.87086278 14.1827067 1.97772368 14.09074 2.07755075 7.079315 8.97095677 7.17128167"></polygon>
                    <path d="M1.77225075,6.55593167 C1.77225075,6.55593167 2.42673195,12.429915 0.0490327068,13.0589567 L7.24966053,13.3671483 C7.24966053,13.3671483 8.59679211,13.2625233 8.78790489,10.9158233 C8.97901767,8.56938167 8.97316517,6.86412333 8.97316517,6.86412333 L1.77225075,6.55593167 Z" id="Fill-59" fill="#F4A210"></path>
                    <polygon id="Fill-60" fill="#FFFFFF" points="8.42719286 8.2553 2.53846353 8.00316667 2.55447857 7.650025 8.44347481 7.90215833"></polygon>
                    <polygon id="Fill-61" fill="#FFFFFF" points="8.38472632 9.182045 2.49599699 8.93017 2.51201203 8.57702833 8.40100827 8.82890333"></polygon>
                    <polygon id="Fill-62" fill="#FFFFFF" points="8.34717105 10.0025633 2.45844173 9.75043 2.47472368 9.39728833 8.36345301 9.64942167"></polygon>
                    <polygon id="Fill-63" fill="#D8D8D8" points="47.8454586 10.4614667 57.5073308 10.4614667 57.5073308 0.203566667 47.8454586 0.203566667"></polygon>
                    <path d="M70.4421962,19.5759058 C69.7599556,20.3395392 68.9535985,19.8288142 68.1899481,19.1548225 C67.5090421,18.5536808 65.8528203,16.7528392 65.5012902,16.3694725 C65.4588504,16.3221975 65.4350947,16.2971392 65.4350947,16.2971392 L62.7149406,10.0839642 L63.2383654,9.76208083 L66.7955722,14.9323642 L67.0678278,15.1708058 L70.5313466,18.1938225 C70.5313466,18.1938225 71.0774594,18.8660058 70.4421962,19.5759058" id="Fill-64" fill="#FFAD95"></path>
                    <path d="M70.4421962,19.5759058 C69.7599556,20.3395392 68.9535985,19.8288142 68.1899481,19.1548225 C67.5090421,18.5536808 65.8528203,16.7528392 65.5012902,16.3694725 L67.0678278,15.1708058 L70.5313466,18.1938225 C70.5313466,18.1938225 71.0774594,18.8660058 70.4421962,19.5759058" id="Fill-65" fill="#EF5E43"></path>
                    <path d="M61.4772718,8.46858 C61.5589485,8.41278 61.7110914,8.66982167 61.815456,8.78633 C61.9195538,8.90283833 61.9547868,8.912655 61.9571891,8.88837167 C61.9595914,8.86408833 61.7906327,8.587155 61.7052192,8.46806333 C61.6198056,8.34897167 61.4794071,8.16323 61.5690914,8.10691333 C61.6587756,8.05033833 61.7850274,8.24744667 61.9054071,8.40528833 C62.0255199,8.56338833 62.0989222,8.739055 62.1421628,8.71554667 C62.1856703,8.69203833 61.8205274,8.06248 61.7965049,8.01417167 C61.7724823,7.965605 61.6841327,7.81318833 61.7631402,7.76668833 C61.8418808,7.71993 61.9326327,7.847805 61.9782756,7.91523 C62.0241853,7.982655 62.1432305,8.17614667 62.2321139,8.34328833 C62.3209974,8.51068833 62.3487568,8.56493833 62.3799861,8.55563833 C62.4112154,8.54633833 62.2649447,8.133005 62.2072906,7.984205 C62.1499034,7.835405 62.1352229,7.68376333 62.2411891,7.67627167 C62.3476891,7.66826333 62.4309673,7.96198833 62.4902229,8.12603 C62.5494786,8.29033 62.6511741,8.57372167 62.7184372,8.67576333 C62.7857004,8.777805 62.8249372,8.88346333 62.8761853,8.84083833 C62.8884635,8.83179667 62.8983395,8.82508 62.9047455,8.82094667 C62.9431816,8.796405 62.9880237,8.68351333 63.003238,8.598005 C63.0181853,8.51301333 63.1089372,8.421305 63.180738,8.38307167 C63.2520049,8.34483833 63.3187342,8.36111333 63.2399936,8.53471333 C63.1617868,8.70857167 63.1292229,8.976205 63.1524447,9.12138833 C63.1753996,9.26683 63.2036929,9.35724667 63.0886515,9.47556333 C63.0510162,9.51457167 63.6806741,10.4784133 63.7786327,10.6158467 C63.8765914,10.75328 63.2119673,11.065605 63.1431026,10.9472883 C63.074238,10.8287133 62.5847117,9.74552167 62.4926252,9.734155 C62.4002718,9.72253 62.3370124,9.68403833 62.170456,9.50888833 C62.0869109,9.42131333 61.9395726,9.24332167 61.8191929,9.09323 C61.8191929,9.09323 61.5904447,8.81138833 61.5146402,8.69462167 C61.4385688,8.57811333 61.3953282,8.52463833 61.4772718,8.46858" id="Fill-66" fill="#FFAD95"></path>
                </g>
                <polygon id="Fill-68" fill="url(#linearGradient-16)" points="68 24 86 24 86 14 68 14"></polygon>
                <polygon id="Stroke-70" stroke="#4F5DE0" points="68 24 86 24 86 14 68 14"></polygon>
                <g id="Group-74" transform="translate(70.000000, 15.000000)">
                    <mask id="mask-18" fill="white">
                        <use xlink:href="#path-17"></use>
                    </mask>
                    <g id="Clip-73"></g>
                    <path d="M0.00125,3.90124138 C0.00125,6.0102069 1.55625,7.72606897 3.46775,7.72606897 L3.46775,7.72606897 C5.379,7.72606897 6.93375,6.0102069 6.93375,3.90124138 L6.93375,3.90124138 L6.16825,3.90124138 C6.16825,5.54427586 4.95675,6.88165517 3.46775,6.88165517 L3.46775,6.88165517 C1.97825,6.88165517 0.76675,5.54427586 0.76675,3.90124138 L0.76675,3.90124138 C0.76675,2.25793103 1.97825,0.920827586 3.46775,0.920827586 L3.46775,0.920827586 L3.46775,0.0764137931 C1.55625,0.0764137931 0.00125,1.79227586 0.00125,3.90124138" id="Fill-72" fill="url(#linearGradient-19)" mask="url(#mask-18)"></path>
                </g>
                <path d="M77,19 L76.1163361,19 C76.1163361,17.2814281 74.7185719,15.8833754 73,15.8833754 L73,15 C75.2055536,15 77,16.794158 77,19" id="Fill-75" fill="#3D28E0"></path>
                <polygon id="Fill-77" fill="url(#linearGradient-20)" points="78 17 85 17 85 16 78 16"></polygon>
                <polygon id="Fill-79" fill="url(#linearGradient-21)" points="78 19 85 19 85 18 78 18"></polygon>
                <polygon id="Fill-81" fill="url(#linearGradient-22)" points="78 20 85 20 85 19 78 19"></polygon>
                <polygon id="Fill-83" fill="url(#linearGradient-23)" points="79 21 84 21 84 20 79 20"></polygon>
                <g id="Group-170" transform="translate(0.000000, 1.000000)">
                    <path d="M91.1852959,48.531414 C91.1852959,48.531414 90.9203086,51.2043154 90.7275906,52.0648669 C90.6881469,52.2413298 90.6990005,52.4248722 90.7556512,52.5968776 C91.1953553,53.930444 92.9472891,59.47893 92.4792597,61.8634076 L92.0641747,62.3768018 L88.8372069,53.8538806 L89.0079529,47.7332669 L91.1852959,48.531414 Z" id="Fill-85" fill="#FFAD95"></path>
                    <path d="M86.4526127,47.8467223 L87.9019686,62.6945137 L88.6267789,62.3924554 C88.6267789,62.3924554 89.5421895,54.6094722 89.1607243,53.1736464 C88.7792591,51.7380828 90.3051199,47.0910522 90.3051199,47.0910522 L86.4526127,47.8467223 Z" id="Fill-87" fill="#FFAD95"></path>
                    <path d="M91.3732489,43.8427455 C90.9102491,44.6275202 91.3213632,48.6607327 91.3213632,48.6607327 L91.0701416,48.6565375 L89.1906115,48.6219266 L86.3530505,48.5689616 L86.1089763,48.5650285 C85.4230802,43.5771334 86.4149956,37.3807429 86.4149956,37.3807429 L90.7627987,37.3807429 C90.7627987,37.3807429 90.8625991,38.1573894 91.1980025,39.0646131 C91.2496234,39.2064651 91.3086566,39.3509392 91.3732489,39.4969865 C92.008583,40.9333366 91.958021,42.8463726 91.3732489,43.8427455" id="Fill-89" fill="#0280DA"></path>
                    <path d="M86.1110941,62.9093107 C86.1110941,62.9093107 84.8226895,63.0873468 84.8526031,63.8886404 L86.8999673,63.8886404 C87.091097,63.8886404 87.2689905,63.7981802 87.3833507,63.6466266 C87.5866576,63.3757705 87.963093,62.9680443 88.4181511,62.9093107 L88.4181511,63.8886404 L88.86765,63.8886404 L88.86765,62.9093107 C88.86765,62.9093107 89.3317086,61.7731834 88.9303892,61.5154375 C88.8972989,61.4939368 88.8541491,61.4952478 88.8229119,61.5196327 C88.5478651,61.7333285 87.059595,62.855559 86.1110941,62.9093107" id="Fill-91" fill="#222953"></path>
                    <g id="Group-95" transform="translate(89.211498, 60.516102)">
                        <mask id="mask-25" fill="white">
                            <use xlink:href="#path-24"></use>
                        </mask>
                        <g id="Clip-94"></g>
                        <path d="M1.09976335,2.13409961 C1.09976335,2.13409961 -0.113460083,2.59924842 0.100700457,3.37274842 L2.09406123,2.90891063 C2.27989646,2.86564707 2.43237664,2.73742961 2.50835201,2.56385097 C2.64388996,2.25445097 2.91628946,1.77199673 3.34566943,1.61179046 L3.57174248,2.56542419 L4.00932885,2.46342707 L3.7832558,1.51005554 C3.7832558,1.51005554 3.97306186,0.298938085 3.52276881,0.138731814 C3.48570766,0.125359441 3.44388149,0.136634186 3.4192623,0.167311983 C3.2008662,0.437381475 2.01067363,1.86691436 1.09976335,2.13409961" id="Fill-93" fill="#222953" mask="url(#mask-25)"></path>
                    </g>
                    <polygon id="Fill-96" fill="#FFBF31" points="86.5420624 48.7644342 91.1471758 48.9041886 91.1725892 48.6574552 86.5235318 48.5722391"></polygon>
                    <path d="M86.3884969,37.5567601 C86.3884969,37.5567601 89.4304236,38.2717887 90.7950684,37.5580711 L90.7693903,37.3816082 L86.4144397,37.3816082 L86.3884969,37.5567601 Z" id="Fill-98" fill="#EFA91B"></path>
                    <path d="M87.3424245,26.3219741 L87.4618144,29.1794666 C87.4795508,29.6005653 87.8382499,29.9275329 88.2633943,29.9102275 C88.688274,29.8926598 89.018383,29.5373743 89.0009113,29.1162756 L88.8815214,26.2590453" id="Fill-100" fill="#FFAD95"></path>
                    <path d="M87.4274799,28.3578785 C87.4274799,28.3578785 88.8220383,27.9685065 88.9443401,27.7663477 L88.9369279,27.5851651 C88.9369279,27.5851651 88.0776385,28.087809 87.4033901,27.7776224 L87.4274799,28.3578785 Z" id="Fill-102" fill="#F29E8B"></path>
                    <path d="M87.9215051,27.9026148 C88.8374451,27.9204446 89.6019638,27.1930924 89.619965,26.2858687 L89.6496139,24.8159565 C89.6678798,23.9087327 88.9332747,23.1514894 88.0173347,23.1336595 C87.1013947,23.1155675 86.3371407,23.8429197 86.3188748,24.7504056 L86.2892259,26.2200556 C86.2712248,27.1272794 87.0055651,27.8845227 87.9215051,27.9026148" id="Fill-104" fill="#FFAD95"></path>
                    <path d="M87.6162006,28.7757783 C87.6162006,28.7757783 85.6651954,29.16987 86.0395131,33.2723042 L86.4143602,37.3815557 C87.9346618,37.7588664 89.3924889,37.7934773 90.7693109,37.3815557 C90.7693109,37.3815557 91.7866396,27.4516512 87.6162006,28.7757783" id="Fill-106" fill="#EF5E43"></path>
                    <path d="M86.0764684,23.6096636 C86.0521139,24.1332837 87.345813,24.4135792 87.6044469,24.8863319 C87.7317785,25.1183819 87.7251604,25.3871403 87.7127184,25.6440997 C87.6809517,26.30459 87.6285367,26.9640315 87.555738,27.6218998 C87.4575259,28.5081473 87.3370772,29.4612566 87.8384617,30.2360676 C88.2591058,30.8858076 89.0620093,31.2919607 89.8916497,31.4692102 C90.7215549,31.6467219 91.5874624,31.623648 92.4411926,31.5995253 C91.4985156,30.881088 90.8269145,29.8952032 90.5534561,28.8282976 C90.2492899,27.6405163 90.4311543,26.4055383 90.4520674,25.1883902 C90.4613326,24.6574283 90.4298307,24.0970997 90.1058103,23.6479453 C89.722492,23.1172456 88.9161471,22.7994551 88.2048377,22.8340659 C87.6494498,22.8610729 86.1053231,22.9856195 86.0764684,23.6096636" id="Fill-108" fill="#222B54"></path>
                    <path d="M85.9919425,32.2112982 C85.9919425,32.2112982 87.2046365,33.0959724 87.9490363,33.0120674 L85.9919425,31.7209779 L85.9919425,32.2112982 Z" id="Fill-110" fill="#EF5E43"></path>
                    <path d="M88.8658763,32.5597927 C88.264162,33.3930751 87.4191676,32.949427 86.6017044,32.3371821 C85.8726585,31.7912746 84.0675155,30.1207768 83.6844619,29.7649668 C83.6381355,29.7209166 83.6121927,29.6975805 83.6121927,29.6975805 L80.3407514,23.6637561 L80.8275762,23.2911651 L84.8272692,28.1956795 L85.1187287,28.4119973 L88.8237854,31.154907 C88.8237854,31.154907 89.426294,31.7849817 88.8658763,32.5597927" id="Fill-112" fill="#FFAD95"></path>
                    <path d="M88.8658763,32.5597927 C88.264162,33.3930751 87.4191676,32.949427 86.6017044,32.3371821 C85.8726585,31.7912746 84.0675155,30.1207768 83.6844619,29.7649668 L85.1187287,28.4119973 L88.8237854,31.154907 C88.8237854,31.154907 89.426294,31.7849817 88.8658763,32.5597927" id="Fill-114" fill="#EF5E43"></path>
                    <path d="M78.9664443,22.1427143 C79.0418903,22.0787366 79.2163424,22.3249456 79.3304379,22.4332356 C79.4445333,22.5415256 79.4800061,22.5483429 79.4797414,22.5236958 C79.4797414,22.4987865 79.2870234,22.2342232 79.1914585,22.1214758 C79.0958937,22.0087283 78.9397074,21.8338387 79.023095,21.7688122 C79.1062179,21.7037858 79.2496975,21.8915234 79.3831176,22.0401927 C79.5168025,22.1891243 79.6057493,22.3600809 79.6465166,22.3322873 C79.6872838,22.3044937 79.2674339,21.7011637 79.2388438,21.6544915 C79.2107833,21.6075571 79.1091298,21.4617721 79.1824579,21.4072337 C79.2563155,21.3529576 79.3577043,21.4740956 79.4093252,21.5383354 C79.4609461,21.6023131 79.5967487,21.7869043 79.6999905,21.9478971 C79.8037618,22.1091522 79.8360579,22.1615929 79.8659716,22.1492693 C79.8961499,22.137208 79.7126972,21.7323659 79.6420163,21.5871053 C79.5708059,21.4421068 79.5422159,21.290291 79.6465166,21.2727234 C79.7508173,21.255418 79.8606771,21.5446283 79.9345347,21.7050968 C80.008657,21.8658275 80.1357238,22.1429765 80.2119639,22.2399917 C80.2879393,22.337007 80.3366482,22.4405773 80.3832394,22.3928563 C80.3943578,22.3823682 80.4036231,22.3747643 80.4094469,22.3700446 C80.4451845,22.3414644 80.4788043,22.2234729 80.4854223,22.135897 C80.4925698,22.0485832 80.5735749,21.9476349 80.6405497,21.9022737 C80.7077893,21.857437 80.7750288,21.8679251 80.7138779,22.0504187 C80.6524622,22.2331744 80.6458442,22.5066526 80.6821112,22.6513888 C80.7186429,22.7961251 80.7549099,22.8850121 80.652727,23.0150649 C80.6191072,23.0578041 81.3317403,23.9752537 81.4416002,24.1050444 C81.5511953,24.2350973 80.9240676,24.611097 80.8449155,24.4973007 C80.7660282,24.3837666 80.1804619,23.3333798 80.0883385,23.3302334 C79.9962151,23.3268248 79.9300344,23.2932627 79.7486995,23.1314832 C79.6581644,23.0504624 79.4961542,22.8839632 79.3629987,22.74316 C79.3629987,22.74316 79.1104534,22.478859 79.0246833,22.3676848 C78.9389132,22.2567727 78.8909984,22.2066919 78.9664443,22.1427143" id="Fill-116" fill="#FEAC95"></path>
                    <polygon id="Fill-118" fill="#FFAD95" points="10.9658668 63.0107047 12.1279987 63.0107047 12.1279987 61.373769 10.9658668 61.373769"></polygon>
                    <path d="M10.4202471,63.969399 C10.4218355,64.1044337 10.4281888,64.1917475 10.4281888,64.1917475 L14.9732102,64.1917475 C14.9732102,64.1403556 14.9700335,64.0936834 14.9620918,64.0496332 C14.958121,64.0210531 14.9517677,63.9945705 14.9446202,63.969399 C14.8270833,63.5509224 14.3508475,63.4780298 13.7666048,63.4465654 C13.7327203,63.4442056 13.6985711,63.4426324 13.6644219,63.4410592 C12.9414646,63.4072349 12.3217492,62.4863766 12.3217492,62.4863766 C11.5638485,63.0658461 10.841156,62.4863766 10.841156,62.4863766 C10.4488372,62.6418632 10.4138938,63.5438429 10.4202471,63.969399" id="Fill-120" fill="#EF5E43"></path>
                    <path d="M14.9445672,63.969399 L10.4201942,63.969399 C10.4217825,64.1044337 10.4281358,64.1917475 10.4281358,64.1917475 L14.9731572,64.1917475 C14.9731572,64.1083668 14.9636272,64.0344254 14.9445672,63.969399" id="Fill-121" fill="#E5E5E5"></path>
                    <path d="M13.7666313,63.4465392 C13.7753671,63.4863941 13.788868,63.5252002 13.8063397,63.5626953 C13.8886684,63.7449267 14.0488255,63.8744552 14.2161302,63.9780255 C14.3834348,64.0815958 14.543592,64.1851662 14.7439869,64.1232862 C14.8175798,64.1004745 14.8906432,64.0768762 14.9621183,64.049607 C14.9578828,64.0210268 14.9517941,63.9945443 14.9446466,63.9693728 C14.8271098,63.5508962 14.350874,63.4780036 13.7666313,63.4465392" id="Fill-122" fill="#E5E5E5"></path>
                    <polygon id="Fill-123" fill="#FFAD95" points="0.886211668 62.0771296 1.9890458 62.4400191 2.51001977 60.886464 1.40718564 60.5235745"></polygon>
                    <path d="M0.063215744,62.8166218 C0.0216543043,62.9451015 -5.29445092e-05,63.0297932 -5.29445092e-05,63.0297932 L4.3130715,64.4493623 C4.32921958,64.4005925 4.34139681,64.3549691 4.34775015,64.3106567 C4.35304461,64.2828632 4.35542711,64.2553318 4.35675072,64.2293737 C4.37872269,63.7956893 3.94987217,63.577536 3.40533789,63.3654135 C3.37383591,63.3525655 3.3420692,63.340242 3.31003777,63.3281806 C2.63473056,63.0704347 2.33982964,62.0027425 2.33982964,62.0027425 C1.43633159,62.3163377 0.934682366,61.5407401 0.934682366,61.5407401 C0.51297935,61.5656494 0.192665069,62.4107309 0.063215744,62.8166218" id="Fill-124" fill="#EF5E43"></path>
                    <path d="M4.35669778,64.229295 L0.0631627995,62.8165431 C0.0218660823,62.945285 -0.000105889018,63.0299767 -0.000105889018,63.0299767 L4.31301856,64.4492836 C4.33975553,64.3700982 4.35405055,64.2972057 4.35669778,64.229295" id="Fill-125" fill="#E5E5E5"></path>
                    <path d="M3.40533789,63.3653611 C3.40083761,63.4060026 3.40136705,63.4469063 3.40586734,63.4880722 C3.42625097,63.6868224 3.53716972,63.8596144 3.66264821,64.0101192 C3.78839141,64.1606239 3.90725184,64.3090311 4.11744154,64.3127019 C4.1944758,64.3142751 4.27124534,64.3145373 4.34775015,64.3106043 C4.35304461,64.2828107 4.35542711,64.2555416 4.35675072,64.2293212 C4.37872269,63.795899 3.94987217,63.5777458 3.40533789,63.3653611" id="Fill-126" fill="#E5E5E5"></path>
                    <path d="M13.5846345,39.505377 C13.5846345,39.505377 5.4004723,56.3758053 2.39481251,61.33748 L1.24300472,60.9570229 C1.24300472,60.9570229 2.81333886,53.5875344 5.20219512,50.6107394 C5.20219512,50.6107394 6.58960598,41.5267029 8.43922241,39.6186488 L13.5846345,39.505377 Z" id="Fill-127" fill="#221ABA"></path>
                    <path d="M14.3733754,40.2673925 L12.1383229,61.9080871 L10.9438948,61.9080871 C10.9438948,61.9080871 9.98056944,52.0227571 10.0959885,49.3511667 C10.0959885,49.3511667 8.78587659,42.0228442 9.47944966,39.3129721 L14.3733754,40.2673925 Z" id="Fill-128" fill="#221ABA"></path>
                    <path d="M14.332661,40.661222 C14.332661,40.661222 10.0931295,41.4121725 8.439143,39.6184391 L14.4006947,40.0780816 L14.332661,40.661222 Z" id="Fill-129" fill="#1616A5"></path>
                    <path d="M3.90275155,41.6227218 C4.05205507,41.6714916 4.15979715,41.1955925 4.2614506,40.9627559 C4.36363351,40.7304437 4.41181301,40.6981926 4.42663747,40.7351633 C4.44146194,40.7723962 4.31810123,41.2873637 4.24583197,41.5149562 C4.173298,41.7425487 4.04993729,42.1004564 4.21141804,42.146342 C4.37236935,42.1919654 4.47005197,41.822783 4.57620571,41.5175782 C4.68235945,41.2123735 4.71015532,40.9016625 4.78639541,40.9179191 C4.86263551,40.9341757 4.61035492,42.0957367 4.59711879,42.1833126 C4.58361794,42.2708886 4.52246704,42.5517084 4.66329943,42.5876303 C4.8038671,42.6230277 4.87957775,42.3791786 4.91690363,42.2512233 C4.95396479,42.1237925 5.04211739,41.7637872 5.09691496,41.4588447 C5.15171253,41.1541643 5.16733116,41.0555759 5.21895205,41.0553137 C5.27030823,41.0550515 5.24542431,41.7732265 5.22874679,42.0338567 C5.21180455,42.2947491 5.26130766,42.5396471 5.4249062,42.5013654 C5.58850473,42.4625593 5.5752686,41.9622752 5.58691639,41.6764735 C5.59882891,41.3906718 5.61841838,40.8974672 5.67162761,40.7052721 C5.72457212,40.5133393 5.73357268,40.3284859 5.83072586,40.371225 C5.853492,40.3796155 5.87149313,40.3851218 5.88314092,40.3885304 C5.95276295,40.4092445 6.07294699,40.5649933 6.13595095,40.6913754 C6.19895492,40.8177574 6.37870153,40.9181813 6.50418002,40.9441394 C6.62992323,40.9700976 6.72231139,40.9124128 6.52218115,40.6777408 C6.32231563,40.4428065 6.14759875,40.0379645 6.11397898,39.7990972 C6.08035922,39.5602299 6.07982978,39.4050055 5.85137422,39.2739038 C5.77645774,39.2309025 6.26884167,37.4185526 6.35169983,37.1563493 C6.43429326,36.8941459 5.28751519,36.7210916 5.24012986,36.9400315 C5.1924798,37.1587091 4.96667147,39.0911481 4.8332513,39.1530281 C4.70009586,39.2149081 4.62332633,39.3058926 4.45469806,39.6603916 C4.37078102,39.8371167 4.23339001,40.1866338 4.12273599,40.4797772 C4.12273599,40.4797772 3.9114874,41.0309287 3.85245427,41.2501308 C3.79342114,41.4693328 3.75371276,41.5736898 3.90275155,41.6227218" id="Fill-130" fill="#E89D88"></path>
                    <path d="M10.7885026,28.9739516 C12.0213155,29.5245787 11.5805525,30.6523155 10.4311272,31.6730733 C9.28196664,32.6935689 8.24928399,33.6285862 7.43314438,35.0054162 C6.61700477,36.3822462 6.3191919,37.2653472 5.988024,38.706417 C5.66056221,38.5708579 4.87248319,38.7263445 4.90954434,38.3642416 C5.14117657,36.0912004 5.91601946,34.4545269 6.81448779,32.4767267 C7.77066562,30.3720201 9.56124893,28.4259465 10.7885026,28.9739516" id="Fill-131" fill="#1C75BB"></path>
                    <path d="M11.9888076,25.132436 L12.0364577,28.5633673 C12.0436052,29.0688955 11.6356677,29.4842256 11.1252827,29.4915673 C10.6148976,29.4983846 10.1955771,29.0943292 10.1886943,28.5888011 L10.1410442,25.1576075" id="Fill-132" fill="#FFAD95"></path>
                    <path d="M12.022798,27.5769057 C12.022798,27.5769057 10.3261912,27.2014305 10.1660341,26.9678073 L10.1631221,26.7501784 C10.1631221,26.7501784 11.2257184,27.2958237 12.0130033,26.8804935 L12.022798,27.5769057 Z" id="Fill-133" fill="#FFAD95"></path>
                    <path d="M11.4006735,27.0637737 C10.3044575,27.1455812 9.34033796,26.3238357 9.25800925,25.2383137 L9.12432436,23.4791912 C9.04199565,22.3934069 9.87137139,21.4384622 10.9675875,21.3566547 C12.0635388,21.2751095 13.027923,22.0968549 13.1102517,23.1823769 L13.2436719,24.9414995 C13.3262653,26.0270215 12.4968896,26.9822284 11.4006735,27.0637737" id="Fill-134" fill="#FFAD95"></path>
                    <path d="M11.8251561,28.091847 C11.8251561,28.091847 16.0943366,28.57535 14.3733754,40.2675236 C12.1452057,40.6618775 10.1677283,40.4439865 8.43909005,39.6185702 C8.43909005,39.6185702 5.24388892,27.1248409 11.8251561,28.091847" id="Fill-135" fill="#1C75BB"></path>
                    <path d="M13.1883184,21.0680474 C13.6560832,21.2618157 14.1124648,21.6947135 14.0206061,22.1884425 C13.9163054,22.7474602 13.2177026,22.9556496 12.6443136,22.969022 C12.0706598,22.9829188 11.4125596,22.9475213 11.0218291,23.3636381 C10.8121688,23.5867732 10.7293107,23.8982708 10.6848373,24.1998047 C10.6263336,24.5973051 10.6210392,25.0021471 10.5397693,25.3954522 C10.4582348,25.7890195 10.2882829,26.1831112 9.9698217,26.43168 C9.65136048,26.6799866 9.16030016,26.7387202 8.8450156,26.4864805 C8.58876418,26.2814374 8.50378824,25.9371644 8.43390149,25.6185873 C8.28221547,24.9261081 8.12973528,24.2247141 8.15647226,23.5165027 C8.18347396,22.8085535 8.40981174,22.0812013 8.91887319,21.5832771 C9.91661247,20.6070939 11.9517994,20.555702 13.1883184,21.0680474" id="Fill-136" fill="#222B54"></path>
                    <path d="M11.0885127,24.2957712 C11.097778,24.6295561 10.8319966,24.9077539 10.4950048,24.916931 C10.158013,24.9261081 9.87714234,24.6631181 9.86787705,24.329071 C9.85861176,23.9952861 10.1241285,23.7170883 10.461385,23.7079112 C10.7983768,23.6987341 11.0792474,23.9619863 11.0885127,24.2957712" id="Fill-137" fill="#FFAD95"></path>
                    <path d="M14.7599762,36.18326 C14.7599762,36.18326 9.91264163,36.0306577 10.037326,31.4504888 L14.7822129,35.6730122 L14.7599762,36.18326 Z" id="Fill-138" fill="#1C75BB"></path>
                    <path d="M24.1197712,31.8633281 C24.0705329,31.7154454 23.6199751,31.9120979 23.3706064,31.9687338 C23.1212378,32.025632 23.0664402,32.0062289 23.0878828,31.9724047 C23.1090606,31.9385805 23.6006503,31.7311776 23.8283117,31.6538276 C24.0565026,31.5762154 24.4207608,31.4621569 24.3619924,31.3064081 C24.303224,31.1509215 23.9455838,31.2922491 23.6345348,31.3887399 C23.3234858,31.485493 23.0547924,31.6477969 23.0224963,31.577002 C22.9904649,31.5067315 24.0840337,31.0182466 24.1631857,30.9770806 C24.2423378,30.9356525 24.5067956,30.817661 24.4522628,30.6844616 C24.3977299,30.5510001 24.1544499,30.6351674 24.0287067,30.6815774 C23.9029635,30.7277252 23.5582947,30.8714127 23.2779535,31.008545 C22.9976124,31.1459396 22.9084009,31.191563 22.8776931,31.1509215 C22.8467205,31.1100177 23.4449935,30.7036025 23.666831,30.5620127 C23.8889332,30.420685 24.0586203,30.2358316 23.9299652,30.1285905 C23.8015747,30.0210871 23.4029026,30.3283894 23.1638581,30.4888579 C22.9245489,30.648802 22.5121112,30.9262132 22.3244229,30.9977947 C22.1367347,31.0696384 21.9816072,31.1718977 21.9583117,31.0693762 C21.9519583,31.0460401 21.945605,31.0282103 21.9413694,31.0169355 C21.9170149,30.9495493 21.9720772,30.7612872 22.0374637,30.6356918 C22.1028502,30.5106208 22.0777015,30.3076754 22.0242276,30.1923059 C21.9707536,30.0769364 21.8691002,30.0373437 21.7970956,30.3362555 C21.7248264,30.6349052 21.4998122,31.0145757 21.3256248,31.1829103 C21.1514373,31.3517693 21.0256941,31.4440649 21.0548136,31.7041706 C21.0643436,31.7893867 19.2994384,32.4724266 19.0373631,32.5623623 C18.7752878,32.6520359 19.315057,33.6688606 19.5210112,33.5768272 C19.7269653,33.4850561 21.4312491,32.5177877 21.5606984,32.5875338 C21.6901477,32.6567555 21.8098023,32.6640972 22.1973561,32.5880583 C22.3913977,32.5497766 22.7567149,32.4519747 23.0603516,32.3664964 C23.0603516,32.3664964 23.6337406,32.2073389 23.8468423,32.1244827 C24.0599439,32.0413642 24.1687449,32.0109486 24.1197712,31.8633281" id="Fill-139" fill="#FEAC95"></path>
                    <path d="M10.492887,29.8852657 C10.492887,29.8852657 11.9628913,28.561663 13.0318409,30.7675801 C14.1007906,32.973235 14.0560525,33.8558116 16.3723747,33.2821106 C18.6884323,32.708934 20.1581719,32.0909206 20.1581719,32.0909206 L20.5147531,33.0615976 C20.5147531,33.0615976 16.0605316,36.4143923 13.4326309,35.7969033 C10.8047301,35.1791522 9.20130568,31.517744 10.492887,29.8852657" id="Fill-140" fill="#1C75BB"></path>
                    <path d="M68.5184278,40.9047303 C68.5184278,40.9047303 74.2750843,48.6641152 74.9697163,52.7463597 C74.9697163,52.7463597 77.4731974,43.6985074 68.5184278,40.9047303" id="Fill-141" fill="#316CBC"></path>
                    <path d="M74.5326064,56.2822773 C74.5524606,56.2772955 74.5696676,56.2620877 74.574962,56.2408492 C75.7648899,51.7495673 74.3224167,48.0060895 72.9027097,45.6567472 C71.3654659,43.1123255 69.5216733,41.6091134 69.5034075,41.5939056 C69.4785236,41.573716 69.4419919,41.577649 69.4213435,41.6025584 C69.4012246,41.6269433 69.4049307,41.6633895 69.4300793,41.683317 C69.4480805,41.6982626 71.2783722,43.1912487 72.8050271,45.7191516 C74.2120274,48.0490909 75.6415292,51.7605799 74.4624549,56.2114824 C74.4542485,56.2424224 74.4727791,56.2738868 74.5040164,56.2820151 C74.5138111,56.284375 74.5233411,56.284375 74.5326064,56.2822773" id="Fill-142" fill="#164A87"></path>
                    <path d="M81.1364545,38.4990666 C81.1364545,38.4990666 75.8406799,47.5060152 75.5664274,51.9789429 C75.5664274,51.9789429 71.8221917,42.5254618 81.1364545,38.4990666" id="Fill-143" fill="#4292FF"></path>
                    <path d="M76.4474505,55.7348229 C76.4254785,55.7319386 76.4053596,55.7175175 76.3971532,55.6954924 C74.5949221,50.9965454 75.7136396,46.8033888 76.9689539,44.1126576 C78.3280395,41.199578 80.1382122,39.3714959 80.1564781,39.3531417 C80.1808326,39.3287568 80.2205409,39.3287568 80.2456896,39.3526173 C80.2700441,39.3770022 80.2703088,39.4165949 80.2459543,39.4409798 C80.2276884,39.4590719 78.4312812,41.2745681 77.081461,44.1690314 C75.8370003,46.8366886 74.7291364,50.9944478 76.51469,55.6509178 C76.527132,55.6831688 76.5104545,55.7190907 76.4781583,55.7314142 C76.4678341,55.7350851 76.4575099,55.7363961 76.4474505,55.7348229" id="Fill-144" fill="#226FCA"></path>
                    <path d="M67.791738,47.6659331 C67.791738,47.6659331 73.3254981,51.4002338 74.7211153,53.8948368 C74.7211153,53.8948368 74.2549389,47.4493531 67.791738,47.6659331" id="Fill-145" fill="#377AD5"></path>
                    <path d="M75.2549019,56.2907465 C75.2665497,56.2831426 75.2739619,56.2692458 75.2726383,56.2543002 C75.0071216,53.0666936 73.204361,50.9625114 71.738857,49.7582113 C70.1518454,48.4542738 68.6063951,47.8957806 68.5910412,47.8905365 C68.5701282,47.8829326 68.547362,47.8936829 68.5396851,47.914397 C68.5322728,47.9351111 68.5431265,47.9576606 68.5640395,47.9650023 C68.5791287,47.9707707 70.1134606,48.5253309 71.6896186,49.8208779 C73.1426807,51.0152143 74.9295579,53.1018289 75.1929568,56.2608553 C75.1945451,56.2828804 75.2141346,56.2988748 75.2361066,56.2970394 C75.2429894,56.296515 75.2493427,56.2944174 75.2549019,56.2907465" id="Fill-146" fill="#1B58A0"></path>
                    <path d="M83.3922612,48.7457391 C83.3922612,48.7457391 77.3444099,51.5932679 75.5787105,53.845595 C75.5787105,53.845595 77.0394495,47.547994 83.3922612,48.7457391" id="Fill-147" fill="#2D64AE"></path>
                    <path d="M74.6796863,56.1322446 C74.6690974,56.1228052 74.6638029,56.1078596 74.667509,56.0934385 C75.4243508,52.9839685 77.5323364,51.1789603 79.1675276,50.2122164 C80.937992,49.1655005 82.5514759,48.849021 82.567624,48.8458746 C82.5893312,48.8416793 82.6102443,48.8558383 82.6147446,48.877339 C82.6187154,48.8988396 82.6046851,48.9195537 82.5827132,48.9240112 C82.5668298,48.9271576 80.964729,49.2415395 79.2061771,50.2819625 C77.5852809,51.2408403 75.4955612,53.0306407 74.7453375,56.1120549 C74.7403077,56.1332934 74.7183358,56.1464035 74.6968932,56.1411595 C74.6902752,56.1395863 74.6844513,56.136702 74.6796863,56.1322446" id="Fill-148" fill="#144279"></path>
                    <path d="M65.5883993,44.9870535 C65.5883993,44.9870535 72.2938214,46.7320171 74.7581236,53.579983 C74.7581236,53.579983 76.7734563,43.3894482 65.5883993,44.9870535" id="Fill-149" fill="#3E88EE"></path>
                    <path d="M74.6266888,55.4670083 C74.6213944,55.4675327 74.6158352,55.4675327 74.610276,55.4664839 C74.5761268,55.4612399 74.5525665,55.4292511 74.557861,55.3954268 C75.2522282,51.0029956 73.2067171,48.4580495 71.3684837,47.0961651 C69.3730052,45.6181246 67.1869264,45.1747387 67.1649544,45.1702812 C67.1308052,45.1637261 67.1088332,45.1309507 67.1154513,45.0971265 C67.1220694,45.0633022 67.1556891,45.0412772 67.1893089,45.0480944 C67.2115456,45.0522897 69.4259497,45.5014441 71.4439296,46.9962656 C73.3096941,48.3786019 75.3861778,50.9607809 74.6822805,55.4145677 C74.6777803,55.4431478 74.6544847,55.4638619 74.6266888,55.4670083" id="Fill-150" fill="#2370CC"></path>
                    <path d="M84.2686516,46.7976466 C84.2686516,46.7976466 78.1964459,47.6041842 75.2821154,53.343292 C75.2821154,53.343292 74.6356629,44.1892472 84.2686516,46.7976466" id="Fill-151" fill="#387BD8"></path>
                    <path d="M75.1894889,55.0119806 C75.1939892,55.0132916 75.1987542,55.013816 75.2040487,55.0136193 C75.2344918,55.012505 75.2588463,54.9870713 75.2577874,54.9566557 C75.1320442,51.0298977 77.2058806,49.0190599 78.9676091,48.0234736 C80.8802295,46.9426713 82.8463239,46.7898067 82.8659133,46.7884957 C82.8966212,46.7861358 82.919652,46.7596533 82.9172695,46.7292377 C82.9154165,46.6990843 82.88815,46.6760104 82.8579717,46.6783702 C82.8381175,46.6799435 80.8466098,46.8346435 78.9125468,47.9275072 C77.124346,48.9380391 75.0190076,50.9785058 75.1463392,54.9603265 C75.1473981,54.985498 75.1653992,55.0064743 75.1894889,55.0119806" id="Fill-152" fill="#1F64B6"></path>
                    <polygon id="Fill-153" fill="#FFBF31" points="72.2642254 54.5313093 78.1421248 54.5313093 78.1421248 53.7066797 72.2642254 53.7066797"></polygon>
                    <polygon id="Fill-154" fill="#FFBF31" points="77.7485618 54.2338134 77.6982645 54.5314142 77.6458495 54.8384544 76.9414228 58.9836278 73.5887117 58.9836278 72.667742 54.8384544 72.5991788 54.5314142 72.5332629 54.2338134"></polygon>
                    <polygon id="Fill-155" fill="#F4AD21" points="77.6981586 54.5313618 77.6460083 54.8384019 72.6676361 54.8384019 72.5990729 54.5313618"></polygon>
                    <path d="M30.872261,10.2503484 C30.872261,15.2592198 26.7706499,19.3220613 21.7136551,19.3220613 C20.562112,19.3220613 19.460072,19.1099387 18.4424786,18.7255486 L18.4424786,9.91813671 L30.8661724,9.91813671 C30.8706727,10.0287865 30.872261,10.1396986 30.872261,10.2503484" id="Fill-156" fill="#D8D8D8"></path>
                    <path d="M30.513959,9.38166858 C30.513959,14.3905399 26.4120832,18.4531193 21.3550884,18.4531193 C18.5776194,18.4531193 16.0873744,17.2270562 14.4087688,15.2922574 C14.2697894,15.1325755 14.1355751,14.9679118 14.0093025,14.7987906 C12.8707308,13.2861393 12.1964825,11.4129582 12.1964825,9.38166858 C12.1964825,4.371224 16.29677,0.309955695 21.3550884,0.309955695 C26.4120832,0.309955695 30.513959,4.371224 30.513959,9.38166858" id="Fill-157" fill="#EF5E43"></path>
                    <path d="M28.8126402,9.38103929 C28.8126402,13.460924 25.4736947,16.7680954 21.3546119,16.7680954 C17.2357938,16.7680954 13.8965836,13.460924 13.8965836,9.38103929 C13.8965836,5.30115454 17.2357938,1.99398319 21.3546119,1.99398319 C25.4736947,1.99398319 28.8126402,5.30115454 28.8126402,9.38103929" id="Fill-158" fill="#FFFFFF"></path>
                    <path d="M26.8569494,9.38103929 C26.8569494,12.390872 24.3934414,14.8309367 21.3546913,14.8309367 C18.3159412,14.8309367 15.8524332,12.390872 15.8524332,9.38103929 C15.8524332,6.37120658 18.3159412,3.93114183 21.3546913,3.93114183 C24.3934414,3.93114183 26.8569494,6.37120658 26.8569494,9.38103929" id="Fill-159" fill="#0280DA"></path>
                    <path d="M23.7195637,9.38103929 C23.7195637,10.6747508 22.6606735,11.7235644 21.3545325,11.7235644 C20.0486562,11.7235644 18.9900307,10.6747508 18.9900307,9.38103929 C18.9900307,8.08732776 20.0486562,7.03877641 21.3545325,7.03877641 C22.6606735,7.03877641 23.7195637,8.08732776 23.7195637,9.38103929" id="Fill-160" fill="#FFFFFF"></path>
                    <path d="M22.5223825,9.39934108 C22.5223825,10.0461968 21.9929374,10.5706036 21.3398668,10.5706036 C20.6867963,10.5706036 20.1573512,10.0461968 20.1573512,9.39934108 C20.1573512,8.75248532 20.6867963,8.22807854 21.3398668,8.22807854 C21.9929374,8.22807854 22.5223825,8.75248532 22.5223825,9.39934108" id="Fill-161" fill="#EF5E43"></path>
                    <path d="M21.5627632,9.12216588 L19.920954,12.5300233 L19.0661649,11.5805849 L14.4086364,15.2923361 C14.2696571,15.132392 14.1354427,14.9679905 14.0094348,14.7986071 L18.6415499,11.1075699 L17.7838489,10.1552472 L21.5627632,9.12216588 Z" id="Fill-162" fill="#000000"></path>
                    <polygon id="Fill-163" fill="#E0E0E0" points="17.6423282 9.12177258 21.5626044 9.12177258 19.0646824 11.9737588"></polygon>
                    <polygon id="Fill-164" fill="#E0E0E0" points="6.73726822 15.8722251 6.48366402 15.2911824 19.4754524 9.72460439 19.7290566 10.3056471"></polygon>
                    <polygon id="Fill-165" fill="#221ABA" points="4.59828357 14.6024527 6.61043965 15.5817824 9.90597062 14.1042663 8.24086581 13.245288"></polygon>
                    <polygon id="Fill-166" fill="#12129B" points="6.61033376 15.5817299 6.12483261 17.3772987 10.1838234 15.8722513 9.90612946 14.1042138"></polygon>
                    <g id="Group-169" transform="translate(43.943943, 9.910847)" fill="#D8D8D8">
                        <polygon id="Fill-167" points="6.75691063 0.0072630339 8.37012983 0.0072630339 0.62487757 5.67111846 0.0549299283 4.90705778"></polygon>
                        <polygon id="Fill-168" points="18.0911123 0.0072630339 12.9766727 4.09055642 9.4161545 0.0072630339 10.6831166 0.0072630339 13.0963273 2.77586863 16.563928 0.0072630339"></polygon>
                    </g>
                </g>
                <g id="Group-173" transform="translate(44.000000, 0.000000)">
                    <mask id="mask-27" fill="white">
                        <use xlink:href="#path-26"></use>
                    </mask>
                    <g id="Clip-172"></g>
                    <path d="M23.2317391,2.16859677 C23.2317391,2.16859677 24.246,2.4905 25.137913,3.4085 L25.137913,3.4085 L12.9062609,13.7702742 L9.0213913,9.04208065 L0.0547826087,15.9986452 L0.615391304,16.797371 L8.87843478,10.3867258 L12.7883478,15.1450806 L25.74,4.17322581 C26.1597391,4.83814516 26.4623478,5.6993871 26.4623478,6.80383871 L26.4623478,6.80383871 L29.9491304,0.228129032 L23.2317391,2.16859677 Z" id="Fill-171" fill="url(#linearGradient-28)" mask="url(#mask-27)"></path>
                </g>
                <g id="Group-176" transform="translate(29.000000, 46.000000)">
                    <mask id="mask-30" fill="white">
                        <use xlink:href="#path-29"></use>
                    </mask>
                    <g id="Clip-175"></g>
                    <path d="M0.255272727,6.96614545 C0.255272727,10.7662545 3.55581818,13.8470182 7.62763636,13.8470182 L7.62763636,13.8470182 C11.6991818,13.8470182 14.9997273,10.7662545 14.9997273,6.96614545 L14.9997273,6.96614545 C14.9997273,3.16603636 11.6991818,0.0855272727 7.62763636,0.0855272727 L7.62763636,0.0855272727 C3.55581818,0.0855272727 0.255272727,3.16603636 0.255272727,6.96614545" id="Fill-174" fill="url(#linearGradient-31)" mask="url(#mask-30)"></path>
                </g>
                <g id="Group-179" transform="translate(28.000000, 45.000000)">
                    <mask id="mask-33" fill="white">
                        <use xlink:href="#path-32"></use>
                    </mask>
                    <g id="Clip-178"></g>
                    <path d="M0.255523077,8.46521538 C0.255523077,13.0787538 4.0086,16.8320923 8.6224,16.8320923 L8.6224,16.8320923 C13.2356769,16.8320923 16.9890154,13.0787538 16.9890154,8.46521538 L16.9890154,8.46521538 C16.9890154,3.85167692 13.2356769,0.0986 8.6224,0.0986 L8.6224,0.0986 C4.0086,0.0986 0.255523077,3.85167692 0.255523077,8.46521538 M0.910153846,8.46521538 C0.910153846,4.21286154 4.36978462,0.753230769 8.6224,0.753230769 L8.6224,0.753230769 C12.8750154,0.753230769 16.3343846,4.21286154 16.3343846,8.46521538 L16.3343846,8.46521538 C16.3343846,12.7180923 12.8750154,16.1774615 8.6224,16.1774615 L8.6224,16.1774615 C4.36978462,16.1774615 0.910153846,12.7180923 0.910153846,8.46521538" id="Fill-177" fill="url(#linearGradient-34)" mask="url(#mask-33)"></path>
                </g>
                <path d="M35.1034022,49 L37.8372818,49 L37.5420378,55.5170225 L35.3989134,55.5170225 L35.1034022,49 Z M36.5074813,59 C35.605985,59 35,58.4423399 35,57.7481551 C35,57.0274033 35.605985,56.4692512 36.5074813,56.4692512 C37.394015,56.4692512 38,57.0274033 38,57.7481551 C38,58.4423399 37.394015,59 36.5074813,59 L36.5074813,59 Z" id="Fill-180" fill="#FFFFFF"></path>
            </g>
        </g>
    </g>
</svg>