<?xml version="1.0" encoding="UTF-8"?>
<svg width="106px" height="66px" viewBox="0 0 106 66" version="1.1" xmlns="http://www.w3.org/2000/svg" xmlns:xlink="http://www.w3.org/1999/xlink">
    <!-- Generator: Sketch 59.1 (86144) - https://sketch.com -->
    <title>Group 150</title>
    <desc>Created with Sketch.</desc>
    <defs>
        <polygon id="path-1" points="0.0128918919 0.0826312997 71.0402711 0.0826312997 71.0402711 41.1728658 0.0128918919 41.1728658"></polygon>
        <polygon id="path-3" points="0 66 105.947304 66 105.947304 0.0826312997 0 0.0826312997"></polygon>
    </defs>
    <g id="Home-Page-V2" stroke="none" stroke-width="1" fill="none" fill-rule="evenodd">
        <g id="Home-Page" transform="translate(-1040.000000, -990.000000)">
            <g id="Group-150" transform="translate(1040.000000, 990.000000)">
                <polygon id="Fill-1" fill="#404DC4" points="50 52 66 52 66 48 50 48"></polygon>
                <g id="Group-149">
                    <path d="M69.1447376,53.1203626 L47.3989374,53.1203626 C46.8425459,53.1203626 46.3913731,52.6655403 46.3913731,52.1045403 C46.3913731,51.5433653 46.8425459,51.088543 47.3989374,51.088543 L69.1447376,51.088543 C69.7012159,51.088543 70.1523019,51.5433653 70.1523019,52.1045403 C70.1523019,52.6655403 69.7012159,53.1203626 69.1447376,53.1203626" id="Fill-2" fill="#5B62DB"></path>
                    <g id="Group-6" transform="translate(22.745291, 0.000000)">
                        <mask id="mask-2" fill="white">
                            <use xlink:href="#path-1"></use>
                        </mask>
                        <g id="Clip-5"></g>
                        <path d="M71.0402711,2.37878355 C71.0402711,1.11069072 70.0206396,0.0826137931 68.7630508,0.0826137931 L2.2901122,0.0826137931 C1.03243653,0.0826137931 0.0128918919,1.11069072 0.0128918919,2.37878355 L0.0128918919,41.1728658 L71.0402711,41.1728658 L71.0402711,2.37878355 Z" id="Fill-4" fill="#5B62DB" mask="url(#mask-2)"></path>
                    </g>
                    <mask id="mask-4" fill="white">
                        <use xlink:href="#path-3"></use>
                    </mask>
                    <g id="Clip-8"></g>
                    <polygon id="Fill-7" fill="#FFFFFF" mask="url(#mask-4)" points="25.8059214 38.1760106 90.7377363 38.1760106 90.7377363 3.36713793 25.8059214 3.36713793"></polygon>
                    <path d="M25.0353769,47.5927838 L91.5083155,47.5927838 C92.7659043,47.5927838 93.7855358,46.5647069 93.7855358,45.2966141 L93.7855358,41.1728395 L22.7581566,41.1728395 L22.7581566,45.2966141 C22.7581566,46.5647069 23.7777012,47.5927838 25.0353769,47.5927838" id="Fill-9" fill="#FFFFFF" mask="url(#mask-4)"></path>
                    <path d="M59.6218486,44.3827767 C59.6218486,45.1345114 59.017449,45.7439172 58.2718896,45.7439172 C57.5262434,45.7439172 56.9218437,45.1345114 56.9218437,44.3827767 C56.9218437,43.6310419 57.5262434,43.0216361 58.2718896,43.0216361 C59.017449,43.0216361 59.6218486,43.6310419 59.6218486,44.3827767" id="Fill-10" fill="#404DC4" mask="url(#mask-4)"></path>
                    <polygon id="Fill-15" fill="#F6931D" mask="url(#mask-4)" points="30.430421 30.3159708 57.9879902 30.3159708 57.9879902 10.6343156 30.430421 10.6343156"></polygon>
                    <polygon id="Stroke-16" stroke="#1C75BB" stroke-width="3.014" stroke-linecap="round" stroke-linejoin="round" mask="url(#mask-4)" points="30.430421 30.3159708 57.9879902 30.3159708 57.9879902 10.6343156 30.430421 10.6343156"></polygon>
                    <line x1="61.1470246" y1="12.1247963" x2="86.3347428" y2="12.1247963" id="Stroke-17" stroke="#27A9E0" stroke-width="3" mask="url(#mask-4)"></line>
                    <line x1="61.1470246" y1="18.0635446" x2="76.6339631" y2="18.0635446" id="Stroke-18" stroke="#27A9E0" stroke-width="3" mask="url(#mask-4)"></line>
                    <line x1="61.1470246" y1="15.0633981" x2="65.5885201" y2="15.0633981" id="Stroke-19" stroke="#27A9E0" stroke-width="3" mask="url(#mask-4)"></line>
                    <line x1="61.1470246" y1="21.9235117" x2="86.3347428" y2="21.9235117" id="Stroke-20" stroke="#27A9E0" stroke-width="3" mask="url(#mask-4)"></line>
                    <line x1="61.1470246" y1="27.8623475" x2="86.3347428" y2="27.8623475" id="Stroke-21" stroke="#27A9E0" stroke-width="3" mask="url(#mask-4)"></line>
                    <line x1="61.1470246" y1="24.8621923" x2="76.0077731" y2="24.8621923" id="Stroke-22" stroke="#27A9E0" stroke-width="3" mask="url(#mask-4)"></line>
                    <path d="M11.2056151,25.2691767 L11.2056151,25.2691767 C11.0873743,25.2691767 10.9914447,25.1725401 10.9914447,25.0532324 L10.9914447,23.671434 C10.9914447,23.5522138 11.0873743,23.4554897 11.2056151,23.4554897 C11.3238559,23.4554897 11.4197854,23.5522138 11.4197854,23.671434 L11.4197854,25.0532324 C11.4197854,25.1725401 11.3238559,25.2691767 11.2056151,25.2691767" id="Fill-23" fill="#4C65BA" mask="url(#mask-4)"></path>
                    <path d="M34.7605514,31.1418549 L34.7605514,31.1418549 C34.6423106,31.1418549 34.546381,31.0452183 34.546381,30.9259981 L34.546381,27.7305127 C34.546381,27.6112926 34.6423106,27.514656 34.7605514,27.514656 C34.8787921,27.514656 34.9746349,27.6112926 34.9746349,27.7305127 L34.9746349,30.9259981 C34.9746349,31.0452183 34.8787921,31.1418549 34.7605514,31.1418549" id="Fill-24" fill="#4C65BA" mask="url(#mask-4)"></path>
                    <path d="M11.2056151,31.1418549 L11.2056151,31.1418549 C11.0873743,31.1418549 10.9914447,31.0452183 10.9914447,30.9259981 L10.9914447,27.7305127 C10.9914447,27.6112926 11.0873743,27.514656 11.2056151,27.514656 C11.3238559,27.514656 11.4197854,27.6112926 11.4197854,27.7305127 L11.4197854,30.9259981 C11.4197854,31.0452183 11.3238559,31.1418549 11.2056151,31.1418549" id="Fill-25" fill="#4C65BA" mask="url(#mask-4)"></path>
                    <path d="M11.2056151,35.4601281 L11.2056151,35.4601281 C11.0873743,35.4601281 10.9914447,35.3634915 10.9914447,35.2441838 L10.9914447,32.0486984 C10.9914447,31.9294782 11.0873743,31.8328416 11.2056151,31.8328416 C11.3238559,31.8328416 11.4197854,31.9294782 11.4197854,32.0486984 L11.4197854,35.2441838 C11.4197854,35.3634915 11.3238559,35.4601281 11.2056151,35.4601281" id="Fill-26" fill="#4C65BA" mask="url(#mask-4)"></path>
                    <path d="M31.805478,65.8169507 L14.1178023,65.8169507 C12.4857843,65.8169507 11.1627376,64.4829454 11.1627376,62.8374095 L11.1627376,20.0442 C11.1627376,18.3985767 12.4857843,17.0646589 14.1178023,17.0646589 L31.805478,17.0646589 C33.437496,17.0646589 34.7605427,18.3985767 34.7605427,20.0442 L34.7605427,62.8374095 C34.7605427,64.4829454 33.437496,65.8169507 31.805478,65.8169507" id="Fill-27" fill="#4C65BA" mask="url(#mask-4)"></path>
                    <path d="M31.2862429,65.4221061 L14.6371242,65.4221061 C13.1008621,65.4221061 11.855514,64.112435 11.855514,62.4968355 L11.855514,20.4833714 C11.855514,18.8677719 13.1008621,17.5581008 14.6371242,17.5581008 L31.2862429,17.5581008 C32.8224182,17.5581008 34.0678531,18.8677719 34.0678531,20.4833714 L34.0678531,62.4968355 C34.0678531,64.112435 32.8224182,65.4221061 31.2862429,65.4221061" id="Fill-28" fill="#599AF2" mask="url(#mask-4)"></path>
                    <path d="M31.2862429,65.0104289 L14.6371242,65.0104289 C13.1008621,65.0104289 11.855514,63.7259674 11.855514,62.1415297 L11.855514,20.9365218 C11.855514,19.3519966 13.1008621,18.067535 14.6371242,18.067535 L31.2862429,18.067535 C32.8224182,18.067535 34.0678531,19.3519966 34.0678531,20.9365218 L34.0678531,62.1415297 C34.0678531,63.7259674 32.8224182,65.0104289 31.2862429,65.0104289" id="Fill-29" fill="#3E479B" mask="url(#mask-4)"></path>
                    <polygon id="Fill-30" fill="#FFFFFF" mask="url(#mask-4)" points="12.554706 60.1601379 33.3686437 60.1601379 33.3686437 23.0236711 12.554706 23.0236711"></polygon>
                    <polygon id="Fill-32" fill="#FFFFFF" mask="url(#mask-4)" points="29.2327599 56.0176751 29.2327599 49.4423594 33.3686698 49.4423594 33.3686698 47.6286724 19.0731677 47.6286724 19.0731677 44.2407016 33.3686698 44.2407016 33.3686698 43.3339456 19.0731677 43.3339456 19.0731677 39.571683 33.3686698 39.571683 33.3686698 37.7580836 29.2327599 37.7580836 29.2327599 29.3282905 33.3686698 29.3282905 33.3686698 27.5146034 12.5546452 27.5146034 12.5546452 29.3282905 27.433972 29.3282905 27.433972 37.7580836 12.5546452 37.7580836 12.5546452 39.571683 17.2743799 39.571683 17.2743799 47.6286724 12.5546452 47.6286724 12.5546452 49.4423594 27.433972 49.4423594 27.433972 56.0176751 12.623836 56.0176751 12.623836 57.8313621 33.4378606 57.8313621 33.4378606 56.0176751"></polygon>
                    <path d="M27.0034436,34.3844244 C27.0034436,36.1753528 24.4442511,39.8995385 23.3986622,41.3462865 C23.1824952,41.6453873 22.7407851,41.6453873 22.524618,41.3462865 C21.479116,39.8995385 18.9198367,36.1753528 18.9198367,34.3844244 C18.9198367,32.1336844 20.7293895,30.3090557 22.9616401,30.3090557 C25.1938907,30.3090557 27.0034436,32.1336844 27.0034436,34.3844244" id="Fill-33" fill="#599AF2" mask="url(#mask-4)"></path>
                    <path d="M25.1572031,34.6222345 C25.1572031,35.8448101 24.1742072,36.835948 22.9616749,36.835948 C21.7490557,36.835948 20.7660598,35.8448101 20.7660598,34.6222345 C20.7660598,33.3995714 21.7490557,32.408521 22.9616749,32.408521 C24.1742072,32.408521 25.1572031,33.3995714 25.1572031,34.6222345" id="Fill-34" fill="#FFFFFF" mask="url(#mask-4)"></path>
                    <path d="M23.9071324,43.030118 C23.9071324,43.5373727 23.4992798,43.9485159 22.996279,43.9485159 C22.4931913,43.9485159 22.0853387,43.5373727 22.0853387,43.030118 C22.0853387,42.5228634 22.4931913,42.1117202 22.996279,42.1117202 C23.4992798,42.1117202 23.9071324,42.5228634 23.9071324,43.030118" id="Fill-35" fill="#599AF2" mask="url(#mask-4)"></path>
                    <path d="M24.4606156,62.6380615 C24.4606156,63.4727777 23.7895427,64.1494966 22.9616835,64.1494966 C22.1338244,64.1494966 21.4627515,63.4727777 21.4627515,62.6380615 C21.4627515,61.8034329 22.1338244,61.1267141 22.9616835,61.1267141 C23.7895427,61.1267141 24.4606156,61.8034329 24.4606156,62.6380615 Z" id="Stroke-36" stroke="#FFFFFF" mask="url(#mask-4)"></path>
                    <path d="M19.642564,20.3032544 C19.642564,20.5178857 19.4699776,20.6918141 19.2571094,20.6918141 C19.0442413,20.6918141 18.8716549,20.5178857 18.8716549,20.3032544 C18.8716549,20.0886231 19.0442413,19.9146072 19.2571094,19.9146072 C19.4699776,19.9146072 19.642564,20.0886231 19.642564,20.3032544 Z" id="Stroke-37" stroke="#FFFFFF" mask="url(#mask-4)"></path>
                    <path d="M23.2186011,19.0509438 C23.2186011,19.1940605 23.1035725,19.3100419 22.9617183,19.3100419 C22.8197772,19.3100419 22.7047486,19.1940605 22.7047486,19.0509438 C22.7047486,18.9079146 22.8197772,18.7919332 22.9617183,18.7919332 C23.1035725,18.7919332 23.2186011,18.9079146 23.2186011,19.0509438 Z" id="Stroke-38" stroke="#FFFFFF" mask="url(#mask-4)"></path>
                    <path d="M24.9317382,20.5191374 L20.9915941,20.5191374 C20.8969667,20.5191374 20.8203099,20.4418456 20.8203099,20.3464345 C20.8203099,20.2510233 20.8969667,20.1737316 20.9915941,20.1737316 L24.9317382,20.1737316 C25.0262788,20.1737316 25.1030224,20.2510233 25.1030224,20.3464345 C25.1030224,20.4418456 25.0262788,20.5191374 24.9317382,20.5191374 Z" id="Stroke-39" stroke="#FFFFFF" mask="url(#mask-4)"></path>
                    <path d="M86.7425433,31.2379225 C84.3634033,28.8992117 80.9962321,27.5666069 77.4658505,27.5666069 L76.3087055,27.5666069 L37.9098799,27.5666069 C36.2126645,27.5666069 34.8368349,28.9538324 34.8368349,30.6651056 L34.8368349,57.0019066 C34.8368349,58.7131798 36.2126645,60.1004053 37.9098799,60.1004053 L76.3087055,60.1004053 L104.587526,60.1004053 L104.587526,50.1165485 C104.587526,49.2568854 104.229331,48.4281215 103.583261,47.7928934 L86.7425433,31.2379225 Z" id="Fill-40" fill="#1284C3" mask="url(#mask-4)"></path>
                    <path d="M84.4406678,32.5223753 C84.1328251,32.2345663 83.6882501,32.0694788 83.2209299,32.0694788 L79.4110937,32.0694788 C79.1740044,32.0694788 78.9818848,32.2267759 78.9818848,32.4208369 L78.9818848,45.014057 C78.9818848,45.1881605 79.1542976,45.3293515 79.3669921,45.3293515 L92.5706334,45.3293515 L92.5706334,40.1234045 L84.4406678,32.5223753 Z" id="Fill-41" fill="#FFFFFF" mask="url(#mask-4)"></path>
                    <path d="M97.5499335,44.7787329 L93.3499548,40.852083 L93.3499548,45.3293164 L97.2448688,45.3293164 C97.5933405,45.3293164 97.7795568,44.9933642 97.5499335,44.7787329" id="Fill-42" fill="#D0E6F3" mask="url(#mask-4)"></path>
                    <path d="M90.8556645,46.3463729 L89.6537235,46.3463729 C89.3002165,46.3463729 89.0135564,46.057426 89.0135564,45.700991 L89.0135564,41.9660387 C89.0135564,41.6096037 89.3002165,41.3206568 89.6537235,41.3206568 L90.8556645,41.3206568 C91.2091715,41.3206568 91.4958316,41.6096037 91.4958316,41.9660387 L91.4958316,45.700991 C91.4958316,46.057426 91.2091715,46.3463729 90.8556645,46.3463729" id="Fill-43" fill="#3E479B" mask="url(#mask-4)"></path>
                    <path d="M92.8428129,45.8163072 L92.8428129,45.8163072 C92.6881102,45.9722912 92.4371307,45.9722912 92.2825148,45.8163072 L90.8648408,44.3868907 C90.7101381,44.2309066 90.7101381,43.9780233 90.8648408,43.8220393 L90.8648408,43.8219517 C91.0195435,43.6659676 91.2704362,43.6659676 91.4251389,43.8219517 L92.8428129,45.2513682 C92.9975156,45.4073523 92.9975156,45.6603231 92.8428129,45.8163072" id="Fill-44" fill="#3E479B" mask="url(#mask-4)"></path>
                    <path d="M92.8428129,45.8163072 L92.8428129,45.8163072 C92.802618,45.856835 90.8276844,43.8595034 90.8648408,43.8220393 L90.8648408,43.8219517 C91.0195435,43.6659676 91.2704362,43.6659676 91.4251389,43.8219517 L92.8428129,45.2513682 C92.9975156,45.4073523 92.9975156,45.6603231 92.8428129,45.8163072" id="Fill-45" fill="#599AF2" mask="url(#mask-4)"></path>
                    <path d="M103.918476,51.4822846 L98.7631083,51.4822846 L98.7631083,49.9883562 C98.7631083,49.3849027 99.2482254,48.8957674 99.8467217,48.8957674 L102.290712,48.8957674 C103.189585,48.8957674 103.918476,49.6306082 103.918476,50.5370141 L103.918476,51.4822846 Z" id="Fill-46" fill="#F28393" mask="url(#mask-4)"></path>
                    <path d="M103.918476,51.4822846 L101.207098,51.4822846 L101.207098,49.9883562 C101.207098,49.3849027 101.692216,48.8957674 102.290712,48.8957674 C103.189585,48.8957674 103.918476,49.6306082 103.918476,50.5370141 L103.918476,51.4822846 Z" id="Fill-47" fill="#FFFFFF" mask="url(#mask-4)"></path>
                    <polygon id="Fill-48" fill="#3D58A3" mask="url(#mask-4)" points="34.8367568 60.1004403 104.587535 60.1004403 104.587535 51.4822759 34.8367568 51.4822759"></polygon>
                    <polygon id="Fill-49" fill="#27A9E0" mask="url(#mask-4)" points="34.8367568 54.7063846 104.587535 54.7063846 104.587535 51.4822759 34.8367568 51.4822759"></polygon>
                    <path d="M41.7122848,60.1004491 L34.3005322,60.1004491 C34.0061456,60.1004491 33.7674937,59.8598204 33.7674937,59.5629955 L33.7674937,56.3287329 C33.7674937,56.0319955 34.0061456,55.7912793 34.3005322,55.7912793 L41.7122848,55.7912793 C42.0065846,55.7912793 42.2452365,56.0319955 42.2452365,56.3287329 L42.2452365,59.5629955 C42.2452365,59.8598204 42.0065846,60.1004491 41.7122848,60.1004491" id="Fill-50" fill="#2B3882" mask="url(#mask-4)"></path>
                    <path d="M105.414326,60.1004491 L99.9119625,60.1004491 C99.6176627,60.1004491 99.3790108,59.8598204 99.3790108,59.5629955 L99.3790108,56.3287329 C99.3790108,56.0319955 99.6176627,55.7912793 99.9119625,55.7912793 L105.414326,55.7912793 C105.708713,55.7912793 105.947365,56.0319955 105.947365,56.3287329 L105.947365,59.5629955 C105.947365,59.8598204 105.708713,60.1004491 105.414326,60.1004491" id="Fill-51" fill="#3E479B" mask="url(#mask-4)"></path>
                    <path d="M86.0609746,48.8957761 L82.8578821,48.8957761 C82.4044521,48.8957761 82.0367944,48.5251607 82.0367944,48.0678875 C82.0367944,47.6107019 82.4044521,47.2400865 82.8578821,47.2400865 L86.0609746,47.2400865 C86.5144046,47.2400865 86.8819754,47.6107019 86.8819754,48.0678875 C86.8819754,48.5251607 86.5144046,48.8957761 86.0609746,48.8957761" id="Fill-52" fill="#FFFFFF" mask="url(#mask-4)"></path>
                    <polygon id="Fill-53" fill="#F28393" mask="url(#mask-4)" points="34.8367568 50.189061 38.5028288 50.189061 38.5028288 48.0679576 34.8367568 48.0679576"></polygon>
                    <polygon id="Fill-54" fill="#FFFFFF" mask="url(#mask-4)" points="34.8367568 52.0338223 38.5028288 52.0338223 38.5028288 50.189061 34.8367568 50.189061"></polygon>
                    <polygon id="Fill-55" fill="#F28393" mask="url(#mask-4)" points="34.8367568 55.7641353 38.5028288 55.7641353 38.5028288 51.4822759 34.8367568 51.4822759"></polygon>
                    <path d="M34.856487,30.3175552 L76.5951225,30.3175552 L77.1583723,30.3175552 C78.1654157,30.3175552 78.9818154,29.4943934 78.9818154,28.4790088 L78.9818154,27.5665631 L37.5651586,27.5665631 C36.0615386,27.5665631 34.8457073,28.8014809 34.856487,30.3175552" id="Fill-56" fill="#27A9E0" mask="url(#mask-4)"></path>
                    <path d="M68.6306767,38.6536353 L45.0451992,38.6536353 C44.8598511,38.6536353 44.7095759,38.5022029 44.7095759,38.3152321 L44.7095759,34.5966485 C44.7095759,34.4097653 44.8598511,34.2582454 45.0451992,34.2582454 L68.6306767,34.2582454 C68.8160247,34.2582454 68.9662999,34.4097653 68.9662999,34.5966485 L68.9662999,38.3152321 C68.9662999,38.5022029 68.8160247,38.6536353 68.6306767,38.6536353" id="Fill-57" fill="#FFFFFF" mask="url(#mask-4)"></path>
                    <path d="M62.566487,42.4325204 L51.1093715,42.4325204 C50.9240234,42.4325204 50.7737482,42.2810881 50.7737482,42.0941172 L50.7737482,40.5733162 C50.7737482,40.3863454 50.9240234,40.234913 51.1093715,40.234913 L62.566487,40.234913 C62.7518351,40.234913 62.9021102,40.3863454 62.9021102,40.5732286 L62.9021102,42.0941172 C62.9021102,42.2810881 62.7518351,42.4325204 62.566487,42.4325204" id="Fill-58" fill="#FFFFFF" mask="url(#mask-4)"></path>
                    <g id="Group-61" mask="url(#mask-4)">
                        <g transform="translate(92.891073, 47.180371)">
                            <line x1="0.3988" y1="0.0597151194" x2="0.3988" y2="7.52603077" id="Fill-59" stroke="none" fill="#7F5E07" fill-rule="evenodd"></line>
                            <line x1="0.3988" y1="0.0597151194" x2="0.3988" y2="7.52603077" id="Stroke-60" stroke="#599AF2" stroke-width="1" fill="none"></line>
                        </g>
                    </g>
                    <g id="Group-67" mask="url(#mask-4)">
                        <g transform="translate(76.222768, 30.461538)">
                            <line x1="0.4948" y1="0.0870692308" x2="0.4948" y2="29.6388756" id="Fill-65" stroke="none" fill="#7F5E07" fill-rule="evenodd"></line>
                            <line x1="0.4948" y1="0.0870692308" x2="0.4948" y2="29.6388756" id="Stroke-66" stroke="#599AF2" stroke-width="1" fill="none"></line>
                        </g>
                    </g>
                    <path d="M91.0682115,63.3504589 C89.2132549,63.3504589 87.7094613,61.8342095 87.7094613,59.9638011 C87.7094613,58.093305 89.2132549,56.5770557 91.0682115,56.5770557 C92.9232549,56.5770557 94.4270485,58.093305 94.4270485,59.9638011 C94.4270485,61.8342095 92.9232549,63.3504589 91.0682115,63.3504589 M91.0682115,53.8371804 C87.7873335,53.8371804 85.1275235,56.5189337 85.1275235,59.8270743 C85.1275235,63.1351273 87.7873335,65.8169682 91.0682115,65.8169682 C94.3491762,65.8169682 97.0089862,63.1351273 97.0089862,59.8270743 C97.0089862,56.5189337 94.3491762,53.8371804 91.0682115,53.8371804" id="Fill-68" fill="#2B3882" mask="url(#mask-4)"></path>
                    <path d="M91.0682115,56.5770732 C89.2132549,56.5770732 87.7094613,58.0933225 87.7094613,59.963731 C87.7094613,61.8342271 89.2132549,63.3504764 91.0682115,63.3504764 C92.9232549,63.3504764 94.4270485,61.8342271 94.4270485,59.963731 C94.4270485,58.0933225 92.9232549,56.5770732 91.0682115,56.5770732" id="Fill-69" fill="#FFFFFF" mask="url(#mask-4)"></path>
                    <path d="M92.4240826,59.963766 C92.4240826,60.7187395 91.8170785,61.3307714 91.0682201,61.3307714 C90.3194486,61.3307714 89.7125314,60.7187395 89.7125314,59.963766 C89.7125314,59.2087926 90.3194486,58.5967607 91.0682201,58.5967607 C91.8170785,58.5967607 92.4240826,59.2087926 92.4240826,59.963766" id="Fill-70" fill="#599AF2" mask="url(#mask-4)"></path>
                    <path d="M52.2147145,63.3504589 C50.3596711,63.3504589 48.8558775,61.8342095 48.8558775,59.9638011 C48.8558775,58.093305 50.3596711,56.5770557 52.2147145,56.5770557 C54.0697579,56.5770557 55.5735515,58.093305 55.5735515,59.9638011 C55.5735515,61.8342095 54.0697579,63.3504589 52.2147145,63.3504589 M52.2147145,53.8371804 C48.9337497,53.8371804 46.2740265,56.5189337 46.2740265,59.8270743 C46.2740265,63.1351273 48.9337497,65.8169682 52.2147145,65.8169682 C55.4955925,65.8169682 58.1554025,63.1351273 58.1554025,59.8270743 C58.1554025,56.5189337 55.4955925,53.8371804 52.2147145,53.8371804" id="Fill-71" fill="#2B3882" mask="url(#mask-4)"></path>
                    <path d="M52.2147145,56.5770732 C50.3596711,56.5770732 48.8558775,58.0933225 48.8558775,59.963731 C48.8558775,61.8342271 50.3596711,63.3504764 52.2147145,63.3504764 C54.0697579,63.3504764 55.5735515,61.8342271 55.5735515,59.963731 C55.5735515,58.0933225 54.0697579,56.5770732 52.2147145,56.5770732" id="Fill-72" fill="#FFFFFF" mask="url(#mask-4)"></path>
                    <path d="M53.5705075,59.963766 C53.5705075,60.7187395 52.9635034,61.3307714 52.2147319,61.3307714 C51.4659604,61.3307714 50.8589563,60.7187395 50.8589563,59.963766 C50.8589563,59.2087926 51.4659604,58.5967607 52.2147319,58.5967607 C52.9635034,58.5967607 53.5705075,59.2087926 53.5705075,59.963766" id="Fill-73" fill="#599AF2" mask="url(#mask-4)"></path>
                    <path d="M73.8841964,65.5971724 C73.8494708,66.0310743 73.2419458,66.0311618 72.5532496,65.9454668 C71.8645535,65.8596844 69.785877,65.725496 69.7402128,65.5861432 C69.6994102,65.4623714 70.1649941,65.3619708 70.6632201,65.2437135 C70.7258131,65.229008 70.7886665,65.2135146 70.8515199,65.1979337 C71.4133807,65.0584934 71.8986714,64.7521273 72.2702357,64.2720955 C72.6888532,63.7313156 73.0715297,61.2686578 73.0715297,61.2686578 L74.5798377,61.5522653 C74.5798377,61.5522653 73.7018,63.6631273 73.6117738,64.3554271 C73.5714052,64.6660822 73.7904372,64.8733607 73.8418311,65.1452387 C73.8693512,65.2930822 73.8966108,65.4444271 73.8841964,65.5971724" id="Fill-74" fill="#B77446" mask="url(#mask-4)"></path>
                    <path d="M73.8841096,65.5971724 C73.8492971,66.0308117 73.2419458,66.0312493 72.5534233,65.9454668 C72.0815019,65.886557 72.0182144,65.9511565 71.7147992,66 L70.5040031,66 C69.9772152,65.9082653 69.7750252,65.6931088 69.7402996,65.5859682 C69.6993233,65.4625464 70.1649941,65.3619708 70.6632201,65.2437135 L70.6690367,65.252817 C70.6690367,65.252817 71.2881079,65.5938462 72.0832382,65.5192679 C72.7316526,65.4584324 73.3944781,65.1906684 73.8418311,65.1452387 C73.8692644,65.2932573 73.8964372,65.4441645 73.8841096,65.5971724" id="Fill-75" fill="#14A884" mask="url(#mask-4)"></path>
                    <path d="M72.535609,63.0420446 C72.535609,63.0420446 72.9307867,63.3055194 73.3021774,63.3736202 C73.8592634,63.4756838 74.1178826,63.3624159 74.1178826,63.3624159 C74.1178826,63.3624159 76.7976598,56.5783337 76.6446934,54.2860154 C76.6409604,54.230782 76.6390505,54.1722223 76.6383559,54.1102488 C76.6339284,53.7125857 76.690618,53.1824849 76.7885443,52.5723788 C76.824659,52.348644 76.8662429,52.1144053 76.912428,51.8721135 C77.019817,51.3069119 77.1529898,50.6970684 77.299098,50.0753204 C77.3633404,49.8016042 77.4305345,49.5255247 77.4986835,49.2497952 C78.172274,46.5372302 78.995532,43.8642302 78.995532,43.8642302 C78.995532,43.8642302 74.1598138,42.271652 73.8863494,43.7600658 C73.7813043,44.3313947 73.4317908,46.6172355 73.5891848,50.112522 C73.7161938,52.9261003 73.6340676,55.1207316 73.3929849,57.6678589 C73.1809849,59.9046812 72.8182757,61.8286599 72.535609,63.0420446" id="Fill-76" fill="#9E69CE" mask="url(#mask-4)"></path>
                    <path d="M76.6383386,54.1102401 C76.6339111,53.7125769 76.6906007,53.1824761 76.7885269,52.57237 C76.8246416,52.3486353 76.8662256,52.1143966 76.9124106,51.8721048 C77.0198865,51.3069032 77.1529725,50.6970597 77.2990806,50.0753117 C77.363323,49.8015955 77.4305171,49.5255159 77.498753,49.2497865 C77.4031707,48.4221605 77.3261666,47.8541578 77.3261666,47.8541578 C77.3261666,47.8541578 75.3183304,50.6037493 76.6383386,54.1102401" id="Fill-77" fill="#4B1787" mask="url(#mask-4)"></path>
                    <path d="M79.9848393,65.5971724 C79.94994,66.0310743 79.3425887,66.0311618 78.6538057,65.9454668 C77.9651964,65.8596844 75.8864331,65.725496 75.8406821,65.5861432 C75.7999663,65.4623714 76.265637,65.3619708 76.7636894,65.2437135 C76.826456,65.229008 76.8893094,65.2135146 76.9521628,65.1979337 C77.51385,65.0584934 77.8883659,64.6380716 78.370705,64.2720955 C78.8277812,63.9256393 78.5080449,62.244565 78.5080449,62.244565 L79.926153,61.733809 C79.926153,61.733809 79.7123299,63.4249496 79.7123299,64.3554271 C79.7123299,64.6688833 79.8910801,64.8733607 79.9423872,65.1452387 C79.9699073,65.2930822 79.9972537,65.4444271 79.9848393,65.5971724" id="Fill-78" fill="#B77446" mask="url(#mask-4)"></path>
                    <path d="M79.9846223,65.5971724 C79.9499835,66.0308117 79.3423717,66.0312493 78.653936,65.9454668 C78.1821014,65.886557 78.1189007,65.9511565 77.8153987,66 L76.6046026,66 C76.0778147,65.9082653 75.8755379,65.6931088 75.8408123,65.5859682 C75.799836,65.4625464 76.26542,65.3619708 76.7637328,65.2437135 L76.7694626,65.252817 C76.7694626,65.252817 77.3886206,65.5938462 78.1837509,65.5192679 C78.8321653,65.4584324 79.4949908,65.1906684 79.9425174,65.1452387 C79.9696903,65.2932573 79.9970367,65.4441645 79.9846223,65.5971724" id="Fill-79" fill="#14A884" mask="url(#mask-4)"></path>
                    <path d="M76.0826156,43.3334117 C76.0826156,43.3334117 77.6559473,51.2394064 77.9216852,55.5424488 C78.1875099,59.8454037 78.5192265,63.4078281 78.5192265,63.4078281 C78.5192265,63.4078281 78.8624894,63.5327379 79.2564518,63.5099793 C79.6724649,63.4860828 80.0021848,63.3567088 80.0021848,63.3567088 C80.0021848,63.3567088 81.5615394,56.8827565 81.0450824,54.2913374 C80.5285386,51.6998308 80.9587892,49.3094753 81.2066434,47.1600987 C81.5622339,44.0780562 80.1943912,42.6455761 79.2396098,41.6689687 C78.2730218,40.6805443 76.0826156,43.3334117 76.0826156,43.3334117" id="Fill-80" fill="#9E69CE" mask="url(#mask-4)"></path>
                    <path d="M74.9675494,28.8527403 C74.8111972,27.5655653 75.2099343,25.5059101 77.7579278,25.8350347 C80.3059212,26.1641594 81.1089515,28.6889658 80.5950121,29.8115785 C80.0810727,30.9341037 81.334755,31.2049313 81.7282832,32.4121886 C82.0663373,33.4492814 82.184144,34.7369817 82.7312464,35.3148756 C84.4952218,37.1779313 81.037764,40.0432416 78.953705,39.4389127 C75.157325,38.3384459 74.668388,38.1742337 74.8031235,35.1667695 C74.8721407,33.6257483 76.0612333,33.0287721 75.306298,32.5828782 C73.4825944,31.5058703 75.3213168,31.7653186 74.9675494,28.8527403" id="Fill-81" fill="#4B1787" mask="url(#mask-4)"></path>
                    <path d="M75.7388752,32.9862923 L76.4925951,34.1261491 L78.0110603,34.050783 L78.7124313,32.2226531 C78.7124313,32.2226531 78.4960906,32.1813374 78.3952994,29.9017114 L76.4999743,30.4845947 C76.4999743,30.4845947 76.6007654,31.0791199 76.466464,31.7260775 C76.3732257,32.1773984 76.1679972,32.6590934 75.7388752,32.9862923" id="Fill-82" fill="#D9935C" mask="url(#mask-4)"></path>
                    <path d="M75.5276044,32.1820814 C75.6251835,32.1820814 77.410602,31.5798533 79.9599844,32.6267499 C79.9599844,32.6267499 78.7496224,39.6085695 79.2696388,40.9409117 C79.7893948,42.2734289 79.9869836,43.4560894 79.9869836,43.4560894 L74.3471065,43.5266411 C74.3471065,43.5266411 74.4260205,38.9531212 74.1659255,37.3343706 C73.9060909,35.7156199 75.5276044,32.1820814 75.5276044,32.1820814" id="Fill-83" fill="#D9935C" mask="url(#mask-4)"></path>
                    <path d="M79.9563122,40.3962629 C79.9228888,40.2618119 79.9002303,40.1422416 79.8913753,40.0432416 C79.817236,39.2004724 79.9434637,38.5134247 80.1531197,37.8393318 C80.153467,37.838544 80.1538143,37.8379313 80.1538143,37.8373186 C80.1572,37.8268146 80.1604989,37.8158729 80.1639715,37.8052814 C80.1697012,37.7875122 80.1767332,37.7603769 80.1851541,37.7252761 C80.1855014,37.7243133 80.1855014,37.723613 80.1858486,37.7224751 C80.1940092,37.690613 80.2027774,37.6520984 80.2129346,37.6081568 C80.2159731,37.5938013 80.2193589,37.5785706 80.2226578,37.5618517 C80.3678978,36.9064034 80.6863319,35.2599048 80.7703679,35.0356448 C80.7981484,34.9613292 80.8298355,34.8333557 80.8568347,34.6760586 C80.9419993,34.1803584 80.9793294,33.3917721 80.6927561,33.0622973 C80.2935849,32.6036236 78.923485,32.2743239 78.923485,32.2743239 C78.6449854,32.7145281 77.7016636,33.7911859 76.5177799,33.5944114 C75.8333376,33.4803557 75.727598,32.1375095 75.727598,32.1375095 C74.9921959,32.2396607 74.8040698,32.3524034 74.8040698,32.3524034 C74.8040698,32.3524034 73.0411361,33.4615361 70.5500927,36.9933239 C70.4711787,37.1055414 70.2830526,37.092674 69.8231115,37.0027775 C69.2376373,36.8877589 68.0425546,36.9026395 66.239426,36.6357509 C66.239426,36.6357509 66.177354,36.6811806 66.1604252,36.8799684 C66.1233556,37.3187721 66.0796881,37.4486714 66.0796881,37.4486714 C66.0796881,37.4486714 67.2670444,38.0129976 68.5298421,38.4160878 C68.9765874,38.559117 69.4436472,38.6925175 69.8893507,38.7930931 C70.304322,38.8865785 70.7011492,38.9516156 71.0455407,38.9680719 C71.0455407,38.9680719 72.4846578,38.4103981 73.8789789,36.8611488 C73.9602369,38.1616289 74.1402025,39.8411276 74.0298618,41.0676422 C73.9666611,41.7658942 73.4929166,44.1154592 73.6117651,44.5062947 C73.8596193,45.3207907 75.7620632,45.3628942 77.4611885,45.2778119 C77.4984318,45.2762363 77.5351541,45.2741355 77.5723106,45.2716846 C77.8357045,45.2563663 78.0943237,45.2332576 78.3357536,45.2059472 C78.7910067,45.1545653 79.1857504,45.087865 79.442286,45.0282549 C79.7739158,44.9517509 80.1902762,44.8416342 80.5289379,44.6768968 C80.7885989,44.5505865 81.0020747,44.3923265 81.096268,44.1921382 C80.9327971,43.305865 80.1457405,41.3754963 79.9563122,40.3962629" id="Fill-84" fill="#D86600" mask="url(#mask-4)"></path>
                    <path d="M76.2550544,42.652465 C76.5768742,43.7531944 76.7638717,44.6592501 77.5722845,45.2717196 C77.8356785,45.2564013 78.0942976,45.233205 78.3358144,45.2059822 C78.7909807,45.1546003 79.1857243,45.0878125 79.44226,45.0283775 C79.7738898,44.9517859 80.1902501,44.8416692 80.5289119,44.6769318 C80.7885728,44.5506215 81.0020486,44.3923615 81.0962419,44.1921732 C80.932771,43.3059 80.1457145,41.3754438 79.9562862,40.3962979 C79.9376211,40.3009743 79.9248595,40.2147541 79.9187825,40.1395631 C79.8485499,39.2624809 79.9613214,38.5419955 80.1530937,37.8393668 C80.153441,37.838579 80.153875,37.8379663 80.153875,37.837266 C80.1642927,37.7998019 80.1747972,37.7627753 80.1852149,37.7253111 C80.1854753,37.7242607 80.1854753,37.7235605 80.1858226,37.7225101 C80.1925941,37.6983509 80.2017096,37.6592236 80.2129086,37.6081918 C80.2159471,37.5938363 80.2193328,37.578518 80.2227186,37.5618867 C80.352332,36.940839 80.6916883,34.9919133 80.7781551,34.737717 C80.8055016,34.657274 80.8362337,34.5194093 80.8628857,34.349595 L80.1838259,33.6907329 C80.1838259,33.6907329 76.2877833,35.3682183 75.4295392,37.6820698 C74.5712084,39.9958337 75.7927694,41.0734544 76.2550544,42.652465" id="Fill-85" fill="#D86600" mask="url(#mask-4)"></path>
                    <path d="M68.5298681,38.416079 C69.3922793,38.6918085 70.3306527,38.9335751 71.0455667,38.9680631 C71.0455667,38.9680631 72.503783,38.4033867 73.906959,36.8305034 C73.9659926,36.5632647 74.0230295,36.1148324 73.701991,36.2442064 C73.2515127,36.4257501 71.5858108,38.5823045 70.9552801,38.6275592 C70.5042809,38.6598589 69.2216896,38.5063257 68.5298681,38.416079" id="Fill-86" fill="#008D6A" mask="url(#mask-4)"></path>
                    <path d="M71.6068745,37.8019814 C71.6068745,37.8019814 73.5273124,38.7745623 75.1924934,39.1769523 C75.6716203,39.2927586 76.1332108,39.3748647 76.5269127,39.3935968 C76.5269127,39.3935968 78.3553042,38.8649841 79.6841674,36.9081804 C82.1413533,33.2895597 80.285789,32.7779284 80.285789,32.7779284 C80.285789,32.7779284 78.5225081,33.8872361 76.031812,37.4188488 C75.9447374,37.5424456 75.7258791,37.5146101 75.1592436,37.3990663 C74.5541494,37.2758196 73.3497776,37.2905252 71.6871142,37.044382 C71.6871142,37.044382 71.6589864,37.106618 71.6421445,37.3054934 C71.6047276,37.7443846 71.6068745,37.8019814 71.6068745,37.8019814" id="Fill-87" fill="#D86600" mask="url(#mask-4)"></path>
                    <path d="M69.8230942,37.0028125 C69.2435233,36.8888443 68.0111106,36.880091 66.2372383,36.6209928 C66.0992039,36.5768761 65.9425913,36.518579 65.7970909,36.4451387 C65.4170188,36.2534411 64.4034644,36.1257302 64.1881654,36.3300326 C63.9726929,36.5345976 64.416226,37.3648496 65.3409697,37.3904093 C65.6650467,37.3993377 65.9080393,37.424022 66.0871368,37.4522952 C66.1848026,37.4982501 67.3225012,38.0306268 68.5299115,38.4161228 C68.9766568,38.5590645 69.4436298,38.6925525 69.8893333,38.7930406 C70.0682572,37.9905366 69.9446339,37.3651122 69.8230942,37.0028125" id="Fill-88" fill="#A86337" mask="url(#mask-4)"></path>
                    <path d="M76.4664901,31.7260337 C77.2499004,31.662222 78.3953255,29.9016676 78.3953255,29.9016676 L76.4999135,30.4845509 C76.4999135,30.4845509 76.6007047,31.0790761 76.4664901,31.7260337" id="Fill-89" fill="#CC7C46" mask="url(#mask-4)"></path>
                    <path d="M76.003554,30.6138286 C76.003554,30.6138286 78.2731346,31.0734653 78.5351396,29.6439613 C78.7973181,28.2145448 79.2666351,27.3112027 77.8286465,26.9573061 C76.3907448,26.6034971 76.0084156,27.0962212 75.8059651,27.5520064 C75.603341,28.007704 75.4199897,30.457582 76.003554,30.6138286" id="Fill-90" fill="#D9935C" mask="url(#mask-4)"></path>
                    <path d="M77.1126387,26.6004684 C77.1126387,26.6004684 77.0728778,27.0853146 77.8193053,27.9080387 C78.5657328,28.7306753 78.387764,30.1973809 78.387764,30.1973809 C78.387764,30.1973809 79.6457001,27.8132403 78.9746272,27.052052 C78.3034675,26.2908637 77.1126387,26.6004684 77.1126387,26.6004684" id="Fill-91" fill="#4B1787" mask="url(#mask-4)"></path>
                    <path d="M78.0252891,25.969617 C78.0252891,25.969617 76.8969664,25.5889353 75.7773251,26.7013066 C75.2949861,27.1805507 75.3679099,28.1227576 75.6261818,28.6694021 C75.6261818,28.6694021 76.023009,27.4979459 76.7451286,27.2424366 C77.467335,26.9869273 78.0252891,25.969617 78.0252891,25.969617" id="Fill-92" fill="#4B1787" mask="url(#mask-4)"></path>
                    <polygon id="Fill-93" fill="#00BAE4" mask="url(#mask-4)" points="69.0820839 33.7512621 64.2494909 33.8610286 65.3586277 40.6307554 70.2505147 40.790591"></polygon>
                    <path d="M75.1924673,39.1769523 C74.8270668,38.4481512 74.969876,37.8110849 75.1593043,37.3990663 C74.5541233,37.2758196 73.3413305,37.2223369 71.6786672,36.9761936 C71.6786672,36.9761936 71.6784067,36.9774191 71.6782331,36.9790822 C71.4990488,36.9313767 71.234179,36.849008 70.9969161,36.7295252 C70.5912339,36.5248727 69.5092699,36.3885836 69.2792126,36.6068037 C69.0494157,36.8250239 69.5227261,37.7113846 70.5101495,37.7386074 C71.0569915,37.7537507 71.3877532,37.8106472 71.5744034,37.8584403 C71.7387425,37.9348568 73.6022069,38.7925942 75.1924673,39.1769523" id="Fill-94" fill="#F5A623" mask="url(#mask-4)"></path>
                    <path d="M57.7456834,38.5487443 C57.7456834,38.5487443 56.5920978,39.0897867 55.3560388,39.4840361 C54.9164991,39.6213756 54.4679307,39.7496992 54.028391,39.8505374 C53.6255736,39.9424472 53.2409872,40.006609 52.9022387,40.0156249 C52.9022387,40.0156249 52.8748922,40.006609 52.8199389,39.978861 C52.5086236,39.8415215 51.2907956,39.2639777 50.1097767,37.9526435 C50.0181879,37.8427894 49.9174835,37.7326727 49.8258079,37.6135401 C49.7527104,37.5309963 49.6794393,36.7150997 49.624486,35.8625268 L49.6153705,35.8530732 C49.5512149,34.8537947 49.5054639,33.7901793 49.5054639,33.7901793 C49.5054639,33.7901793 51.0985892,34.2212801 53.3875294,38.1087151 C53.4515982,38.2186568 53.6438914,38.2002748 54.0924598,38.1178186 C54.6692526,38.0077019 55.8322141,38.0169804 57.5900257,37.7601581 C57.5900257,37.7601581 57.6540945,37.806113 57.6724991,37.9985984 C57.6999324,38.4202456 57.7456834,38.5487443 57.7456834,38.5487443" id="Fill-95" fill="#E52998" mask="url(#mask-4)"></path>
                    <path d="M52.8199129,39.9788523 C52.5085975,39.8415127 51.2908563,39.263969 50.1097507,37.9527223 C50.0182486,37.8427806 49.9174575,37.7326639 49.8258686,37.6136188 C49.7526844,37.5309875 49.6794133,36.715091 49.62446,35.862518 C49.8442732,36.0822263 52.4078932,38.576396 52.8199129,39.9788523" id="Fill-96" fill="#E52998" mask="url(#mask-4)"></path>
                    <path d="M47.0624634,27.0126621 C47.0624634,27.0126621 46.9166157,26.7135613 46.1877247,26.7955798 C45.4588336,26.8775109 44.1983799,27.0125745 44.1876149,31.0144154 C44.1863995,31.4527814 41.5648745,35.4491952 44.5214151,39.2120706 L46.6318655,33.8297443 L47.0624634,27.0126621 Z" id="Fill-97" fill="#6B2BA7" mask="url(#mask-4)"></path>
                    <path d="M47.2729702,27.0650594 C47.2729702,27.0650594 46.4954632,26.8023724 46.0863084,27.1916324 C45.6770668,27.5809798 45.9089473,28.0959374 45.9089473,28.0959374 L47.2729702,27.0650594 Z" id="Fill-98" fill="#9E69CE" mask="url(#mask-4)"></path>
                    <path d="M49.7280899,28.5985178 C49.7280899,28.5985178 49.7136788,26.8820801 46.9549007,27.0796424 C46.485931,27.1132552 46.0606288,27.3820695 45.8464585,27.8011782 C45.5361849,28.4083958 45.4008418,29.4775257 46.4035445,31.1917751 L49.7280899,28.5985178 Z" id="Fill-99" fill="#6B2BA7" mask="url(#mask-4)"></path>
                    <path d="M46.2356026,33.6385981 L46.8571047,36.0718448 L48.6532881,36.1597281 L49.5472128,34.818195 C48.7114536,34.1838422 48.5932128,33.0716459 48.6054536,32.4119085 C48.6054536,32.405431 48.6058008,32.3990411 48.6058008,32.3925637 C48.6130932,32.0819085 48.6483397,31.876118 48.6483397,31.876118 L47.3739957,31.4875584 L46.4034143,31.1917838 C46.4926591,31.9331897 46.4865821,32.4681923 46.4463004,32.8453727 C46.3828393,33.4351711 46.2356026,33.6385981 46.2356026,33.6385981" id="Fill-100" fill="#F5A623" mask="url(#mask-4)"></path>
                    <path d="M44.4224296,46.2226011 L50.9398236,46.2139353 C50.9398236,46.2139353 50.1288932,41.8383279 50.5791111,40.4041846 C51.0291553,38.9700369 50.5570603,36.8747602 50.5570603,36.8747602 C49.9023952,35.3176329 49.7355386,33.8599432 49.4442773,33.7837019 C49.284279,33.7415109 49.1552732,33.6552907 48.998487,33.6236912 C46.4382527,33.1114472 44.3570586,34.044113 44.3570586,34.044113 C43.7824362,35.4892854 45.0128523,36.5747841 45.0725803,39.8380202 C45.1312667,43.0455851 44.4224296,46.2226011 44.4224296,46.2226011" id="Fill-101" fill="#F5A623" mask="url(#mask-4)"></path>
                    <path d="M51.3274572,46.5253782 C51.3274572,46.5253782 46.3649903,47.5522297 43.5266906,46.4886143 C43.3711197,46.4246276 43.9661435,44.2791024 44.3781631,42.8120467 C44.5796586,42.0877098 44.7352295,41.528548 44.726114,41.4551077 C44.6254097,39.4564631 44.2317078,37.7510546 44.0485301,36.430792 C43.9935767,36.082235 43.957028,35.7707045 43.9479125,35.4772058 L43.9479125,35.3305878 C43.9387971,34.8537947 44.0028658,34.4688239 44.1675522,34.1478398 C44.4788675,33.570296 46.1543794,33.5610175 46.1543794,33.5610175 C46.3192393,33.753678 47.2255784,34.3861926 48.3059797,34.3770891 C49.3955833,34.3678981 48.8569019,33.596731 48.8569019,33.596731 C48.9026529,33.6058345 48.9744482,33.6160759 49.0109969,33.6251793 C49.551241,33.7443995 49.9175096,34.0010467 49.9175096,34.0010467 C50.7872131,34.9546329 51.0710952,39.7040069 51.0527774,39.8598159 C51.016055,40.4372721 51.3274572,46.5253782 51.3274572,46.5253782" id="Fill-102" fill="#E52998" mask="url(#mask-4)"></path>
                    <path d="M46.446283,32.8454164 C47.2178867,32.4320849 48.4125353,32.4123024 48.6054362,32.4119523 L48.6320881,32.4119523 C48.6320881,32.4119523 48.6228858,32.4051247 48.6057835,32.3925199 C48.4781667,32.2982467 47.9051938,31.8758117 47.3740652,31.4875146 L46.4033969,31.1917401 C46.4926418,31.9331459 46.4865648,32.4681485 46.446283,32.8454164" id="Fill-103" fill="#F5A623" mask="url(#mask-4)"></path>
                    <path d="M49.0849538,32.4476658 C49.0849538,32.4476658 46.3468375,32.5730133 46.2950963,30.864191 C46.2435287,29.1555438 45.8552962,28.020939 47.6013011,27.8686313 C49.3473928,27.7164111 49.7068899,28.3581167 49.8627212,28.9242812 C50.0184657,29.4904456 49.7957876,32.3710743 49.0849538,32.4476658" id="Fill-104" fill="#F5A623" mask="url(#mask-4)"></path>
                    <path d="M48.8078172,28.5432143 C48.8078172,28.5432143 49.9805019,29.3510578 49.7925494,30.2875751 C49.7925494,30.2875751 50.3734224,29.9817342 50.3187296,29.088721 C50.2639499,28.1958828 49.4132586,27.5819252 48.6644871,27.5353576 C47.9158025,27.4887899 47.3517713,27.5495379 47.3517713,27.5495379 L48.8078172,28.5432143 Z" id="Fill-105" fill="#6B2BA7" mask="url(#mask-4)"></path>
                    <path d="M49.0136534,28.246757 C49.4995518,28.5044546 47.4911948,28.7214493 47.3683528,29.5409347 C47.2456845,30.3605077 46.2880383,30.674139 46.2880383,30.674139 C46.2880383,30.674139 45.0735093,26.157078 49.0136534,28.246757" id="Fill-106" fill="#6B2BA7" mask="url(#mask-4)"></path>
                    <path d="M50.6041222,39.4564719 C50.6041222,39.4564719 48.4158863,42.3995117 44.3781631,42.8120554 C44.5796586,42.0877186 44.7352295,41.5285568 44.726114,41.4551164 C44.6254097,39.4564719 44.2317078,37.7510634 44.0485301,36.4308008 C43.9935767,36.0822438 43.957028,35.7707133 43.9479125,35.4772146 L43.9479125,35.3305966 C44.4147987,35.4224188 45.1381337,35.9081403 45.449449,35.9814931 C47.8573245,36.5501085 50.6041222,39.4564719 50.6041222,39.4564719" id="Fill-107" fill="#E52998" mask="url(#mask-4)"></path>
                    <path d="M53.0467218,38.7658703 C53.0467218,38.7658703 51.1732493,39.7083398 49.5489577,40.0982125 C49.0815507,40.2103424 48.631246,40.2898225 48.2471805,40.3079419 C48.2471805,40.3079419 46.5003943,39.7700507 45.1672771,37.8999923 C42.5923713,34.2881117 44.5803271,33.8985891 44.5803271,33.8985891 C44.5803271,33.8985891 46.3003746,34.9732337 48.7300405,38.3948172 C48.8151183,38.5145626 49.0285073,38.4874273 49.5812526,38.3756475 C50.1715016,38.2563398 51.3465302,38.2705202 52.9684778,38.0319923 C52.9684778,38.0319923 52.9957374,38.0923902 53.0123189,38.2849631 C53.0488676,38.7101117 53.0467218,38.7658703 53.0467218,38.7658703" id="Fill-108" fill="#E52998" mask="url(#mask-4)"></path>
                    <path d="M57.746864,38.5473788 C57.746864,38.5473788 56.5885905,39.0941109 55.3566118,39.4846838 C54.9208051,39.6231613 54.4652048,39.7525353 54.0304398,39.8498721 C53.8558567,39.0723151 53.9764414,38.4663231 54.0951163,38.1154027 C54.6661794,38.0038854 55.886959,37.9964451 57.6459861,37.7378721 L57.746864,38.5473788 Z" id="Fill-109" fill="#A86337" mask="url(#mask-4)"></path>
                    <path d="M57.2067328,37.8473674 C57.2067328,37.8473674 57.651655,37.7607971 58.022438,37.5751393 C58.393221,37.3894814 59.3819466,37.265622 59.5921235,37.4637095 C59.8021268,37.6617095 59.3695322,38.4661393 58.4673602,38.4909111 C57.5651882,38.515683 57.3057009,38.6642268 57.3057009,38.6642268 L57.2067328,37.8473674 Z" id="Fill-110" fill="#F5A623" mask="url(#mask-4)"></path>
                    <path d="M53.0899307,38.8153615 C53.0899307,38.8153615 51.1732493,39.7082873 49.5489577,40.0981599 C49.9053296,39.3919424 49.7660798,38.7748337 49.5812526,38.3756825 C50.1715016,38.2562873 51.3547776,38.2044676 52.9766383,37.9660273 C52.9766383,37.9660273 52.9957374,38.0923377 53.0122321,38.2849106 C53.0488676,38.7101467 53.0899307,38.8153615 53.0899307,38.8153615" id="Fill-111" fill="#F5A623" mask="url(#mask-4)"></path>
                    <path d="M32.9856026,46.2866228 L32.9856026,46.2227236 L26.1828508,46.2227236 C25.3404937,46.2227236 24.6629966,46.8920021 24.6629966,47.7080737 C24.6629966,48.4512302 25.2127034,49.0602859 25.9373405,49.173904 L25.9373405,65.8169332 L51.5175453,65.8169332 L51.5175453,46.2866228 L32.9856026,46.2866228 Z" id="Fill-112" fill="#4B1787" mask="url(#mask-4)"></path>
                    <polygon id="Fill-113" fill="#1C75BB" mask="url(#mask-4)" points="53.698593 40.1191592 57.7848452 40.1191592 57.7848452 36.0271592 53.698593 36.0271592"></polygon>
                    <polygon id="Fill-114" fill="#FEBA40" mask="url(#mask-4)" points="54.958439 40.1191592 59.0447781 40.1191592 59.0447781 36.0271592 54.958439 36.0271592"></polygon>
                    <polygon id="Fill-115" fill="#9E69CE" mask="url(#mask-4)" points="54.9584737 36.0271241 53.6985409 36.7919889 53.6985409 36.0271241"></polygon>
                    <polygon id="Fill-116" fill="#6B2BA7" mask="url(#mask-4)" points="55.6461194 36.9124607 54.272026 36.9124607 54.3297574 36.7516623 54.272026 36.5780841 55.6333577 36.5780841 55.5498426 36.7580523"></polygon>
                    <polygon id="Fill-117" fill="#9E69CE" mask="url(#mask-4)" points="54.9591509 36.5780578 54.9591509 36.9124345 54.2720174 36.9124345 54.3297487 36.7516361 54.2720174 36.5780578"></polygon>
                    <polygon id="Fill-118" fill="#6B2BA7" mask="url(#mask-4)" points="55.6461194 39.383478 54.272026 39.383478 54.3297574 39.2227671 54.272026 39.0491889 55.6333577 39.0491889 55.5498426 39.229157"></polygon>
                    <polygon id="Fill-119" fill="#9E69CE" mask="url(#mask-4)" points="54.9591509 39.0491538 54.9591509 39.383443 54.2720174 39.383443 54.3297487 39.2227321 54.2720174 39.0491538"></polygon>
                    <path d="M52.7708282,38.0176456 C52.7708282,38.0176456 53.2458749,37.9250355 53.6416603,37.726948 C54.0374457,37.5286854 55.0930182,37.3965979 55.317259,37.6079905 C55.5415866,37.819383 55.0797356,38.6782584 54.1166201,38.7046934 C53.1534179,38.7310408 52.8764809,38.8895634 52.8764809,38.8895634 L52.7708282,38.0176456 Z" id="Fill-120" fill="#F5A623" mask="url(#mask-4)"></path>
                    <polygon id="Fill-121" fill="#F3C2BC" mask="url(#mask-4)" points="33.0331073 65.8169682 58.613312 65.8169682 58.613312 46.2866578 33.0331073 46.2866578"></polygon>
                    <path d="M62.3848893,46.2226886 L26.1828074,46.2226886 C25.3405371,46.2226886 24.6629532,46.8919671 24.6629532,47.7081263 C24.6629532,48.5332138 25.3405371,49.1933013 26.1828074,49.1933013 L62.3848893,49.1933013 C63.318922,49.1933013 64.0788925,48.5239353 64.0788925,47.7081263 C64.0788925,46.8919671 63.318922,46.2226886 62.3848893,46.2226886" id="Fill-122" fill="#E07070" mask="url(#mask-4)"></path>
                    <path d="M28.7798247,62.3993936 C28.7798247,64.2867836 27.2624013,65.8169507 25.3904292,65.8169507 C23.5185438,65.8169507 22.0010336,64.2867836 22.0010336,62.3993936 C22.0010336,60.5120037 23.5185438,58.9819241 25.3904292,58.9819241 C27.2624013,58.9819241 28.7798247,60.5120037 28.7798247,62.3993936" id="Fill-123" fill="#2B3882" mask="url(#mask-4)"></path>
                    <path d="M27.3067894,62.4774382 C27.3067894,63.5445549 26.4488057,64.4096451 25.3904552,64.4096451 C24.3320179,64.4096451 23.4740342,63.5445549 23.4740342,62.4774382 C23.4740342,61.4103215 24.3320179,60.5452313 25.3904552,60.5452313 C26.4488057,60.5452313 27.3067894,61.4103215 27.3067894,62.4774382" id="Fill-124" fill="#FFFFFF" mask="url(#mask-4)"></path>
                    <path d="M20.677631,57.5352374 L25.2535147,57.5352374 C27.1568267,57.5352374 28.6997735,59.0909642 28.6997735,61.0100411 L20.677631,61.0100411 L20.677631,57.5352374 Z" id="Fill-125" fill="#4C65BA" mask="url(#mask-4)"></path>
                    <path d="M23.9296432,55.1960276 L21.1374418,51.3655767 C20.8929733,51.0302371 20.7167407,50.6494679 20.6188144,50.2451523 L20.6053582,50.1897438 L21.4653386,49.9780011 C21.5304491,49.9619825 21.5702968,49.8957199 21.5544098,49.8301576 L21.0763247,47.8563724 C21.015902,47.6069029 20.7663115,47.45407 20.5188046,47.5149931 L19.6736695,47.7231469 C18.9768128,47.8947119 18.5499479,48.6033804 18.7201035,49.3059215 C18.7227079,49.3169507 18.7267014,49.3272796 18.7296531,49.3381337 L18.72783,49.337696 L19.5547342,52.7517517 L20.2181674,51.7153592 L20.2181674,61.0100674 L10.0133451,61.0100674 L10.0133451,62.4193512 C10.0133451,63.1123512 10.5705179,63.6740515 11.2578251,63.6740515 L19.481029,63.6740515 C20.3610634,63.6740515 21.1278054,63.1919188 21.5406932,62.4765103 L21.5416482,62.4774732 L24.1147309,58.3552743 C24.6789356,57.3580966 24.606359,56.1192398 23.9296432,55.1960276" id="Fill-126" fill="#27A9E0" mask="url(#mask-4)"></path>
                    <path d="M14.5180673,46.8357621 L15.2019019,46.6673483 C15.8314776,46.5124146 16.4539346,46.8494172 16.5922295,47.420396 C16.7304375,47.9911997 16.3321345,48.5795976 15.7026455,48.7346188 L15.2401001,48.8484995 C14.9299133,48.9249159 14.623286,48.7588655 14.5551369,48.4776215 L14.252503,47.2280857 C14.2112663,47.0577462 14.3301148,46.8820671 14.5180673,46.8357621" id="Fill-127" fill="#2B3882" mask="url(#mask-4)"></path>
                    <path d="M21.7874362,48.5843682 C21.9575918,49.2869093 21.8131332,49.9259889 21.4647482,50.0118589 C21.1163633,50.0976414 20.6959227,49.5975645 20.5257671,48.8950233 C20.3555247,48.1923947 20.5000701,47.5533151 20.848455,47.4675326 C21.19684,47.3817501 21.6172806,47.8817395 21.7874362,48.5843682" id="Fill-128" fill="#4C65BA" mask="url(#mask-4)"></path>
                    <path d="M21.389819,48.1114003 C21.4879189,48.5165037 21.4046642,48.8849308 21.2037764,48.934387 C21.0028886,48.9839308 20.7605037,48.6955966 20.6624038,48.2905806 C20.5643038,47.8854772 20.6475586,47.5169626 20.8484464,47.4675939 C21.0493342,47.4180501 21.2917191,47.7062968 21.389819,48.1114003" id="Fill-129" fill="#FFFFFF" mask="url(#mask-4)"></path>
                    <path d="M18.6831554,49.0064793 L17.9088606,47.6547048 C17.7477337,47.3732857 17.4217468,47.2328825 17.1086952,47.3099992 L15.9336665,47.5993838" id="Stroke-130" stroke="#2B3882" stroke-linecap="round" stroke-linejoin="round" mask="url(#mask-4)"></path>
                    <path d="M18.952201,49.4548329 L16.5051723,50.0574111 C16.4116735,50.0804324 16.3173934,50.0226605 16.2946482,49.9284748 L16.2302321,49.6624615 C16.2074,49.5682759 16.2646105,49.4732149 16.3581093,49.4501061 L18.8051379,48.8476154 C18.8985499,48.8245942 18.9929168,48.882366 19.0156621,48.9765517 L19.0801649,49.2424775 C19.1029102,49.3367507 19.0456998,49.4318117 18.952201,49.4548329" id="Fill-131" fill="#2B3882" mask="url(#mask-4)"></path>
                    <path d="M19.2133638,49.7927371 L18.871924,49.876769 C18.7278994,49.9122199 18.5825726,49.8232862 18.5474129,49.6779812 L18.3721353,48.954257 L18.9743646,48.8059759 L19.2133638,49.7927371 Z" id="Fill-132" fill="#2B3882" mask="url(#mask-4)"></path>
                    <path d="M16.5609156,50.2045894 L16.5609156,50.2045894 C16.3738313,50.2506318 16.1850975,50.1350881 16.1394333,49.9464541 L16.1026241,49.7945841 C16.0569599,49.6059501 16.1715545,49.4156531 16.3586388,49.3696106 C16.54581,49.3235682 16.7345438,49.4391119 16.780208,49.6277459 L16.8169304,49.7796159 C16.8626814,49.9682499 16.748,50.1585469 16.5609156,50.2045894" id="Fill-133" fill="#2B3882" mask="url(#mask-4)"></path>
                    <path d="M1.74228059,55.5082934 L7.62011515,55.5082934 C8.00070811,55.5082934 8.30933219,55.197113 8.30933219,54.8133676 L8.30933219,47.2073491 C8.30933219,46.8235162 8.00070811,46.5124233 7.62011515,46.5124233 L1.72309468,46.5124233 C0.771438657,46.5124233 8.68140868e-06,47.290243 8.68140868e-06,48.2497814 L8.68140868e-06,53.7515905 C8.68140868e-06,54.721808 0.780033251,55.5082934 1.74228059,55.5082934" id="Fill-134" fill="#599AF2" mask="url(#mask-4)"></path>
                    <path d="M1.74228059,55.5082934 L7.62011515,55.5082934 C8.00070811,55.5082934 8.30933219,54.6154552 8.30933219,54.2316223 C8.30933219,54.2316223 0.0145066339,54.0125268 0.0418719881,54.1363862 C0.215915315,54.9214711 0.911122523,55.5082934 1.74228059,55.5082934" id="Fill-135" fill="#3E479B" mask="url(#mask-4)"></path>
                    <path d="M8.30934087,48.9061225 L8.30934087,47.2073666 C8.30934087,46.8235337 8.00071679,46.5123533 7.62012383,46.5123533 L1.72310336,46.5123533 C0.771447338,46.5123533 1.73628174e-05,47.2902605 1.73628174e-05,48.2497989 L1.73628174e-05,48.9447247 L8.30934087,48.9061225 Z" id="Fill-136" fill="#3E479B" mask="url(#mask-4)"></path>
                    <line x1="0.066404095" y1="54.2378645" x2="8.19445979" y2="54.2378645" id="Stroke-137" stroke="#2B3882" stroke-linecap="round" mask="url(#mask-4)"></line>
                    <line x1="0.066404095" y1="49.0127127" x2="8.19445979" y2="49.0127127" id="Stroke-138" stroke="#2B3882" stroke-linecap="round" mask="url(#mask-4)"></line>
                    <path d="M14.091541,61.0100586 L0.542900573,59.8114671 C0.43195217,59.8015759 0.348957903,59.7045016 0.356510729,59.5924592 C0.368751515,59.4087271 0.390368223,59.1421011 0.420839967,58.9819154 C0.797179034,57.0034034 2.52295627,55.5082496 4.59503489,55.5082496 L13.2713215,55.5082496 C13.6314264,55.5082496 13.8531495,55.9051249 13.6665861,56.2156926 L13.1451807,57.0834963 C12.478188,58.1935918 12.6627548,59.6216077 13.589582,60.5223239 L14.091541,61.0100586 Z" id="Fill-139" fill="#599AF2" mask="url(#mask-4)"></path>
                    <path d="M14.091541,55.5082934 L4.59503489,55.5082934 C2.5761733,55.5082934 0.886076658,56.9274684 0.452527109,58.8303517 C0.381947256,59.140044 0.344617199,59.4626037 0.344617199,59.7939167 L7.48568354,60.3554419 C7.48568354,60.3554419 6.40068108,59.8898531 6.40068108,57.3898186 C6.40068108,55.4797576 9.04017658,55.4612005 9.04017658,55.4612005" id="Fill-140" fill="#FFFFFF" mask="url(#mask-4)"></path>
                    <path d="M9.00762129,55.5082934 L4.26618313,55.5082934 C2.99392269,55.5082934 0.685883374,56.9274684 0.412592629,58.8303517 C0.368143817,59.140044 0.344617199,59.4626037 0.344617199,59.7939167 L4.65875643,60.1331077 C4.65875643,60.1331077 3.96129206,59.925304 4.16096446,57.3898186 C4.3109792,55.4857098 5.82440917,55.4612005 5.82440917,55.4612005" id="Fill-141" fill="#FFFFFF" mask="url(#mask-4)"></path>
                    <path d="M14.3815782,56.5833931 C14.4027609,56.7568838 14.2675913,56.9095416 14.0942236,56.9076339 L7.21429402,56.8353135 C6.57560278,56.8285735 6.0001122,56.4058759 5.76310975,55.7692472 L5.20402703,54.2678785 C4.94835954,53.5811809 5.38894103,52.8368865 6.07624816,52.7943454 L12.6615307,52.6134143 C13.3583006,52.5942446 13.9612244,53.145791 14.0515979,53.884921 L14.3815782,56.5833931 Z" id="Fill-142" fill="#4C65BA" mask="url(#mask-4)"></path>
                    <line x1="5.31408124" y1="54.6189232" x2="10.0813032" y2="54.6026232" id="Stroke-143" stroke="#2B3882" stroke-linecap="round" mask="url(#mask-4)"></line>
                    <line x1="11.2462614" y1="55.5070797" x2="14.2443859" y2="55.4647797" id="Stroke-144" stroke="#2B3882" stroke-linecap="round" mask="url(#mask-4)"></line>
                    <path d="M22.4197206,55.5929204 C22.3921137,55.4970716 22.3608606,55.4085756 22.3260482,55.338374 L20.2181153,51.0875013 C19.3871309,51.4901538 19.0054962,52.4714005 19.3433766,53.3362281 L19.8217222,54.5606419 C20.0963152,55.2632706 20.2373012,56.0118541 20.2373012,56.7670902 L20.2373012,58.0017454 C20.2373012,59.6632122 18.9014061,61.0100849 17.2535879,61.0100849 L14.0915584,61.0100849 L14.0915584,61.0029072 L5.08320786,60.2041671 L5.08320786,62.3420769 L10.0133799,62.3420769 L14.0915584,62.3420769 L18.772574,62.3420769 C19.6350719,62.3420769 20.7578385,61.5323077 21.3956616,60.3489469 C22.020723,59.1890451 22.3414143,57.7663687 22.4817926,56.9823342 C22.5645265,56.5203342 22.5495076,56.0438037 22.4197206,55.5929204" id="Fill-145" fill="#3E479B" mask="url(#mask-4)"></path>
                    <path d="M7.35069631,62.3993936 C7.35069631,64.2867836 5.83327289,65.8169507 3.96130074,65.8169507 C2.08932858,65.8169507 0.57190516,64.2867836 0.57190516,62.3993936 C0.57190516,60.5120037 2.08932858,58.9819241 3.96130074,58.9819241 C5.83327289,58.9819241 7.35069631,60.5120037 7.35069631,62.3993936" id="Fill-146" fill="#2B3882" mask="url(#mask-4)"></path>
                    <path d="M5.87765225,62.4774382 C5.87765225,63.5445549 5.01966863,64.4096451 3.9613181,64.4096451 C2.90288075,64.4096451 2.04489713,63.5445549 2.04489713,62.4774382 C2.04489713,61.4103215 2.90288075,60.5452313 3.9613181,60.5452313 C5.01966863,60.5452313 5.87765225,61.4103215 5.87765225,62.4774382" id="Fill-147" fill="#FFFFFF" mask="url(#mask-4)"></path>
                    <path d="M9.19006978,63.4617573 L4.1354932,63.4617573 C3.53282981,63.4617573 3.04424013,62.9691207 3.04424013,62.3614655 C3.04424013,61.7537228 3.53282981,61.2609987 4.1354932,61.2609987 L9.19006978,61.2609987 C9.79281998,61.2609987 10.2814097,61.7537228 10.2814097,62.3614655 C10.2814097,62.9691207 9.79281998,63.4617573 9.19006978,63.4617573" id="Fill-148" fill="#4C65BA" mask="url(#mask-4)"></path>
                </g>
            </g>
        </g>
    </g>
</svg>