<?xml version="1.0" encoding="UTF-8"?>
<svg width="83px" height="66px" viewBox="0 0 83 66" version="1.1" xmlns="http://www.w3.org/2000/svg" xmlns:xlink="http://www.w3.org/1999/xlink">
    <!-- Generator: Sketch 59.1 (86144) - https://sketch.com -->
    <title>Service Design &amp; Innovation</title>
    <desc>Created with Sketch.</desc>
    <defs>
        <path d="M0.183983333,0.181246154 L0.18231051,0.515235165 C0.178315041,1.44518242 0.792380081,2.29854066 1.74323618,2.61077143 L1.74323618,2.61077143 C2.21630244,2.76612527 2.82989512,2.87034725 3.62510935,2.87034725 L3.62510935,2.87034725 C4.3317565,2.87034725 4.88701301,2.77874505 5.32323537,2.63731648 L5.32323537,2.63731648 C6.29227724,2.32312747 6.92122154,1.45801978 6.90728699,0.511753846 L6.90728699,0.511753846 L6.89996545,0.0328549451 L0.183983333,0.181246154 Z" id="path-1"></path>
        <path d="M0.0105718157,0.0841846154 L0.0105718157,0.854584615 C0.0105718157,1.05618462 0.0589322493,1.25612308 0.152728997,1.44258462 L0.152728997,1.44258462 L0.189168022,1.51476923 C0.492826558,2.11753846 1.53313821,2.11753846 1.83702168,1.51476923 L1.83702168,1.51476923 L1.87323577,1.44258462 C1.96703252,1.25612308 2.01539295,1.05618462 2.01539295,0.854584615 L2.01539295,0.854584615 L2.01539295,0.0841846154 L0.0105718157,0.0841846154 Z" id="path-3"></path>
        <path d="M0.237865854,0.232523077 L0.237865854,0.665483077 C0.237865854,0.784283077 0.397792683,0.880338462 0.594833333,0.880338462 L0.594833333,0.880338462 L0.679857724,0.880338462 L0.679857724,0.232523077 C0.679857724,0.159212308 0.580662602,0.0995076923 0.458861789,0.0995076923 L0.458861789,0.0995076923 C0.336723577,0.0995076923 0.237865854,0.159212308 0.237865854,0.232523077" id="path-5"></path>
        <path d="M0.335036585,0.232523077 L0.335036585,0.880338462 L0.419386179,0.880338462 C0.616764228,0.880338462 0.776353659,0.784283077 0.776353659,0.665483077 L0.776353659,0.665483077 L0.776353659,0.232523077 C0.776353659,0.159212308 0.677833333,0.0995076923 0.555695122,0.0995076923 L0.555695122,0.0995076923 C0.433556911,0.0995076923 0.335036585,0.159212308 0.335036585,0.232523077" id="path-7"></path>
        <path d="M0.242190687,0.263323077 C0.242190687,0.668461538 0.480209904,0.997107692 0.773930525,0.997107692 L0.773930525,0.997107692 L7.37761419,0.997107692 C7.67158019,0.997107692 7.90959941,0.668461538 7.90959941,0.263323077 L7.90959941,0.263323077 L0.242190687,0.263323077 Z" id="path-9"></path>
        <linearGradient x1="49.9985483%" y1="97.8012315%" x2="49.9985483%" y2="-11.5345065%" id="linearGradient-11">
            <stop stop-color="#B5B8BA" offset="0%"></stop>
            <stop stop-color="#DBDDDF" offset="100%"></stop>
        </linearGradient>
    </defs>
    <g id="Home-Page-V2" stroke="none" stroke-width="1" fill="none" fill-rule="evenodd">
        <g id="Home-Page" transform="translate(-464.000000, -815.000000)">
            <g id="Service-Design-&amp;-Innovation" transform="translate(464.000000, 815.000000)">
                <g id="Group-13" transform="translate(24.292683, 14.215385)">
                    <path d="M8.1359157,29.7913268 C8.65996313,29.7913268 9.05157064,29.2894619 8.92357359,28.7696424 C8.91320689,28.7276761 8.90537897,28.6848445 8.89628166,28.6422293 C8.88824217,28.6054547 8.87956799,28.5691127 8.87237477,28.5319055 C8.86285433,28.4795558 8.85523797,28.4263408 8.84741006,28.3733422 C8.84212092,28.3380818 8.83577396,28.3032541 8.83133109,28.2677775 C8.8239263,28.2087218 8.81927186,28.1485846 8.81440586,28.08888 C8.81186707,28.058595 8.8080589,28.0291753 8.80615481,27.9986741 C8.80065411,27.9082519 8.79748063,27.8169644 8.79748063,27.7250279 C8.79748063,25.2725959 10.8166606,23.3027763 13.2477583,23.4585275 C13.5120034,23.4754005 13.7694785,23.5177994 14.0184909,23.5837774 C14.1431029,23.6166582 14.2651761,23.6553796 14.3851337,23.6995091 C14.4450067,23.7213576 14.504245,23.7451529 14.5628486,23.7698135 C15.1490963,24.0179337 15.6695471,24.3995241 16.0878118,24.8760794 C16.2134817,25.0190677 16.3296311,25.170925 16.4356253,25.329921 C16.5064997,25.4359184 16.5727197,25.5453768 16.6340736,25.6578638 C16.9408434,26.2200822 17.127021,26.8582294 17.1557939,27.5338001 C17.1602367,27.6387158 17.1608714,27.7425499 17.1581211,27.8457351 C17.1572748,27.8803464 17.1536782,27.9143089 17.1519857,27.9489202 C17.1483891,28.016845 17.1454271,28.0847699 17.1388686,28.1518294 C17.1350604,28.1924978 17.1282904,28.2323008 17.1232128,28.2725365 C17.115808,28.3326738 17.1090379,28.3925947 17.0990943,28.4518667 C17.0919011,28.4942656 17.0823807,28.535583 17.0741296,28.5777656 C17.0629167,28.6335764 17.0523384,28.6898199 17.0392213,28.7449818 C17.0373172,28.7523367 17.0362594,28.7599079 17.0345669,28.7674792 C16.9065698,29.288164 17.2958501,29.7913268 17.8209554,29.7913268 L21.6663676,29.7913268 L25.8012013,29.7913268 L25.8012013,24.7566702 C25.8012013,24.1996434 26.3286338,23.7979352 26.8482383,23.9649351 C26.8550084,23.9670983 26.8619901,23.9688289 26.8685486,23.9712084 C26.8803963,23.9746695 26.8924555,23.9779143 26.9040916,23.9815918 C26.9863905,24.006685 27.0697473,24.0293988 27.1539503,24.0495166 C27.1630476,24.0516798 27.1721449,24.0542757 27.1812422,24.0562226 C27.2688303,24.0763404 27.3576877,24.0929972 27.4473915,24.107707 C27.4647398,24.1103028 27.4820882,24.113115 27.4996481,24.1157109 C27.588294,24.1286901 27.6777862,24.1392899 27.767913,24.1464285 C27.7835688,24.1477264 27.7990131,24.1485917 27.8144574,24.1496733 C27.9066999,24.1559466 27.999154,24.1600567 28.0928774,24.160273 C28.096474,24.160273 28.1000706,24.1604893 28.1036673,24.1604893 C28.1673484,24.1604893 28.2314527,24.1589751 28.2959802,24.1559466 C28.3010577,24.1557303 28.3059238,24.1550813 28.3114245,24.154865 C28.3355429,24.1535671 28.3592382,24.1514038 28.3835682,24.1498896 C28.4286317,24.1466448 28.4739067,24.1436163 28.5187585,24.1388572 C28.5509165,24.1353961 28.5826513,24.131286 28.6143861,24.1271759 C28.6486597,24.1230658 28.6829332,24.1187394 28.7169953,24.1135477 C28.7584621,24.1072743 28.7997173,24.0999194 28.8409726,24.0923482 C28.861706,24.0886707 28.8824394,24.0847769 28.9031728,24.0806668 C28.9560641,24.0700671 29.0087439,24.0586021 29.0610006,24.0458392 C29.0654434,24.0447576 29.0700979,24.0436759 29.0745408,24.0425943 C30.6600117,23.6504042 31.9101515,22.3193807 32.211209,20.6653898 C32.2190369,20.6232072 32.2268648,20.5808083 32.2332118,20.5379767 C32.2365968,20.5148303 32.2391356,20.491684 32.2423091,20.4685376 C32.2488676,20.420298 32.255003,20.3720584 32.259869,20.3231699 C32.2624078,20.2982929 32.2638888,20.2731997 32.2660044,20.2483228 C32.2687548,20.2173889 32.2719282,20.1866713 32.2738323,20.155521 C32.2746786,20.1416765 32.274467,20.1280483 32.2753133,20.11442 C32.2772174,20.0759149 32.2782752,20.037626 32.279333,19.9995535 C32.2803909,19.961481 32.2810256,19.9234085 32.2810256,19.885336 C32.2810256,19.8470472 32.2803909,19.8089747 32.279333,19.7713348 C32.2782752,19.7328297 32.2772174,19.6945408 32.2753133,19.6564683 C32.2729861,19.6114735 32.2698126,19.5669114 32.2660044,19.5223493 C32.2638888,19.4974723 32.2624078,19.4723791 32.259869,19.4475022 C32.2547915,19.3986136 32.2486561,19.350374 32.2423091,19.3021344 C32.2391356,19.2789881 32.2365968,19.2558417 32.2332118,19.2326953 C32.2268648,19.1896475 32.2188253,19.1472485 32.2109974,19.1046333 C31.9107862,17.4419895 30.6705899,16.1176719 29.0745408,15.7280777 C29.0700979,15.7269961 29.0654434,15.7259145 29.0610006,15.7248329 C29.0089555,15.7122862 28.9564873,15.7006049 28.9035959,15.6900052 C28.882651,15.6858951 28.8614944,15.6820013 28.8405495,15.6783238 C28.7995058,15.6707526 28.7584621,15.6633977 28.7169953,15.6573407 C28.6829332,15.652149 28.6486597,15.6476062 28.6141745,15.6432798 C28.5824397,15.639386 28.5509165,15.6350596 28.5187585,15.6318148 C28.4739067,15.6272721 28.4286317,15.6240273 28.3835682,15.6209988 C28.3592382,15.6192682 28.3355429,15.617105 28.3114245,15.6158071 C28.295557,15.6149418 28.2792665,15.6151581 28.2636107,15.6145091 C28.2094499,15.6123459 28.1552892,15.6101827 28.1009169,15.6101827 C28.0744712,15.6101827 28.0486603,15.6127786 28.0222146,15.6132112 C27.971862,15.6140765 27.9221442,15.6162397 27.8724263,15.6188355 C27.8121302,15.6222967 27.7526803,15.6268394 27.6932304,15.6326801 C27.6441473,15.6376555 27.5954872,15.6430635 27.5470388,15.6497695 C27.4878004,15.6577733 27.42962,15.6672915 27.3714395,15.6776749 C27.3238373,15.6863277 27.2762351,15.6951969 27.2292676,15.705364 C27.1712987,15.7179106 27.1143876,15.7324041 27.0574765,15.7473303 C27.0115668,15.7594442 26.9654455,15.7713419 26.9203821,15.7849701 C26.9028222,15.7903782 26.8846276,15.7942719 26.8670676,15.79968 C26.3390005,15.9666798 25.8012013,15.5788161 25.8012013,15.0135692 L25.8012013,9.97934524 L4.29494634,9.97934524 C2.00919404,9.97934524 0.156304498,11.8738852 0.156304498,14.211018 L0.156304498,29.7913268 L4.24459378,29.7913268 L8.1359157,29.7913268 Z" id="Fill-3" fill="#D86600"></path>
                    <path d="M24.733452,43.4026595 C24.7304901,43.4035248 24.7277397,43.4041738 24.7247778,43.4050391 C24.6691361,43.4227774 24.6118019,43.4368383 24.5551024,43.4521971 C24.5123662,43.4636621 24.4702647,43.477074 24.4268938,43.4874574 C24.3665976,43.5015183 24.3048206,43.5119017 24.2436782,43.5233667 C24.2024229,43.5311542 24.1620139,43.5408887 24.1205471,43.547162 C24.0515768,43.5579781 23.9815487,43.5644677 23.9117321,43.5716063 C23.8766122,43.5755001 23.8421271,43.5811244 23.8065841,43.5839366 C23.7008014,43.5921568 23.5939609,43.5964832 23.4860626,43.5964832 C22.961592,43.5964832 22.4599705,43.4976245 21.9974886,43.317429 C21.8864168,43.2741648 21.7783069,43.2252763 21.672101,43.1729266 C21.5885327,43.1316092 21.5062338,43.0887777 21.4258389,43.0422686 C21.2434696,42.9364876 21.0695629,42.8168621 20.9055997,42.6853389 C20.8222429,42.6182793 20.7424828,42.547326 20.6646267,42.4744258 C20.6142742,42.4274841 20.565191,42.3794609 20.5173772,42.3299233 C20.4492532,42.259619 20.3828217,42.1873678 20.3195636,42.1123043 C20.2087034,41.9809975 20.1060941,41.8421193 20.0113129,41.6976169 C19.9467854,41.5994071 19.8854315,41.4990341 19.8291551,41.3954163 C19.5232315,40.8327652 19.3379003,40.1922385 19.3089158,39.5103945 C19.3025689,39.3587534 19.3036267,39.2051655 19.3129356,39.049847 C19.443683,36.8887995 21.1855007,35.1433047 23.3011544,35.0500704 C23.4094759,35.0453113 23.5167395,35.0455276 23.6229454,35.0492051 C23.6341583,35.0494214 23.6451597,35.0494214 23.6563727,35.049854 C23.7570778,35.0539641 23.8569367,35.0624007 23.9557377,35.0736494 C23.971182,35.0755963 23.9868378,35.0771105 24.0020705,35.0788411 C24.0987559,35.0911714 24.1941719,35.1067465 24.2883185,35.1255664 C24.304609,35.1288112 24.320688,35.1322724 24.3367669,35.1355172 C24.4309135,35.1556351 24.5240023,35.1783488 24.6156101,35.2049563 C24.6295734,35.2086337 24.6435367,35.2131765 24.6575,35.2172866 C24.6888117,35.2265884 24.720335,35.2354575 24.7514351,35.2456246 C25.2716743,35.4143551 25.8010109,35.0128631 25.8010109,34.4547548 L25.8010109,29.7913052 L21.6663888,29.7913052 L17.8209765,29.7913052 C17.2958713,29.7913052 16.906591,29.2881423 17.0343765,28.7674575 C17.0362806,28.7601026 17.0373384,28.7523151 17.0390309,28.7449601 C17.0523595,28.6897983 17.0629378,28.6337711 17.0739392,28.5777439 C17.0824018,28.5355613 17.0919223,28.494244 17.0991155,28.4518451 C17.1088475,28.3925731 17.1158292,28.3326522 17.1232339,28.2727312 C17.1283115,28.2322792 17.13487,28.1924761 17.1388898,28.1518078 C17.1454483,28.0847482 17.1484102,28.0168234 17.1520068,27.9491149 C17.1536994,27.9142872 17.1570844,27.8803248 17.1581422,27.8457134 C17.1608926,27.7425283 17.1602579,27.6386942 17.155815,27.5339948 C17.1270421,26.8584241 16.9408646,26.2200606 16.6340948,25.6578421 C16.5727408,25.5453552 16.5065209,25.4358967 16.4356465,25.3298994 C16.3296522,25.1709034 16.2135028,25.0192623 16.087833,24.8760578 C15.6695683,24.3995025 15.1491174,24.0179121 14.5628698,23.7697918 C14.5042662,23.7451312 14.4450279,23.7215522 14.3849433,23.6994875 C14.2651973,23.655358 14.1429125,23.6166365 14.0185121,23.5837557 C13.7694996,23.5177778 13.511813,23.4753789 13.2477794,23.4585058 C10.8166817,23.3027546 8.79750178,25.2725743 8.79750178,27.7250063 C8.79750178,27.8169427 8.8004637,27.9082302 8.80617596,27.9986524 C8.80808005,28.0291537 8.81188823,28.0585734 8.81421545,28.0888583 C8.81929302,28.1485629 8.82394746,28.2087002 8.83114068,28.2677559 C8.83558355,28.3032325 8.84214208,28.3380602 8.84743121,28.3733205 C8.85525913,28.4265355 8.86266392,28.4795342 8.87239593,28.5318839 C8.87937758,28.5690911 8.88826333,28.605433 8.89630281,28.6422076 C8.90540012,28.6848229 8.91322804,28.7276544 8.92359475,28.7696207 C9.05138023,29.2894403 8.65998429,29.7913052 8.13593686,29.7913052 L4.24461494,29.7913052 L0.156325655,29.7913052 L0.156325655,45.3718302 C0.156325655,47.7087468 2.0092152,49.6032867 4.2949675,49.6032867 L25.8010109,49.6032867 L25.8010109,44.1881213 C25.8010109,43.6220091 25.2619423,43.2337128 24.733452,43.4026595" id="Fill-5" fill="#308DFC"></path>
                    <path d="M45.661795,29.7913268 L42.7003029,29.7913268 C42.1754092,29.7913268 41.7861289,30.2940569 41.9134912,30.8145254 C42.0093304,31.2069319 42.0522781,31.6205378 42.0340835,32.0475555 C41.9403601,34.2083867 40.2378935,35.9850317 38.1266826,36.1204487 C35.6953733,36.2764161 33.6757703,34.3061638 33.6757703,31.8537319 C33.6757703,31.4946389 33.7191412,31.145713 33.8008054,30.8125786 C33.9283793,30.292759 33.5369834,29.7913268 33.0131475,29.7913268 L31.5618091,29.7913268 L31.1670281,29.7913268 L25.8010955,29.7913268 L25.8010955,34.4547764 C25.8010955,35.0128848 25.2717589,35.4143767 24.7515197,35.2456462 C24.7204196,35.2354792 24.6886848,35.22661 24.6573731,35.2173082 C24.6434098,35.2129818 24.629658,35.2086553 24.6156947,35.2047616 C24.5238753,35.1783704 24.4307866,35.1556567 24.33664,35.1355388 C24.320561,35.1320777 24.3044821,35.1288329 24.2884031,35.1255881 C24.1940449,35.1067681 24.0986289,35.091193 24.0021551,35.0788627 C23.9867109,35.0771321 23.9712666,35.0756179 23.9558223,35.073671 C23.8570213,35.0624223 23.7571624,35.0539858 23.6562457,35.0498757 C23.6452443,35.049443 23.6340314,35.049443 23.62303,35.0492267 C23.5166126,35.0455493 23.4095605,35.0453329 23.301239,35.050092 C21.1855853,35.1433264 19.443556,36.8888211 19.3130202,39.0498686 C19.3037113,39.2051871 19.3024419,39.3587751 19.3087889,39.5104161 C19.3379849,40.1922602 19.5233162,40.8327868 19.8290281,41.395438 C19.8855161,41.4990557 19.94687,41.5994287 20.0111859,41.6976385 C20.1061788,41.842141 20.2085764,41.9810191 20.3194367,42.112326 C20.3829063,42.1873894 20.4493378,42.2596406 20.5174619,42.329945 C20.5652756,42.3792662 20.6143588,42.4275058 20.6644998,42.4744475 C20.7423559,42.5473477 20.8223276,42.618301 20.9054728,42.6851442 C21.0694359,42.8168837 21.2435542,42.9365093 21.425712,43.0422903 C21.5061069,43.0887993 21.5886173,43.1316309 21.6721857,43.1727319 C21.7783915,43.2252979 21.8865014,43.2741864 21.9973617,43.3174507 C22.4600551,43.4976461 22.9616766,43.5962885 23.4861472,43.5962885 C23.593834,43.5962885 23.700886,43.5921784 23.8066687,43.5839582 C23.8420001,43.581146 23.8764853,43.5755217 23.9116052,43.5716279 C23.9816333,43.5644893 24.0516614,43.5579997 24.1204202,43.5471836 C24.161887,43.5409103 24.202296,43.5311759 24.2435512,43.523172 C24.3049052,43.5119233 24.3664707,43.5015399 24.4267668,43.4872627 C24.4701377,43.4770956 24.5122392,43.4636837 24.555187,43.4520024 C24.6118865,43.4368599 24.6690092,43.422799 24.7248625,43.4050607 C24.7276128,43.4041954 24.7305747,43.4035464 24.7335366,43.4026812 C25.2618154,43.2337344 25.8010955,43.6220307 25.8010955,44.188143 L25.8010955,49.6033083 L47.3073505,49.6033083 C49.5928912,49.6033083 51.4459923,47.7087684 51.4459923,45.3716355 L51.4459923,29.7913268 L47.5434574,29.7913268 L45.661795,29.7913268 Z" id="Fill-7" fill="#FEBA40"></path>
                    <path d="M5.30487481,0.0556377793 C4.93992454,0.245135037 3.28463706,3.58578132 3.70438276,5.10327363 C3.98597627,6.1204153 5.23442354,5.56209062 5.23442354,5.56209062 L5.52342184,2.96450721 L5.30487481,0.0556377793 Z" id="Fill-9" fill="#D14369"></path>
                    <path d="M11.4800449,0.259390595 C11.8449952,0.448671532 13.0970391,3.58575969 12.6770818,5.103252 C12.3956999,6.12039367 11.5282818,5.56206899 11.5282818,5.56206899 L10.9117803,2.45072304 L11.4800449,0.259390595 Z" id="Fill-11" fill="#D14369"></path>
                </g>
                <g id="Group-16" transform="translate(28.341463, 22.338462)">
                    <mask id="mask-2" fill="white">
                        <use xlink:href="#path-1"></use>
                    </mask>
                    <g id="Clip-15"></g>
                    <path d="M0.183983333,0.181246154 L0.18231051,0.515235165 C0.178315041,1.44518242 0.792380081,2.29854066 1.74323618,2.61077143 L1.74323618,2.61077143 C2.21630244,2.76612527 2.82989512,2.87034725 3.62510935,2.87034725 L3.62510935,2.87034725 C4.3317565,2.87034725 4.88701301,2.77874505 5.32323537,2.63731648 L5.32323537,2.63731648 C6.29227724,2.32312747 6.92122154,1.45801978 6.90728699,0.511753846 L6.90728699,0.511753846 L6.89996545,0.0328549451 L0.183983333,0.181246154 Z" id="Fill-14" fill="#002D51"></path>
                </g>
                <path d="M31.9956503,14.2157163 C31.0615325,14.2057278 29.4037854,14.4209912 28.4214256,14.9057417 C28.480468,17.1596888 28.2944605,19.3569662 28.3530229,21.8753041 C28.455507,22.5567679 35.1604185,22.3845163 35.1817793,22.0073976 C35.3037043,19.8639361 35.1981,16.3932204 35.4268293,15.0977665 C34.5635143,14.5386115 32.802563,14.2242779 31.9956503,14.2157163" id="Fill-17" fill="#D14369"></path>
                <g id="Group-21" transform="translate(30.365854, 13.200000)">
                    <mask id="mask-4" fill="white">
                        <use xlink:href="#path-3"></use>
                    </mask>
                    <g id="Clip-20"></g>
                    <path d="M0.0105718157,0.0841846154 L0.0105718157,0.854584615 C0.0105718157,1.05618462 0.0589322493,1.25612308 0.152728997,1.44258462 L0.152728997,1.44258462 L0.189168022,1.51476923 C0.492826558,2.11753846 1.53313821,2.11753846 1.83702168,1.51476923 L1.83702168,1.51476923 L1.87323577,1.44258462 C1.96703252,1.25612308 2.01539295,1.05618462 2.01539295,0.854584615 L2.01539295,0.854584615 L2.01539295,0.0841846154 L0.0105718157,0.0841846154 Z" id="Fill-19"></path>
                </g>
                <g id="Group-24" transform="translate(30.365854, 12.184615)">
                    <mask id="mask-6" fill="white">
                        <use xlink:href="#path-5"></use>
                    </mask>
                    <g id="Clip-23"></g>
                    <path d="M0.237865854,0.232523077 L0.237865854,0.665483077 C0.237865854,0.784283077 0.397792683,0.880338462 0.594833333,0.880338462 L0.594833333,0.880338462 L0.679857724,0.880338462 L0.679857724,0.232523077 C0.679857724,0.159212308 0.580662602,0.0995076923 0.458861789,0.0995076923 L0.458861789,0.0995076923 C0.336723577,0.0995076923 0.237865854,0.159212308 0.237865854,0.232523077" id="Fill-22"></path>
                </g>
                <path d="M33.0535757,9.13846154 L32.7391073,9.13846154 L32.0537814,9.13846154 C31.6805842,9.13846154 31.3780488,9.48569568 31.3780488,9.9140317 L31.3780488,11.7530568 C31.3780488,12.3202327 31.5205423,12.8755925 31.7882148,13.3519989 L32.0226622,13.7693244 C32.1789605,14.0472728 32.4473349,14.2153846 32.7355976,14.2153846 L32.7391073,14.2153846 L33.0535757,14.2153846 L33.0570853,14.2153846 C33.345348,14.2153846 33.6137225,14.0472728 33.7700207,13.7693244 L34.0042342,13.3519989 C34.2721407,12.8755925 34.4146341,12.3202327 34.4146341,11.7530568 L34.4146341,9.9996989 C34.4146341,9.52409822 34.0786396,9.13846154 33.664262,9.13846154 L33.0535757,9.13846154 Z" id="Fill-25" fill="#F4CB9F"></path>
                <g id="Group-29" transform="translate(32.390244, 12.184615)">
                    <mask id="mask-8" fill="white">
                        <use xlink:href="#path-7"></use>
                    </mask>
                    <g id="Clip-28"></g>
                    <path d="M0.335036585,0.232523077 L0.335036585,0.880338462 L0.419386179,0.880338462 C0.616764228,0.880338462 0.776353659,0.784283077 0.776353659,0.665483077 L0.776353659,0.665483077 L0.776353659,0.232523077 C0.776353659,0.159212308 0.677833333,0.0995076923 0.555695122,0.0995076923 L0.555695122,0.0995076923 C0.433556911,0.0995076923 0.335036585,0.159212308 0.335036585,0.232523077" id="Fill-27"></path>
                </g>
                <g id="Group-34" transform="translate(28.341463, 9.138462)">
                    <path d="M2.69228438,0.781777429 C2.49405522,1.07368472 2.66700366,2.40905961 2.66700366,2.40905961 C2.66700366,2.40905961 2.74875251,1.95791083 3.01408188,1.79611807 C3.44503536,1.53355033 3.29335108,1.1234344 3.29335108,1.1234344 C3.29335108,1.1234344 3.57049386,1.53355033 4.7544346,1.42639718 C5.66501285,1.34390626 5.73305814,2.40905961 5.73305814,2.40905961 C5.73305814,2.40905961 6.04233342,0.864906164 5.39472185,0.395048099 C4.74403879,-0.0771486253 3.08850641,0.198175444 2.69228438,0.781777429" id="Fill-30" fill="#4B2A12"></path>
                    <polygon id="Fill-32" fill="#DEDEDE" points="0.297633693 11.7142053 7.68031106 11.7142053 7.68031106 7.43403216 0.297633693 7.43403216"></polygon>
                </g>
                <g id="Group-37" transform="translate(28.341463, 21.323077)">
                    <mask id="mask-10" fill="white">
                        <use xlink:href="#path-9"></use>
                    </mask>
                    <g id="Clip-36"></g>
                    <path d="M0.242190687,0.263323077 C0.242190687,0.668461538 0.480209904,0.997107692 0.773930525,0.997107692 L0.773930525,0.997107692 L7.37761419,0.997107692 C7.67158019,0.997107692 7.90959941,0.668461538 7.90959941,0.263323077 L7.90959941,0.263323077 L0.242190687,0.263323077 Z" id="Fill-35" fill="url(#linearGradient-11)"></path>
                </g>
                <g id="Group-165">
                    <path d="M28.3388056,19.5075709 C28.3396461,19.5060757 28.3406967,19.5045806 28.3415372,19.5030854 C28.4188638,19.3730078 28.5535549,19.2892796 28.7027448,19.2783864 C28.8987929,19.2640757 29.1648132,19.2448524 29.2955119,19.2354544 C29.3694765,19.229901 29.4413397,19.1989301 29.489879,19.141901 C29.5974638,19.015668 29.5071094,18.8793961 29.3940613,18.8875126 L28.4678233,18.9547942 L28.4678233,18.9424058 C28.4684537,18.8776874 28.5178334,18.8242893 28.5815018,18.8195903 L29.4848359,18.7540175 C29.5590106,18.7486777 29.6308739,18.7177068 29.6794132,18.6606777 C29.786998,18.5342311 29.6966435,18.3979592 29.5838056,18.4062893 L28.5180435,18.4836097 L28.5184638,18.4255126 C28.5190942,18.3607942 28.5684739,18.3073961 28.6321423,18.3026971 L29.5209777,18.2381922 C29.5949423,18.2328524 29.6670157,18.2018816 29.7155549,18.1448524 C29.8231397,18.0184058 29.7327853,17.882134 29.6197372,17.8902505 L28.5972613,17.9645806 C28.5976815,17.8998621 28.6472714,17.8462505 28.7109397,17.841765 L29.3322841,17.7964835 C29.4062486,17.7911437 29.478322,17.7601728 29.5268613,17.7031437 C29.6344461,17.5766971 29.5440916,17.4404252 29.4310435,17.4487553 L28.6659727,17.5042893 C28.5478815,17.512833 28.4396663,17.5739204 28.3701144,17.6711049 C28.3701144,17.6711049 27.9448182,18.1835126 27.8452182,18.3810854 C27.6939271,18.6809689 27.7025423,19.114134 27.7033828,19.361901 C27.7040132,19.5511437 27.8782081,19.6923282 28.0637499,19.6788718 C28.1772182,19.6705417 28.2799701,19.6066777 28.3388056,19.5075709" id="Fill-38" fill="#FCD39E"></path>
                    <path d="M35.4207438,19.5075709 C35.4199033,19.5060757 35.4188527,19.5045806 35.4180122,19.5030854 C35.3406856,19.3730078 35.2059944,19.2892796 35.0568046,19.2783864 C34.8607565,19.2640757 34.5947362,19.2448524 34.4640375,19.2354544 C34.3900729,19.229901 34.3182096,19.1989301 34.2696704,19.141901 C34.1620856,19.015668 34.25244,18.8793961 34.3654881,18.8875126 L35.2917261,18.9547942 L35.2917261,18.9424058 C35.2910957,18.8776874 35.2417159,18.8242893 35.1780476,18.8195903 L34.2745033,18.7540175 C34.2005387,18.7486777 34.1286754,18.7177068 34.0801362,18.6606777 C33.9723413,18.5342311 34.0626957,18.3979592 34.1757438,18.4062893 L35.2412957,18.4836097 L35.2410856,18.4255126 C35.2404552,18.3607942 35.1910754,18.3073961 35.1274071,18.3026971 L34.2385716,18.2381922 C34.1646071,18.2328524 34.0925337,18.2018816 34.0439944,18.1448524 C33.9364096,18.0184058 34.0267641,17.882134 34.139602,17.8902505 L35.1622881,17.9645806 C35.1618678,17.8998621 35.112278,17.8462505 35.0486096,17.841765 L34.4272653,17.7964835 C34.3533008,17.7911437 34.2812273,17.7601728 34.2326881,17.7031437 C34.1251033,17.5766971 34.2154577,17.4404252 34.3285058,17.4487553 L35.0935767,17.5042893 C35.2116678,17.512833 35.319883,17.5739204 35.3894349,17.6711049 C35.3894349,17.6711049 35.8147311,18.1835126 35.9143311,18.3810854 C36.0656223,18.6809689 36.0570071,19.114134 36.0561666,19.361901 C36.0555362,19.5511437 35.8813413,19.6923282 35.6957995,19.6788718 C35.5823311,19.6705417 35.4795792,19.6066777 35.4207438,19.5075709" id="Fill-40" fill="#FCD39E"></path>
                    <path d="M29.9562129,31.3416058 C28.6759116,31.3416058 29.4382509,27.5783243 29.4382509,27.5783243 C29.6204306,27.5005767 30.9652408,27.1697223 31.5588484,27.6840524 C31.7017344,28.6114699 31.2365142,31.3416058 29.9562129,31.3416058" id="Fill-42" fill="#9A134E"></path>
                    <path d="M33.948618,31.3416058 C35.2289192,31.3416058 34.4667901,27.5783243 34.4667901,27.5783243 C34.2844003,27.5005767 32.9398003,27.1697223 32.3459825,27.6840524 C32.2033066,28.6114699 32.6683167,31.3416058 33.948618,31.3416058" id="Fill-44" fill="#9A134E"></path>
                    <path d="M29.0537403,27.9002505 C29.0537403,27.9002505 30.6551149,28.3206 31.8156441,28.0085417 C31.8805732,26.4456874 31.8524162,23.1781534 31.8435909,21.9660175 C31.8410694,21.6014155 31.7007048,21.2438621 31.4294314,21.005066 C31.256077,20.8525612 31.0156922,20.7288913 30.6860035,20.709668 C29.0537403,20.613765 29.1356896,21.4484835 29.0537403,24.9855709 C29.0291554,26.048833 29.0537403,27.9002505 29.0537403,27.9002505" id="Fill-46" fill="#3352A0"></path>
                    <path d="M32.0992309,27.9813728 C32.0992309,27.9813728 33.3251094,28.3980913 34.8745828,27.9158 C34.9395119,26.3529456 34.9088334,23.1469262 34.9000081,21.9347903 C34.8972765,21.5699748 34.757122,21.212635 34.4858486,20.9738388 C34.3127043,20.821334 34.0721094,20.6976641 33.7424208,20.6784408 C32.1101575,20.5823243 32.1921068,21.4172563 32.1101575,24.9541301 C32.0855727,26.0176058 32.0992309,27.9813728 32.0992309,27.9813728" id="Fill-48" fill="#3352A0"></path>
                    <path d="M74.9179643,30.8329573 C75.0944706,30.8551709 75.3270808,31.055734 75.5588504,31.3171709 L75.6422706,30.8761029 C75.9341365,31.2691126 76.1581314,32.2106272 76.1581314,32.2106272 C76.1581314,32.2104136 76.1579213,32.2102 76.1577111,32.2099864 C76.2858884,32.599365 76.1074909,32.8558893 75.704258,32.9596951 C75.5061086,33.0105301 75.244501,32.9735786 74.9564175,32.4556175 C74.7822225,32.1427049 74.6218959,31.8853262 74.5077972,31.7054816 C74.241777,31.2859864 74.6712757,30.8017728 74.9179643,30.8329573" id="Fill-50" fill="#FCCE9A"></path>
                    <path d="M79.1748767,36.7690058 C78.7955982,36.264501 76.7016868,32.6261709 76.3240894,32.4164233 C75.9462818,32.2068893 75.1873046,32.7306175 75.3438489,33.1789476 C75.6821527,34.1492971 77.1671172,36.9172388 77.5045805,37.4023068 C78.1143678,38.2791029 80.6890489,41.4458214 81.5810362,40.4786757 C82.3425349,39.6527146 79.5541552,37.2737243 79.1748767,36.7690058" id="Fill-52" fill="#1C75BB"></path>
                    <path d="M74.7617982,13.6133437 L53.795578,9.4632466 L52.8609349,14.342334 C52.7558716,14.8901981 53.2082742,15.3697126 53.7539729,15.3099068 C53.7720438,15.3079845 53.7905349,15.3077709 53.8088159,15.3060621 C53.8554641,15.3015767 53.9023223,15.2988 53.9496008,15.2960233 C54.0075957,15.2923922 54.0660109,15.2896155 54.1246362,15.2885476 C54.1725451,15.2876932 54.2204539,15.2881204 54.2685729,15.2891883 C54.3271982,15.2902563 54.3856134,15.2921786 54.4448691,15.2958097 C54.4931982,15.2988 54.5417375,15.3028583 54.590697,15.3075573 C54.6495324,15.3133243 54.7083678,15.3203728 54.7678337,15.3287029 C54.8167932,15.3357515 54.8655425,15.3434408 54.9149223,15.3521981 C54.9405577,15.3566835 54.9661932,15.3592466 54.9920387,15.3643728 C55.0454109,15.3748388 55.0975223,15.3874408 55.1500539,15.4000427 C55.1605603,15.4023922 55.1710666,15.4036738 55.1813628,15.4064505 C55.1864058,15.4075184 55.1912387,15.4092272 55.1962818,15.4105087 C55.2196058,15.4162757 55.2422995,15.4231107 55.2656235,15.4293049 C55.3093299,15.4410524 55.3526159,15.4528 55.3956919,15.4660427 C55.4261603,15.4754408 55.4562084,15.4856932 55.4866767,15.495732 C55.5192463,15.5064117 55.5518159,15.5173049 55.5839653,15.5288388 C55.623259,15.5429359 55.6621324,15.5578874 55.7005856,15.5730524 C55.7203375,15.5807417 55.7402995,15.5886447 55.7596311,15.5967612 C55.8094311,15.6170524 55.8583906,15.6384117 55.9069299,15.6606252 C55.9111324,15.6627612 55.9153349,15.6646835 55.9195375,15.6666058 C57.4032413,16.3520233 58.3664615,17.8749359 58.3502818,19.5441592 C58.3500716,19.5868777 58.3498615,19.6295961 58.3481805,19.6727417 C58.34734,19.6958097 58.3454489,19.7186641 58.3441881,19.741732 C58.3414565,19.7897903 58.3385147,19.8378485 58.334102,19.8859068 C58.3320008,19.9104699 58.329059,19.9352466 58.3263273,19.9598097 C58.3231754,19.9901398 58.3206539,20.0206835 58.3166615,20.0512272 C58.3149805,20.0648971 58.312459,20.0779262 58.3105678,20.0915961 C58.3055248,20.1287612 58.299221,20.1661398 58.2931273,20.2035184 C58.2870337,20.2404699 58.2807299,20.277635 58.2735856,20.3145864 C58.2666514,20.3511107 58.2586666,20.3878485 58.2506818,20.4248 C58.242697,20.4617515 58.234502,20.4987029 58.2254666,20.5352272 C58.2223147,20.5484699 58.2197932,20.5617126 58.2164311,20.5747417 C58.2088666,20.6046447 58.1998311,20.6339068 58.1916362,20.6633825 C58.1849122,20.6870913 58.1786084,20.7110136 58.1716742,20.7347223 C58.1578058,20.7810718 58.1428868,20.826567 58.1275476,20.8722757 C58.1204033,20.8940621 58.1134691,20.9160621 58.1056944,20.937635 C58.0916159,20.9780039 58.0760666,21.0175184 58.0607273,21.0572466 C57.4593451,22.6107029 56.0042185,23.6551689 54.3757375,23.7248 C54.3711147,23.7250136 54.3664919,23.7250136 54.3618691,23.7252272 C54.3087071,23.7275767 54.2551248,23.7284311 54.2015425,23.7284311 C54.18074,23.7286447 54.1597273,23.7282175 54.1387147,23.7280039 C54.0971096,23.7273631 54.0557147,23.7265087 54.0138995,23.7243728 C53.979859,23.7230913 53.9458185,23.7205282 53.9113577,23.7181786 C53.8796286,23.7158291 53.8481096,23.7139068 53.8159603,23.7107029 C53.7714134,23.7066447 53.7268666,23.7010913 53.6821096,23.6953243 C53.6583653,23.692334 53.634621,23.6897709 53.6108767,23.6863534 C53.6056235,23.685499 53.6005805,23.6850718 53.5955375,23.6844311 C53.5322894,23.6748194 53.4694615,23.6639262 53.4072641,23.6517515 C53.4064235,23.6515379 53.4053729,23.6513243 53.4045324,23.6513243 C53.4020109,23.6506835 53.3994894,23.6498291 53.3967577,23.6494019 C53.3057729,23.631033 53.2160489,23.6092466 53.1275856,23.5855379 C53.1126666,23.581266 53.0975375,23.577635 53.0828286,23.5733631 C52.9960463,23.5490136 52.9107349,23.5214602 52.8266843,23.4917709 C52.8100843,23.4857903 52.7936944,23.4798097 52.7773046,23.4738291 C52.6928337,23.4424311 52.6092033,23.4091107 52.5276742,23.3725864 C52.519059,23.3689553 52.5106539,23.3646835 52.5020387,23.3608388 C52.4236615,23.3251689 52.3467552,23.2871495 52.2711096,23.2467806 C52.2603932,23.2410136 52.2492565,23.2356738 52.2387501,23.2296932 C52.2324463,23.2264893 52.2259324,23.2232854 52.2198387,23.2200816 C51.7441122,22.9577903 51.1553375,23.2452854 51.0519552,23.7852466 L50.1173122,28.6647612 L55.3482033,29.7000427 L55.7331552,29.7762951 L57.1481476,30.0563146 C57.6587552,30.1575573 57.947259,30.7190913 57.7266261,31.197965 C57.5850008,31.5053243 57.4778362,31.8351107 57.4112261,32.183266 C56.9558818,34.5599068 58.5589375,36.8592272 60.9581628,37.1770524 C63.0415678,37.4532272 65.0310463,36.059965 65.5233729,33.9838485 C65.6206615,33.5737515 65.6557527,33.1642951 65.6349501,32.7655184 C65.6074235,32.2364505 66.0804185,31.8244311 66.5918666,31.9256738 L69.4792159,32.4972466 L71.313621,32.8603534 L75.1179628,33.613266 L78.0107754,18.5131495 C78.4444767,16.2482175 76.9899805,14.0544117 74.7617982,13.6133437" id="Fill-54" fill="#1C75BB"></path>
                    <path d="M81.2211524,64.0570796 C80.3487068,63.8413515 79.2003651,63.3620505 79.2087701,63.0467883 C79.2283119,62.3261282 82.5125904,62.6653126 82.5125904,62.6653126 C82.5125904,62.6653126 82.6308916,63.4344583 82.5913878,63.8768078 C82.5676435,64.1408078 81.7954284,64.1991184 81.2211524,64.0570796" id="Fill-59" fill="#151912"></path>
                    <path d="M77.7721137,65.7808544 C76.9253035,65.6544078 75.3926403,65.2663107 75.2516453,64.7498447 C75.1633922,64.4268932 75.4928706,64.1556311 76.4033491,64.0885631 C77.0549516,64.040932 79.2366959,64.106932 79.2366959,64.106932 C79.2366959,64.106932 79.4556478,65.3182136 79.3755896,65.5950291 C79.2955314,65.8716311 78.435063,65.8797476 77.7721137,65.7808544" id="Fill-61" fill="#151912"></path>
                    <path d="M82.5286861,48.5282621 C82.5286861,48.5282621 82.1050709,53.6649417 82.0771241,55.5874854 C82.048757,57.5100291 82.6980481,62.1014078 82.6698911,62.6751165 C82.6415241,63.2492524 80.6089696,63.2778738 80.5526557,62.6467087 C80.4961316,62.0153301 80.1363949,58.2215049 80.1105494,57.3028447 C80.0664228,55.7201262 79.7056354,52.6890388 79.7056354,52.6890388 C79.7056354,52.6890388 79.0248253,56.4993107 79.0700025,57.8263592 C79.095638,58.580767 79.3419063,63.5247864 79.3963291,64.0822621 C79.4385646,64.5137184 77.1876886,64.6508447 77.1048987,64.1756019 C76.9685266,63.3951359 76.9040177,58.2499126 76.8760709,57.5322427 C76.8477038,56.815 77.4375291,50.2280291 77.3969747,49.7233107 C77.3562101,49.2185922 82.3786557,47.9991942 82.5286861,48.5282621" id="Fill-63" fill="#002D51"></path>
                    <path d="M77.4583527,40.4420019 C77.2944539,41.4221767 77.6161577,43.2744485 77.5716109,45.2728175 C77.5171881,47.7022155 77.2278438,49.7556913 77.3352185,49.8483903 C78.8706134,51.1745845 82.6776868,49.5066427 82.7545932,48.9013223 C83.2416666,45.0607204 82.023983,40.0874388 81.3702792,39.2473806 C80.3282615,37.9081573 77.6151071,39.5066816 77.4583527,40.4420019" id="Fill-65" fill="#1C75BB"></path>
                    <path d="M79.1042742,34.4751961 C80.3003147,34.1456233 80.7894894,34.797934 80.7894894,35.9316816 C80.7894894,37.0039146 80.8781628,37.4682641 80.5480539,37.7969825 C80.5163248,38.1643612 80.4904792,38.5844971 80.4921603,38.8164583 C80.4946818,39.1424 79.0979704,39.5678757 78.8435071,39.3782058 C78.7500008,39.3085748 78.7907653,39.0447883 78.79854,38.6776233 C78.4602362,38.7269631 78.2587248,38.7927495 78.1580742,38.6712155 C78.0389324,38.5268272 77.9231632,37.1591961 78.0475476,36.7279534 C78.0754944,36.6314097 77.9275653,36.3874874 77.9244134,36.2334874 C77.9120159,35.6488854 77.9704311,34.787468 79.1042742,34.4751961" id="Fill-67" fill="#FCCE9A"></path>
                    <path d="M79.3402673,38.5180058 C79.3526648,38.4455981 79.0454597,38.6292874 78.798561,38.6775592 C78.7937281,38.8954233 78.7775484,39.0769767 78.7846927,39.2029961 C78.7830116,38.8860252 79.2942496,38.7847825 79.3402673,38.5180058" id="Fill-69" fill="#E66B81"></path>
                    <path d="M79.2038111,36.6870291 C78.9768744,36.6460194 78.8690795,37.041165 78.8209605,37.0238641 C78.723882,36.9890485 78.9293858,36.2337864 78.62092,35.8969515 C78.4303352,35.688699 78.078163,35.7632427 77.99012,35.5150485 C77.8665656,35.0835922 78.3380896,34.5538835 79.0609251,34.3866408 C80.3183225,34.0959417 81.1697554,34.7629903 81.1697554,35.8969515 C81.1697554,36.7754563 80.5156314,37.6887767 80.5114289,38.2928155 C80.5095377,38.5403689 79.7001301,38.5192233 79.480758,38.3314757 C79.2613858,38.1437282 79.2008694,37.6603689 79.2884922,37.5102136 C79.4731934,37.1934563 79.4967276,36.7397864 79.2038111,36.6870291" id="Fill-71" fill="#4B2A12"></path>
                    <path d="M73.9590516,32.4800738 C73.6789529,31.968734 73.3236289,31.4524816 73.0489934,31.380501 C72.7972618,31.3142874 72.2874947,31.7579184 72.5079175,32.2293165 C72.6022643,32.4315883 72.7346441,32.7205786 72.8737478,33.0689476 C73.1042567,33.6456466 73.3706972,33.7197631 73.5831352,33.694132 C74.1637149,33.6236466 74.3603934,33.2120544 73.9590516,32.4800738" id="Fill-73" fill="#FCCE9A"></path>
                    <path d="M76.1986228,37.3659961 C75.8720861,36.7905786 74.6619671,33.4845981 74.2978177,33.2152583 C73.9338785,32.9463456 73.0771924,33.3859184 73.1799443,33.8724816 C73.4024684,34.9252777 74.5766557,37.9999379 74.8624278,38.5490835 C75.378919,39.5422874 77.752719,43.1560544 78.5173696,41.895433 C79.1883038,40.7900932 76.5251595,37.9414136 76.1986228,37.3659961" id="Fill-75" fill="#1C75BB"></path>
                    <path d="M74.1531666,32.9792175 C74.1531666,32.9792175 74.1584197,32.1797417 73.9077387,31.7320524 C73.7339641,31.4212757 73.5742678,31.7491398 73.6566375,32.0048097 C73.7390071,32.2609068 73.9421995,32.6718583 74.1531666,32.9792175" id="Fill-77" fill="#FCCE9A"></path>
                    <path d="M40.5577504,22.4545883 C40.5577504,22.4545883 40.4568896,22.733967 40.379563,22.9734039 C40.3591808,23.0366272 40.3406896,23.0960058 40.32472,23.1511126 C40.303077,23.2265107 40.6607124,23.4012291 40.9958643,23.4099864 C41.2581023,23.4168214 41.5258035,23.2901612 41.4589833,23.1459864 C41.390482,22.9981806 41.40372,22.5549767 41.40372,22.5549767 L40.5577504,22.4545883 Z" id="Fill-79" fill="#EBBEAF"></path>
                    <path d="M40.4082663,22.9733398 C40.4082663,22.9733398 40.8987018,23.3949709 41.4876866,23.1459223 C41.7463524,23.211068 43.3945853,24.1134951 43.0657372,24.3772816 C42.843003,24.5560583 40.2290284,24.4285437 40.037603,24.1641165 C39.9640587,24.0626602 40.1849018,23.2076505 40.4082663,22.9733398" id="Fill-81" fill="#242025"></path>
                    <path d="M47.2758544,22.4545883 C47.2758544,22.4545883 47.1749937,22.733967 47.097457,22.9734039 C47.0772848,23.0366272 47.0587937,23.0960058 47.0428241,23.1511126 C47.021181,23.2265107 47.3788165,23.4012291 47.7139684,23.4099864 C47.9762063,23.4168214 48.2439076,23.2901612 48.1770873,23.1459864 C48.1085861,22.9981806 48.1218241,22.5549767 48.1218241,22.5549767 L47.2758544,22.4545883 Z" id="Fill-83" fill="#EBBEAF"></path>
                    <path d="M47.097541,22.9733398 C47.097541,22.9733398 47.5879765,23.3949709 48.1769613,23.1459223 C48.4356271,23.211068 50.08386,24.1134951 49.7550119,24.3772816 C49.5322777,24.5560583 46.918303,24.4285437 46.7268777,24.1641165 C46.6535435,24.0626602 46.8741765,23.2076505 47.097541,22.9733398" id="Fill-85" fill="#242025"></path>
                    <path d="M48.0791263,10.8375845 C48.0791263,10.8375845 48.1585542,22.1979146 48.1875516,22.7852932 C48.1875516,22.7852932 47.5458251,22.9465553 47.1016175,22.8062252 C47.1016175,22.8062252 46.5346959,20.2209049 46.7032175,18.033934 C46.7570099,17.3327107 45.7780301,13.5974097 45.6639314,12.6191573 C45.5498327,11.6411184 45.8639719,10.2976233 45.8639719,10.2976233 L48.0791263,10.8375845 Z" id="Fill-87" fill="#0B73AB"></path>
                    <path d="M47.0090987,10.8230816 C47.0090987,10.8230816 45.8002405,14.0209845 44.8727418,15.7269456 C43.9637342,17.3989456 41.5294177,22.9989068 41.5294177,22.9989068 C41.5294177,22.9989068 40.8507089,23.1586738 40.3527089,22.6883437 C40.3527089,22.6883437 41.5035722,18.1253728 41.8763367,17.502965 C42.2875544,16.8160524 42.4659519,16.3478583 42.8071975,15.6118194 C43.1482329,14.8757806 43.5739494,12.1456447 43.8813646,11.432033 C44.2427823,10.5934699 44.7538101,10.0577806 44.7538101,10.0577806 L47.0090987,10.8230816 Z" id="Fill-89" fill="#0B73AB"></path>
                    <path d="M52.0391929,0.599126214 C51.4481068,-0.106582524 50.0553878,-0.136271845 49.3871853,0.650174757 C48.8047144,1.33623301 48.5624385,0.878932039 47.7856005,1.34691262 C46.8749119,1.89605825 47.0657068,3.03984466 46.4458334,3.17269903 C45.82596,3.30576699 44.0060537,3.52897087 43.6944359,5.29943689 C43.4319878,6.79223301 44.8274385,8.05392233 46.0753803,8.07036893 C47.705122,8.09151456 47.4748233,6.89497087 48.6641397,7.0261165 C50.9856182,7.28221359 51.2125549,5.75695146 51.2352486,5.10720388 C51.2764334,3.9132233 52.0952967,3.55225243 52.3575347,2.78097087 C52.6309094,1.97679612 52.5018916,1.15147573 52.0391929,0.599126214" id="Fill-91" fill="#1E284B"></path>
                    <path d="M50.8523139,5.25268155 C50.8523139,5.25268155 51.7613215,6.88602136 52.6364987,7.47489515 C53.5116759,8.06376893 55.1622203,8.8895165 55.6106304,9.05761359 C56.0590405,9.22549709 56.9256025,9.7201767 57.414357,10.1796136 L55.8533266,9.87054563 C55.4433696,9.86072039 55.8010051,10.5760408 55.5127114,10.6463126 C55.2433291,10.712099 55.3563772,9.77806019 54.9640709,9.59607961 C54.6867038,9.46749709 52.7613139,8.79382718 52.2357873,8.29936117 C51.8378076,7.92493398 50.2528228,6.51757476 50.2528228,6.51757476 L50.8523139,5.25268155 Z" id="Fill-93" fill="#FACCB3"></path>
                    <path d="M50.8978694,5.33226602 C51.0090263,5.60096505 50.8455478,6.02003301 50.6057934,6.30304272 C50.2250441,6.75244078 50.5227934,7.72748932 50.0300466,8.07350874 C49.5372997,8.41974175 49.3273833,8.4539165 49.0084111,9.01032427 C48.7278922,9.49945049 48.3767706,10.8371786 48.3755099,11.1597029 C48.3755099,11.1597029 45.6178086,11.2370233 44.446563,10.2453146 C44.446563,10.2453146 46.131358,8.51372233 46.4307884,7.1698 C46.7068947,5.92989709 46.9651403,4.26174175 47.7842137,4.11948932 C48.3231884,4.02593592 49.482877,4.33115922 49.8619453,4.5242466 C50.316239,4.75556699 50.8499605,5.21628544 50.8978694,5.33226602" id="Fill-95" fill="#FEBA40"></path>
                    <path d="M47.5935028,4.39269515 C48.3087737,4.04496699 49.5037635,6.85477282 49.9069965,7.14867573 C50.488837,7.5728699 52.1353889,9.02636505 52.5642572,9.41617087 C52.9511003,9.7675301 53.3438268,9.69661748 53.7348724,9.7812 L53.6684724,10.1265786 C53.8216547,10.2707534 54.0567863,10.3719961 54.2669129,10.5133942 C54.4768294,10.6545786 54.5898775,10.992268 54.3763889,11.0920155 C54.0250572,11.2560544 53.3553838,11.0920155 53.0067838,10.8606951 C52.8594851,10.7628699 52.7037813,10.3395301 52.3637965,10.1970641 C52.0236015,10.0548117 49.9832724,8.71345243 49.5306597,8.34415146 C49.077837,7.97485049 48.4867509,7.23090874 48.0301458,6.72939417 C47.3396699,5.97178252 46.971318,4.69535534 47.5935028,4.39269515" id="Fill-97" fill="#FACCB3"></path>
                    <path d="M50.615102,4.00491845 C50.615102,4.00491845 50.3259678,4.63800583 50.3223957,4.98722913 C50.3188235,5.33645243 49.917902,5.9998699 49.6409552,5.98876311 C49.3642185,5.97744272 48.9099248,4.95561748 49.132659,4.51839417 C49.3556033,4.08095728 49.594097,3.53651068 49.6258261,3.01491845 C49.6258261,3.01491845 49.7878337,3.89086019 50.615102,4.00491845" id="Fill-99" fill="#FACCB3"></path>
                    <path d="M51.8824385,2.57194951 C51.98456,1.9399301 51.6811372,1.62936699 51.6811372,1.62936699 C51.3216106,2.10161942 50.8145752,1.59092039 50.610122,1.95253204 C50.3529271,2.40855146 50.0745094,2.18214369 49.7670942,2.35643495 C49.6120208,2.44400777 49.5964714,2.66101748 49.6021448,2.79109515 C49.6120208,2.89831845 49.6246284,3.00554175 49.6372359,3.11468738 C49.6897676,3.56921165 50.2999752,4.28944466 50.8301246,4.31379417 C51.1680081,4.32938641 51.7029904,3.40645437 51.8824385,2.57194951" id="Fill-101" fill="#FACCB3"></path>
                    <path d="M9.89620557,61.823332 C9.89620557,61.823332 9.76571696,62.7558757 9.83716,62.9222641 C9.83716,62.9222641 12.8823144,63.5506524 14.0722613,63.181565 C14.6599853,62.7902641 11.7446891,61.5437398 11.7446891,61.5437398 L9.89620557,61.823332 Z" id="Fill-105" fill="#151912"></path>
                    <path d="M9.4120319,49.6969748 C10.2529585,52.7340427 12.6395762,55.3022757 12.6265484,56.5329942 C11.4447965,58.5802757 10.5677281,59.9763146 9.81568506,61.8804893 C10.2435028,62.1218485 11.6889635,61.9078291 11.9862927,61.6316544 C12.5752775,60.4746252 15.1947154,57.0210524 15.3020901,56.0746252 C15.3842496,55.3494796 13.9068496,51.9604117 12.9005534,49.7561398 C11.7377129,49.7292272 10.5750825,49.7018874 9.4120319,49.6969748" id="Fill-107" fill="#084E75"></path>
                    <path d="M22.1960911,44.6925728 C22.1960911,44.6925728 22.8748,44.7859126 23.0105418,44.7096602 C23.2078506,44.599233 23.5312354,43.7850194 23.8995873,43.773699 L23.8995873,44.490301 C23.8995873,44.490301 25.0023316,44.4738544 25.2053139,44.6278544 C25.4833114,44.8393107 25.3202532,45.7240097 24.8745747,46.0320097 C24.6556228,46.183233 23.7260228,46.0950194 23.550357,46.0689612 C23.2996759,46.0320097 23.243362,45.8938155 22.9683063,45.8837767 C22.8088203,45.8782233 22.0616101,45.7786893 22.0616101,45.7786893 C21.8046253,45.5351942 21.9382658,44.6827476 22.1960911,44.6925728" id="Fill-109" fill="#FCD39E"></path>
                    <path d="M18.5623932,39.9105204 C18.6355172,39.7678408 18.4659451,39.598035 18.3772716,39.4096466 C18.3257906,39.2998602 18.2852362,39.194132 18.3587805,39.0362874 C18.6256413,38.4657825 18.4348463,37.9672583 18.4348463,37.9672583 C18.3638235,37.7859184 16.8897856,36.7057825 16.0965577,36.8277437 C15.7256843,36.8847728 15.4104944,37.134035 15.2699197,37.4875301 L15.1911223,37.6857437 C15.119259,37.8668699 15.0768134,38.0554718 15.0606337,38.2468505 C15.0421425,38.4674913 15.0856387,38.6872777 15.1509881,38.898734 C15.2230615,39.1315495 15.2560514,39.3771806 15.2278944,39.6418214 C15.1959552,39.9429864 15.1001375,40.236035 14.9387603,40.4729087 L15.9454767,42.3901126 L16.3634185,41.8215301 C16.5981299,41.5019961 16.926978,41.2670447 17.3022641,41.1508505 L17.7540362,41.2305204 C17.8088792,41.240132 17.9918995,41.270035 18.0711172,41.1645204 C18.157059,41.050035 18.2247197,40.1619184 18.3018362,40.0771223 C18.3789527,39.9925398 18.5279324,39.9778019 18.5623932,39.9105204" id="Fill-111" fill="#FCD39E"></path>
                    <path d="M16.5918261,36.4724117 C15.9179501,36.4538291 15.3123653,36.8404311 15.1081223,37.3942757 C14.9040894,37.948334 15.0209197,38.7112854 15.0820666,38.9124893 C15.1518286,39.1418874 15.255421,39.3815379 15.2278944,39.6419068 C15.2182286,39.733965 15.202259,39.8251689 15.1804058,39.9142369 C15.715178,40.0868194 15.8259147,39.8772854 15.9736337,39.8285864 C16.2243147,39.745499 16.5159704,39.8708777 16.5159704,39.8708777 L16.3758159,39.7420816 C16.2640286,39.6393437 16.2039324,39.4906835 16.2125476,39.3375379 L16.2249451,39.1196738 C16.2360818,38.9227417 16.4020818,38.7721592 16.5958185,38.783266 L16.6512919,38.7866835 C16.8244362,38.7967223 16.9570261,38.947732 16.9471501,39.1239456 L16.9439982,39.1801204 C16.9372742,39.2982369 17.0410767,39.3943534 17.1322716,39.4263922 C17.1829122,39.0526058 17.4390565,39.0637126 17.5907678,38.553868 C17.7578185,37.9921204 18.1461324,37.8455961 18.4348463,37.9673437 C18.4075299,36.8511107 17.564502,36.4991107 16.5918261,36.4724117" id="Fill-113" fill="#874A54"></path>
                    <path d="M16.6107165,40.5344019 C16.5731038,40.734965 16.8185316,41.3629262 16.697919,41.4722854 C16.6981291,41.472499 16.6987595,41.4727126 16.6991797,41.4729262 C16.8777873,41.3293922 17.0818203,41.2191786 17.302243,41.1508291 C17.302243,41.1508291 16.8775772,41.0893146 16.6107165,40.5344019" id="Fill-115" fill="#F6AA8B"></path>
                    <path d="M0.341077468,62.6076214 C0.341077468,62.6076214 0.153854684,63.5168835 0.225087595,63.6828447 C0.225087595,63.6828447 3.27045215,64.3116602 4.46039899,63.9423592 C4.83631544,63.437 2.13282684,62.3047476 2.13282684,62.3047476 L0.341077468,62.6076214 Z" id="Fill-117" fill="#151912"></path>
                    <path d="M9.00552101,49.0507728 C7.77649063,51.5442485 7.08811595,55.6146757 5.58592101,56.8398408 C3.95659949,58.1683845 1.4144881,60.6979573 0.236938734,62.6666369 C0.792303291,62.9184621 2.09466785,62.9910835 2.54517924,62.4897825 C5.44261468,59.4969282 7.71639443,58.8781515 8.67604253,57.6405981 C9.34697671,56.7755495 12.4160856,50.3064816 12.4160856,50.3064816 C12.4160856,50.3064816 9.15155899,48.7543068 9.00552101,49.0507728" id="Fill-119" fill="#084E75"></path>
                    <path d="M14.8081246,40.1176621 C14.8081246,40.1176621 14.9085651,40.0405553 15.129198,39.9749667 C15.3250359,39.9700699 16.3151524,41.1091573 16.1918081,42.4045942 C16.0859043,43.5169825 15.0615372,45.3211961 15.0615372,45.3211961 L14.8081246,40.1176621 Z" id="Fill-121" fill="#FFFFFF"></path>
                    <path d="M15.5647063,43.2643883 C15.5647063,43.2643883 14.5495848,48.9038641 14.5355063,49.0213398 C14.393881,50.1918252 14.7088608,50.8428544 14.8412405,50.9665243 C14.9210886,51.0408544 15.0797342,49.4771456 15.1934127,48.222932 C15.2684278,47.3967573 15.9397823,42.926699 15.9397823,42.926699 L15.5647063,43.2643883 Z" id="Fill-123" fill="#D86600"></path>
                    <path d="M14.8731587,39.9614194 C14.4806423,39.9370699 12.4161486,41.1342544 11.1539182,44.7375553 C10.5521157,46.4559049 8.03143722,48.6454388 8.03143722,48.6454388 C8.03143722,48.6454388 9.81120937,51.1799243 13.3541537,50.5929728 C13.5979005,47.7131087 14.3766296,47.2081767 15.1883486,45.5359631 C15.9382904,43.9901961 15.9876701,42.6035553 15.9946043,42.5247398 C16.0918929,41.429866 15.0481942,39.9725262 14.8731587,39.9614194" id="Fill-125" fill="#0B73AB"></path>
                    <path d="M17.9099501,45.2591049 C19.7113653,45.6935515 22.2822641,46.1094155 22.6174159,46.0194932 C22.8082109,45.9594738 23.1242413,44.8453767 22.9716894,44.549765 C22.1437906,44.4788524 19.6073527,43.9884447 18.7903805,43.7278621 C18.0427501,43.4894932 16.3251754,42.1630854 15.9024008,41.9080563 C15.4798362,41.6528136 14.3987349,41.3146971 14.0282818,42.0120757 C13.6693856,42.6872408 14.5475046,43.7120563 15.1230413,43.9952796 C15.1230413,43.9952796 17.3764387,45.1303087 17.9099501,45.2591049" id="Fill-127" fill="#0B73AB"></path>
                    <path d="M67.4102466,16.7035534 C65.5207884,15.9247961 63.3602668,16.8537087 62.5939352,18.7743301 C62.1270339,19.9443883 62.2676086,21.2665243 62.9700618,22.3109903 L62.9967478,22.3505049 L62.9988491,22.3983495 C63.0270061,23.0765049 63.0148187,24.0750485 62.7967073,24.9806796 L62.7931352,24.993068 C62.6880719,25.3192233 62.738082,25.6772039 62.9337099,26.0010097 C63.134801,26.3335728 63.4640694,26.5896699 63.860158,26.7210291 C64.6687251,26.9901553 65.5058694,26.652466 65.7258719,25.9685437 L65.7279732,25.9625631 L65.7304947,25.9565825 C66.0002972,25.2940194 66.4266441,24.5831845 66.9979782,23.8441553 L67.0301276,23.8022913 L67.0803478,23.7871262 C68.1614491,23.4575534 69.0242289,22.6602136 69.4472137,21.599301 C70.2135453,19.6786796 69.2997048,17.4823107 67.4102466,16.7035534 M63.6143099,26.9860971 C63.2077149,26.8184272 62.8700415,26.5349903 62.6529808,26.1763689 C62.4069225,25.7694757 62.3451453,25.3147379 62.4779453,24.8950291 C62.6807175,24.0496311 62.6960567,23.1130291 62.6714719,22.4596505 C61.9299352,21.3288932 61.7859985,19.9078641 62.2886213,18.6485243 C63.1230339,16.5568155 65.4762415,15.5450291 67.5340111,16.3932039 C69.5919909,17.2415922 70.5871504,19.6333981 69.7525276,21.7251068 C69.2982339,22.8639806 68.3789301,23.7241165 67.2253352,24.0921359 C66.6903529,24.7901553 66.2906922,25.4584854 66.0370694,26.0791845 C65.7573909,26.9344078 64.7365959,27.3652233 63.7578263,27.0394951 C63.709077,27.0232621 63.6611681,27.0053204 63.6143099,26.9860971" id="Fill-129" fill="#FFDC7D"></path>
                    <polygon id="Fill-131" fill="#FFDC7D" points="63.3216035 25.4252718 64.1564365 21.0128835 64.7971124 22.0291553 65.5296137 21.5951359 65.8166466 22.319 66.8519403 21.8822039 65.0173251 25.9769806 64.7176846 25.8383592 66.2051706 22.5176408 65.6357276 22.757932 65.3663453 22.0793495 64.6903681 22.4800485 64.3241175 21.8992913 63.6451985 25.4884951"></polygon>
                    <polygon id="Fill-133" fill="#FFDC7D" points="64.879503 28.2140602 62.1646676 27.3109922 62.5227233 26.1988175 65.2375587 27.102099"></polygon>
                    <polygon id="Fill-135" fill="#FFDC7D" points="65.4635078 27.9013825 61.8755965 26.7078291 62.4519737 24.9177126 66.0398851 26.111266"></polygon>
                    <path d="M32.9815104,54.0505825 C31.3072218,54.0505825 29.9500142,52.6709903 29.9500142,50.9690874 C29.9500142,49.2669709 31.3072218,47.8875922 32.9815104,47.8875922 C34.655799,47.8875922 36.0130066,49.2669709 36.0130066,50.9690874 C36.0130066,52.6709903 34.655799,54.0505825 32.9815104,54.0505825 L32.9815104,54.0505825 Z M36.926637,49.9299612 C36.8308192,49.5525437 36.6837306,49.1960583 36.4935661,48.8684078 L36.9346218,48.1945243 L36.3227332,47.5725437 L35.7110547,46.9507767 L35.0478952,47.3988932 C34.725561,47.2058058 34.3748597,47.0560777 34.0035661,46.9586796 L33.8466015,46.1658252 L32.9815104,46.1658252 L32.1164192,46.1658252 L31.9592446,46.9586796 C31.588161,47.0560777 31.2374597,47.2058058 30.9151256,47.3988932 L30.2519661,46.9507767 L29.6400775,47.5725437 L29.028399,48.1945243 L29.4694547,48.8684078 C29.2792901,49.1960583 29.1322015,49.5525437 29.0361737,49.9299612 L28.2561838,50.0897282 L28.2561838,50.9690874 L28.2561838,51.8484466 L29.0361737,52.008 C29.1322015,52.3854175 29.2792901,52.7419029 29.4694547,53.0695534 L29.028399,53.7436505 L29.6400775,54.3656311 L30.2519661,54.9873981 L30.9151256,54.539068 C31.2374597,54.7321553 31.588161,54.8820971 31.9592446,54.9794951 L32.1164192,55.7723495 L32.9815104,55.7723495 L33.8466015,55.7723495 L34.0035661,54.9794951 C34.3748597,54.8820971 34.725561,54.7321553 35.0478952,54.539068 L35.7110547,54.9873981 L36.3227332,54.3656311 L36.9346218,53.7436505 L36.4935661,53.0695534 C36.6837306,52.7419029 36.8308192,52.3854175 36.926637,52.008 L37.706837,51.8484466 L37.706837,50.9690874 L37.706837,50.0897282 L36.926637,49.9299612 Z" id="Fill-137" fill="#FFFFFF"></path>
                    <path d="M38.7645932,59.5211709 C37.7709046,59.5211709 36.9654894,58.7024718 36.9654894,57.6921806 C36.9654894,56.6823165 37.7709046,55.8636175 38.7645932,55.8636175 C39.7582818,55.8636175 40.5639071,56.6823165 40.5639071,57.6921806 C40.5639071,58.7024718 39.7582818,59.5211709 38.7645932,59.5211709 L38.7645932,59.5211709 Z M41.1060337,57.0757534 C41.0492995,56.8516951 40.9618868,56.6402388 40.8490489,56.4458699 L41.1108666,56.0458117 L40.7477678,55.6767243 L40.384459,55.3074233 L39.991102,55.5737728 C39.7996767,55.4588602 39.5916514,55.3700058 39.3712286,55.3123359 L39.2781425,54.8417922 L38.7645932,54.8417922 L38.2512539,54.8417922 L38.1579577,55.3123359 C37.9375349,55.3700058 37.7295096,55.4588602 37.5382944,55.5737728 L37.1447273,55.3074233 L36.7816286,55.6767243 L36.4185299,56.0458117 L36.6803476,56.4458699 C36.5672995,56.6402388 36.480097,56.8516951 36.4231527,57.0757534 L35.9602438,57.1703748 L35.9602438,57.6921806 L35.9602438,58.2144136 L36.4231527,58.309035 C36.480097,58.5330932 36.5672995,58.7445495 36.6803476,58.9389184 L36.4185299,59.3389767 L36.7816286,59.7080641 L37.1447273,60.0771515 L37.5382944,59.8110155 C37.7295096,59.9259282 37.9375349,60.0147825 38.1579577,60.0724524 L38.2512539,60.5429961 L38.7645932,60.5429961 L39.2781425,60.5429961 L39.3712286,60.0724524 C39.5916514,60.0147825 39.7996767,59.9259282 39.991102,59.8110155 L40.384459,60.0771515 L40.7477678,59.7080641 L41.1108666,59.3389767 L40.8490489,58.9389184 C40.9618868,58.7445495 41.0492995,58.5330932 41.1060337,58.309035 L41.5691527,58.2144136 L41.5691527,57.6921806 L41.5691527,57.1703748 L41.1060337,57.0757534 Z" id="Fill-139" fill="#FFFFFF"></path>
                    <polygon id="Fill-141" fill="#FFFFFF" points="50.5441003 60.4885942 50.3493129 60.2788466 55.3885686 55.4456816 60.488761 56.5687495 65.3603357 50.9217981 69.6090952 51.1655068 72.9181686 46.5258563 73.147837 46.695235 69.7479889 51.4624 65.4826294 51.2178369 60.5919332 56.8870019 55.4747205 55.7596621"></polygon>
                    <path d="M61.2802448,56.5650971 C61.3687081,56.9803204 61.1094119,57.3899903 60.7005056,57.4801262 C60.2920195,57.5700485 59.8889967,57.3062621 59.8003233,56.8908252 C59.71186,56.4753883 59.9713663,56.0657184 60.3802727,55.9757961 C60.7887587,55.8858738 61.1917815,56.1496602 61.2802448,56.5650971" id="Fill-143" fill="#FFFFFF"></path>
                    <path d="M60.4101947,56.1168311 C60.0786149,56.1898796 59.8674377,56.5232971 59.939301,56.860132 C60.0109542,57.1971806 60.3389618,57.4118408 60.6705415,57.3390058 C61.0019111,57.2661709 61.2132985,56.9325398 61.1414352,56.5954913 C61.069782,56.2586563 60.7415643,56.0437825 60.4101947,56.1168311 M60.7304276,57.6211612 C60.2460858,57.7277437 59.766577,57.4137631 59.6615137,56.921433 C59.5566605,56.4288893 59.8655466,55.9414718 60.3500985,55.8348893 C60.8346504,55.7280932 61.3141592,56.0418602 61.4190124,56.5346175 C61.5240757,57.0271612 61.2151896,57.5145786 60.7304276,57.6211612" id="Fill-145" fill="#4AAFFF"></path>
                    <path d="M66.1599514,50.9555883 C66.2484147,51.3708117 65.9889084,51.7804816 65.5802122,51.8706175 C65.1715159,51.9605398 64.7684932,51.6967534 64.6800299,51.2811029 C64.5915666,50.8658796 64.8510729,50.4562097 65.2597691,50.3662874 C65.6684653,50.276365 66.0714881,50.540365 66.1599514,50.9555883" id="Fill-147" fill="#FFFFFF"></path>
                    <path d="M65.2896911,50.5073223 C64.9583215,50.5803709 64.7469342,50.9137883 64.8187975,51.2506233 C64.8906608,51.5878854 65.2186684,51.802332 65.550038,51.7297107 C65.8816177,51.6566621 66.0927949,51.3230311 66.0211418,50.9859825 C65.9494886,50.6491476 65.6212709,50.4342738 65.2896911,50.5073223 M65.6101342,52.0116524 C65.1257924,52.118235 64.6460734,51.8042544 64.5412203,51.3119243 C64.4363671,50.8193806 64.7452532,50.3319631 65.2298051,50.2253806 C65.714357,50.1185845 66.1938658,50.4323515 66.298719,50.9251087 C66.4035722,51.4176524 66.0946861,51.9048563 65.6101342,52.0116524" id="Fill-149" fill="#4AAFFF"></path>
                    <path d="M70.3774651,51.1272524 C70.4661385,51.5424757 70.2066322,51.9521456 69.7977258,52.0422816 C69.3892397,52.1322039 68.986217,51.8684175 68.8977537,51.4529806 C68.8090803,51.0375437 69.0685866,50.6278738 69.4774929,50.5379515 C69.885979,50.4480291 70.2890018,50.7118155 70.3774651,51.1272524" id="Fill-151" fill="#FFFFFF"></path>
                    <path d="M69.5074149,50.6790078 C69.1760453,50.7520563 68.964658,51.0854738 69.0365213,51.4223087 C69.1081744,51.7595709 69.436182,51.9740175 69.7677618,51.9011825 C70.0991314,51.8283476 70.3105187,51.4947165 70.2386554,51.157668 C70.1670023,50.820833 69.8389947,50.6059592 69.5074149,50.6790078 M69.827858,52.1833379 C69.3435162,52.2899204 68.8637972,51.9759398 68.7587339,51.4836097 C68.6538808,50.991066 68.9627668,50.5036485 69.4473187,50.397066 C69.9318706,50.2902699 70.4113795,50.6040369 70.5162327,51.0967942 C70.6212959,51.5893379 70.3124099,52.0765417 69.827858,52.1833379" id="Fill-153" fill="#4AAFFF"></path>
                    <path d="M56.1674448,55.5108913 C56.2559081,55.9263282 55.9964018,56.3359981 55.5877056,56.4259204 C55.1790094,56.5158427 54.7759866,56.2520563 54.6875233,55.8366194 C54.59906,55.4211825 54.8585663,55.0115126 55.2672625,54.9215903 C55.6759587,54.831668 56.0789815,55.095668 56.1674448,55.5108913" id="Fill-155" fill="#FFFFFF"></path>
                    <path d="M55.2973947,55.0626466 C54.9658149,55.1356951 54.7546377,55.4691126 54.8262909,55.8061612 C54.8981542,56.1432097 55.2261618,56.3578699 55.5577415,56.285035 C55.8891111,56.2119864 56.1004985,55.8783553 56.0286352,55.5415204 C55.956982,55.2044718 55.6287643,54.9898117 55.2973947,55.0626466 M55.6176276,56.5669767 C55.1332858,56.6735592 54.653777,56.3597922 54.5487137,55.8672485 C54.4438605,55.3747049 54.7527466,54.8872874 55.2372985,54.7807049 C55.7218504,54.6741223 56.2013592,54.9878893 56.3062124,55.480433 C56.4110656,55.9729767 56.1021795,56.4603942 55.6176276,56.5669767" id="Fill-157" fill="#4AAFFF"></path>
                    <polygon id="Fill-159" fill="#308DFC" points="54.6703139 59.1411262 57.769681 59.1411262 57.769681 58.5345243 54.6703139 58.5345243"></polygon>
                    <polygon id="Fill-161" fill="#308DFC" points="56.8257924 52.9155534 59.9251595 52.9155534 59.9251595 52.3087379 56.8257924 52.3087379"></polygon>
                    <polygon id="Fill-162" fill="#308DFC" points="63.2550354 57.2538252 66.3544025 57.2538252 66.3544025 56.6472233 63.2550354 56.6472233"></polygon>
                    <polygon id="Fill-163" fill="#308DFC" points="66.0352203 48.7336311 69.1345873 48.7336311 69.1345873 48.1268155 66.0352203 48.1268155"></polygon>
                    <polygon id="Fill-164" fill="#308DFC" points="70.536762 53.8105049 73.6361291 53.8105049 73.6361291 53.2039029 70.536762 53.2039029"></polygon>
                </g>
            </g>
        </g>
    </g>
</svg>